<?xml version="1.0" encoding="UTF-8" standalone="no"?>
<svg width="15px" height="15px" viewBox="0 0 15 15" version="1.1" xmlns="http://www.w3.org/2000/svg" xmlns:xlink="http://www.w3.org/1999/xlink">
<!-- Generator: Sketch 40.3 (33839) - http://www.bohemiancoding.com/sketch -->
<title>abaccus</title>
<desc>Created with Sketch.</desc>
<defs></defs>
<g id="Page-1" stroke="none" stroke-width="1" fill="none" fill-rule="evenodd">
	<g id="abaccus" fill="#000000">
		<g id="Group">
			<path d="M12.5,1.5v1.9H9.1c0,0,0,0,0,0C8.9,3,8.5,2.7,8.1,2.7c-0.5,0-1,0.4-1,1s0.4,1,1,1c0.5,0,0.8-0.3,1-0.7c0,0,0,0,0,0h3.4v3.4
				h-0.8c0,0,0,0,0,0c-0.1-0.4-0.5-0.7-1-0.7c-0.5,0-1,0.4-1,1s0.4,1,1,1c0.5,0,0.8-0.3,1-0.7c0,0,0,0,0,0h0.8v3.4h-0.9c0,0,0,0,0,0
				c-0.1-0.4-0.5-0.7-1-0.7c-0.5,0-0.8,0.3-1,0.7c0,0,0,0,0,0H8.2c0,0,0,0,0,0c-0.1-0.4-0.5-0.7-1-0.7c-0.5,0-0.8,0.3-1,0.7
				c0,0,0,0,0,0H5.1c0,0,0,0,0,0c-0.1-0.4-0.5-0.7-1-0.7s-0.8,0.3-1,0.7c0,0,0,0,0,0H2.5l0,0V7.7l0,0h0.6c0,0,0,0,0,0
				c0.1,0.4,0.5,0.7,1,0.7s0.8-0.3,1-0.7c0,0,0,0,0,0h2.6c0,0,0,0,0,0c0.1,0.4,0.5,0.7,1,0.7c0.5,0,1-0.4,1-1s-0.4-1-1-1
				c-0.5,0-0.8,0.3-1,0.7c0,0,0,0,0,0H5.1c0,0,0,0,0,0C5,6.8,4.6,6.5,4.1,6.5s-0.8,0.3-1,0.7c0,0,0,0,0,0H2.5l0,0V3.9l0,0h0.6
				c0,0,0,0,0,0c0.1,0.4,0.5,0.7,1,0.7c0.5,0,1-0.4,1-1s-0.4-1-1-1c-0.5,0-0.8,0.3-1,0.7c0,0,0,0,0,0H2.5l0,0V1.5h-1v12h1v-1.9l0,0
				h0.6c0,0,0,0,0,0c0.1,0.4,0.5,0.7,1,0.7s0.8-0.3,1-0.7c0,0,0,0,0,0h1.1c0,0,0,0,0,0c0.1,0.4,0.5,0.7,1,0.7c0.5,0,0.8-0.3,1-0.7
				c0,0,0,0,0,0h1.4c0,0,0,0,0,0c0.1,0.4,0.5,0.7,1,0.7c0.5,0,0.8-0.3,1-0.7c0,0,0,0,0,0h0.9v1.9h1v-12H12.5z"/>
			<circle cx="6.1" cy="3.7" r="1"/>
		</g>
	</g>
</g>
</svg>