<?xml version="1.0" encoding="UTF-8" standalone="no"?>
<svg width="15px" height="15px" viewBox="0 0 15 15" version="1.1" xmlns="http://www.w3.org/2000/svg" xmlns:xlink="http://www.w3.org/1999/xlink">
    <!-- Generator: Sketch 40.3 (33839) - http://www.bohemiancoding.com/sketch -->
    <title>align-left</title>
    <desc>Created with Sketch.</desc>
    <defs></defs>
    <g id="Page-1" stroke="none" stroke-width="1" fill="none" fill-rule="evenodd">
        <g id="align-left" fill="#000000">
            <g id="Capa_1">
                <g id="Group">
                    <path d="M8.49326087,14.8871739 L0.326086957,14.8871739 C0.146086957,14.8871739 0,14.741087 0,14.561087 C0,14.381087 0.146086957,14.235 0.326086957,14.235 L8.49326087,14.235 C8.67326087,14.235 8.81934783,14.381087 8.81934783,14.561087 C8.81934783,14.741087 8.67391304,14.8871739 8.49326087,14.8871739 L8.49326087,14.8871739 Z" id="Shape"></path>
                    <path d="M14.6178261,10.1615217 L0.326086957,10.1615217 C0.146086957,10.1615217 0,10.0154348 0,9.83543478 C0,9.65543478 0.146086957,9.50934783 0.326086957,9.50934783 L14.6178261,9.50934783 C14.7978261,9.50934783 14.943913,9.65543478 14.943913,9.83543478 C14.943913,10.0154348 14.7978261,10.1615217 14.6178261,10.1615217 L14.6178261,10.1615217 Z" id="Shape"></path>
                    <path d="M8.49326087,5.43521739 L0.326086957,5.43521739 C0.146086957,5.43521739 0,5.28913043 0,5.10913043 C0,4.92913043 0.146086957,4.78304348 0.326086957,4.78304348 L8.49326087,4.78304348 C8.67326087,4.78304348 8.81934783,4.92913043 8.81934783,5.10913043 C8.81934783,5.28913043 8.67391304,5.43521739 8.49326087,5.43521739 L8.49326087,5.43521739 Z" id="Shape"></path>
                    <path d="M14.6178261,0.708913043 L0.326086957,0.708913043 C0.146086957,0.708913043 0,0.562826087 0,0.382826087 C0,0.202826087 0.146086957,0.0567391304 0.326086957,0.0567391304 L14.6178261,0.0567391304 C14.7978261,0.0567391304 14.943913,0.202826087 14.943913,0.382826087 C14.943913,0.562826087 14.7978261,0.708913043 14.6178261,0.708913043 L14.6178261,0.708913043 Z" id="Shape"></path>
                </g>
            </g>
        </g>
    </g>
</svg>