<?xml version="1.0" encoding="UTF-8" standalone="no"?>
<svg width="15px" height="15px" viewBox="0 0 15 15" version="1.1" xmlns="http://www.w3.org/2000/svg" xmlns:xlink="http://www.w3.org/1999/xlink">
    <!-- Generator: Sketch 40.3 (33839) - http://www.bohemiancoding.com/sketch -->
    <title>align-center</title>
    <desc>Created with Sketch.</desc>
    <defs></defs>
    <g id="Page-1" stroke="none" stroke-width="1" fill="none" fill-rule="evenodd">
        <g id="align-center" fill="#000000">
            <g id="Group">
                <path d="M11.5558696,14.8871739 L3.38804348,14.8871739 C3.20804348,14.8871739 3.06195652,14.741087 3.06195652,14.561087 C3.06195652,14.381087 3.20804348,14.235 3.38804348,14.235 L11.5552174,14.235 C11.7352174,14.235 11.8813043,14.381087 11.8813043,14.561087 C11.8813043,14.741087 11.7358696,14.8871739 11.5558696,14.8871739 L11.5558696,14.8871739 Z" id="Shape"></path>
                <path d="M14.6178261,10.1615217 L0.326086957,10.1615217 C0.146086957,10.1615217 0,10.0154348 0,9.83543478 C0,9.65543478 0.146086957,9.50934783 0.326086957,9.50934783 L14.6178261,9.50934783 C14.7978261,9.50934783 14.943913,9.65543478 14.943913,9.83543478 C14.943913,10.0154348 14.7978261,10.1615217 14.6178261,10.1615217 L14.6178261,10.1615217 Z" id="Shape"></path>
                <path d="M11.5558696,5.43521739 L3.38804348,5.43521739 C3.20804348,5.43521739 3.06195652,5.28913043 3.06195652,5.10913043 C3.06195652,4.92913043 3.20804348,4.78304348 3.38804348,4.78304348 L11.5552174,4.78304348 C11.7352174,4.78304348 11.8813043,4.92913043 11.8813043,5.10913043 C11.8813043,5.28913043 11.7358696,5.43521739 11.5558696,5.43521739 L11.5558696,5.43521739 Z" id="Shape"></path>
                <path d="M14.6178261,0.708913043 L0.326086957,0.708913043 C0.146086957,0.708913043 0,0.562826087 0,0.382826087 C0,0.202826087 0.146086957,0.0567391304 0.326086957,0.0567391304 L14.6178261,0.0567391304 C14.7978261,0.0567391304 14.943913,0.202826087 14.943913,0.382826087 C14.943913,0.562826087 14.7978261,0.708913043 14.6178261,0.708913043 L14.6178261,0.708913043 Z" id="Shape"></path>
            </g>
        </g>
    </g>
</svg>