<?xml version="1.0" encoding="UTF-8" standalone="no"?>
<svg width="15px" height="15px" viewBox="0 0 15 15" version="1.1" xmlns="http://www.w3.org/2000/svg" xmlns:xlink="http://www.w3.org/1999/xlink">
    <!-- Generator: Sketch 40.3 (33839) - http://www.bohemiancoding.com/sketch -->
    <title>align-justify</title>
    <desc>Created with Sketch.</desc>
    <defs></defs>
    <g id="Page-1" stroke="none" stroke-width="1" fill="none" fill-rule="evenodd">
        <g id="align-justify" fill="#000000">
            <g id="Capa_1">
                <g id="Group">
                    <path d="M14.6191304,14.8878261 L0.326086957,14.8878261 C0.146086957,14.8878261 0,14.7417391 0,14.5617391 C0,14.3817391 0.146086957,14.2356522 0.326086957,14.2356522 L14.6191304,14.2356522 C14.7991304,14.2356522 14.9452174,14.3817391 14.9452174,14.5617391 C14.9452174,14.7417391 14.7991304,14.8878261 14.6191304,14.8878261 L14.6191304,14.8878261 Z" id="Shape"></path>
                    <path d="M14.6191304,10.1621739 L0.326086957,10.1621739 C0.146086957,10.1621739 0,10.016087 0,9.83608696 C0,9.65608696 0.146086957,9.51 0.326086957,9.51 L14.6191304,9.51 C14.7991304,9.51 14.9452174,9.65608696 14.9452174,9.83608696 C14.9452174,10.016087 14.7991304,10.1621739 14.6191304,10.1621739 L14.6191304,10.1621739 Z" id="Shape"></path>
                    <path d="M14.6191304,5.43586957 L0.326086957,5.43586957 C0.146086957,5.43586957 0,5.28978261 0,5.10978261 C0,4.92978261 0.146086957,4.78369565 0.326086957,4.78369565 L14.6191304,4.78369565 C14.7991304,4.78369565 14.9452174,4.92978261 14.9452174,5.10978261 C14.9452174,5.28978261 14.7991304,5.43586957 14.6191304,5.43586957 L14.6191304,5.43586957 Z" id="Shape"></path>
                    <path d="M14.6191304,0.709565217 L0.326086957,0.709565217 C0.146086957,0.709565217 0,0.563478261 0,0.383478261 C0,0.203478261 0.146086957,0.0573913043 0.326086957,0.0573913043 L14.6191304,0.0573913043 C14.7991304,0.0573913043 14.9452174,0.203478261 14.9452174,0.383478261 C14.9452174,0.563478261 14.7991304,0.709565217 14.6191304,0.709565217 L14.6191304,0.709565217 Z" id="Shape"></path>
                </g>
            </g>
        </g>
    </g>
</svg>