<svg width="15" height="15" xmlns="http://www.w3.org/2000/svg">
    <path d="M14,7.25L8.021204,12.801779C7.194951,13.568964,6.074316,14,4.905818,14C2.472558,14,0.5,12.168339,0.5,9.908921c0-1.085072.464183-2.125661,1.290434-2.892895L7.947399,1.298844C8.498241,0.78735,9.245331,0.5,10.024323,0.5c1.622211,0,2.937215,1.221103,2.937215,2.727414c0,.723349-.309462,1.417076-.860262,1.928572L6.122449,10.707736c-.275411.255728-.648956.399407-1.038462.399407-.811091,0-1.468603-.610586-1.468603-1.363693c0-.361693.154732-.708557.430141-.964296L9.846154,3.392857"  fill="none" stroke="#000" stroke-width="1.1" stroke-linecap="round" />
</svg>
