<?xml version="1.0" encoding="utf-8"?>
<!-- Generator: Adobe Illustrator 15.0.2, SVG Export Plug-In . SVG Version: 6.00 Build 0)  -->
<!DOCTYPE svg PUBLIC "-//W3C//DTD SVG 1.1//EN" "http://www.w3.org/Graphics/SVG/1.1/DTD/svg11.dtd">
<svg version="1.1" id="Calque_1" xmlns="http://www.w3.org/2000/svg" xmlns:xlink="http://www.w3.org/1999/xlink" x="0px" y="0px"
	 width="16px" height="16px" viewBox="0 0 16 16" enable-background="new 0 0 16 16" xml:space="preserve">
<g>
	<path d="M8.197,2c1.376,0,2.45,0.275,3.221,0.824c0.771,0.55,1.157,1.371,1.157,2.464c0,0.555-0.144,1.051-0.43,1.487
		c-0.286,0.437-0.703,0.766-1.249,0.985c0.702,0.154,1.228,0.483,1.579,0.989C12.824,9.256,13,9.841,13,10.505
		c0,1.149-0.37,2.019-1.108,2.608C11.153,13.705,10.105,14,8.751,14H3v-2h1.245V4H3V2h1.245H8.197z M6.59,7.027h1.687
		c0.626,0,1.108-0.132,1.445-0.396c0.337-0.264,0.506-0.648,0.506-1.154c0-0.555-0.17-0.964-0.51-1.228S8.872,3.854,8.197,3.854
		H6.59V7.027z M6.59,8.692v3.461h2.161c0.622,0,1.095-0.139,1.422-0.416c0.326-0.277,0.49-0.688,0.49-1.232
		c0-0.587-0.14-1.037-0.417-1.347C9.967,8.848,9.527,8.692,8.928,8.692H6.59z"/>
</g>
</svg>
