<?xml version="1.0" encoding="utf-8"?>
<svg width="15" height="17" viewBox="194.287 192.043 15 17" xmlns="http://www.w3.org/2000/svg">
  <path style="fill: rgb(255, 63, 98); stroke-width: 0.141;" d="M 196.485 205.952 L 195.829 205.952 C 194.978 205.952 194.287 206.644 194.287 207.498 C 194.287 208.351 194.978 209.043 195.829 209.043 L 198.027 209.043 L 204.274 209.043 C 207.038 209.043 209.287 206.79 209.287 204.02 C 209.287 202.672 208.754 201.446 207.888 200.543 C 208.754 199.64 209.287 198.414 209.287 197.066 C 209.287 194.296 207.038 192.043 204.274 192.043 L 198.027 192.043 L 195.829 192.043 C 194.978 192.043 194.287 192.735 194.287 193.588 C 194.287 194.442 194.978 195.134 195.829 195.134 L 196.485 195.134 L 196.485 200.543 L 196.485 205.952 Z M 199.57 195.134 L 204.274 195.134 C 205.337 195.134 206.202 196.001 206.202 197.066 C 206.202 198.131 205.337 198.998 204.274 198.998 L 199.57 198.998 L 199.57 195.134 L 199.57 195.134 Z M 199.57 202.088 L 204.274 202.088 C 205.337 202.088 206.202 202.955 206.202 204.02 C 206.202 205.085 205.337 205.952 204.274 205.952 L 199.57 205.952 L 199.57 202.088 L 199.57 202.088 Z" transform="matrix(1.0000000000000002, 0, 0, 1.0000000000000002, 0, 0)"/>
  <path style="fill: rgb(255, 12, 56); stroke-width: 0.141;" d="M 199.57 205.952 L 199.57 202.088 L 201.787 202.088 L 201.787 198.998 L 199.57 198.998 L 199.57 195.134 L 201.787 195.134 L 201.787 192.043 L 198.027 192.043 L 195.829 192.043 C 194.978 192.043 194.287 192.735 194.287 193.588 C 194.287 194.442 194.978 195.134 195.829 195.134 L 196.485 195.134 L 196.485 200.543 L 196.485 205.952 L 195.829 205.952 C 194.978 205.952 194.287 206.644 194.287 207.498 C 194.287 208.351 194.978 209.043 195.829 209.043 L 198.027 209.043 L 201.787 209.043 L 201.787 205.952 L 199.57 205.952 Z" transform="matrix(1.0000000000000002, 0, 0, 1.0000000000000002, 0, 0)"/>
</svg>