<?xml version="1.0" encoding="iso-8859-1"?>
<!-- Generator: Adobe Illustrator 19.1.0, SVG Export Plug-In . SVG Version: 6.00 Build 0)  -->
<svg version="1.1" id="Capa_1" xmlns="http://www.w3.org/2000/svg" xmlns:xlink="http://www.w3.org/1999/xlink" x="0px" y="0px"
	 viewBox="0 0 219.442 219.442" style="enable-background:new 0 0 219.442 219.442;" xml:space="preserve">
<g>
	<g id="group-96svg">
		<path id="path-1_164_" style="fill:#0CB04A;" d="M180.01,191.162h11.422c2.202,0,3.988,1.349,3.988,3.014
			c0,1.664-1.786,3.012-3.988,3.012H190.9c-2.202,0-3.987,1.349-3.987,3.013c0,1.665,1.785,3.013,3.987,3.013h24.555
			c2.202,0,3.987,1.348,3.987,3.012c0,1.665-1.785,3.013-3.987,3.013h-29.508h-60.315c-2.202,0-3.988-1.348-3.988-3.013
			c0-1.664,1.786-3.012,3.988-3.012h6.815c2.202,0,3.988-1.348,3.988-3.013c0-1.664-1.786-3.013-3.988-3.013h-32.433
			c-2.202,0-3.987-1.348-3.987-3.012c0-1.665,1.785-3.014,3.987-3.014h7.665H180.01z"/>
		<path id="path-2_164_" style="fill:#0CB04A;" d="M99.896,209.401c2.724,0,4.934-0.94,4.934-2.099c0-1.161-2.21-2.101-4.934-2.101
			h-15.12c-2.725,0-4.934,0.94-4.934,2.101c0,1.159,2.209,2.099,4.934,2.099H99.896z"/>
		<path id="path-3_164_" style="fill:#0CB04A;" d="M42.398,179.422h4.492c0.866,0,1.569,0.909,1.569,2.03s-0.703,2.03-1.569,2.03
			h-0.209c-0.866,0-1.568,0.909-1.568,2.031c0,1.121,0.702,2.031,1.568,2.031h9.657c0.867,0,1.569,0.908,1.569,2.03
			c0,1.121-0.702,2.03-1.569,2.03H44.733H21.01c-0.866,0-1.569-0.909-1.569-2.03c0-1.122,0.703-2.03,1.569-2.03h2.68
			c0.867,0,1.569-0.91,1.569-2.031c0-1.122-0.702-2.031-1.569-2.031H10.934c-0.866,0-1.568-0.909-1.568-2.03s0.702-2.03,1.568-2.03
			h3.015H42.398z"/>
		<path id="path-4_163_" style="fill:#0CB04A;" d="M10.887,191.714c1.072,0,1.941-0.634,1.941-1.416
			c0-0.781-0.869-1.416-1.941-1.416H4.941c-1.072,0-1.941,0.635-1.941,1.416c0,0.782,0.869,1.416,1.941,1.416H10.887z"/>
		<path id="path-5_163_" style="fill:#FBB713;" d="M170.828,23.927c39.08,38.712,39.08,101.484,0,140.202
			c-39.079,38.71-102.439,38.71-141.52,0c-39.077-38.718-39.077-101.49,0-140.202c18.691-18.516,48.993-18.516,67.685,0
			l36.919,36.576c3.395,3.364,8.909,3.364,12.305,0c3.399-3.37,3.399-8.824,0-12.192c-6.794-6.735-6.794-17.65,0-24.384
			C153.01,17.197,164.032,17.197,170.828,23.927z"/>
		<path id="path-6_161_" style="opacity:0.35;fill:#020403;enable-background:new    ;" d="M79.589,19.618l36.919,36.574
			c3.395,3.365,17.612,11.987,21.007,8.62c0.128-0.125,0.218-0.274,0.336-0.408L96.993,23.927
			C88.337,15.352,77.189,10.8,65.859,10.168C70.824,12.446,75.495,15.561,79.589,19.618z"/>
		<path id="path-7_160_" style="opacity:0.35;fill:#020403;enable-background:new    ;" d="M170.828,23.927
			c-4.696-4.651-11.39-6.009-17.333-4.233c39.004,38.718,38.984,101.431-0.07,140.125c-23.495,23.271-55.751,32.445-86.245,27.736
			c35.102,12.081,75.609,4.347,103.648-23.426C209.908,125.411,209.908,62.639,170.828,23.927z"/>
		<path id="path-8_156_" style="fill:#BD8B0F;" d="M58.273,131.863c5.094-5.047,13.363-5.047,18.457,0
			c5.099,5.047,5.099,13.237,0,18.285c-5.094,5.05-13.363,5.05-18.457,0C53.178,145.1,53.178,136.91,58.273,131.863z"/>
		<path id="path-9_150_" style="fill:#0CB04A;" d="M53.922,127.553c5.094-5.047,13.363-5.047,18.457,0
			c5.099,5.047,5.099,13.238,0,18.284c-5.094,5.051-13.363,5.051-18.457,0C48.827,140.791,48.827,132.6,53.922,127.553z"/>
		<path id="path-10_135_" style="fill:#BD8B0F;" d="M49.66,87.931c3.399,3.368,3.399,8.823,0,12.191
			c-3.399,3.367-8.906,3.367-12.305,0c-3.401-3.368-3.401-8.823,0-12.191C40.754,84.567,46.261,84.567,49.66,87.931z"/>
		<path id="path-11_119_" style="fill:#2476FF;" d="M45.309,87.931c3.4,3.368,3.4,8.823,0,12.191c-3.399,3.367-8.906,3.367-12.305,0
			c-3.401-3.368-3.401-8.823,0-12.191C36.403,84.567,41.91,84.567,45.309,87.931z"/>
		<path id="path-12_102_" style="fill:#BD8B0F;" d="M110.579,159.294c-5.097-5.044-5.101-13.234,0-18.284
			c5.092-5.047,13.361-5.047,18.455,0c5.1,5.05,5.1,13.24,0,18.284C123.935,164.346,115.675,164.346,110.579,159.294z"/>
		<path id="path-13_86_" style="fill:#BD8B0F;" d="M79.806,43.479c6.796,6.726,6.796,17.648,0,24.381
			c-6.787,6.728-17.816,6.728-24.61,0c-6.793-6.733-6.793-17.655,0-24.381C61.99,36.748,73.019,36.748,79.806,43.479z"/>
		<path id="path-14_68_" style="fill:#FF3A2F;" d="M75.455,39.169c6.796,6.725,6.796,17.648,0,24.381
			c-6.787,6.728-17.816,6.728-24.609,0c-6.795-6.733-6.795-17.656,0-24.381C57.639,32.437,68.668,32.437,75.455,39.169z"/>
		<path id="path-15_57_" style="fill:#FF3A2F;" d="M106.227,154.985c-5.095-5.045-5.1-13.234,0-18.285
			c5.093-5.048,13.362-5.048,18.456,0c5.101,5.051,5.101,13.24,0,18.285C119.584,160.035,111.325,160.035,106.227,154.985z"/>
	</g>
</g>
<g>
</g>
<g>
</g>
<g>
</g>
<g>
</g>
<g>
</g>
<g>
</g>
<g>
</g>
<g>
</g>
<g>
</g>
<g>
</g>
<g>
</g>
<g>
</g>
<g>
</g>
<g>
</g>
<g>
</g>
</svg>
