<svg width="17" height="17" xmlns="http://www.w3.org/2000/svg"><path d="M6.708 6.615a.436.436 0 0 0-.543.291l-1.83 6.045a.436.436 0 0 0 .833.252L7 7.16a.436.436 0 0 0-.29-.544zM8.931 6.615a.436.436 0 0 0-.543.291l-1.83 6.045a.436.436 0 0 0 .834.252l1.83-6.044a.436.436 0 0 0-.29-.544z"/><path d="M16.564 0H.436A.436.436 0 0 0 0 .436v16.128c0 .24.195.436.436.436h16.128c.24 0 .436-.195.436-.436V.436A.436.436 0 0 0 16.564 0zM3.487.872h10.026v1.743H3.487V.872zm-2.615 0h1.743v1.743H.872V.872zm15.256 15.256H.872V3.488h15.256v12.64zm0-13.513h-1.743V.872h1.743v1.743z"/><circle cx="93.867" cy="245.064" r="13.128" transform="matrix(.0332 0 0 .0332 0 0)"/><circle cx="93.867" cy="360.592" r="13.128" transform="matrix(.0332 0 0 .0332 0 0)"/><path d="M14.254 12.641H10.2a.436.436 0 0 0 0 .872h4.054a.436.436 0 0 0 0-.872z"/></svg>