<?xml version="1.0" encoding="utf-8"?>
<svg width="16.999937057495117" height="16.999937057495117" viewBox="5.81276e-7 3.05420e-8 16.9999 16.9999" xmlns="http://www.w3.org/2000/svg">
  <g transform="matrix(0.03320299834012985, 0, 0, 0.03320299834012985, -2.842170943040401e-14, 0)">
    <g>
      <path d="M202.042,199.238c-6.938-2.103-14.268,1.82-16.371,8.759l-55.138,182.045c-2.102,6.938,1.82,14.268,8.759,16.37&#10;&#9;&#9;&#9;c1.27,0.385,2.549,0.568,3.811,0.568c5.633,0,10.841-3.656,12.56-9.326l55.138-182.045&#10;&#9;&#9;&#9;C212.901,208.668,208.981,201.338,202.042,199.238z"/>
    </g>
  </g>
  <g transform="matrix(0.03320299834012985, 0, 0, 0.03320299834012985, -2.842170943040401e-14, 0)">
    <g>
      <path d="M268.994,199.238c-6.93-2.103-14.268,1.82-16.37,8.759l-55.138,182.045c-2.102,6.938,1.82,14.268,8.759,16.37&#10;&#9;&#9;&#9;c1.269,0.385,2.549,0.568,3.811,0.568c5.633,0,10.841-3.656,12.56-9.326l55.138-182.045&#10;&#9;&#9;&#9;C279.857,208.668,275.935,201.338,268.994,199.238z"/>
    </g>
  </g>
  <g transform="matrix(0.03320299834012985, 0, 0, 0.03320299834012985, -2.842170943040401e-14, 0)">
    <g>
      <path d="M498.872,0H13.128C5.878,0,0,5.879,0,13.128v485.744C0,506.121,5.878,512,13.128,512h485.744&#10;&#9;&#9;&#9;c7.249,0,13.128-5.879,13.128-13.128V13.128C512,5.879,506.121,0,498.872,0z M105.026,26.256h301.949v52.513H105.026V26.256z&#10;&#9;&#9;&#9; M26.256,26.256h52.513v52.513H26.256V26.256z M485.744,485.744H26.256V105.026h459.487V485.744z M485.744,78.769h-52.513V26.256&#10;&#9;&#9;&#9;h52.513V78.769z"/>
    </g>
  </g>
  <g transform="matrix(0.03320299834012985, 0, 0, 0.03320299834012985, -2.842170943040401e-14, 0)">
    <g>
      <circle cx="93.867" cy="245.064" r="13.128"/>
    </g>
  </g>
  <g transform="matrix(0.03320299834012985, 0, 0, 0.03320299834012985, -2.842170943040401e-14, 0)">
    <g>
      <circle cx="93.867" cy="360.592" r="13.128"/>
    </g>
  </g>
  <g transform="matrix(0.03320299834012985, 0, 0, 0.03320299834012985, -2.842170943040401e-14, 0)">
    <g>
      <path d="M429.292,380.718H307.2c-7.249,0-13.128,5.879-13.128,13.128c0,7.249,5.879,13.128,13.128,13.128h122.092&#10;&#9;&#9;&#9;c7.249,0,13.128-5.879,13.128-13.128C442.421,386.597,436.542,380.718,429.292,380.718z"/>
    </g>
  </g>
  <g transform="matrix(0.03320299834012985, 0, 0, 0.03320299834012985, -2.842170943040401e-14, 0)"/>
  <g transform="matrix(0.03320299834012985, 0, 0, 0.03320299834012985, -2.842170943040401e-14, 0)"/>
  <g transform="matrix(0.03320299834012985, 0, 0, 0.03320299834012985, -2.842170943040401e-14, 0)"/>
  <g transform="matrix(0.03320299834012985, 0, 0, 0.03320299834012985, -2.842170943040401e-14, 0)"/>
  <g transform="matrix(0.03320299834012985, 0, 0, 0.03320299834012985, -2.842170943040401e-14, 0)"/>
  <g transform="matrix(0.03320299834012985, 0, 0, 0.03320299834012985, -2.842170943040401e-14, 0)"/>
  <g transform="matrix(0.03320299834012985, 0, 0, 0.03320299834012985, -2.842170943040401e-14, 0)"/>
  <g transform="matrix(0.03320299834012985, 0, 0, 0.03320299834012985, -2.842170943040401e-14, 0)"/>
  <g transform="matrix(0.03320299834012985, 0, 0, 0.03320299834012985, -2.842170943040401e-14, 0)"/>
  <g transform="matrix(0.03320299834012985, 0, 0, 0.03320299834012985, -2.842170943040401e-14, 0)"/>
  <g transform="matrix(0.03320299834012985, 0, 0, 0.03320299834012985, -2.842170943040401e-14, 0)"/>
  <g transform="matrix(0.03320299834012985, 0, 0, 0.03320299834012985, -2.842170943040401e-14, 0)"/>
  <g transform="matrix(0.03320299834012985, 0, 0, 0.03320299834012985, -2.842170943040401e-14, 0)"/>
  <g transform="matrix(0.03320299834012985, 0, 0, 0.03320299834012985, -2.842170943040401e-14, 0)"/>
  <g transform="matrix(0.03320299834012985, 0, 0, 0.03320299834012985, -2.842170943040401e-14, 0)"/>
</svg>