<?xml version="1.0" encoding="utf-8"?>
<svg width="16.999982833862305" height="16.999980926513672" viewBox="15.7289 22.0824 17 17" xmlns="http://www.w3.org/2000/svg">
  <g transform="matrix(0.1655159890651703, 0, 0, 0.1655159890651703, 16.585067749023438, 22.938426971435547)">
    <path d="M 79.285 13.084 C 61.031 -5.172 31.332 -5.172 13.081 13.08 C -5.173 31.331 -5.171 61.031 13.083 79.286 C 31.332 97.537 61.031 97.537 79.283 79.283 C 97.536 61.031 97.535 31.333 79.285 13.084 Z M 74.177 74.178 C 58.741 89.614 33.625 89.616 18.187 74.18 C 2.748 58.742 2.75 33.622 18.187 18.186 C 33.623 2.751 58.74 2.749 74.179 18.188 C 89.615 33.623 89.613 58.743 74.177 74.178 Z M 28.721 33.513 C 28.721 30.492 31.171 28.042 34.192 28.042 C 37.213 28.042 39.663 30.491 39.663 33.513 C 39.663 36.536 37.213 38.986 34.192 38.986 C 31.171 38.986 28.721 36.536 28.721 33.513 Z M 53.53 33.513 C 53.53 30.492 55.982 28.042 59.004 28.042 C 62.024 28.042 64.474 30.491 64.474 33.513 C 64.474 36.536 62.025 38.986 59.004 38.986 C 55.982 38.986 53.53 36.536 53.53 33.513 Z M 66.465 55.922 C 63.075 63.764 55.134 68.83 46.236 68.83 C 37.147 68.83 29.159 63.738 25.885 55.857 C 25.324 54.508 25.964 52.959 27.314 52.397 C 27.646 52.26 27.99 52.196 28.329 52.196 C 29.367 52.196 30.352 52.808 30.774 53.827 C 33.224 59.727 39.293 63.537 46.236 63.537 C 53.021 63.537 59.054 59.724 61.606 53.821 C 62.187 52.48 63.745 51.861 65.087 52.442 C 66.427 53.024 67.046 54.581 66.465 55.922 Z"/>
  </g>
</svg>