<?xml version="1.0" encoding="iso-8859-1"?>
<!-- Generator: Adobe Illustrator 19.1.0, SVG Export Plug-In . SVG Version: 6.00 Build 0)  -->
<svg version="1.1" id="Capa_1" xmlns="http://www.w3.org/2000/svg" xmlns:xlink="http://www.w3.org/1999/xlink" x="0px" y="0px"
	 viewBox="0 0 217.221 217.221" style="enable-background:new 0 0 217.221 217.221;" xml:space="preserve">
<g>
	<g id="group-131svg">
		<path id="path-1_36_" style="fill:#FF3A2F;" d="M60.631,195.087h7.2c1.388,0,2.514-1.205,2.514-2.691
			c0-1.488-1.126-2.693-2.514-2.693h-0.335c-1.389,0-2.514-1.206-2.514-2.694c0-1.486,1.125-2.691,2.514-2.691h15.478
			c1.388,0,2.514-1.206,2.514-2.693s-1.126-2.692-2.514-2.692H64.373h-38.02c-1.387,0-2.513,1.205-2.513,2.692
			s1.126,2.693,2.513,2.693h4.296c1.389,0,2.514,1.205,2.514,2.691c0,1.488-1.125,2.694-2.514,2.694H13.778
			c-1.389,0-2.514,1.205-2.514,2.693c0,1.486,1.125,2.691,2.514,2.691h1.259H60.631z"/>
		<path id="path-2_36_" style="fill:#FF3A2F;" d="M15.976,178.212c1.164,0,2.107,1.291,2.107,2.885c0,1.593-0.943,2.885-2.107,2.885
			H9.518c-1.164,0-2.108-1.292-2.108-2.885c0-1.594,0.944-2.885,2.108-2.885H15.976z"/>
		<path id="path-3_36_" style="fill:#FF3A2F;" d="M98.013,193.324h-14.43c-2.782,0-5.038,1.708-5.038,3.814
			c0,2.105,2.256,3.812,5.038,3.812h0.671c2.783,0,5.038,1.707,5.038,3.812c0,2.106-2.255,3.813-5.038,3.813H53.236
			c-2.783,0-5.038,1.706-5.038,3.812c0,2.106,2.255,3.814,5.038,3.814h37.278h76.194c2.783,0,5.038-1.708,5.038-3.814
			c0-2.106-2.255-3.812-5.038-3.812h-8.609c-2.781,0-5.037-1.707-5.037-3.813c0-2.105,2.256-3.812,5.037-3.812h33.813
			c2.782,0,5.037-1.707,5.037-3.812c0-2.106-2.255-3.814-5.037-3.814h-2.523H98.013z"/>
		<path id="path-4_36_" style="fill:#FF3A2F;" d="M187.506,217.221c-2.332,0-4.223-1.83-4.223-4.085
			c0-2.258,1.891-4.086,4.223-4.086h12.943c2.332,0,4.223,1.828,4.223,4.086c0,2.255-1.891,4.085-4.223,4.085H187.506z"/>
		<path id="path-5_36_" style="fill:#2476FF;" d="M88.879,175.018H54.176c-1.341,0-2.617-0.545-3.554-1.507l-31.185-32.227
			c-1.874-1.941-1.855-5.025,0.058-6.937L152.389,1.449c1.931-1.932,5.061-1.932,6.994,0l48.98,48.969
			c0.927,0.926,1.449,2.184,1.449,3.497s-0.522,2.57-1.449,3.497L92.384,173.559C91.457,174.491,90.192,175.018,88.879,175.018z"/>
		<path id="path-6_35_" style="fill:#FF3A2F;" d="M130.079,135.701l-37.695,37.858c-0.927,0.932-2.192,1.459-3.506,1.459H54.176
			c-1.341,0-2.617-0.545-3.554-1.507l-31.185-32.227c-1.874-1.941-1.855-5.025,0.058-6.937l54.612-54.608L130.079,135.701z"/>
		<path id="path-7_34_" style="opacity:0.35;enable-background:new    ;" d="M208.362,50.418l-6.09-6.089L88.549,158.218
			c-0.927,0.933-2.192,1.459-3.506,1.459H50.342c-1.343,0-2.618-0.546-3.555-1.507L21.65,132.193l-2.155,2.154
			c-1.913,1.913-1.932,4.996-0.058,6.936l31.185,32.228c0.937,0.962,2.213,1.507,3.554,1.507h34.703
			c1.313,0,2.579-0.527,3.506-1.459L208.362,57.412c0.928-0.927,1.45-2.184,1.45-3.497S209.29,51.344,208.362,50.418z"/>
	</g>
</g>
<g>
</g>
<g>
</g>
<g>
</g>
<g>
</g>
<g>
</g>
<g>
</g>
<g>
</g>
<g>
</g>
<g>
</g>
<g>
</g>
<g>
</g>
<g>
</g>
<g>
</g>
<g>
</g>
<g>
</g>
</svg>
