<?xml version="1.0" encoding="utf-8"?>
<!-- Generated by IcoMoon.io -->
<!DOCTYPE svg PUBLIC "-//W3C//DTD SVG 1.1//EN" "http://www.w3.org/Graphics/SVG/1.1/DTD/svg11.dtd">
<svg version="1.1" xmlns="http://www.w3.org/2000/svg" xmlns:xlink="http://www.w3.org/1999/xlink" width="15" height="15" viewBox="0 0 16 16">
<path fill="#000000" d="M8.1 14l6.4-7.2c0.6-0.7 0.6-1.8-0.1-2.5l-2.7-2.7c-0.3-0.4-0.8-0.6-1.3-0.6h-1.8c-0.5 0-1 0.2-1.4 0.6l-6.7 7.6c-0.6 0.7-0.6 1.9 0.1 2.5l2.7 2.7c0.3 0.4 0.8 0.6 1.3 0.6h11.4v-1h-7.9zM6.8 13.9c0 0 0-0.1 0 0l-2.7-2.7c-0.4-0.4-0.4-0.9 0-1.3l3.4-3.9h-1l-3 3.3c-0.6 0.7-0.6 1.7 0.1 2.4l2.3 2.3h-1.3c-0.2 0-0.4-0.1-0.6-0.2l-2.8-2.8c-0.3-0.3-0.3-0.8 0-1.1l3.5-3.9h1.8l3.5-4h1l-3.5 4 3.1 3.7-3.5 4c-0.1 0.1-0.2 0.1-0.3 0.2z"></path>
</svg>
