<?xml version="1.0" encoding="UTF-8"?>
<svg width="560px" height="560px" viewBox="0 0 560 560" version="1.1" xmlns="http://www.w3.org/2000/svg" xmlns:xlink="http://www.w3.org/1999/xlink">
    <!-- Generator: Sketch 46.2 (44496) - http://www.bohemiancoding.com/sketch -->
    <title>fast-message</title>
    <desc>Created with Sketch.</desc>
    <defs></defs>
    <g id="Page-1" stroke="none" stroke-width="1" fill="none" fill-rule="evenodd">
        <g id="fast-message" fill="#959DAC">
            <path d="M148.383489,266 C149.345377,275.956919 152.101839,285.691041 156.484144,295 L120.507399,295 C114.691586,295 110,299.70101 110,305.5 C110,311.300265 114.704323,316 120.507399,316 L169.697467,316 C183.469544,333.185939 203.321093,347.996038 227.866572,358.768561 C217.926034,380.492468 203.044988,400.892109 194.81577,409.060893 C192.702661,411.158886 192.062776,414.417472 193.223498,417.095762 C194.369338,419.922846 197.09257,421.708372 200.08366,421.708372 C239.116643,421.708372 273.060308,406.531397 301.081317,376.341118 C307.018854,376.7875 313.030797,377.070208 319.132026,377.070208 C413.507618,377.070208 490.264051,323.668085 490.264051,258.049984 C490.264051,192.417003 413.507618,139 319.132026,139 C258.034365,139 204.310951,161.394753 174.027097,194.999976 L80.4975683,195 C74.7044952,195 70,199.70101 70,205.5 C70,211.300265 74.6999214,216 80.4975683,216 L159.024865,216 C154.024083,225.182675 150.611477,234.903753 149.02153,245 L100.49059,245 C94.7052259,245 90,249.70101 90,255.5 C90,261.300265 94.6967971,266 100.49059,266 L148.383489,266 L148.383489,266 Z" id="Combined-Shape"></path>
        </g>
    </g>
</svg>