<svg width="14" height="14" xmlns="http://www.w3.org/2000/svg"><g fill="#000" fill-rule="evenodd"><path d="M11.921 3.119a.427.427 0 0 0 .335.164h.97a.426.426 0 0 0 .304-.13.441.441 0 0 0 .125-.31l.002-2.41a.434.434 0 0 0-.43-.432H.43A.434.434 0 0 0 0 .44v2.406c0 .242.192.438.43.438h.97c.13 0 .254-.06.335-.165l.73-.93H5.54v11.36c0 .241.192.437.43.437h1.717c.237 0 .43-.196.43-.437V2.188h3.07l.734.931zM13.898 11.263a.425.425 0 0 0-.482-.146l-.547.194V9.617a.442.442 0 0 0-.126-.31.426.426 0 0 0-.304-.127h-.429a.434.434 0 0 0-.43.437v1.694l-.547-.194a.425.425 0 0 0-.481.146.444.444 0 0 0-.016.512l1.332 2.017a.427.427 0 0 0 .713 0l1.333-2.017a.444.444 0 0 0-.016-.512z"/></g></svg>