<?xml version="1.0" encoding="UTF-8"?>
<svg width="560px" height="560px" viewBox="0 0 560 560" version="1.1" xmlns="http://www.w3.org/2000/svg" xmlns:xlink="http://www.w3.org/1999/xlink">
    <!-- Generator: Sketch 46.2 (44496) - http://www.bohemiancoding.com/sketch -->
    <title>image-picker</title>
    <desc>Created with Sketch.</desc>
    <defs></defs>
    <g id="Page-1" stroke="none" stroke-width="1" fill="none" fill-rule="evenodd">
        <g id="image-picker" fill="#959DAC">
            <g id="Group" transform="translate(80.000000, 80.000000)">
                <path d="M1.73969631,334.021692 C6.57100845,371.69699 38.4175469,401 77.3355215,401 L325.454327,401 C364.338867,401 396.202123,371.69699 401,334.021692 L1.73969631,334.021692" id="Fill-4806"></path>
                <path d="M87.8627601,103.511931 C95.5380695,103.511931 101.772234,97.1968026 101.772234,89.5862638 C101.772234,81.8137986 95.5380695,75.6767896 87.8627601,75.6767896 C80.1712581,75.6767896 73.9370933,81.8137986 73.9370933,89.5862638 C73.9370933,97.1968026 80.1712581,103.511931 87.8627601,103.511931" id="Fill-4807"></path>
                <path d="M247.332163,99.1626898 L186.752179,180.109432 C184.325633,183.454338 179.89091,184.474535 176.259458,182.618112 L137.116756,162.548672 L60.0195228,267.913232 L341.850325,267.913232 L247.332163,99.1626898" id="Fill-4808"></path>
                <path d="M35.689,271.615123 L126.565625,146.799512 C129.005042,143.599112 133.43275,142.42619 137.125292,144.269353 L176.272917,164.393336 L240.215708,78.5857449 C241.90325,76.4242181 244.576583,75.0669802 247.450417,75.2345405 C250.257417,75.4021007 252.813792,77.094459 254.217292,79.5911063 L361.80225,272.46968 C363.239167,274.966327 363.20575,278.166727 361.702,280.830935 C360.19825,283.344338 357.458083,284.85238 354.500708,284.85238 L42.4224583,284.85238 C39.2812917,284.85238 36.4241667,283.176778 34.98725,280.328254 C33.5503333,277.496487 33.834375,274.128526 35.689,271.615123 L35.689,271.615123 Z M87.8858333,59.3330752 C105.011875,59.3330752 118.946625,73.2238178 118.946625,90.4825208 C118.946625,107.573664 105.011875,121.665478 87.8858333,121.665478 C70.7430833,121.665478 56.8083333,107.573664 56.8083333,90.4825208 C56.8083333,73.2238178 70.7430833,59.3330752 87.8858333,59.3330752 L87.8858333,59.3330752 Z M401,318.364425 L401,76.7593385 C401,34.5341621 366.681083,0 324.50925,0 L76.5241667,0 C34.335625,0 0,34.5341621 0,76.7593385 L0,318.364425 L401,318.364425 L401,318.364425 Z" id="Fill-4809"></path>
            </g>
        </g>
    </g>
</svg>