<?xml version="1.0" encoding="UTF-8"?>
<svg width="560px" height="560px" viewBox="0 0 560 560" version="1.1" xmlns="http://www.w3.org/2000/svg" xmlns:xlink="http://www.w3.org/1999/xlink">
    <!-- Generator: Sketch 46.2 (44496) - http://www.bohemiancoding.com/sketch -->
    <title>italic</title>
    <desc>Created with Sketch.</desc>
    <defs></defs>
    <g id="Page-1" stroke="none" stroke-width="1" fill="none" fill-rule="evenodd">
        <g id="italic" fill="#959DAC">
            <path d="M277.464732,381.610192 C273.735674,395.283404 271.871173,406.159659 271.871173,414.239284 C271.871173,424.804948 275.211737,431.952202 281.892966,435.681259 C288.574194,439.410317 299.372762,441.274818 314.288993,441.274818 L308.695434,459.920013 L160,459.920013 L165.127429,441.274818 C174.450073,441.274818 182.374202,440.57563 188.900053,439.177233 C195.425904,437.778837 201.097094,435.059773 205.913794,431.01996 C210.730494,426.980148 214.847933,421.386645 218.266236,414.239284 C221.684539,407.091924 224.947415,397.769419 228.054964,386.271491 L282.59216,180.242081 C287.253483,163.150566 289.584109,150.40981 289.584109,142.01943 C289.584109,132.386031 286.08817,126.248715 279.096186,123.6073 C272.104203,120.965884 260.21801,119.645196 243.43725,119.645196 L248.564679,101 L400.056892,101 L394.929463,119.645196 C384.674555,119.645196 376.128925,120.655133 369.29232,122.67504 C362.455714,124.694946 356.551461,128.501635 351.579384,134.095222 C346.607307,139.688809 342.179117,147.457562 338.294682,157.401716 C334.410247,167.34587 330.448182,180.242002 326.40837,196.090497 L277.464732,381.610192 Z" id="I"></path>
        </g>
    </g>
</svg>