<?xml version="1.0" encoding="UTF-8"?>
<svg width="560px" height="560px" viewBox="0 0 560 560" version="1.1" xmlns="http://www.w3.org/2000/svg" xmlns:xlink="http://www.w3.org/1999/xlink">
    <!-- Generator: Sketch 46.2 (44496) - http://www.bohemiancoding.com/sketch -->
    <title>link</title>
    <desc>Created with Sketch.</desc>
    <defs></defs>
    <g id="Page-1" stroke="none" stroke-width="1" fill="none" fill-rule="evenodd">
        <g id="link" fill="#959DAC">
            <g id="Fill-5786-+-Fill-5787-+-Fill-5788" transform="translate(52.000000, 175.000000)">
                <path d="M124,103.490509 C124,108.748252 128.256,113 133.5,113 L323.5,113 C328.763,113 333,108.748252 333,103.490509 C333,98.2517483 328.763,94 323.5,94 L133.5,94 C128.256,94 124,98.2517483 124,103.490509" id="Fill-5786"></path>
                <path d="M104.829079,104.409041 C104.829079,88.662854 117.670736,75.8142702 133.408435,75.8142702 L205.695154,75.8142702 C193.044025,32.0642702 152.747133,0 104.943396,0 C46.9654088,0 0,47.0098039 0,105 C0,162.990196 46.9654088,210 104.943396,210 C153.204403,210 193.72993,177.401961 206,133.003813 L133.408435,133.003813 C117.670736,133.003813 104.829079,120.193355 104.829079,104.409041" id="Fill-5787"></path>
                <path d="M352.047258,0 C304.228891,0 263.954777,37.6879085 251.304818,75.8142702 L323.584852,75.8142702 C339.340146,75.8142702 352.161565,88.662854 352.161565,104.409041 C352.161565,120.193355 339.340146,133.003813 323.584852,133.003813 L251,133.003813 C263.268936,171.149237 303.809766,210 352.047258,210 C410.019883,210 457,162.990196 457,105 C457,46.9907407 410.019883,0 352.047258,0" id="Fill-5788"></path>
            </g>
        </g>
    </g>
</svg>