<?xml version="1.0" encoding="iso-8859-1"?>
<!-- Generator: Adobe Illustrator 19.0.0, SVG Export Plug-In . SVG Version: 6.00 Build 0)  -->
<svg version="1.1" id="Capa_1" xmlns="http://www.w3.org/2000/svg" xmlns:xlink="http://www.w3.org/1999/xlink" x="0px" y="0px"
	 viewBox="0 0 59.669 59.669" style="enable-background:new 0 0 59.669 59.669;" xml:space="preserve">
<path d="M55.868,3.8c-2.446-2.446-5.709-3.793-9.189-3.793c-3.479,0-6.743,1.347-9.189,3.793l-9.07,9.07
	c-3.275,3.275-4.42,7.876-3.461,12.09c-0.941-0.212-1.91-0.333-2.9-0.333c-3.479,0-6.743,1.347-9.188,3.793L3.8,37.491
	c-5.066,5.066-5.066,13.312,0,18.378c2.446,2.446,5.709,3.793,9.189,3.793s6.743-1.347,9.189-3.793l9.07-9.07
	c3.275-3.275,4.42-7.876,3.461-12.09c0.941,0.212,1.91,0.333,2.9,0.333c3.48,0,6.744-1.347,9.189-3.793l9.071-9.07
	C60.936,17.112,60.936,8.867,55.868,3.8z M28.42,43.97l-9.07,9.07c-1.69,1.69-3.95,2.621-6.361,2.621s-4.67-0.931-6.361-2.621
	c-3.507-3.508-3.507-9.214,0-12.722l9.071-9.07c1.69-1.69,3.949-2.621,6.36-2.621c1.724,0,3.366,0.483,4.782,1.372l-7.752,7.752
	c-0.781,0.781-0.781,2.047,0,2.828c0.39,0.391,0.902,0.586,1.414,0.586s1.024-0.195,1.414-0.586l7.753-7.753
	C31.852,36.3,31.44,40.949,28.42,43.97z M53.04,19.35l-9.071,9.07c-1.69,1.69-3.949,2.621-6.361,2.621
	c-1.724,0-3.365-0.483-4.781-1.372l7.752-7.752c0.781-0.781,0.781-2.047,0-2.828c-0.78-0.781-2.048-0.781-2.828,0l-7.753,7.753
	c-2.182-3.474-1.77-8.122,1.25-11.143l9.07-9.07c1.69-1.69,3.95-2.621,6.361-2.621c2.412,0,4.67,0.931,6.361,2.621
	s2.621,3.949,2.621,6.361C55.661,15.401,54.73,17.66,53.04,19.35z"/>
<g>
</g>
<g>
</g>
<g>
</g>
<g>
</g>
<g>
</g>
<g>
</g>
<g>
</g>
<g>
</g>
<g>
</g>
<g>
</g>
<g>
</g>
<g>
</g>
<g>
</g>
<g>
</g>
<g>
</g>
</svg>
