<?xml version="1.0" encoding="UTF-8"?>
<svg width="560px" height="560px" viewBox="0 0 560 560" version="1.1" xmlns="http://www.w3.org/2000/svg" xmlns:xlink="http://www.w3.org/1999/xlink">
    <!-- Generator: Sketch 46.2 (44496) - http://www.bohemiancoding.com/sketch -->
    <title>unordered-list</title>
    <desc>Created with Sketch.</desc>
    <defs></defs>
    <g id="Page-1" stroke="none" stroke-width="1" fill="none" fill-rule="evenodd">
        <g id="unordered-list" fill="#959DAC">
            <path d="M110.5,197 C93.6553151,197 80,183.344685 80,166.5 C80,149.655315 93.6553151,136 110.5,136 C127.344685,136 141,149.655315 141,166.5 C141,183.344685 127.344685,197 110.5,197 Z M221.8,136 L452.2,136 C468.105801,136 481,149.655315 481,166.5 C481,183.344685 468.105801,197 452.2,197 L221.8,197 C205.894199,197 193,183.344685 193,166.5 C193,149.655315 205.894199,136 221.8,136 Z M110.5,310 C93.6553151,310 80,296.344685 80,279.5 C80,262.655315 93.6553151,249 110.5,249 C127.344685,249 141,262.655315 141,279.5 C141,296.344685 127.344685,310 110.5,310 Z M221.8,249 L452.2,249 C468.105801,249 481,262.655315 481,279.5 C481,296.344685 468.105801,310 452.2,310 L221.8,310 C205.894199,310 193,296.344685 193,279.5 C193,262.655315 205.894199,249 221.8,249 Z M110.5,424 C93.6553151,424 80,410.344685 80,393.5 C80,376.655315 93.6553151,363 110.5,363 C127.344685,363 141,376.655315 141,393.5 C141,410.344685 127.344685,424 110.5,424 Z M221.8,363 L452.2,363 C468.105801,363 481,376.655315 481,393.5 C481,410.344685 468.105801,424 452.2,424 L221.8,424 C205.894199,424 193,410.344685 193,393.5 C193,376.655315 205.894199,363 221.8,363 Z" id="Combined-Shape"></path>
        </g>
    </g>
</svg>