<?xml version="1.0" encoding="UTF-8"?>
<svg width="560px" height="560px" viewBox="0 0 560 560" version="1.1" xmlns="http://www.w3.org/2000/svg" xmlns:xlink="http://www.w3.org/1999/xlink">
    <!-- Generator: Sketch 46.2 (44496) - http://www.bohemiancoding.com/sketch -->
    <title>ordered-list</title>
    <desc>Created with Sketch.</desc>
    <defs></defs>
    <g id="Page-1" stroke="none" stroke-width="1" fill="none" fill-rule="evenodd">
        <g id="ordered-list" fill="#959DAC">
            <path d="M208.454346,129.036958 L450.71715,129.036958 C467.441906,129.036958 481,143.416755 481,161.155133 C481,178.893511 467.441906,193.273308 450.71715,193.273308 L208.454346,193.273308 C191.729589,193.273308 178.171495,178.893511 178.171495,161.155133 C178.171495,143.416755 191.729589,129.036958 208.454346,129.036958 Z M208.454346,248.333036 L450.71715,248.333036 C467.441906,248.333036 481,262.712832 481,280.451211 C481,298.189589 467.441906,312.569385 450.71715,312.569385 L208.454346,312.569385 C191.729589,312.569385 178.171495,298.189589 178.171495,280.451211 C178.171495,262.712832 191.729589,248.333036 208.454346,248.333036 Z M208.454346,367.629113 L450.71715,367.629113 C467.441906,367.629113 481,382.00891 481,399.747288 C481,417.485666 467.441906,431.865463 450.71715,431.865463 L208.454346,431.865463 C191.729589,431.865463 178.171495,417.485666 178.171495,399.747288 C178.171495,382.00891 191.729589,367.629113 208.454346,367.629113 Z M88.0020138,188.684997 L88.0020138,175.892787 L95.4901368,175.892787 L95.4901368,140.79221 L85.6619754,140.79221 L85.6619754,131.978065 L102.97826,128 L116.082475,128 L116.082475,175.892787 L122.634583,175.892787 L122.634583,188.684997 L88.0020138,188.684997 Z M80,302.190627 C80,297.718531 80.6630043,293.766505 81.9890327,290.334432 C83.3150611,286.902358 85.4860751,283.665337 88.5021397,280.623272 C91.5182043,277.581207 95.6782311,274.422187 100.982345,271.146117 C102.542378,270.158095 103.647385,269.31309 104.297399,268.611075 C104.947413,267.90906 105.272415,267.064054 105.272415,266.076033 C105.272415,263.943988 103.738405,262.877981 100.67034,262.877981 C98.3822906,262.877981 95.7562737,263.475985 92.7922102,264.67201 C89.8281467,265.868036 87.1501294,267.376045 84.7580782,269.196084 L80.1560026,252.581812 C83.4840739,250.917776 87.3060985,249.500767 91.6221909,248.330742 C95.9382834,247.160717 100.280311,246.575713 104.648405,246.575713 C111.824559,246.575713 117.388595,248.161723 121.340679,251.333791 C125.292764,254.505859 127.268777,259.003888 127.268777,264.828013 C127.268777,267.94808 126.579772,270.691097 125.201743,273.057148 C123.823713,275.423199 122.159702,277.412211 120.209661,279.024246 C118.259619,280.636281 115.724603,282.482292 112.604536,284.562337 C109.120461,286.850386 106.559445,288.813399 104.921409,290.451434 C103.283374,292.089469 102.464369,293.974481 102.464369,296.106527 L111.902524,296.106527 L111.902524,291.660454 L127.892787,291.660454 L127.892787,308.898737 L80,308.898737 L80,302.190627 Z M118.807932,397.228306 C120.419966,397.644315 121.966976,398.48932 123.449008,399.763347 C124.93104,401.037375 126.153048,402.636385 127.115068,404.560426 C128.077089,406.484467 128.558092,408.616481 128.558092,410.956531 C128.558092,416.676654 126.517079,421.161683 122.434991,424.411752 C118.352904,427.661822 112.307865,429.286832 104.299693,429.286832 C100.503612,429.286832 96.7075876,428.85783 92.9115062,427.999811 C89.1154249,427.141793 85.7354032,426.088786 82.7713396,424.840759 L82.7713396,408.226486 C85.9954087,409.630516 89.3364302,410.774524 92.7945043,411.658543 C96.2525784,412.542562 99.5415996,412.984565 102.661666,412.984565 C104.845713,412.984565 106.444724,412.646562 107.458745,411.970548 C108.472767,411.294533 108.97977,410.176526 108.97977,408.616493 C108.97977,405.600428 107.159759,404.092418 103.519681,404.092418 L97.9035883,404.092418 L97.9035883,391.300208 L102.27166,391.300208 C105.703734,391.300208 107.419745,389.844199 107.419745,386.932136 C107.419745,384.124076 105.703734,382.720067 102.27166,382.720067 C99.7756065,382.720067 97.1755898,383.305071 94.4715319,384.475096 C91.7674739,385.645121 89.141457,387.166131 86.5934024,389.038171 L81.9913268,372.423898 C85.1633948,370.759862 88.777418,369.342853 92.833505,368.172828 C96.8895919,367.002803 100.971618,366.417799 105.079706,366.417799 C112.25586,366.417799 117.767895,367.925809 121.615978,370.941874 C125.46406,373.957938 127.388073,378.221966 127.388073,383.734084 C127.388073,387.166157 126.582067,389.987176 124.970033,392.197223 C123.357998,394.40727 121.303985,396.084281 118.807932,397.228306 Z" id="Combined-Shape"></path>
        </g>
    </g>
</svg>