<svg width="13" height="15" xmlns="http://www.w3.org/2000/svg"><g fill="#444" fill-rule="evenodd"><path d="M1.021 2.906c.186 1.219.372 1.5.372 2.719C1.393 6.375 0 7.031 0 7.031v.938s1.393.656 1.393 1.406c0 1.219-.186 1.5-.372 2.719C.743 14.063 1.764 15 2.693 15h1.95v-1.875s-1.672.188-1.672-.938c0-.843.186-.843.372-2.718.093-.844-.464-1.5-1.022-1.969.558-.469 1.115-1.031 1.022-1.875C3.064 3.75 2.97 3.75 2.97 2.906c0-1.125 1.672-1.031 1.672-1.031V0h-1.95C1.67 0 .743.938 1.02 2.906zM11.979 2.906c-.186 1.219-.372 1.5-.372 2.719 0 .75 1.393 1.406 1.393 1.406v.938s-1.393.656-1.393 1.406c0 1.219.186 1.5.372 2.719.278 1.969-.743 2.906-1.672 2.906h-1.95v-1.875s1.672.188 1.672-.938c0-.843-.186-.843-.372-2.718-.093-.844.464-1.5 1.022-1.969-.558-.469-1.115-1.031-1.022-1.875.186-1.875.372-1.875.372-2.719 0-1.125-1.672-1.031-1.672-1.031V0h1.95c1.022 0 1.95.938 1.672 2.906z"/></g></svg>