<?xml version="1.0" encoding="UTF-8"?>
<svg width="560px" height="560px" viewBox="0 0 560 560" version="1.1" xmlns="http://www.w3.org/2000/svg" xmlns:xlink="http://www.w3.org/1999/xlink">
    <!-- Generator: Sketch 46.2 (44496) - http://www.bohemiancoding.com/sketch -->
    <title>monospace</title>
    <desc>Created with Sketch.</desc>
    <defs></defs>
    <g id="Page-1" stroke="none" stroke-width="1" fill="none" fill-rule="evenodd">
        <g id="monospace" fill="#959DAC">
            <path d="M232.864695,405.406128 C232.864695,418.652725 235.011102,428.955479 239.303981,436.3147 C243.596859,443.67392 251.99851,449.070601 264.509185,452.504904 L264.509185,460.600006 C252.243818,460.600006 241.941063,459.741443 233.600613,458.024292 C225.260163,456.30714 218.575638,453.30217 213.546838,449.009292 C208.518037,444.716413 204.961134,438.890451 202.876021,431.53123 C200.790909,424.17201 199.748368,414.973122 199.748368,403.934291 L199.748368,331.81429 C199.748368,326.417528 199.196435,320.959521 198.092552,315.440106 C196.988668,309.92069 195.210217,304.953291 192.757143,300.537758 C190.30407,296.122226 186.931144,292.381345 182.638266,289.315003 C178.345387,286.248661 173.132684,284.47021 167,283.979595 L167,274.780615 C173.868606,273.308771 179.449264,271.346342 183.742143,268.893268 C188.035022,266.440195 191.346621,263.312573 193.677041,259.510309 C196.007461,255.708045 197.601935,251.169927 198.460511,245.895819 C199.319086,240.621711 199.748368,234.427793 199.748368,227.31388 L199.748368,162.921021 C199.748368,151.146269 200.606931,141.272796 202.324082,133.300307 C204.041234,125.327818 207.230181,118.888596 211.891021,113.982449 C216.551861,109.076302 222.991082,105.519399 231.208879,103.311633 C239.426675,101.103867 250.036059,100 263.037349,100 L263.037349,108.463061 C251.507903,111.40675 243.596859,116.619453 239.303981,124.101327 C235.011102,131.583201 232.864695,141.947281 232.864695,155.193878 L232.864695,221.058573 C232.864695,228.663101 232.435414,235.59293 231.576838,241.848268 C230.718262,248.103605 229.001136,253.684264 226.425409,258.590411 C223.849682,263.496558 220.231453,267.605394 215.570613,270.917044 C210.909773,274.228693 204.65453,276.743056 196.804694,278.460207 L196.804694,280.300003 C204.163915,281.52654 210.235181,283.550295 215.018674,286.37133 C219.802168,289.192364 223.481723,292.810593 226.05745,297.226126 C228.633177,301.641658 230.411629,306.793035 231.392858,312.680412 C232.374088,318.567788 232.864695,325.190987 232.864695,332.550208 L232.864695,405.406128 Z M326.326329,332.550208 C326.326329,325.190987 326.816937,318.567788 327.798166,312.680412 C328.779395,306.793035 330.557847,301.641658 333.133574,297.226126 C335.709301,292.810593 339.388857,289.192364 344.17235,286.37133 C348.955843,283.550295 355.027109,281.52654 362.38633,280.300003 L362.38633,278.460207 C354.536495,276.743056 348.281251,274.228693 343.620411,270.917044 C338.959571,267.605394 335.341342,263.496558 332.765615,258.590411 C330.189888,253.684264 328.472762,248.103605 327.614186,241.848268 C326.755611,235.59293 326.326329,228.663101 326.326329,221.058573 L326.326329,155.193878 C326.326329,141.947281 324.179922,131.583201 319.887043,124.101327 C315.594165,116.619453 307.683121,111.40675 296.153676,108.463061 L296.153676,100 C309.154965,100 319.764349,101.103867 327.982146,103.311633 C336.199942,105.519399 342.639163,109.076302 347.300003,113.982449 C351.960843,118.888596 355.149791,125.327818 356.866942,133.300307 C358.584093,141.272796 359.442656,151.146269 359.442656,162.921021 L359.442656,227.31388 C359.442656,234.427793 359.871938,240.621711 360.730513,245.895819 C361.589089,251.169927 363.183563,255.708045 365.513983,259.510309 C367.844403,263.312573 371.156002,266.440195 375.448881,268.893268 C379.74176,271.346342 385.322418,273.308771 392.191024,274.780615 L392.191024,283.979595 C385.813033,284.47021 380.539004,286.248661 376.368779,289.315003 C372.198554,292.381345 368.886954,296.122226 366.433881,300.537758 C363.980807,304.953291 362.202356,309.92069 361.098473,315.440106 C359.99459,320.959521 359.442656,326.417528 359.442656,331.81429 L359.442656,403.934291 C359.442656,414.973122 358.400116,424.17201 356.315003,431.53123 C354.229891,438.890451 350.672987,444.716413 345.644187,449.009292 C340.615386,453.30217 333.930861,456.30714 325.590411,458.024292 C317.249961,459.741443 306.947207,460.600006 294.681839,460.600006 L294.681839,452.504904 C307.192514,449.070601 315.594165,443.67392 319.887043,436.3147 C324.179922,428.955479 326.326329,418.652725 326.326329,405.406128 L326.326329,332.550208 Z" id="{}"></path>
        </g>
    </g>
</svg>