<svg width="15" height="15" xmlns="http://www.w3.org/2000/svg"><g fill="#000" fill-rule="evenodd"><path d="M14.072 0H8.915a.925.925 0 0 0 0 1.849h2.925L6.961 6.727a.918.918 0 0 0-.27.654c0 .247.095.48.27.654a.918.918 0 0 0 .654.27.918.918 0 0 0 .653-.27l4.88-4.88v2.926a.925.925 0 0 0 1.848 0V.924A.925.925 0 0 0 14.072 0z"/><path d="M10.623 13.411H1.585V4.372h6.798l1.584-1.584H.792A.792.792 0 0 0 0 3.58v10.624c0 .437.355.792.792.792h10.624a.792.792 0 0 0 .792-.792V5.029l-1.585 1.584v6.798z"/></g></svg>