<svg xmlns="http://www.w3.org/2000/svg" viewBox="0 0 367.85 367.85"><g fill="#090509"><path d="M351.959 168.018H97.699c-8.772 0-15.891 7.119-15.891 15.891S88.927 199.8 97.699 199.8h254.26c8.74 0 15.891-7.119 15.891-15.891s-7.119-15.891-15.891-15.891zM351.959 40.888H97.699c-8.772 0-15.891 7.119-15.891 15.891S88.927 72.67 97.699 72.67h254.26c8.74 0 15.891-7.119 15.891-15.891s-7.119-15.891-15.891-15.891zM351.959 295.116H97.699c-8.772 0-15.891 7.183-15.891 15.891 0 8.74 7.119 15.891 15.891 15.891h254.26c8.74 0 15.891-7.151 15.891-15.891 0-8.708-7.119-15.891-15.891-15.891zM33.499 95.967V17.592h-9.058L7.31 26.745l2.066 8.073 13.635-7.342h.222v68.491zM8.295 208.509L0 216.55v6.515h50.026v-8.74H14.811v-.254l6.261-5.784c16.527-15.923 27.015-27.619 27.015-42.08 0-11.219-7.119-22.788-23.996-22.788-9.058 0-16.749 3.369-22.184 7.977l3.369 7.469c3.623-3.019 9.535-6.643 16.654-6.643 11.696 0 15.542 7.342 15.542 15.319-.096 11.792-9.154 21.93-29.177 40.968zM21.326 341.678c-7.342 0-14.334-3.051-17.353-4.926l-2.892 8.168c3.846 2.543 11.569 5.339 20.373 5.339 18.815 0 28.572-10.997 28.572-23.519 0-10.997-7.85-18.18-17.48-20.182v-.223c9.662-3.464 14.461-10.361 14.461-18.497 0-9.503-6.992-18.688-22.438-18.688-8.454 0-16.4 3.051-20.5 6.007l2.765 7.755c3.369-2.415 9.408-5.212 15.669-5.212 9.757 0 13.762 5.594 13.762 11.855 0 9.249-9.757 13.222-17.48 13.222h-5.912v7.946h5.912c10.266 0 20.15 4.672 20.245 15.669.158 6.609-4.069 15.286-17.704 15.286z"/></g></svg>