<?xml version="1.0" encoding="iso-8859-1"?>
<!-- Generator: Adobe Illustrator 19.0.0, SVG Export Plug-In . SVG Version: 6.00 Build 0)  -->
<svg version="1.1" id="Capa_1" xmlns="http://www.w3.org/2000/svg" xmlns:xlink="http://www.w3.org/1999/xlink" x="0px" y="0px"
	 viewBox="0 0 367.85 367.85" style="enable-background:new 0 0 367.85 367.85;" xml:space="preserve">
<g>
	<g>
		<g>
			<path style="fill:#090509;" d="M351.959,168.018H97.699c-8.772,0-15.891,7.119-15.891,15.891c0,8.772,7.119,15.891,15.891,15.891
				h254.26c8.74,0,15.891-7.119,15.891-15.891C367.85,175.137,360.731,168.018,351.959,168.018z"/>
			<path style="fill:#090509;" d="M351.959,40.888H97.699c-8.772,0-15.891,7.119-15.891,15.891s7.119,15.891,15.891,15.891h254.26
				c8.74,0,15.891-7.119,15.891-15.891S360.731,40.888,351.959,40.888z"/>
			<path style="fill:#090509;" d="M351.959,295.116H97.699c-8.772,0-15.891,7.183-15.891,15.891c0,8.74,7.119,15.891,15.891,15.891
				h254.26c8.74,0,15.891-7.151,15.891-15.891C367.85,302.299,360.731,295.116,351.959,295.116z"/>
			<polygon style="fill:#090509;" points="33.499,95.967 33.499,17.592 24.441,17.592 7.31,26.745 9.376,34.818 23.011,27.476 
				23.233,27.476 23.233,95.967 			"/>
			<path style="fill:#090509;" d="M8.295,208.509L0,216.55v6.515h50.026v-8.74H14.811v-0.254l6.261-5.784
				c16.527-15.923,27.015-27.619,27.015-42.08c0-11.219-7.119-22.788-23.996-22.788c-9.058,0-16.749,3.369-22.184,7.977l3.369,7.469
				c3.623-3.019,9.535-6.643,16.654-6.643c11.696,0,15.542,7.342,15.542,15.319C37.376,179.333,28.318,189.471,8.295,208.509z"/>
			<path style="fill:#090509;" d="M21.326,341.678c-7.342,0-14.334-3.051-17.353-4.926l-2.892,8.168
				c3.846,2.543,11.569,5.339,20.373,5.339c18.815,0,28.572-10.997,28.572-23.519c0-10.997-7.85-18.18-17.48-20.182v-0.223
				c9.662-3.464,14.461-10.361,14.461-18.497c0-9.503-6.992-18.688-22.438-18.688c-8.454,0-16.4,3.051-20.5,6.007l2.765,7.755
				c3.369-2.415,9.408-5.212,15.669-5.212c9.757,0,13.762,5.594,13.762,11.855c0,9.249-9.757,13.222-17.48,13.222h-5.912v7.946
				h5.912c10.266,0,20.15,4.672,20.245,15.669C39.188,333.001,34.961,341.678,21.326,341.678z"/>
		</g>
	</g>
</g>
<g>
</g>
<g>
</g>
<g>
</g>
<g>
</g>
<g>
</g>
<g>
</g>
<g>
</g>
<g>
</g>
<g>
</g>
<g>
</g>
<g>
</g>
<g>
</g>
<g>
</g>
<g>
</g>
<g>
</g>
</svg>
