<?xml version="1.0" encoding="UTF-8"?>
<svg width="560px" height="560px" viewBox="0 0 560 560" version="1.1" xmlns="http://www.w3.org/2000/svg" xmlns:xlink="http://www.w3.org/1999/xlink">
    <!-- Generator: Sketch 46.2 (44496) - http://www.bohemiancoding.com/sketch -->
    <title>setting</title>
    <desc>Created with Sketch.</desc>
    <defs></defs>
    <g id="Page-1" stroke="none" stroke-width="1" fill="none" fill-rule="evenodd">
        <g id="setting" fill="#959DAC">
            <path d="M429.111735,299.561 C429.91156,293.337 430.511429,287.113 430.511429,280.5 C430.511429,273.887 429.91156,267.663 429.111735,261.439 L471.302525,229.3465 C475.101696,226.429 476.101477,221.1775 473.702001,216.8985 L433.710731,149.6015 C431.311254,145.3225 425.912433,143.7665 421.513393,145.3225 L371.724262,164.7725 C361.326531,156.9925 350.128976,150.574 337.931638,145.7115 L330.333297,94.169 C329.733428,89.501 325.534344,86 320.535436,86 L240.552895,86 C235.553986,86 231.354903,89.501 230.755034,94.169 L223.156692,145.7115 C210.959355,150.574 199.761799,157.187 189.364069,164.7725 L139.574937,145.3225 C134.975941,143.572 129.777076,145.3225 127.3776,149.6015 L87.3863295,216.8985 C84.7868969,221.1775 85.986635,226.429 89.7858057,229.3465 L131.976596,261.439 C131.17677,267.663 130.576901,274.0815 130.576901,280.5 C130.576901,286.9185 131.17677,293.337 131.976596,299.561 L89.7858057,331.6535 C85.986635,334.571 84.9868532,339.8225 87.3863295,344.1015 L127.3776,411.3985 C129.777076,415.6775 135.175898,417.2335 139.574937,415.6775 L189.364069,396.2275 C199.761799,404.0075 210.959355,410.426 223.156692,415.2885 L230.755034,466.831 C231.354903,471.499 235.553986,475 240.552895,475 L320.535436,475 C325.534344,475 329.733428,471.499 330.333297,466.831 L337.931638,415.2885 C350.128976,410.426 361.326531,403.813 371.724262,396.2275 L421.513393,415.6775 C426.112389,417.428 431.311254,415.6775 433.710731,411.3985 L473.702001,344.1015 C476.101477,339.8225 475.101696,334.571 471.302525,331.6535 L429.111735,299.561 L429.111735,299.561 Z M281,348 C242.4,348 211,317.497143 211,280 C211,242.502857 242.4,212 281,212 C319.6,212 351,242.502857 351,280 C351,317.497143 319.6,348 281,348 L281,348 Z" id="Shape"></path>
        </g>
    </g>
</svg>