<?xml version="1.0" encoding="iso-8859-1"?>
<!-- Generator: Adobe Illustrator 16.0.0, SVG Export Plug-In . SVG Version: 6.00 Build 0)  -->
<!DOCTYPE svg PUBLIC "-//W3C//DTD SVG 1.1//EN" "http://www.w3.org/Graphics/SVG/1.1/DTD/svg11.dtd">
<svg version="1.1" id="Capa_1" xmlns="http://www.w3.org/2000/svg" xmlns:xlink="http://www.w3.org/1999/xlink" x="0px" y="0px"
	 width="511.626px" height="511.626px" viewBox="0 0 511.626 511.626" style="enable-background:new 0 0 511.626 511.626;"
	 xml:space="preserve">
<g>
	<g>
		<path d="M137.901,237.533h212.124c-7.042-4.563-16.084-9.515-27.124-14.845c-19.786-8.754-36.261-15.037-49.396-18.842
			c-40.537-11.798-67.089-24.078-79.652-36.829c-12.563-12.753-18.843-26.075-18.843-39.971c0-16.753,6.379-30.649,19.13-41.687
			c12.943-11.227,30.264-16.846,51.962-16.846c23.221,0,43.206,8.66,59.958,25.981c10.085,10.656,19.893,30.166,29.406,58.529
			l4.004,0.568l23.982,1.712l3.43-0.854c0.951-5.142,1.43-9.419,1.43-12.85c0-11.421-1.334-28.833-4.004-52.246
			c-2.101-15.222-4.093-26.457-5.995-33.691c-21.122-6.849-37.973-11.419-50.535-13.701c-22.268-3.617-38.167-5.426-47.674-5.426
			c-49.493,0-86.891,12.091-112.209,36.26c-25.505,24.362-38.256,53.774-38.256,88.225c0,17.318,4.568,35.208,13.706,53.672
			C127.717,223.26,132.571,230.874,137.901,237.533z"/>
		<path d="M282.65,310.624c19.605,7.994,32.647,14.756,39.115,20.27c15.42,13.897,23.127,28.838,23.127,44.823
			c0,12.946-4.477,25.222-13.422,36.833c-8.562,11.416-20.17,19.612-34.83,24.551c-14.268,5.15-27.501,7.713-39.677,7.713
			c-13.893,0-26.455-2.098-37.685-6.283c-11.8-4-21.794-9.418-29.98-16.275c-8.564-7.043-16.18-15.988-22.841-26.84
			c-0.953-1.517-2.144-4.09-3.571-7.703c-1.425-3.621-3.571-8.946-6.423-15.985c-2.856-7.046-5.708-13.802-8.564-20.272
			l-29.121,0.571v12.562l-0.571,10.571c-0.188,7.228-0.188,13.699,0,19.41c0.378,9.134,0.571,23.982,0.571,44.543v3.713
			c0,2.666,0.76,4.754,2.281,6.283c2.855,2.275,9.707,4.945,20.557,7.991l39.969,11.419c15.415,4.381,33.975,6.571,55.673,6.571
			c23.414,0,42.723-1.999,57.958-5.999c13.897-3.433,28.444-9.713,43.684-18.843c13.702-8.761,24.078-16.464,31.121-23.134
			c9.127-9.322,15.893-19.219,20.27-29.694c7.81-19.222,11.707-39.399,11.707-60.521c0-10.092-0.66-18.843-1.988-26.269H282.65
			V310.624z"/>
		<path d="M509.06,258.374c-1.718-1.711-3.901-2.566-6.57-2.566H9.135c-2.666,0-4.853,0.855-6.567,2.566
			C0.859,260.085,0,262.275,0,264.945v18.267c0,2.67,0.855,4.856,2.568,6.571c1.714,1.711,3.905,2.56,6.567,2.56H502.49
			c2.669,0,4.853-0.849,6.57-2.56c1.711-1.715,2.566-3.901,2.566-6.571v-18.267C511.626,262.275,510.771,260.085,509.06,258.374z"/>
	</g>
</g>
<g>
</g>
<g>
</g>
<g>
</g>
<g>
</g>
<g>
</g>
<g>
</g>
<g>
</g>
<g>
</g>
<g>
</g>
<g>
</g>
<g>
</g>
<g>
</g>
<g>
</g>
<g>
</g>
<g>
</g>
</svg>
