<svg width="17" height="15" xmlns="http://www.w3.org/2000/svg"><path d="M11.866 11.646H9.06L5.867 7.942l-3.121 3.704H0l4.524-5.064L.218 1.804h2.77l3 3.464 3.023-3.464h2.65L7.306 6.582l4.56 5.064zm1.725 2.058l1.827-1.368c.64-.435 1.062-.84 1.264-1.212.202-.372.302-.773.302-1.202 0-.7-.237-1.266-.71-1.696-.474-.431-1.097-.646-1.869-.646-.744 0-1.34.218-1.785.653-.446.436-.67 1.092-.67 1.97h1.436c0-.524.094-.886.281-1.087.188-.2.445-.301.772-.301s.586.102.777.306c.19.204.286.458.286.76 0 .303-.088.577-.266.822-.177.245-.67.658-1.478 1.24-.692.5-1.628.971-1.91 1.413L11.864 15H17v-1.296h-3.41z"/></svg>