<?xml version="1.0" encoding="iso-8859-1"?>
<!-- Generator: Adobe Illustrator 19.0.0, SVG Export Plug-In . SVG Version: 6.00 Build 0)  -->
<svg version="1.1" id="Layer_1" xmlns="http://www.w3.org/2000/svg" xmlns:xlink="http://www.w3.org/1999/xlink" x="0px" y="0px"
	 viewBox="0 0 512.004 512.004" style="enable-background:new 0 0 512.004 512.004;" xml:space="preserve">
<path style="fill:#EE8700;" d="M500.833,487.94H466.67v-0.195c0-3.594,8.237-9.406,14.854-14.075
	c13.168-9.291,29.554-20.854,29.554-40.906c0-19.027-14.747-33.374-34.301-33.374c-18.723,0-32.843,12.87-32.843,29.938
	c0,9.906,6.446,13.419,11.966,13.419c7.901,0,12.622-5.882,12.622-11.568c0-3.534,0.907-7.594,7.99-7.594
	c9.565,0,9.842,8.478,9.842,9.443c0,7.619-9.89,14.741-19.451,21.629c-11.821,8.515-25.219,18.166-25.219,33.091v12.819
	c0,6.84,6.256,11.437,12.101,11.437h47.05c6.158,0,11.168-5.426,11.168-12.096C512.001,493.308,506.991,487.94,500.833,487.94z"/>
<path style="fill:#FF0C38;" d="M391.161,5.394c-10.272-8.371-25.392-6.829-33.766,3.446L200.001,202.005L42.607,8.842
	C34.236-1.433,19.118-2.977,8.843,5.394C-1.434,13.767-2.977,28.885,5.396,39.16L169.043,240L5.396,440.842
	c-8.371,10.275-6.83,25.392,3.446,33.765c4.453,3.629,9.816,5.394,15.146,5.394c6.966,0,13.877-3.019,18.621-8.84l157.392-193.165
	L357.395,471.16c4.744,5.822,11.653,8.84,18.621,8.84c5.33,0,10.693-1.765,15.146-5.394c10.277-8.373,11.819-23.491,3.446-33.765
	L230.961,240L394.607,39.16C402.98,28.885,401.438,13.768,391.161,5.394z"/>
<g>
</g>
<g>
</g>
<g>
</g>
<g>
</g>
<g>
</g>
<g>
</g>
<g>
</g>
<g>
</g>
<g>
</g>
<g>
</g>
<g>
</g>
<g>
</g>
<g>
</g>
<g>
</g>
<g>
</g>
</svg>
