<?xml version="1.0" encoding="utf-8"?>
<svg width="16.99993133544922" height="15.000198364257812" viewBox="-0.00000412796 2.26253e-7 16.9999 15.0002" xmlns="http://www.w3.org/2000/svg">
  <g transform="matrix(0.03456100076436997, 0, 0, 0.03262700140476227, 0, 0)">
    <path d="M211.357,311.56l131.922,148.188h-81.178l-92.38-108.379L79.435,459.748H0L130.861,311.56L6.301,171.714h80.135&#10;&#9;&#9;l86.794,101.391l87.47-101.391h76.639L211.357,311.56z M391.736,211.36l54.373-40.033c18.542-12.741,30.724-24.56,36.563-35.468&#10;&#9;&#9;c5.834-10.902,8.748-22.618,8.748-35.172c0-20.508-6.856-37.061-20.552-49.656c-13.707-12.602-31.729-18.897-54.054-18.897&#10;&#9;&#9;c-21.527,0-38.745,6.375-51.637,19.115C352.258,63.996,345.81,83.206,345.81,108.9h41.523c0-15.33,2.719-25.928,8.145-31.806&#10;&#9;&#9;c5.426-5.879,12.861-8.819,22.331-8.819c9.457,0,16.929,2.991,22.473,8.964c5.521,5.967,8.275,13.388,8.275,22.257&#10;&#9;&#9;c0,8.854-2.554,16.866-7.685,24.039s-19.387,19.272-42.782,36.298c-20.014,14.635-47.097,28.422-55.218,41.364l0.407,48.093&#10;&#9;&#9;h148.603v-37.93H391.736z"/>
  </g>
  <g transform="matrix(0.03456100076436997, 0, 0, 0.03262700140476227, 0, 0)"/>
  <g transform="matrix(0.03456100076436997, 0, 0, 0.03262700140476227, 0, 0)"/>
  <g transform="matrix(0.03456100076436997, 0, 0, 0.03262700140476227, 0, 0)"/>
  <g transform="matrix(0.03456100076436997, 0, 0, 0.03262700140476227, 0, 0)"/>
  <g transform="matrix(0.03456100076436997, 0, 0, 0.03262700140476227, 0, 0)"/>
  <g transform="matrix(0.03456100076436997, 0, 0, 0.03262700140476227, 0, 0)"/>
  <g transform="matrix(0.03456100076436997, 0, 0, 0.03262700140476227, 0, 0)"/>
  <g transform="matrix(0.03456100076436997, 0, 0, 0.03262700140476227, 0, 0)"/>
  <g transform="matrix(0.03456100076436997, 0, 0, 0.03262700140476227, 0, 0)"/>
  <g transform="matrix(0.03456100076436997, 0, 0, 0.03262700140476227, 0, 0)"/>
  <g transform="matrix(0.03456100076436997, 0, 0, 0.03262700140476227, 0, 0)"/>
  <g transform="matrix(0.03456100076436997, 0, 0, 0.03262700140476227, 0, 0)"/>
  <g transform="matrix(0.03456100076436997, 0, 0, 0.03262700140476227, 0, 0)"/>
  <g transform="matrix(0.03456100076436997, 0, 0, 0.03262700140476227, 0, 0)"/>
  <g transform="matrix(0.03456100076436997, 0, 0, 0.03262700140476227, 0, 0)"/>
</svg>