<?xml version="1.0" encoding="iso-8859-1"?>
<!-- Generator: Adobe Illustrator 16.0.0, SVG Export Plug-In . SVG Version: 6.00 Build 0)  -->
<!DOCTYPE svg PUBLIC "-//W3C//DTD SVG 1.1//EN" "http://www.w3.org/Graphics/SVG/1.1/DTD/svg11.dtd">
<svg version="1.1" id="Capa_1" xmlns="http://www.w3.org/2000/svg" xmlns:xlink="http://www.w3.org/1999/xlink" x="0px" y="0px"
	 width="491.882px" height="491.882px" viewBox="0 0 491.882 491.882" style="enable-background:new 0 0 491.882 491.882;"
	 xml:space="preserve">
<g>
	<path d="M211.357,311.56l131.922,148.188h-81.178l-92.38-108.379L79.435,459.748H0L130.861,311.56L6.301,171.714h80.135
		l86.794,101.391l87.47-101.391h76.639L211.357,311.56z M391.736,211.36l54.373-40.033c18.542-12.741,30.724-24.56,36.563-35.468
		c5.834-10.902,8.748-22.618,8.748-35.172c0-20.508-6.856-37.061-20.552-49.656c-13.707-12.602-31.729-18.897-54.054-18.897
		c-21.527,0-38.745,6.375-51.637,19.115C352.258,63.996,345.81,83.206,345.81,108.9h41.523c0-15.33,2.719-25.928,8.145-31.806
		c5.426-5.879,12.861-8.819,22.331-8.819c9.457,0,16.929,2.991,22.473,8.964c5.521,5.967,8.275,13.388,8.275,22.257
		c0,8.854-2.554,16.866-7.685,24.039s-19.387,19.272-42.782,36.298c-20.014,14.635-47.097,28.422-55.218,41.364l0.407,48.093
		h148.603v-37.93H391.736z"/>
</g>
<g>
</g>
<g>
</g>
<g>
</g>
<g>
</g>
<g>
</g>
<g>
</g>
<g>
</g>
<g>
</g>
<g>
</g>
<g>
</g>
<g>
</g>
<g>
</g>
<g>
</g>
<g>
</g>
<g>
</g>
</svg>
