<?xml version="1.0" encoding="utf-8"?>
<svg width="14.99999713897705" height="17" viewBox="-0.00000176038 5.18213e-8 15 17" xmlns="http://www.w3.org/2000/svg">
  <path style="fill:#EE8700;" d="M 12.702 14.512 L 2.906 14.512 C 2.399 14.512 1.987 14.893 1.987 15.362 C 1.987 15.831 2.399 16.212 2.906 16.212 L 12.702 16.212 C 13.209 16.212 13.62 15.831 13.62 15.362 C 13.62 14.893 13.209 14.512 12.702 14.512 Z"/>
  <path style="fill:#FF0C38;" d="M 12.341 0 C 11.833 0 11.422 0.381 11.422 0.85 L 11.422 8.217 C 11.422 10.248 9.637 11.9 7.443 11.9 C 6.38 11.9 5.38 11.517 4.629 10.821 C 3.877 10.125 3.463 9.2 3.463 8.217 L 3.463 0.85 C 3.463 0.381 3.052 0 2.545 0 C 2.038 0 1.626 0.381 1.626 0.85 L 1.626 8.217 C 1.626 9.654 2.231 11.006 3.33 12.023 C 4.428 13.04 5.889 13.6 7.443 13.6 C 10.65 13.6 13.259 11.185 13.259 8.217 L 13.259 0.85 C 13.259 0.381 12.848 0 12.341 0 Z"/>
  <g transform="matrix(0.03587399795651436, 0, 0, 0.03320299834012986, 0, 0)"/>
  <g transform="matrix(0.03587399795651436, 0, 0, 0.03320299834012986, 0, 0)"/>
  <g transform="matrix(0.03587399795651436, 0, 0, 0.03320299834012986, 0, 0)"/>
  <g transform="matrix(0.03587399795651436, 0, 0, 0.03320299834012986, 0, 0)"/>
  <g transform="matrix(0.03587399795651436, 0, 0, 0.03320299834012986, 0, 0)"/>
  <g transform="matrix(0.03587399795651436, 0, 0, 0.03320299834012986, 0, 0)"/>
  <g transform="matrix(0.03587399795651436, 0, 0, 0.03320299834012986, 0, 0)"/>
  <g transform="matrix(0.03587399795651436, 0, 0, 0.03320299834012986, 0, 0)"/>
  <g transform="matrix(0.03587399795651436, 0, 0, 0.03320299834012986, 0, 0)"/>
  <g transform="matrix(0.03587399795651436, 0, 0, 0.03320299834012986, 0, 0)"/>
  <g transform="matrix(0.03587399795651436, 0, 0, 0.03320299834012986, 0, 0)"/>
  <g transform="matrix(0.03587399795651436, 0, 0, 0.03320299834012986, 0, 0)"/>
  <g transform="matrix(0.03587399795651436, 0, 0, 0.03320299834012986, 0, 0)"/>
  <g transform="matrix(0.03587399795651436, 0, 0, 0.03320299834012986, 0, 0)"/>
  <g transform="matrix(0.03587399795651436, 0, 0, 0.03320299834012986, 0, 0)"/>
</svg>