<?xml version="1.0" encoding="iso-8859-1"?>
<!-- Generator: Adobe Illustrator 19.0.0, SVG Export Plug-In . SVG Version: 6.00 Build 0)  -->
<svg version="1.1" id="Layer_1" xmlns="http://www.w3.org/2000/svg" xmlns:xlink="http://www.w3.org/1999/xlink" x="0px" y="0px"
	 viewBox="0 0 512 512" style="enable-background:new 0 0 512 512;" xml:space="preserve">
<path style="fill:#EE8700;" d="M392.533,460.8H119.467c-14.138,0-25.6,11.462-25.6,25.6c0,14.138,11.462,25.6,25.6,25.6h273.067
	c14.138,0,25.6-11.462,25.6-25.6C418.133,472.262,406.671,460.8,392.533,460.8z"/>
<path style="fill:#FF0C38;" d="M392.533,0c-14.138,0-25.6,11.462-25.6,25.6v221.867c0,61.17-49.766,110.933-110.937,110.933
	c-29.629,0-57.489-11.54-78.44-32.493c-20.953-20.953-32.492-48.811-32.49-78.442V25.6c0-14.138-11.462-25.6-25.6-25.6
	s-25.6,11.462-25.6,25.6v221.863c-0.002,43.307,16.862,84.023,47.485,114.647s71.339,47.49,114.645,47.49
	c89.402,0,162.137-72.733,162.137-162.133V25.6C418.133,11.462,406.671,0,392.533,0z"/>
<g>
</g>
<g>
</g>
<g>
</g>
<g>
</g>
<g>
</g>
<g>
</g>
<g>
</g>
<g>
</g>
<g>
</g>
<g>
</g>
<g>
</g>
<g>
</g>
<g>
</g>
<g>
</g>
<g>
</g>
</svg>
