<?xml version="1.0" encoding="iso-8859-1"?>
<!-- Generator: Adobe Illustrator 19.0.0, SVG Export Plug-In . SVG Version: 6.00 Build 0)  -->
<svg version="1.1" id="Capa_1" xmlns="http://www.w3.org/2000/svg" xmlns:xlink="http://www.w3.org/1999/xlink" x="0px" y="0px"
	 viewBox="0 0 54.971 54.971" style="enable-background:new 0 0 54.971 54.971;" xml:space="preserve">
<g>
	<path d="M51.173,3.801c-5.068-5.068-13.315-5.066-18.384,0l-9.192,9.192c-0.781,0.781-0.781,2.047,0,2.828s2.047,0.781,2.828,0
		l9.192-9.192c1.691-1.69,3.951-2.622,6.363-2.622c2.413,0,4.673,0.932,6.364,2.623s2.623,3.951,2.623,6.364
		c0,2.412-0.932,4.672-2.623,6.363L36.325,31.379c-3.51,3.508-9.219,3.508-12.729,0c-0.781-0.781-2.047-0.781-2.828,0
		s-0.781,2.048,0,2.828c2.534,2.534,5.863,3.801,9.192,3.801s6.658-1.267,9.192-3.801l12.021-12.021
		c2.447-2.446,3.795-5.711,3.795-9.192C54.968,9.512,53.62,6.248,51.173,3.801z"/>
	<path d="M27.132,40.57l-7.778,7.778c-1.691,1.691-3.951,2.623-6.364,2.623c-2.412,0-4.673-0.932-6.364-2.623
		c-3.509-3.509-3.509-9.219,0-12.728L17.94,24.306c1.691-1.69,3.951-2.622,6.364-2.622c2.412,0,4.672,0.932,6.363,2.622
		c0.781,0.781,2.047,0.781,2.828,0s0.781-2.047,0-2.828c-5.067-5.067-13.314-5.068-18.384,0L3.797,32.793
		c-2.446,2.446-3.794,5.711-3.794,9.192c0,3.48,1.348,6.745,3.795,9.191c2.446,2.447,5.711,3.795,9.191,3.795
		c3.481,0,6.746-1.348,9.192-3.795l7.778-7.778c0.781-0.781,0.781-2.047,0-2.828S27.913,39.789,27.132,40.57z"/>
	<path d="M34.003,44.007c-1.104,0-2,0.896-2,2v6c0,1.104,0.896,2,2,2s2-0.896,2-2v-6C36.003,44.902,35.108,44.007,34.003,44.007z"/>
	<path d="M41.175,42.593c-0.781-0.781-2.047-0.781-2.828,0s-0.781,2.047,0,2.828l4.242,4.242c0.391,0.391,0.902,0.586,1.414,0.586
		s1.023-0.195,1.414-0.586c0.781-0.781,0.781-2.047,0-2.828L41.175,42.593z"/>
	<path d="M45.968,36.007h-6c-1.104,0-2,0.896-2,2s0.896,2,2,2h6c1.104,0,2-0.896,2-2S47.073,36.007,45.968,36.007z"/>
	<path d="M18.003,13.007c1.104,0,2-0.896,2-2v-6c0-1.104-0.896-2-2-2s-2,0.896-2,2v6C16.003,12.111,16.899,13.007,18.003,13.007z"/>
	<path d="M10.589,14.421c0.391,0.391,0.902,0.586,1.414,0.586s1.023-0.195,1.414-0.586c0.781-0.781,0.781-2.047,0-2.828L9.175,7.35
		c-0.781-0.781-2.047-0.781-2.828,0s-0.781,2.047,0,2.828L10.589,14.421z"/>
	<path d="M5.968,21.007h6c1.104,0,2-0.896,2-2s-0.896-2-2-2h-6c-1.104,0-2,0.896-2,2S4.864,21.007,5.968,21.007z"/>
</g>
<g>
</g>
<g>
</g>
<g>
</g>
<g>
</g>
<g>
</g>
<g>
</g>
<g>
</g>
<g>
</g>
<g>
</g>
<g>
</g>
<g>
</g>
<g>
</g>
<g>
</g>
<g>
</g>
<g>
</g>
</svg>
