<?xml version="1.0" encoding="UTF-8"?>
<svg width="560px" height="560px" viewBox="0 0 560 560" version="1.1" xmlns="http://www.w3.org/2000/svg" xmlns:xlink="http://www.w3.org/1999/xlink">
    <!-- Generator: Sketch 46.2 (44496) - http://www.bohemiancoding.com/sketch -->
    <title>unlink</title>
    <desc>Created with Sketch.</desc>
    <defs></defs>
    <g id="Page-1" stroke="none" stroke-width="1" fill="none" fill-rule="evenodd">
        <g id="unlink" fill="#959DAC">
            <g id="Group" transform="translate(50.000000, 118.000000)">
                <path d="M330.427204,156 C333.601017,156 336.698353,154.414703 338.533811,151.549709 C341.344356,147.061218 339.986882,141.19753 335.551191,138.370736 L254.657196,87.4693388 C250.145028,84.6616445 244.275385,85.9986418 241.483959,90.4489328 C238.654295,94.9183237 239.99265,100.801112 244.466579,103.647006 L325.360575,154.548403 C326.928362,155.522501 328.668223,156 330.427204,156" id="Fill-5784"></path>
                <path d="M284.026,84.03027 L345.388636,122.475866 C358.796727,130.894191 362.844091,148.608945 354.384909,161.952277 C349.090727,170.313335 339.979364,175.333788 330.024,175.333788 C324.633909,175.333788 319.320545,173.825743 314.697727,170.924189 L253.296727,132.459504 C250.534545,141.813199 249,151.701391 249,161.990455 C249,219.983365 296.244818,267 354.5,267 C412.755182,267 460,219.983365 460,161.990455 C460,103.997546 412.755182,57 354.5,57 C327.376909,57 302.709091,67.2699755 284.026,84.03027 Z" id="Fill-5785"></path>
                <path d="M206.352084,87.4610515 L125.484442,138.368604 C120.991796,141.19574 119.65356,147.060137 122.482972,151.549171 C124.280031,154.414512 127.396207,156 130.569736,156 C132.309442,156 134.068265,155.522443 135.674148,154.548227 L216.541789,103.640675 C220.996201,100.794437 222.334436,94.9109372 219.54326,90.4410057 C216.732966,85.9901766 210.844731,84.6721199 206.352084,87.4610515" id="Fill-5782"></path>
                <path d="M145.295037,170.924189 C140.653881,173.844832 135.37984,175.333788 129.952372,175.333788 C119.998818,175.333788 110.869933,170.313335 105.595892,161.952277 C97.1574259,148.628034 101.184875,130.913281 114.609707,122.456777 L175.961189,84.03027 C157.281494,67.2699755 132.61816,57 105.5,57 C47.2362298,57 0,103.997546 0,161.990455 C0,219.983365 47.2362298,267 105.5,267 C163.76377,267 211,219.983365 211,161.990455 C211,151.701391 209.427377,141.813199 206.684875,132.459504 L145.295037,170.924189" id="Fill-5783"></path>
                <path d="M183.733938,71.9128256 C185.582035,74.0023156 188.120834,75 190.659633,75 C192.89975,75 195.139868,74.2282064 196.931961,72.590498 C200.758828,69.0891904 201.038842,63.1595566 197.585329,59.3194127 L181.251142,41.0975538 C177.77896,37.25741 171.879985,36.937398 168.071786,40.4198814 C164.263587,43.9023648 163.946237,49.8696471 167.399751,53.7286151 L183.733938,71.9128256" id="Fill-5778"></path>
                <path d="M263.787878,72.1761533 C265.708058,74.0775434 268.274829,75 270.802412,75 C273.271215,75 275.759611,74.1340204 277.640603,72.3267585 L297.057932,54.1223603 C300.917885,50.5078365 300.99626,44.5401072 297.195087,40.8126296 C293.433103,37.1228033 287.221909,37.0475007 283.342362,40.6808501 L263.944627,58.8664227 C260.084674,62.5185977 260.006299,68.486327 263.787878,72.1761533" id="Fill-5779"></path>
                <path d="M209.086621,5.44163025 C206.802531,0.681214873 201.130374,-1.3534788 196.390887,0.949947999 C191.651401,3.25337479 189.671856,8.97355133 191.936912,13.7723572 L209.905086,51.5677518 C211.542017,54.9845016 214.949118,57 218.489457,57 C219.878946,57 221.268434,56.7120717 222.600819,56.0786293 C227.340306,53.7560073 229.338885,48.0358307 227.054795,43.2562201 L209.086621,5.44163025" id="Fill-5780"></path>
                <path d="M251.305937,51.337469 L268.161195,13.5232793 C270.323106,8.68613417 268.161195,3.0044082 263.33994,0.835370913 C258.480422,-1.33366637 252.874758,0.873760954 250.712846,5.69171102 L233.838456,43.4867058 C231.676545,48.3238509 233.838456,54.0055768 238.678842,56.1554191 C239.941552,56.7312697 241.242525,57 242.562631,57 C246.216835,57 249.698852,54.8885478 251.305937,51.337469" id="Fill-5781"></path>
            </g>
        </g>
    </g>
</svg>