<?xml version="1.0" encoding="iso-8859-1"?>
<!-- Generator: Adobe Illustrator 19.0.0, SVG Export Plug-In . SVG Version: 6.00 Build 0)  -->
<svg version="1.1" id="Capa_1" xmlns="http://www.w3.org/2000/svg" xmlns:xlink="http://www.w3.org/1999/xlink" x="0px" y="0px"
	 viewBox="0 0 381.39 381.39" style="enable-background:new 0 0 381.39 381.39;" xml:space="preserve">
<g>
	<g>
		<g>
			<g>
				<path style="fill:#010002;" d="M365.499,174.804h-254.26c-8.772,0-15.891,7.119-15.891,15.891
					c0,8.772,7.119,15.891,15.891,15.891h254.26c8.74,0,15.891-7.119,15.891-15.891C381.39,181.923,374.239,174.804,365.499,174.804
					z"/>
				<path style="fill:#010002;" d="M111.239,79.456h254.26c8.74,0,15.891-7.119,15.891-15.891s-7.151-15.891-15.891-15.891h-254.26
					c-8.772,0-15.891,7.119-15.891,15.891S102.467,79.456,111.239,79.456z"/>
				<path style="fill:#010002;" d="M365.499,301.934h-254.26c-8.772,0-15.891,7.151-15.891,15.891s7.119,15.891,15.891,15.891
					h254.26c8.74,0,15.891-7.151,15.891-15.891S374.239,301.934,365.499,301.934z"/>
				<circle style="fill:#010002;" cx="15.891" cy="63.565" r="15.891"/>
				<circle style="fill:#010002;" cx="15.891" cy="190.695" r="15.891"/>
				<circle style="fill:#010002;" cx="15.891" cy="317.825" r="15.891"/>
			</g>
		</g>
	</g>
</g>
<g>
</g>
<g>
</g>
<g>
</g>
<g>
</g>
<g>
</g>
<g>
</g>
<g>
</g>
<g>
</g>
<g>
</g>
<g>
</g>
<g>
</g>
<g>
</g>
<g>
</g>
<g>
</g>
<g>
</g>
</svg>
