<svg xmlns="http://www.w3.org/2000/svg" viewBox="0 0 381.39 381.39"><g fill="#010002"><path d="M365.499 174.804h-254.26c-8.772 0-15.891 7.119-15.891 15.891s7.119 15.891 15.891 15.891h254.26c8.74 0 15.891-7.119 15.891-15.891s-7.151-15.891-15.891-15.891zM111.239 79.456h254.26c8.74 0 15.891-7.119 15.891-15.891s-7.151-15.891-15.891-15.891h-254.26c-8.772 0-15.891 7.119-15.891 15.891s7.119 15.891 15.891 15.891zM365.499 301.934h-254.26c-8.772 0-15.891 7.151-15.891 15.891s7.119 15.891 15.891 15.891h254.26c8.74 0 15.891-7.151 15.891-15.891s-7.151-15.891-15.891-15.891z"/><circle cx="15.891" cy="63.565" r="15.891"/><circle cx="15.891" cy="190.695" r="15.891"/><circle cx="15.891" cy="317.825" r="15.891"/></g></svg>