<?xml version="1.0" encoding="UTF-8"?>
<svg width="560px" height="560px" viewBox="0 0 560 560" version="1.1" xmlns="http://www.w3.org/2000/svg" xmlns:xlink="http://www.w3.org/1999/xlink">
    <!-- Generator: sketchtool 51.2 (57519) - http://www.bohemiancoding.com/sketch -->
    <title>address-card</title>
    <desc>Created with sketchtool.</desc>
    <defs></defs>
    <g id="Page-1" stroke="none" stroke-width="1" fill="none" fill-rule="evenodd">
        <g id="uA133-address-card" fill="#000000" fill-rule="nonzero">
            <g id="address-card" transform="translate(0.000000, 62.000000)">
                <path d="M497.777778,0 L62.2222222,0 C27.9027778,0 0,27.9027778 0,62.2222222 L0,373.333333 C0,407.652778 27.9027778,435.555556 62.2222222,435.555556 L497.777778,435.555556 C532.097222,435.555556 560,407.652778 560,373.333333 L560,62.2222222 C560,27.9027778 532.097222,0 497.777778,0 Z M528.888889,373.333333 C528.888889,390.444444 514.888889,404.444444 497.777778,404.444444 L62.2222222,404.444444 C45.1111111,404.444444 31.1111111,390.444444 31.1111111,373.333333 L31.1111111,62.2222222 C31.1111111,45.1111111 45.1111111,31.1111111 62.2222222,31.1111111 L497.777778,31.1111111 C514.888889,31.1111111 528.888889,45.1111111 528.888889,62.2222222 L528.888889,373.333333 Z M458.888889,248.888889 L350,248.888889 C345.722222,248.888889 342.222222,252.388889 342.222222,256.666667 L342.222222,272.222222 C342.222222,276.5 345.722222,280 350,280 L458.888889,280 C463.166667,280 466.666667,276.5 466.666667,272.222222 L466.666667,256.666667 C466.666667,252.388889 463.166667,248.888889 458.888889,248.888889 Z M458.888889,186.666667 L350,186.666667 C345.722222,186.666667 342.222222,190.166667 342.222222,194.444444 L342.222222,210 C342.222222,214.277778 345.722222,217.777778 350,217.777778 L458.888889,217.777778 C463.166667,217.777778 466.666667,214.277778 466.666667,210 L466.666667,194.444444 C466.666667,190.166667 463.166667,186.666667 458.888889,186.666667 Z M458.888889,124.444444 L350,124.444444 C345.722222,124.444444 342.222222,127.944444 342.222222,132.222222 L342.222222,147.777778 C342.222222,152.055556 345.722222,155.555556 350,155.555556 L458.888889,155.555556 C463.166667,155.555556 466.666667,152.055556 466.666667,147.777778 L466.666667,132.222222 C466.666667,127.944444 463.166667,124.444444 458.888889,124.444444 Z M202.222222,248.888889 C245.194444,248.888889 280,214.083333 280,171.111111 C280,128.138889 245.194444,93.3333333 202.222222,93.3333333 C159.25,93.3333333 124.444444,128.138889 124.444444,171.111111 C124.444444,214.083333 159.25,248.888889 202.222222,248.888889 Z M202.222222,124.444444 C227.986111,124.444444 248.888889,145.347222 248.888889,171.111111 C248.888889,196.875 227.986111,217.777778 202.222222,217.777778 C176.458333,217.777778 155.555556,196.875 155.555556,171.111111 C155.555556,145.347222 176.458333,124.444444 202.222222,124.444444 Z M247.722222,264.444444 C228.763889,264.444444 224,271.25 202.222222,271.25 C180.444444,271.25 175.680556,264.444444 156.722222,264.444444 C136.111111,264.444444 116.083333,273.583333 104.416667,291.083333 C97.4166667,301.486111 93.3333333,314.027778 93.3333333,327.541667 L93.3333333,350 C93.3333333,354.277778 96.8333333,357.777778 101.111111,357.777778 L116.666667,357.777778 C120.944444,357.777778 124.444444,354.277778 124.444444,350 L124.444444,327.541667 C124.444444,320.736111 126.486111,314.125 130.277778,308.486111 C135.722222,300.416667 145.638889,295.652778 156.819444,295.652778 C168.875,295.652778 177.041667,302.458333 202.319444,302.458333 C227.5,302.458333 235.666667,295.652778 247.819444,295.652778 C259,295.652778 268.916667,300.513889 274.361111,308.486111 C278.152778,314.125 280.194444,320.736111 280.194444,327.541667 L280.194444,350 C280.194444,354.277778 283.694444,357.777778 287.972222,357.777778 L303.527778,357.777778 C307.805556,357.777778 311.305556,354.277778 311.305556,350 L311.305556,327.541667 C311.305556,314.027778 307.222222,301.486111 300.222222,291.083333 C288.263889,273.583333 268.236111,264.444444 247.722222,264.444444 Z" id="Shape"></path>
            </g>
        </g>
    </g>
</svg>