<?xml version="1.0" encoding="UTF-8"?>
<svg width="560px" height="560px" viewBox="0 0 560 560" version="1.1" xmlns="http://www.w3.org/2000/svg" xmlns:xlink="http://www.w3.org/1999/xlink">
    <!-- Generator: sketchtool 51.2 (57519) - http://www.bohemiancoding.com/sketch -->
    <title>address-book</title>
    <desc>Created with sketchtool.</desc>
    <defs></defs>
    <g id="Page-1" stroke="none" stroke-width="1" fill="none" fill-rule="evenodd">
        <g id="uA132-address-book" fill="#000000" fill-rule="nonzero">
            <g id="address-book" transform="translate(56.000000, 24.000000)">
                <path d="M436,160 C442.6,160 448,154.6 448,148 L448,108 C448,101.4 442.6,96 436,96 L416,96 L416,64 C416,28.7 387.3,0 352,0 L64,0 C28.7,0 0,28.7 0,64 L0,448 C0,483.3 28.7,512 64,512 L352,512 C387.3,512 416,483.3 416,448 L416,416 L436,416 C442.6,416 448,410.6 448,404 L448,364 C448,357.4 442.6,352 436,352 L416,352 L416,288 L436,288 C442.6,288 448,282.6 448,276 L448,236 C448,229.4 442.6,224 436,224 L416,224 L416,160 L436,160 Z M384,448 C384,465.6 369.6,480 352,480 L64,480 C46.4,480 32,465.6 32,448 L32,64 C32,46.4 46.4,32 64,32 L352,32 C369.6,32 384,46.4 384,64 L384,448 Z M208,272 C252.2,272 288,236.2 288,192 C288,147.8 252.2,112 208,112 C163.8,112 128,147.8 128,192 C128,236.2 163.8,272 208,272 Z M208,144 C234.5,144 256,165.5 256,192 C256,218.5 234.5,240 208,240 C181.5,240 160,218.5 160,192 C160,165.5 181.5,144 208,144 Z M254.8,288 C235.3,288 230.4,295 208,295 C185.6,295 180.7,288 161.2,288 C140,288 119.4,297.4 107.4,315.4 C100.2,326.1 96,339 96,352.9 L96,392 C96,396.4 99.6,400 104,400 L120,400 C124.4,400 128,396.4 128,392 L128,352.9 C128,345.9 130.1,339.1 134,333.3 C139.6,325 149.8,320.1 161.3,320.1 C173.7,320.1 182.1,327.1 208.1,327.1 C234,327.1 242.4,320.1 254.9,320.1 C266.4,320.1 276.6,325.1 282.2,333.3 C286.1,339.1 288.2,345.9 288.2,352.9 L288.2,392 C288.2,396.4 291.8,400 296.2,400 L312.2,400 C316.6,400 320.2,396.4 320.2,392 L320.2,352.9 C320.2,339 316,326.1 308.8,315.4 C296.5,297.4 275.9,288 254.8,288 Z" id="Shape"></path>
            </g>
        </g>
    </g>
</svg>