<?xml version="1.0" encoding="UTF-8"?>
<svg width="560px" height="560px" viewBox="0 0 560 560" version="1.1" xmlns="http://www.w3.org/2000/svg" xmlns:xlink="http://www.w3.org/1999/xlink">
    <!-- Generator: sketchtool 51.2 (57519) - http://www.bohemiancoding.com/sketch -->
    <title>alarm-clock</title>
    <desc>Created with sketchtool.</desc>
    <defs></defs>
    <g id="Page-1" stroke="none" stroke-width="1" fill="none" fill-rule="evenodd">
        <g id="uA135-alarm-clock" fill="#000000" fill-rule="nonzero">
            <g id="alarm-clock" transform="translate(56.000000, 24.000000)">
                <path d="M298.3,348.7 L293.8,355.3 C290,360.8 282.6,362.1 277.1,358.4 L213.3,314.5 C210,312.3 208.1,308.6 208.1,304.6 L208.1,172 C208.1,165.4 213.5,160 220.1,160 L228.1,160 C234.7,160 240.1,165.4 240.1,172 L240.1,294 L295.3,332 C300.6,335.8 302,343.2 298.3,348.7 Z M377.6,451 L411.3,484.7 C417.5,490.9 417.5,501.1 411.3,507.3 C405.1,513.6 394.9,513.5 388.7,507.3 L352.7,471.3 C316.3,497 271.9,512 224,512 C176.1,512 131.7,497 95.3,471.3 L59.3,507.3 C53.1,513.6 42.9,513.5 36.7,507.3 C30.5,501.1 30.5,490.9 36.7,484.7 L70.4,451 C27,410.2 0,352.2 0,288 C0,250.3 9.3,214.7 25.8,183.5 C9.7,164.1 0,139.2 0,112 C0,50.1 50.1,0 112,0 C156.8,0 195.4,26.3 213.3,64.2 C220.4,63.9 227.8,63.9 234.6,64.2 C252.4,26.6 290.9,0 336,0 C397.9,0 448,50.1 448,112 C448,139.2 438.3,164.1 422.2,183.5 C438.7,214.7 448,250.3 448,288 C448,352.2 421,410.2 377.6,451 Z M268.9,68.5 C323.9,79.7 371.5,111 403.8,154.4 C411.5,142.1 416,127.6 416,112 C416,67.9 380.1,32 336,32 C307.9,32 283.2,46.6 268.9,68.5 Z M32,112 C32,127.6 36.5,142.1 44.2,154.4 C76.5,111 124.2,79.7 179.1,68.5 C164.8,46.6 140.1,32 112,32 C67.9,32 32,67.9 32,112 Z M224,96 C118,96 32,182 32,288 C32,394 118,480 224,480 C330,480 416,394 416,288 C416,182 330,96 224,96 Z" id="Shape"></path>
            </g>
        </g>
    </g>
</svg>