<?xml version="1.0" encoding="UTF-8"?>
<svg width="560px" height="560px" viewBox="0 0 560 560" version="1.1" xmlns="http://www.w3.org/2000/svg" xmlns:xlink="http://www.w3.org/1999/xlink">
    <!-- Generator: sketchtool 51.2 (57519) - http://www.bohemiancoding.com/sketch -->
    <title>align-center</title>
    <desc>Created with sketchtool.</desc>
    <defs></defs>
    <g id="Page-1" stroke="none" stroke-width="1" fill="none" fill-rule="evenodd">
        <g id="uA042-align-center" fill="#000000" fill-rule="nonzero">
            <g id="align-center" transform="translate(56.000000, 70.000000)">
                <path d="M352,6 L352,30 C352,33.3137085 349.313708,36 346,36 L102,36 C98.6862915,36 96,33.3137085 96,30 L96,6 C96,2.6862915 98.6862915,0 102,0 L346,0 C349.313708,0 352,2.6862915 352,6 Z M6,164 L442,164 C445.313708,164 448,161.313708 448,158 L448,134 C448,130.686292 445.313708,128 442,128 L6,128 C2.6862915,128 4.05812251e-16,130.686292 0,134 L0,158 C4.05812251e-16,161.313708 2.6862915,164 6,164 Z M6,420 L442,420 C445.313708,420 448,417.313708 448,414 L448,390 C448,386.686292 445.313708,384 442,384 L6,384 C2.6862915,384 4.05812251e-16,386.686292 0,390 L0,414 C4.05812251e-16,417.313708 2.6862915,420 6,420 Z M346,256 L102,256 C98.6862915,256 96,258.686292 96,262 L96,286 C96,289.313708 98.6862915,292 102,292 L346,292 C349.313708,292 352,289.313708 352,286 L352,262 C352,258.686292 349.313708,256 346,256 Z" id="Shape"></path>
            </g>
        </g>
    </g>
</svg>