<?xml version="1.0" encoding="UTF-8"?>
<svg width="560px" height="560px" viewBox="0 0 560 560" version="1.1" xmlns="http://www.w3.org/2000/svg" xmlns:xlink="http://www.w3.org/1999/xlink">
    <!-- Generator: sketchtool 51.2 (57519) - http://www.bohemiancoding.com/sketch -->
    <title>android</title>
    <desc>Created with sketchtool.</desc>
    <defs></defs>
    <g id="Page-1" stroke="none" stroke-width="1" fill="none" fill-rule="evenodd">
        <g id="uA351-android" fill="#000000" fill-rule="nonzero">
            <g id="android" transform="translate(88.000000, 56.000000)">
                <path d="M57.6,173.5 L57.6,289.3 C57.6,304.7 45.5,317 30.1,317 C14.8,317 -7.10542736e-15,304.6 -7.10542736e-15,289.3 L-7.10542736e-15,173.5 C-7.10542736e-15,158.4 14.8,146 30.1,146 C45.2,146 57.6,158.4 57.6,173.5 Z M68.4,330.5 C68.4,346.9 81.6,360.1 98,360.1 L117.9,360.1 L118.2,421.2 C118.2,458.1 173.4,457.8 173.4,421.2 L173.4,360.1 L210.6,360.1 L210.6,421.2 C210.6,457.9 266.1,458 266.1,421.2 L266.1,360.1 L286.3,360.1 C302.5,360.1 315.7,346.9 315.7,330.5 L315.7,151.1 L68.4,151.1 L68.4,330.5 Z M316.4,141.4 L67.3,141.4 C67.3,98.6 92.9,61.4 130.9,42 L111.8,6.7 C109,1.8 116.1,-1.3 118.5,2.9 L137.9,38.5 C172.8,23 212.9,23.8 246.2,38.5 L265.5,3 C268,-1.3 275,1.9 272.2,6.8 L253.1,42 C290.8,61.4 316.4,98.6 316.4,141.4 Z M145.7,85.9 C145.7,80.2 141.1,75.4 135.2,75.4 C129.5,75.4 125,80.2 125,85.9 C125,91.6 129.6,96.4 135.2,96.4 C141.1,96.4 145.7,91.6 145.7,85.9 Z M259.1,85.9 C259.1,80.2 254.5,75.4 248.9,75.4 C243,75.4 238.4,80.2 238.4,85.9 C238.4,91.6 243,96.4 248.9,96.4 C254.5,96.4 259.1,91.6 259.1,85.9 Z M353.9,146 C338.8,146 326.4,158.1 326.4,173.5 L326.4,289.3 C326.4,304.7 338.8,317 353.9,317 C369.3,317 384,304.6 384,289.3 L384,173.5 C384,158.1 369.2,146 353.9,146 Z" id="Shape"></path>
            </g>
        </g>
    </g>
</svg>