<?xml version="1.0" encoding="UTF-8"?>
<svg width="560px" height="560px" viewBox="0 0 560 560" version="1.1" xmlns="http://www.w3.org/2000/svg" xmlns:xlink="http://www.w3.org/1999/xlink">
    <!-- Generator: sketchtool 51.2 (57519) - http://www.bohemiancoding.com/sketch -->
    <title>angry</title>
    <desc>Created with sketchtool.</desc>
    <defs></defs>
    <g id="Page-1" stroke="none" stroke-width="1" fill="none" fill-rule="evenodd">
        <g id="uA137-angry" fill="#000000" fill-rule="nonzero">
            <g id="angry" transform="translate(32.000000, 32.000000)">
                <path d="M248,0 C111,0 0,111 0,248 C0,385 111,496 248,496 C385,496 496,385 496,248 C496,111 385,0 248,0 Z M248,464 C128.9,464 32,367.1 32,248 C32,128.9 128.9,32 248,32 C367.1,32 464,128.9 464,248 C464,367.1 367.1,464 248,464 Z M248,328 C216.8,328 187.4,341.8 167.4,365.8 C161.7,372.6 162.6,382.7 169.4,388.3 C176.2,393.9 186.3,393.1 191.9,386.3 C219.8,352.9 276.1,352.9 304,386.3 C309.3,392.7 319.4,394.3 326.5,388.3 C333.3,382.6 334.2,372.5 328.5,365.8 C308.6,341.8 279.2,328 248,328 Z M200,232 C200,229.1 199.1,226.4 198.3,223.8 C198.9,223.9 199.4,224 200,224 C206.9,224 213.2,219.5 215.3,212.6 C217.9,204.1 213.1,195.2 204.6,192.7 L124.6,168.7 C116.2,166.2 107.2,171 104.7,179.4 C102.1,187.9 106.9,196.8 115.4,199.3 L146.4,208.6 C140.1,214.4 135.9,222.7 135.9,232 C135.9,249.7 150.2,264 167.9,264 C185.6,264 200,249.7 200,232 Z M371.4,168.7 L291.4,192.7 C282.9,195.2 278.1,204.2 280.7,212.6 C282.8,219.5 289.1,224 296,224 C296.6,224 297.1,223.8 297.7,223.8 C297,226.5 296,229.1 296,232 C296,249.7 310.3,264 328,264 C345.7,264 360,249.7 360,232 C360,222.7 355.9,214.5 349.5,208.6 L380.5,199.3 C389,196.8 393.8,187.8 391.2,179.4 C388.8,170.9 379.8,166.2 371.4,168.7 Z" id="Shape"></path>
            </g>
        </g>
    </g>
</svg>