<?xml version="1.0" encoding="UTF-8"?>
<svg width="560px" height="560px" viewBox="0 0 560 560" version="1.1" xmlns="http://www.w3.org/2000/svg" xmlns:xlink="http://www.w3.org/1999/xlink">
    <!-- Generator: sketchtool 51.2 (57519) - http://www.bohemiancoding.com/sketch -->
    <title>archive</title>
    <desc>Created with sketchtool.</desc>
    <defs></defs>
    <g id="Page-1" stroke="none" stroke-width="1" fill="none" fill-rule="evenodd">
        <g id="uA138-archive" fill="#000000" fill-rule="nonzero">
            <g id="archive" transform="translate(24.000000, 56.000000)">
                <path d="M464,0 L48,0 C21.5,0 0,21.5 0,48 L0,112 C0,120.8 7.2,128 16,128 L32,128 L32,400 C32,426.5 53.5,448 80,448 L432,448 C458.5,448 480,426.5 480,400 L480,128 L496,128 C504.8,128 512,120.8 512,112 L512,48 C512,21.5 490.5,0 464,0 Z M448,400 C448,408.8 440.8,416 432,416 L80,416 C71.2,416 64,408.8 64,400 L64,128 L448,128 L448,400 Z M480,96 L32,96 L32,48 C32,39.2 39.2,32 48,32 L464,32 C472.8,32 480,39.2 480,48 L480,96 Z M204,224 L308,224 C314.6,224 320,218.6 320,212 L320,204 C320,197.4 314.6,192 308,192 L204,192 C197.4,192 192,197.4 192,204 L192,212 C192,218.6 197.4,224 204,224 Z" id="Shape"></path>
            </g>
        </g>
    </g>
</svg>