<?xml version="1.0" encoding="UTF-8"?>
<svg width="560px" height="560px" viewBox="0 0 560 560" version="1.1" xmlns="http://www.w3.org/2000/svg" xmlns:xlink="http://www.w3.org/1999/xlink">
    <!-- Generator: sketchtool 51.2 (57519) - http://www.bohemiancoding.com/sketch -->
    <title>arrows-v</title>
    <desc>Created with sketchtool.</desc>
    <defs></defs>
    <g id="Page-1" stroke="none" stroke-width="1" fill="none" fill-rule="evenodd">
        <g id="uA035-arrows-v" fill="#000000" fill-rule="nonzero">
            <g id="arrows-v" transform="translate(184.000000, 24.000000)">
                <path d="M181.415,399.959 C176.729,395.273 169.131,395.273 164.444,399.959 L113,451.887 L113,60.113 L164.444,112.041 C169.13,116.727 176.728,116.727 181.415,112.041 L188.485,104.97 C193.171,100.284 193.171,92.686 188.485,88 L104.485,3.515 C99.799,-1.171 92.201,-1.171 87.514,3.515 L3.515,88 C-1.171,92.686 -1.171,100.284 3.515,104.97 L10.585,112.041 C15.271,116.727 22.869,116.727 27.556,112.041 L79,60.113 L79,451.886 L27.556,399.958 C22.87,395.272 15.272,395.272 10.585,399.958 L3.515,407.029 C-1.171,411.715 -1.171,419.313 3.515,423.999 L87.515,508.484 C92.201,513.171 99.799,513.171 104.486,508.484 L188.486,423.999 C193.172,419.313 193.172,411.715 188.486,407.029 L181.415,399.959 Z" id="Shape"></path>
            </g>
        </g>
    </g>
</svg>