<?xml version="1.0" encoding="UTF-8"?>
<svg width="560px" height="560px" viewBox="0 0 560 560" version="1.1" xmlns="http://www.w3.org/2000/svg" xmlns:xlink="http://www.w3.org/1999/xlink">
    <!-- Generator: sketchtool 51.2 (57519) - http://www.bohemiancoding.com/sketch -->
    <title>arrow-left</title>
    <desc>Created with sketchtool.</desc>
    <defs></defs>
    <g id="Page-1" stroke="none" stroke-width="1" fill="none" fill-rule="evenodd">
        <g id="uA025-arrow-left" fill="#000000" fill-rule="nonzero">
            <g id="arrow-left" transform="translate(56.000000, 56.000000)">
                <path d="M231.536,443.535 L238.607,436.465 C243.293,431.779 243.293,424.181 238.607,419.494 L60.113,241 L436,241 C442.627,241 448,235.627 448,229 L448,219 C448,212.373 442.627,207 436,207 L60.113,207 L238.607,28.506 C243.293,23.82 243.293,16.222 238.607,11.535 L231.536,4.465 C226.85,-0.221 219.252,-0.221 214.566,4.465 L3.515,215.515 C-1.171,220.201 -1.171,227.799 3.515,232.486 L214.566,443.536 C219.252,448.222 226.85,448.222 231.536,443.535 Z" id="Shape"></path>
            </g>
        </g>
    </g>
</svg>