<?xml version="1.0" encoding="UTF-8"?>
<svg width="560px" height="560px" viewBox="0 0 560 560" version="1.1" xmlns="http://www.w3.org/2000/svg" xmlns:xlink="http://www.w3.org/1999/xlink">
    <!-- Generator: sketchtool 51.2 (57519) - http://www.bohemiancoding.com/sketch -->
    <title>arrow-square-up</title>
    <desc>Created with sketchtool.</desc>
    <defs></defs>
    <g id="Page-1" stroke="none" stroke-width="1" fill="none" fill-rule="evenodd">
        <g id="uA031-arrow-square-up" fill="#000000" fill-rule="nonzero">
            <g id="arrow-square-up" transform="translate(56.000000, 56.000000)">
                <path d="M100.5,211.5 L215.5,96.4 C220.2,91.7 227.8,91.7 232.5,96.4 L347.5,211.5 C352.2,216.2 352.2,223.8 347.5,228.5 L340.6,235.4 C335.9,240.1 328.1,240.1 323.5,235.2 L241,149.7 L241,340 C241,346.6 235.6,352 229,352 L219,352 C212.4,352 207,346.6 207,340 L207,149.7 L124.5,235.3 C119.8,240.1 112.1,240.2 107.4,235.5 L100.5,228.6 C95.8,223.8 95.8,216.2 100.5,211.5 Z M0,400 L0,48 C0,21.5 21.5,0 48,0 L400,0 C426.5,0 448,21.5 448,48 L448,400 C448,426.5 426.5,448 400,448 L48,448 C21.5,448 0,426.5 0,400 Z M32,400 C32,408.8 39.2,416 48,416 L400,416 C408.8,416 416,408.8 416,400 L416,48 C416,39.2 408.8,32 400,32 L48,32 C39.2,32 32,39.2 32,48 L32,400 Z" id="Shape"></path>
            </g>
        </g>
    </g>
</svg>