<?xml version="1.0" encoding="UTF-8"?>
<svg width="560px" height="560px" viewBox="0 0 560 560" version="1.1" xmlns="http://www.w3.org/2000/svg" xmlns:xlink="http://www.w3.org/1999/xlink">
    <!-- Generator: sketchtool 51.2 (57519) - http://www.bohemiancoding.com/sketch -->
    <title>arrows-h</title>
    <desc>Created with sketchtool.</desc>
    <defs></defs>
    <g id="Page-1" stroke="none" stroke-width="1" fill="none" fill-rule="evenodd">
        <g id="uA034-arrows-h" fill="#000000" fill-rule="nonzero">
            <g id="arrows-h" transform="translate(24.000000, 184.000000)">
                <path d="M399.959,10.585 C395.273,15.271 395.273,22.869 399.959,27.556 L451.887,79 L60.113,79 L112.041,27.556 C116.727,22.87 116.727,15.272 112.041,10.585 L104.97,3.515 C100.284,-1.171 92.686,-1.171 88,3.515 L3.515,87.515 C-1.171,92.201 -1.171,99.799 3.515,104.486 L88,188.486 C92.686,193.172 100.284,193.172 104.97,188.486 L112.041,181.416 C116.727,176.73 116.727,169.132 112.041,164.445 L60.113,113 L451.886,113 L399.958,164.444 C395.272,169.13 395.272,176.728 399.958,181.415 L407.029,188.485 C411.715,193.171 419.313,193.171 423.999,188.485 L508.484,104.485 C513.171,99.799 513.171,92.201 508.484,87.514 L423.999,3.514 C419.313,-1.172 411.715,-1.172 407.029,3.514 L399.959,10.585 Z" id="Shape"></path>
            </g>
        </g>
    </g>
</svg>