<?xml version="1.0" encoding="UTF-8"?>
<svg width="560px" height="560px" viewBox="0 0 560 560" version="1.1" xmlns="http://www.w3.org/2000/svg" xmlns:xlink="http://www.w3.org/1999/xlink">
    <!-- Generator: sketchtool 51.2 (57519) - http://www.bohemiancoding.com/sketch -->
    <title>arrow-circle-down</title>
    <desc>Created with sketchtool.</desc>
    <defs></defs>
    <g id="Page-1" stroke="none" stroke-width="1" fill="none" fill-rule="evenodd">
        <g id="uA026-arrow-circle-down" fill="#000000" fill-rule="nonzero">
            <g id="arrow-circle-down" transform="translate(32.000000, 32.000000)">
                <path d="M248,0 C111,0 0,111 0,248 C0,385 111,496 248,496 C385,496 496,385 496,248 C496,111 385,0 248,0 Z M464,248 C464,366.7 367.9,464 248,464 C129.3,464 32,367.9 32,248 C32,129.3 128.1,32 248,32 C366.7,32 464,128.1 464,248 Z M371.5,243.5 L364.6,236.6 C359.9,231.9 352.1,231.9 347.5,236.8 L265,322.3 L265,132 C265,125.4 259.6,120 253,120 L243,120 C236.4,120 231,125.4 231,132 L231,322.3 L148.5,236.7 C143.8,231.9 136.1,231.8 131.4,236.5 L124.5,243.4 C119.8,248.1 119.8,255.7 124.5,260.4 L239.5,375.5 C244.2,380.2 251.8,380.2 256.5,375.5 L371.5,260.4 C376.2,255.8 376.2,248.2 371.5,243.5 Z" id="Shape"></path>
            </g>
        </g>
    </g>
</svg>