<?xml version="1.0" encoding="UTF-8"?>
<svg width="560px" height="560px" viewBox="0 0 560 560" version="1.1" xmlns="http://www.w3.org/2000/svg" xmlns:xlink="http://www.w3.org/1999/xlink">
    <!-- Generator: sketchtool 51.2 (57519) - http://www.bohemiancoding.com/sketch -->
    <title>arrow-square-right</title>
    <desc>Created with sketchtool.</desc>
    <defs></defs>
    <g id="Page-1" stroke="none" stroke-width="1" fill="none" fill-rule="evenodd">
        <g id="uA033-arrow-square-right" fill="#000000" fill-rule="nonzero">
            <g id="arrow-square-right" transform="translate(56.000000, 56.000000)">
                <path d="M236.5,100.5 L351.6,215.5 C356.3,220.2 356.3,227.8 351.6,232.5 L236.5,347.5 C231.8,352.2 224.2,352.2 219.5,347.5 L212.6,340.6 C207.9,335.9 207.9,328.1 212.8,323.5 L298.4,241 L108,241 C101.4,241 96,235.6 96,229 L96,219 C96,212.4 101.4,207 108,207 L298.3,207 L212.7,124.5 C207.9,119.8 207.8,112.1 212.5,107.4 L219.4,100.5 C224.2,95.8 231.8,95.8 236.5,100.5 Z M48,0 L400,0 C426.5,0 448,21.5 448,48 L448,400 C448,426.5 426.5,448 400,448 L48,448 C21.5,448 0,426.5 0,400 L0,48 C0,21.5 21.5,0 48,0 Z M48,32 C39.2,32 32,39.2 32,48 L32,400 C32,408.8 39.2,416 48,416 L400,416 C408.8,416 416,408.8 416,400 L416,48 C416,39.2 408.8,32 400,32 L48,32 Z" id="Shape"></path>
            </g>
        </g>
    </g>
</svg>