<?xml version="1.0" encoding="UTF-8"?>
<svg width="560px" height="560px" viewBox="0 0 560 560" version="1.1" xmlns="http://www.w3.org/2000/svg" xmlns:xlink="http://www.w3.org/1999/xlink">
    <!-- Generator: sketchtool 51.2 (57519) - http://www.bohemiancoding.com/sketch -->
    <title>arrows</title>
    <desc>Created with sketchtool.</desc>
    <defs></defs>
    <g id="Page-1" stroke="none" stroke-width="1" fill="none" fill-rule="evenodd">
        <g id="uA036-arrows" fill="#000000" fill-rule="nonzero">
            <g id="arrows" transform="translate(24.000000, 24.000000)">
                <path d="M337.782,435.704 L264.485,509.486 C259.799,514.172 252.201,514.172 247.514,509.486 L174.218,435.704 C169.532,431.018 169.532,423.42 174.218,418.734 L181.288,411.664 C185.974,406.978 193.572,406.978 198.259,411.664 L239,452.887 L240,452.887 L240,273 L60.113,273 L60.113,274 L101.337,314.741 C106.023,319.427 106.023,327.025 101.337,331.712 L94.266,338.782 C89.58,343.468 81.982,343.468 77.296,338.782 L3.515,265.485 C-1.171,260.799 -1.171,253.201 3.515,248.514 L77.297,175.217 C81.983,170.531 89.581,170.531 94.268,175.217 L101.339,182.288 C106.025,186.974 106.025,194.572 101.339,199.259 L60.113,240 L60.113,241 L240,241 L240,61.113 L239,61.113 L198.259,102.337 C193.573,107.023 185.975,107.023 181.288,102.337 L174.218,95.266 C169.532,90.58 169.531,82.982 174.218,78.296 L247.515,4.514 C252.201,-0.172 259.799,-0.172 264.486,4.514 L337.783,78.296 C342.469,82.982 342.469,90.58 337.783,95.267 L330.712,102.338 C326.026,107.024 318.428,107.024 313.741,102.338 L273,61.113 L272,61.113 L272,241 L451.887,241 L451.887,240 L410.663,199.259 C405.977,194.573 405.977,186.975 410.663,182.288 L417.734,175.218 C422.42,170.532 430.018,170.532 434.704,175.218 L508.486,248.515 C513.173,253.201 513.172,260.799 508.486,265.486 L434.704,338.783 C430.018,343.469 422.42,343.469 417.734,338.783 L410.663,331.713 C405.977,327.027 405.977,319.429 410.663,314.742 L451.887,274 L451.887,273 L272,273 L272,452.887 L273,452.887 L313.741,411.663 C318.427,406.977 326.025,406.977 330.712,411.663 L337.782,418.734 C342.468,423.419 342.468,431.017 337.782,435.704 Z" id="Shape"></path>
            </g>
        </g>
    </g>
</svg>