<?xml version="1.0" encoding="UTF-8"?>
<svg width="560px" height="560px" viewBox="0 0 560 560" version="1.1" xmlns="http://www.w3.org/2000/svg" xmlns:xlink="http://www.w3.org/1999/xlink">
    <!-- Generator: sketchtool 51.2 (57519) - http://www.bohemiancoding.com/sketch -->
    <title>atlas</title>
    <desc>Created with sketchtool.</desc>
    <defs></defs>
    <g id="Page-1" stroke="none" stroke-width="1" fill="none" fill-rule="evenodd">
        <g id="uA141-atlas" fill="#000000" fill-rule="nonzero">
            <g id="atlas" transform="translate(56.000000, 24.000000)">
                <path d="M448,392 L448,24 C448,10.7 437.3,0 424,0 L80,0 C35.8,0 0,35.8 0,80 L0,448 C0,483.35 28.65,512 64,512 L436,512 C442.6,512 448,506.6 448,500 L448,492 C448,485.4 442.6,480 436,480 L432.7,480 C428.7,459.8 429.5,430.3 433.1,414.2 C441.8,410.6 448,402 448,392 Z M404.3,480 L64,480 C46.33,480 32,465.67 32,448 C32,430.33 46.33,416 64,416 L404.3,416 C401.4,434.8 401.2,459.6 404.3,480 Z M416,384 L64,384 C52.28,384 41.45,387.38 32,392.88 L32,80 C32,53.5 53.5,32 80,32 L416,32 L416,384 Z M224,336 C294.69,336 352,278.69 352,208 C352,137.31 294.69,80 224,80 C153.31,80 96,137.31 96,208 C96,278.69 153.31,336 224,336 Z M318.38,192 L279.29,192 C277.8,164.97 272.75,140.65 265.08,121.59 C292.79,134.83 313.1,160.78 318.38,192 Z M279.29,224 L318.38,224 C313.09,255.22 292.79,281.17 265.08,294.41 C272.76,275.35 277.8,251.03 279.29,224 Z M224,113.31 C231.69,120.76 244.77,147.73 247.43,192 L200.56,192 C203.23,147.74 216.31,120.76 224,113.31 Z M247.43,224 C244.77,268.26 231.69,295.24 224,302.69 C216.31,295.24 203.23,268.27 200.57,224 L247.43,224 Z M182.92,121.59 C175.24,140.65 170.2,164.97 168.71,192 L129.62,192 C134.9,160.78 155.21,134.83 182.92,121.59 Z M168.71,224 C170.2,251.03 175.25,275.35 182.92,294.41 C155.21,281.17 134.9,255.22 129.62,224 L168.71,224 Z" id="Shape"></path>
            </g>
        </g>
    </g>
</svg>