<?xml version="1.0" encoding="UTF-8"?>
<svg width="560px" height="560px" viewBox="0 0 560 560" version="1.1" xmlns="http://www.w3.org/2000/svg" xmlns:xlink="http://www.w3.org/1999/xlink">
    <!-- Generator: sketchtool 51.2 (57519) - http://www.bohemiancoding.com/sketch -->
    <title>bell</title>
    <desc>Created with sketchtool.</desc>
    <defs></defs>
    <g id="Page-1" stroke="none" stroke-width="1" fill="none" fill-rule="evenodd">
        <g id="uA146-bell" fill="#000000" fill-rule="nonzero">
            <g id="bell" transform="translate(56.000000, 24.000000)">
                <path d="M433.884,366.059 C411.634,343.809 384,316.118 384,208 C384,128.606 326.169,62.731 250.337,50.17 C254.032719,44.8322036 256.008653,38.492329 256,32 C256,14.327 241.673,-3.55271368e-15 224,-3.55271368e-15 C206.327,-3.55271368e-15 192,14.327 192,32 C192,38.75 194.095,45.008 197.663,50.17 C121.831,62.731 64,128.606 64,208 C64,316.118 36.357,343.809 14.107,366.059 C-16.042,396.208 5.325,448 48.048,448 L160,448 C160,483.29 188.71,512 224,512 C259.29,512 288,483.29 288,448 L399.943,448 C442.581,448 464.094,396.269 433.884,366.059 Z M224,480 C206.355,480 192,465.645 192,448 L256,448 C256,465.645 241.645,480 224,480 Z M399.943,416 L48.048,416 C33.825,416 26.717,398.704 36.734,388.686 C71.585,353.836 96,314.825 96,208 C96,137.259 153.249,80 224,80 C294.74,80 352,137.249 352,208 C352,314.419 376.206,353.635 411.257,388.686 C421.314,398.744 414.11,416 399.943,416 Z" id="Shape"></path>
            </g>
        </g>
    </g>
</svg>