<?xml version="1.0" encoding="UTF-8"?>
<svg width="560px" height="560px" viewBox="0 0 560 560" version="1.1" xmlns="http://www.w3.org/2000/svg" xmlns:xlink="http://www.w3.org/1999/xlink">
    <!-- Generator: sketchtool 51.2 (57519) - http://www.bohemiancoding.com/sketch -->
    <title>blanket</title>
    <desc>Created with sketchtool.</desc>
    <defs></defs>
    <g id="Page-1" stroke="none" stroke-width="1" fill="none" fill-rule="evenodd">
        <g id="uA148-blanket" fill="#000000" fill-rule="nonzero">
            <g id="blanket" transform="translate(24.000000, 24.000000)">
                <path d="M446.2,384 L104,384 C99.6,384 96,387.6 96,392 L96,408 C96,412.4 99.6,416 104,416 L448,416 C483.3,416 512,387.3 512,352 L512,80 C512,35.8 476.2,0 432,0 L80,0 C35.8,0 0,35.8 0,80 L0,400 C0,461.9 50.1,512 112,512 L504,512 C508.4,512 512,508.4 512,504 L512,488 C512,483.6 508.4,480 504,480 L115.6,480 C73.8,480 36.5,449.6 32.4,408 C27.7,360.3 65.2,320 112,320 L448,320 C467.4,320 482.9,337.4 479.6,357.4 C477,373.1 462.1,384 446.2,384 Z M448,288 L112,288 C80.6,288 52.4,301 32,321.9 L32,80 C32,53.5 53.5,32 80,32 L432,32 C458.5,32 480,53.5 480,80 L480,296.9 C470.5,291.4 459.7,288 448,288 Z" id="Shape"></path>
            </g>
        </g>
    </g>
</svg>