<?xml version="1.0" encoding="UTF-8"?>
<svg width="560px" height="560px" viewBox="0 0 560 560" version="1.1" xmlns="http://www.w3.org/2000/svg" xmlns:xlink="http://www.w3.org/1999/xlink">
    <!-- Generator: sketchtool 51.2 (57519) - http://www.bohemiancoding.com/sketch -->
    <title>blink</title>
    <desc>Created with sketchtool.</desc>
    <defs></defs>
    <g id="Page-1" stroke="none" stroke-width="1" fill="none" fill-rule="evenodd">
        <g id="uA371-blink" fill="#000000" fill-rule="nonzero">
            <path d="M349.152225,416.727599 L360.712607,416.727599 C368.444593,416.727599 374.712607,410.459585 374.712607,402.727599 L374.712607,329.513354 C374.712607,327.488075 373.879252,325.552027 372.40827,324.15992 C367.756072,319.757177 365.100489,313.647672 365.054913,307.242595 L364.189549,190.626658 C364.13481,182.933741 357.883017,176.726275 350.189905,176.726274 L198.188611,176.726249 C190.456625,176.726249 184.188611,182.994262 184.188611,190.726249 L184.188614,402.727599 C184.188614,410.459585 190.456628,416.727599 198.188614,416.727599 L212.022787,416.727599 L212.022787,514.841988 C212.022787,515.394273 212.470503,515.841988 213.022787,515.841988 L348.152225,515.841988 C348.704509,515.841988 349.152225,515.394273 349.152225,514.841988 L349.152225,416.727599 Z M372.152225,519.841988 C372.152225,529.230829 364.541065,536.841988 355.152225,536.841988 L206.022787,536.841988 C196.633947,536.841988 189.022787,529.230829 189.022787,519.841988 L189.022787,440.727599 L187.188614,440.727599 C170.620072,440.727599 157.188614,427.296141 157.188614,410.727599 L157.188611,180.726249 C157.188611,164.157706 170.620069,150.726249 187.188612,150.726249 L361.189907,150.726274 C377.675147,150.726276 391.071846,164.02799 391.189144,180.512813 L392.054508,302.128749 C392.069083,304.177104 392.918344,306.130934 394.406124,307.538939 C399.070246,311.952967 401.712607,318.091697 401.712607,324.513354 L401.712607,410.727599 C401.712607,427.149353 388.518085,440.489362 372.152225,440.724443 L372.152225,519.841988 Z M275.527435,417.665899 L275.527435,490.942175 L237.08938,490.942175 L237.08938,417.665899 L275.527435,417.665899 Z M324.693681,417.665899 L324.693681,490.942175 L286.255626,490.942175 L286.255626,417.665899 L324.693681,417.665899 Z M120.812341,207.358736 C127.595132,207.358736 133.055645,212.668832 133.055645,218.902423 C133.055645,225.389974 127.595132,230.446109 120.812341,230.446109 L71.8391274,230.446109 C65.0808238,230.446109 59.5958239,225.389974 59.5958239,218.902423 C59.5958239,212.668832 65.0808238,207.358736 71.8391274,207.358736 L120.812341,207.358736 Z M489.160873,207.358736 C495.943663,207.358736 501.404176,212.668832 501.404176,218.902423 C501.404176,225.389974 495.943663,230.446109 489.160873,230.446109 L440.187659,230.446109 C433.429355,230.446109 427.944355,225.389974 427.944355,218.902423 C427.944355,212.668832 433.429355,207.358736 440.187659,207.358736 L489.160873,207.358736 Z M220.823868,98.747327 L198.261482,56.0239204 C195.486309,50.6834946 197.719985,44.2749836 203.315457,41.7329409 C208.888366,38.9345577 215.657082,41.0707281 218.432255,46.4111539 L240.994641,89.1345605 C243.792377,94.4749863 241.536138,100.904859 235.963229,103.468263 C234.338737,104.30137 232.623996,104.514987 230.931817,104.514987 C226.780338,104.514987 222.786796,102.378817 220.823868,98.747327 Z M320.635452,104.514987 C318.943273,104.514987 317.20597,104.30137 315.60404,103.468263 C310.008568,100.904859 307.774892,94.4749863 310.550066,89.1345605 L333.112452,46.4111539 C335.93275,41.0707281 342.678903,38.9345577 348.251813,41.7329409 C353.824722,44.2749836 356.08096,50.6834946 353.283225,56.0239204 L330.720839,98.747327 C328.735349,102.378817 324.764369,104.514987 320.635452,104.514987 Z M153.5765,120.023445 C159.624643,122.712852 162.073284,129.492868 159.036969,135.142882 C156.882165,138.984892 152.572557,141.244897 148.091544,141.244897 C146.255064,141.244897 144.36961,141.018897 142.631075,140.137495 L93.6582568,117.514839 C87.5856273,114.825432 85.1614728,108.022815 88.1733011,102.395401 C91.2341023,96.7227874 98.580025,94.4627818 104.603682,97.4233891 L153.5765,120.023445 Z M467.568218,102.395401 C470.604532,108.022815 468.155892,114.825432 462.107748,117.514839 L413.13493,140.137495 C411.371909,141.018897 409.510941,141.244897 407.674461,141.244897 C403.168962,141.244897 398.834867,138.984892 396.704549,135.142882 C393.692721,129.492868 396.116876,122.712852 402.189505,120.023445 L451.162324,97.4233891 C457.18598,94.4627818 464.556389,96.7227874 467.568218,102.395401 Z" id="blink"></path>
        </g>
    </g>
</svg>