<?xml version="1.0" encoding="UTF-8"?>
<svg width="560px" height="560px" viewBox="0 0 560 560" version="1.1" xmlns="http://www.w3.org/2000/svg" xmlns:xlink="http://www.w3.org/1999/xlink">
    <!-- Generator: Sketch 46.2 (44496) - http://www.bohemiancoding.com/sketch -->
    <title>bold</title>
    <desc>Created with Sketch.</desc>
    <defs></defs>
    <g id="Page-1" stroke="none" stroke-width="1" fill="none" fill-rule="evenodd">
        <g id="bold" fill="#959DAC">
            <path d="M111,459.920013 L111,441.274818 C121.565664,440.964063 130.033605,440.031813 136.404079,438.478039 C142.774553,436.924265 147.746555,434.282888 151.320235,430.553831 C154.893916,426.824773 157.302229,421.54202 158.545249,414.705414 C159.788268,407.868808 160.409768,399.012429 160.409768,388.136011 L160.409768,172.784003 C160.409768,161.907584 159.943643,153.128892 159.011378,146.447664 C158.079114,139.766436 156.136926,134.483683 153.184755,130.599248 C150.232584,126.714813 146.192832,124.073436 141.065378,122.67504 C135.937923,121.276643 129.179108,120.266705 120.788728,119.645196 L120.788728,101 L270.416422,101 C317.340398,101 353.465103,108.535691 378.79162,123.6073 C404.118138,138.678908 416.781206,160.198356 416.781206,188.166289 C416.781206,225.146112 390.212068,251.249124 337.072995,266.47611 L337.072995,268.34063 C354.16451,268.34063 369.62433,270.748943 383.452919,275.565643 C397.281508,280.382342 409.012327,287.141158 418.645726,295.842293 C428.279125,304.543428 435.737129,314.798183 441.01996,326.606866 C446.302792,338.415548 448.944168,351.31168 448.944168,365.295646 C448.944168,381.144142 445.137479,394.972523 437.523986,406.781206 C429.910493,418.589889 418.956551,428.533894 404.661829,436.613519 C377.004651,452.15126 338.937757,459.920013 290.460007,459.920013 L111,459.920013 Z M293.722916,431.48609 C343.754441,431.48609 368.769828,408.956704 368.769828,363.897257 C368.769828,336.240078 359.758073,316.041319 341.734294,303.300371 C332.41165,296.77452 320.370082,292.113268 305.609228,289.316475 C290.848374,286.519681 272.747178,285.121306 251.305096,285.121306 L228.930862,285.121306 L228.930862,378.347283 C228.930862,397.614081 233.902864,411.287088 243.847018,419.366713 C253.791172,427.446338 270.416305,431.48609 293.722916,431.48609 Z M256.432525,257.153512 C270.416491,257.153512 282.535747,255.832824 292.790656,253.191408 C303.045565,250.549992 311.746569,246.743303 318.89393,241.771226 C333.810161,231.516317 341.268164,215.512684 341.268164,193.759848 C341.268164,171.074746 335.674662,154.682676 324.487489,144.583144 C313.300315,134.483613 295.276807,129.433923 270.416422,129.433923 L237.3212,129.433923 C231.727613,129.433923 228.930862,132.075299 228.930862,137.358131 L228.930862,257.153512 L256.432525,257.153512 Z" id="B"></path>
        </g>
    </g>
</svg>