<?xml version="1.0" encoding="UTF-8"?>
<svg width="560px" height="560px" viewBox="0 0 560 560" version="1.1" xmlns="http://www.w3.org/2000/svg" xmlns:xlink="http://www.w3.org/1999/xlink">
    <!-- Generator: sketchtool 51.2 (57519) - http://www.bohemiancoding.com/sketch -->
    <title>bolt</title>
    <desc>Created with sketchtool.</desc>
    <defs></defs>
    <g id="Page-1" stroke="none" stroke-width="1" fill="none" fill-rule="evenodd">
        <g id="uA149-bolt" fill="#000000" fill-rule="nonzero">
            <g id="bolt" transform="translate(120.000000, 24.000000)">
                <path d="M186.071,32 C196.586,32 204.251,41.991 201.524,52.149 L168.268,176 L271.946,176 C284.122,176 291.85,189.181 285.911,199.809 L133.967,471.798 C131.133111,476.860874 125.785036,479.997668 119.983,480 C109.837,480 101.796,470.311 104.526,459.926 L153.926,272 L48.004,272 C38.595,272 31.185,263.88 32.076,254.489 L51.792,46.49 C52.5408091,38.2605322 59.4565927,31.9691143 67.72,32 L186.071,32 Z M186.071,7.10542736e-15 L67.72,7.10542736e-15 C42.965,0 22.271,18.825 19.934,43.469 L0.218,251.469 C-2.453,279.642 19.729,304 48.004,304 L112.427,304 L73.577,451.79 C65.531,482.398 88.788,512 119.983,512 C136.926,512 153.192,502.995 161.902,487.408 L313.847,215.415 C331.704,183.461 308.555,144 271.945,144 L209.994,144 L232.429,60.448 C240.598,30.026 217.678,0 186.071,7.10542736e-15 Z" id="Shape"></path>
            </g>
        </g>
    </g>
</svg>