<?xml version="1.0" encoding="UTF-8"?>
<svg width="560px" height="560px" viewBox="0 0 560 560" version="1.1" xmlns="http://www.w3.org/2000/svg" xmlns:xlink="http://www.w3.org/1999/xlink">
    <!-- Generator: sketchtool 51.2 (57519) - http://www.bohemiancoding.com/sketch -->
    <title>book</title>
    <desc>Created with sketchtool.</desc>
    <defs></defs>
    <g id="Page-1" stroke="none" stroke-width="1" fill="none" fill-rule="evenodd">
        <g id="uA152-book" fill="#000000" fill-rule="nonzero">
            <g id="book" transform="translate(56.000000, 24.000000)">
                <path d="M356,160 L188,160 C181.4,160 176,154.6 176,148 L176,140 C176,133.4 181.4,128 188,128 L356,128 C362.6,128 368,133.4 368,140 L368,148 C368,154.6 362.6,160 356,160 Z M368,212 L368,204 C368,197.4 362.6,192 356,192 L188,192 C181.4,192 176,197.4 176,204 L176,212 C176,218.6 181.4,224 188,224 L356,224 C362.6,224 368,218.6 368,212 Z M432.7,480 L436,480 C442.6,480 448,485.4 448,492 L448,500 C448,506.6 442.6,512 436,512 L80,512 C35.8,512 0,476.2 0,432 L0,80 C0,35.8 35.8,0 80,0 L424,0 C437.3,0 448,10.7 448,24 L448,392 C448,402 441.8,410.6 433.1,414.2 C429.5,430.3 428.7,459.8 432.7,480 Z M128,384 L416,384 L416,32 L128,32 L128,384 Z M32,400 C45.4,390 62,384 80,384 L96,384 L96,32 L80,32 C53.5,32 32,53.5 32,80 L32,400 Z M404.3,480 C401.2,459.6 401.4,434.8 404.3,416 L80,416 C16,416 16,480 80,480 L404.3,480 Z" id="Shape"></path>
            </g>
        </g>
    </g>
</svg>