<?xml version="1.0" encoding="UTF-8"?>
<svg width="560px" height="560px" viewBox="0 0 560 560" version="1.1" xmlns="http://www.w3.org/2000/svg" xmlns:xlink="http://www.w3.org/1999/xlink">
    <!-- Generator: sketchtool 51.2 (57519) - http://www.bohemiancoding.com/sketch -->
    <title>broadcast-tower</title>
    <desc>Created with sketchtool.</desc>
    <defs></defs>
    <g id="Page-1" stroke="none" stroke-width="1" fill="none" fill-rule="evenodd">
        <g id="uA158-broadcast-tower" fill="#000000" fill-rule="nonzero">
            <g id="broadcast-tower" transform="translate(0.000000, 31.000000)">
                <path d="M39.4236111,0 C33.3958333,0 27.7861111,3.43194444 25.2875,8.91527778 C9.1875,44.1680556 0,83.2125 0,124.444444 C0,165.666667 9.1875,204.720833 25.2875,239.973611 C27.7958333,245.456944 33.4055556,248.888889 39.4236111,248.888889 C50.7986111,248.888889 58.0902778,237.144444 53.3652778,226.8 C39.1416667,195.5625 31.1111111,160.951389 31.1111111,124.444444 C31.1111111,87.9375 39.1416667,53.3263889 53.375,22.0888889 C58.0902778,11.7444444 50.8083333,0 39.4236111,0 Z M317.372222,173.872222 C332.373611,162.497222 342.222222,144.676389 342.222222,124.444444 C342.222222,90.125 314.3,62.2222222 280,62.2222222 C245.7,62.2222222 217.777778,90.125 217.777778,124.444444 C217.777778,144.783333 227.723611,162.701389 242.851389,174.056944 L109.530556,480.695833 C107.819444,484.633333 109.627778,489.222222 113.565278,490.933333 L127.856944,497.136111 C131.794444,498.847222 136.373611,497.038889 138.084722,493.101389 L203.690278,342.222222 L356.620833,342.222222 L422.216667,493.101389 C423.927778,497.038889 428.506944,498.847222 432.444444,497.136111 L446.736111,490.933333 C450.676537,489.219769 452.482655,484.637016 450.770833,480.695833 L317.372222,173.872222 Z M280,93.3333333 C297.179167,93.3333333 311.111111,107.265278 311.111111,124.444444 C311.111111,141.623611 297.179167,155.555556 280,155.555556 C262.820833,155.555556 248.888889,141.623611 248.888889,124.444444 C248.888889,107.265278 262.820833,93.3333333 280,93.3333333 Z M217.213889,311.111111 L271.6875,185.820833 C274.429167,186.190278 277.151389,186.666667 280,186.666667 C282.945833,186.666667 285.775,186.190278 288.613889,185.791667 L343.097222,311.111111 L217.213889,311.111111 Z M115.684722,186.666667 C126.0875,186.666667 133.281944,176.711111 130.413889,166.706944 C126.554167,153.270833 124.444444,139.115278 124.444444,124.444444 C124.444444,109.773611 126.554167,95.6180556 130.413889,82.1819444 C133.281944,72.1777778 126.0875,62.2222222 115.684722,62.2222222 L115.538889,62.2222222 C108.801389,62.2222222 102.627778,66.5194444 100.751389,72.9847222 C95.9875,89.3375 93.3333333,106.575 93.3333333,124.444444 C93.3333333,142.313889 95.9875,159.551389 100.751389,175.904167 C102.6375,182.379167 108.801389,186.666667 115.538889,186.666667 L115.684722,186.666667 Z M444.461111,62.2222222 L444.315278,62.2222222 C433.9125,62.2222222 426.718056,72.1777778 429.586111,82.1819444 C433.445833,95.6180556 435.555556,109.773611 435.555556,124.444444 C435.555556,139.115278 433.445833,153.270833 429.586111,166.706944 C426.718056,176.711111 433.9125,186.666667 444.315278,186.666667 L444.461111,186.666667 C451.208333,186.666667 457.372222,182.369444 459.258333,175.904167 C464.0125,159.551389 466.666667,142.323611 466.666667,124.444444 C466.666667,106.565278 464.0125,89.3375 459.258333,72.9847222 C457.372222,66.5194444 451.198611,62.2222222 444.461111,62.2222222 Z M534.7125,8.91527778 C532.204167,3.43194444 526.604167,0 520.576389,0 C509.201389,0 501.919444,11.7444444 506.634722,22.0888889 C520.858333,53.3263889 528.888889,87.9375 528.888889,124.444444 C528.888889,160.951389 520.858333,195.5625 506.625,226.8 C501.909722,237.154167 509.191667,248.888889 520.566667,248.888889 C526.594444,248.888889 532.204167,245.456944 534.702778,239.973611 C550.822222,204.720833 560,165.666667 560,124.444444 C560,83.2125 550.822222,44.1680556 534.7125,8.91527778 Z" id="Shape"></path>
            </g>
        </g>
    </g>
</svg>