<?xml version="1.0" encoding="UTF-8"?>
<svg width="560px" height="560px" viewBox="0 0 560 560" version="1.1" xmlns="http://www.w3.org/2000/svg" xmlns:xlink="http://www.w3.org/1999/xlink">
    <!-- Generator: sketchtool 51.2 (57519) - http://www.bohemiancoding.com/sketch -->
    <title>bug</title>
    <desc>Created with sketchtool.</desc>
    <defs></defs>
    <g id="Page-1" stroke="none" stroke-width="1" fill="none" fill-rule="evenodd">
        <g id="uA160-bug" fill="#000000" fill-rule="nonzero">
            <g id="bug" transform="translate(8.000000, 24.000000)">
                <path d="M528,272 L464,272 L464,150.627 L499.313,115.314 C505.562,109.066 505.562,98.935 499.313,92.687 C493.065,86.439 482.934,86.439 476.686,92.687 L441.373,128 L401,128 C401,57.26 343.751,0 273,0 C202.26,0 145,57.249 145,128 L102.627,128 L59.314,84.687 C53.065,78.439 42.935,78.439 36.686,84.687 C30.438,90.935 30.438,101.066 36.686,107.314 L80,150.627 L80,272 L16,272 C7.164,272 0,279.163 0,288 C0,296.837 7.164,304 16,304 L80,304 L80,328 C80,364.634 91.256,398.686 110.484,426.889 L52.687,484.686 C46.438,490.934 46.438,501.065 52.687,507.313 C58.936,513.562 69.066,513.561 75.314,507.313 L130.93,451.697 C162.851,483.971 207.128,504 256,504 L288,504 C336.872,504 381.149,483.971 413.071,451.698 L468.687,507.314 C474.936,513.563 485.066,513.562 491.314,507.314 C497.563,501.066 497.563,490.935 491.314,484.687 L433.517,426.89 C452.744,398.686 464,364.634 464,328 L464,304 L528,304 C536.837,304 544,296.837 544,288 C544,279.163 536.837,272 528,272 Z M273,32 C326.019,32 369,74.981 369,128 L177,128 C177,74.981 219.981,32 273,32 Z M288,472 L288,236 C288,229.373 282.627,224 276,224 L268,224 C261.373,224 256,229.373 256,236 L256,472 C176.598,472 112,407.401 112,328 L112,160 L432,160 L432,328 C432,407.401 367.401,472 288,472 Z" id="Shape"></path>
            </g>
        </g>
    </g>
</svg>