<?xml version="1.0" encoding="UTF-8"?>
<svg width="560px" height="560px" viewBox="0 0 560 560" version="1.1" xmlns="http://www.w3.org/2000/svg" xmlns:xlink="http://www.w3.org/1999/xlink">
    <!-- Generator: sketchtool 51.2 (57519) - http://www.bohemiancoding.com/sketch -->
    <title>calendar-edit</title>
    <desc>Created with sketchtool.</desc>
    <defs></defs>
    <g id="Page-1" stroke="none" stroke-width="1" fill="none" fill-rule="evenodd">
        <g id="uA168-calendar-edit" fill="#000000" fill-rule="nonzero">
            <g id="calendar-edit" transform="translate(56.000000, 24.000000)">
                <path d="M400,64 L352,64 L352,12 C352,5.4 346.6,0 340,0 L332,0 C325.4,0 320,5.4 320,12 L320,64 L128,64 L128,12 C128,5.4 122.6,0 116,0 L108,0 C101.4,0 96,5.4 96,12 L96,64 L48,64 C21.5,64 0,85.5 0,112 L0,464 C0,490.5 21.5,512 48,512 L400,512 C426.5,512 448,490.5 448,464 L448,112 C448,85.5 426.5,64 400,64 Z M48,96 L400,96 C408.8,96 416,103.2 416,112 L416,160 L32,160 L32,112 C32,103.2 39.2,96 48,96 Z M400,480 L48,480 C39.2,480 32,472.8 32,464 L32,192 L416,192 L416,464 C416,472.8 408.8,480 400,480 Z M255.7,269.7 L290.3,304.3 C292.4,306.4 292.4,309.7 290.3,311.7 L159.1,442.9 L124,447.9 C117.1,448.9 111.1,443 112.1,436 L117.1,400.9 L248.3,269.7 C250.3,267.7 253.7,267.7 255.7,269.7 Z M330.9,271.1 L311.7,290.3 C309.6,292.4 306.3,292.4 304.3,290.3 L269.7,255.7 C267.6,253.6 267.6,250.3 269.7,248.3 L288.9,229.1 C295.7,222.3 306.8,222.3 313.6,229.1 L330.9,246.4 C337.7,253.2 337.7,264.3 330.9,271.1 Z" id="Shape"></path>
            </g>
        </g>
    </g>
</svg>