<?xml version="1.0" encoding="UTF-8"?>
<svg width="560px" height="560px" viewBox="0 0 560 560" version="1.1" xmlns="http://www.w3.org/2000/svg" xmlns:xlink="http://www.w3.org/1999/xlink">
    <!-- Generator: sketchtool 51.2 (57519) - http://www.bohemiancoding.com/sketch -->
    <title>calendar-plus</title>
    <desc>Created with sketchtool.</desc>
    <defs></defs>
    <g id="Page-1" stroke="none" stroke-width="1" fill="none" fill-rule="evenodd">
        <g id="uA165-calendar-plus" fill="#000000" fill-rule="nonzero">
            <g id="calendar-plus" transform="translate(56.000000, 24.000000)">
                <path d="M320,332 L320,340 C320,346.6 314.6,352 308,352 L240,352 L240,420 C240,426.6 234.6,432 228,432 L220,432 C213.4,432 208,426.6 208,420 L208,352 L140,352 C133.4,352 128,346.6 128,340 L128,332 C128,325.4 133.4,320 140,320 L208,320 L208,252 C208,245.4 213.4,240 220,240 L228,240 C234.6,240 240,245.4 240,252 L240,320 L308,320 C314.6,320 320,325.4 320,332 Z M448,112 L448,464 C448,490.5 426.5,512 400,512 L48,512 C21.5,512 0,490.5 0,464 L0,112 C0,85.5 21.5,64 48,64 L96,64 L96,12 C96,5.4 101.4,0 108,0 L116,0 C122.6,0 128,5.4 128,12 L128,64 L320,64 L320,12 C320,5.4 325.4,0 332,0 L340,0 C346.6,0 352,5.4 352,12 L352,64 L400,64 C426.5,64 448,85.5 448,112 Z M32,112 L32,160 L416,160 L416,112 C416,103.2 408.8,96 400,96 L48,96 C39.2,96 32,103.2 32,112 Z M416,464 L416,192 L32,192 L32,464 C32,472.8 39.2,480 48,480 L400,480 C408.8,480 416,472.8 416,464 Z" id="Shape"></path>
            </g>
        </g>
    </g>
</svg>