<?xml version="1.0" encoding="UTF-8"?>
<svg width="560px" height="560px" viewBox="0 0 560 560" version="1.1" xmlns="http://www.w3.org/2000/svg" xmlns:xlink="http://www.w3.org/1999/xlink">
    <!-- Generator: sketchtool 51.2 (57519) - http://www.bohemiancoding.com/sketch -->
    <title>caret-circle-right</title>
    <desc>Created with sketchtool.</desc>
    <defs></defs>
    <g id="Page-1" stroke="none" stroke-width="1" fill="none" fill-rule="evenodd">
        <g id="uA178-caret-circle-right" fill="#000000" fill-rule="nonzero">
            <g id="caret-circle-right" transform="translate(32.000000, 32.000000)">
                <path d="M0,248 C0,385 111,496 248,496 C385,496 496,385 496,248 C496,111 385,0 248,0 C111,0 0,111 0,248 Z M248,32 C366.7,32 464,128.1 464,248 C464,366.7 367.9,464 248,464 C129.3,464 32,367.9 32,248 C32,129.3 128.1,32 248,32 Z M216,152 L312,248 L216,344 L216,152 Z M184,344 C184,372.4 218.5,386.8 238.6,366.6 L334.6,270.6 C347.1,258.1 347.1,237.8 334.6,225.3 L238.6,129.3 C218.5,109.2 184,123.4 184,151.9 L184,344 Z" id="Shape"></path>
            </g>
        </g>
    </g>
</svg>