<?xml version="1.0" encoding="UTF-8"?>
<svg width="560px" height="560px" viewBox="0 0 560 560" version="1.1" xmlns="http://www.w3.org/2000/svg" xmlns:xlink="http://www.w3.org/1999/xlink">
    <!-- Generator: sketchtool 51.2 (57519) - http://www.bohemiancoding.com/sketch -->
    <title>caret-circle-left</title>
    <desc>Created with sketchtool.</desc>
    <defs></defs>
    <g id="Page-1" stroke="none" stroke-width="1" fill="none" fill-rule="evenodd">
        <g id="uA177-caret-circle-left" fill="#000000" fill-rule="nonzero">
            <g id="caret-circle-left" transform="translate(32.000000, 32.000000)">
                <path d="M496,248 C496,111 385,0 248,0 C111,0 0,111 0,248 C0,385 111,496 248,496 C385,496 496,385 496,248 Z M248,464 C129.3,464 32,367.9 32,248 C32,129.3 128.1,32 248,32 C366.7,32 464,128.1 464,248 C464,366.7 367.9,464 248,464 Z M280,344 L184,248 L280,152 L280,344 Z M312,152 C312,123.6 277.5,109.2 257.4,129.4 L161.4,225.4 C148.9,237.9 148.9,258.2 161.4,270.7 L257.4,366.7 C277.5,386.8 312,372.6 312,344.1 L312,152 Z" id="Shape"></path>
            </g>
        </g>
    </g>
</svg>