<?xml version="1.0" encoding="UTF-8"?>
<svg width="560px" height="560px" viewBox="0 0 560 560" version="1.1" xmlns="http://www.w3.org/2000/svg" xmlns:xlink="http://www.w3.org/1999/xlink">
    <!-- Generator: sketchtool 51.2 (57519) - http://www.bohemiancoding.com/sketch -->
    <title>caret-square-left</title>
    <desc>Created with sketchtool.</desc>
    <defs></defs>
    <g id="Page-1" stroke="none" stroke-width="1" fill="none" fill-rule="evenodd">
        <g id="uA181-caret-square-left" fill="#000000" fill-rule="nonzero">
            <g id="caret-square-left" transform="translate(56.000000, 56.000000)">
                <path d="M448,400 L448,48 C448,21.5 426.5,0 400,0 L48,0 C21.5,0 0,21.5 0,48 L0,400 C0,426.5 21.5,448 48,448 L400,448 C426.5,448 448,426.5 448,400 Z M48,416 C39.2,416 32,408.8 32,400 L32,48 C32,39.2 39.2,32 48,32 L400,32 C408.8,32 416,39.2 416,48 L416,400 C416,408.8 408.8,416 400,416 L48,416 Z M256,320 L160,224 L256,128 L256,320 Z M288,128 C288,99.6 253.5,85.2 233.4,105.4 L137.4,201.4 C124.9,213.9 124.9,234.2 137.4,246.7 L233.4,342.7 C253.5,362.8 288,348.6 288,320.1 L288,128 Z" id="Shape"></path>
            </g>
        </g>
    </g>
</svg>