<?xml version="1.0" encoding="UTF-8"?>
<svg width="560px" height="560px" viewBox="0 0 560 560" version="1.1" xmlns="http://www.w3.org/2000/svg" xmlns:xlink="http://www.w3.org/1999/xlink">
    <!-- Generator: sketchtool 51.2 (57519) - http://www.bohemiancoding.com/sketch -->
    <title>chart-line-alt</title>
    <desc>Created with sketchtool.</desc>
    <defs></defs>
    <g id="Page-1" stroke="none" stroke-width="1" fill="none" fill-rule="evenodd">
        <g id="uA187-chart-line-alt" fill="#000000" fill-rule="nonzero">
            <g id="chart-line-alt" transform="translate(83.000000, 144.000000)">
                <path d="M393.178261,32.9005038 L393.178261,126.900504 C393.178261,156.200504 357.578261,170.900504 336.878261,150.200504 L301.178261,114.500504 L205.378261,210.300504 C203.078261,212.600504 199.278261,212.600504 196.878261,210.300504 L137.478261,150.900504 L24.9782609,270.500504 C22.6782609,272.900504 18.8782609,273.000504 16.4782609,270.800504 L1.87826087,257.100504 C-0.52173913,254.800504 -0.62173913,251.000504 1.57826087,248.600504 L132.578261,109.500504 C134.878261,107.000504 138.778261,107.000504 141.178261,109.400504 L201.178261,169.400504 L278.578261,92.0005038 L242.878261,56.3005038 C222.078261,35.5005038 236.878261,0.00050379111 266.178261,0.00050379111 L360.178261,0.00050379111 C378.378261,-0.0994962089 393.178261,14.7005038 393.178261,32.9005038 Z M364.378261,32.9005038 C364.378261,30.6005038 362.578261,28.8005038 360.278261,28.8005038 L266.278261,28.8005038 C262.578261,28.8005038 260.778261,33.3005038 263.378261,35.8005038 L357.378261,129.800504 C359.978261,132.400504 364.378261,130.600504 364.378261,126.900504 L364.378261,32.9005038 Z" id="Shape"></path>
            </g>
        </g>
    </g>
</svg>