<?xml version="1.0" encoding="UTF-8"?>
<svg width="560px" height="560px" viewBox="0 0 560 560" version="1.1" xmlns="http://www.w3.org/2000/svg" xmlns:xlink="http://www.w3.org/1999/xlink">
    <!-- Generator: sketchtool 51.2 (57519) - http://www.bohemiancoding.com/sketch -->
    <title>chart-pie</title>
    <desc>Created with sketchtool.</desc>
    <defs></defs>
    <g id="Page-1" stroke="none" stroke-width="1" fill="none" fill-rule="evenodd">
        <g id="uA188-chart-pie" fill="#000000" fill-rule="nonzero">
            <g id="chart-pie" transform="translate(28.000000, 40.000000)">
                <path d="M256,12.3 L256,224 L468,224 C474.9,224 480.4,218.2 480,211.3 C473.6,97.9 382.3,6.7 268.7,0.3 C261.8,-0.1 256,5.4 256,12.3 Z M288,34.3 C368.3,47.7 432.3,111.6 445.7,192 L288,192 L288,34.3 Z M280,256 L430,406.2 C434.9,411.1 442.9,410.8 447.5,405.7 C482.4,366.7 501.3,317.7 504,268.7 C504.4,261.8 498.9,256 492,256 L280,256 Z M436.9,367.8 L357.3,287.9 L469.7,287.9 C464.9,316.5 453.7,344.2 436.9,367.8 Z M224,256 L224,44.2 C224,37.3 218.2,31.8 211.2,32.2 C93.6,38.9 0.2,136.5 5.42101086e-20,255.6 C-0.3,448.7 229.6,551.6 373.1,423.6 C378.3,419 378.5,411 373.6,406.1 L224,256 Z M32,256 C32,159.4 102.8,81.4 192,66.5 L192,256 C192,272.3 189.6,266.8 201.4,278.6 L335.3,413 C209.3,502.9 32,412 32,256 Z" id="Shape"></path>
            </g>
        </g>
    </g>
</svg>