<?xml version="1.0" encoding="UTF-8"?>
<svg width="560px" height="560px" viewBox="0 0 560 560" version="1.1" xmlns="http://www.w3.org/2000/svg" xmlns:xlink="http://www.w3.org/1999/xlink">
    <!-- Generator: sketchtool 51.2 (57519) - http://www.bohemiancoding.com/sketch -->
    <title>chat-widget-customize</title>
    <desc>Created with sketchtool.</desc>
    <defs></defs>
    <g id="Page-1" stroke="none" stroke-width="1" fill="none" fill-rule="evenodd">
        <g id="uA359-widget-customize" fill="#000000" fill-rule="nonzero">
            <g id="chat-widget-customize" transform="translate(0.000000, 84.000000)">
                <path d="M553,364 L532,364 L532,28 C532,12.53875 519.46125,0 504,0 L56,0 C40.53875,0 28,12.53875 28,28 L28,364 L7,364 C3.1325,364 0,367.1325 0,371 L0,385 C0,388.8675 3.1325,392 7,392 L553,392 C556.8675,392 560,388.8675 560,385 L560,371 C560,367.1325 556.8675,364 553,364 Z M252,364 L252,308 L420,308 L420,364 L252,364 Z M448,364 L448,308 C448,292.53875 435.46125,280 420,280 L252,280 C236.53875,280 224,292.53875 224,308 L224,364 L56,364 L56,28 L504,28 L504,364 L448,364 Z M419,50.4 C406.5,37.9 386.2,37.9 373.8,50.4 L247.7,176.4 C245.7,178.4 244.3,180.9 243.5,183.7 L227.5,244.9 C226.1,250.4 227.6,256.2 231.7,260.3 C234.7,263.3 238.8,265 243,265 C244.3,265 245.7,264.8 247,264.5 L308.2,248.5 C311,247.8 313.5,246.3 315.5,244.3 L441.6,118.2 C454.1,105.7 454.1,85.4 441.6,73 L419,50.4 Z M296,218.6 L265.4,226.6 L273.4,196 L348.4,121 L371,143.6 L296,218.6 Z M393.6,121 L371,98.4 L396.4,73 L419,95.6 L393.6,121 Z" id="Combined-Shape"></path>
            </g>
        </g>
    </g>
</svg>