<?xml version="1.0" encoding="UTF-8"?>
<svg width="560px" height="560px" viewBox="0 0 560 560" version="1.1" xmlns="http://www.w3.org/2000/svg" xmlns:xlink="http://www.w3.org/1999/xlink">
    <!-- Generator: sketchtool 51.2 (57519) - http://www.bohemiancoding.com/sketch -->
    <title>chat-lines</title>
    <desc>Created with sketchtool.</desc>
    <defs></defs>
    <g id="Page-1" stroke="none" stroke-width="1" fill="none" fill-rule="evenodd">
        <g id="uA123-chat-lines" fill="#000000" fill-rule="nonzero">
            <g id="chat-lines" transform="translate(24.000000, 56.000000)">
                <path d="M281,240 L137,240 C132.6,240 129,243.6 129,248 L129,264 C129,268.4 132.6,272 137,272 L281,272 C285.4,272 289,268.4 289,264 L289,248 C289,243.6 285.4,240 281,240 Z M377,144 L137,144 C132.6,144 129,147.6 129,152 L129,168 C129,172.4 132.6,176 137,176 L377,176 C381.4,176 385,172.4 385,168 L385,152 C385,147.6 381.4,144 377,144 Z M257,0 C115.6,0 1,93.1 1,208 C1,255.6 20.9,299.2 53.9,334.3 C39,373.7 8,407.1 7.5,407.5 C0.9,414.5 -0.9,424.7 2.9,433.5 C6.7,442.3 15.4,448 25,448 C86.5,448 135,422.3 164.1,401.7 C193,410.8 224.2,416 257,416 C398.4,416 513,322.9 513,208 C513,93.1 398.4,0 257,0 Z M257,384 C228.7,384 200.7,379.7 173.8,371.2 L158.6,366.4 L145.6,375.6 C122.6,391.9 87.1,410.9 43,415.2 C55,400.1 72.8,374.8 83.8,345.6 L90.9,326.9 L77.2,312.3 C48.3,281.7 33,245.6 33,208 C33,111 133.5,32 257,32 C380.5,32 481,111 481,208 C481,305 380.5,384 257,384 Z" id="Shape"></path>
            </g>
        </g>
    </g>
</svg>