<?xml version="1.0" encoding="UTF-8"?>
<svg width="560px" height="560px" viewBox="0 0 560 560" version="1.1" xmlns="http://www.w3.org/2000/svg" xmlns:xlink="http://www.w3.org/1999/xlink">
    <!-- Generator: sketchtool 51.2 (57519) - http://www.bohemiancoding.com/sketch -->
    <title>chat-smile</title>
    <desc>Created with sketchtool.</desc>
    <defs></defs>
    <g id="Page-1" stroke="none" stroke-width="1" fill="none" fill-rule="evenodd">
        <g id="uA120-chat-smile" fill="#000000" fill-rule="nonzero">
            <g id="chat-smile" transform="translate(24.000000, 56.000000)">
                <path d="M257,0 C115.6,0 1,93.1 1,208 C1,255.6 20.9,299.2 53.9,334.3 C39,373.7 8,407.1 7.5,407.5 C0.9,414.5 -0.9,424.7 2.9,433.5 C6.7,442.3 15.4,448 25,448 C86.5,448 135,422.3 164.1,401.7 C193,410.8 224.2,416 257,416 C398.4,416 513,322.9 513,208 C513,93.1 398.4,0 257,0 Z M257,384 C228.7,384 200.7,379.7 173.8,371.2 L158.6,366.4 L145.6,375.6 C122.6,391.9 87.1,410.9 43,415.2 C55,400.1 72.8,374.8 83.8,345.6 L90.9,326.9 L77.2,312.3 C48.3,281.7 33,245.6 33,208 C33,111 133.5,32 257,32 C380.5,32 481,111 481,208 C481,305 380.5,384 257,384 Z M332.8,253.3 C314,275.4 286.4,288 257,288 C227.6,288 200,275.4 181.2,253.4 C175.5,246.7 165.4,246 158.7,251.6 C151.9,257.4 151.2,267.4 156.9,274.2 C181.7,303.3 218.2,320 257,320 C295.8,320 332.3,303.3 357.2,274.1 C363,267.4 362.1,257.3 355.4,251.5 C348.7,245.8 338.6,246.6 332.8,253.3 Z M193,184 C206.3,184 217,173.3 217,160 C217,146.7 206.3,136 193,136 C179.7,136 169,146.7 169,160 C169,173.3 179.7,184 193,184 Z M321,184 C334.3,184 345,173.3 345,160 C345,146.7 334.3,136 321,136 C307.7,136 297,146.7 297,160 C297,173.3 307.7,184 321,184 Z" id="Shape"></path>
            </g>
        </g>
    </g>
</svg>