<?xml version="1.0" encoding="UTF-8"?>
<svg width="560px" height="560px" viewBox="0 0 560 560" version="1.1" xmlns="http://www.w3.org/2000/svg" xmlns:xlink="http://www.w3.org/1999/xlink">
    <!-- Generator: sketchtool 51.2 (57519) - http://www.bohemiancoding.com/sketch -->
    <title>check-double</title>
    <desc>Created with sketchtool.</desc>
    <defs></defs>
    <g id="Page-1" stroke="none" stroke-width="1" fill="none" fill-rule="evenodd">
        <g id="uA088-check-double" fill="#000000" fill-rule="nonzero">
            <g id="check-double" transform="translate(56.000000, 56.000000)">
                <path d="M444.96,127 L432.8,116 C430.77,113.33 428.08,112 424.69,112 C421.3,112 418.61,113.33 416.58,116 L131.77,396 L31.42,297 C29.39,294.33 26.7,293 23.31,293 C19.92,293 17.23,294.33 15.2,297 L3.04,308 C1.01,310.67 0,313.67 0,317 C0,320.33 1.01,323 3.04,325 L123.66,444 C126.35,446.67 129.23,448 132.28,448 C135.33,448 138.2,446.67 140.9,444 L444.97,144 C447,142 448.01,139.33 448.01,136 C448.01,132.67 446.99,129.67 444.96,127 Z M127.17,252.03 C129.82,254.68 132.65,256 135.64,256 C138.63,256 141.46,254.68 144.11,252.03 L365.01,31.8 C367,29.8 368,27.15 368,23.84 C368,20.53 367,17.55 365.01,14.9 L353.05,3.97 C351.06,1.32 348.41,0 345.08,0 C341.75,0 339.1,1.32 337.11,3.97 L135.14,204.34 L62.89,132.31 C60.9,129.66 58.25,128.34 54.92,128.34 C51.59,128.34 48.94,129.66 46.95,132.31 L34.99,143.24 C33,145.89 32,148.87 32,152.18 C32,155.49 33,158.14 34.99,160.13 L127.17,252.03 Z" id="Shape"></path>
            </g>
        </g>
    </g>
</svg>