<?xml version="1.0" encoding="UTF-8"?>
<svg width="560px" height="560px" viewBox="0 0 560 560" version="1.1" xmlns="http://www.w3.org/2000/svg" xmlns:xlink="http://www.w3.org/1999/xlink">
    <!-- Generator: sketchtool 51.2 (57519) - http://www.bohemiancoding.com/sketch -->
    <title>clone</title>
    <desc>Created with sketchtool.</desc>
    <defs></defs>
    <g id="Page-1" stroke="none" stroke-width="1" fill="none" fill-rule="evenodd">
        <g id="uA194-clone" fill="#000000" fill-rule="nonzero">
            <g id="clone" transform="translate(24.000000, 24.000000)">
                <path d="M464,0 L144,0 C117.49,0 96,21.49 96,48 L96,96 L48,96 C21.49,96 0,117.49 0,144 L0,464 C0,490.51 21.49,512 48,512 L368,512 C394.51,512 416,490.51 416,464 L416,416 L464,416 C490.51,416 512,394.51 512,368 L512,48 C512,21.49 490.51,0 464,0 Z M384,464 C384,472.82 376.82,480 368,480 L48,480 C39.18,480 32,472.82 32,464 L32,144 C32,135.18 39.18,128 48,128 L96,128 L96,368 C96,394.51 117.49,416 144,416 L384,416 L384,464 Z M480,368 C480,376.82 472.82,384 464,384 L144,384 C135.18,384 128,376.82 128,368 L128,48 C128,39.18 135.18,32 144,32 L464,32 C472.82,32 480,39.18 480,48 L480,368 Z" id="Shape"></path>
            </g>
        </g>
    </g>
</svg>