<?xml version="1.0" encoding="UTF-8"?>
<svg width="560px" height="560px" viewBox="0 0 560 560" version="1.1" xmlns="http://www.w3.org/2000/svg" xmlns:xlink="http://www.w3.org/1999/xlink">
    <!-- Generator: sketchtool 51.2 (57519) - http://www.bohemiancoding.com/sketch -->
    <title>close-square</title>
    <desc>Created with sketchtool.</desc>
    <defs></defs>
    <g id="Page-1" stroke="none" stroke-width="1" fill="none" fill-rule="evenodd">
        <g id="uA002-close-square" fill="#000000" fill-rule="nonzero">
            <g id="close-square" transform="translate(56.000000, 56.000000)">
                <path d="M400,0 L48,0 C21.5,0 0,21.5 0,48 L0,400 C0,426.5 21.5,448 48,448 L400,448 C426.5,448 448,426.5 448,400 L448,48 C448,21.5 426.5,0 400,0 Z M416,400 C416,408.8 408.8,416 400,416 L48,416 C39.2,416 32,408.8 32,400 L32,48 C32,39.2 39.2,32 48,32 L400,32 C408.8,32 416,39.2 416,48 L416,400 Z M318.8,154.7 L249.5,224 L318.8,293.3 C323.5,298 323.5,305.6 318.8,310.3 L310.3,318.8 C305.6,323.5 298,323.5 293.3,318.8 L224,249.5 L154.7,318.8 C150,323.5 142.4,323.5 137.7,318.8 L129.2,310.3 C124.5,305.6 124.5,298 129.2,293.3 L198.5,224 L129.2,154.7 C124.5,150 124.5,142.4 129.2,137.7 L137.7,129.2 C142.4,124.5 150,124.5 154.7,129.2 L224,198.5 L293.3,129.2 C298,124.5 305.6,124.5 310.3,129.2 L318.8,137.7 C323.4,142.4 323.4,150 318.8,154.7 Z" id="Shape"></path>
            </g>
        </g>
    </g>
</svg>