<?xml version="1.0" encoding="UTF-8"?>
<svg width="560px" height="560px" viewBox="0 0 560 560" version="1.1" xmlns="http://www.w3.org/2000/svg" xmlns:xlink="http://www.w3.org/1999/xlink">
    <!-- Generator: sketchtool 53 (72520) - https://sketchapp.com -->
    <title>code</title>
    <desc>Created with sketchtool.</desc>
    <g id="Page-1" stroke="none" stroke-width="1" fill="none" fill-rule="evenodd">
        <g id="uA050-code" fill="#000000" fill-rule="nonzero">
            <g id="code" transform="translate(0.000000, 31.000000)">
                <path d="M222.352941,495.861592 L198.131488,488.982699 C195.031142,488.110727 193.287197,484.913495 194.15917,481.813149 L330.477509,4.26297578 C331.349481,1.16262976 334.546713,-0.581314879 337.647059,0.290657439 L361.868512,7.16955017 C364.968858,8.04152249 366.712803,11.2387543 365.84083,14.3391003 L229.522491,491.792388 C228.650519,494.892734 225.356401,496.733564 222.352941,495.861592 Z M149.107266,374.463668 L167.031142,354.214533 C168.871972,352.179931 168.581315,349.079585 166.546713,347.33564 L49.3148789,248.027682 L166.546713,148.719723 C168.581315,146.975779 168.871972,143.875433 167.031142,141.84083 L149.107266,121.591696 C147.363322,119.557093 144.262976,119.363322 142.228374,121.204152 L2.61591696,244.442907 C0.387543253,246.380623 0.387543253,249.771626 2.61591696,251.709343 L142.228374,374.948097 C144.262976,376.692042 147.363322,376.49827 149.107266,374.463668 Z M417.771626,374.851211 L557.384083,251.612457 C559.612457,249.67474 559.612457,246.283737 557.384083,244.346021 L417.771626,121.204152 C415.737024,119.460208 412.733564,119.653979 410.892734,121.591696 L392.968858,141.84083 C391.128028,143.875433 391.418685,146.975779 393.453287,148.719723 L510.685121,248.027682 L393.453287,347.33564 C391.418685,349.079585 391.128028,352.179931 392.968858,354.214533 L410.892734,374.463668 C412.636678,376.49827 415.737024,376.692042 417.771626,374.851211 L417.771626,374.851211 Z" id="Shape"></path>
            </g>
        </g>
    </g>
</svg>