<?xml version="1.0" encoding="UTF-8"?>
<svg width="560px" height="560px" viewBox="0 0 560 560" version="1.1" xmlns="http://www.w3.org/2000/svg" xmlns:xlink="http://www.w3.org/1999/xlink">
    <!-- Generator: sketchtool 51.2 (57519) - http://www.bohemiancoding.com/sketch -->
    <title>cog</title>
    <desc>Created with sketchtool.</desc>
    <defs></defs>
    <g id="Page-1" stroke="none" stroke-width="1" fill="none" fill-rule="evenodd">
        <g id="uA201-cog" fill="#000000" fill-rule="nonzero">
            <g id="cog" transform="translate(41.000000, 32.000000)">
                <path d="M465.696,291.276 L433.086,272.449 C435.136001,256.21379 435.136001,239.78521 433.086,223.55 L465.696,204.723 C475.272,199.195 479.891,187.821 476.742,177.222 C465.528,139.473 445.567,105.494 419.207,77.627 C411.573,69.557 399.39,67.791 389.77,73.345 L357.208,92.143 C344.183434,82.2307494 329.957567,74.0054905 314.869,67.663 L314.869,30.049 C314.869,18.919 307.217,9.245 296.385,6.682 C258.741,-2.227 219.267,-2.228 181.615,6.682 C170.784,9.245 163.131,18.918 163.131,30.049 L163.131,67.663 C148.042319,74.0052599 133.816423,82.2305351 120.792,92.143 L88.23,73.345 C78.609,67.791 66.426,69.557 58.793,77.627 C32.433,105.494 12.472,139.474 1.258,177.222 C-1.891,187.821 2.728,199.194 12.304,204.723 L44.914,223.55 C42.8639988,239.78521 42.8639988,256.21379 44.914,272.449 L12.304,291.276 C2.728,296.804 -1.891,308.178 1.258,318.777 C12.472,356.525 32.433,390.505 58.793,418.372 C66.427,426.442 78.61,428.208 88.23,422.655 L120.792,403.857 C133.816352,413.769303 148.04227,421.994255 163.131,428.336 L163.131,465.95 C163.131,477.08 170.783,486.754 181.615,489.317 C219.26,498.226 258.733,498.227 296.385,489.317 C307.216,486.754 314.869,477.081 314.869,465.95 L314.869,428.336 C329.957453,421.993697 344.183303,413.768785 357.208,403.857 L389.77,422.655 C399.39,428.209 411.573,426.443 419.207,418.372 C445.567,390.505 465.528,356.525 476.742,318.777 C479.891,308.178 475.272,296.805 465.696,291.276 Z M400.217,391.737 L353.908,364.997 C326.92,388.068 317.349,393.873 282.869,406.056 L282.869,459.535 C253.927666,465.505012 224.072334,465.505012 195.131,459.535 L195.131,406.056 C161.51,394.177 151.776,388.661 124.092,364.997 L77.783,391.737 C58.073,369.647 43.094,343.748 33.854,315.779 L80.183,289.039 C73.648,253.622 73.645,242.395 80.183,206.96 L33.854,180.22 C43.094,152.251 58.074,126.351 77.783,104.251 L124.092,131.011 C151.469,107.577 161.155,101.946 195.131,89.942 L195.131,36.464 C224.071314,30.484006 253.928686,30.484006 282.869,36.464 L282.869,89.943 C316.847,101.948 326.534,107.58 353.908,131.012 L400.217,104.252 C419.926,126.351 434.906,152.251 444.146,180.221 L397.817,206.961 C404.353,242.387 404.355,253.605 397.817,289.04 L444.146,315.78 C434.906,343.748 419.927,369.648 400.217,391.737 Z M239,152 C186.065,152 143,195.065 143,248 C143,300.935 186.065,344 239,344 C291.935,344 335,300.935 335,248 C335,195.065 291.935,152 239,152 Z M239,312 C203.71,312 175,283.29 175,248 C175,212.71 203.71,184 239,184 C274.29,184 303,212.71 303,248 C303,283.29 274.29,312 239,312 Z" id="Shape"></path>
            </g>
        </g>
    </g>
</svg>