<?xml version="1.0" encoding="UTF-8"?>
<svg width="560px" height="560px" viewBox="0 0 560 560" version="1.1" xmlns="http://www.w3.org/2000/svg" xmlns:xlink="http://www.w3.org/1999/xlink">
    <!-- Generator: sketchtool 51.2 (57519) - http://www.bohemiancoding.com/sketch -->
    <title>commit</title>
    <desc>Created with sketchtool.</desc>
    <defs></defs>
    <g id="Page-1" stroke="none" stroke-width="1" fill="none" fill-rule="evenodd">
        <g id="uA199-commit" fill="#000000" fill-rule="nonzero">
            <g id="commit" transform="translate(0.000000, 140.000000)">
                <path d="M112,140 C112,149.45 112.7875,158.8125 114.275,168 L10.5,168 C4.725,168 0,163.275 0,157.5 L0,122.5 C0,116.725 4.725,112 10.5,112 L114.275,112 C112.7875,121.1875 112,130.55 112,140 Z M549.5,112 L445.725,112 C447.3,121.1875 448,130.55 448,140 C448,149.45 447.2125,158.8125 445.725,168 L549.5,168 C555.275,168 560,163.275 560,157.5 L560,122.5 C560,116.725 555.275,112 549.5,112 Z M280,42 C253.8375,42 229.25,52.2375 210.7,70.7 C192.15,89.25 182,113.8375 182,140 C182,166.1625 192.15,190.75 210.7,209.3 C229.25,227.7625 253.8375,238 280,238 C306.1625,238 330.75,227.7625 349.3,209.3 C367.85,190.75 378,166.1625 378,140 C378,113.8375 367.85,89.25 349.3,70.7 C330.75,52.2375 306.1625,42 280,42 Z M280,0 C357.35,0 420,62.65 420,140 C420,217.35 357.35,280 280,280 C202.65,280 140,217.35 140,140 C140,62.65 202.65,0 280,0 Z" id="Shape"></path>
            </g>
        </g>
    </g>
</svg>