<?xml version="1.0" encoding="UTF-8"?>
<svg width="560px" height="560px" viewBox="0 0 560 560" version="1.1" xmlns="http://www.w3.org/2000/svg" xmlns:xlink="http://www.w3.org/1999/xlink">
    <!-- Generator: sketchtool 51.2 (57519) - http://www.bohemiancoding.com/sketch -->
    <title>copy</title>
    <desc>Created with sketchtool.</desc>
    <defs></defs>
    <g id="Page-1" stroke="none" stroke-width="1" fill="none" fill-rule="evenodd">
        <g id="uA205-copy" fill="#000000" fill-rule="nonzero">
            <g id="copy" transform="translate(56.000000, 24.000000)">
                <path d="M433.941,65.941 L382.059,14.059 C373.057305,5.05723856 360.848366,6.65676412e-05 348.118,-1.0658141e-14 L176,-1.0658141e-14 C149.49,-1.0658141e-14 128,21.49 128,48 L128,96 L48,96 C21.49,96 0,117.49 0,144 L0,464 C0,490.51 21.49,512 48,512 L272,512 C298.51,512 320,490.51 320,464 L320,416 L400,416 C426.51,416 448,394.51 448,368 L448,99.882 C447.999933,87.151634 442.942761,74.9426949 433.941,65.941 Z M352,32.491 C354.81335,33.1851527 357.383138,34.6358673 359.431,36.686 L411.313,88.569 C413.362928,90.6170179 414.813609,93.186745 415.508,96 L352,96 L352,32.491 Z M288,464 C288,472.822 280.822,480 272,480 L48,480 C39.178,480 32,472.822 32,464 L32,144 C32,135.178 39.178,128 48,128 L128,128 L128,368 C128,394.51 149.49,416 176,416 L288,416 L288,464 Z M416,368 C416,376.822 408.822,384 400,384 L176,384 C167.178,384 160,376.822 160,368 L160,48 C160,39.178 167.178,32 176,32 L320,32 L320,104 C320,117.2 330.8,128 344,128 L416,128 L416,368 Z" id="Shape"></path>
            </g>
        </g>
    </g>
</svg>