<?xml version="1.0" encoding="UTF-8"?>
<svg width="560px" height="560px" viewBox="0 0 560 560" version="1.1" xmlns="http://www.w3.org/2000/svg" xmlns:xlink="http://www.w3.org/1999/xlink">
    <!-- Generator: sketchtool 51.2 (57519) - http://www.bohemiancoding.com/sketch -->
    <title>crown</title>
    <desc>Created with sketchtool.</desc>
    <defs></defs>
    <g id="Page-1" stroke="none" stroke-width="1" fill="none" fill-rule="evenodd">
        <g id="uA208-crown" fill="#000000" fill-rule="nonzero">
            <g id="crown" transform="translate(0.000000, 70.000000)">
                <path d="M469,392 L91,392 C87.15,392 84,395.15 84,399 L84,413 C84,416.85 87.15,420 91,420 L469,420 C472.85,420 476,416.85 476,413 L476,399 C476,395.15 472.85,392 469,392 Z M511,112 C483.9625,112 462,133.9625 462,161 C462,167.65 463.3125,173.95 465.7625,179.725 L416.5,209.3 C411.95,212.0125 407.05,213.325 402.15,213.325 C392.4375,213.325 382.9875,208.25 377.825,199.2375 L312.725,85.3125 C322.6125,76.3 329,63.4375 329,49 C329,21.9625 307.0375,0 280,0 C252.9625,0 231,21.9625 231,49 C231,63.4375 237.3875,76.3 247.275,85.225 L182.175,199.15 C177.0125,208.25 167.5625,213.2375 157.85,213.2375 C152.95,213.2375 147.9625,211.925 143.5,209.2125 L94.2375,179.6375 C96.6,173.8625 98,167.5625 98,160.9125 C98,133.875 76.0375,111.9125 49,111.9125 C21.9625,111.9125 0,133.9625 0,161 C0,188.0375 21.9625,210 49,210 C50.75,210 52.4125,209.65 54.075,209.475 L112,364 L448,364 L505.925,209.475 C507.5875,209.65 509.25,210 511,210 C538.0375,210 560,188.0375 560,161 C560,133.9625 538.0375,112 511,112 Z M280,28 C291.55,28 301,37.45 301,49 C301,60.55 291.55,70 280,70 C268.45,70 259,60.55 259,49 C259,37.45 268.45,28 280,28 Z M49,182 C37.45,182 28,172.55 28,161 C28,149.45 37.45,140 49,140 C60.55,140 70,149.45 70,161 C70,172.55 60.55,182 49,182 Z M428.575,336 L131.425,336 L82.425,205.275 L129.15,233.275 C137.9,238.525 147.7875,241.2375 157.9375,241.2375 C177.975,241.2375 196.6125,230.3875 206.5875,212.975 L272.7375,97.2125 C275.1875,97.5625 277.55,97.9125 280.0875,97.9125 C282.625,97.9125 284.9875,97.5625 287.4375,97.2125 L353.5,213.0625 C363.475,230.475 382.1125,241.2375 402.15,241.2375 C412.3,241.2375 422.1875,238.4375 430.9375,233.275 L477.6625,205.275 L428.575,336 Z M511,182 C499.45,182 490,172.55 490,161 C490,149.45 499.45,140 511,140 C522.55,140 532,149.45 532,161 C532,172.55 522.55,182 511,182 Z" id="Shape"></path>
            </g>
        </g>
    </g>
</svg>