<?xml version="1.0" encoding="UTF-8"?>
<svg width="560px" height="560px" viewBox="0 0 560 560" version="1.1" xmlns="http://www.w3.org/2000/svg" xmlns:xlink="http://www.w3.org/1999/xlink">
    <!-- Generator: sketchtool 51.2 (57519) - http://www.bohemiancoding.com/sketch -->
    <title>desktop</title>
    <desc>Created with sketchtool.</desc>
    <defs></defs>
    <g id="Page-1" stroke="none" stroke-width="1" fill="none" fill-rule="evenodd">
        <g id="uA209-desktop" fill="#000000" fill-rule="nonzero">
            <g id="desktop" transform="translate(0.000000, 31.000000)">
                <path d="M513.333333,0 L46.6666667,0 C20.9027778,0 0,20.9027778 0,46.6666667 L0,326.666667 C0,352.430556 20.9027778,373.333333 46.6666667,373.333333 L233.333333,373.333333 L210,466.666667 L140,466.666667 C131.444444,466.666667 124.444444,473.666667 124.444444,482.222222 C124.444444,490.777778 131.444444,497.777778 140,497.777778 L420,497.777778 C428.555556,497.777778 435.555556,490.777778 435.555556,482.222222 C435.555556,473.666667 428.555556,466.666667 420,466.666667 L350,466.666667 L326.666667,373.333333 L513.333333,373.333333 C539.097222,373.333333 560,352.430556 560,326.666667 L560,46.6666667 C560,20.9027778 539.097222,0 513.333333,0 Z M242.083333,466.666667 L257.638889,404.444444 L302.361111,404.444444 L317.916667,466.666667 L242.083333,466.666667 Z M528.888889,326.666667 C528.888889,335.222222 521.888889,342.222222 513.333333,342.222222 L46.6666667,342.222222 C38.1111111,342.222222 31.1111111,335.222222 31.1111111,326.666667 L31.1111111,280 L528.888889,280 L528.888889,326.666667 Z M528.888889,248.888889 L31.1111111,248.888889 L31.1111111,46.6666667 C31.1111111,38.1111111 38.1111111,31.1111111 46.6666667,31.1111111 L513.333333,31.1111111 C521.888889,31.1111111 528.888889,38.1111111 528.888889,46.6666667 L528.888889,248.888889 Z" id="Shape"></path>
            </g>
        </g>
    </g>
</svg>