<?xml version="1.0" encoding="UTF-8"?>
<svg width="560px" height="560px" viewBox="0 0 560 560" version="1.1" xmlns="http://www.w3.org/2000/svg" xmlns:xlink="http://www.w3.org/1999/xlink">
    <!-- Generator: sketchtool 51.2 (57519) - http://www.bohemiancoding.com/sketch -->
    <title>dixa</title>
    <desc>Created with sketchtool.</desc>
    <defs>
        <path d="M313.230783,268.84689 L261.297236,298.805651 C256.760273,301.414871 250.97304,299.864465 248.349368,295.345599 L188.308012,191.487299 C185.693811,186.958979 187.247177,181.173317 191.78414,178.564097 L243.802933,148.690419 C277.05821,129.499417 319.482131,140.843851 338.709762,174.026323 C345.055828,184.898073 347.992067,196.904266 347.992067,208.626849 C347.992067,232.639236 335.584088,255.989864 313.230783,268.84689 Z M459.095571,104.636197 C401.507395,5.08878255 274.017782,-28.9445216 174.280365,28.5339477 L10.0782903,123.070904 C1.01383565,128.289344 -2.10236663,139.860667 3.13550529,148.8984 L145.457862,394.893014 C148.498291,400.149268 150.099015,406.105097 150.099015,412.155462 L150.099015,514.529531 C150.099015,518.339371 154.219221,520.712248 157.524858,518.802602 L202.221997,492.994013 L232.825187,475.410139 L382.753351,389.003361 C449.623831,350.432283 487.046674,280.465482 487.046674,208.532312 C487.046674,173.17549 478.03905,137.440521 459.095571,104.636197 Z" id="path-1"></path>
    </defs>
    <g id="Page-1" stroke="none" stroke-width="1" fill="none" fill-rule="evenodd">
        <g id="uA309-dixa">
            <g id="dixa" transform="translate(36.000000, 20.000000)">
                <mask id="mask-2" fill="white">
                    <use xlink:href="#path-1"></use>
                </mask>
                <use id="Mask" fill="#000000" xlink:href="#path-1"></use>
            </g>
        </g>
    </g>
</svg>