<?xml version="1.0" encoding="UTF-8"?>
<svg width="560px" height="560px" viewBox="0 0 560 560" version="1.1" xmlns="http://www.w3.org/2000/svg" xmlns:xlink="http://www.w3.org/1999/xlink">
    <!-- Generator: sketchtool 51.2 (57519) - http://www.bohemiancoding.com/sketch -->
    <title>dots</title>
    <desc>Created with sketchtool.</desc>
    <defs></defs>
    <g id="Page-1" stroke="none" stroke-width="1" fill="none" fill-rule="evenodd">
        <g id="uA012-dots" fill="#000000" fill-rule="nonzero">
            <g id="dots" transform="translate(128.000000, 248.000000)">
                <path d="M184,32 C184,49.7 169.7,64 152,64 C134.3,64 120,49.7 120,32 C120,14.3 134.3,0 152,0 C169.7,0 184,14.3 184,32 Z M272,0 C254.3,0 240,14.3 240,32 C240,49.7 254.3,64 272,64 C289.7,64 304,49.7 304,32 C304,14.3 289.7,0 272,0 Z M32,0 C14.3,0 0,14.3 0,32 C0,49.7 14.3,64 32,64 C49.7,64 64,49.7 64,32 C64,14.3 49.7,0 32,0 Z" id="Shape"></path>
            </g>
        </g>
    </g>
</svg>