<?xml version="1.0" encoding="UTF-8"?>
<svg width="560px" height="560px" viewBox="0 0 560 560" version="1.1" xmlns="http://www.w3.org/2000/svg" xmlns:xlink="http://www.w3.org/1999/xlink">
    <!-- Generator: sketchtool 51.2 (57519) - http://www.bohemiancoding.com/sketch -->
    <title>edge</title>
    <desc>Created with sketchtool.</desc>
    <defs></defs>
    <g id="Page-1" stroke="none" stroke-width="1" fill="none" fill-rule="evenodd">
        <g id="uA342-edge" fill="#000000" fill-rule="nonzero">
            <g id="edge" transform="translate(49.000000, 32.000000)">
                <path d="M0.714,220.163 C0.825,220.001 0.944,219.84 1.056,219.678 C1.035,219.84 1.011,220.001 0.991,220.163 L0.714,220.163 Z M461.286,235.671 C461.286,191.639 453.532,151.206 432.485,113.266 C391.498,39.879 318.912,0.001 233.893,0.001 C93.962,-0.276 15.617,105.214 1.056,219.679 C43.485,158.367 118.129,98.303 221.431,94.713 C221.431,94.713 331.097,94.713 320.85,199.67 L144.997,199.67 C151.366,162.284 163.551,140.684 179.336,120.744 C104.288,155.637 57.486,216.84 58.594,309.059 C59.424,380.507 108.718,453.895 179.337,481.035 C262.694,512.882 372.113,488.235 419.469,459.711 L419.469,355.307 C338.605,411.801 148.598,416.232 147.214,287.735 L461.287,287.735 L461.287,235.671 L461.286,235.671 Z" id="Shape"></path>
            </g>
        </g>
    </g>
</svg>