<?xml version="1.0" encoding="UTF-8"?>
<svg width="560px" height="560px" viewBox="0 0 560 560" version="1.1" xmlns="http://www.w3.org/2000/svg" xmlns:xlink="http://www.w3.org/1999/xlink">
    <!-- Generator: sketchtool 51.2 (57519) - http://www.bohemiancoding.com/sketch -->
    <title>exchange</title>
    <desc>Created with sketchtool.</desc>
    <defs></defs>
    <g id="Page-1" stroke="none" stroke-width="1" fill="none" fill-rule="evenodd">
        <g id="uA070-exchange" fill="#000000" fill-rule="nonzero">
            <g id="exchange" transform="translate(24.000000, 96.000000)">
                <path d="M508.485,112.485 L416,204.485 C411.313,209.171 403.716,209.171 399.03,204.485 L391.959,197.415 C387.272,192.729 387.272,185.131 391.959,180.444 L452.893,120 L12,120 C5.373,120 0,114.627 0,108 L0,100 C0,93.373 5.373,88 12,88 L452.905,88 L391.959,27.556 C387.272,22.87 387.272,15.272 391.959,10.585 L399.029,3.515 C403.716,-1.171 411.313,-1.171 416,3.515 L508.485,95.515 C513.172,100.201 513.171,107.799 508.485,112.485 Z M3.515,272.485 L96,364.485 C100.687,369.171 108.284,369.171 112.971,364.485 L120.041,357.415 C124.728,352.729 124.728,345.131 120.041,340.444 L59.095,280 L500,280 C506.627,280 512,274.627 512,268 L512,260 C512,253.373 506.627,248 500,248 L59.107,248 L120.041,187.556 C124.728,182.87 124.728,175.272 120.041,170.585 L112.97,163.515 C108.284,158.829 100.686,158.828 96,163.515 L3.515,255.515 C-1.171,260.201 -1.172,267.799 3.515,272.485 Z" id="Shape"></path>
            </g>
        </g>
    </g>
</svg>