<?xml version="1.0" encoding="UTF-8"?>
<svg width="560px" height="560px" viewBox="0 0 560 560" version="1.1" xmlns="http://www.w3.org/2000/svg" xmlns:xlink="http://www.w3.org/1999/xlink">
    <!-- Generator: sketchtool 51.2 (57519) - http://www.bohemiancoding.com/sketch -->
    <title>expand-arrows</title>
    <desc>Created with sketchtool.</desc>
    <defs></defs>
    <g id="Page-1" stroke="none" stroke-width="1" fill="none" fill-rule="evenodd">
        <g id="uA037-expand-arrows" fill="#000000" fill-rule="nonzero">
            <g id="expand-arrows" transform="translate(56.000000, 56.000000)">
                <path d="M447.7,332 L448,436 C448,442.6 442.6,448 436,448 L332,447.7 C325.4,447.7 320,442.3 320,435.7 L320,425.7 C320,419.1 325.4,413.7 332,413.7 L390,414 L390.7,413.3 L224,246.6 L57.3,413.3 L58,414 L116,413.7 C122.6,413.7 128,419.1 128,425.7 L128,435.7 C128,442.3 122.6,447.7 116,447.7 L12,448 C5.4,448 0,442.6 0,436 L0.3,332 C0.3,325.4 5.7,320 12.3,320 L22.3,320 C28.9,320 34.3,325.4 34.3,332 L34,390 L34.7,390.7 L201.4,224 L34.7,57.3 L34,58 L34.3,116 C34.3,122.6 28.9,128 22.3,128 L12.3,128 C5.7,128 0.3,122.6 0.3,116 L0,12 C0,5.4 5.4,0 12,0 L116,0.3 C122.6,0.3 128,5.7 128,12.3 L128,22.3 C128,28.9 122.6,34.3 116,34.3 L58,34 L57.3,34.7 L224,201.4 L390.7,34.7 L390,34 L332,34.3 C325.4,34.3 320,28.9 320,22.3 L320,12.3 C320,5.7 325.4,0.3 332,0.3 L436,-3.55271368e-15 C442.6,-3.55271368e-15 448,5.4 448,12 L447.7,116 C447.7,122.6 442.3,128 435.7,128 L425.7,128 C419.1,128 413.7,122.6 413.7,116 L414,58 L413.3,57.3 L246.6,224 L413.3,390.7 L414,390 L413.7,332 C413.7,325.4 419.1,320 425.7,320 L435.7,320 C442.3,320 447.7,325.4 447.7,332 Z" id="Shape"></path>
            </g>
        </g>
    </g>
</svg>