<?xml version="1.0" encoding="UTF-8"?>
<svg width="560px" height="560px" viewBox="0 0 560 560" version="1.1" xmlns="http://www.w3.org/2000/svg" xmlns:xlink="http://www.w3.org/1999/xlink">
    <!-- Generator: sketchtool 51.2 (57519) - http://www.bohemiancoding.com/sketch -->
    <title>eye</title>
    <desc>Created with sketchtool.</desc>
    <defs></defs>
    <g id="Page-1" stroke="none" stroke-width="1" fill="none" fill-rule="evenodd">
        <g id="uA214-eye" fill="#000000" fill-rule="nonzero">
            <g id="eye" transform="translate(0.000000, 101.000000)">
                <path d="M553.538611,155.196806 C498.719861,62.1716667 396.48,0 280,0 C163.469444,0 61.2538889,62.2163889 6.46138889,155.195833 C-2.15440973,169.815955 -2.15440973,187.960851 6.46138889,202.580972 C61.2811111,295.607083 163.52,357.777778 280,357.777778 C396.530556,357.777778 498.746111,295.561389 553.538611,202.580972 C562.153403,187.960925 562.153403,169.816853 553.538611,155.196806 Z M404.444444,151.666667 C404.444444,218.247361 348.728333,272.222222 280,272.222222 C211.271667,272.222222 155.555556,218.247361 155.555556,151.666667 C155.555556,85.0859722 211.271667,31.1111111 280,31.1111111 C348.728333,31.1111111 404.444444,85.0859722 404.444444,151.666667 Z M526.734444,186.78625 C476.230417,272.491528 382.924306,326.666667 280,326.666667 C176.661528,326.666667 83.5518056,272.120139 33.2655556,186.787222 C30.3946871,181.913326 30.3946871,175.865424 33.2655556,170.991528 C61.53,123.028889 104.569306,83.0686111 157.379444,58.3236111 C136.932639,83.7968056 124.444444,116.246667 124.444444,151.666667 C124.444444,235.100833 193.687083,303.333333 280,303.333333 C366.304167,303.333333 435.555556,235.104722 435.555556,151.666667 C435.555556,116.267083 423.079028,83.8113889 402.621528,58.3236111 C454.888194,82.8129167 498.165694,122.510694 526.735417,170.991528 C529.605603,175.865356 529.605231,181.912775 526.734444,186.78625 Z M217.777778,147.777778 C217.777778,137.183472 220.429028,127.209444 225.098611,118.477917 L225.098611,118.497361 C225.098611,132.647083 236.569861,144.118333 250.719583,144.118333 C264.869306,144.118333 276.340556,132.647083 276.340556,118.497361 C276.340556,104.347639 264.869306,92.8763889 250.719583,92.8763889 L250.700139,92.8763889 C259.431667,88.2068056 269.405694,85.5555556 280,85.5555556 C314.364167,85.5555556 342.222222,113.413611 342.222222,147.777778 C342.222222,182.141944 314.364167,210 280,210 C245.635833,210 217.777778,182.141944 217.777778,147.777778 Z" id="Shape"></path>
            </g>
        </g>
    </g>
</svg>