<?xml version="1.0" encoding="UTF-8"?>
<svg width="560px" height="560px" viewBox="0 0 560 560" version="1.1" xmlns="http://www.w3.org/2000/svg" xmlns:xlink="http://www.w3.org/1999/xlink">
    <!-- Generator: sketchtool 51.2 (57519) - http://www.bohemiancoding.com/sketch -->
    <title>facebook</title>
    <desc>Created with sketchtool.</desc>
    <defs></defs>
    <g id="Page-1" stroke="none" stroke-width="1" fill="none" fill-rule="evenodd">
        <g id="uA314-facebook" fill="#000000" fill-rule="nonzero">
            <g id="facebook" transform="translate(56.000000, 56.000000)">
                <path d="M448,48 L448,400 C448,426.5 426.5,448 400,448 L314.7,448 L314.7,270.8 L375.3,270.8 L384,203.2 L314.7,203.2 L314.7,160 C314.7,140.4 320.1,127.1 348.2,127.1 L384,127.1 L384,66.7 C377.8,65.9 356.6,64 331.8,64 C280.2,64 244.8,95.5 244.8,153.4 L244.8,203.3 L184,203.3 L184,270.9 L244.9,270.9 L244.9,448 L48,448 C21.5,448 0,426.5 0,400 L0,48 C0,21.5 21.5,0 48,0 L400,0 C426.5,0 448,21.5 448,48 Z" id="Shape"></path>
            </g>
        </g>
    </g>
</svg>