<?xml version="1.0" encoding="UTF-8"?>
<svg width="560px" height="560px" viewBox="0 0 560 560" version="1.1" xmlns="http://www.w3.org/2000/svg" xmlns:xlink="http://www.w3.org/1999/xlink">
    <!-- Generator: sketchtool 51.2 (57519) - http://www.bohemiancoding.com/sketch -->
    <title>flow</title>
    <desc>Created with sketchtool.</desc>
    <defs></defs>
    <g id="Page-1" stroke="none" stroke-width="1" fill="none" fill-rule="evenodd">
        <g id="uA251-flow" fill="#000000" fill-rule="nonzero">
            <g id="flow" transform="translate(0.000000, 56.000000)">
                <path d="M518,0 L434,0 C410.80375,0 392,18.80375 392,42 L392,70 L168,70 L168,42 C168,18.80375 149.19625,0 126,0 L42,0 C18.80375,0 0,18.80375 0,42 L0,126 C0,149.19625 18.80375,168 42,168 L125.0025,168 L202.6675,299.43375 C198.49375,305.96125 195.99125,313.67 195.99125,322 L195.99125,406 C195.99125,429.19625 214.795,448 237.99125,448 L321.99125,448 C345.1875,448 363.99125,429.19625 363.99125,406 L363.99125,322 C363.99125,298.80375 345.1875,280 321.99125,280 L237.99125,280 C233.44125,280 229.145,280.91 225.04125,282.24875 L152.04,158.71625 C161.7,151.01625 168,139.3 168,126 L168,98 L392,98 L392,126 C392,149.19625 410.80375,168 434,168 L518,168 C541.19625,168 560,149.19625 560,126 L560,42 C560,18.80375 541.19625,0 518,0 Z M28,126 L28,42 C28,34.2825 34.2825,28 42,28 L126,28 C133.7175,28 140,34.2825 140,42 L140,126 C140,133.7175 133.7175,140 126,140 L42,140 C34.2825,140 28,133.7175 28,126 Z M322,308 C329.7175,308 336,314.2825 336,322 L336,406 C336,413.7175 329.7175,420 322,420 L238,420 C230.2825,420 224,413.7175 224,406 L224,322 C224,314.2825 230.2825,308 238,308 L322,308 Z M532,126 C532,133.7175 525.7175,140 518,140 L434,140 C426.2825,140 420,133.7175 420,126 L420,42 C420,34.2825 426.2825,28 434,28 L518,28 C525.7175,28 532,34.2825 532,42 L532,126 Z" id="Shape"></path>
            </g>
        </g>
    </g>
</svg>