<?xml version="1.0" encoding="UTF-8"?>
<svg width="560px" height="560px" viewBox="0 0 560 560" version="1.1" xmlns="http://www.w3.org/2000/svg" xmlns:xlink="http://www.w3.org/1999/xlink">
    <!-- Generator: sketchtool 51.2 (57519) - http://www.bohemiancoding.com/sketch -->
    <title>forward</title>
    <desc>Created with sketchtool.</desc>
    <defs></defs>
    <g id="Page-1" stroke="none" stroke-width="1" fill="none" fill-rule="evenodd">
        <g id="uA373-forward" fill="#000000" fill-rule="nonzero">
            <g id="forward" transform="translate(91.000000, 57.000000)">
                <path d="M231.5355,442.5845 L238.6065,435.5145 C243.2925,430.8285 243.2925,423.2305 238.6065,418.5435 L60.1125,240.0495 C216.617775,240.0495 300.493684,240.0495 311.740226,240.0495 C328.610039,240.0495 343.449226,254.131025 343.449226,272.843575 C343.449226,274.679284 345.78897,277.843575 348.283464,277.843575 C354.141651,277.843575 362.168313,277.843575 372.36345,277.843575 C376.04032,277.843575 378.026244,275.843575 378.026244,272.843575 C378.026244,241.838953 354.913321,206.0495 311.279057,206.0495 C282.189547,206.0495 198.467362,206.0495 60.1125,206.0495 L238.6065,27.5555 C243.2925,22.8695 243.2925,15.2715 238.6065,10.5845 L231.5355,3.5145 C226.8495,-1.1715 219.2515,-1.1715 214.5655,3.5145 L3.5145,214.5645 C-1.1715,219.2505 -1.1715,226.8485 3.5145,231.5355 L214.5655,442.5855 C219.2515,447.2715 226.8495,447.2715 231.5355,442.5845 Z" id="Shape"></path>
            </g>
        </g>
    </g>
</svg>