<?xml version="1.0" encoding="UTF-8"?>
<svg width="560px" height="560px" viewBox="0 0 560 560" version="1.1" xmlns="http://www.w3.org/2000/svg" xmlns:xlink="http://www.w3.org/1999/xlink">
    <!-- Generator: sketchtool 51.2 (57519) - http://www.bohemiancoding.com/sketch -->
    <title>globe</title>
    <desc>Created with sketchtool.</desc>
    <defs></defs>
    <g id="Page-1" stroke="none" stroke-width="1" fill="none" fill-rule="evenodd">
        <g id="uA218-globe" fill="#000000" fill-rule="nonzero">
            <g id="globe" transform="translate(32.000000, 32.000000)">
                <path d="M248,0 C111,0 0,111 0,248 C0,385 111,496 248,496 C385,496 496,385 496,248 C496,111 385,0 248,0 Z M441.2,152 L358.7,152 C349.7,107.6 334.6,69.8 315.5,42.9 C370.5,61.1 415.7,100.8 441.2,152 Z M336,248 C336,270.9 334.4,292.2 331.7,312 L164.3,312 C161.6,292.2 160,270.9 160,248 C160,225.1 161.6,203.8 164.3,184 L331.7,184 C334.4,203.8 336,225.1 336,248 Z M248,32 C274.9,32 309.4,76.1 326.1,152 L169.9,152 C186.6,76.1 221.1,32 248,32 Z M180.5,42.9 C161.5,69.7 146.3,107.5 137.3,152 L54.8,152 C80.3,100.8 125.5,61.1 180.5,42.9 Z M32,248 C32,225.7 35.4,204.2 41.7,184 L132.2,184 C129.6,204.5 128,225.8 128,248 C128,270.2 129.5,291.5 132.2,312 L41.7,312 C35.4,291.8 32,270.3 32,248 Z M54.8,344 L137.3,344 C146.3,388.4 161.4,426.2 180.5,453.1 C125.5,434.9 80.3,395.2 54.8,344 Z M248,464 C221.1,464 186.6,419.9 169.9,344 L326.1,344 C309.4,419.9 274.9,464 248,464 Z M315.5,453.1 C334.5,426.3 349.7,388.5 358.7,344 L441.2,344 C415.7,395.2 370.5,434.9 315.5,453.1 Z M363.8,312 C366.4,291.5 368,270.2 368,248 C368,225.8 366.5,204.5 363.8,184 L454.3,184 C460.6,204.2 464,225.7 464,248 C464,270.3 460.6,291.8 454.3,312 L363.8,312 Z" id="Shape"></path>
            </g>
        </g>
    </g>
</svg>