<?xml version="1.0" encoding="UTF-8"?>
<svg width="560px" height="560px" viewBox="0 0 560 560" version="1.1" xmlns="http://www.w3.org/2000/svg" xmlns:xlink="http://www.w3.org/1999/xlink">
    <!-- Generator: sketchtool 51.2 (57519) - http://www.bohemiancoding.com/sketch -->
    <title>google-analytics</title>
    <desc>Created with sketchtool.</desc>
    <defs></defs>
    <g id="Page-1" stroke="none" stroke-width="1" fill="none" fill-rule="evenodd">
        <g id="uA331-google-analytics" fill="#000000">
            <path d="M234.268088,353.328505 C242.629408,345.671903 253.769113,341 266,341 C270.678175,341 275.196713,341.683488 279.461202,342.956053 L369.390503,204.477073 C362.890956,196.415073 359,186.161927 359,175 C359,149.042617 380.042617,128 406,128 C431.957383,128 453,149.042617 453,175 C453,179.337635 452.412397,183.538029 451.312449,187.525922 L503.328323,221.305426 C477.198618,122.686579 387.337739,50 280.5,50 C153.198365,50 50,153.198365 50,280.5 C50,305.017697 53.8279319,328.641333 60.9187461,350.805858 L82.8398964,329.636849 C80.3691939,323.922815 79,317.621304 79,311 C79,285.042617 100.042617,264 126,264 C151.957383,264 173,285.042617 173,311 C173,314.171906 172.685791,317.270425 172.086801,320.266129 L234.268089,353.328507 L234.268088,353.328505 Z M219.421706,381.676787 C219.143599,383.744924 219,385.855692 219,388 C219,413.957383 240.042617,435 266,435 C291.957383,435 313,413.957383 313,388 C313,378.415441 310.131055,369.50096 305.20508,362.068471 L396.756686,221.091357 C399.745306,221.687384 402.836145,222 406,222 C415.946554,222 425.171459,218.910251 432.767287,213.638179 L510.42337,264.068628 C510.805635,269.496045 511,274.975325 511,280.5 C511,407.801635 407.801635,511 280.5,511 C189.931164,511 111.56249,458.764901 73.8768608,382.777587 L104.770798,352.943658 C111.14749,356.177529 118.360914,358 126,358 C137.138696,358 147.37239,354.125224 155.426707,347.650045 L219.421706,381.676787 L219.421706,381.676787 Z" id="google-analytics"></path>
        </g>
    </g>
</svg>