<?xml version="1.0" encoding="UTF-8"?>
<svg width="560px" height="560px" viewBox="0 0 560 560" version="1.1" xmlns="http://www.w3.org/2000/svg" xmlns:xlink="http://www.w3.org/1999/xlink">
    <!-- Generator: sketchtool 51.2 (57519) - http://www.bohemiancoding.com/sketch -->
    <title>grin-wink</title>
    <desc>Created with sketchtool.</desc>
    <defs></defs>
    <g id="Page-1" stroke="none" stroke-width="1" fill="none" fill-rule="evenodd">
        <g id="uA222-grin-wink" fill="#000000" fill-rule="nonzero">
            <g id="grin-wink" transform="translate(32.000000, 32.000000)">
                <path d="M248,0 C111,0 0,111 0,248 C0,385 111,496 248,496 C385,496 496,385 496,248 C496,111 385,0 248,0 Z M400.7,400.7 C380.9,420.5 357.7,436.1 332,447 C305.4,458.3 277.1,464 247.9,464 C218.7,464 190.4,458.3 163.8,447 C138.1,436.1 115,420.5 95.1,400.7 C75.2,380.9 59.7,357.7 48.8,332 C37.5,305.4 31.8,277.1 31.8,247.9 C31.8,218.7 37.5,190.4 48.8,163.8 C59.7,138.1 75.3,115 95.1,95.1 C114.9,75.2 138.1,59.7 163.8,48.8 C190.4,37.5 218.7,31.8 247.9,31.8 C277.1,31.8 305.4,37.5 332,48.8 C357.7,59.7 380.8,75.3 400.7,95.1 C420.6,114.9 436.1,138.1 447,163.8 C458.3,190.4 464,218.7 464,247.9 C464,277.1 458.3,305.4 447,332 C436.2,357.8 420.6,380.9 400.7,400.7 Z M168,232 C185.7,232 200,217.7 200,200 C200,182.3 185.7,168 168,168 C150.3,168 136,182.3 136,200 C136,217.7 150.3,232 168,232 Z M288,225 L297.5,216.5 C312.3,203.3 343.7,203.3 358.5,216.5 L368,225 C376.5,232.4 389.6,225.3 387.8,214.2 C383.8,189 353.6,172.1 327.9,172.1 C302.2,172.1 272,189 268,214.2 C266.4,225.3 279.6,232.4 288,225 Z M376.1,312 C374.5,312 372.8,312.3 371.2,312.8 C340.9,322.5 296,328 248,328 C200,328 155.1,322.5 124.9,312.8 C123.2,312.3 121.6,312 120,312 C110.6,312 102.6,320.6 104.3,330.7 C113.5,385.7 187.5,424 248.1,424 C308.7,424 382.6,385.7 391.9,330.7 C393.5,320.5 385.5,312 376.1,312 Z M322.6,370.6 C300.4,384 272.5,392 248,392 C223.5,392 195.6,384 173.4,370.6 C164,364.9 156.1,358.5 149.9,351.8 C178.5,357.1 212.6,360 247.9,360 C283.3,360 317.3,357.1 345.9,351.8 C339.9,358.5 332,364.9 322.6,370.6 Z" id="Shape"></path>
            </g>
        </g>
    </g>
</svg>