<?xml version="1.0" encoding="UTF-8"?>
<svg width="560px" height="560px" viewBox="0 0 560 560" version="1.1" xmlns="http://www.w3.org/2000/svg" xmlns:xlink="http://www.w3.org/1999/xlink">
    <!-- Generator: sketchtool 51.2 (57519) - http://www.bohemiancoding.com/sketch -->
    <title>grin-beam</title>
    <desc>Created with sketchtool.</desc>
    <defs></defs>
    <g id="Page-1" stroke="none" stroke-width="1" fill="none" fill-rule="evenodd">
        <g id="uA219-grin-beam" fill="#000000" fill-rule="nonzero">
            <g id="grin-beam" transform="translate(32.000000, 32.000000)">
                <path d="M117.7,239.7 C121.1,240.8 125.1,239.2 127,236 L136.5,219 C144.2,205.3 155.7,197.4 168,197.4 C180.3,197.4 191.8,205.3 199.5,219 L209,236 C211.1,239.7 215.2,240.7 218.3,239.7 C221.9,238.6 224.3,235.2 224,231.4 C220.7,189.3 191.8,160 168,160 C144.2,160 115.3,189.3 112,231.4 C111.7,235.1 114.1,238.6 117.7,239.7 Z M277.7,239.7 C281.1,240.8 285.1,239.2 287,236 L296.5,219 C304.2,205.3 315.7,197.4 328,197.4 C340.3,197.4 351.8,205.3 359.5,219 L369,236 C371.1,239.7 375.2,240.7 378.3,239.7 C381.9,238.6 384.3,235.2 384,231.4 C380.7,189.3 351.8,160 328,160 C304.2,160 275.3,189.3 272,231.4 C271.7,235.1 274.1,238.6 277.7,239.7 Z M371.1,312.8 C340.9,322.5 296,328 248,328 C200,328 155.1,322.5 124.9,312.8 C119.6,311.1 113.8,312.3 109.6,315.9 C105.4,319.6 103.4,325.1 104.3,330.7 C113.5,385.7 187.5,424 248.1,424 C308.7,424 382.6,385.7 391.9,330.7 C392.8,325.2 390.8,319.6 386.6,315.9 C382.3,312.2 376.4,311 371.1,312.8 Z M248,392 C213,392 171,375.7 149.5,351.7 C207,362.5 289.1,362.5 346.6,351.7 C325,375.7 283,392 248,392 Z M248,0 C111,0 0,111 0,248 C0,385 111,496 248,496 C385,496 496,385 496,248 C496,111 385,0 248,0 Z M248,464 C128.9,464 32,367.1 32,248 C32,128.9 128.9,32 248,32 C367.1,32 464,128.9 464,248 C464,367.1 367.1,464 248,464 Z" id="Shape"></path>
            </g>
        </g>
    </g>
</svg>