<?xml version="1.0" encoding="UTF-8"?>
<svg width="560px" height="560px" viewBox="0 0 560 560" version="1.1" xmlns="http://www.w3.org/2000/svg" xmlns:xlink="http://www.w3.org/1999/xlink">
    <!-- Generator: sketchtool 51.2 (57519) - http://www.bohemiancoding.com/sketch -->
    <title>grin-hearts</title>
    <desc>Created with sketchtool.</desc>
    <defs></defs>
    <g id="Page-1" stroke="none" stroke-width="1" fill="none" fill-rule="evenodd">
        <g id="uA221-grin-hearts" fill="#000000" fill-rule="nonzero">
            <g id="grin-hearts" transform="translate(32.000000, 32.000000)">
                <path d="M248,0 C111,0 0,111 0,248 C0,385 111,496 248,496 C385,496 496,385 496,248 C496,111 385,0 248,0 Z M248,464 C128.9,464 32,367.1 32,248 C32,128.9 128.9,32 248,32 C367.1,32 464,128.9 464,248 C464,367.1 367.1,464 248,464 Z M371.1,312.8 C340.9,322.5 296,328 248,328 C200,328 155.1,322.5 124.9,312.8 C113.3,309.1 102.3,319.1 104.2,330.7 C113.4,385.7 187.4,424 248,424 C308.6,424 382.5,385.7 391.8,330.7 C393.7,319.1 382.8,309.1 371.1,312.8 Z M248,392 C213,392 171,375.7 149.5,351.7 C207,362.5 289.1,362.5 346.6,351.7 C325,375.7 283,392 248,392 Z M186.2,263.2 C200.5,266.9 213.4,257.7 216.7,245.6 L237.2,171.7 C241.3,157 238.9,141.3 230.7,128.5 C222.5,115.7 209.1,107 193.9,104.6 C168.7,100.5 144.5,115.3 134.6,138.6 C109.4,135.6 84.4,149.6 75.5,172.9 C70,187.3 70.8,203.2 77.8,216.7 C84.7,230.2 97.2,240.1 112,243.9 L186.2,263.2 Z M105.5,184.4 C110.7,170.6 125.9,168.9 134,171 L156.8,176.9 L163,154.2 C166.3,142.3 177.7,134.5 188.9,136.2 C202,138.3 209.8,150.8 206.4,163.2 L187.7,230.5 L120.1,213 C108,209.9 100.7,197.1 105.5,184.4 Z M420.4,173 C411.5,149.7 386.3,135.7 361.4,138.7 C351.5,115.4 326.7,100.5 302.1,104.7 C286.9,107.1 273.5,115.8 265.3,128.6 C257.1,141.4 254.7,157.1 258.8,171.8 L279.2,245.6 C282.6,257.9 295.7,266.9 309.7,263.2 L383.9,244 C398.653599,240.217972 411.094174,230.323714 418.1,216.8 C425,203.3 425.9,187.3 420.4,173 Z M375.9,213 L308.2,230.5 L289.5,163.2 C286.1,150.9 293.9,138.3 307,136.2 C320.7,134 330.4,145.2 332.8,154.1 L339,176.8 L362,171 C374,167.9 386.5,173.8 390.5,184.4 C395.3,197.1 388,209.9 375.9,213 Z" id="Shape"></path>
            </g>
        </g>
    </g>
</svg>