<?xml version="1.0" encoding="UTF-8"?>
<svg width="560px" height="560px" viewBox="0 0 560 560" version="1.1" xmlns="http://www.w3.org/2000/svg" xmlns:xlink="http://www.w3.org/1999/xlink">
    <!-- Generator: sketchtool 51.2 (57519) - http://www.bohemiancoding.com/sketch -->
    <title>headset</title>
    <desc>Created with sketchtool.</desc>
    <defs></defs>
    <g id="Page-1" stroke="none" stroke-width="1" fill="none" fill-rule="evenodd">
        <g id="uA106-headset" fill="#000000" fill-rule="nonzero">
            <g id="headset" transform="translate(24.000000, 24.000000)">
                <path d="M192,224 C192,206.33 177.67,192 160,192 L128,192 C92.65,192 64,220.65 64,256 L64,319.64 C64,354.99 92.65,383.64 128,383.64 L160,383.64 C177.67,383.64 192,369.31 192,351.64 L192,224 Z M160,351.64 L128,351.64 C110.36,351.64 96,337.28 96,319.64 L96,256 C96,238.36 110.36,224 128,224 L160,224 L160,351.64 Z M384,383.64 C419.35,383.64 448,354.99 448,319.64 L448,256 C448,220.65 419.35,192 384,192 L352,192 C334.33,192 320,206.33 320,224 L320,351.64 C320,369.31 334.33,383.64 352,383.64 L384,383.64 Z M352,224 L384,224 C401.64,224 416,238.36 416,256 L416,319.64 C416,337.28 401.64,351.64 384,351.64 L352,351.64 L352,224 Z M256,0 C113.97,0 3.92,117.82 0.1,256 L0,280 C0,284.42 3.58,288 8,288 L24,288 C28.42,288 32,284.42 32,280 L32.09,256 C35.43,135.19 131.63,32 256,32 C379.5,32 480,132.48 480,256 L480,432 C480,458.47 458.47,480 432,480 L349.06,480 C350.85,474.97 352,469.64 352,464 C352,437.49 330.51,416 304,416 L240,416 C213.49,416 192,437.49 192,464 C192,490.51 213.49,512 240,512 L432,512 C476.12,512 512,476.11 512,432 L512,256 C512,114.85 397.16,0 256,0 Z M304,480 L240,480 C231.18,480 224,472.82 224,464 C224,455.18 231.18,448 240,448 L304,448 C312.82,448 320,455.18 320,464 C320,472.82 312.82,480 304,480 Z" id="Shape"></path>
            </g>
        </g>
    </g>
</svg>