<?xml version="1.0" encoding="UTF-8"?>
<svg width="560px" height="560px" viewBox="0 0 560 560" version="1.1" xmlns="http://www.w3.org/2000/svg" xmlns:xlink="http://www.w3.org/1999/xlink">
    <!-- Generator: sketchtool 51.2 (57519) - http://www.bohemiancoding.com/sketch -->
    <title>heart-square</title>
    <desc>Created with sketchtool.</desc>
    <defs></defs>
    <g id="Page-1" stroke="none" stroke-width="1" fill="none" fill-rule="evenodd">
        <g id="uA226-heart-square" fill="#000000" fill-rule="nonzero">
            <g id="heart-square" transform="translate(56.000000, 56.000000)">
                <path d="M340,113.6 C325.6,101.1 309.4,96 293.6,96 C270.8,96 249,106.7 235,121.3 L224,132.9 L212.9,121.3 C199.2,107 177.3,96 154.2,96 C138.5,96 122.4,101.1 107.9,113.6 C72.6,144.2 70.7,199.2 102.3,232.3 L211.2,346.4 C218.2,353.8 229.6,353.8 236.7,346.4 L345.6,232.3 C377.2,199.1 375.4,144.2 340,113.6 Z M323,210.1 L224,313.9 L125,210.1 C108.3,192.6 104.6,158.5 128.4,138 C136.6,130.9 145.7,128.1 154.7,128.1 C168.6,128.1 182,135 190.3,143.7 L224,179 L257.7,143.7 C265.9,135.1 279.4,128.2 293.3,128.2 C302.2,128.2 311.4,131 319.5,138.1 C343.4,158.5 339.7,192.5 323,210.1 Z M400,0 L48,0 C21.5,0 0,21.5 0,48 L0,400 C0,426.5 21.5,448 48,448 L400,448 C426.5,448 448,426.5 448,400 L448,48 C448,21.5 426.5,0 400,0 Z M416,400 C416,408.8 408.8,416 400,416 L48,416 C39.2,416 32,408.8 32,400 L32,48 C32,39.2 39.2,32 48,32 L400,32 C408.8,32 416,39.2 416,48 L416,400 Z" id="Shape"></path>
            </g>
        </g>
    </g>
</svg>