<?xml version="1.0" encoding="UTF-8"?>
<svg width="560px" height="560px" viewBox="0 0 560 560" version="1.1" xmlns="http://www.w3.org/2000/svg" xmlns:xlink="http://www.w3.org/1999/xlink">
    <!-- Generator: sketchtool 51.2 (57519) - http://www.bohemiancoding.com/sketch -->
    <title>heart-circle</title>
    <desc>Created with sketchtool.</desc>
    <defs></defs>
    <g id="Page-1" stroke="none" stroke-width="1" fill="none" fill-rule="evenodd">
        <g id="uA225-heart-circle" fill="#000000" fill-rule="nonzero">
            <g id="heart-circle" transform="translate(32.000000, 32.000000)">
                <path d="M248,0 C111,0 0,111 0,248 C0,385 111,496 248,496 C385,496 496,385 496,248 C496,111 385,0 248,0 Z M248,464 C128.9,464 32,367.1 32,248 C32,128.9 128.9,32 248,32 C367.1,32 464,128.9 464,248 C464,367.1 367.1,464 248,464 Z M364,145.6 C322.1,109.3 274.5,137.2 259.1,153.3 L248,164.9 L236.9,153.3 C210.3,125.4 164.4,117.4 132,145.6 C96.7,176.2 94.8,231.2 126.4,264.3 L235.3,378.4 C242.3,385.8 253.7,385.8 260.8,378.4 L369.7,264.3 C401.2,231.1 399.4,176.2 364,145.6 Z M347,242.1 L248,345.9 L149,242.1 C132.3,224.6 128.6,190.5 152.4,170 C174.6,150.7 202.4,163.2 214.3,175.7 L248,211 L281.7,175.7 C290.4,166.5 319.2,148.9 343.6,170 C367.4,190.5 363.7,224.5 347,242.1 Z" id="Shape"></path>
            </g>
        </g>
    </g>
</svg>