<?xml version="1.0" encoding="UTF-8"?>
<svg width="560px" height="560px" viewBox="0 0 560 560" version="1.1" xmlns="http://www.w3.org/2000/svg" xmlns:xlink="http://www.w3.org/1999/xlink">
    <!-- Generator: sketchtool 51.2 (57519) - http://www.bohemiancoding.com/sketch -->
    <title>heart</title>
    <desc>Created with sketchtool.</desc>
    <defs></defs>
    <g id="Page-1" stroke="none" stroke-width="1" fill="none" fill-rule="evenodd">
        <g id="uA224-heart" fill="#000000" fill-rule="nonzero">
            <g id="heart" transform="translate(24.000000, 56.000000)">
                <path d="M463.3,30.7 C408.8,-15.7 327.3,-8 276.7,44.2 L257,64.6 L237.3,44.3 C196.5,2.1 114.2,-23.3 50.7,30.7 C-12.1,84.3 -15.4,180.5 40.8,238.5 L234.3,438.3 C240.5,444.7 248.7,448 256.9,448 C265.1,448 273.3,444.8 279.5,438.3 L473,238.5 C529.4,180.5 526.1,84.3 463.3,30.7 Z M450.2,216.3 L257.4,416.1 L63.8,216.3 C25.4,176.7 17.4,101.2 71.5,55.1 C126.3,8.3 190.7,42.2 214.3,66.6 L257,110.7 L299.7,66.6 C322.9,42.6 387.9,8.6 442.5,55.1 C496.5,101.1 488.6,176.6 450.2,216.3 Z" id="Shape"></path>
            </g>
        </g>
    </g>
</svg>