<?xml version="1.0" encoding="UTF-8"?>
<svg width="560px" height="560px" viewBox="0 0 560 560" version="1.1" xmlns="http://www.w3.org/2000/svg" xmlns:xlink="http://www.w3.org/1999/xlink">
    <!-- Generator: sketchtool 51.2 (57519) - http://www.bohemiancoding.com/sketch -->
    <title>history</title>
    <desc>Created with sketchtool.</desc>
    <defs></defs>
    <g id="Page-1" stroke="none" stroke-width="1" fill="none" fill-rule="evenodd">
        <g id="uA298-history" fill="#000000" fill-rule="nonzero">
            <g id="history" transform="translate(32.000000, 32.000000)">
                <path d="M12,16 L22,16 C28.627,16 34,21.373 34,28 L34,122.625 C77.196,49.047 157.239,-0.285 248.793,0.001 C385.18,0.428 496.213,112.009 496,248.396 C495.786,385.181 384.834,496 248,496 C184.074,496 125.798,471.813 81.822,432.092 C76.709,427.474 76.468,419.531 81.34,414.659 L88.409,407.59 C92.912,403.087 100.158,402.876 104.891,407.136 C142.782,441.238 192.935,462 248,462 C365.744,462 462,366.669 462,248 C462,130.256 366.669,34 248,34 C165.138,34 93.263,81.077 57.711,150 L156,150 C162.627,150 168,155.373 168,162 L168,172 C168,178.627 162.627,184 156,184 L12,184 C5.373,184 0,178.627 0,172 L0,28 C0,21.373 5.373,16 12,16 Z M333.647,331.235 L338.353,324.765 C342.251,319.405 341.066,311.9 335.706,308.002 L264,255.853 L264,108 C264,101.373 258.627,96 252,96 L244,96 C237.373,96 232,101.373 232,108 L232,272.147 L316.884,333.881 C322.244,337.78 329.749,336.595 333.647,331.235 Z" id="Shape"></path>
            </g>
        </g>
    </g>
</svg>