<?xml version="1.0" encoding="UTF-8"?>
<svg width="560px" height="560px" viewBox="0 0 560 560" version="1.1" xmlns="http://www.w3.org/2000/svg" xmlns:xlink="http://www.w3.org/1999/xlink">
    <!-- Generator: sketchtool 51.2 (57519) - http://www.bohemiancoding.com/sketch -->
    <title>home</title>
    <desc>Created with sketchtool.</desc>
    <defs></defs>
    <g id="Page-1" stroke="none" stroke-width="1" fill="none" fill-rule="evenodd">
        <g id="uA227-home" fill="#000000" fill-rule="nonzero">
            <g id="home" transform="translate(23.000000, 55.000000)">
                <path d="M510.8,196.5 L449,146.8 L449,70.8 C449,67.5 446.3,64.8 443,64.8 L423,64.8 C419.7,64.8 417,67.5 417,70.8 L417,120.9 L277.1,8.1 C265.4,-1.4 248.6,-1.4 236.9,8.1 L3.2,196.5 C0.6,198.6 0.2,202.4 2.3,204.9 L14.9,220.5 C17,223.1 20.8,223.5 23.4,221.4 L65,187.9 L65,416.9 C65,434.6 79.3,448.9 97,448.9 L213,448.9 C219.6,448.9 225,443.5 225,436.9 L225,304.8 L289,305.1 L289,437.3 C289,443.9 294.4,449.3 301,449.3 L417,449 C434.7,449 449,434.7 449,417 L449,188 L490.6,221.5 C493.2,223.6 497,223.2 499.1,220.6 L511.7,205 C513.8,202.4 513.3,198.6 510.8,196.5 Z M417,417 L321,417.3 L321,285 C321,278.4 315.6,273 309,273 L205,272.7 C198.4,272.7 193,278.1 193,284.7 L193,417 L97,417 L97,162.1 L253.2,36.1 C255.4,34.3 258.5,34.3 260.7,36.1 L416.9,162.1 L416.9,417 L417,417 Z" id="Shape"></path>
            </g>
        </g>
    </g>
</svg>