<?xml version="1.0" encoding="UTF-8"?>
<svg width="560px" height="560px" viewBox="0 0 560 560" version="1.1" xmlns="http://www.w3.org/2000/svg" xmlns:xlink="http://www.w3.org/1999/xlink">
    <!-- Generator: sketchtool 51.2 (57519) - http://www.bohemiancoding.com/sketch -->
    <title>images</title>
    <desc>Created with sketchtool.</desc>
    <defs></defs>
    <g id="Page-1" stroke="none" stroke-width="1" fill="none" fill-rule="evenodd">
        <g id="uA056-images" fill="#000000" fill-rule="nonzero">
            <g id="images" transform="translate(0.000000, 62.000000)">
                <path d="M513.333333,0 L108.888889,0 C83.1152778,0 62.2222222,20.8930556 62.2222222,46.6666667 L62.2222222,62.2222222 L46.6666667,62.2222222 C20.8930556,62.2222222 0,83.1152778 0,108.888889 L0,388.888889 C0,414.6625 20.8930556,435.555556 46.6666667,435.555556 L451.111111,435.555556 C476.884722,435.555556 497.777778,414.6625 497.777778,388.888889 L497.777778,373.333333 L513.333333,373.333333 C539.106944,373.333333 560,352.440278 560,326.666667 L560,46.6666667 C560,20.8930556 539.106944,0 513.333333,0 Z M466.666667,388.888889 C466.666667,397.465833 459.688056,404.444444 451.111111,404.444444 L46.6666667,404.444444 C38.0897222,404.444444 31.1111111,397.465833 31.1111111,388.888889 L31.1111111,108.888889 C31.1111111,100.311944 38.0897222,93.3333333 46.6666667,93.3333333 L62.2222222,93.3333333 L62.2222222,326.666667 C62.2222222,352.440278 83.1152778,373.333333 108.888889,373.333333 L466.666667,373.333333 L466.666667,388.888889 Z M528.888889,326.666667 C528.888889,335.243611 521.910278,342.222222 513.333333,342.222222 L108.888889,342.222222 C100.311944,342.222222 93.3333333,335.243611 93.3333333,326.666667 L93.3333333,46.6666667 C93.3333333,38.0897222 100.311944,31.1111111 108.888889,31.1111111 L513.333333,31.1111111 C521.910278,31.1111111 528.888889,38.0897222 528.888889,46.6666667 L528.888889,326.666667 Z M171.111111,163.333333 C201.18,163.333333 225.555556,138.957778 225.555556,108.888889 C225.555556,78.82 201.18,54.4444444 171.111111,54.4444444 C141.042222,54.4444444 116.666667,78.82 116.666667,108.888889 C116.666667,138.957778 141.042222,163.333333 171.111111,163.333333 Z M171.111111,85.5555556 C183.9775,85.5555556 194.444444,96.0225 194.444444,108.888889 C194.444444,121.755278 183.9775,132.222222 171.111111,132.222222 C158.244722,132.222222 147.777778,121.755278 147.777778,108.888889 C147.777778,96.0225 158.244722,85.5555556 171.111111,85.5555556 Z M405.388472,107.944861 C396.275833,98.8322222 381.502917,98.8322222 372.390278,107.944861 L280,200.335139 L249.832917,170.167083 C240.720278,161.054444 225.946389,161.054444 216.834722,170.167083 L131.279167,255.722639 C126.903194,260.098623 124.44469,266.033654 124.444444,272.222222 L124.444444,299.444444 C124.444444,305.887361 129.668194,311.111111 136.111111,311.111111 L486.111111,311.111111 C492.554028,311.111111 497.777778,305.887361 497.777778,299.444444 L497.777778,210 C497.777778,203.811806 495.319028,197.876389 490.944028,193.500417 L405.388472,107.944861 Z M466.666667,280 L155.555556,280 L155.555556,275.444167 L233.333333,197.666389 L280,244.333056 L388.888889,135.444167 L466.666667,213.221944 L466.666667,280 Z" id="Shape"></path>
            </g>
        </g>
    </g>
</svg>