<?xml version="1.0" encoding="UTF-8"?>
<svg width="560px" height="560px" viewBox="0 0 560 560" version="1.1" xmlns="http://www.w3.org/2000/svg" xmlns:xlink="http://www.w3.org/1999/xlink">
    <!-- Generator: sketchtool 51.2 (57519) - http://www.bohemiancoding.com/sketch -->
    <title>inbox-in</title>
    <desc>Created with sketchtool.</desc>
    <defs></defs>
    <g id="Page-1" stroke="none" stroke-width="1" fill="none" fill-rule="evenodd">
        <g id="uA229-inbox-in" fill="#000000" fill-rule="nonzero">
            <g id="inbox-in" transform="translate(0.000000, 31.000000)">
                <path d="M545.222222,320.638889 L453.25,234.402778 C450.916667,232.166667 447.222222,232.361111 444.986111,234.694444 L431.763889,248.888889 C429.527778,251.222222 429.722222,254.916667 432.055556,257.152778 L489.708333,311.208333 L377.416667,311.208333 L346.305556,373.430556 L213.694444,373.430556 L182.583333,311.208333 L70.3888889,311.208333 L128.041667,257.152778 C130.375,254.916667 130.472222,251.222222 128.333333,248.888889 L115.013889,234.694444 C112.777778,232.361111 109.083333,232.263889 106.75,234.402778 L14.7777778,320.638889 C5.34722222,329.388889 3.55271368e-15,341.736111 3.55271368e-15,354.666667 L3.55271368e-15,451.111111 C3.55271368e-15,476.875 20.9027778,497.777778 46.6666667,497.777778 L513.333333,497.777778 C539.097222,497.777778 560,476.875 560,451.111111 L560,354.666667 C560,341.736111 554.652778,329.388889 545.222222,320.638889 Z M528.888889,451.111111 C528.888889,459.666667 521.888889,466.666667 513.333333,466.666667 L46.6666667,466.666667 C38.1111111,466.666667 31.1111111,459.666667 31.1111111,451.111111 L31.1111111,357.777778 C31.1111111,349.222222 38.1111111,342.222222 46.6666667,342.222222 L163.333333,342.222222 L194.444444,404.444444 L365.555556,404.444444 L396.666667,342.222222 L513.333333,342.222222 C521.888889,342.222222 528.888889,349.222222 528.888889,357.777778 L528.888889,451.111111 Z M404.444444,124.444444 L342.222222,124.444444 L342.222222,23.3333333 C342.222222,10.5 331.722222,0 318.888889,0 L241.111111,0 C228.277778,0 217.777778,10.5 217.777778,23.3333333 L217.777778,124.444444 L155.555556,124.444444 C127.944444,124.444444 113.944444,157.986111 133.583333,177.527778 L258.027778,301.972222 C270.180556,314.125 289.916667,314.125 302.069444,301.972222 L426.513889,177.527778 C445.958333,157.986111 432.152778,124.444444 404.444444,124.444444 Z M280,280 L155.555556,155.555556 L248.888889,155.555556 L248.888889,31.1111111 L311.111111,31.1111111 L311.111111,155.555556 L404.444444,155.555556 L280,280 Z" id="Shape"></path>
            </g>
        </g>
    </g>
</svg>