<?xml version="1.0" encoding="UTF-8"?>
<svg width="560px" height="560px" viewBox="0 0 560 560" version="1.1" xmlns="http://www.w3.org/2000/svg" xmlns:xlink="http://www.w3.org/1999/xlink">
    <!-- Generator: sketchtool 51.2 (57519) - http://www.bohemiancoding.com/sketch -->
    <title>instagram</title>
    <desc>Created with sketchtool.</desc>
    <defs></defs>
    <g id="Page-1" stroke="none" stroke-width="1" fill="none" fill-rule="evenodd">
        <g id="uA337-instagram" fill="#000000" fill-rule="nonzero">
            <g id="instagram" transform="translate(55.000000, 56.000000)">
                <path d="M225.1,110 C161.5,110 110.2,161.3 110.2,224.9 C110.2,288.5 161.5,339.8 225.1,339.8 C288.7,339.8 340,288.5 340,224.9 C340,161.3 288.7,110 225.1,110 Z M225.1,299.6 C184,299.6 150.4,266.1 150.4,224.9 C150.4,183.7 183.9,150.2 225.1,150.2 C266.3,150.2 299.8,183.7 299.8,224.9 C299.8,266.1 266.2,299.6 225.1,299.6 Z M371.5,105.3 C371.5,120.2 359.5,132.1 344.7,132.1 C329.8,132.1 317.9,120.1 317.9,105.3 C317.9,90.5 329.9,78.5 344.7,78.5 C359.5,78.5 371.5,90.5 371.5,105.3 Z M447.6,132.5 C445.9,96.6 437.7,64.8 411.4,38.6 C385.2,12.4 353.4,4.2 317.5,2.4 C280.5,0.3 169.6,0.3 132.6,2.4 C96.8,4.1 65,12.3 38.7,38.5 C12.4,64.7 4.3,96.5 2.5,132.4 C0.4,169.4 0.4,280.3 2.5,317.3 C4.2,353.2 12.4,385 38.7,411.2 C65,437.4 96.7,445.6 132.6,447.4 C169.6,449.5 280.5,449.5 317.5,447.4 C353.4,445.7 385.2,437.5 411.4,411.2 C437.6,385 445.8,353.2 447.6,317.3 C449.7,280.3 449.7,169.5 447.6,132.5 Z M399.8,357 C392,376.6 376.9,391.7 357.2,399.6 C327.7,411.3 257.7,408.6 225.1,408.6 C192.5,408.6 122.4,411.2 93,399.6 C73.4,391.8 58.3,376.7 50.4,357 C38.7,327.5 41.4,257.5 41.4,224.9 C41.4,192.3 38.8,122.2 50.4,92.8 C58.2,73.2 73.3,58.1 93,50.2 C122.5,38.5 192.5,41.2 225.1,41.2 C257.7,41.2 327.8,38.6 357.2,50.2 C376.8,58 391.9,73.1 399.8,92.8 C411.5,122.3 408.8,192.3 408.8,224.9 C408.8,257.5 411.5,327.6 399.8,357 Z" id="Shape"></path>
            </g>
        </g>
    </g>
</svg>