<?xml version="1.0" encoding="UTF-8"?>
<svg width="560px" height="560px" viewBox="0 0 560 560" version="1.1" xmlns="http://www.w3.org/2000/svg" xmlns:xlink="http://www.w3.org/1999/xlink">
    <!-- Generator: sketchtool 51.2 (57519) - http://www.bohemiancoding.com/sketch -->
    <title>intercom</title>
    <desc>Created with sketchtool.</desc>
    <defs></defs>
    <g id="Page-1" stroke="none" stroke-width="1" fill="none" fill-rule="evenodd">
        <g id="uA320-intercom" fill="#000000">
            <g id="intercom" transform="translate(73.000000, 50.000000)">
                <path d="M43.0599758,390.302359 C40.701201,388.933582 37.9630104,388.150244 35.0425532,388.150244 C26.1824957,388.150244 19,395.359993 19,404.253667 C19,410.808228 22.9012169,416.448154 28.5000181,418.961451 C28.500006,418.974296 28.5,418.987146 28.5,419 C227.253502,509.08239 375.988278,424.192111 387.306788,417.421425 C392.470035,414.745606 396,409.338312 396,403.103423 C396,394.209748 388.817504,387 379.957447,387 C377.091426,387 374.40094,387.754407 372.072319,389.076185 C372.048245,389.050779 372.024139,389.025384 372,389 C198.479356,469.987701 53.1568369,395.679031 43.0599758,390.302359 L43.0599758,390.302359 L43.0599758,390.302359 Z M0,94.5075397 C0,83.733823 8.72807945,75 19.5,75 C30.2695526,75 39,83.7278674 39,94.5075397 L39,231.49246 C39,242.266177 30.2719205,251 19.5,251 C8.73044738,251 0,242.272133 0,231.49246 L0,94.5075397 L0,94.5075397 L0,94.5075397 Z M76,49.5056983 C76,38.7329986 84.7280795,30 95.5,30 C106.269553,30 115,38.7367612 115,49.5056983 L115,276.494302 C115,287.267001 106.271921,296 95.5,296 C84.7304474,296 76,287.263239 76,276.494302 L76,49.5056983 L76,49.5056983 L76,49.5056983 Z M151,19.5076414 C151,8.73386855 159.728079,0 170.5,0 C181.269553,0 190,8.73496309 190,19.5076414 L190,305.492359 C190,316.266131 181.271921,325 170.5,325 C159.730447,325 151,316.265037 151,305.492359 L151,19.5076414 L151,19.5076414 L151,19.5076414 Z M226,19.5076414 C226,8.73386855 234.728079,0 245.5,0 C256.269553,0 265,8.73496309 265,19.5076414 L265,305.492359 C265,316.266131 256.271921,325 245.5,325 C234.730447,325 226,316.265037 226,305.492359 L226,19.5076414 L226,19.5076414 L226,19.5076414 Z M300,49.5056983 C300,38.7329986 308.728079,30 319.5,30 C330.269553,30 339,38.7367612 339,49.5056983 L339,276.494302 C339,287.267001 330.271921,296 319.5,296 C308.730447,296 300,287.263239 300,276.494302 L300,49.5056983 L300,49.5056983 L300,49.5056983 Z M376,94.5075397 C376,83.733823 384.728079,75 395.5,75 C406.269553,75 415,83.7278674 415,94.5075397 L415,231.49246 C415,242.266177 406.271921,251 395.5,251 C384.730447,251 376,242.272133 376,231.49246 L376,94.5075397 L376,94.5075397 L376,94.5075397 Z" id="Rectangle-108"></path>
            </g>
        </g>
    </g>
</svg>