<?xml version="1.0" encoding="UTF-8"?>
<svg width="560px" height="560px" viewBox="0 0 560 560" version="1.1" xmlns="http://www.w3.org/2000/svg" xmlns:xlink="http://www.w3.org/1999/xlink">
    <!-- Generator: sketchtool 53 (72520) - https://sketchapp.com -->
    <title>italic</title>
    <desc>Created with sketchtool.</desc>
    <g id="Page-1" stroke="none" stroke-width="1" fill="none" fill-rule="evenodd">
        <g id="uA051-italic" fill="#000000" fill-rule="nonzero">
            <g id="italic" transform="translate(162.000000, 56.000000)">
                <path d="M92.791,32 L138.006,32 L63.143,416 L13.762,416 C8.04744173,416.000018 3.12567283,420.02981 1.998,425.632 L0.388,433.632 C-1.108,441.062 4.573,448 12.151,448 L140.968,448 C146.682558,447.999982 151.604327,443.97019 152.732,438.368 L154.342,430.368 C155.837,422.938 150.156,416 142.578,416 L97.363,416 L172.227,32 L222.238,32 C227.952558,31.9999822 232.874327,27.9701898 234.002,22.368 L235.612,14.368 C237.108,6.938 231.427,0 223.849,0 L94.401,0 C88.6864417,1.78114192e-05 83.7646728,4.02981023 82.637,9.632 L81.027,17.632 C79.532,25.062 85.213,32 92.791,32 Z" id="Shape"></path>
            </g>
        </g>
    </g>
</svg>