<?xml version="1.0" encoding="UTF-8"?>
<svg width="560px" height="560px" viewBox="0 0 560 560" version="1.1" xmlns="http://www.w3.org/2000/svg" xmlns:xlink="http://www.w3.org/1999/xlink">
    <!-- Generator: sketchtool 51.2 (57519) - http://www.bohemiancoding.com/sketch -->
    <title>language</title>
    <desc>Created with sketchtool.</desc>
    <defs></defs>
    <g id="Page-1" stroke="none" stroke-width="1" fill="none" fill-rule="evenodd">
        <g id="uA232-language" fill="#000000" fill-rule="nonzero">
            <g id="language" transform="translate(0.000000, 140.000000)">
                <path d="M539,0 L21,0 C9.401875,0 0,9.401875 0,21 L0,259 C0,270.598125 9.401875,280 21,280 L539,280 C550.598125,280 560,270.598125 560,259 L560,21 C560,9.401875 550.598125,0 539,0 Z M266,252 L28,252 L28,28 L266,28 L266,252 Z M532,252 L294,252 L294,28 L532,28 L532,252 Z M79.702,224 L88.7495,224 C93.2819196,224.00011 97.30285,221.09193 98.721875,216.787375 L110.541375,180.936 L169.4595,180.936 L181.279,216.787375 C182.698257,221.091761 186.719044,223.999837 191.251375,224 L200.298,224 C207.5395,224 212.606625,216.8425 210.202125,210.013125 L158.4415,63.013125 C156.962125,58.8111066 152.992205,56.0000002 148.537375,56 L131.4635,56 C127.008898,55.9998695 123.039045,58.8105768 121.559375,63.01225 L69.79875,210.01225 C67.393375,216.8425 72.4605,224 79.702,224 Z M132.782125,111.132875 C136.09575,101.667125 139.881,85.10425 139.881,85.10425 L140.354375,85.10425 C140.354375,85.10425 143.90425,101.667125 146.979875,111.132875 L161.886375,156.090375 L117.875625,156.090375 L132.782125,111.132875 Z M336,101.5 L336,94.5 C336,88.701375 340.701375,84 346.5,84 L406,84 L406,66.5 C406,60.701375 410.701375,56 416.5,56 L423.5,56 C429.298625,56 434,60.701375 434,66.5 L434,84 L493.5,84 C499.298625,84 504,88.701375 504,94.5 L504,101.5 C504,107.298625 499.298625,112 493.5,112 L479.763375,112 C473.1965,133.70175 459.260375,156.57425 440.479375,177.48675 C449.24075,185.434375 458.395,192.593625 467.537875,198.562 C472.185875,201.595625 473.6515,207.727625 470.897875,212.54625 L467.40925,218.65025 C464.408875,223.901125 457.61975,225.51375 452.540375,222.229875 C441.0385,214.792375 430.318875,206.2725 420.550375,197.292375 C410.274375,206.439625 399.107625,214.920125 387.307375,222.387375 C382.2665,225.577625 375.5745,223.873125 372.61525,218.694 L369.13975,212.61275 C366.342375,207.718 367.933125,201.52475 372.6905,198.499875 C382.64975,192.1675 392.133,185.000375 400.9005,177.30125 C392.12775,167.43825 384.563375,157.5595 378.424375,148.397375 C375.0705,143.3915 376.578125,136.602375 381.752,133.513625 L387.760625,129.927 C392.546,127.071 398.741875,128.438625 401.841125,133.07 C407.42275,141.409625 413.84525,149.648625 420.8085,157.528875 C433.948375,142.71075 444.189375,126.987 450.163875,112 L346.5,112 C340.701375,112 336,107.298625 336,101.5 Z" id="Shape"></path>
            </g>
        </g>
    </g>
</svg>