<?xml version="1.0" encoding="UTF-8"?>
<svg width="560px" height="560px" viewBox="0 0 560 560" version="1.1" xmlns="http://www.w3.org/2000/svg" xmlns:xlink="http://www.w3.org/1999/xlink">
    <!-- Generator: sketchtool 51.2 (57519) - http://www.bohemiancoding.com/sketch -->
    <title>linkedin</title>
    <desc>Created with sketchtool.</desc>
    <defs></defs>
    <g id="Page-1" stroke="none" stroke-width="1" fill="none" fill-rule="evenodd">
        <g id="uA318-linkedin" fill="#000000" fill-rule="nonzero">
            <g id="linkedin" transform="translate(56.000000, 56.000000)">
                <path d="M416,0 L31.9,0 C14.3,0 0,14.5 0,32.3 L0,415.7 C0,433.5 14.3,448 31.9,448 L416,448 C433.6,448 448,433.5 448,415.7 L448,32.3 C448,14.5 433.6,0 416,0 Z M135.4,384 L69,384 L69,170.2 L135.5,170.2 L135.5,384 L135.4,384 Z M102.2,141 C80.9,141 63.7,123.7 63.7,102.5 C63.7,81.3 80.9,64 102.2,64 C123.4,64 140.7,81.3 140.7,102.5 C140.7,123.8 123.5,141 102.2,141 Z M384.3,384 L317.9,384 L317.9,280 C317.9,255.2 317.4,223.3 283.4,223.3 C248.8,223.3 243.5,250.3 243.5,278.2 L243.5,384 L177.1,384 L177.1,170.2 L240.8,170.2 L240.8,199.4 L241.7,199.4 C250.6,182.6 272.3,164.9 304.6,164.9 C371.8,164.9 384.3,209.2 384.3,266.8 L384.3,384 Z" id="Shape"></path>
            </g>
        </g>
    </g>
</svg>