<?xml version="1.0" encoding="UTF-8"?>
<svg width="560px" height="560px" viewBox="0 0 560 560" version="1.1" xmlns="http://www.w3.org/2000/svg" xmlns:xlink="http://www.w3.org/1999/xlink">
    <!-- Generator: sketchtool 51.2 (57519) - http://www.bohemiancoding.com/sketch -->
    <title>linkedin-in</title>
    <desc>Created with sketchtool.</desc>
    <defs></defs>
    <g id="Page-1" stroke="none" stroke-width="1" fill="none" fill-rule="evenodd">
        <g id="uA317-linkedin-in" fill="#000000" fill-rule="nonzero">
            <g id="linkedin-in" transform="translate(56.000000, 56.000000)">
                <path d="M100.3,448 L7.4,448 L7.4,148.9 L100.3,148.9 L100.3,448 Z M53.8,108.1 C24.1,108.1 0,83.5 0,53.8 C0,24.1 24.1,0 53.8,0 C83.5,0 107.6,24.1 107.6,53.8 C107.6,83.5 83.5,108.1 53.8,108.1 Z M448,448 L355.3,448 L355.3,302.4 C355.3,267.7 354.6,223.2 307,223.2 C258.7,223.2 251.3,260.9 251.3,299.9 L251.3,448 L158.5,448 L158.5,148.9 L247.6,148.9 L247.6,189.7 L248.9,189.7 C261.3,166.2 291.6,141.4 336.8,141.4 C430.8,141.4 448.1,203.3 448.1,283.7 L448.1,448 L448,448 Z" id="Shape"></path>
            </g>
        </g>
    </g>
</svg>