<?xml version="1.0" encoding="UTF-8"?>
<svg width="560px" height="560px" viewBox="0 0 560 560" version="1.1" xmlns="http://www.w3.org/2000/svg" xmlns:xlink="http://www.w3.org/1999/xlink">
    <!-- Generator: sketchtool 53 (72520) - https://sketchapp.com -->
    <title>link</title>
    <desc>Created with sketchtool.</desc>
    <g id="Page-1" stroke="none" stroke-width="1" fill="none" fill-rule="evenodd">
        <g id="uA053-link" fill="#000000" fill-rule="nonzero">
            <g id="link" transform="translate(24.000000, 23.000000)">
                <path d="M302.148,395.702 L222.948,474.892 C172.17,525.691 89.911,525.716 39.108,474.892 C-11.691,424.114 -11.716,341.855 39.108,291.052 L118.298,211.852 C119.45429,210.696026 120.631824,209.561499 121.83,208.449 C129.38,201.444 141.625,206.445 142.038,216.735 C142.231,221.542 142.636,226.342 143.254,231.119 C143.735,234.836 142.508,238.566 139.857,241.215 C123.377,257.684 64.715,316.343 64.557,316.501 C27.819,353.26 27.826,412.689 64.557,449.441 C101.316,486.179 160.745,486.172 197.497,449.441 L276.697,370.241 L277.057,369.881 C313.358,333.209 313.197,273.811 276.687,237.301 C268.473,229.087 259.11,222.721 249.102,218.192 C244.536,216.126 241.676,211.525 241.968,206.522 C242.269284,201.337634 243.218672,196.21141 244.794,191.263 C246.897,184.662 254.325,181.302 260.713,183.983 C275.786,190.307 289.9,199.603 302.148,211.851 C352.836,262.54 352.827,345.021 302.148,395.702 L302.148,395.702 Z M211.852,302.148 C224.1,314.396 238.214,323.692 253.287,330.016 C259.675,332.696 267.103,329.336 269.206,322.736 C270.781328,317.78759 271.730716,312.661366 272.032,307.477 C272.324,302.474 269.463,297.873 264.898,295.807 C254.89,291.279 245.527,284.913 237.313,276.698 C200.803,240.188 200.642,180.79 236.943,144.118 L237.303,143.758 L316.503,64.558 C353.255,27.827 412.684,27.82 449.443,64.558 C486.174,101.31 486.181,160.739 449.443,197.498 C449.286,197.655 390.624,256.315 374.143,272.784 C371.492,275.434 370.265,279.163 370.746,282.88 C371.363344,287.654379 371.769074,292.453742 371.962,297.264 C372.375,307.555 384.621,312.555 392.17,305.55 C393.368415,304.437753 394.545953,303.303222 395.702,302.147 L474.892,222.947 C525.716,172.144 525.691,89.885 474.892,39.107 C424.09,-11.717 341.83,-11.692 291.052,39.107 L211.852,118.297 C161.173,168.979 161.164,251.46 211.852,302.148 L211.852,302.148 Z" id="Shape"></path>
            </g>
        </g>
    </g>
</svg>