<?xml version="1.0" encoding="UTF-8"?>
<svg width="560px" height="560px" viewBox="0 0 560 560" version="1.1" xmlns="http://www.w3.org/2000/svg" xmlns:xlink="http://www.w3.org/1999/xlink">
    <!-- Generator: sketchtool 51.2 (57519) - http://www.bohemiancoding.com/sketch -->
    <title>list</title>
    <desc>Created with sketchtool.</desc>
    <defs></defs>
    <g id="Page-1" stroke="none" stroke-width="1" fill="none" fill-rule="evenodd">
        <g id="uA046-list" fill="#000000" fill-rule="nonzero">
            <g id="list" transform="translate(30.000000, 84.000000)">
                <path d="M494,54 L122,54 C118.686292,54 116,51.3137085 116,48 L116,24 C116,20.6862915 118.686292,18 122,18 L494,18 C497.313708,18 500,20.6862915 500,24 L500,48 C500,51.3137085 497.313708,54 494,54 Z M500,208 L500,184 C500,180.686292 497.313708,178 494,178 L122,178 C118.686292,178 116,180.686292 116,184 L116,208 C116,211.313708 118.686292,214 122,214 L494,214 C497.313708,214 500,211.313708 500,208 Z M500,368 L500,344 C500,340.686292 497.313708,338 494,338 L122,338 C118.686292,338 116,340.686292 116,344 L116,368 C116,371.313708 118.686292,374 122,374 L494,374 C497.313708,374 500,371.313708 500,368 Z M72,60 L72,12 C72,5.373 66.627,0 60,0 L12,0 C5.373,0 0,5.373 0,12 L0,60 C0,66.627 5.373,72 12,72 L60,72 C66.627,72 72,66.627 72,60 Z M72,220 L72,172 C72,165.373 66.627,160 60,160 L12,160 C5.373,160 0,165.373 0,172 L0,220 C0,226.627 5.373,232 12,232 L60,232 C66.627,232 72,226.627 72,220 Z M72,380 L72,332 C72,325.373 66.627,320 60,320 L12,320 C5.373,320 0,325.373 0,332 L0,380 C0,386.627 5.373,392 12,392 L60,392 C66.627,392 72,386.627 72,380 Z" id="Shape"></path>
            </g>
        </g>
    </g>
</svg>