<?xml version="1.0" encoding="UTF-8"?>
<svg width="560px" height="560px" viewBox="0 0 560 560" version="1.1" xmlns="http://www.w3.org/2000/svg" xmlns:xlink="http://www.w3.org/1999/xlink">
    <!-- Generator: sketchtool 51.2 (57519) - http://www.bohemiancoding.com/sketch -->
    <title>listening-system</title>
    <desc>Created with sketchtool.</desc>
    <defs></defs>
    <g id="Page-1" stroke="none" stroke-width="1" fill="none" fill-rule="evenodd">
        <g id="uA140-listening-system" fill="#000000" fill-rule="nonzero">
            <g id="listening-system" transform="translate(24.000000, 24.000000)">
                <path d="M217.6,512 C208.763,512 201.6,504.837 201.6,496 C201.6,487.163 208.763,480 217.6,480 C258.772,480 292.267,446.505 292.267,405.334 C292.267,320.16 365.658,311.434 365.658,240 C365.658,168.833 307.759,110.934 236.591,110.934 C165.424,110.934 107.525,168.833 107.525,240 C107.525,248.837 100.362,256 91.525,256 C82.688,256 75.525,248.837 75.525,240 C75.525,151.188 147.779,78.934 236.591,78.934 C325.403,78.934 397.657,151.188 397.657,240 C397.657,326.857 324.266,336.041 324.266,405.334 C324.267,464.149 276.416,512 217.6,512 Z M333.333,240 C333.333,186.184 289.55,142.4 235.733,142.4 C181.916,142.4 138.133,186.183 138.133,240 C138.133,248.837 145.296,256 154.133,256 C162.97,256 170.133,248.837 170.133,240 C170.133,203.828 199.561,174.4 235.733,174.4 C271.905,174.4 301.333,203.828 301.333,240 C301.333,248.837 308.496,256 317.333,256 C326.17,256 333.333,248.837 333.333,240 Z M439.803,194.016 C448.251,191.425 452.998,182.475 450.407,174.028 C435.763,126.296 405.023,84.232 363.848,55.587 C356.594,50.541 346.622,52.328 341.577,59.583 C336.53,66.837 338.319,76.809 345.573,81.854 C380.895,106.428 407.261,142.497 419.815,183.413 C422.408,191.866 431.36,196.606 439.803,194.016 Z M500.691,175.366 C509.138,172.772 513.884,163.822 511.292,155.375 C492.386,93.787 452.886,39.627 400.059,2.868 C392.806,-2.178 382.834,-0.391 377.787,6.863 C372.74,14.116 374.529,24.088 381.782,29.135 C428.76,61.823 463.887,109.99 480.7,164.766 C483.293,173.213 492.241,177.958 500.691,175.366 Z M240,256 C231.163,256 224,263.163 224,272 C224,280.837 231.163,288 240,288 C248.837,288 256,280.837 256,272 C256,263.163 248.837,256 240,256 Z M176,320 C167.163,320 160,327.163 160,336 C160,344.837 167.163,352 176,352 C184.837,352 192,344.837 192,336 C192,327.163 184.837,320 176,320 Z M80,416 C71.163,416 64,423.163 64,432 C64,440.837 71.163,448 80,448 C88.837,448 96,440.837 96,432 C96,423.163 88.837,416 80,416 Z M16,480 C7.163,480 0,487.163 0,496 C0,504.837 7.163,512 16,512 C24.837,512 32,504.837 32,496 C32,487.163 24.837,480 16,480 Z M171.313,404.687 L107.313,340.687 L84.686,363.314 L148.686,427.314 L171.313,404.687 Z" id="Shape"></path>
            </g>
        </g>
    </g>
</svg>