<?xml version="1.0" encoding="UTF-8"?>
<svg width="560px" height="560px" viewBox="0 0 560 560" version="1.1" xmlns="http://www.w3.org/2000/svg" xmlns:xlink="http://www.w3.org/1999/xlink">
    <!-- Generator: sketchtool 53 (72520) - https://sketchapp.com -->
    <title>list-ol</title>
    <desc>Created with sketchtool.</desc>
    <g id="Page-1" stroke="none" stroke-width="1" fill="none" fill-rule="evenodd">
        <g id="uA048-list-ol" fill="#000000" fill-rule="nonzero">
            <g id="list-ol" transform="translate(26.000000, 56.000000)">
                <path d="M2.495,110.993 C2.495,104.549 5.896,101.146 12.342,101.146 L29.707,101.146 L29.707,47.798 C29.707,42.964 29.886,37.951 29.886,37.951 L29.527,37.951 C29.527,37.951 27.737,41.89 25.589,43.68 L23.978,45.112 C19.323,49.41 14.489,49.229 10.192,44.575 L5.538,39.562 C1.063,34.908 1.241,30.076 5.896,25.6 L28.096,4.833 C31.854,1.432 35.256,0 40.268,0 L50.473,0 C56.917,0 60.319,3.4 60.319,9.846 L60.319,101.147 L77.863,101.147 C84.307,101.147 87.71,104.549 87.71,110.994 L87.71,118.156 C87.71,124.599 84.308,128.002 77.863,128.002 L12.341,128.002 C5.896,128.002 2.494,124.6 2.494,118.156 L2.494,110.993 L2.495,110.993 Z M0.719,274.443 C0.719,227.961 55.124,219.686 55.124,201.552 C55.124,192.749 48.08,189.051 41.566,189.051 C35.932,189.051 31.179,192.044 28.185,195.214 C23.783,199.439 19.205,201.2 14.452,197.326 L7.586,191.868 C2.656,187.994 1.423,183.593 5.121,178.839 C11.284,170.74 23.432,160 44.384,160 C64.983,160 87.344,171.796 87.344,198.559 C87.344,237.822 36.461,245.393 34.877,261.59 L79.597,261.59 C85.936,261.59 89.281,264.936 89.281,271.274 L89.281,278.318 C89.281,284.655 85.936,288.001 79.597,288.001 L11.108,288.001 C5.122,288.001 0.72,284.655 0.72,278.318 L0.72,274.443 L0.719,274.443 Z M3.594,423.879 L8.348,416.132 C11.693,410.675 16.094,410.322 21.552,413.668 C26.306,416.308 32.469,418.949 39.511,418.949 C50.956,418.949 57.47,413.315 57.47,406.448 C57.47,396.589 47.61,392.539 34.053,392.539 L33.349,392.539 C27.715,392.539 24.898,390.778 22.433,385.848 L21.552,384.087 C19.44,380.038 20.319,375.636 23.841,371.587 L35.286,357.677 C41.272,350.458 46.203,345.88 46.203,345.88 L46.203,345.528 C46.203,345.528 42.154,346.408 34.23,346.408 L13.805,346.408 C7.467,346.408 4.122,343.064 4.122,336.725 L4.122,329.682 C4.122,323.343 7.467,319.999 13.805,319.999 L73.844,319.999 C80.182,319.999 83.528,323.343 83.528,329.506 L83.528,332.323 C83.528,337.253 82.295,340.599 79.126,344.296 L57.998,368.594 C76.661,372.643 88.457,387.432 88.457,405.039 C88.458,426.52 73.316,448 41.8,448 C24.722,448 12.749,442.014 5.706,437.261 C0.776,433.739 0.425,428.985 3.594,423.879 Z M509,76 L509,52 C509,48.6862915 506.313708,46 503,46 L131,46 C127.686292,46 125,48.6862915 125,52 L125,76 C125,79.3137085 127.686292,82 131,82 L503,82 C506.313708,82 509,79.3137085 509,76 Z M509,236 L509,212 C509,208.686292 506.313708,206 503,206 L131,206 C127.686292,206 125,208.686292 125,212 L125,236 C125,239.313708 127.686292,242 131,242 L503,242 C506.313708,242 509,239.313708 509,236 Z M509,396 L509,372 C509,368.686292 506.313708,366 503,366 L131,366 C127.686292,366 125,368.686292 125,372 L125,396 C125,399.313708 127.686292,402 131,402 L503,402 C506.313708,402 509,399.313708 509,396 Z" id="Shape"></path>
            </g>
        </g>
    </g>
</svg>