<?xml version="1.0" encoding="UTF-8"?>
<svg width="560px" height="560px" viewBox="0 0 560 560" version="1.1" xmlns="http://www.w3.org/2000/svg" xmlns:xlink="http://www.w3.org/1999/xlink">
    <!-- Generator: sketchtool 51.2 (57519) - http://www.bohemiancoding.com/sketch -->
    <title>lock</title>
    <desc>Created with sketchtool.</desc>
    <defs></defs>
    <g id="Page-1" stroke="none" stroke-width="1" fill="none" fill-rule="evenodd">
        <g id="uA234-lock" fill="#000000" fill-rule="nonzero">
            <g id="lock" transform="translate(56.000000, 24.000000)">
                <path d="M400,225 L384,225 L384,162.5 C384,74.1 312.9,1.3 224.5,1 C136,0.7 64,72.6 64,161 L64,225 L48,225 C21.5,225 0,246.5 0,273 L0,465 C0,491.5 21.5,513 48,513 L400,513 C426.5,513 448,491.5 448,465 L448,273 C448,246.5 426.5,225 400,225 Z M96,161 C96,90.4 153.4,33 224,33 C294.6,33 352,90.4 352,161 L352,225 L96,225 L96,161 Z M400,481 L48,481 C39.2,481 32,473.8 32,465 L32,273 C32,264.2 39.2,257 48,257 L400,257 C408.8,257 416,264.2 416,273 L416,465 C416,473.8 408.8,481 400,481 Z" id="Shape"></path>
            </g>
        </g>
    </g>
</svg>