<?xml version="1.0" encoding="UTF-8"?>
<svg width="560px" height="560px" viewBox="0 0 560 560" version="1.1" xmlns="http://www.w3.org/2000/svg" xmlns:xlink="http://www.w3.org/1999/xlink">
    <!-- Generator: sketchtool 51.2 (57519) - http://www.bohemiancoding.com/sketch -->
    <title>mailchimp</title>
    <desc>Created with sketchtool.</desc>
    <defs></defs>
    <g id="Page-1" stroke="none" stroke-width="1" fill="none" fill-rule="evenodd">
        <g id="uA358-mailchimp" fill="#000000" fill-rule="nonzero">
            <g id="mailchimp" transform="translate(66.000000, 56.000000)">
                <path d="M426.56,291.72 C423.47,285.13 417.59,280.59 410.21,278.84 C407.74,267.57 404.33,262.04 404.02,261.21 C405.32,259.73 406.58,258.24 406.86,257.89 C417.28,244.96 410.48,226.03 392.67,221.56 C382.65,211.92 373.58,207.39 366.13,203.66 C358.99,200.09 361.84,201.49 355.14,198.47 C353.36,189.76 352.77,169.5 349.94,155.28 C347.4,142.49 342.28,133.22 334.38,127.13 C331.22,120.29 326.79,113.39 321.45,108.32 C346.29,70.24 352.83,32.63 334.64,12.93 C326.54,4.16 314.51,4.97379915e-14 300.12,4.97379915e-14 C279.86,4.97379915e-14 254.94,8.26 229.78,23.54 C229.78,23.54 213.4,10.36 213.05,10.08 C142.97,-45.11 -55.23,198.78 14.73,252.08 L32.79,265.88 C21.45,297.42 37.22,335.02 70.08,347.09 C77.34,349.76 85.22,351.06 93.39,350.6 C93.39,350.6 146.48,447.96 258.49,447.99 C388.07,448.03 421.04,321.27 421.39,320.13 C421.39,320.14 431.89,304.62 426.56,291.72 Z M20.12,235.95 C5.92,211.99 30.63,162.76 48.21,134.78 C91.66,65.63 163.98,11.06 196.82,18.85 L205.85,15.39 C205.88,15.42 230.52,36.24 230.55,36.26 C247.52,26.07 269.13,15.69 289.35,13.62 C277.05,16.39 262.06,22.77 244.3,33.63 C243.87,33.88 202.28,61.95 176.87,87.15 C163.02,100.88 107.42,167.56 107.47,167.5 C117.63,148.27 124.33,138.83 140.41,118.6 C149.51,107.16 159.22,96.03 169.15,85.76 C173.76,80.99 178.43,76.4 183.1,72.05 C186.31,69.06 189.54,66.18 192.75,63.43 C194.23,62.16 195.71,60.93 197.18,59.72 L197.19,59.71 L164.6,32.8 L166.32,44.86 L190.01,65.73 C190.01,65.73 169.05,79.84 158.62,88.74 C116.83,124.4 75.82,179.14 60.56,232.43 L61.29,232.4 C53.69,236.59 46.15,243.31 39.56,252.45 C39.4,252.41 22.52,240.02 20.12,235.95 Z M89.23,336.04 C64.2,336.04 43.9,314.67 43.9,288.32 C43.9,261.96 64.19,240.6 89.23,240.6 C95.72,240.6 101.89,242.04 107.47,244.62 C107.47,244.62 117.1,249.48 119.81,272.43 C122.63,265.26 124.05,259.37 124.05,259.37 C127.28,269.25 128.93,279.63 128.28,290.13 C130.96,286.57 133.83,279.86 133.83,279.86 C138.83,309.19 117.43,336.04 89.23,336.04 Z M145.03,167.51 C145.03,167.51 164.52,130.45 207.36,105.94 C204.17,105.43 196.37,106.42 195,106.58 C202.78,99.89 217.24,95.42 227.23,93.39 C224.31,91.53 217.34,91.06 213.89,90.97 C212.87,90.94 212.88,90.95 211.67,91 C221.07,85.75 238.49,82.66 254.32,85.45 C252.33,82.81 247.82,80.88 244.65,79.94 C244.37,79.86 243.13,79.55 243.13,79.55 L244.32,79.27 C253.86,77.43 265.01,79.42 273.82,82.96 C272.82,80.64 270.37,77.93 268.53,76.22 C268.34,76.04 267.24,75.25 267.24,75.25 C276.46,77.16 285.3,81.19 291.95,85.75 C291.05,84 288.81,81.06 287.26,79.46 C296.07,81.98 305.97,88.27 310.21,97.28 C310.31,97.48 310.58,98.22 310.61,98.31 C293.91,85.47 245.17,89.11 196.37,120.73 C174.04,135.21 157.66,151.05 145.03,167.51 Z M408.35,313.85 C407.76,315 401.62,348.25 366.49,375.86 C322.12,410.72 263.83,407.19 241.82,387.66 C230.06,376.66 224.97,360.93 224.97,360.93 C224.97,360.93 223.64,369.8 223.41,373.28 C214.54,358.19 215.29,339.76 215.29,339.76 C215.29,339.76 210.56,348.59 208.39,353.53 C201.86,336.91 205.23,319.75 205.23,319.75 L200.07,327.45 C200.07,327.45 197.65,308.64 203.59,292.98 C209.95,276.24 222.27,264.08 224.7,262.56 C215.35,259.59 204.58,251.07 204.56,251.05 C204.56,251.05 208.84,251.33 211.82,250.65 C211.82,250.65 192.92,237.11 189.6,216.39 C192.34,219.77 198.09,223.6 198.09,223.6 C196.23,218.18 195.1,206.11 196.84,194.24 L196.85,194.23 C200.43,171.55 219.12,156.78 240.29,156.96 C262.83,157.16 277.94,161.89 296.84,144.46 C300.84,140.77 304.03,137.59 309.65,136.35 C310.24,136.22 311.71,135.6 314.72,135.6 C317.77,135.6 320.7,136.29 323.39,137.89 C333.64,143.99 335.85,159.9 336.95,171.57 C341.02,214.85 339.38,207.14 356.89,216.06 C365.25,220.31 374.63,224.35 385.32,235.78 C385.35,235.81 385.4,235.87 385.4,235.87 L385.53,235.87 C394.54,236.09 399.18,243.18 395.03,248.34 C364.8,284.44 322.57,301.73 275.52,303.18 C273.58,303.23 269.2,303.33 269.18,303.33 C250.17,303.91 243.99,328.49 255.91,343.28 C263.45,352.63 277.94,355.7 289.88,355.74 L290.05,355.68 C341.5,356.72 393.19,320.31 402.12,300.24 C402.18,300.09 402.73,298.82 402.73,298.82 C400.66,301.25 350.55,348.43 289.65,346.72 C289.65,346.72 282.99,346.58 276.72,345.12 C268.45,343.2 262.17,339.56 259.77,331.32 C264.82,332.33 271.22,332.98 278.64,332.98 C322.6,332.98 354.27,313 350.97,312.73 C350.84,312.73 350.71,312.76 350.49,312.81 C345.36,314 292.52,334.47 259.12,323.97 C259.2,322.95 259.36,321.96 259.6,321.07 C262.57,311.12 267.85,312.51 276.39,312.14 C306.87,311.13 331.46,303.46 349.89,294.71 C369.54,285.38 384.52,273.36 389.92,267.29 C396.92,279.08 396.88,294.21 396.88,294.21 C396.88,294.21 399.62,293.25 403.26,293.25 C414.64,293.26 416.99,303.48 408.35,313.85 Z M259.06,327.55 C259.06,327.5 259.05,327.45 259.05,327.4 C259.06,327.45 259.06,327.5 259.06,327.55 Z M259.05,327.34 C259.04,327.21 259.04,327.08 259.03,326.95 C259.01,326.3 259,325.62 259.03,324.93 C259.01,325.67 259.01,326.35 259.03,326.95 C259.04,327.08 259.04,327.22 259.05,327.34 Z M259.17,328.8 C259.17,328.82 259.17,328.84 259.18,328.86 C259.18,328.84 259.18,328.82 259.17,328.8 Z M259.19,328.92 C259.39,330.5 259.7,331.23 259.74,331.32 C259.51,330.83 259.32,329.98 259.19,328.92 Z M193.96,27.68 L196.83,18.85 L201.71,36.57 L195.68,34.62 L193.96,27.68 Z M216.34,45.4 L212.72,32.81 L222.69,41.17 C220.45,42.61 218.33,44.03 216.34,45.4 Z M259.05,327.34 C259.04,327.21 259.04,327.08 259.03,326.95 C259.04,327.08 259.04,327.22 259.05,327.34 Z M259.04,326.95 C259.02,326.3 259.01,325.62 259.04,324.93 C259.01,325.68 259.01,326.35 259.04,326.95 Z M259.06,327.55 C259.06,327.5 259.05,327.45 259.05,327.4 L259.06,327.55 Z M259.18,328.86 C259.18,328.84 259.18,328.82 259.17,328.8 L259.18,328.86 Z M259.19,328.92 C259.39,330.5 259.7,331.23 259.74,331.32 C259.51,330.83 259.32,329.98 259.19,328.92 Z M311.29,190.31 C311.22,186.95 311.76,181.39 314.92,180.36 L314.93,180.36 C320.34,178.48 327.51,192.34 327.84,204.64 C323.56,202.5 318.54,201.59 313.37,202.04 C312.07,198.07 311.45,194.34 311.29,190.31 Z M205.38,53.27 L191.79,41.89 L212.36,48.17 C209.71,50.05 207.36,51.77 205.38,53.27 Z M233.08,220.21 C229.67,221.51 227.25,222.52 226.08,222.35 C224.19,222.07 226.02,218.6 230.16,215.24 C238.49,208.6 249.92,206.54 259.69,210.17 C263.97,211.74 268.77,214.89 271.29,218.56 C272.24,219.95 272.5,221 272.11,221.44 C271.34,222.34 268.6,221.13 264.56,219.55 C254.21,215.69 246.58,215.1 233.08,220.21 Z M247.63,234.74 C245.32,235.68 243.82,236.4 243.21,235.91 C242.59,235.43 243.2,233.49 245.36,231.4 C247.24,229.59 249.19,228.57 251.43,227.63 C251.78,227.48 252.15,227.35 252.53,227.25 C253.57,226.97 254.62,226.62 255.76,226.45 C264.88,224.9 271.56,229.96 270.69,231.43 C270.3,232.12 268.61,231.96 266.09,231.79 C260.86,231.43 255.38,231.52 247.63,234.74 Z M85.16,265.34 C83.31,265.73 84.35,265.51 82.52,266.02 C82.2587254,266.088409 82.0016289,266.171882 81.75,266.27 C81.17,266.54 80.64,266.72 80.13,267 C79.7,267.24 76.06,268.86 73.1,272.48 C69.11,277.43 67.66,283.91 67.91,290.15 C68.15,296.21 69.93,299.56 70.26,300.38 C71.64,303.34 68.41,303.95 65.47,300.77 L65.46,300.76 C63.11,298.27 61.6,294.47 60.86,291.1 C57.88,277.15 64.1,263.13 78.47,257.53 C79.27,257.21 80.21,257.02 80.97,256.8 L80.96,256.8 C82.43,256.36 87.68,255.3 93.03,256.13 C98.9,257.04 104.07,259.98 107.36,263.8 L107.37,263.81 C109.9,266.68 111.8,270.73 111.46,274.34 L111.46,274.35 C111.33,275.85 110.67,278 109.32,278.56 C108.82,278.77 108.31,278.66 107.96,278.31 C106.98,277.35 107.74,275.38 105.36,272.01 C102.19,267.54 95.05,263.25 85.16,265.34 Z M115.44,296.51 C117.32,307.33 109.44,317.01 99.92,317.21 C93.25,317.36 89.61,313.19 90.26,312.28 C90.56,311.85 91.58,312.04 93.14,312.27 C101.64,313.59 106.8,308.41 108.04,302.98 C108.06,302.89 108.39,301.44 108.38,300.44 C108.45,299.56 108.35,298.68 108.22,297.88 C107.22,292.26 100.77,291.2 96.62,286.73 C92.9,282.69 93.63,277.51 95.97,275.02 C98.78,272.25 102.8,273.26 102.75,274.24 C102.75,274.76 101.78,275.15 100.58,275.98 C99.02,277.08 98.81,278.14 99.21,279.96 C99.47,280.96 99.92,281.61 100.89,282.38 C104.37,285.14 113.74,287.08 115.44,296.51 Z M328.31,215.04 C330.89,215.44 332.53,218.63 331.98,222.17 C331.43,225.71 328.89,228.25 326.31,227.84 C323.73,227.44 322.09,224.25 322.64,220.71 C323.2,217.18 325.73,214.64 328.31,215.04 Z M299.98,225.35 C301.4,222.76 305.42,222.24 308.97,224.19 C312.52,226.13 314.24,229.81 312.83,232.39 C311.41,234.98 307.39,235.5 303.84,233.55 C300.29,231.61 298.56,227.94 299.98,225.35 Z" id="Shape"></path>
            </g>
        </g>
    </g>
</svg>