<?xml version="1.0" encoding="UTF-8"?>
<svg width="560px" height="560px" viewBox="0 0 560 560" version="1.1" xmlns="http://www.w3.org/2000/svg" xmlns:xlink="http://www.w3.org/1999/xlink">
    <!-- Generator: sketchtool 51.2 (57519) - http://www.bohemiancoding.com/sketch -->
    <title>mixpanel</title>
    <desc>Created with sketchtool.</desc>
    <defs></defs>
    <g id="Page-1" stroke="none" stroke-width="1" fill="none" fill-rule="evenodd">
        <g id="uA330-mixpanel" fill="#000000">
            <path d="M279.5,511 C406.801635,511 510,407.801635 510,280.5 C510,153.198365 406.801635,50 279.5,50 C152.198365,50 49,153.198365 49,280.5 C49,407.801635 152.198365,511 279.5,511 L279.5,511 Z M155,322 C179.300529,322 199,302.300529 199,278 C199,253.699471 179.300529,234 155,234 C130.699471,234 111,253.699471 111,278 C111,302.300529 130.699471,322 155,322 L155,322 Z M290,312 C308.777681,312 324,296.777681 324,278 C324,259.222319 308.777681,244 290,244 C271.222319,244 256,259.222319 256,278 C256,296.777681 271.222319,312 290,312 L290,312 Z M405,302 C418.254834,302 429,291.254834 429,278 C429,264.745166 418.254834,254 405,254 C391.745166,254 381,264.745166 381,278 C381,291.254834 391.745166,302 405,302 L405,302 Z" id="mixpanel"></path>
        </g>
    </g>
</svg>