<?xml version="1.0" encoding="UTF-8"?>
<svg width="560px" height="560px" viewBox="0 0 560 560" version="1.1" xmlns="http://www.w3.org/2000/svg" xmlns:xlink="http://www.w3.org/1999/xlink">
    <!-- Generator: sketchtool 51.2 (57519) - http://www.bohemiancoding.com/sketch -->
    <title>mute</title>
    <desc>Created with sketchtool.</desc>
    <defs></defs>
    <g id="Page-1" stroke="none" stroke-width="1" fill="none" fill-rule="evenodd">
        <g id="uA307-mute" fill="#000000" fill-rule="nonzero">
            <g id="mute" transform="translate(0.000000, 62.000000)">
                <path d="M497.777778,0 C532.097222,0 560,27.9027778 560,62.2222222 L560,373.333333 C560,407.652778 532.097222,435.555556 497.777778,435.555556 L62.2222222,435.555556 C27.9027778,435.555556 0,407.652778 0,373.333333 L0,62.2222222 C0,27.9027778 27.9027778,0 62.2222222,0 L497.777778,0 Z M31.1111111,373.333333 C31.1111111,390.444444 45.1111111,404.444444 62.2222222,404.444444 L497.777778,404.444444 C514.888889,404.444444 528.888889,390.444444 528.888889,373.333333 L528.888889,77.7777778 C528.888889,52.1111111 514.888889,31.1111111 497.777778,31.1111111 L62.2222222,31.1111111 C45.1111111,31.1111111 31.1111111,52.1111111 31.1111111,77.7777778 L31.1111111,373.333333 Z M179.788,275 L151.214,275 L150.9,216.753 L122.64,264.167 L108.824,264.167 L80.721,218.323 L80.721,275 L51.99,275 L51.99,165.1 L77.581,165.1 L116.203,228.528 L153.883,165.1 L179.474,165.1 L179.788,275 Z M252.479,277.198 C219.98,277.198 200.826,258.829 200.826,226.016 L200.826,165.1 L231.912,165.1 L231.912,225.074 C231.912,243.914 239.762,251.45 252.793,251.45 C265.667,251.45 273.517,243.914 273.517,225.074 L273.517,165.1 L304.132,165.1 L304.132,226.016 C304.132,258.829 284.978,277.198 252.479,277.198 Z M348.563,275 L348.563,189.749 L314.808,189.749 L314.808,165.1 L413.247,165.1 L413.247,189.749 L379.649,189.749 L379.649,275 L348.563,275 Z M455.637,250.979 L513.099,250.979 L513.099,275 L424.865,275 L424.865,165.1 L511.058,165.1 L511.058,189.121 L455.637,189.121 L455.637,207.647 L504.464,207.647 L504.464,230.883 L455.637,230.883 L455.637,250.979 Z" id="Combined-Shape"></path>
            </g>
        </g>
    </g>
</svg>