<?xml version="1.0" encoding="UTF-8"?>
<svg width="560px" height="560px" viewBox="0 0 560 560" version="1.1" xmlns="http://www.w3.org/2000/svg" xmlns:xlink="http://www.w3.org/1999/xlink">
    <!-- Generator: sketchtool 51.2 (57519) - http://www.bohemiancoding.com/sketch -->
    <title>paperclip</title>
    <desc>Created with sketchtool.</desc>
    <defs></defs>
    <g id="Page-1" stroke="none" stroke-width="1" fill="none" fill-rule="evenodd">
        <g id="uA246-paperclip" fill="#000000" fill-rule="nonzero">
            <g id="paperclip" transform="translate(44.000000, 24.000000)">
                <path d="M129.106,512 C96.03,512 62.953,499.41 37.773,474.229 C-12.591,423.868 -12.591,341.924 37.771,291.564 L299.842,29.498 C339.173,-9.833 403.17,-9.833 442.502,29.498 C481.833,68.83 481.833,132.825 442.502,172.155 L219.872,394.781 C191.575,423.082 145.525,423.084 117.222,394.781 C88.922,366.48 88.922,320.432 117.222,292.132 L287.523,121.834 C292.209,117.148 299.807,117.148 304.493,121.834 L310.154,127.495 C314.84,132.181 314.84,139.779 310.154,144.466 L139.854,314.763 C124.033,330.584 124.033,356.326 139.855,372.148 C155.676,387.968 181.419,387.968 197.24,372.148 L419.87,149.522 C446.721,122.671 446.721,78.981 419.87,52.128 C393.015,25.277 349.326,25.279 322.475,52.128 L60.404,314.196 C22.522,352.078 22.522,413.715 60.404,451.597 C98.288,489.478 159.927,489.479 197.808,451.598 L415.551,233.859 C420.237,229.173 427.835,229.173 432.521,233.859 L438.182,239.52 C442.868,244.206 442.868,251.804 438.182,256.491 L220.44,474.229 C195.26,499.41 162.183,512 129.106,512 Z" id="Shape"></path>
            </g>
        </g>
    </g>
</svg>