<?xml version="1.0" encoding="UTF-8"?>
<svg width="560px" height="560px" viewBox="0 0 560 560" version="1.1" xmlns="http://www.w3.org/2000/svg" xmlns:xlink="http://www.w3.org/1999/xlink">
    <!-- Generator: sketchtool 51.2 (57519) - http://www.bohemiancoding.com/sketch -->
    <title>paypal</title>
    <desc>Created with sketchtool.</desc>
    <defs></defs>
    <g id="Page-1" stroke="none" stroke-width="1" fill="none" fill-rule="evenodd">
        <g id="uA357-paypal" fill="#000000" fill-rule="nonzero">
            <g id="paypal" transform="translate(88.000000, 53.000000)">
                <path d="M111.4,266.9 C107.9,286.1 94,375.6 89.9,400.9 C89.6,402.7 88.9,403.4 86.9,403.4 L12.3,403.4 C4.7,403.4 -0.8,396.8 0.2,389.5 L58.8,17.6 C60.3,8 68.9,0.7 78.8,0.7 C231.1,0.7 243.9,-3 282.8,12.1 C342.9,35.4 348.4,91.6 326.8,152.4 C305.3,215 254.3,241.9 186.7,242.7 C143.3,243.4 117.2,235.7 111.4,266.9 Z M357.1,123 C355.3,121.7 354.6,121.2 354.1,124.3 C352.1,135.7 349,146.8 345.3,157.9 C305.4,271.7 194.8,261.8 140.8,261.8 C134.7,261.8 130.7,265.1 129.9,271.2 C107.3,411.6 102.8,440.9 102.8,440.9 C101.8,448 106.3,453.8 113.4,453.8 L176.9,453.8 C185.5,453.8 192.6,447.5 194.3,438.9 C195,433.5 193.2,445 208.7,347.6 C213.3,325.6 223,327.9 238,327.9 C309,327.9 364.4,299.1 380.9,215.6 C387.4,180.8 385.5,144.2 357.1,123 Z" id="Shape"></path>
            </g>
        </g>
    </g>
</svg>