<?xml version="1.0" encoding="UTF-8"?>
<svg width="560px" height="560px" viewBox="0 0 560 560" version="1.1" xmlns="http://www.w3.org/2000/svg" xmlns:xlink="http://www.w3.org/1999/xlink">
    <!-- Generator: sketchtool 51.2 (57519) - http://www.bohemiancoding.com/sketch -->
    <title>pen-square</title>
    <desc>Created with sketchtool.</desc>
    <defs></defs>
    <g id="Page-1" stroke="none" stroke-width="1" fill="none" fill-rule="evenodd">
        <g id="uA058-pen-square" fill="#000000" fill-rule="nonzero">
            <g id="pen-square" transform="translate(56.000000, 56.000000)">
                <path d="M400,0 L48,0 C21.5,0 0,21.5 0,48 L0,400 C0,426.5 21.5,448 48,448 L400,448 C426.5,448 448,426.5 448,400 L448,48 C448,21.5 426.5,0 400,0 Z M416,400 C416,408.8 408.8,416 400,416 L48,416 C39.2,416 32,408.8 32,400 L32,48 C32,39.2 39.2,32 48,32 L400,32 C408.8,32 416,39.2 416,48 L416,400 Z M348.9,75.7 C333.3,60.1 308,60.1 292.3,75.7 L72,296 L64.1,367.4 C63,377 71.1,385 80.7,384 L152,376 L372.3,155.7 C387.9,140.1 387.9,114.8 372.3,99.1 L348.9,75.7 Z M137.3,345.4 L98.2,349.7 L102.5,310.6 L265.2,147.9 L299.9,182.6 L137.3,345.4 Z M349.7,133.1 L322.7,160.1 L288,125.4 L315,98.4 C318.1,95.3 323.2,95.3 326.3,98.4 L349.7,121.8 C352.8,124.9 352.8,130 349.7,133.1 Z" id="Shape"></path>
            </g>
        </g>
    </g>
</svg>