<?xml version="1.0" encoding="UTF-8"?>
<svg width="560px" height="560px" viewBox="0 0 560 560" version="1.1" xmlns="http://www.w3.org/2000/svg" xmlns:xlink="http://www.w3.org/1999/xlink">
    <!-- Generator: sketchtool 51.2 (57519) - http://www.bohemiancoding.com/sketch -->
    <title>percentage</title>
    <desc>Created with sketchtool.</desc>
    <defs></defs>
    <g id="Page-1" stroke="none" stroke-width="1" fill="none" fill-rule="evenodd">
        <g id="uA249-percentage" fill="#000000" fill-rule="nonzero">
            <g id="percentage" transform="translate(119.000000, 120.000000)">
                <path d="M318.66,36.28 C321.78,33.16 321.78,28.09 318.66,24.97 L296.03,2.34 C292.91,-0.78 287.84,-0.78 284.72,2.34 L3.34,283.71 C0.22,286.83 0.22,291.9 3.34,295.02 L25.97,317.65 C29.09,320.77 34.16,320.77 37.28,317.65 L297.5,57.44 L318.66,36.28 Z M65,128 C81.38,128 97.76,121.75 110.25,109.26 C135.24,84.27 135.24,43.74 110.25,18.75 C97.76,6.25 81.38,0 65,0 C48.62,0 32.24,6.25 19.74,18.75 C-5.25,43.74 -5.25,84.27 19.74,109.26 C32.24,121.75 48.62,128 65,128 Z M42.38,41.37 C48.42,35.33 56.45,32 65,32 C73.55,32 81.58,35.33 87.63,41.37 C100.11,53.85 100.1,74.15 87.63,86.62 C81.59,92.67 73.55,96 65,96 C56.45,96 48.42,92.67 42.38,86.63 C29.9,74.15 29.9,53.85 42.38,41.37 Z M257,192 C240.62,192 224.24,198.25 211.74,210.75 C186.75,235.74 186.75,276.27 211.74,301.26 C224.24,313.75 240.62,320 257,320 C273.38,320 289.76,313.75 302.25,301.26 C327.24,276.27 327.24,235.74 302.25,210.75 C289.76,198.25 273.38,192 257,192 Z M279.63,278.63 C273.59,284.67 265.55,288 257,288 C248.45,288 240.42,284.67 234.38,278.63 C221.9,266.15 221.9,245.85 234.38,233.37 C240.42,227.33 248.46,224 257,224 C265.55,224 273.58,227.33 279.63,233.37 C292.11,245.85 292.1,266.15 279.63,278.63 Z" id="Shape"></path>
            </g>
        </g>
    </g>
</svg>