<?xml version="1.0" encoding="UTF-8"?>
<svg width="560px" height="560px" viewBox="0 0 560 560" version="1.1" xmlns="http://www.w3.org/2000/svg" xmlns:xlink="http://www.w3.org/1999/xlink">
    <!-- Generator: sketchtool 51.2 (57519) - http://www.bohemiancoding.com/sketch -->
    <title>phone-plus</title>
    <desc>Created with sketchtool.</desc>
    <defs></defs>
    <g id="Page-1" stroke="none" stroke-width="1" fill="none" fill-rule="evenodd">
        <g id="uA112-phone-plus" fill="#000000" fill-rule="nonzero">
            <path d="M526.506661,524 C528.175622,524 529.099273,523.014981 528.991225,521.391284 L520.541227,394.409415 C520.326544,391.183283 516.831988,387.479948 513.604229,387.071566 L416.082951,374.73298 C410.07737,373.973142 399.801021,377.398461 395.453915,381.606955 L347.043609,428.473644 L336.862163,423.287824 C292.934122,400.913504 252.37995,371.86865 217.953237,337.51454 C183.53362,303.167512 155.423335,263.717006 133.40302,219.769254 L127.372376,207.733401 L183.750413,166.076951 C187.024492,163.657808 189.157889,157.098249 187.936064,153.235526 L156.320711,53.2855335 C155.012678,49.1502666 149.111514,44.4897014 144.765947,44.1709453 L33.5215552,36.0109443 C31.9079753,35.892585 31,36.7357016 31,38.3311267 C34.4707653,166.332302 85.4359972,287.062256 176.930237,378.363542 C268.430961,469.671298 389.433757,520.536293 516.313106,524 L526.506661,524 Z M168.206634,217.349359 C187.695611,253.50206 211.754968,286.122203 240.556756,314.863251 C269.925736,344.170295 304.188108,369.390947 341.312165,389.483157 L373.196013,358.61596 C384.518754,347.654258 404.460253,341.007345 420.099633,342.986071 L517.620911,355.324656 C536.033274,357.654225 551.238403,373.767769 552.47061,392.284677 L560.920607,519.266545 C562.258696,539.374595 546.669056,556 526.506661,556 L515.881444,556 C380.623171,552.364363 251.732398,498.215091 154.326717,401.014831 C56.9148796,303.808427 2.64394361,175.172346 -0.994174227,40.3920623 L-1,38.3311267 C-1,18.1344086 15.7095834,2.61842738 35.8625305,4.09668677 L147.106922,12.2566877 C164.508678,13.5331417 181.571877,27.0091526 186.830778,43.6348422 L218.446131,143.584835 C223.794188,160.49239 217.036581,181.27002 202.766713,191.813701 L168.206634,217.349359 Z M497,140 C500.85,140 504,143.15 504,147 L504,161 C504,164.85 500.85,168 497,168 L420,168 L420,245 C420,248.85 416.85,252 413,252 L399,252 C395.15,252 392,248.85 392,245 L392,168 L315,168 C311.15,168 308,164.85 308,161 L308,147 C308,143.15 311.15,140 315,140 L392,140 L392,63 C392,59.15 395.15,56 399,56 L413,56 C416.85,56 420,59.15 420,63 L420,140 L497,140 Z" id="phone-plus"></path>
        </g>
    </g>
</svg>