<?xml version="1.0" encoding="UTF-8"?>
<svg width="560px" height="560px" viewBox="0 0 560 560" version="1.1" xmlns="http://www.w3.org/2000/svg" xmlns:xlink="http://www.w3.org/1999/xlink">
    <!-- Generator: sketchtool 51.2 (57519) - http://www.bohemiancoding.com/sketch -->
    <title>phone-hang</title>
    <desc>Created with sketchtool.</desc>
    <defs></defs>
    <g id="Page-1" stroke="none" stroke-width="1" fill="none" fill-rule="evenodd">
        <g id="uA108-phone-hang" fill="#000000" fill-rule="nonzero">
            <path d="M102.701465,358.424331 L102.707383,358.428775 L102.713258,358.424903 L102.707374,358.419752 L102.701465,358.424331 Z M102.969094,358.284402 L102.991737,358.279643 C102.995127,358.278536 102.998426,358.277499 103.001635,358.276532 C102.99277,358.279204 102.98184,358.281863 102.969094,358.284402 Z M158.564037,315.129105 C158.841553,314.914022 159.294355,314.447698 159.808671,313.779233 C160.456443,312.937314 161.091379,311.91553 161.642034,310.812821 C162.192778,309.709935 162.628424,308.587755 162.912726,307.562898 C163.138704,306.748292 163.239977,306.103879 163.245399,305.750333 L164.056822,252.84495 L175.980689,248.977932 C210.388134,237.819286 246.518291,231.874962 282.253841,231.868127 C317.998497,231.861291 353.113054,237.784834 387.38037,249.201447 L401.347555,253.854801 L393.139028,308.82661 C393.260347,309.297813 393.41164,309.733591 393.632226,310.166278 C393.852738,310.598818 394.116344,310.976972 394.369397,311.246888 C394.448898,311.331685 416.854395,323.008017 461.585891,346.275883 C462.1974,346.593884 464.942829,346.273742 465.461978,345.825664 L522.752948,296.377753 C457.768975,236.136729 372.71739,202.031193 282.268888,202.048491 C190.564259,202.06603 104.392175,237.158717 39.0473842,298.996584 L37.0775893,300.966379 L102.55751,358.288558 C102.697562,358.298267 121.366404,343.911782 158.564037,315.129105 Z M525.614217,299.059383 L525.65846,299.01269 C525.56846,298.877852 525.487115,298.737137 525.414389,298.591642 L525.275936,298.730095 L525.444845,298.899005 C525.501325,298.952451 525.557779,299.005907 525.614217,299.059383 Z M282.260544,266.916611 C254.3483,266.92195 226.053715,270.992329 198.712813,278.704384 L198.289762,306.287818 C198.087465,319.477715 190.460598,334.750821 180.034283,342.831539 L124.014368,386.24871 C111.170331,396.203237 92.0039904,395.630756 79.7728827,384.923447 L10.6146633,324.381225 C-2.93038774,312.523669 -3.60523146,292.083158 9.12578666,279.352139 L14.599947,273.877979 C86.5762174,205.676107 181.413101,167.019295 282.262185,167.000007 C383.112994,166.980719 477.938517,205.602651 549.720676,273.617786 L550.891,274.779117 C563.654087,287.542204 562.913545,308.012849 549.244475,319.810641 L488.362231,372.358185 C476.979424,382.182701 458.754672,384.307876 445.415495,377.371133 L378.252359,342.444434 C364.636075,335.363587 356.20798,318.831638 358.474869,303.650471 L362.284305,278.139002 C336.023659,270.722472 309.328241,266.911434 282.260544,266.916611 Z" id="phone-hang"></path>
        </g>
    </g>
</svg>