<?xml version="1.0" encoding="UTF-8"?>
<svg width="560px" height="560px" viewBox="0 0 560 560" version="1.1" xmlns="http://www.w3.org/2000/svg" xmlns:xlink="http://www.w3.org/1999/xlink">
    <!-- Generator: sketchtool 51.2 (57519) - http://www.bohemiancoding.com/sketch -->
    <title>pipedrive</title>
    <desc>Created with sketchtool.</desc>
    <defs></defs>
    <g id="Page-1" stroke="none" stroke-width="1" fill="none" fill-rule="evenodd">
        <g id="uA334-pipedrive" fill="#000000">
            <path d="M314.387755,50 C395.575022,50 461.390306,128.978341 461.390306,226.403061 C461.390306,323.827782 395.575022,402.806122 314.387755,402.806122 C281.294367,402.806122 250.75507,389.683681 226.186224,367.53843 L226.186224,511 L135.632653,511 L135.632653,146.739603 C135.632653,143.97265 133.391259,141.729592 130.615876,141.729592 L98,141.729592 L98,62.9362245 L192.077548,62.9362245 C207.318123,62.9362245 220.301886,72.6020935 225.236943,86.1305437 C249.966369,63.4637119 280.866805,50 314.387755,50 L314.387755,50 L314.387755,50 L314.387755,50 L314.387755,50 Z M295.571429,315.780612 C336.489811,315.780612 369.660714,275.76492 369.660714,226.403061 C369.660714,177.041203 336.489811,137.02551 295.571429,137.02551 C254.653046,137.02551 221.482143,177.041203 221.482143,226.403061 C221.482143,275.76492 254.653046,315.780612 295.571429,315.780612 L295.571429,315.780612 L295.571429,315.780612 L295.571429,315.780612 L295.571429,315.780612 Z" id="pipedrive"></path>
        </g>
    </g>
</svg>