<?xml version="1.0" encoding="UTF-8"?>
<svg width="560px" height="560px" viewBox="0 0 560 560" version="1.1" xmlns="http://www.w3.org/2000/svg" xmlns:xlink="http://www.w3.org/1999/xlink">
    <!-- Generator: sketchtool 51.2 (57519) - http://www.bohemiancoding.com/sketch -->
    <title>podio</title>
    <desc>Created with sketchtool.</desc>
    <defs></defs>
    <g id="Page-1" stroke="none" stroke-width="1" fill="none" fill-rule="evenodd">
        <g id="uA338-podio" fill="#000000">
            <path d="M217.41118,308.381561 C217.24069,308.213722 217.070704,308.045064 216.901228,307.875587 C181.833701,272.80806 181.833701,215.952365 216.901228,180.884838 C251.968755,145.817311 308.824449,145.817311 343.891976,180.884838 C368.761989,205.754851 375.994102,241.583651 365.588314,272.827217 C364.782113,274.699218 363.601388,277.094211 362.135735,279.085643 C359.255833,282.998665 355.008827,285.768392 352.937587,286.802068 C348.680416,288.926657 343.040451,289.81989 338.551172,289.40513 C327.693062,288.401959 322.319671,281.114519 322.319671,281.114519 C322.319671,281.114519 317.915175,276.920352 316.408896,270.763037 C314.902617,264.605722 315.493724,259.812375 316.451805,256.583974 C320.224686,243.870676 316.84678,229.018166 306.810678,218.982063 C292.222586,204.393972 268.570617,204.393972 253.982526,218.982063 C239.394435,233.570154 239.394435,257.222123 253.982526,271.810214 L372.845858,390.673546 C382.945315,400.773003 382.945315,417.147443 372.845867,427.246891 C362.746419,437.346339 346.371979,437.346339 336.272531,427.246891 L217.409191,308.38355 L217.41118,308.381561 Z M399.59219,325.796328 C399.559813,325.746352 399.53104,325.701081 399.505625,325.660447 C436.744769,269.978014 430.90596,192.720299 381.989201,143.80354 C326.442238,88.2565769 234.350966,88.2565769 178.804003,143.80354 C123.25704,199.350502 123.25704,291.441775 178.804003,346.988738 C180.541575,348.726309 182.314905,350.409528 184.121758,352.038393 L272.511615,440.634107 C272.489996,440.633239 272.468377,440.632368 272.446758,440.631493 L296.399051,464.583786 C296.88517,465.002576 297.359141,465.442277 297.819742,465.902878 C298.280343,466.363479 298.719621,466.837027 299.137605,467.322339 L299.161469,467.346204 C307.883622,477.504001 307.298101,492.794657 297.667344,502.425414 C287.567896,512.524862 271.193456,512.524862 261.094008,502.425414 L141.214741,382.546147 C65.925234,306.157047 66.262657,183.198214 142.230667,107.230204 C218.537606,30.9232653 342.255598,30.9232653 418.562537,107.230204 C485.584447,174.252115 493.739673,277.849095 443.028214,353.771914 C441.916347,355.705961 440.533961,357.526945 438.881056,359.17985 C428.781609,369.279297 412.407169,369.279297 402.307721,359.17985 C393.213504,350.085633 392.308327,335.903398 399.59219,325.796328 L399.59219,325.796328 Z" id="podio"></path>
        </g>
    </g>
</svg>