<?xml version="1.0" encoding="UTF-8"?>
<svg width="560px" height="560px" viewBox="0 0 560 560" version="1.1" xmlns="http://www.w3.org/2000/svg" xmlns:xlink="http://www.w3.org/1999/xlink">
    <!-- Generator: sketchtool 51.2 (57519) - http://www.bohemiancoding.com/sketch -->
    <title>product-hunt</title>
    <desc>Created with sketchtool.</desc>
    <defs></defs>
    <g id="Page-1" stroke="none" stroke-width="1" fill="none" fill-rule="evenodd">
        <g id="uA363-product-hunt" fill="#000000" fill-rule="nonzero">
            <g id="product-hunt" transform="translate(32.000000, 32.000000)">
                <path d="M318.3,210.8 C318.3,231.3 301.6,248 281.1,248 L210.8,248 L210.8,173.6 L281.1,173.6 C301.6,173.6 318.3,190.3 318.3,210.8 Z M496,248 C496,385 385,496 248,496 C111,496 0,385 0,248 C0,111 111,0 248,0 C385,0 496,111 496,248 Z M367.9,210.8 C367.9,162.9 329,124 281.1,124 L161.2,124 L161.2,372 L210.8,372 L210.8,297.6 L281.1,297.6 C329,297.6 367.9,258.7 367.9,210.8 Z" id="Shape"></path>
            </g>
        </g>
    </g>
</svg>