<?xml version="1.0" encoding="UTF-8"?>
<svg width="560px" height="560px" viewBox="0 0 560 560" version="1.1" xmlns="http://www.w3.org/2000/svg" xmlns:xlink="http://www.w3.org/1999/xlink">
    <!-- Generator: sketchtool 51.2 (57519) - http://www.bohemiancoding.com/sketch -->
    <title>question-square</title>
    <desc>Created with sketchtool.</desc>
    <defs></defs>
    <g id="Page-1" stroke="none" stroke-width="1" fill="none" fill-rule="evenodd">
        <g id="uA021-question-square" fill="#000000" fill-rule="nonzero">
            <g id="question-square" transform="translate(56.000000, 56.000000)">
                <path d="M400,0 L48,0 C21.49,0 0,21.49 0,48 L0,400 C0,426.51 21.49,448 48,448 L400,448 C426.51,448 448,426.51 448,400 L448,48 C448,21.49 426.51,0 400,0 Z M416,400 C416,408.822 408.822,416 400,416 L48,416 C39.178,416 32,408.822 32,400 L32,48 C32,39.178 39.178,32 48,32 L400,32 C408.822,32 416,39.178 416,48 L416,400 Z M224,308 C208.536,308 196,320.536 196,336 C196,351.464 208.536,364 224,364 C239.464,364 252,351.464 252,336 C252,320.536 239.464,308 224,308 Z M231.67,284 L215.67,284 C209.043,284 203.67,278.627 203.67,272 L203.67,271.619 C203.67,201.276 281.11,208 281.11,164.211 C281.11,144.195 263.349,124 223.67,124 C194.526,124 179.405,133.649 164.459,152.692 C160.551,157.672 153.405,158.687 148.211,155.068 L135.077,145.918 C129.452,141.999 128.217,134.147 132.432,128.741 C153.658,101.514 178.842,84 223.67,84 C275.99,84 321.11,113.751 321.11,164.211 C321.11,231.625 243.67,228.06 243.67,271.619 L243.67,272 C243.67,278.627 238.297,284 231.67,284 Z" id="Shape"></path>
            </g>
        </g>
    </g>
</svg>