<?xml version="1.0" encoding="UTF-8"?>
<svg width="560px" height="560px" viewBox="0 0 560 560" version="1.1" xmlns="http://www.w3.org/2000/svg" xmlns:xlink="http://www.w3.org/1999/xlink">
    <!-- Generator: sketchtool 51.2 (57519) - http://www.bohemiancoding.com/sketch -->
    <title>question-circle</title>
    <desc>Created with sketchtool.</desc>
    <defs></defs>
    <g id="Page-1" stroke="none" stroke-width="1" fill="none" fill-rule="evenodd">
        <g id="uA020-question-circle" fill="#000000" fill-rule="nonzero">
            <g id="question-circle" transform="translate(32.000000, 32.000000)">
                <path d="M248,332 C232.536,332 220,344.536 220,360 C220,375.464 232.536,388 248,388 C263.464,388 276,375.464 276,360 C276,344.536 263.464,332 248,332 Z M255.67,308 L239.67,308 C233.043,308 227.67,302.627 227.67,296 L227.67,295.619 C227.67,225.276 305.11,232 305.11,188.211 C305.11,168.195 287.349,148 247.67,148 C218.526,148 203.405,157.649 188.459,176.692 C184.551,181.672 177.405,182.687 172.211,179.068 L159.077,169.918 C153.452,165.999 152.217,158.147 156.432,152.741 C177.658,125.514 202.842,108 247.67,108 C299.99,108 345.11,137.751 345.11,188.211 C345.11,255.625 267.67,252.06 267.67,295.619 L267.67,296 C267.67,302.627 262.297,308 255.67,308 Z M248,32 C366.621,32 464,128.075 464,248 C464,367.291 367.39,464 248,464 C128.756,464 32,367.438 32,248 C32,128.797 128.602,32 248,32 Z M248,0 C111.043,0 0,111.083 0,248 C0,384.997 111.043,496 248,496 C384.957,496 496,384.997 496,248 C496,111.083 384.957,0 248,0 Z" id="Shape"></path>
            </g>
        </g>
    </g>
</svg>