<?xml version="1.0" encoding="UTF-8"?>
<svg width="560px" height="560px" viewBox="0 0 560 560" version="1.1" xmlns="http://www.w3.org/2000/svg" xmlns:xlink="http://www.w3.org/1999/xlink">
    <!-- Generator: sketchtool 51.2 (57519) - http://www.bohemiancoding.com/sketch -->
    <title>rec</title>
    <desc>Created with sketchtool.</desc>
    <defs></defs>
    <g id="Page-1" stroke="none" stroke-width="1" fill="none" fill-rule="evenodd">
        <g id="uA305-rec" fill="#000000" fill-rule="nonzero">
            <g id="rec" transform="translate(0.000000, 62.000000)">
                <path d="M497.777778,0 C532.097222,0 560,27.9027778 560,62.2222222 L560,373.333333 C560,407.652778 532.097222,435.555556 497.777778,435.555556 L62.2222222,435.555556 C27.9027778,435.555556 0,407.652778 0,373.333333 L0,62.2222222 C0,27.9027778 27.9027778,0 62.2222222,0 L497.777778,0 Z M31.1111111,373.333333 C31.1111111,390.444444 45.1111111,404.444444 62.2222222,404.444444 L497.777778,404.444444 C514.888889,404.444444 528.888889,390.444444 528.888889,373.333333 L528.888889,77.7777778 C528.888889,52.1111111 514.888889,31.1111111 497.777778,31.1111111 L62.2222222,31.1111111 C45.1111111,31.1111111 31.1111111,52.1111111 31.1111111,77.7777778 L31.1111111,373.333333 Z M189.971,275 L170.032,245.798 L153.076,245.798 L153.076,275 L121.99,275 L121.99,165.1 L172.23,165.1 C202.217,165.1 221.057,180.643 221.057,205.763 C221.057,221.934 213.207,233.866 199.548,240.46 L223.255,275 L189.971,275 Z M189.657,205.763 C189.657,195.558 183.22,189.592 170.346,189.592 L153.076,189.592 L153.076,221.777 L170.346,221.777 C183.22,221.777 189.657,215.811 189.657,205.763 Z M268.942,250.979 L326.404,250.979 L326.404,275 L238.17,275 L238.17,165.1 L324.363,165.1 L324.363,189.121 L268.942,189.121 L268.942,207.647 L317.769,207.647 L317.769,230.883 L268.942,230.883 L268.942,250.979 Z M398.31,277.198 C363.456,277.198 337.865,253.491 337.865,220.05 C337.865,186.609 363.456,162.902 398.31,162.902 C418.563,162.902 434.891,170.281 445.567,183.626 L425.785,201.524 C418.877,193.203 410.399,188.65 399.88,188.65 C381.825,188.65 369.265,201.21 369.265,220.05 C369.265,238.89 381.825,251.45 399.88,251.45 C410.399,251.45 418.877,246.897 425.785,238.576 L445.567,256.474 C434.891,269.819 418.563,277.198 398.31,277.198 Z" id="Combined-Shape"></path>
            </g>
        </g>
    </g>
</svg>