<?xml version="1.0" encoding="UTF-8"?>
<svg width="560px" height="560px" viewBox="0 0 560 560" version="1.1" xmlns="http://www.w3.org/2000/svg" xmlns:xlink="http://www.w3.org/1999/xlink">
    <!-- Generator: sketchtool 51.2 (57519) - http://www.bohemiancoding.com/sketch -->
    <title>receipt</title>
    <desc>Created with sketchtool.</desc>
    <defs></defs>
    <g id="Page-1" stroke="none" stroke-width="1" fill="none" fill-rule="evenodd">
        <g id="uA252-receipt" fill="#000000" fill-rule="nonzero">
            <g id="receipt" transform="translate(56.000000, 24.000000)">
                <path d="M344,240 L104,240 C99.6,240 96,243.6 96,248 L96,264 C96,268.4 99.6,272 104,272 L344,272 C348.4,272 352,268.4 352,264 L352,248 C352,243.6 348.4,240 344,240 Z M344,336 L104,336 C99.6,336 96,339.6 96,344 L96,360 C96,364.4 99.6,368 104,368 L344,368 C348.4,368 352,364.4 352,360 L352,344 C352,339.6 348.4,336 344,336 Z M418.1,0 C412.3,0 406.3,1.8 400.8,5.7 L357.3,37 L318.7,9.2 C310.3,3.2 300.5,0.1 290.6,0.1 C280.8,0.1 271,3.1 262.6,9.2 L224,37 L185.4,9.2 C177,3.2 167.1,0.1 157.3,0.1 C147.5,0.1 137.7,3.1 129.3,9.2 L90.7,37 L47.2,5.7 C41.8,1.8 35.8,0 29.9,0 C14.4,0.1 0,12.3 0,29.9 L0,482.2 C0,499.5 14.3,512 29.9,512 C35.7,512 41.7,510.2 47.2,506.3 L90.7,475 L129.3,502.8 C137.7,508.8 147.5,511.9 157.4,511.9 C167.2,511.9 177,508.9 185.4,502.8 L224,475 L262.6,502.8 C271,508.8 280.9,511.9 290.7,511.9 C300.5,511.9 310.3,508.9 318.7,502.8 L357.3,475 L400.8,506.3 C406.2,510.2 412.2,512 418.1,512 C433.6,512 447.9,499.8 447.9,482.2 L447.9,29.9 C448,12.5 433.7,0 418.1,0 Z M416,477.8 L376,449 L357.3,435.5 L338.6,449 L300,476.8 C297.2,478.8 294,479.8 290.7,479.8 C287.3,479.8 284.1,478.7 281.3,476.7 L242.7,449 L224,435.5 L205.3,449 L166.7,476.8 C163.9,478.8 160.7,479.8 157.3,479.8 C153.9,479.8 150.7,478.7 147.9,476.7 L109.3,449 L90.6,435.5 L72,449 L32,478.4 L32,34.2 L72,63 L90.7,76.5 L109.4,63 L148,35.2 C150.8,33.2 154,32.2 157.3,32.2 C160.7,32.2 163.9,33.3 166.7,35.3 L205.3,63 L224,76.5 L242.7,63 L281.3,35.2 C284.1,33.2 287.3,32.2 290.7,32.2 C294.1,32.2 297.3,33.3 300.1,35.3 L338.7,63 L357.4,76.5 L376,63 L416,34.2 L416,477.8 Z M344,144 L104,144 C99.6,144 96,147.6 96,152 L96,168 C96,172.4 99.6,176 104,176 L344,176 C348.4,176 352,172.4 352,168 L352,152 C352,147.6 348.4,144 344,144 Z" id="Shape"></path>
            </g>
        </g>
    </g>
</svg>