<?xml version="1.0" encoding="UTF-8"?>
<svg width="560px" height="560px" viewBox="0 0 560 560" version="1.1" xmlns="http://www.w3.org/2000/svg" xmlns:xlink="http://www.w3.org/1999/xlink">
    <!-- Generator: sketchtool 51.2 (57519) - http://www.bohemiancoding.com/sketch -->
    <title>record-tape</title>
    <desc>Created with sketchtool.</desc>
    <defs></defs>
    <g id="Page-1" stroke="none" stroke-width="1" fill="none" fill-rule="evenodd">
        <g id="uA304-record-tape" fill="#000000" fill-rule="nonzero">
            <g id="record-tape" transform="translate(0.000000, 62.000000)">
                <path d="M174,301 L385.888889,301 C390.166667,301 393.666667,297.5 393.666667,293.222222 L393.666667,277.666667 C393.666667,273.388889 390.166667,269.888889 385.888889,269.888889 L174,269.888889 C169.722222,269.888889 166.222222,273.388889 166.222222,277.666667 L166.222222,293.222222 C166.222222,297.5 169.722222,301 174,301 Z M168.666667,301.111111 C211.638889,301.111111 246.444444,266.305556 246.444444,223.333333 C246.444444,180.361111 211.638889,145.555556 168.666667,145.555556 C125.694444,145.555556 90.8888889,180.361111 90.8888889,223.333333 C90.8888889,266.305556 125.694444,301.111111 168.666667,301.111111 Z M168.666667,176.666667 C194.430556,176.666667 215.333333,197.569444 215.333333,223.333333 C215.333333,249.097222 194.430556,270 168.666667,270 C142.902778,270 122,249.097222 122,223.333333 C122,197.569444 142.902778,176.666667 168.666667,176.666667 Z M391.666667,301.111111 C434.638889,301.111111 469.444444,266.305556 469.444444,223.333333 C469.444444,180.361111 434.638889,145.555556 391.666667,145.555556 C348.694444,145.555556 313.888889,180.361111 313.888889,223.333333 C313.888889,266.305556 348.694444,301.111111 391.666667,301.111111 Z M391.666667,176.666667 C417.430556,176.666667 438.333333,197.569444 438.333333,223.333333 C438.333333,249.097222 417.430556,270 391.666667,270 C365.902778,270 345,249.097222 345,223.333333 C345,197.569444 365.902778,176.666667 391.666667,176.666667 Z M497.777778,0 L62.2222222,0 C27.9027778,0 0,27.9027778 0,62.2222222 L0,373.333333 C0,407.652778 27.9027778,435.555556 62.2222222,435.555556 L497.777778,435.555556 C532.097222,435.555556 560,407.652778 560,373.333333 L560,62.2222222 C560,27.9027778 532.097222,0 497.777778,0 Z M528.888889,373.333333 C528.888889,390.444444 514.888889,404.444444 497.777778,404.444444 L295.555556,404.444444 L77.7777778,404.444444 L62.2222222,404.444444 C45.1111111,404.444444 31.1111111,390.444444 31.1111111,373.333333 L31.1111111,124.444444 L528.888889,124.444444 L528.888889,373.333333 Z M528.888889,124.444444 L31.1111111,124.444444 L31.1111111,77.7777778 C31.1111111,52.1111111 45.1111111,31.1111111 62.2222222,31.1111111 L497.777778,31.1111111 C514.888889,31.1111111 528.888889,52.1111111 528.888889,77.7777778 L528.888889,124.444444 Z" id="Shape"></path>
            </g>
        </g>
    </g>
</svg>