<?xml version="1.0" encoding="UTF-8"?>
<svg width="560px" height="560px" viewBox="0 0 560 560" version="1.1" xmlns="http://www.w3.org/2000/svg" xmlns:xlink="http://www.w3.org/1999/xlink">
    <!-- Generator: sketchtool 51.2 (57519) - http://www.bohemiancoding.com/sketch -->
    <title>reply</title>
    <desc>Created with sketchtool.</desc>
    <defs></defs>
    <g id="Page-1" stroke="none" stroke-width="1" fill="none" fill-rule="evenodd">
        <g id="uA257-reply" fill="#000000" fill-rule="nonzero">
            <g id="reply" transform="translate(0.000000, 31.000000)">
                <path d="M10.7848611,244.659722 L181.894028,423.548611 C205.926389,448.674722 248.888889,431.899028 248.888889,396.666667 L248.888889,311.266667 C399.024306,313.028333 461.866806,327.53 425.045833,458.160694 C416.936528,486.85875 449.785972,508.941806 473.345833,491.712083 C505.711111,468.048194 560,414.331944 560,321.990278 C560,155.655694 409.745,126.539583 248.888889,124.609722 L248.888889,38.9044444 C248.888889,3.64194444 205.901111,-13.0763889 181.893056,12.0225 L10.7848611,190.895833 C-3.59527778,205.936111 -3.59527778,229.619444 10.7848611,244.659722 Z M33.2694444,212.401389 L204.380556,33.5125 C209.172639,28.4958333 217.777778,31.8286111 217.777778,38.8888889 L217.777778,155.555556 C370.5275,155.555556 528.888889,166.425 528.888889,321.990278 C528.888889,394.323611 490,440.766667 454.980556,466.375 C504.887639,289.437361 384.412778,280 217.777778,280 L217.777778,396.666667 C217.777778,403.725 209.176528,407.059722 204.380556,402.043056 L33.2694444,223.154167 C30.3818693,220.151484 30.3818693,215.404071 33.2694444,212.401389 Z" id="Shape"></path>
            </g>
        </g>
    </g>
</svg>