<?xml version="1.0" encoding="UTF-8"?>
<svg width="560px" height="560px" viewBox="0 0 560 560" version="1.1" xmlns="http://www.w3.org/2000/svg" xmlns:xlink="http://www.w3.org/1999/xlink">
    <!-- Generator: sketchtool 51.2 (57519) - http://www.bohemiancoding.com/sketch -->
    <title>reply-all</title>
    <desc>Created with sketchtool.</desc>
    <defs></defs>
    <g id="Page-1" stroke="none" stroke-width="1" fill="none" fill-rule="evenodd">
        <g id="uA256-reply-all" fill="#000000" fill-rule="nonzero">
            <g id="reply-all" transform="translate(0.000000, 62.000000)">
                <path d="M102.441111,208.669028 L257.998611,364.205139 C277.4625,383.659306 311.111111,370.019028 311.111111,342.20375 L311.111111,273.030139 C429.313889,277.269028 455.875,300.475972 428.944444,395.938472 C420.826389,424.706528 453.736111,446.698194 477.254167,429.489861 C527.391667,392.827361 560,341.027361 560,277.852361 C560,129.199583 423.402778,105.545417 311.111111,101.812083 L311.111111,31.14125 C311.111111,3.34541667 277.481944,-10.3434722 257.998611,9.13986111 L102.441111,164.66625 C90.2970833,176.819028 90.2970833,196.51625 102.441111,208.669028 Z M124.444444,186.667639 L280,31.1120833 L280,132.320417 C406.549306,133.628056 528.888889,150.078056 528.888889,277.852361 C528.888889,341.144028 489.523611,382.035694 458.888889,404.445417 C498.729583,263.213611 421.624583,242.498472 280,241.209306 L280,342.223194 L124.444444,186.667639 Z M9.11166667,164.668194 L164.667222,9.13791667 C177.760139,-3.955 197.231806,-2.04847222 208.600972,9.03583333 L31.1111111,186.667639 L208.603889,364.304306 C197.229861,375.390556 177.7475,377.280556 164.668194,364.20125 L9.11263889,208.667083 C-3.03722222,196.51625 -3.03722222,176.818056 9.11166667,164.668194 Z" id="Shape"></path>
            </g>
        </g>
    </g>
</svg>