<?xml version="1.0" encoding="UTF-8"?>
<svg width="560px" height="560px" viewBox="0 0 560 560" version="1.1" xmlns="http://www.w3.org/2000/svg" xmlns:xlink="http://www.w3.org/1999/xlink">
    <!-- Generator: sketchtool 51.2 (57519) - http://www.bohemiancoding.com/sketch -->
    <title>robot</title>
    <desc>Created with sketchtool.</desc>
    <defs></defs>
    <g id="Page-1" stroke="none" stroke-width="1" fill="none" fill-rule="evenodd">
        <g id="uA089-robot" fill="#000000" fill-rule="nonzero">
            <g id="robot" transform="translate(0.000000, 31.000000)">
                <path d="M155.555556,404.444444 L217.777778,404.444444 L217.777778,373.333333 L155.555556,373.333333 L155.555556,404.444444 Z M186.666667,217.777778 C169.458333,217.777778 155.555556,231.680556 155.555556,248.888889 C155.555556,266.097222 169.458333,280 186.666667,280 C203.875,280 217.777778,266.097222 217.777778,248.888889 C217.777778,231.680556 203.875,217.777778 186.666667,217.777778 Z M373.333333,217.777778 C356.125,217.777778 342.222222,231.680556 342.222222,248.888889 C342.222222,266.097222 356.125,280 373.333333,280 C390.541667,280 404.444444,266.097222 404.444444,248.888889 C404.444444,231.680556 390.541667,217.777778 373.333333,217.777778 Z M528.888889,217.777778 L497.777778,217.777778 L497.777778,186.666667 C497.777778,135.138889 455.972222,93.3333333 404.444444,93.3333333 L295.555556,93.3333333 L295.555556,15.5555556 C295.555556,7 288.555556,0 280,0 C271.444444,0 264.444444,7 264.444444,15.5555556 L264.444444,93.3333333 L155.555556,93.3333333 C104.027778,93.3333333 62.2222222,135.138889 62.2222222,186.666667 L62.2222222,217.777778 L31.1111111,217.777778 C13.9027778,217.777778 0,231.680556 0,248.888889 L0,373.333333 C0,390.541667 13.9027778,404.444444 31.1111111,404.444444 L62.2222222,404.444444 L62.2222222,435.555556 C62.2222222,469.875 90.125,497.777778 124.444444,497.777778 L435.555556,497.777778 C469.875,497.777778 497.777778,469.875 497.777778,435.555556 L497.777778,404.444444 L528.888889,404.444444 C546.097222,404.444444 560,390.541667 560,373.333333 L560,248.888889 C560,231.680556 546.097222,217.777778 528.888889,217.777778 Z M62.2222222,373.333333 L31.1111111,373.333333 L31.1111111,248.888889 L62.2222222,248.888889 L62.2222222,373.333333 Z M466.666667,435.555556 C466.666667,452.666667 452.666667,466.666667 435.555556,466.666667 L124.444444,466.666667 C107.333333,466.666667 93.3333333,452.666667 93.3333333,435.555556 L93.3333333,186.666667 C93.3333333,152.347222 121.236111,124.444444 155.555556,124.444444 L404.444444,124.444444 C438.763889,124.444444 466.666667,152.347222 466.666667,186.666667 L466.666667,435.555556 Z M528.888889,373.333333 L497.777778,373.333333 L497.777778,248.888889 L528.888889,248.888889 L528.888889,373.333333 Z M342.222222,404.444444 L404.444444,404.444444 L404.444444,373.333333 L342.222222,373.333333 L342.222222,404.444444 Z M248.888889,404.444444 L311.111111,404.444444 L311.111111,373.333333 L248.888889,373.333333 L248.888889,404.444444 Z" id="Shape"></path>
            </g>
        </g>
    </g>
</svg>