<?xml version="1.0" encoding="UTF-8"?>
<svg width="560px" height="560px" viewBox="0 0 560 560" version="1.1" xmlns="http://www.w3.org/2000/svg" xmlns:xlink="http://www.w3.org/1999/xlink">
    <!-- Generator: sketchtool 51.2 (57519) - http://www.bohemiancoding.com/sketch -->
    <title>route</title>
    <desc>Created with sketchtool.</desc>
    <defs></defs>
    <g id="Page-1" stroke="none" stroke-width="1" fill="none" fill-rule="evenodd">
        <g id="uA258-route" fill="#000000" fill-rule="nonzero">
            <g id="route" transform="translate(24.000000, 24.000000)">
                <path d="M432,352 L320,352 C293.5,352 272,330.5 272,304 C272,277.5 293.5,256 320,256 L416,256 C416,256 512,149 512,96 C512,43 469,0 416,0 C363,0 320,43 320,96 C320,130.6 360.9,188.2 389.3,224 L320,224 C275.9,224 240,259.9 240,304 C240,348.1 275.9,384 320,384 L432,384 C458.5,384 480,405.5 480,432 C480,458.5 458.5,480 432,480 L122.7,480 C151.1,444.2 192,386.6 192,352 C192,299 149,256 96,256 C43,256 0,299 0,352 C0,405 96,512 96,512 L432,512 C476.1,512 512,476.1 512,432 C512,387.9 476.1,352 432,352 Z M352,96 C352,60.7 380.7,32 416,32 C451.3,32 480,60.7 480,96 C480,116.4 449.9,164 416,206.4 C382,163.8 352,115.8 352,96 Z M32,352 C32,316.7 60.7,288 96,288 C131.3,288 160,316.7 160,352 C160,372.4 129.9,420 96,462.4 C62,419.8 32,371.8 32,352 Z M96,336 C74.8,336 74.9,368 96,368 C117.2,368 117.1,336 96,336 Z M416,80 C394.8,80 394.9,112 416,112 C437.2,112 437.1,80 416,80 Z" id="Shape"></path>
            </g>
        </g>
    </g>
</svg>