<?xml version="1.0" encoding="UTF-8"?>
<svg width="560px" height="560px" viewBox="0 0 560 560" version="1.1" xmlns="http://www.w3.org/2000/svg" xmlns:xlink="http://www.w3.org/1999/xlink">
    <!-- Generator: sketchtool 51.2 (57519) - http://www.bohemiancoding.com/sketch -->
    <title>safari</title>
    <desc>Created with sketchtool.</desc>
    <defs></defs>
    <g id="Page-1" stroke="none" stroke-width="1" fill="none" fill-rule="evenodd">
        <g id="uA343-safari" fill="#000000" fill-rule="nonzero">
            <g id="safari" transform="translate(32.000000, 32.000000)">
                <path d="M228.9,248.8 C228.9,239.7 235.5,231.1 245.2,231.1 C254.1,231.1 262.6,237.5 262.6,247.2 C262.6,256.3 256.2,264.9 246.5,264.9 C237.5,264.9 228.9,258.2 228.9,248.8 Z M496,248 C496,385 385,496 248,496 C111,496 0,385 0,248 C0,111 111,0 248,0 C385,0 496,111 496,248 Z M469.4,248 C469.4,125.7 370.3,26.6 248,26.6 C125.7,26.6 26.6,125.7 26.6,248 C26.6,370.3 125.7,469.4 248,469.4 C370.3,469.4 469.4,370.3 469.4,248 Z M396.9,344.6 C396.9,348.2 409.9,354.8 413.2,356.8 C385.8,398.3 343.4,428.2 295.3,440.1 L290.9,421.6 C290.6,419.1 289,418.8 286.7,418.8 C284.8,418.8 283.7,421.6 283.9,423 L288.3,441.8 C275,444.6 261.5,446 247.9,446 C211.6,446 175.9,435.8 144.9,416.9 C146.6,414.1 157.1,398.9 157.1,396.7 C157.1,394.8 155.4,393.1 153.5,393.1 C149.6,393.1 141.3,409.7 138.8,413 C97,385.3 66.8,342.4 55.2,293.4 L74.3,289.2 C76.5,288.6 77.1,287 77.1,285 C77.1,283.1 74.3,282 72.7,282.2 L54,286.5 C51.5,273.8 50.1,261 50.1,248 C50.1,210.9 60.6,174.4 80.3,143.1 C83.1,144.8 96.4,153.9 98.6,153.9 C100.5,153.9 102.2,152.5 102.2,150.6 C102.2,146.7 87.5,139.3 84.2,137 C112.4,95.8 155.3,66.1 204,55.1 L208.2,73.6 C208.8,75.8 210.4,76.4 212.4,76.4 C214.4,76.4 215.4,73.6 215.2,72 L211,53.7 C223.2,51.5 235.6,50.1 248.1,50.1 C285.2,50.1 321.4,60.6 353,80.3 C351.1,83.1 342.2,96.1 342.2,98.3 C342.2,100.2 343.6,101.9 345.5,101.9 C349.4,101.9 356.8,87.5 358.8,84.2 C399.8,111.9 429.1,154.2 440.5,202.4 L425,205.7 C422.5,206.3 422.2,207.9 422.2,210.1 C422.2,212 425,213.1 426.4,212.9 L442.2,209.3 C444.7,222 446.1,235 446.1,248 C446.1,284.3 436.1,320 417.3,350.7 C414.5,349.3 402.9,341 400.7,341 C398.6,341 396.9,342.7 396.9,344.6 Z M363.7,102.4 C350.7,114.6 229.5,226.1 226.1,231.9 L129.5,392.4 C142.2,380.5 263.7,268.4 266.8,263.1 L363.7,102.4 Z" id="Shape"></path>
            </g>
        </g>
    </g>
</svg>