<?xml version="1.0" encoding="UTF-8"?>
<svg width="560px" height="560px" viewBox="0 0 560 560" version="1.1" xmlns="http://www.w3.org/2000/svg" xmlns:xlink="http://www.w3.org/1999/xlink">
    <!-- Generator: sketchtool 51.2 (57519) - http://www.bohemiancoding.com/sketch -->
    <title>salesforce</title>
    <desc>Created with sketchtool.</desc>
    <defs></defs>
    <g id="Page-1" stroke="none" stroke-width="1" fill="none" fill-rule="evenodd">
        <g id="uA333-salesforce" fill="#000000">
            <path d="M236.588987,139.055473 C218.413193,116.980565 190.873581,102.904968 160.046436,102.904968 C105.314779,102.904968 60.9460043,147.273742 60.9460043,202.0054 C60.9460043,216.424887 64.025644,230.125087 69.5630703,242.484145 C44.177164,256.596453 27,283.689124 27,314.793737 C27,360.453848 64.0148341,397.468683 109.674946,397.468683 C116.444189,397.468683 123.023418,396.655137 129.320193,395.120485 C140.280892,431.332394 173.913245,457.695464 213.703024,457.695464 C250.410828,457.695464 281.878129,435.258209 295.138542,403.350084 C305.18101,407.327941 316.128406,409.514039 327.586393,409.514039 C359.243533,409.514039 387.003053,392.826347 402.548106,367.767811 C409.807215,369.291617 417.332174,370.092873 425.044276,370.092873 C485.218861,370.092873 534,321.311734 534,261.137149 C534,200.962565 485.218861,152.181425 425.044276,152.181425 C410.236601,152.181425 396.118852,155.135351 383.248151,160.486079 C365.990437,133.125835 335.496827,114.950324 300.758099,114.950324 C276.182863,114.950324 253.73213,124.046403 236.588987,139.055473 L236.588987,139.055473 Z" id="salesforce"></path>
        </g>
    </g>
</svg>