<?xml version="1.0" encoding="UTF-8"?>
<svg width="560px" height="560px" viewBox="0 0 560 560" version="1.1" xmlns="http://www.w3.org/2000/svg" xmlns:xlink="http://www.w3.org/1999/xlink">
    <!-- Generator: sketchtool 51.2 (57519) - http://www.bohemiancoding.com/sketch -->
    <title>settings-home</title>
    <desc>Created with sketchtool.</desc>
    <defs></defs>
    <g id="Page-1" stroke="none" stroke-width="1" fill="none" fill-rule="evenodd">
        <g id="uA364-settings-home" fill="#000000" fill-rule="nonzero">
            <path d="M401.621193,367.641748 L402.652762,359.614384 C403.447193,353.432361 403.825789,348.64492 403.825789,343.869584 C403.825789,339.094248 403.447193,334.306807 402.652762,328.124784 L401.621193,320.09742 L408.062808,315.197594 L443.129151,288.524486 L410.788585,234.102032 L361.607351,253.314558 L355.375508,248.651643 C346.586962,242.075699 337.345808,236.842113 327.501539,232.91767 L320.011552,229.931767 L312.503244,179 L247.317156,179 L239.808848,229.931767 L232.318861,232.91767 C222.85314,236.691204 213.614891,241.963083 204.308646,248.752308 L198.110116,253.274347 L149.031815,234.102032 L116.691318,288.52437 L158.199207,320.09742 L157.167638,328.124784 C156.388462,334.18809 155.994611,339.206756 155.994611,343.869584 C155.994611,348.532411 156.388462,353.551077 157.167638,359.614384 L158.199207,367.641748 L151.757592,372.541574 L116.691249,399.214682 L149.031815,453.637136 L198.213049,434.42461 L204.444892,439.087525 C213.233438,445.663469 222.474592,450.897055 232.318861,454.821498 L239.808848,457.807401 L247.317156,508.739168 L312.503244,508.739168 L320.011552,457.807401 L327.501539,454.821498 C336.96726,451.047964 346.205508,445.776085 355.511754,438.98686 L361.710284,434.46482 L410.788585,453.637136 L443.129082,399.214798 L401.621193,367.641748 Z M431.825789,343.869584 C431.825789,347.563431 431.656429,351.175097 431.317809,355.050803 L463.865708,379.808576 C472.933426,386.771955 475.332542,399.263847 469.756624,409.207414 L432.872862,471.283767 C427.201487,481.18177 415.171495,485.303157 404.570642,481.268191 L365.639263,466.060316 C358.996831,470.493926 352.276818,474.331178 345.402048,477.561451 L339.56296,517.170252 C338.021487,528.528036 328.12,536.739168 316.68769,536.739168 L243.13271,536.739168 C231.7004,536.739168 221.798912,528.528036 220.25744,517.170252 L214.421054,477.579776 C207.395145,474.307272 200.635174,470.47431 194.116465,466.08558 L155.152184,481.306879 C144.588581,485.043369 132.579305,481.106005 126.948321,471.285085 L90.1497755,409.360778 C84.4878578,399.263847 86.8869742,386.771955 96.005802,379.769513 L128.507363,355.047143 C128.168825,351.147494 127.994611,347.485013 127.994611,343.869584 C127.994611,340.254146 128.168826,336.591657 128.507365,332.691997 L95.9546917,307.930591 C86.8188588,300.914904 84.2186378,288.217597 90.2666167,278.181771 L126.947538,216.4554 C132.618913,206.557397 144.648905,202.436011 155.249758,206.470977 L194.181137,221.678851 C200.823569,217.245241 207.543582,213.407989 214.418352,210.177717 L220.25744,170.568916 C221.798912,159.211132 231.7004,151 243.13271,151 L316.68769,151 C328.12,151 338.021487,159.211132 339.56296,170.568916 L345.399346,210.159392 C352.425255,213.431895 359.185226,217.264858 365.703935,221.653587 L404.668215,206.432288 C415.231819,202.695799 427.241095,206.633163 432.872079,216.454083 L469.670624,278.37839 C475.332542,288.475321 472.933426,300.967212 463.814598,307.969654 L431.317811,332.688393 C431.65643,336.564088 431.825789,340.175745 431.825789,343.869584 Z M194.32175,343.869584 C194.32175,296.684078 232.684078,258.32175 279.869584,258.32175 C327.05509,258.32175 365.417417,296.684078 365.417417,343.869584 C365.417417,391.05509 327.05509,429.417417 279.869584,429.417417 C232.684078,429.417417 194.32175,391.05509 194.32175,343.869584 Z M222.32175,343.869584 C222.32175,375.591117 248.148051,401.417417 279.869584,401.417417 C311.591117,401.417417 337.417417,375.591117 337.417417,343.869584 C337.417417,312.148051 311.591117,286.32175 279.869584,286.32175 C248.148051,286.32175 222.32175,312.148051 222.32175,343.869584 Z M132.026782,154.780657 C126.270481,158.104059 118.929444,156.137034 115.606043,150.380734 L108.615736,138.541117 C105.292334,132.784816 107.259359,125.443779 113.01566,122.120377 L271.007748,30.9036027 C273.762072,29.3939688 275.504852,28 280.001956,28 C284.499059,28 286.241839,29.3939688 288.996163,30.9036027 L446.988251,122.120377 C452.744552,125.443779 454.711577,132.784816 451.388175,138.541117 L444.397869,150.380734 C441.074467,156.137034 433.73343,158.104059 427.977129,154.780657 L280.001956,69.9245011 L132.026782,154.780657 Z" id="settings-home"></path>
        </g>
    </g>
</svg>