<?xml version="1.0" encoding="UTF-8"?>
<svg width="560px" height="560px" viewBox="0 0 560 560" version="1.1" xmlns="http://www.w3.org/2000/svg" xmlns:xlink="http://www.w3.org/1999/xlink">
    <!-- Generator: sketchtool 51.2 (57519) - http://www.bohemiancoding.com/sketch -->
    <title>skype</title>
    <desc>Created with sketchtool.</desc>
    <defs></defs>
    <g id="Page-1" stroke="none" stroke-width="1" fill="none" fill-rule="evenodd">
        <g id="uA319-skype" fill="#000000" fill-rule="nonzero">
            <g id="skype" transform="translate(56.000000, 56.000000)">
                <path d="M424.7,267.8 C427.6,253.8 429.4,238.9 429.4,224 C429.4,110.5 337.5,18.7 224.1,18.7 C209.2,18.7 194.4,20.4 180.3,23.4 C161.3,8.7 137.7,0 112,0 C50.2,0 0,50.2 0,112 C0,137.7 8.7,161.3 23.3,180.2 C20.4,194.2 18.6,209.1 18.6,224 C18.6,337.5 110.5,429.3 223.9,429.3 C238.8,429.3 253.6,427.6 267.7,424.6 C286.7,439.2 310.3,447.9 335.9,447.9 C397.7,447.9 447.9,397.7 447.9,335.9 C448,310.3 439.3,286.7 424.7,267.8 Z M230.1,359.3 C164.5,359.3 109.6,330.1 109.6,294.3 C109.6,278.3 118.6,263.7 139.1,263.7 C170.3,263.7 173.2,308.6 227.2,308.6 C252.9,308.6 269.5,297.2 269.5,282.3 C269.5,263.6 253.5,260.7 227.5,254.3 C165,238.9 109.7,232.3 109.7,167.1 C109.7,107.9 168.3,86 218.8,86 C273.9,86 329.6,107.9 329.6,141.4 C329.6,158.3 318.2,173.2 299.3,173.2 C271,173.2 270.1,139.7 224.3,139.7 C198.6,139.7 182.3,146.7 182.3,162.2 C182.3,182 203.1,184 251.4,195.2 C292.8,204.5 342.1,222 342.1,272.8 C342.1,331.9 285,359.3 230.1,359.3 Z" id="Shape"></path>
            </g>
        </g>
    </g>
</svg>