<?xml version="1.0" encoding="UTF-8"?>
<svg width="560px" height="560px" viewBox="0 0 560 560" version="1.1" xmlns="http://www.w3.org/2000/svg" xmlns:xlink="http://www.w3.org/1999/xlink">
    <!-- Generator: sketchtool 51.2 (57519) - http://www.bohemiancoding.com/sketch -->
    <title>slack</title>
    <desc>Created with sketchtool.</desc>
    <defs></defs>
    <g id="Page-1" stroke="none" stroke-width="1" fill="none" fill-rule="evenodd">
        <g id="uA323-slack" fill="#000000" fill-rule="nonzero">
            <g id="slack" transform="translate(56.000000, 56.000000)">
                <path d="M244.2,185.5 L263.5,243.2 L203.7,263.2 L184.4,205.5 L244.2,185.5 Z M285.6,429.2 C131.6,475.4 65,439.6 18.8,285.6 C-27.4,131.6 8.4,65 162.4,18.8 C316.4,-27.4 383,8.4 429.2,162.4 C475.4,316.4 439.6,383 285.6,429.2 Z M366.2,233 C362.3,220.8 349,214.4 336.8,218.3 L307.8,228 L288.5,170.3 L317.5,160.6 C329.7,156.7 336.1,143.4 332.2,131.2 C328.3,119 315,112.6 302.8,116.5 L273.8,126.2 L263.8,96.1 C259.9,83.9 246.6,77.5 234.4,81.4 C222.2,85.3 215.8,98.6 219.7,110.8 L229.7,140.9 L169.9,161 L159.9,130.9 C156,118.7 142.7,112.3 130.5,116.2 C118.3,120.1 111.9,133.4 115.8,145.6 L125.8,175.7 L96.8,185.4 C84.6,189.3 78.2,202.6 82.1,214.8 C85.3,224.1 94.3,230.2 103.6,230.6 C107.9,231.2 111.3,229.6 140.5,219.9 L159.8,277.6 L130.8,287.3 C118.6,291.2 112.2,304.5 116.1,316.7 C119.3,326 128.3,332.1 137.6,332.5 C141.9,333.1 145.3,331.5 174.5,321.8 L184.5,351.9 C188.2,362.7 200.3,370.5 213.9,366.6 C226.1,362.7 232.5,349.4 228.6,337.2 L218.6,307.1 L278.4,287 L288.4,317.1 C292.1,327.9 304.2,335.7 317.8,331.8 C330,327.9 336.4,314.6 332.5,302.4 L322.5,272.3 L351.5,262.6 C363.7,258.4 370.1,245.1 366.2,233 Z" id="Shape"></path>
            </g>
        </g>
    </g>
</svg>