<?xml version="1.0" encoding="UTF-8"?>
<svg width="560px" height="560px" viewBox="0 0 560 560" version="1.1" xmlns="http://www.w3.org/2000/svg" xmlns:xlink="http://www.w3.org/1999/xlink">
    <!-- Generator: sketchtool 51.2 (57519) - http://www.bohemiancoding.com/sketch -->
    <title>slack-hash</title>
    <desc>Created with sketchtool.</desc>
    <defs></defs>
    <g id="Page-1" stroke="none" stroke-width="1" fill="none" fill-rule="evenodd">
        <g id="uA322-slack-hash" fill="#000000" fill-rule="nonzero">
            <g id="slack-hash" transform="translate(56.000000, 56.000000)">
                <path d="M446.2,238.4 C440,219.4 419.3,209.3 400.2,215.5 L354.8,230.6 L324.5,140.6 L369.9,125.5 C389,119.3 399,98.7 392.9,79.6 C386.7,60.6 366,50.5 346.9,56.7 L301.5,71.8 L285.8,24.8 C279.6,5.8 258.9,-4.3 239.8,1.9 C220.7,8.1 210.7,28.7 216.8,47.8 L232.5,94.8 L139.1,126 L123.4,79 C117.2,60 96.5,49.9 77.4,56.1 C58.3,62.3 48.3,82.9 54.4,102 L70.1,149 L24.8,164 C5.7,170.2 -4.3,190.8 1.8,209.9 C6.8,224.4 20.9,233.9 35.4,234.5 C42.2,235.5 47.4,232.9 93.1,217.7 L123.4,307.7 L78,322.8 C59,329 48.9,349.7 55,368.7 C60,383.2 74.1,392.7 88.6,393.3 C95.4,394.3 100.6,391.7 146.3,376.5 L162,423.5 C167.9,440.4 186.7,452.5 208,446.4 C227.1,440.2 237.1,419.6 231,400.5 L215.3,353.5 L308.9,322.2 L324.6,369.2 C330.5,386.1 349.3,398.2 370.6,392.1 C389.7,385.9 399.7,365.3 393.6,346.2 L377.9,299.2 L423.3,284.1 C442.3,278.1 452.4,257.4 446.2,238.4 Z M192.1,285.6 L161.8,195.4 L255.3,164.1 L285.6,254.3 L192.1,285.6 Z" id="Shape"></path>
            </g>
        </g>
    </g>
</svg>