<?xml version="1.0" encoding="UTF-8"?>
<svg width="560px" height="560px" viewBox="0 0 560 560" version="1.1" xmlns="http://www.w3.org/2000/svg" xmlns:xlink="http://www.w3.org/1999/xlink">
    <!-- Generator: sketchtool 51.2 (57519) - http://www.bohemiancoding.com/sketch -->
    <title>sliders-v</title>
    <desc>Created with sketchtool.</desc>
    <defs></defs>
    <g id="Page-1" stroke="none" stroke-width="1" fill="none" fill-rule="evenodd">
        <g id="uA268-sliders-v" fill="#000000" fill-rule="nonzero">
            <g id="sliders-v" transform="translate(56.000000, 24.000000)">
                <path d="M160,168 L160,120 C160,106.7 149.3,96 136,96 L96,96 L96,8 C96,3.6 92.4,0 88,0 L72,0 C67.6,0 64,3.6 64,8 L64,96 L24,96 C10.7,96 0,106.7 0,120 L0,168 C0,181.3 10.7,192 24,192 L64,192 L64,504 C64,508.4 67.6,512 72,512 L88,512 C92.4,512 96,508.4 96,504 L96,192 L136,192 C149.3,192 160,181.3 160,168 Z M128,160 L32,160 L32,128 L128,128 L128,160 Z M280,320 L240,320 L240,8 C240,3.6 236.4,0 232,0 L216,0 C211.6,0 208,3.6 208,8 L208,320 L168,320 C154.7,320 144,330.7 144,344 L144,392 C144,405.3 154.7,416 168,416 L208,416 L208,504 C208,508.4 211.6,512 216,512 L232,512 C236.4,512 240,508.4 240,504 L240,416 L280,416 C293.3,416 304,405.3 304,392 L304,344 C304,330.7 293.3,320 280,320 Z M272,384 L176,384 L176,352 L272,352 L272,384 Z M424,160 L384,160 L384,8 C384,3.6 380.4,0 376,0 L360,0 C355.6,0 352,3.6 352,8 L352,160 L312,160 C298.7,160 288,170.7 288,184 L288,232 C288,245.3 298.7,256 312,256 L352,256 L352,504 C352,508.4 355.6,512 360,512 L376,512 C380.4,512 384,508.4 384,504 L384,256 L424,256 C437.3,256 448,245.3 448,232 L448,184 C448,170.7 437.3,160 424,160 Z M416,224 L320,224 L320,192 L416,192 L416,224 Z" id="Shape"></path>
            </g>
        </g>
    </g>
</svg>