<?xml version="1.0" encoding="UTF-8"?>
<svg width="560px" height="560px" viewBox="0 0 560 560" version="1.1" xmlns="http://www.w3.org/2000/svg" xmlns:xlink="http://www.w3.org/1999/xlink">
    <!-- Generator: sketchtool 51.2 (57519) - http://www.bohemiancoding.com/sketch -->
    <title>sliders-v-square</title>
    <desc>Created with sketchtool.</desc>
    <defs></defs>
    <g id="Page-1" stroke="none" stroke-width="1" fill="none" fill-rule="evenodd">
        <g id="uA267-sliders-v-square" fill="#000000" fill-rule="nonzero">
            <g id="sliders-v-square" transform="translate(56.000000, 56.000000)">
                <path d="M400,0 L48,0 C21.5,0 0,21.5 0,48 L0,400 C0,426.5 21.5,448 48,448 L400,448 C426.5,448 448,426.5 448,400 L448,48 C448,21.5 426.5,0 400,0 Z M416,400 C416,408.8 408.8,416 400,416 L48,416 C39.2,416 32,408.8 32,400 L32,48 C32,39.2 39.2,32 48,32 L400,32 C408.8,32 416,39.2 416,48 L416,400 Z M200,128 L160,128 L160,96 C160,89.4 154.6,84 148,84 L140,84 C133.4,84 128,89.4 128,96 L128,128 L88,128 C74.8,128 64,138.8 64,152 L64,200 C64,213.2 74.8,224 88,224 L128,224 L128,340 C128,346.6 133.4,352 140,352 L148,352 C154.6,352 160,346.6 160,340 L160,224 L200,224 C213.2,224 224,213.2 224,200 L224,152 C224,138.8 213.2,128 200,128 Z M192,192 L96,192 L96,160 L192,160 L192,192 Z M360,224 L320,224 L320,96 C320,89.4 314.6,84 308,84 L300,84 C293.4,84 288,89.4 288,96 L288,224 L248,224 C234.8,224 224,234.8 224,248 L224,296 C224,309.2 234.8,320 248,320 L288,320 L288,340 C288,346.6 293.4,352 300,352 L308,352 C314.6,352 320,346.6 320,340 L320,320 L360,320 C373.2,320 384,309.2 384,296 L384,248 C384,234.8 373.2,224 360,224 Z M352,288 L256,288 L256,256 L352,256 L352,288 Z" id="Shape"></path>
            </g>
        </g>
    </g>
</svg>