<?xml version="1.0" encoding="UTF-8"?>
<svg width="560px" height="560px" viewBox="0 0 560 560" version="1.1" xmlns="http://www.w3.org/2000/svg" xmlns:xlink="http://www.w3.org/1999/xlink">
    <!-- Generator: sketchtool 53 (72520) - https://sketchapp.com -->
    <title>smile</title>
    <desc>Created with sketchtool.</desc>
    <g id="Page-1" stroke="none" stroke-width="1" fill="none" fill-rule="evenodd">
        <g id="uA297-smile" fill="#000000" fill-rule="nonzero">
            <g id="smile" transform="translate(32.000000, 32.000000)">
                <path d="M248,0 C111,0 0,111 0,248 C0,385 111,496 248,496 C385,496 496,385 496,248 C496,111 385,0 248,0 Z M248,464 C128.9,464 32,367.1 32,248 C32,128.9 128.9,32 248,32 C367.1,32 464,128.9 464,248 C464,367.1 367.1,464 248,464 Z M338.2,317.8 C315.8,344.6 282.9,360 248,360 C213.1,360 180.2,344.6 157.8,317.8 C152.1,311 142,310.1 135.3,315.8 C128.5,321.5 127.6,331.5 133.3,338.3 C161.7,372.4 203.6,392 248,392 C292.4,392 334.3,372.4 362.8,338.2 C368.5,331.4 367.6,321.3 360.8,315.7 C354,310.1 343.9,311 338.2,317.8 Z M168,232 C185.7,232 200,217.7 200,200 C200,182.3 185.7,168 168,168 C150.3,168 136,182.3 136,200 C136,217.7 150.3,232 168,232 Z M328,232 C345.7,232 360,217.7 360,200 C360,182.3 345.7,168 328,168 C310.3,168 296,182.3 296,200 C296,217.7 310.3,232 328,232 Z" id="Shape"></path>
            </g>
        </g>
    </g>
</svg>