<?xml version="1.0" encoding="UTF-8"?>
<svg width="560px" height="560px" viewBox="0 0 560 560" version="1.1" xmlns="http://www.w3.org/2000/svg" xmlns:xlink="http://www.w3.org/1999/xlink">
    <!-- Generator: sketchtool 51.2 (57519) - http://www.bohemiancoding.com/sketch -->
    <title>social</title>
    <desc>Created with sketchtool.</desc>
    <defs></defs>
    <g id="Page-1" stroke="none" stroke-width="1" fill="none" fill-rule="evenodd">
        <g id="uA261-social" fill="#000000" fill-rule="nonzero">
            <g id="social" transform="translate(56.000000, 24.000000)">
                <path d="M448,416 C448,469.019 405.019,512 352,512 C298.981,512 256,469.019 256,416 C256,403.035 258.576,390.673 263.235,379.39 L167.785,319.733 C150.199,339.525 124.558,352 96,352 C42.981,352 0,309.019 0,256 C0,202.981 42.981,160 96,160 C124.558,160 150.199,172.475 167.784,192.267 L263.234,132.61 C258.576,121.327 256,108.965 256,96 C256,42.981 298.981,0 352,0 C405.019,0 448,42.981 448,96 C448,149.019 405.019,192 352,192 C323.442,192 297.801,179.525 280.216,159.733 L184.765,219.389 C194.426,242.785 194.406,269.259 184.765,292.609 L280.216,352.265 C297.801,332.475 323.442,320 352,320 C405.019,320 448,362.981 448,416 Z M352,32 C316.71,32 288,60.71 288,96 C288,131.29 316.71,160 352,160 C387.29,160 416,131.29 416,96 C416,60.71 387.29,32 352,32 Z M96,192 C60.71,192 32,220.71 32,256 C32,291.29 60.71,320 96,320 C131.29,320 160,291.29 160,256 C160,220.71 131.29,192 96,192 Z M352,352 C316.71,352 288,380.71 288,416 C288,451.29 316.71,480 352,480 C387.29,480 416,451.29 416,416 C416,380.71 387.29,352 352,352 Z" id="Shape"></path>
            </g>
        </g>
    </g>
</svg>