<?xml version="1.0" encoding="UTF-8"?>
<svg width="560px" height="560px" viewBox="0 0 560 560" version="1.1" xmlns="http://www.w3.org/2000/svg" xmlns:xlink="http://www.w3.org/1999/xlink">
    <!-- Generator: sketchtool 51.2 (57519) - http://www.bohemiancoding.com/sketch -->
    <title>spf</title>
    <desc>Created with sketchtool.</desc>
    <defs></defs>
    <g id="Page-1" stroke="none" stroke-width="1" fill="none" fill-rule="evenodd">
        <g id="uA308-spf" fill="#000000" fill-rule="nonzero">
            <g id="spf" transform="translate(0.000000, 62.000000)">
                <path d="M497.777778,0 C532.097222,0 560,27.9027778 560,62.2222222 L560,373.333333 C560,407.652778 532.097222,435.555556 497.777778,435.555556 L62.2222222,435.555556 C27.9027778,435.555556 0,407.652778 0,373.333333 L0,62.2222222 C0,27.9027778 27.9027778,0 62.2222222,0 L497.777778,0 Z M31.1111111,373.333333 C31.1111111,390.444444 45.1111111,404.444444 62.2222222,404.444444 L497.777778,404.444444 C514.888889,404.444444 528.888889,390.444444 528.888889,373.333333 L528.888889,77.7777778 C528.888889,52.1111111 514.888889,31.1111111 497.777778,31.1111111 L62.2222222,31.1111111 C45.1111111,31.1111111 31.1111111,52.1111111 31.1111111,77.7777778 L31.1111111,373.333333 Z M170.612,277.198 C152.557,277.198 134.659,272.331 124.297,265.109 L134.502,242.187 C144.236,248.624 158.052,253.02 170.769,253.02 C183.643,253.02 188.667,249.409 188.667,244.071 C188.667,226.644 126.181,239.361 126.181,198.541 C126.181,178.916 142.195,162.902 174.851,162.902 C189.138,162.902 203.896,166.199 214.729,172.479 L205.152,195.558 C194.633,189.906 184.271,187.08 174.694,187.08 C161.663,187.08 156.953,191.476 156.953,196.971 C156.953,213.77 219.282,201.21 219.282,241.716 C219.282,260.87 203.268,277.198 170.612,277.198 Z M283.809,165.1 C313.796,165.1 332.636,180.643 332.636,205.763 C332.636,230.726 313.796,246.269 283.809,246.269 L264.655,246.269 L264.655,275 L233.569,275 L233.569,165.1 L283.809,165.1 Z M281.925,221.777 C294.799,221.777 301.236,215.811 301.236,205.763 C301.236,195.558 294.799,189.592 281.925,189.592 L264.655,189.592 L264.655,221.777 L281.925,221.777 Z M435.471,189.121 L380.364,189.121 L380.364,213.299 L428.877,213.299 L428.877,237.32 L380.364,237.32 L380.364,275 L349.278,275 L349.278,165.1 L435.471,165.1 L435.471,189.121 Z" id="Combined-Shape"></path>
            </g>
        </g>
    </g>
</svg>