<?xml version="1.0" encoding="UTF-8"?>
<svg width="560px" height="560px" viewBox="0 0 560 560" version="1.1" xmlns="http://www.w3.org/2000/svg" xmlns:xlink="http://www.w3.org/1999/xlink">
    <!-- Generator: sketchtool 51.2 (57519) - http://www.bohemiancoding.com/sketch -->
    <title>split</title>
    <desc>Created with sketchtool.</desc>
    <defs></defs>
    <g id="Page-1" stroke="none" stroke-width="1" fill="none" fill-rule="evenodd">
        <g id="uA198-split" fill="#000000" fill-rule="nonzero">
            <g id="split" transform="translate(88.000000, 24.000000)">
                <path d="M384,144 C384,99.8 348.2,64 304,64 C259.8,64 224,99.8 224,144 C224,183.2 252.2,215.8 289.5,222.7 C288.7,239.9 284.5,253.1 276.8,262.7 C259.3,284.5 223.7,287.9 186.1,291.4 C157.9,294 128.7,296.8 105.7,308.3 C102.3,310 99,311.9 96,314 L96,158.4 C132.5,151 160,118.7 160,80 C160,35.8 124.2,0 80,0 C35.8,0 0,35.8 0,80 C0,118.7 27.5,151 64,158.4 L64,353.6 C27.5,361 0,393.3 0,432 C0,476.2 35.8,512 80,512 C124.2,512 160,476.2 160,432 C160,395.1 135.1,364.1 101.1,354.8 C106.1,345.2 113.4,340.2 120.1,336.8 C137.6,328 162.6,325.6 189,323.1 C231.6,319.1 275.7,315 301.7,282.6 C314.1,267.1 320.7,247.1 321.5,221.9 C357.3,214 384,182.1 384,144 Z M32,80 C32,53.5 53.5,32 80,32 C106.5,32 128,53.5 128,80 C128,106.5 106.5,128 80,128 C53.5,128 32,106.5 32,80 Z M128,432 C128,458.5 106.5,480 80,480 C53.5,480 32,458.5 32,432 C32,405.6 53.4,384.1 79.8,384 L80.4,384 C106.7,384.2 128,405.7 128,432 Z M315.8,190.5 L304,192 C277.5,192 256,170.5 256,144 C256,117.5 277.5,96 304,96 C330.5,96 352,117.5 352,144 C352,166.4 336.6,185.2 315.8,190.5 Z" id="Shape"></path>
            </g>
        </g>
    </g>
</svg>