<?xml version="1.0" encoding="UTF-8"?>
<svg width="560px" height="560px" viewBox="0 0 560 560" version="1.1" xmlns="http://www.w3.org/2000/svg" xmlns:xlink="http://www.w3.org/1999/xlink">
    <!-- Generator: sketchtool 51.2 (57519) - http://www.bohemiancoding.com/sketch -->
    <title>sticky-note</title>
    <desc>Created with sketchtool.</desc>
    <defs></defs>
    <g id="Page-1" stroke="none" stroke-width="1" fill="none" fill-rule="evenodd">
        <g id="uA273-sticky-note" fill="#000000" fill-rule="nonzero">
            <g id="sticky-note" transform="translate(56.000000, 56.000000)">
                <path d="M448,316.106 L448,48 C448,21.49 426.51,0 400,0 L48,0 C21.49,0 0,21.49 0,48 L0,399.988 C0,426.498 21.49,447.988 48,447.988 L316.118,447.988 C328.848366,447.987933 341.057305,442.930761 350.059,433.929 L433.941,350.047 C442.942761,341.045305 447.999933,328.836366 448,316.106 Z M327.431,411.302 C325.382827,413.351724 322.81316,414.80237 320,415.497 L320,319.988 L415.509,319.988 C414.814847,322.80135 413.364133,325.371138 411.314,327.419 L327.431,411.302 Z M416,48 L416,287.988 L312,287.988 C298.745,287.988 288,298.733 288,311.988 L288,415.988 L48,415.988 C39.163,415.988 32,408.825 32,399.988 L32,48 C32,39.163 39.163,32 48,32 L400,32 C408.837,32 416,39.163 416,48 Z" id="Shape"></path>
            </g>
        </g>
    </g>
</svg>