<?xml version="1.0" encoding="UTF-8"?>
<svg width="560px" height="560px" viewBox="0 0 560 560" version="1.1" xmlns="http://www.w3.org/2000/svg" xmlns:xlink="http://www.w3.org/1999/xlink">
    <!-- Generator: sketchtool 51.2 (57519) - http://www.bohemiancoding.com/sketch -->
    <title>stop-circle</title>
    <desc>Created with sketchtool.</desc>
    <defs></defs>
    <g id="Page-1" stroke="none" stroke-width="1" fill="none" fill-rule="evenodd">
        <g id="uA076-stop-circle" fill="#000000" fill-rule="nonzero">
            <g id="stop-circle" transform="translate(32.000000, 32.000000)">
                <path d="M248,496 C385,496 496,385 496,248 C496,111 385,0 248,0 C111,0 0,111 0,248 C0,385 111,496 248,496 Z M32,248 C32,129.3 128.1,32 248,32 C366.7,32 464,128.1 464,248 C464,366.7 367.9,464 248,464 C129.3,464 32,367.9 32,248 Z M328,152 L168,152 C159.2,152 152,159.2 152,168 L152,328 C152,336.8 159.2,344 168,344 L328,344 C336.8,344 344,336.8 344,328 L344,168 C344,159.2 336.8,152 328,152 Z M312,312 L184,312 L184,184 L312,184 L312,312 Z" id="Shape"></path>
            </g>
        </g>
    </g>
</svg>