<?xml version="1.0" encoding="UTF-8"?>
<svg width="560px" height="560px" viewBox="0 0 560 560" version="1.1" xmlns="http://www.w3.org/2000/svg" xmlns:xlink="http://www.w3.org/1999/xlink">
    <!-- Generator: sketchtool 51.2 (57519) - http://www.bohemiancoding.com/sketch -->
    <title>swatchbook</title>
    <desc>Created with sketchtool.</desc>
    <defs></defs>
    <g id="Page-1" stroke="none" stroke-width="1" fill="none" fill-rule="evenodd">
        <g id="uA275-swatchbook" fill="#000000" fill-rule="nonzero">
            <g id="swatchbook" transform="translate(24.000000, 24.000000)">
                <path d="M96,432 C104.84,432 112,424.84 112,416 C112,407.16 104.84,400 96,400 C87.16,400 80,407.16 80,416 C80,424.84 87.16,432 96,432 Z M480,320 L327.77,320 L435.42,212.35 C447.92,199.85 447.92,179.59 435.42,167.09 L344.9,76.59 C338.65,70.34 330.46,67.22 322.27,67.22 C314.08,67.22 305.89,70.34 299.64,76.59 L192,184.23 L192,32 C192,14.33 177.67,0 160,0 L32,0 C14.33,0 0,14.33 0,32 L0,416 C0,469.02 42.98,512 96,512 L480,512 C497.67,512 512,497.67 512,480 L512,352 C512,334.33 497.67,320 480,320 Z M160,416 C160,451.29 131.29,480 96,480 C60.71,480 32,451.29 32,416 L32,288 L160,288 L160,416 Z M160,256 L32,256 L32,160 L160,160 L160,256 Z M160,128 L32,128 L32,32 L160,32 L160,128 Z M192,229.47 L322.24,99.22 L322.27,99.22 L412.78,189.73 L192,410.51 L192,229.47 Z M480,480 L167.76,480 L295.76,352 L480,352 L480,480 Z" id="Shape"></path>
            </g>
        </g>
    </g>
</svg>