<?xml version="1.0" encoding="UTF-8"?>
<svg width="560px" height="560px" viewBox="0 0 560 560" version="1.1" xmlns="http://www.w3.org/2000/svg" xmlns:xlink="http://www.w3.org/1999/xlink">
    <!-- Generator: sketchtool 51.2 (57519) - http://www.bohemiancoding.com/sketch -->
    <title>sync</title>
    <desc>Created with sketchtool.</desc>
    <defs></defs>
    <g id="Page-1" stroke="none" stroke-width="1" fill="none" fill-rule="evenodd">
        <g id="uA276-sync" fill="#000000" fill-rule="nonzero">
            <g id="sync" transform="translate(32.000000, 32.000000)">
                <path d="M484,0 L474,0 C467.373,0 462,5.373 462,12 L462,122.627 C418.929,49.261 339.224,0 248,0 C115.228,0 6.824,104.338 0.31,235.493 C-0.029,242.311 5.475,248 12.301,248 L22.317,248 C28.67,248 33.963,243.051 34.294,236.707 C40.157,124.216 133.097,34 248,34 C330.862,34 402.737,81.077 438.289,150 L324,150 C317.373,150 312,155.373 312,162 L312,172 C312,178.627 317.373,184 324,184 L484,184 C490.627,184 496,178.627 496,172 L496,12 C496,5.373 490.627,0 484,0 Z M483.699,248 L473.684,248 C467.332,248 462.037,252.949 461.707,259.293 C455.841,372.158 362.546,462 248,462 C165.392,462 93.328,415.048 57.701,346 L172,346 C178.627,346 184,340.627 184,334 L184,324 C184,317.373 178.627,312 172,312 L12,312 C5.373,312 0,317.373 0,324 L0,484 C0,490.627 5.373,496 12,496 L22,496 C28.627,496 34,490.627 34,484 L34,373.373 C77.071,446.739 156.777,496 248,496 C380.773,496 489.176,391.662 495.69,260.507 C496.029,253.689 490.525,248 483.699,248 Z" id="Shape"></path>
            </g>
        </g>
    </g>
</svg>