<?xml version="1.0" encoding="UTF-8"?>
<svg width="560px" height="560px" viewBox="0 0 560 560" version="1.1" xmlns="http://www.w3.org/2000/svg" xmlns:xlink="http://www.w3.org/1999/xlink">
    <!-- Generator: sketchtool 51.2 (57519) - http://www.bohemiancoding.com/sketch -->
    <title>telegram</title>
    <desc>Created with sketchtool.</desc>
    <defs></defs>
    <g id="Page-1" stroke="none" stroke-width="1" fill="none" fill-rule="evenodd">
        <g id="uA355-telegram" fill="#000000" fill-rule="nonzero">
            <g id="telegram" transform="translate(32.000000, 32.000000)">
                <path d="M248,0 C111,0 0,111 0,248 C0,385 111,496 248,496 C385,496 496,385 496,248 C496,111 385,0 248,0 Z M369.8,169.9 L329.1,361.7 C326.1,375.3 318,378.6 306.7,372.2 L244.7,326.5 L214.8,355.3 C211.5,358.6 208.7,361.4 202.3,361.4 L206.7,298.3 L321.6,194.5 C326.6,190.1 320.5,187.6 313.9,192 L171.9,281.4 L110.7,262.3 C97.4,258.1 97.1,249 113.5,242.6 L352.6,150.4 C363.7,146.4 373.4,153.1 369.8,169.9 Z" id="Shape"></path>
            </g>
        </g>
    </g>
</svg>