<?xml version="1.0" encoding="UTF-8"?>
<svg width="560px" height="560px" viewBox="0 0 560 560" version="1.1" xmlns="http://www.w3.org/2000/svg" xmlns:xlink="http://www.w3.org/1999/xlink">
    <!-- Generator: sketchtool 51.2 (57519) - http://www.bohemiancoding.com/sketch -->
    <title>th-large</title>
    <desc>Created with sketchtool.</desc>
    <defs></defs>
    <g id="Page-1" stroke="none" stroke-width="1" fill="none" fill-rule="evenodd">
        <g id="uA280-th-large" fill="#000000" fill-rule="nonzero">
            <g id="th-large" transform="translate(24.000000, 56.000000)">
                <path d="M0,48 L0,400 C0,426.51 21.49,448 48,448 L464,448 C490.51,448 512,426.51 512,400 L512,48 C512,21.49 490.51,0 464,0 L48,0 C21.49,0 0,21.49 0,48 Z M240,32 L240,208 L32,208 L32,48 C32,39.163 39.163,32 48,32 L240,32 Z M32,400 L32,240 L240,240 L240,416 L48,416 C39.163,416 32,408.837 32,400 Z M272,416 L272,240 L480,240 L480,400 C480,408.837 472.837,416 464,416 L272,416 Z M480,208 L272,208 L272,32 L464,32 C472.837,32 480,39.163 480,48 L480,208 Z" id="Shape"></path>
            </g>
        </g>
    </g>
</svg>