<?xml version="1.0" encoding="UTF-8"?>
<svg width="560px" height="560px" viewBox="0 0 560 560" version="1.1" xmlns="http://www.w3.org/2000/svg" xmlns:xlink="http://www.w3.org/1999/xlink">
    <!-- Generator: sketchtool 51.2 (57519) - http://www.bohemiancoding.com/sketch -->
    <title>thermometer-full</title>
    <desc>Created with sketchtool.</desc>
    <defs></defs>
    <g id="Page-1" stroke="none" stroke-width="1" fill="none" fill-rule="evenodd">
        <g id="uA283-thermometer-full" fill="#000000" fill-rule="nonzero">
            <g id="thermometer-full" transform="translate(152.000000, 24.000000)">
                <path d="M224,96 C224,42.981 181.019,0 128,0 C74.981,0 32,42.981 32,96 L32,299.347 C12.225,321.756 0.166,351.136 0.002,383.333 C-0.357,453.636 56.789,511.509 127.091,511.997 C127.39,511.999 127.701,512 128,512 C198.698,512 256,454.696 256,384 C256,351.541 243.912,321.91 224,299.347 L224,96 Z M128,480 L127.313,479.998 C74.62,479.632 31.732,436.203 32.001,383.497 C32.203,344.03 54.533,322.176 64,311.447 L64,96 C64,60.71 92.71,32 128,32 C163.29,32 192,60.71 192,96 L192,311.447 C201.186,321.856 224,344.106 224,384 C224,436.935 180.935,480 128,480 Z M176,384 C176,410.51 154.51,432 128,432 C101.49,432 80,410.51 80,384 C80,363.102 93.359,345.333 112,338.742 L112,96 C112,87.163 119.164,80 128,80 C136.837,80 144,87.163 144,96 L144,338.742 C162.641,345.333 176,363.102 176,384 Z" id="Shape"></path>
            </g>
        </g>
    </g>
</svg>