<?xml version="1.0" encoding="UTF-8"?>
<svg width="560px" height="560px" viewBox="0 0 560 560" version="1.1" xmlns="http://www.w3.org/2000/svg" xmlns:xlink="http://www.w3.org/1999/xlink">
    <!-- Generator: sketchtool 51.2 (57519) - http://www.bohemiancoding.com/sketch -->
    <title>ticket</title>
    <desc>Created with sketchtool.</desc>
    <defs></defs>
    <g id="Page-1" stroke="none" stroke-width="1" fill="none" fill-rule="evenodd">
        <g id="uA288-ticket" fill="#000000" fill-rule="nonzero">
            <g id="ticket" transform="translate(0.000000, 93.000000)">
                <path d="M528.888889,155.555556 L560,155.555556 L560,46.6666667 C560,20.8930556 539.106944,0 513.333333,0 L46.6666667,0 C20.8930556,0 0,20.8930556 0,46.6666667 L0,155.555556 L31.1111111,155.555556 C48.2931944,155.555556 62.2222222,169.484583 62.2222222,186.666667 C62.2222222,203.84875 48.2931944,217.777778 31.1111111,217.777778 L0,217.777778 L0,326.666667 C0,352.440278 20.8930556,373.333333 46.6666667,373.333333 L513.333333,373.333333 C539.106944,373.333333 560,352.440278 560,326.666667 L560,217.777778 L528.888889,217.777778 C511.706806,217.777778 497.777778,203.84875 497.777778,186.666667 C497.777778,169.484583 511.706806,155.555556 528.888889,155.555556 Z M528.888889,248.888889 L528.888889,326.666667 C528.888889,335.244583 521.91125,342.222222 513.333333,342.222222 L46.6666667,342.222222 C38.08875,342.222222 31.1111111,335.244583 31.1111111,326.666667 L31.1111111,248.888889 C65.4208333,248.888889 93.3333333,220.976389 93.3333333,186.666667 C93.3333333,152.356944 65.4208333,124.444444 31.1111111,124.444444 L31.1111111,46.6666667 C31.1111111,38.08875 38.08875,31.1111111 46.6666667,31.1111111 L513.333333,31.1111111 C521.91125,31.1111111 528.888889,38.08875 528.888889,46.6666667 L528.888889,124.444444 C494.579167,124.444444 466.666667,152.356944 466.666667,186.666667 C466.666667,220.976389 494.579167,248.888889 528.888889,248.888889 Z" id="Shape"></path>
            </g>
        </g>
    </g>
</svg>