<?xml version="1.0" encoding="UTF-8"?>
<svg width="560px" height="560px" viewBox="0 0 560 560" version="1.1" xmlns="http://www.w3.org/2000/svg" xmlns:xlink="http://www.w3.org/1999/xlink">
    <!-- Generator: sketchtool 51.2 (57519) - http://www.bohemiancoding.com/sketch -->
    <title>toggle-off</title>
    <desc>Created with sketchtool.</desc>
    <defs></defs>
    <g id="Page-1" stroke="none" stroke-width="1" fill="none" fill-rule="evenodd">
        <g id="uA289-toggle-off" fill="#000000" fill-rule="nonzero">
            <g id="toggle-off" transform="translate(0.000000, 93.000000)">
                <path d="M373.333333,31.1111111 C414.884167,31.1111111 453.947083,47.2918056 483.327639,76.6723611 C512.708194,106.052917 528.888889,145.115833 528.888889,186.666667 C528.888889,228.2175 512.708194,267.280417 483.327639,296.660972 C453.947083,326.041528 414.884167,342.222222 373.333333,342.222222 L186.666667,342.222222 C145.115833,342.222222 106.052917,326.041528 76.6723611,296.660972 C47.2918056,267.280417 31.1111111,228.2175 31.1111111,186.666667 C31.1111111,145.115833 47.2918056,106.052917 76.6723611,76.6723611 C106.052917,47.2918056 145.115833,31.1111111 186.666667,31.1111111 L373.333333,31.1111111 Z M373.333333,0 L186.666667,0 C83.5731944,0 0,83.5731944 0,186.666667 C0,289.760139 83.5731944,373.333333 186.666667,373.333333 L373.333333,373.333333 C476.426806,373.333333 560,289.760139 560,186.666667 C560,83.5731944 476.426806,0 373.333333,0 Z M186.666667,93.3333333 C238.13125,93.3333333 280,135.202083 280,186.666667 C280,238.13125 238.13125,280 186.666667,280 C135.202083,280 93.3333333,238.13125 93.3333333,186.666667 C93.3333333,135.202083 135.202083,93.3333333 186.666667,93.3333333 Z M186.666667,62.2222222 C117.938333,62.2222222 62.2222222,117.937361 62.2222222,186.666667 C62.2222222,255.395972 117.938333,311.111111 186.666667,311.111111 C255.395,311.111111 311.111111,255.395972 311.111111,186.666667 C311.111111,117.937361 255.395,62.2222222 186.666667,62.2222222 Z" id="Shape"></path>
            </g>
        </g>
    </g>
</svg>