<?xml version="1.0" encoding="UTF-8"?>
<svg width="560px" height="560px" viewBox="0 0 560 560" version="1.1" xmlns="http://www.w3.org/2000/svg" xmlns:xlink="http://www.w3.org/1999/xlink">
    <!-- Generator: sketchtool 51.2 (57519) - http://www.bohemiancoding.com/sketch -->
    <title>toggle-on</title>
    <desc>Created with sketchtool.</desc>
    <defs></defs>
    <g id="Page-1" stroke="none" stroke-width="1" fill="none" fill-rule="evenodd">
        <g id="uA290-toggle-on" fill="#000000" fill-rule="nonzero">
            <g id="toggle-on" transform="translate(0.000000, 93.000000)">
                <path d="M373.333333,31.1111111 C459.303056,31.1111111 528.888889,100.684306 528.888889,186.666667 C528.888889,272.636389 459.315694,342.222222 373.333333,342.222222 L186.666667,342.222222 C100.696944,342.222222 31.1111111,272.649028 31.1111111,186.666667 C31.1111111,100.697917 100.684306,31.1111111 186.666667,31.1111111 L373.333333,31.1111111 Z M373.333333,0 L186.666667,0 C83.5731944,0 0,83.5731944 0,186.666667 C0,289.760139 83.5731944,373.333333 186.666667,373.333333 L373.333333,373.333333 C476.426806,373.333333 560,289.760139 560,186.666667 C560,83.5731944 476.426806,0 373.333333,0 Z M373.333333,295.555556 C433.471111,295.555556 482.222222,246.804444 482.222222,186.666667 C482.222222,126.528889 433.471111,77.7777778 373.333333,77.7777778 C313.195556,77.7777778 264.444444,126.528889 264.444444,186.666667 C264.444444,214.281667 274.724722,239.49625 291.665694,258.690833 C311.618611,281.297917 340.810556,295.555556 373.333333,295.555556 Z" id="Shape"></path>
            </g>
        </g>
    </g>
</svg>