<?xml version="1.0" encoding="UTF-8"?>
<svg width="560px" height="560px" viewBox="0 0 560 560" version="1.1" xmlns="http://www.w3.org/2000/svg" xmlns:xlink="http://www.w3.org/1999/xlink">
    <!-- Generator: sketchtool 51.2 (57519) - http://www.bohemiancoding.com/sketch -->
    <title>trash</title>
    <desc>Created with sketchtool.</desc>
    <defs></defs>
    <g id="Page-1" stroke="none" stroke-width="1" fill="none" fill-rule="evenodd">
        <g id="uA292-trash" fill="#000000" fill-rule="nonzero">
            <g id="trash" transform="translate(40.000000, 24.000000)">
                <path d="M352,64 L318.4,19.2 C309.3,7.1 295.1,0 280,0 L200,0 C184.9,0 170.7,7.1 161.6,19.2 L128,64 L24,64 C10.7,64 0,74.7 0,88 L0,90 C0,93.3 2.7,96 6,96 L26.9,96 L60.1,468.3 C62.3,493 83,512 107.9,512 L372.1,512 C397,512 417.7,493 419.9,468.3 L453.1,96 L474,96 C477.3,96 480,93.3 480,90 L480,88 C480,74.7 469.3,64 456,64 L352,64 Z M200,32 L280,32 C285,32 289.8,34.4 292.8,38.4 L312,64 L168,64 L187.2,38.4 C190.2,34.4 195,32 200,32 Z M388,465.4 C387.3,473.7 380.4,480 372.1,480 L107.9,480 C99.6,480 92.7,473.7 92,465.4 L59,96 L421,96 L388,465.4 Z" id="Shape"></path>
            </g>
        </g>
    </g>
</svg>