<?xml version="1.0" encoding="UTF-8"?>
<svg width="560px" height="560px" viewBox="0 0 560 560" version="1.1" xmlns="http://www.w3.org/2000/svg" xmlns:xlink="http://www.w3.org/1999/xlink">
    <!-- Generator: sketchtool 51.2 (57519) - http://www.bohemiancoding.com/sketch -->
    <title>twitter-square</title>
    <desc>Created with sketchtool.</desc>
    <defs></defs>
    <g id="Page-1" stroke="none" stroke-width="1" fill="none" fill-rule="evenodd">
        <g id="uA316-twitter-square" fill="#000000" fill-rule="nonzero">
            <g id="twitter-square" transform="translate(56.000000, 56.000000)">
                <path d="M400,0 L48,0 C21.5,0 0,21.5 0,48 L0,400 C0,426.5 21.5,448 48,448 L400,448 C426.5,448 448,426.5 448,400 L448,48 C448,21.5 426.5,0 400,0 Z M351.1,158.8 C351.3,161.6 351.3,164.5 351.3,167.3 C351.3,254 285.3,353.9 164.7,353.9 C127.5,353.9 93,343.1 64,324.5 C69.3,325.1 74.4,325.3 79.8,325.3 C110.5,325.3 138.7,314.9 161.2,297.3 C132.4,296.7 108.2,277.8 99.9,251.8 C110,253.3 119.1,253.3 129.5,250.6 C99.5,244.5 77,218.1 77,186.2 L77,185.4 C85.7,190.3 95.9,193.3 106.6,193.7 C88.3284816,181.546367 77.3640739,161.044427 77.4,139.1 C77.4,126.9 80.6,115.7 86.3,106 C118.6,145.8 167.1,171.8 221.5,174.6 C212.2,130.1 245.5,94 285.5,94 C304.4,94 321.4,101.9 333.4,114.7 C348.2,111.9 362.4,106.4 375,98.9 C370.1,114.1 359.8,126.9 346.2,135 C359.4,133.6 372.2,129.9 384,124.8 C375.1,137.9 363.9,149.5 351.1,158.8 Z" id="Shape"></path>
            </g>
        </g>
    </g>
</svg>