<?xml version="1.0" encoding="UTF-8"?>
<svg width="560px" height="560px" viewBox="0 0 560 560" version="1.1" xmlns="http://www.w3.org/2000/svg" xmlns:xlink="http://www.w3.org/1999/xlink">
    <!-- Generator: sketchtool 51.2 (57519) - http://www.bohemiancoding.com/sketch -->
    <title>twitter</title>
    <desc>Created with sketchtool.</desc>
    <defs></defs>
    <g id="Page-1" stroke="none" stroke-width="1" fill="none" fill-rule="evenodd">
        <g id="uA315-twitter" fill="#000000" fill-rule="nonzero">
            <g id="twitter" transform="translate(24.000000, 72.000000)">
                <path d="M459.37,103.716 C459.695,108.264 459.695,112.813 459.695,117.361 C459.695,256.081 354.112,415.919 161.137,415.919 C101.685,415.919 46.457,398.7 0,368.813 C8.447,369.787 16.568,370.112 25.34,370.112 C74.395,370.112 119.553,353.544 155.614,325.28 C109.482,324.305 70.822,294.092 57.502,252.508 C64,253.482 70.497,254.132 77.32,254.132 C86.741,254.132 96.163,252.832 104.934,250.559 C56.853,240.812 20.791,198.579 20.791,147.574 L20.791,146.275 C34.76,154.072 51.005,158.945 68.222,159.594 C39.958,140.751 21.441,108.589 21.441,72.203 C21.441,52.711 26.638,34.843 35.735,19.249 C87.39,82.924 165.035,124.507 252.1,129.056 C250.476,121.259 249.501,113.138 249.501,105.016 C249.501,47.188 296.283,0.082 354.435,0.082 C384.648,0.082 411.937,12.752 431.105,33.219 C454.82,28.671 477.561,19.899 497.704,7.879 C489.906,32.245 473.338,52.712 451.572,65.706 C472.689,63.433 493.156,57.584 511.998,49.463 C497.706,70.254 479.837,88.771 459.37,103.716 Z" id="Shape"></path>
            </g>
        </g>
    </g>
</svg>