<?xml version="1.0" encoding="UTF-8"?>
<svg width="560px" height="560px" viewBox="0 0 560 560" version="1.1" xmlns="http://www.w3.org/2000/svg" xmlns:xlink="http://www.w3.org/1999/xlink">
    <!-- Generator: sketchtool 51.2 (57519) - http://www.bohemiancoding.com/sketch -->
    <title>uA001-close-circle</title>
    <desc>Created with sketchtool.</desc>
    <defs></defs>
    <g id="Page-1" stroke="none" stroke-width="1" fill="none" fill-rule="evenodd">
        <g id="uA001-close-circle" fill="#000000" fill-rule="nonzero">
            <g id="close-circle" transform="translate(32.000000, 32.000000)">
                <path d="M248,0 C111,0 0,111 0,248 C0,385 111,496 248,496 C385,496 496,385 496,248 C496,111 385,0 248,0 Z M248,464 C129.3,464 32,367.9 32,248 C32,129.3 128.1,32 248,32 C366.7,32 464,128.1 464,248 C464,366.7 367.9,464 248,464 Z M342.8,178.7 L273.5,248 L342.8,317.3 C347.5,322 347.5,329.6 342.8,334.3 L334.3,342.8 C329.6,347.5 322,347.5 317.3,342.8 L248,273.5 L178.7,342.8 C174,347.5 166.4,347.5 161.7,342.8 L153.2,334.3 C148.5,329.6 148.5,322 153.2,317.3 L222.5,248 L153.2,178.7 C148.5,174 148.5,166.4 153.2,161.7 L161.7,153.2 C166.4,148.5 174,148.5 178.7,153.2 L248,222.5 L317.3,153.2 C322,148.5 329.6,148.5 334.3,153.2 L342.8,161.7 C347.4,166.4 347.4,174 342.8,178.7 Z" id="Shape"></path>
            </g>
        </g>
    </g>
</svg>