<?xml version="1.0" encoding="UTF-8"?>
<svg width="560px" height="560px" viewBox="0 0 560 560" version="1.1" xmlns="http://www.w3.org/2000/svg" xmlns:xlink="http://www.w3.org/1999/xlink">
    <!-- Generator: sketchtool 51.2 (57519) - http://www.bohemiancoding.com/sketch -->
    <title>uA004-plus-circle</title>
    <desc>Created with sketchtool.</desc>
    <defs></defs>
    <g id="Page-1" stroke="none" stroke-width="1" fill="none" fill-rule="evenodd">
        <g id="uA004-plus-circle" fill="#000000" fill-rule="nonzero">
            <g id="plus-circle" transform="translate(32.000000, 32.000000)">
                <path d="M376,242 L376,254 C376,260.6 370.6,266 364,266 L266,266 L266,364 C266,370.6 260.6,376 254,376 L242,376 C235.4,376 230,370.6 230,364 L230,266 L132,266 C125.4,266 120,260.6 120,254 L120,242 C120,235.4 125.4,230 132,230 L230,230 L230,132 C230,125.4 235.4,120 242,120 L254,120 C260.6,120 266,125.4 266,132 L266,230 L364,230 C370.6,230 376,235.4 376,242 Z M496,248 C496,385 385,496 248,496 C111,496 0,385 0,248 C0,111 111,0 248,0 C385,0 496,111 496,248 Z M464,248 C464,128.1 366.7,32 248,32 C128.1,32 32,129.3 32,248 C32,367.9 129.3,464 248,464 C367.9,464 464,366.7 464,248 Z" id="Shape"></path>
            </g>
        </g>
    </g>
</svg>