<?xml version="1.0" encoding="UTF-8"?>
<svg width="560px" height="560px" viewBox="0 0 560 560" version="1.1" xmlns="http://www.w3.org/2000/svg" xmlns:xlink="http://www.w3.org/1999/xlink">
    <!-- Generator: sketchtool 51.2 (57519) - http://www.bohemiancoding.com/sketch -->
    <title>uA009-search</title>
    <desc>Created with sketchtool.</desc>
    <defs></defs>
    <g id="Page-1" stroke="none" stroke-width="1" fill="none" fill-rule="evenodd">
        <g id="uA009-search" fill="#000000" fill-rule="nonzero">
            <g id="search" transform="translate(24.000000, 24.000000)">
                <path d="M508.5,481.6 L379.5,352.6 C377.2,350.3 374.2,349.1 371,349.1 L360.7,349.1 C395,312 416,262.5 416,208 C416,93.1 322.9,0 208,0 C93.1,0 0,93.1 0,208 C0,322.9 93.1,416 208,416 C262.5,416 312,395 349.1,360.8 L349.1,371 C349.1,374.2 350.4,377.2 352.6,379.5 L481.6,508.5 C486.3,513.2 493.9,513.2 498.6,508.5 L508.5,498.6 C513.2,493.9 513.2,486.3 508.5,481.6 Z M208,384 C110.7,384 32,305.3 32,208 C32,110.7 110.7,32 208,32 C305.3,32 384,110.7 384,208 C384,305.3 305.3,384 208,384 Z" id="Shape"></path>
            </g>
        </g>
    </g>
</svg>