<?xml version="1.0" encoding="UTF-8"?>
<svg width="560px" height="560px" viewBox="0 0 560 560" version="1.1" xmlns="http://www.w3.org/2000/svg" xmlns:xlink="http://www.w3.org/1999/xlink">
    <!-- Generator: sketchtool 51.2 (57519) - http://www.bohemiancoding.com/sketch -->
    <title>uA000-close</title>
    <desc>Created with sketchtool.</desc>
    <defs></defs>
    <g id="Page-1" stroke="none" stroke-width="1" fill="none" fill-rule="evenodd">
        <g id="uA000-close" fill="#000000" fill-rule="nonzero">
            <g id="close" transform="translate(120.000000, 120.000000)">
                <path d="M193.94,160 L296.5,57.44 L317.65,36.29 C320.77,33.17 320.77,28.1 317.65,24.98 L295.02,2.35 C291.9,-0.77 286.83,-0.77 283.71,2.35 L160,126.06 L36.29,2.34 C33.17,-0.78 28.1,-0.78 24.98,2.34 L2.34,24.97 C-0.78,28.09 -0.78,33.16 2.34,36.28 L126.06,160 L2.34,283.71 C-0.78,286.83 -0.78,291.9 2.34,295.02 L24.97,317.65 C28.09,320.77 33.16,320.77 36.28,317.65 L160,193.94 L262.56,296.5 L283.71,317.65 C286.83,320.77 291.9,320.77 295.02,317.65 L317.65,295.02 C320.77,291.9 320.77,286.83 317.65,283.71 L193.94,160 Z" id="Shape"></path>
            </g>
        </g>
    </g>
</svg>