<?xml version="1.0" encoding="UTF-8"?>
<svg width="560px" height="560px" viewBox="0 0 560 560" version="1.1" xmlns="http://www.w3.org/2000/svg" xmlns:xlink="http://www.w3.org/1999/xlink">
    <!-- Generator: sketchtool 51.2 (57519) - http://www.bohemiancoding.com/sketch -->
    <title>uA003-plus</title>
    <desc>Created with sketchtool.</desc>
    <defs></defs>
    <g id="Page-1" stroke="none" stroke-width="1" fill="none" fill-rule="evenodd">
        <g id="uA003-plus" fill="#000000" fill-rule="nonzero">
            <g id="plus" transform="translate(88.000000, 88.000000)">
                <path d="M376,168 L216,168 L216,8 C216,3.58 212.42,0 208,0 L176,0 C171.58,0 168,3.58 168,8 L168,168 L8,168 C3.58,168 0,171.58 0,176 L0,208 C0,212.42 3.58,216 8,216 L168,216 L168,376 C168,380.42 171.58,384 176,384 L208,384 C212.42,384 216,380.42 216,376 L216,216 L376,216 C380.42,216 384,212.42 384,208 L384,176 C384,171.58 380.42,168 376,168 Z" id="Shape"></path>
            </g>
        </g>
    </g>
</svg>