<?xml version="1.0" encoding="UTF-8"?>
<svg width="560px" height="560px" viewBox="0 0 560 560" version="1.1" xmlns="http://www.w3.org/2000/svg" xmlns:xlink="http://www.w3.org/1999/xlink">
    <!-- Generator: sketchtool 51.2 (57519) - http://www.bohemiancoding.com/sketch -->
    <title>uA019-exclamation-square</title>
    <desc>Created with sketchtool.</desc>
    <defs></defs>
    <g id="Page-1" stroke="none" stroke-width="1" fill="none" fill-rule="evenodd">
        <g id="uA019-exclamation-square" fill="#000000" fill-rule="nonzero">
            <g id="exclamation-square" transform="translate(56.000000, 56.000000)">
                <path d="M400,0 L48,0 C21.49,0 0,21.49 0,48 L0,400 C0,426.51 21.49,448 48,448 L400,448 C426.51,448 448,426.51 448,400 L448,48 C448,21.49 426.51,0 400,0 Z M416,400 C416,408.822 408.822,416 400,416 L48,416 C39.178,416 32,408.822 32,400 L32,48 C32,39.178 39.178,32 48,32 L400,32 C408.822,32 416,39.178 416,48 L416,400 Z M224,308 C208.536,308 196,320.536 196,336 C196,351.464 208.536,364 224,364 C239.464,364 252,351.464 252,336 C252,320.536 239.464,308 224,308 Z M212.51,96 L235.489,96 C242.312,96 247.763,101.682 247.479,108.5 L240.479,276.5 C240.211,282.928 234.922,288 228.489,288 L219.51,288 C213.077,288 207.788,282.927 207.52,276.5 L200.52,108.5 C200.237,101.682 205.687,96 212.51,96 Z M224,308 C208.536,308 196,320.536 196,336 C196,351.464 208.536,364 224,364 C239.464,364 252,351.464 252,336 C252,320.536 239.464,308 224,308 Z" id="Shape"></path>
            </g>
        </g>
    </g>
</svg>