<?xml version="1.0" encoding="UTF-8"?>
<svg width="560px" height="560px" viewBox="0 0 560 560" version="1.1" xmlns="http://www.w3.org/2000/svg" xmlns:xlink="http://www.w3.org/1999/xlink">
    <!-- Generator: sketchtool 51.2 (57519) - http://www.bohemiancoding.com/sketch -->
    <title>uA010-search-plus</title>
    <desc>Created with sketchtool.</desc>
    <defs></defs>
    <g id="Page-1" stroke="none" stroke-width="1" fill="none" fill-rule="evenodd">
        <g id="uA010-search-plus" fill="#000000" fill-rule="nonzero">
            <g id="search-plus" transform="translate(24.000000, 24.000000)">
                <path d="M320.8,205 L320.8,213 C320.8,219.6 315.4,225 308.8,225 L224.8,225 L224.8,309 C224.8,315.6 219.4,321 212.8,321 L204.8,321 C198.2,321 192.8,315.6 192.8,309 L192.8,225 L108.8,225 C102.2,225 96.8,219.6 96.8,213 L96.8,205 C96.8,198.4 102.2,193 108.8,193 L192.8,193 L192.8,109 C192.8,102.4 198.2,97 204.8,97 L212.8,97 C219.4,97 224.8,102.4 224.8,109 L224.8,193 L308.8,193 C315.4,193 320.8,198.4 320.8,205 Z M509.3,498 L498,509.3 C493.3,514 485.7,514 481,509.3 L352,380.3 C349.7,378 348.5,375 348.5,371.8 L348.5,363.3 C311.6,396.7 262.7,417 209,417 C94.8,417 2.5,325.9 1,211.7 C-0.5,94.7 94.7,-0.5 211.7,1 C325.9,2.5 417,94.8 417,209 C417,262.7 396.7,311.6 363.3,348.5 L371.8,348.5 C375,348.5 378,349.8 380.3,352 L509.3,481 C514,485.7 514,493.3 509.3,498 Z M385,209 C385,111.7 306.3,33 209,33 C111.7,33 33,111.7 33,209 C33,306.3 111.7,385 209,385 C306.3,385 385,306.3 385,209 Z" id="Shape"></path>
            </g>
        </g>
    </g>
</svg>