<?xml version="1.0" encoding="UTF-8"?>
<svg width="560px" height="560px" viewBox="0 0 560 560" version="1.1" xmlns="http://www.w3.org/2000/svg" xmlns:xlink="http://www.w3.org/1999/xlink">
    <!-- Generator: sketchtool 51.2 (57519) - http://www.bohemiancoding.com/sketch -->
    <title>uA027-arrow-circle-up</title>
    <desc>Created with sketchtool.</desc>
    <defs></defs>
    <g id="Page-1" stroke="none" stroke-width="1" fill="none" fill-rule="evenodd">
        <g id="uA027-arrow-circle-up" fill="#000000" fill-rule="nonzero">
            <g id="arrow-circle-up" transform="translate(32.000000, 32.000000)">
                <path d="M248,496 C385,496 496,385 496,248 C496,111 385,0 248,0 C111,0 0,111 0,248 C0,385 111,496 248,496 Z M32,248 C32,129.3 128.1,32 248,32 C366.7,32 464,128.1 464,248 C464,366.7 367.9,464 248,464 C129.3,464 32,367.9 32,248 Z M124.5,235.5 L239.5,120.4 C244.2,115.7 251.8,115.7 256.5,120.4 L371.5,235.5 C376.2,240.2 376.2,247.8 371.5,252.5 L364.6,259.4 C359.9,264.1 352.1,264.1 347.5,259.2 L265,173.7 L265,364 C265,370.6 259.6,376 253,376 L243,376 C236.4,376 231,370.6 231,364 L231,173.7 L148.5,259.3 C143.8,264.1 136.1,264.2 131.4,259.5 L124.5,252.6 C119.8,247.8 119.8,240.2 124.5,235.5 Z" id="Shape"></path>
            </g>
        </g>
    </g>
</svg>