<?xml version="1.0" encoding="UTF-8"?>
<svg width="560px" height="560px" viewBox="0 0 560 560" version="1.1" xmlns="http://www.w3.org/2000/svg" xmlns:xlink="http://www.w3.org/1999/xlink">
    <!-- Generator: sketchtool 51.2 (57519) - http://www.bohemiancoding.com/sketch -->
    <title>uA023-arrow-up</title>
    <desc>Created with sketchtool.</desc>
    <defs></defs>
    <g id="Page-1" stroke="none" stroke-width="1" fill="none" fill-rule="evenodd">
        <g id="uA023-arrow-up" fill="#000000" fill-rule="nonzero">
            <g id="arrow-up" transform="translate(56.000000, 56.000000)">
                <path d="M4.465,231.536 L11.535,238.607 C16.221,243.293 23.819,243.293 28.506,238.607 L207,60.113 L207,436 C207,442.627 212.373,448 219,448 L229,448 C235.627,448 241,442.627 241,436 L241,60.113 L419.494,238.606 C424.18,243.292 431.778,243.292 436.465,238.606 L443.535,231.535 C448.221,226.849 448.221,219.251 443.535,214.565 L232.485,3.515 C227.799,-1.171 220.201,-1.171 215.514,3.515 L4.465,214.566 C-0.222,219.252 -0.222,226.85 4.465,231.536 Z" id="Shape"></path>
            </g>
        </g>
    </g>
</svg>