<?xml version="1.0" encoding="UTF-8"?>
<svg width="560px" height="560px" viewBox="0 0 560 560" version="1.1" xmlns="http://www.w3.org/2000/svg" xmlns:xlink="http://www.w3.org/1999/xlink">
    <!-- Generator: sketchtool 51.2 (57519) - http://www.bohemiancoding.com/sketch -->
    <title>uA030-arrow-square-down</title>
    <desc>Created with sketchtool.</desc>
    <defs></defs>
    <g id="Page-1" stroke="none" stroke-width="1" fill="none" fill-rule="evenodd">
        <g id="uA030-arrow-square-down" fill="#000000" fill-rule="nonzero">
            <g id="arrow-square-down" transform="translate(56.000000, 56.000000)">
                <path d="M347.5,236.5 L232.5,351.6 C227.8,356.3 220.2,356.3 215.5,351.6 L100.5,236.5 C95.8,231.8 95.8,224.2 100.5,219.5 L107.4,212.6 C112.1,207.9 119.9,207.9 124.5,212.8 L207,298.4 L207,108 C207,101.4 212.4,96 219,96 L229,96 C235.6,96 241,101.4 241,108 L241,298.3 L323.5,212.7 C328.2,207.9 335.9,207.8 340.6,212.5 L347.5,219.4 C352.2,224.2 352.2,231.8 347.5,236.5 Z M448,48 L448,400 C448,426.5 426.5,448 400,448 L48,448 C21.5,448 0,426.5 0,400 L0,48 C0,21.5 21.5,0 48,0 L400,0 C426.5,0 448,21.5 448,48 Z M416,48 C416,39.2 408.8,32 400,32 L48,32 C39.2,32 32,39.2 32,48 L32,400 C32,408.8 39.2,416 48,416 L400,416 C408.8,416 416,408.8 416,400 L416,48 Z" id="Shape"></path>
            </g>
        </g>
    </g>
</svg>