<?xml version="1.0" encoding="UTF-8"?>
<svg width="560px" height="560px" viewBox="0 0 560 560" version="1.1" xmlns="http://www.w3.org/2000/svg" xmlns:xlink="http://www.w3.org/1999/xlink">
    <!-- Generator: sketchtool 51.2 (57519) - http://www.bohemiancoding.com/sketch -->
    <title>uA039-long-arrow-up</title>
    <desc>Created with sketchtool.</desc>
    <defs></defs>
    <g id="Page-1" stroke="none" stroke-width="1" fill="none" fill-rule="evenodd">
        <g id="uA039-long-arrow-up" fill="#000000" fill-rule="nonzero">
            <g id="long-arrow-up" transform="translate(152.000000, 56.000000)">
                <path d="M3.515,136.97 L10.585,144.041 C15.271,148.727 22.869,148.727 27.556,144.041 L111,60.113 L111,436 C111,442.627 116.373,448 123,448 L133,448 C139.627,448 145,442.627 145,436 L145,60.113 L228.444,144.041 C233.13,148.727 240.728,148.727 245.415,144.041 L252.485,136.97 C257.171,132.284 257.171,124.686 252.485,120 L136.485,3.515 C131.799,-1.171 124.201,-1.171 119.514,3.515 L3.515,120 C-1.172,124.686 -1.172,132.284 3.515,136.97 Z" id="Shape"></path>
            </g>
        </g>
    </g>
</svg>