<?xml version="1.0" encoding="UTF-8"?>
<svg width="560px" height="560px" viewBox="0 0 560 560" version="1.1" xmlns="http://www.w3.org/2000/svg" xmlns:xlink="http://www.w3.org/1999/xlink">
    <!-- Generator: sketchtool 51.2 (57519) - http://www.bohemiancoding.com/sketch -->
    <title>uA047-list-ul</title>
    <desc>Created with sketchtool.</desc>
    <defs></defs>
    <g id="Page-1" stroke="none" stroke-width="1" fill="none" fill-rule="evenodd">
        <g id="uA047-list-ul" fill="#000000" fill-rule="nonzero">
            <g id="list-ul" transform="translate(30.000000, 84.000000)">
                <path d="M494,54 L122,54 C118.686292,54 116,51.3137085 116,48 L116,24 C116,20.6862915 118.686292,18 122,18 L494,18 C497.313708,18 500,20.6862915 500,24 L500,48 C500,51.3137085 497.313708,54 494,54 Z M500,208 L500,184 C500,180.686292 497.313708,178 494,178 L122,178 C118.686292,178 116,180.686292 116,184 L116,208 C116,211.313708 118.686292,214 122,214 L494,214 C497.313708,214 500,211.313708 500,208 Z M500,368 L500,344 C500,340.686292 497.313708,338 494,338 L122,338 C118.686292,338 116,340.686292 116,344 L116,368 C116,371.313708 118.686292,374 122,374 L494,374 C497.313708,374 500,371.313708 500,368 Z M36,0 C16.118,0 0,16.118 0,36 C0,55.882 16.118,72 36,72 C55.882,72 72,55.882 72,36 C72,16.118 55.882,0 36,0 Z M36,160 C16.118,160 0,176.118 0,196 C0,215.882 16.118,232 36,232 C55.882,232 72,215.882 72,196 C72,176.118 55.882,160 36,160 Z M36,320 C16.118,320 0,336.118 0,356 C0,375.882 16.118,392 36,392 C55.882,392 72,375.882 72,356 C72,336.118 55.882,320 36,320 Z" id="Shape"></path>
            </g>
        </g>
    </g>
</svg>