<?xml version="1.0" encoding="UTF-8"?>
<svg width="560px" height="560px" viewBox="0 0 560 560" version="1.1" xmlns="http://www.w3.org/2000/svg" xmlns:xlink="http://www.w3.org/1999/xlink">
    <!-- Generator: sketchtool 51.2 (57519) - http://www.bohemiancoding.com/sketch -->
    <title>uA045-align-right</title>
    <desc>Created with sketchtool.</desc>
    <defs></defs>
    <g id="Page-1" stroke="none" stroke-width="1" fill="none" fill-rule="evenodd">
        <g id="uA045-align-right" fill="#000000" fill-rule="nonzero">
            <g id="align-right" transform="translate(56.000000, 70.000000)">
                <path d="M160,30 L160,6 C160,2.6862915 162.686292,0 166,0 L442,0 C445.313708,0 448,2.6862915 448,6 L448,30 C448,33.3137085 445.313708,36 442,36 L166,36 C162.686292,36 160,33.3137085 160,30 Z M6,164 L442,164 C445.313708,164 448,161.313708 448,158 L448,134 C448,130.686292 445.313708,128 442,128 L6,128 C2.6862915,128 4.05812251e-16,130.686292 0,134 L0,158 C4.05812251e-16,161.313708 2.6862915,164 6,164 Z M6,420 L442,420 C445.313708,420 448,417.313708 448,414 L448,390 C448,386.686292 445.313708,384 442,384 L6,384 C2.6862915,384 4.05812251e-16,386.686292 0,390 L0,414 C4.05812251e-16,417.313708 2.6862915,420 6,420 Z M166,292 L442,292 C445.313708,292 448,289.313708 448,286 L448,262 C448,258.686292 445.313708,256 442,256 L166,256 C162.686292,256 160,258.686292 160,262 L160,286 C160,289.313708 162.686292,292 166,292 Z" id="Shape"></path>
            </g>
        </g>
    </g>
</svg>