<?xml version="1.0" encoding="UTF-8"?>
<svg width="560px" height="560px" viewBox="0 0 560 560" version="1.1" xmlns="http://www.w3.org/2000/svg" xmlns:xlink="http://www.w3.org/1999/xlink">
    <!-- Generator: sketchtool 51.2 (57519) - http://www.bohemiancoding.com/sketch -->
    <title>uA041-long-arrow-right</title>
    <desc>Created with sketchtool.</desc>
    <defs></defs>
    <g id="Page-1" stroke="none" stroke-width="1" fill="none" fill-rule="evenodd">
        <g id="uA041-long-arrow-right" fill="#000000" fill-rule="nonzero">
            <g id="long-arrow-right" transform="translate(56.000000, 152.000000)">
                <path d="M311.03,3.515 L303.959,10.585 C299.273,15.271 299.273,22.869 303.959,27.556 L387.887,111 L12,111 C5.373,111 0,116.373 0,123 L0,133 C0,139.627 5.373,145 12,145 L387.887,145 L303.959,228.444 C299.273,233.13 299.273,240.728 303.959,245.415 L311.03,252.485 C315.716,257.171 323.314,257.171 328,252.485 L444.485,136.485 C449.171,131.799 449.171,124.201 444.485,119.514 L328,3.515 C323.314,-1.172 315.716,-1.172 311.03,3.515 Z" id="Shape"></path>
            </g>
        </g>
    </g>
</svg>