<?xml version="1.0" encoding="UTF-8"?>
<svg width="560px" height="560px" viewBox="0 0 560 560" version="1.1" xmlns="http://www.w3.org/2000/svg" xmlns:xlink="http://www.w3.org/1999/xlink">
    <!-- Generator: sketchtool 51.2 (57519) - http://www.bohemiancoding.com/sketch -->
    <title>uA044-align-left</title>
    <desc>Created with sketchtool.</desc>
    <defs></defs>
    <g id="Page-1" stroke="none" stroke-width="1" fill="none" fill-rule="evenodd">
        <g id="uA044-align-left" fill="#000000" fill-rule="nonzero">
            <g id="align-left" transform="translate(56.000000, 70.000000)">
                <path d="M288,6 L288,30 C288,33.3137085 285.313708,36 282,36 L6,36 C2.6862915,36 4.05812251e-16,33.3137085 0,30 L0,6 C-4.05812251e-16,2.6862915 2.6862915,0 6,0 L282,0 C285.313708,0 288,2.6862915 288,6 Z M6,164 L442,164 C445.313708,164 448,161.313708 448,158 L448,134 C448,130.686292 445.313708,128 442,128 L6,128 C2.6862915,128 4.05812251e-16,130.686292 0,134 L0,158 C4.05812251e-16,161.313708 2.6862915,164 6,164 Z M6,420 L442,420 C445.313708,420 448,417.313708 448,414 L448,390 C448,386.686292 445.313708,384 442,384 L6,384 C2.6862915,384 4.05812251e-16,386.686292 0,390 L0,414 C4.05812251e-16,417.313708 2.6862915,420 6,420 Z M282,256 L6,256 C2.6862915,256 4.05812251e-16,258.686292 0,262 L0,286 C4.05812251e-16,289.313708 2.6862915,292 6,292 L282,292 C285.313708,292 288,289.313708 288,286 L288,262 C288,258.686292 285.313708,256 282,256 Z" id="Shape"></path>
            </g>
        </g>
    </g>
</svg>