<?xml version="1.0" encoding="UTF-8"?>
<svg width="560px" height="560px" viewBox="0 0 560 560" version="1.1" xmlns="http://www.w3.org/2000/svg" xmlns:xlink="http://www.w3.org/1999/xlink">
    <!-- Generator: sketchtool 51.2 (57519) - http://www.bohemiancoding.com/sketch -->
    <title>uA040-long-arrow-left</title>
    <desc>Created with sketchtool.</desc>
    <defs></defs>
    <g id="Page-1" stroke="none" stroke-width="1" fill="none" fill-rule="evenodd">
        <g id="uA040-long-arrow-left" fill="#000000" fill-rule="nonzero">
            <g id="long-arrow-left" transform="translate(56.000000, 152.000000)">
                <path d="M136.97,252.485 L144.041,245.415 C148.727,240.729 148.727,233.131 144.041,228.444 L60.113,145 L436,145 C442.627,145 448,139.627 448,133 L448,123 C448,116.373 442.627,111 436,111 L60.113,111 L144.041,27.556 C148.727,22.87 148.727,15.272 144.041,10.585 L136.97,3.515 C132.284,-1.171 124.686,-1.171 120,3.515 L3.515,119.515 C-1.171,124.201 -1.171,131.799 3.515,136.486 L120,252.486 C124.686,257.172 132.284,257.172 136.97,252.485 Z" id="Shape"></path>
            </g>
        </g>
    </g>
</svg>