<?xml version="1.0" encoding="UTF-8"?>
<svg width="560px" height="560px" viewBox="0 0 560 560" version="1.1" xmlns="http://www.w3.org/2000/svg" xmlns:xlink="http://www.w3.org/1999/xlink">
    <!-- Generator: sketchtool 51.2 (57519) - http://www.bohemiancoding.com/sketch -->
    <title>uA059-pencil</title>
    <desc>Created with sketchtool.</desc>
    <defs></defs>
    <g id="Page-1" stroke="none" stroke-width="1" fill="none" fill-rule="evenodd">
        <g id="uA059-pencil" fill="#000000" fill-rule="nonzero">
            <g id="pencil" transform="translate(24.000000, 24.000000)">
                <path d="M493.255,56.236 L455.765,18.746 C430.772,-6.247 390.25,-6.248 365.255,18.746 L12.838,371.162 L0.151,485.346 C-1.547,500.632 11.371,513.549 26.655,511.85 L140.839,499.163 L493.256,146.746 C518.248,121.752 518.248,81.229 493.255,56.236 Z M398.059,196.686 L174,420.745 L174,386 L126,386 L126,338 L91.255,338 L315.314,113.941 L398.059,196.686 Z M126.147,468.598 L67.152,475.153 L36.847,444.848 L43.402,385.853 L63.255,366 L98,366 L98,414 L146,414 L146,448.745 L126.147,468.598 Z M470.627,124.118 L420.686,174.059 L337.941,91.314 L387.882,41.373 C400.387,28.868 420.63,28.866 433.137,41.373 L470.627,78.863 C483.133,91.369 483.134,111.61 470.627,124.118 Z" id="Shape"></path>
            </g>
        </g>
    </g>
</svg>