<?xml version="1.0" encoding="UTF-8"?>
<svg width="560px" height="560px" viewBox="0 0 560 560" version="1.1" xmlns="http://www.w3.org/2000/svg" xmlns:xlink="http://www.w3.org/1999/xlink">
    <!-- Generator: sketchtool 51.2 (57519) - http://www.bohemiancoding.com/sketch -->
    <title>uA055-image</title>
    <desc>Created with sketchtool.</desc>
    <defs></defs>
    <g id="Page-1" stroke="none" stroke-width="1" fill="none" fill-rule="evenodd">
        <g id="uA055-image" fill="#000000" fill-rule="nonzero">
            <g id="image" transform="translate(24.000000, 88.000000)">
                <path d="M464,0 L48,0 C21.49,0 0,21.49 0,48 L0,336 C0,362.51 21.49,384 48,384 L464,384 C490.51,384 512,362.51 512,336 L512,48 C512,21.49 490.51,0 464,0 Z M480,336 C480,344.822 472.822,352 464,352 L48,352 C39.178,352 32,344.822 32,336 L32,48 C32,39.178 39.178,32 48,32 L464,32 C472.822,32 480,39.178 480,48 L480,336 Z M112,168 C142.928,168 168,142.928 168,112 C168,81.072 142.928,56 112,56 C81.072,56 56,81.072 56,112 C56,142.928 81.072,168 112,168 Z M112,88 C125.234,88 136,98.766 136,112 C136,125.234 125.234,136 112,136 C98.766,136 88,125.234 88,112 C88,98.766 98.766,88 112,88 Z M319.029,111.029 L224,206.059 L192.971,175.03 C183.598,165.657 168.402,165.657 159.03,175.03 L71.03,263.03 C66.5288722,267.530519 64.0000788,273.634875 64,280 L64,308 C64,314.627 69.373,320 76,320 L436,320 C442.627,320 448,314.627 448,308 L448,216 C448,209.635 445.471,203.53 440.971,199.029 L352.971,111.029 C343.598,101.657 328.402,101.657 319.029,111.029 Z M416,288 L96,288 L96,283.314 L176,203.314 L224,251.314 L336,139.314 L416,219.314 L416,288 Z" id="Shape"></path>
            </g>
        </g>
    </g>
</svg>