<?xml version="1.0" encoding="UTF-8"?>
<svg width="560px" height="560px" viewBox="0 0 560 560" version="1.1" xmlns="http://www.w3.org/2000/svg" xmlns:xlink="http://www.w3.org/1999/xlink">
    <!-- Generator: sketchtool 51.2 (57519) - http://www.bohemiancoding.com/sketch -->
    <title>uA057-pen</title>
    <desc>Created with sketchtool.</desc>
    <defs></defs>
    <g id="Page-1" stroke="none" stroke-width="1" fill="none" fill-rule="evenodd">
        <g id="uA057-pen" fill="#000000" fill-rule="nonzero">
            <g id="pen" transform="translate(23.000000, 24.000000)">
                <path d="M494.25,56.26 L456.74,18.75 C444.25,6.25 427.87,0 411.49,0 C395.11,0 378.73,6.25 366.23,18.74 L13.85,371.12 L1.15,485.34 C-0.45,499.72 10.88,512 24.95,512 C25.84,512 26.73,511.95 27.64,511.85 L141.78,499.24 L494.26,146.76 C519.25,121.77 519.25,81.25 494.25,56.26 Z M127.09,468.68 L34.06,478.99 L44.42,385.82 L308.31,121.93 L391.08,204.7 L127.09,468.68 Z M471.63,124.14 L413.7,182.07 L330.93,99.3 L388.86,41.37 C394.9,35.33 402.94,32 411.49,32 C420.04,32 428.07,35.33 434.12,41.37 L471.63,78.88 C484.1,91.36 484.1,111.66 471.63,124.14 Z" id="Shape"></path>
            </g>
        </g>
    </g>
</svg>