<?xml version="1.0" encoding="UTF-8"?>
<svg width="560px" height="560px" viewBox="0 0 560 560" version="1.1" xmlns="http://www.w3.org/2000/svg" xmlns:xlink="http://www.w3.org/1999/xlink">
    <!-- Generator: sketchtool 51.2 (57519) - http://www.bohemiancoding.com/sketch -->
    <title>uA052-bold</title>
    <desc>Created with sketchtool.</desc>
    <defs></defs>
    <g id="Page-1" stroke="none" stroke-width="1" fill="none" fill-rule="evenodd">
        <g id="uA052-bold" fill="#000000" fill-rule="nonzero">
            <g id="bold" transform="translate(120.000000, 56.000000)">
                <path d="M249.139,210.128 C283.061,191.14 302.359,156.625 302.359,114.38 C302.359,71.959 282.86,33.667 252.694,16.83 C232.561,5.505 207.478,0 176.01,0 L12,0 C5.373,0 0,5.373 0,12 L0,20 C0,26.627 5.373,32 12,32 L31.95,32 L31.95,416 L12,416 C5.373,416 0,421.373 0,428 L0,436 C0,442.627 5.373,448 12,448 L181.68,448 C201.614,448 227.302,446.823 249.173,437.652 C292.198,419.781 320,374.247 320,321.65 C320,269.154 291.804,225.278 249.139,210.128 Z M66.041,32.201 L176.01,32.201 C200.939,32.201 219.704,36.354 233.367,44.893 C254.747,58.332 267.009,83.43 267.009,113.751 C267.009,163.282 234.744,196.561 186.72,196.561 L66.041,196.561 L66.041,32.201 Z M233.235,407.886 C220.65,413.211 203.786,415.8 181.68,415.8 L66.041,415.8 L66.041,228.76 L190.499,228.76 C246.813,228.76 284.65,266.597 284.65,322.911 C284.65,363.119 265.45,394.877 233.235,407.886 Z" id="Shape"></path>
            </g>
        </g>
    </g>
</svg>