<?xml version="1.0" encoding="UTF-8"?>
<svg width="560px" height="560px" viewBox="0 0 560 560" version="1.1" xmlns="http://www.w3.org/2000/svg" xmlns:xlink="http://www.w3.org/1999/xlink">
    <!-- Generator: sketchtool 51.2 (57519) - http://www.bohemiancoding.com/sketch -->
    <title>uA060-pencil-ruler</title>
    <desc>Created with sketchtool.</desc>
    <defs></defs>
    <g id="Page-1" stroke="none" stroke-width="1" fill="none" fill-rule="evenodd">
        <g id="uA060-pencil-ruler" fill="#000000" fill-rule="nonzero">
            <g id="pencil-ruler" transform="translate(23.000000, 24.000000)">
                <path d="M503.71,368.14 L380.88,245.31 L430.28,195.91 L498.93,127.25 C517.69,108.49 517.68,78.08 498.93,59.32 L453.68,14.07 C444.3,4.69 432,0 419.71,0 C407.42,0 395.12,4.69 385.74,14.07 L317.09,82.71 L267.69,132.11 L144.87,9.29 C138.68,3.1 130.56,0 122.44,0 C114.32,0 106.21,3.1 100.01,9.29 L10.31,99 C-2.07,111.39 -2.08,131.47 10.31,143.86 L133.11,266.66 L20.1,379.66 L1.34,487.11 C-1.38,502.74 12.56,514.01 25.93,511.67 L133.37,492.83 L246.31,379.87 L369.14,502.7 C375.080257,508.655378 383.148514,511.998558 391.56,511.99 C399.68,511.99 407.8,508.89 413.99,502.7 L503.71,413 C516.1,400.61 516.1,380.53 503.71,368.14 Z M408.36,36.7 C412.45,32.61 426.96,32.61 431.05,36.7 L476.3,81.94 C482.55,88.19 482.55,98.36 476.3,104.61 L430.27,150.64 L362.33,82.7 L408.36,36.7 Z M32.93,121.63 L122.44,32.11 L178.39,88 L139.36,127.03 C136.24,130.15 136.24,135.22 139.36,138.34 L150.67,149.65 C153.79,152.77 158.86,152.77 161.98,149.65 L201.02,110.61 L245.12,154.66 L155.62,244.15 L32.93,121.63 Z M117.89,463.06 L35.5,477.51 L49.87,395.14 L339.7,105.34 L407.64,173.28 L117.89,463.06 Z M391.77,480.08 L268.91,357.28 L358.38,267.8 L402.5,311.87 L363.35,351.03 C360.23,354.15 360.23,359.22 363.35,362.34 L374.66,373.65 C377.78,376.77 382.85,376.77 385.97,373.65 L425.14,334.48 L481.08,390.36 L391.77,480.08 Z" id="Shape"></path>
            </g>
        </g>
    </g>
</svg>