<?xml version="1.0" encoding="UTF-8"?>
<svg width="560px" height="560px" viewBox="0 0 560 560" version="1.1" xmlns="http://www.w3.org/2000/svg" xmlns:xlink="http://www.w3.org/1999/xlink">
    <!-- Generator: sketchtool 51.2 (57519) - http://www.bohemiancoding.com/sketch -->
    <title>uA068-angle-double-left</title>
    <desc>Created with sketchtool.</desc>
    <defs></defs>
    <g id="Page-1" stroke="none" stroke-width="1" fill="none" fill-rule="evenodd">
        <g id="uA068-angle-double-left" fill="#000000" fill-rule="nonzero">
            <g id="angle-double-left" transform="translate(141.000000, 151.000000)">
                <path d="M132.1,120.5 L249.9,4.5 C254.6,-0.2 262.2,-0.2 266.9,4.5 L274,11.6 C278.7,16.3 278.7,23.9 274,28.6 L171.7,129 L273.9,229.4 C278.6,234.1 278.6,241.7 273.9,246.4 L266.8,253.5 C262.1,258.2 254.5,258.2 249.8,253.5 L132,137.5 C127.4,132.8 127.4,125.2 132.1,120.5 Z M4.1,137.5 L121.9,253.5 C126.6,258.2 134.2,258.2 138.9,253.5 L146,246.4 C150.7,241.7 150.7,234.1 146,229.4 L43.7,129 L145.9,28.6 C150.6,23.9 150.6,16.3 145.9,11.6 L138.8,4.5 C134.1,-0.2 126.5,-0.2 121.8,4.5 L4,120.5 C-0.6,125.2 -0.6,132.8 4.1,137.5 Z" id="Shape"></path>
            </g>
        </g>
    </g>
</svg>