<?xml version="1.0" encoding="UTF-8"?>
<svg width="560px" height="560px" viewBox="0 0 560 560" version="1.1" xmlns="http://www.w3.org/2000/svg" xmlns:xlink="http://www.w3.org/1999/xlink">
    <!-- Generator: sketchtool 51.2 (57519) - http://www.bohemiancoding.com/sketch -->
    <title>uA074-pause-circle</title>
    <desc>Created with sketchtool.</desc>
    <defs></defs>
    <g id="Page-1" stroke="none" stroke-width="1" fill="none" fill-rule="evenodd">
        <g id="uA074-pause-circle" fill="#000000" fill-rule="nonzero">
            <g id="pause-circle" transform="translate(32.000000, 32.000000)">
                <path d="M248,496 C385,496 496,385 496,248 C496,111 385,0 248,0 C111,0 0,111 0,248 C0,385 111,496 248,496 Z M32,248 C32,129.3 128.1,32 248,32 C366.7,32 464,128.1 464,248 C464,366.7 367.9,464 248,464 C129.3,464 32,367.9 32,248 Z M200,152 L200,344 L200,152 Z M190,152 L210,152 C213.3,152 216,154.7 216,158 L216,338 C216,341.3 213.3,344 210,344 L190,344 C186.7,344 184,341.3 184,338 L184,158 C184,154.7 186.7,152 190,152 Z M286,152 L306,152 C309.3,152 312,154.7 312,158 L312,338 C312,341.3 309.3,344 306,344 L286,344 C282.7,344 280,341.3 280,338 L280,158 C280,154.7 282.7,152 286,152 Z" id="Shape"></path>
            </g>
        </g>
    </g>
</svg>