<?xml version="1.0" encoding="UTF-8"?>
<svg width="560px" height="560px" viewBox="0 0 560 560" version="1.1" xmlns="http://www.w3.org/2000/svg" xmlns:xlink="http://www.w3.org/1999/xlink">
    <!-- Generator: sketchtool 51.2 (57519) - http://www.bohemiancoding.com/sketch -->
    <title>uA073-pause</title>
    <desc>Created with sketchtool.</desc>
    <defs></defs>
    <g id="Page-1" stroke="none" stroke-width="1" fill="none" fill-rule="evenodd">
        <g id="uA073-pause" fill="#000000" fill-rule="nonzero">
            <g id="pause" transform="translate(56.000000, 56.000000)">
                <path d="M48,448 L144,448 C170.5,448 192,426.5 192,400 L192,48 C192,21.5 170.5,0 144,0 L48,0 C21.5,0 0,21.5 0,48 L0,400 C0,426.5 21.5,448 48,448 Z M32,48 C32,39.2 39.2,32 48,32 L144,32 C152.8,32 160,39.2 160,48 L160,400 C160,408.8 152.8,416 144,416 L48,416 C39.2,416 32,408.8 32,400 L32,48 Z M304,448 L400,448 C426.5,448 448,426.5 448,400 L448,48 C448,21.5 426.5,0 400,0 L304,0 C277.5,0 256,21.5 256,48 L256,400 C256,426.5 277.5,448 304,448 Z M288,48 C288,39.2 295.2,32 304,32 L400,32 C408.8,32 416,39.2 416,48 L416,400 C416,408.8 408.8,416 400,416 L304,416 C295.2,416 288,408.8 288,400 L288,48 Z" id="Shape"></path>
            </g>
        </g>
    </g>
</svg>