<?xml version="1.0" encoding="UTF-8"?>
<svg width="560px" height="560px" viewBox="0 0 560 560" version="1.1" xmlns="http://www.w3.org/2000/svg" xmlns:xlink="http://www.w3.org/1999/xlink">
    <!-- Generator: sketchtool 51.2 (57519) - http://www.bohemiancoding.com/sketch -->
    <title>uA087-check-square</title>
    <desc>Created with sketchtool.</desc>
    <defs></defs>
    <g id="Page-1" stroke="none" stroke-width="1" fill="none" fill-rule="evenodd">
        <g id="uA087-check-square" fill="#000000" fill-rule="nonzero">
            <g id="check-square" transform="translate(56.000000, 56.000000)">
                <path d="M400,0 L48,0 C21.49,0 0,21.49 0,48 L0,400 C0,426.51 21.49,448 48,448 L400,448 C426.51,448 448,426.51 448,400 L448,48 C448,21.49 426.51,0 400,0 Z M400,32 C408.823,32 416,39.178 416,48 L416,400 C416,408.822 408.823,416 400,416 L48,416 C39.178,416 32,408.822 32,400 L32,48 C32,39.178 39.178,32 48,32 L400,32 Z M365.699,130.293 L357.248,121.773 C352.581,117.068 344.983,117.037 340.278,121.705 L176.837,283.835 L107.861,214.302 C103.194,209.597 95.596,209.566 90.891,214.234 L82.371,222.685 C77.666,227.352 77.635,234.95 82.303,239.655 L168.181,326.227 C172.848,330.932 180.446,330.963 185.151,326.295 L365.631,147.263 C370.335,142.596 370.366,134.998 365.699,130.293 Z" id="Shape"></path>
            </g>
        </g>
    </g>
</svg>