<?xml version="1.0" encoding="UTF-8"?>
<svg width="560px" height="560px" viewBox="0 0 560 560" version="1.1" xmlns="http://www.w3.org/2000/svg" xmlns:xlink="http://www.w3.org/1999/xlink">
    <!-- Generator: sketchtool 51.2 (57519) - http://www.bohemiancoding.com/sketch -->
    <title>uA084-microphone-slash</title>
    <desc>Created with sketchtool.</desc>
    <defs></defs>
    <g id="Page-1" stroke="none" stroke-width="1" fill="none" fill-rule="evenodd">
        <g id="uA084-microphone-slash" fill="#000000" fill-rule="nonzero">
            <g id="microphone-slash" transform="translate(0.000000, 56.000000)">
                <path d="M556.50546,424.804992 L20.0936037,2.4024961 C18.64679,1.24471946 16.7992061,0.709312238 14.9575306,0.914124904 C13.1158551,1.11893757 11.4310439,2.04718233 10.273947,3.49453978 L1.5375975,14.4237129 C0.379820865,15.8705267 -0.155586357,17.7181106 0.0492263082,19.5597861 C0.254038974,21.4014616 1.18228373,23.0862728 2.62964119,24.2433697 L539.041498,446.637129 C540.488311,447.794906 542.335895,448.330313 544.177571,448.125501 C546.019246,447.920688 547.704058,446.992443 548.861154,445.545086 L557.597504,434.615913 C560.008736,431.610608 559.519501,427.216225 556.50546,424.804992 Z M419.344774,224.524181 L419.344774,175.600624 C419.344774,171.739158 416.217161,168.611544 412.355694,168.611544 L398.377535,168.611544 C394.516069,168.611544 391.388456,171.739158 391.388456,175.600624 L391.388456,224.524181 C391.388456,235.2961 389.370359,245.500156 386.513573,255.354758 L410.127925,273.954446 C415.990016,258.569735 419.344774,241.953198 419.344774,224.524181 Z M223.650546,84.7425897 C223.650546,53.9120125 248.732605,28.8299532 279.563183,28.8299532 C310.39376,28.8299532 335.475819,53.9120125 335.475819,84.7425897 L335.475819,215.167551 L362.25273,236.248362 C362.794384,232.386895 363.432137,228.542902 363.432137,224.524181 L363.432137,84.7425897 C363.432137,38.4224649 325.883307,0.873634945 279.563183,0.873634945 C233.243058,0.873634945 195.694228,38.4224649 195.694228,84.7425897 L195.694228,105.098284 L223.650546,127.113885 L223.650546,84.7425897 Z M279.563183,308.393136 C290.536037,308.393136 300.949766,306.147894 310.55975,302.312637 L282.411232,280.148518 C281.450234,280.200936 280.541654,280.436817 279.563183,280.436817 C252.218409,280.436817 229.486427,260.666459 224.681435,234.684555 L195.694228,211.865211 L195.694228,224.524181 C195.694228,270.844306 233.243058,308.393136 279.563183,308.393136 Z M356.443058,420.218409 L293.541342,420.218409 L293.541342,363.423401 C317.304212,361.047114 339.057722,352.319501 357.832137,339.538222 L334.768175,321.375351 C316.386895,331.893916 294.921685,337.624961 271.945086,336.0961 C212.555382,332.138534 167.73791,280.0961 167.73791,220.584087 L167.73791,189.84961 L142.839314,170.236505 C141.092044,171.512012 139.781591,173.276755 139.781591,175.600624 L139.781591,219.579407 C139.781591,292.431825 193.641186,355.971295 265.585023,363.231201 L265.585023,420.218409 L202.683307,420.218409 C198.821841,420.218409 195.694228,423.346022 195.694228,427.207488 L195.694228,441.185647 C195.694228,445.047114 198.821841,448.174727 202.683307,448.174727 L356.443058,448.174727 C360.304524,448.174727 363.432137,445.047114 363.432137,441.185647 L363.432137,427.207488 C363.432137,423.346022 360.304524,420.218409 356.443058,420.218409 Z" id="Shape"></path>
            </g>
        </g>
    </g>
</svg>