<?xml version="1.0" encoding="UTF-8"?>
<svg width="560px" height="560px" viewBox="0 0 560 560" version="1.1" xmlns="http://www.w3.org/2000/svg" xmlns:xlink="http://www.w3.org/1999/xlink">
    <!-- Generator: sketchtool 51.2 (57519) - http://www.bohemiancoding.com/sketch -->
    <title>uA095-user-minus</title>
    <desc>Created with sketchtool.</desc>
    <defs></defs>
    <g id="Page-1" stroke="none" stroke-width="1" fill="none" fill-rule="evenodd">
        <g id="uA095-user-minus" fill="#000000" fill-rule="nonzero">
            <g id="user-minus" transform="translate(0.000000, 56.000000)">
                <path d="M196,224 C257.8625,224 308,173.8625 308,112 C308,50.1375 257.8625,0 196,0 C134.1375,0 84,50.1375 84,112 C84,173.8625 134.1375,224 196,224 Z M196,28 C242.2875,28 280,65.7125 280,112 C280,158.2875 242.2875,196 196,196 C149.7125,196 112,158.2875 112,112 C112,65.7125 149.7125,28 196,28 Z M553,196 L371,196 C367.15,196 364,199.15 364,203 L364,217 C364,220.85 367.15,224 371,224 L553,224 C556.85,224 560,220.85 560,217 L560,203 C560,199.15 556.85,196 553,196 Z M274.4,252 C249.2875,252 237.2125,266 196,266 C154.7875,266 142.8,252 117.6,252 C52.675,252 0,304.675 0,369.6 L0,406 C0,429.1875 18.8125,448 42,448 L350,448 C373.1875,448 392,429.1875 392,406 L392,369.6 C392,304.675 339.325,252 274.4,252 Z M364,406 C364,413.7 357.7,420 350,420 L42,420 C34.3,420 28,413.7 28,406 L28,369.6 C28,320.1625 68.1625,280 117.6,280 C134.75,280 151.8125,294 196,294 C240.1,294 257.25,280 274.4,280 C323.8375,280 364,320.1625 364,369.6 L364,406 Z" id="Shape"></path>
            </g>
        </g>
    </g>
</svg>