<?xml version="1.0" encoding="UTF-8"?>
<svg width="560px" height="560px" viewBox="0 0 560 560" version="1.1" xmlns="http://www.w3.org/2000/svg" xmlns:xlink="http://www.w3.org/1999/xlink">
    <!-- Generator: sketchtool 51.2 (57519) - http://www.bohemiancoding.com/sketch -->
    <title>uA093-user-tag</title>
    <desc>Created with sketchtool.</desc>
    <defs></defs>
    <g id="Page-1" stroke="none" stroke-width="1" fill="none" fill-rule="evenodd">
        <g id="uA093-user-tag" fill="#000000" fill-rule="nonzero">
            <g id="user-tag" transform="translate(0.000000, 56.000000)">
                <path d="M195.9125,224 C257.775,224 307.9125,173.8625 307.9125,112 C307.9125,50.1375 257.775,0 195.9125,0 C134.1375,0 84,50.1375 84,112 C84,173.8625 134.1375,224 195.9125,224 Z M195.9125,28 C242.2,28 279.9125,65.7125 279.9125,112 C279.9125,158.2875 242.2,196 195.9125,196 C149.625,196 111.9125,158.2875 111.9125,112 C112,65.7125 149.625,28 195.9125,28 Z M551.775,319.2 L472.85,240.1875 C462.35,229.6875 448.0875,223.825 433.3,223.825 L363.9125,223.825 C348.425,223.825 335.9125,236.3375 335.9125,251.825 L335.9125,321.2125 C335.9125,336.0875 341.775,350.35 352.275,360.85 L431.2,439.8625 C436.625,445.2875 443.8,448.0875 450.975,448.0875 C458.15,448.0875 465.325,445.375 470.75,439.8625 L551.6875,358.925 C562.7125,347.9 562.7125,330.1375 551.775,319.2 Z M451.0625,420 L372.1375,340.9875 C366.8875,335.7375 363.9125,328.65 363.9125,321.2125 L363.9125,251.825 L433.3,251.825 C440.7375,251.825 447.825,254.7125 453.075,260.05 L532,339.0625 L451.0625,420 Z M405.9125,280 C398.2125,280 391.9125,286.3 391.9125,294 C391.9125,301.7 398.2125,308 405.9125,308 C413.6125,308 419.9125,301.7 419.9125,294 C419.9125,286.3 413.6125,280 405.9125,280 Z M349.9125,420 L42,420 C34.3,420 28,413.7 28,406 L28,369.6 C28,320.1625 68.1625,280 117.6,280 C134.75,280 151.8125,294 196,294 C240.0125,294 257.25,280 274.4,280 C286.3,280 297.5875,282.45 308,286.65 L308,257.425 C297.325,254.1875 286.125,252 274.4,252 C249.2875,252 237.2125,266 196,266 C154.7875,266 142.8,252 117.6,252 C52.675,252 0,304.675 0,369.6 L0,406 C0,429.1875 18.8125,448 42,448 L349.9125,448 C363.5625,448 375.55,441.35 383.25,431.2875 L362.95,410.9875 C360.85,416.2375 355.8625,420 349.9125,420 Z" id="Shape"></path>
            </g>
        </g>
    </g>
</svg>