<?xml version="1.0" encoding="UTF-8"?>
<svg width="560px" height="560px" viewBox="0 0 560 560" version="1.1" xmlns="http://www.w3.org/2000/svg" xmlns:xlink="http://www.w3.org/1999/xlink">
    <!-- Generator: sketchtool 51.2 (57519) - http://www.bohemiancoding.com/sketch -->
    <title>uA103-user-queue</title>
    <desc>Created with sketchtool.</desc>
    <defs></defs>
    <g id="Page-1" stroke="none" stroke-width="1" fill="none" fill-rule="evenodd">
        <g id="uA103-user-queue" fill="#000000" fill-rule="nonzero">
            <g id="user-queue" transform="translate(0.000000, 84.000000)">
                <path d="M420,196 C466.375,196 504,158.375 504,112 C504,65.625 466.375,28 420,28 C373.625,28 336,65.625 336,112 C336,158.375 373.625,196 420,196 Z M420,56 C450.8875,56 476,81.1125 476,112 C476,142.8875 450.8875,168 420,168 C389.1125,168 364,142.8875 364,112 C364,81.1125 389.1125,56 420,56 Z M168,196 C222.1625,196 266,152.1625 266,98 C266,43.8375 222.1625,0 168,0 C113.8375,0 70,43.8375 70,98 C70,152.1625 113.8375,196 168,196 Z M168,28 C206.5875,28 238,59.4125 238,98 C238,136.5875 206.5875,168 168,168 C129.4125,168 98,136.5875 98,98 C98,59.4125 129.4125,28 168,28 Z M238.0875,213.5 C208.8625,213.5 201.6,224 168,224 C134.4,224 127.1375,213.5 97.9125,213.5 C66.15,213.5 35.2625,227.675 17.15,254.5375 C6.3,270.6375 0,289.975 0,310.8 L0,350 C0,373.1875 18.8125,392 42,392 L294,392 C317.1875,392 336,373.1875 336,350 L336,310.8 C336,289.975 329.7,270.6375 318.85,254.5375 C300.7375,227.675 269.85,213.5 238.0875,213.5 Z M308,350 C308,357.7 301.7,364 294,364 L42,364 C34.3,364 28,357.7 28,350 L28,310.8 C28,296.275 32.2875,282.1875 40.3375,270.2 C52.4125,252.2625 73.9375,241.5 97.825,241.5 C121.8,241.5 130.375,252 168,252 C205.625,252 214.2,241.5 238.0875,241.5 C261.975,241.5 283.5,252.2625 295.575,270.2 C303.625,282.1875 307.9125,296.275 307.9125,310.8 L307.9125,350 L308,350 Z M545.7375,249.4625 C530.6,227.0625 504.875,215.25 478.45,215.25 C454.125,215.25 448,224 420,224 C392,224 385.875,215.25 361.55,215.25 C350,215.25 338.7125,217.875 328.2125,222.3375 C341.5125,235.8125 344.4,242.9875 345.8875,245.6125 C350.875,244.2125 356.0375,243.3375 361.55,243.3375 C380.625,243.3375 387.8,252.0875 420,252.0875 C452.2,252.0875 459.375,243.3375 478.45,243.3375 C496.825,243.3375 513.275,251.475 522.55,265.2125 C528.7625,274.4 532.0875,285.25 532.0875,296.45 L532.0875,329 C532.0875,332.85 528.9375,336 525.0875,336 L364,336 C364,351.4875 364.2625,355.6875 362.6,364 L525,364 C544.3375,364 560,348.3375 560,329 L560,296.3625 C560,278.95 554.75,262.85 545.7375,249.4625 Z" id="Shape"></path>
            </g>
        </g>
    </g>
</svg>