<?xml version="1.0" encoding="UTF-8"?>
<svg width="560px" height="560px" viewBox="0 0 560 560" version="1.1" xmlns="http://www.w3.org/2000/svg" xmlns:xlink="http://www.w3.org/1999/xlink">
    <!-- Generator: sketchtool 51.2 (57519) - http://www.bohemiancoding.com/sketch -->
    <title>uA105-users-cog</title>
    <desc>Created with sketchtool.</desc>
    <defs></defs>
    <g id="Page-1" stroke="none" stroke-width="1" fill="none" fill-rule="evenodd">
        <g id="uA105-users-cog" fill="#000000" fill-rule="nonzero">
            <g id="users-cog" transform="translate(0.000000, 84.000000)">
                <path d="M251.082683,190.976599 C253.616225,181.890796 256.76131,173.154446 260.605304,164.767551 C231.25117,156.468019 209.585023,129.734789 209.585023,97.7597504 C209.585023,59.2324493 240.948518,27.8689548 279.475819,27.8689548 C311.450858,27.8689548 338.096724,49.5351014 346.483619,78.8892356 C354.870515,75.0452418 363.606864,71.8127925 372.692668,69.3666147 C360.461778,29.3541342 323.594384,0 279.563183,0 C225.485179,0 181.716069,43.7691108 181.716069,97.8471139 C181.716069,141.878315 211.070203,178.74571 251.082683,190.976599 Z M83.8689548,167.73791 C122.483619,167.73791 153.75975,136.461778 153.75975,97.8471139 C153.75975,59.2324493 122.483619,27.9563183 83.8689548,27.9563183 C45.2542902,27.9563183 13.9781591,59.2324493 13.9781591,97.8471139 C13.9781591,136.461778 45.2542902,167.73791 83.8689548,167.73791 Z M83.8689548,55.9126365 C107.020281,55.9126365 125.803432,74.6957878 125.803432,97.8471139 C125.803432,120.99844 107.020281,139.781591 83.8689548,139.781591 C60.7176287,139.781591 41.9344774,120.99844 41.9344774,97.8471139 C41.9344774,74.6957878 60.7176287,55.9126365 83.8689548,55.9126365 Z M137.24805,206.964119 C126.851794,199.887676 114.533541,195.694228 101.341654,195.694228 L66.3962559,195.694228 C29.7909516,195.694228 0,227.057722 0,265.585023 C0,273.273011 6.29017161,279.563183 13.9781591,279.563183 C21.6661466,279.563183 27.9563183,273.273011 27.9563183,265.585023 C27.9563183,242.433697 45.2542902,223.650546 66.3962559,223.650546 L101.341654,223.650546 C106.146646,223.650546 110.776911,224.698908 115.057722,226.533541 C121.609984,219.107644 129.123245,212.555382 137.24805,206.964119 Z M153.75975,363.432137 C146.071763,363.432137 139.781591,357.141966 139.781591,349.453978 L139.781591,310.315133 C139.781591,295.812793 144.062402,281.74727 152.099844,269.778471 C164.156006,251.868955 185.647426,241.123245 209.49766,241.123245 C221.99064,241.123245 225.921997,243.219969 245.054602,247.413417 C244.879875,244.093604 243.831513,235.706708 245.578783,218.932917 C231.338534,215.176287 222.514821,213.166927 209.49766,213.166927 C177.784711,213.166927 146.945398,227.319813 128.861154,254.140406 C118.028081,270.215289 111.73791,289.522621 111.73791,310.315133 L111.73791,349.453978 C111.73791,372.605304 130.521061,391.388456 153.672387,391.388456 L336.26209,391.388456 C322.283931,383.875195 309.528861,374.352574 298.25897,363.432137 L153.75975,363.432137 Z M419.344774,181.279251 C388.24337,181.279251 362.99532,206.614665 362.99532,237.628705 C362.99532,268.642746 388.24337,293.978159 419.344774,293.978159 C450.446178,293.978159 475.694228,268.642746 475.694228,237.628705 C475.694228,206.614665 450.446178,181.279251 419.344774,181.279251 Z M419.344774,266.021841 C403.706708,266.021841 390.951638,253.266771 390.951638,237.628705 C390.951638,221.99064 403.706708,209.235569 419.344774,209.235569 C434.982839,209.235569 447.73791,221.99064 447.73791,237.628705 C447.73791,253.266771 434.982839,266.021841 419.344774,266.021841 Z M548.904836,257.110764 L534.48986,248.811232 C535.188768,241.385335 535.188768,233.872075 534.48986,226.446178 L548.9922,218.146646 C557.291732,213.341654 561.048362,203.556942 558.165367,194.558502 C551.875195,174.115445 540.780031,154.895476 526.102964,139.082683 C519.638066,132.00624 509.24181,130.433697 500.942278,135.23869 L486.527301,143.538222 C480.411856,139.170047 473.946958,135.413417 467.132605,132.355694 L467.132605,115.75663 C467.132605,106.146646 460.580343,98.0218409 451.232449,95.925117 C430.352574,91.2074883 408.162246,91.2074883 387.195008,95.925117 C377.847114,98.0218409 371.294852,106.234009 371.294852,115.75663 L371.294852,132.355694 C364.480499,135.413417 357.928237,139.170047 351.900156,143.538222 L337.485179,135.23869 C329.185647,130.433697 318.876755,132.00624 312.411856,139.082683 C297.734789,154.895476 286.726989,174.115445 280.349454,194.471139 C277.466459,203.556942 281.397816,213.516381 289.609984,218.234009 L304.024961,226.533541 C303.326053,233.959438 303.326053,241.472699 304.024961,248.898596 L289.522621,257.198128 C281.397816,261.915757 277.466459,271.962559 280.349454,280.873635 C286.726989,301.316693 297.734789,320.536661 312.411856,336.349454 C318.876755,343.338534 329.185647,344.911076 337.572543,340.193448 L351.98752,331.893916 C358.102964,336.26209 364.567863,340.018721 371.382215,343.076443 L371.382215,359.675507 C371.382215,369.285491 377.934477,377.410296 387.282371,379.50702 C397.765991,381.865835 408.5117,383.00156 419.25741,383.00156 C430.00312,383.00156 440.836193,381.865835 451.232449,379.50702 C460.580343,377.410296 467.132605,369.198128 467.132605,359.675507 L467.132605,343.076443 C473.946958,340.018721 480.411856,336.26209 486.527301,331.893916 L500.942278,340.193448 C509.154446,344.911076 519.550702,343.338534 526.015601,336.349454 C540.692668,320.536661 551.700468,301.316693 558.078003,280.960998 C561.048362,271.875195 557.117005,261.828393 548.904836,257.110764 Z M503.825273,263.400936 L529.51014,278.25273 C524.879875,290.74571 518.152886,302.539782 509.591264,312.76131 L483.906396,297.909516 C465.210608,313.897036 462.50234,315.469579 439.263651,323.681747 L439.263651,353.385335 C426.071763,355.656786 412.530421,355.656786 399.425897,353.385335 L399.425897,323.681747 C375.925117,315.382215 373.042122,313.460218 354.783151,297.909516 L329.098284,312.76131 C320.536661,302.452418 313.722309,290.74571 309.179407,278.25273 L334.864275,263.400936 C330.583463,239.98752 330.321373,236.667707 334.864275,211.856474 L309.179407,197.00468 C313.722309,184.5117 320.536661,172.804992 329.098284,162.4961 L354.783151,177.347894 C373.478939,161.360374 376.187207,159.787832 399.425897,151.575663 L399.425897,121.872075 C412.617785,119.687988 426.24649,119.687988 439.263651,121.872075 L439.263651,151.575663 C462.677067,159.875195 465.647426,161.709828 483.906396,177.347894 L509.591264,162.4961 C518.152886,172.804992 524.967239,184.5117 529.51014,197.00468 L503.825273,211.856474 C508.106084,235.269891 508.368175,238.589704 503.825273,263.400936 Z" id="Shape"></path>
            </g>
        </g>
    </g>
</svg>