<?xml version="1.0" encoding="UTF-8"?>
<svg width="560px" height="560px" viewBox="0 0 560 560" version="1.1" xmlns="http://www.w3.org/2000/svg" xmlns:xlink="http://www.w3.org/1999/xlink">
    <!-- Generator: sketchtool 51.2 (57519) - http://www.bohemiancoding.com/sketch -->
    <title>uA107-phone</title>
    <desc>Created with sketchtool.</desc>
    <defs></defs>
    <g id="Page-1" stroke="none" stroke-width="1" fill="none" fill-rule="evenodd">
        <g id="uA107-phone" fill="#000000" fill-rule="nonzero">
            <path d="M447.063958,363.536488 L447.062915,363.529161 L447.056023,363.527744 L447.056541,363.535548 L447.063958,363.536488 Z M446.77577,363.44619 L446.756394,363.433544 C446.753215,363.431931 446.750148,363.430331 446.747195,363.428746 C446.755353,363.433125 446.764963,363.438973 446.77577,363.44619 Z M376.948806,354.650032 C376.600486,354.605885 375.950566,354.615447 375.114213,354.724446 C374.060843,354.861729 372.889364,355.135272 371.72026,355.525633 C370.550966,355.916057 369.449418,356.40151 368.523702,356.92516 C367.787898,357.341383 367.260619,357.725442 367.00679,357.971602 L329.023272,394.807594 L317.85743,389.110542 C285.637338,372.67116 255.886188,351.326552 230.612505,326.062535 C205.332383,300.792081 184.691219,271.773762 168.533331,239.470345 L161.947458,226.303637 L206.622702,193.237003 C206.870108,192.818026 207.07127,192.402904 207.221247,191.94097 C207.371173,191.479193 207.452171,191.0254 207.464095,190.655605 C207.46784,190.539429 199.881174,166.439936 184.704096,118.357127 C184.496555,117.699863 182.328869,115.984927 181.644936,115.934672 L106.16915,110.388792 C109.522921,198.936236 145.547218,283.193045 209.516199,347.137562 C274.373565,411.970125 360.120707,448.088714 450.052427,450.568483 L452.838138,450.568483 L447.069743,363.734285 C446.977577,363.628389 423.603931,360.600304 376.948806,354.650032 Z M106.042126,106.46937 L105.977824,106.471103 C105.946119,106.630088 105.904138,106.787108 105.852683,106.941413 L106.048485,106.941413 L106.048485,106.702539 C106.04634,106.624809 106.04422,106.547091 106.042126,106.46937 Z M255.390786,301.274774 C275.131498,321.007937 298.016984,338.137037 322.803167,352.016727 L342.606742,332.811437 C352.076454,323.627816 368.26918,318.221109 381.355629,319.879697 L451.668266,328.791182 C467.789285,330.834375 480.93713,344.791829 482.014618,361.011739 L488.107049,452.723801 C489.300288,470.686156 475.32385,485.616967 457.319471,485.616967 L449.57784,485.616967 C350.456924,482.948065 256.062627,443.222755 184.737918,371.925323 C113.411988,300.62667 73.6700472,206.26507 71.0063588,107.413456 L71,105.764727 C71,87.7149951 85.9985741,73.7637062 104.006364,75.0868993 L184.213337,80.9804219 C199.209179,82.0823003 213.598751,93.4664209 218.125955,107.803661 L240.920558,179.992076 C245.54181,194.627157 239.811521,212.276574 227.473882,221.408347 L206.74087,236.754002 C220.065673,260.567362 236.247374,282.138683 255.390786,301.274774 Z" id="phone"></path>
        </g>
    </g>
</svg>