<?xml version="1.0" encoding="UTF-8"?>
<svg width="560px" height="560px" viewBox="0 0 560 560" version="1.1" xmlns="http://www.w3.org/2000/svg" xmlns:xlink="http://www.w3.org/1999/xlink">
    <!-- Generator: sketchtool 51.2 (57519) - http://www.bohemiancoding.com/sketch -->
    <title>uA119-chat-times</title>
    <desc>Created with sketchtool.</desc>
    <defs></defs>
    <g id="Page-1" stroke="none" stroke-width="1" fill="none" fill-rule="evenodd">
        <g id="uA119-chat-times" fill="#000000" fill-rule="nonzero">
            <g id="chat-times" transform="translate(24.000000, 56.000000)">
                <path d="M330.5,145.8 L319.2,134.5 C317.6,132.9 315.6,132.2 313.5,132.2 C311.4,132.2 309.4,133 307.8,134.5 L257,185.4 L206.1,134.5 C204.5,132.9 202.5,132.2 200.4,132.2 C198.3,132.2 196.3,133 194.7,134.5 L183.4,145.8 C180.3,148.9 180.3,154 183.4,157.1 L234.3,208 L183.4,258.9 C180.3,262 180.3,267.1 183.4,270.2 L194.7,281.5 C196.3,283.1 198.3,283.8 200.4,283.8 C202.5,283.8 204.5,283 206.1,281.5 L257,230.6 L307.9,281.5 C309.5,283.1 311.5,283.8 313.6,283.8 C315.7,283.8 317.7,283 319.3,281.5 L330.6,270.2 C333.7,267.1 333.7,262 330.6,258.9 L279.6,208 L330.5,157.1 C333.7,154 333.7,148.9 330.5,145.8 Z M257,0 C115.6,0 1,93.1 1,208 C1,255.6 20.9,299.2 53.9,334.3 C39,373.7 8,407.1 7.5,407.5 C0.9,414.5 -0.9,424.7 2.9,433.5 C6.7,442.3 15.4,448 25,448 C86.5,448 135,422.3 164.1,401.7 C193,410.8 224.2,416 257,416 C398.4,416 513,322.9 513,208 C513,93.1 398.4,0 257,0 Z M257,384 C228.7,384 200.7,379.7 173.8,371.2 L158.6,366.4 L145.6,375.6 C122.6,391.9 87.1,410.9 43,415.2 C55,400.1 72.8,374.8 83.8,345.6 L90.9,326.9 L77.2,312.3 C48.3,281.7 33,245.6 33,208 C33,111 133.5,32 257,32 C380.5,32 481,111 481,208 C481,305 380.5,384 257,384 Z" id="Shape"></path>
            </g>
        </g>
    </g>
</svg>