<?xml version="1.0" encoding="UTF-8"?>
<svg width="560px" height="560px" viewBox="0 0 560 560" version="1.1" xmlns="http://www.w3.org/2000/svg" xmlns:xlink="http://www.w3.org/1999/xlink">
    <!-- Generator: sketchtool 51.2 (57519) - http://www.bohemiancoding.com/sketch -->
    <title>uA111-phone-cog</title>
    <desc>Created with sketchtool.</desc>
    <defs></defs>
    <g id="Page-1" stroke="none" stroke-width="1" fill="none" fill-rule="evenodd">
        <g id="uA111-phone-cog" fill="#000000" fill-rule="nonzero">
            <path d="M526.506661,524 C528.175622,524 529.099273,523.014981 528.991225,521.391284 L520.541227,394.409415 C520.326544,391.183283 516.831988,387.479948 513.604229,387.071566 L416.082951,374.73298 C410.07737,373.973142 399.801021,377.398461 395.453915,381.606955 L347.043609,428.473644 L336.862163,423.287824 C292.934122,400.913504 252.37995,371.86865 217.953237,337.51454 C183.53362,303.167512 155.423335,263.717006 133.40302,219.769254 L127.372376,207.733401 L183.750413,166.076951 C187.024492,163.657808 189.157889,157.098249 187.936064,153.235526 L156.320711,53.2855335 C155.012678,49.1502666 149.111514,44.4897014 144.765947,44.1709453 L33.5215552,36.0109443 C31.9079753,35.892585 31,36.7357016 31,38.3311267 C34.4707653,166.332302 85.4359972,287.062256 176.930237,378.363542 C268.430961,469.671298 389.433757,520.536293 516.313106,524 L526.506661,524 Z M168.206634,217.349359 C187.695611,253.50206 211.754968,286.122203 240.556756,314.863251 C269.925736,344.170295 304.188108,369.390947 341.312165,389.483157 L373.196013,358.61596 C384.518754,347.654258 404.460253,341.007345 420.099633,342.986071 L517.620911,355.324656 C536.033274,357.654225 551.238403,373.767769 552.47061,392.284677 L560.920607,519.266545 C562.258696,539.374595 546.669056,556 526.506661,556 L515.881444,556 C380.623171,552.364363 251.732398,498.215091 154.326717,401.014831 C56.9148796,303.808427 2.64394361,175.172346 -0.994174227,40.3920623 L-1,38.3311267 C-1,18.1344086 15.7095834,2.61842738 35.8625305,4.09668677 L147.106922,12.2566877 C164.508678,13.5331417 181.571877,27.0091526 186.830778,43.6348422 L218.446131,143.584835 C223.794188,160.49239 217.036581,181.27002 202.766713,191.813701 L168.206634,217.349359 Z M518.114255,171.190005 C525.252871,175.290912 528.670294,184.024325 526.164184,191.922369 C520.620365,209.617023 510.975639,226.324422 498.293204,240.070055 C492.673443,246.145473 483.636259,247.512442 476.497643,243.411535 L463.967093,236.196976 C458.651103,239.994112 453.031341,243.25965 447.107809,245.917645 L447.107809,260.346762 C447.107809,268.624519 441.412104,275.763135 433.286233,277.585761 C424.249049,279.636214 414.832151,280.623469 405.491196,280.623469 C396.150241,280.623469 386.809286,279.636214 377.696159,277.585761 C369.570288,275.763135 363.874584,268.700462 363.874584,260.346762 L363.874584,245.917645 C357.951051,243.25965 352.33129,239.994112 347.015299,236.196976 L334.48475,243.411535 C327.270191,247.512442 318.30895,246.145473 312.689188,240.070055 C299.930811,226.324422 290.286085,209.617023 284.818209,191.846426 C282.312099,184.100268 285.729521,175.366855 292.792195,171.265948 L305.398687,164.051389 C304.791145,157.596258 304.791145,151.065183 305.398687,144.610052 L292.868137,137.395493 C285.729521,133.294586 282.312099,124.637116 284.818209,116.739072 C290.362027,99.0444178 300.006753,82.3370186 312.689188,68.5913857 C318.30895,62.4400251 327.270191,61.0730561 334.48475,65.2499058 L347.015299,72.4644646 C352.33129,68.6673284 357.951051,65.4017913 363.874584,62.743796 L363.874584,48.3146785 C363.874584,40.0369217 369.570288,32.8983057 377.696159,31.0756803 C395.84647,26.9747732 415.135922,26.9747732 433.286233,31.0756803 C441.412104,32.8983057 447.107809,39.9609789 447.107809,48.3146785 L447.107809,62.743796 C453.031341,65.4017913 458.651103,68.6673284 463.967093,72.4644646 L476.497643,65.2499058 C483.636259,61.0730561 492.673443,62.4400251 498.293204,68.5913857 C511.051582,82.3370186 520.696308,99.0444178 526.164184,116.815015 C528.670294,124.637116 525.404756,133.142701 518.190198,137.31955 L505.583706,144.534109 C506.191247,150.989241 506.191247,157.520315 505.583706,163.975446 L518.114255,171.190005 Z M478.92781,176.657881 C482.876831,155.090148 482.649003,152.204324 478.92781,131.851674 L501.25497,118.941411 C497.305949,108.081602 491.382416,97.9052769 483.940029,88.9440355 L461.612869,101.854299 C445.74084,88.260551 443.158787,86.6657538 422.806137,79.4511951 L422.806137,53.6306692 C411.490671,51.7321011 399.643606,51.7321011 388.176255,53.6306692 L388.176255,79.4511951 C367.975491,86.5898111 365.621266,87.9567801 349.369524,101.854299 L327.042363,88.9440355 C319.599976,97.9052769 313.676444,108.081602 309.727422,118.941411 L332.054583,131.851674 C328.105561,153.419408 328.333389,156.305231 332.054583,176.657881 L309.727422,189.568144 C313.676444,200.427954 319.599976,210.604278 327.042363,219.56552 L349.369524,206.655257 C365.241553,220.173062 367.747663,221.843802 388.176255,229.05836 L388.176255,254.878886 C399.567664,256.853397 411.338786,256.853397 422.806137,254.878886 L422.806137,229.05836 C443.006902,221.919744 445.361126,220.552775 461.612869,206.655257 L483.940029,219.56552 C491.382416,210.680221 497.305949,200.427954 501.25497,189.568144 L478.92781,176.657881 Z M405.491196,105.271721 C432.526806,105.271721 454.474253,127.295111 454.474253,154.254778 C454.474253,181.214445 432.526806,203.237834 405.491196,203.237834 C378.455587,203.237834 356.50814,181.214445 356.50814,154.254778 C356.50814,127.295111 378.455587,105.271721 405.491196,105.271721 Z M405.491196,178.936163 C419.084944,178.936163 430.172581,167.848525 430.172581,154.254778 C430.172581,140.66103 419.084944,129.573393 405.491196,129.573393 C391.897449,129.573393 380.809811,140.66103 380.809811,154.254778 C380.809811,167.848525 391.897449,178.936163 405.491196,178.936163 Z" id="phone-cog"></path>
        </g>
    </g>
</svg>