<?xml version="1.0" encoding="UTF-8"?>
<svg width="560px" height="560px" viewBox="0 0 560 560" version="1.1" xmlns="http://www.w3.org/2000/svg" xmlns:xlink="http://www.w3.org/1999/xlink">
    <!-- Generator: sketchtool 51.2 (57519) - http://www.bohemiancoding.com/sketch -->
    <title>uA128-chat-slash</title>
    <desc>Created with sketchtool.</desc>
    <defs></defs>
    <g id="Page-1" stroke="none" stroke-width="1" fill="none" fill-rule="evenodd">
        <g id="uA128-chat-slash" fill="#000000" fill-rule="nonzero">
            <g id="chat-slash" transform="translate(0.000000, 56.000000)">
                <path d="M280,56 C388.0625,56 476,125.125 476,210 C476,237.825 466.375,263.9 449.8375,286.475 L471.7125,303.7125 C492.1,276.325 504,244.3 504,210 C504,109.4625 403.725,28 280,28 C235.2,28 193.6375,38.7625 158.6375,57.1375 L182.9625,76.3 C211.6625,63.4375 244.7375,56 280,56 Z M557.375,424.55 L144.2,99.225 L121.5375,81.375 L20.125,1.575 C17.15,-0.875 12.6875,-0.35 10.325,2.625 L1.575,13.5625 C-0.875,16.625 -0.35,21 2.625,23.45 L101.0625,100.975 L123.025,118.3 L539.875,446.425 C542.85,448.875 547.3125,448.35 549.675,445.375 L558.425,434.4375 C560.875,431.375 560.35,427 557.375,424.55 Z M280,364 C255.2375,364 230.7375,360.2375 207.2,352.8 L193.9,348.6 L182.525,356.65 C162.4,370.9125 131.3375,387.5375 92.75,391.3 C103.25,378.0875 118.825,355.95 128.45,330.4 L134.6625,314.0375 L122.675,301.2625 C97.3875,274.4875 84,242.9 84,210 C84,189.6125 89.1625,170.1 98.4375,152.25 L76.2125,134.75 C63.35,157.7625 56,183.1375 56,210 C56,251.65 73.4125,289.8 102.2875,320.5125 C89.25,354.9875 62.125,384.2125 61.6875,384.5625 C55.9125,390.6875 54.3375,399.6125 57.6625,407.3125 C60.9875,415.0125 68.6,420 77,420 C130.8125,420 173.25,397.5125 198.7125,379.4875 C224,387.45 251.3,392 280,392 C315.525,392 349.0375,385.0875 378.875,373.1 L353.0625,352.8 C330.4,359.975 305.8125,364 280,364 Z" id="Shape"></path>
            </g>
        </g>
    </g>
</svg>