<?xml version="1.0" encoding="UTF-8"?>
<svg width="560px" height="560px" viewBox="0 0 560 560" version="1.1" xmlns="http://www.w3.org/2000/svg" xmlns:xlink="http://www.w3.org/1999/xlink">
    <!-- Generator: sketchtool 51.2 (57519) - http://www.bohemiancoding.com/sketch -->
    <title>uA131-mail-slash</title>
    <desc>Created with sketchtool.</desc>
    <defs></defs>
    <g id="Page-1" stroke="none" stroke-width="1" fill="none" fill-rule="evenodd">
        <g id="uA131-mail-slash" fill="#000000" fill-rule="nonzero">
            <path d="M515,394.188314 L485.625,371.061482 L485.625,224.424479 C467.870226,239.007164 441.395648,260.337437 393.480569,298.516502 L369.789824,279.864863 C441.821779,222.52001 467.305915,201.679789 485.625,186.182813 L485.625,148.125 C485.625,140.035417 479.015625,133.416667 470.9375,133.416667 L183.775772,133.416667 L146.411616,104 L470.9375,104 C495.263672,104 515,123.764323 515,148.125 L515,394.188314 Z M418.669063,457 L89.0625,457 C64.7363281,457 45,437.235677 45,412.875 L45,162.811686 L74.375,185.938518 L74.375,186.182813 C94.4785156,203.189323 123.210938,226.630729 212.621094,297.690365 C224.540112,307.210686 245.561252,327.108965 264.327278,335.487269 L301.52162,364.770238 C294.458943,367.311401 287.240247,368.809757 280,368.75 C246.402344,368.933854 213.171875,335.748177 194.353516,320.672135 C128.351563,268.181771 95.3046875,241.614844 74.375,224.424479 L74.375,412.875 C74.375,420.964583 80.984375,427.583333 89.0625,427.583333 L381.304906,427.583333 L418.669063,457 Z M557.375,480.55 L144.2,155.225 L121.5375,137.375 L20.125,57.575 C17.15,55.125 12.6875,55.65 10.325,58.625 L1.575,69.5625 C-0.875,72.625 -0.35,77 2.625,79.45 L101.0625,156.975 L123.025,174.3 L539.875,502.425 C542.85,504.875 547.3125,504.35 549.675,501.375 L558.425,490.4375 C560.875,487.375 560.35,483 557.375,480.55 Z" id="mail-slash"></path>
        </g>
    </g>
</svg>