<?xml version="1.0" encoding="UTF-8"?>
<svg width="560px" height="560px" viewBox="0 0 560 560" version="1.1" xmlns="http://www.w3.org/2000/svg" xmlns:xlink="http://www.w3.org/1999/xlink">
    <!-- Generator: sketchtool 51.2 (57519) - http://www.bohemiancoding.com/sketch -->
    <title>uA139-at</title>
    <desc>Created with sketchtool.</desc>
    <defs></defs>
    <g id="Page-1" stroke="none" stroke-width="1" fill="none" fill-rule="evenodd">
        <g id="uA139-at" fill="#000000" fill-rule="nonzero">
            <g id="at" transform="translate(32.000000, 32.000000)">
                <path d="M248,0 C110.941,0 0,110.919 0,248 C0,385.058 110.919,496 248,496 C300.925,496 352.68,478.922 395.092,447.681 C400.593,443.629 401.515,435.757 397.187,430.47 L392.113,424.272 C388.095,419.363 380.92,418.389 375.806,422.143 C338.93,449.208 293.974,464 248,464 C128.627,464 32,367.393 32,248 C32,128.625 128.607,32 248,32 C366.445,32 464,112.024 464,232 C464,304.873 411.181,340.241 347.935,340.241 C328.201,340.241 324.24,329.425 328.432,306.373 L360.502,142.302 C361.951,134.891 356.276,128 348.725,128 L336.304,128 C330.556466,128.00001 325.615989,132.075348 324.523,137.718 C322.229,149.564 321.663,151.182 320.662,163.365 C308.933,136.287 282.023,120.342 247.287,120.342 C179.243,120.342 114.111,183.292 114.111,277.369 C114.111,338.956 148.026,375.723 204.834,375.723 C244.563,375.723 275.435,351.445 291.467,328.741 C290.256,356.527 308.922,370.954 337.442,370.954 C445.089,370.954 496,313.729 496,232 C496,95.814 385.863,0 248,0 Z M210.08,342.627 C173.399,342.627 151.5,317.519 151.5,275.461 C151.5,200.771 202.265,153.916 248.717,153.916 C287.574,153.916 306.819,181.706 306.819,219.651 C306.819,277.784 268.45,342.627 210.08,342.627 Z" id="Shape"></path>
            </g>
        </g>
    </g>
</svg>