<?xml version="1.0" encoding="UTF-8"?>
<svg width="560px" height="560px" viewBox="0 0 560 560" version="1.1" xmlns="http://www.w3.org/2000/svg" xmlns:xlink="http://www.w3.org/1999/xlink">
    <!-- Generator: sketchtool 51.2 (57519) - http://www.bohemiancoding.com/sketch -->
    <title>uA136-anchor</title>
    <desc>Created with sketchtool.</desc>
    <defs></defs>
    <g id="Page-1" stroke="none" stroke-width="1" fill="none" fill-rule="evenodd">
        <g id="uA136-anchor" fill="#000000" fill-rule="nonzero">
            <g id="anchor" transform="translate(0.000000, 31.000000)">
                <path d="M490.471528,257.138194 C485.915694,252.582361 478.52875,252.582361 473.971944,257.138194 L408.804861,322.305278 C401.454861,329.655278 406.660139,342.22125 417.054167,342.22125 L464.818472,342.22125 C448.302361,409.061528 379.65375,460.444444 295.555556,466.133889 L295.555556,186.666667 L346.111111,186.666667 C352.554028,186.666667 357.777778,181.442917 357.777778,175 L357.777778,167.222222 C357.777778,160.779306 352.554028,155.555556 346.111111,155.555556 L295.555556,155.555556 L295.555556,122.484444 C323.276528,115.349306 343.521111,89.59125 342.157083,59.3415278 C340.718194,27.4419444 314.836667,1.53513889 282.938056,0.0680555556 C247.238056,-1.57402778 217.777778,26.8838889 217.777778,62.2222222 C217.777778,91.2148611 237.607222,115.576806 264.444444,122.484444 L264.444444,155.555556 L213.888889,155.555556 C207.445972,155.555556 202.222222,160.779306 202.222222,167.222222 L202.222222,175 C202.222222,181.442917 207.445972,186.666667 213.888889,186.666667 L264.444444,186.666667 L264.444444,466.133889 C180.345278,460.444444 111.696667,409.061528 95.1815278,342.222222 L142.945833,342.222222 C153.339861,342.222222 158.545139,329.655278 151.195139,322.30625 L86.0280556,257.138194 C81.4722222,252.582361 74.0852778,252.582361 69.5284722,257.138194 L4.36138889,322.30625 C-2.98861111,329.655278 2.21666667,342.222222 12.6106944,342.222222 L63.2984722,342.222222 C81.6306944,435.936667 177.783472,497.777778 280,497.777778 C387.820417,497.777778 479.245278,431.459583 496.701528,342.222222 L547.389306,342.222222 C557.783333,342.222222 562.988611,329.655278 555.638611,322.30625 L490.471528,257.138194 Z M248.888889,62.2222222 C248.888889,45.0673611 262.845139,31.1111111 280,31.1111111 C297.154861,31.1111111 311.111111,45.0673611 311.111111,62.2222222 C311.111111,79.3770833 297.154861,93.3333333 280,93.3333333 C262.845139,93.3333333 248.888889,79.3770833 248.888889,62.2222222 Z M59.5534722,311.111111 L77.7777778,292.886806 L96.0020833,311.111111 L59.5534722,311.111111 Z M463.997917,311.111111 L482.222222,292.886806 L500.446528,311.111111 L463.997917,311.111111 Z" id="Shape"></path>
            </g>
        </g>
    </g>
</svg>