<?xml version="1.0" encoding="UTF-8"?>
<svg width="560px" height="560px" viewBox="0 0 560 560" version="1.1" xmlns="http://www.w3.org/2000/svg" xmlns:xlink="http://www.w3.org/1999/xlink">
    <!-- Generator: sketchtool 51.2 (57519) - http://www.bohemiancoding.com/sketch -->
    <title>uA130-mail</title>
    <desc>Created with sketchtool.</desc>
    <defs></defs>
    <g id="Page-1" stroke="none" stroke-width="1" fill="none" fill-rule="evenodd">
        <g id="uA130-mail" fill="#000000" fill-rule="nonzero">
            <g id="mail" transform="translate(24.000000, 88.000000)">
                <path d="M464,0 L48,0 C21.5,0 0,21.5 0,48 L0,336 C0,362.5 21.5,384 48,384 L464,384 C490.5,384 512,362.5 512,336 L512,48 C512,21.5 490.5,0 464,0 Z M48,32 L464,32 C472.8,32 480,39.2 480,48 L480,89.4 C458.1,107.9 426.8,133.4 329.4,210.7 C312.5,224.1 279.2,256.4 256,256 C232.8,256.4 199.4,224.1 182.6,210.7 C85.2,133.4 53.9,107.9 32,89.4 L32,48 C32,39.2 39.2,32 48,32 Z M464,352 L48,352 C39.2,352 32,344.8 32,336 L32,131 C54.8,149.7 90.8,178.6 162.7,235.7 C183.2,252.1 219.4,288.2 256,288 C292.4,288.3 328.3,252.5 349.3,235.7 C421.2,178.6 457.2,149.7 480,131 L480,336 C480,344.8 472.8,352 464,352 Z" id="Shape"></path>
            </g>
        </g>
    </g>
</svg>