<?xml version="1.0" encoding="UTF-8"?>
<svg width="560px" height="560px" viewBox="0 0 560 560" version="1.1" xmlns="http://www.w3.org/2000/svg" xmlns:xlink="http://www.w3.org/1999/xlink">
    <!-- Generator: sketchtool 51.2 (57519) - http://www.bohemiancoding.com/sketch -->
    <title>uA145-ban</title>
    <desc>Created with sketchtool.</desc>
    <defs></defs>
    <g id="Page-1" stroke="none" stroke-width="1" fill="none" fill-rule="evenodd">
        <g id="uA145-ban" fill="#000000" fill-rule="nonzero">
            <g id="ban" transform="translate(32.000000, 32.000000)">
                <path d="M248,0 C111.033,0 0,111.033 0,248 C0,384.967 111.033,496 248,496 C384.967,496 496,384.967 496,248 C496,111.033 384.967,0 248,0 Z M95.265,400.735 C14.643,320.113 11.116,191.778 84.365,106.992 L389.009,411.635 C304.205,484.899 175.871,481.341 95.265,400.735 Z M411.635,389.008 L106.992,84.365 C191.796,11.102 320.129,14.66 400.735,95.265 C481.357,175.886 484.884,304.222 411.635,389.008 Z" id="Shape"></path>
            </g>
        </g>
    </g>
</svg>