<?xml version="1.0" encoding="UTF-8"?>
<svg width="560px" height="560px" viewBox="0 0 560 560" version="1.1" xmlns="http://www.w3.org/2000/svg" xmlns:xlink="http://www.w3.org/1999/xlink">
    <!-- Generator: sketchtool 51.2 (57519) - http://www.bohemiancoding.com/sketch -->
    <title>uA142-award</title>
    <desc>Created with sketchtool.</desc>
    <defs></defs>
    <g id="Page-1" stroke="none" stroke-width="1" fill="none" fill-rule="evenodd">
        <g id="uA142-award" fill="#000000" fill-rule="nonzero">
            <g id="award" transform="translate(56.000000, 24.000000)">
                <path d="M336,192 C336,130.14 285.86,80 224,80 C162.14,80 112,130.14 112,192 C112,253.86 162.14,304 224,304 C285.86,304 336,253.86 336,192 Z M224,272 C179.89,272 144,236.11 144,192 C144,147.89 179.89,112 224,112 C268.11,112 304,147.89 304,192 C304,236.11 268.11,272 224,272 Z M446.5,433.21 L387.56,288.68 C389.44,285.57 391.61,282.63 394.21,280.04 L406.87,267.42 C418.19374,256.144542 422.618948,239.672086 418.47,224.24 L413.84,207 C411.800014,199.421548 411.800014,191.438452 413.84,183.86 L418.47,166.62 C422.610359,151.187915 418.186307,134.719762 406.87,123.44 L394.21,110.82 C388.645562,105.2768 384.640974,98.3644876 382.6,90.78 L377.97,73.54 C373.83,58.11 361.74,46.06 346.26,41.93 L328.97,37.31 C321.371158,35.2830842 314.439207,31.2929015 308.87,25.74 L296.21,13.1 C287.791497,4.70692516 276.387593,-0.00424313248 264.5,4.23516474e-22 C260.63,4.23516474e-22 256.73,0.5 252.9,1.52 L235.61,6.14 C231.81,7.16 227.9,7.66 224,7.66 C220.1,7.66 216.2,7.15 212.39,6.14 L195.1,1.52 C191.315671,0.512129134 187.416242,0.00116947445 183.5,4.23516474e-22 C171.612407,-0.00424313248 160.208503,4.70692516 151.79,13.1 L139.13,25.72 C133.559269,31.2709096 126.627885,35.2607662 119.03,37.29 L101.74,41.91 C86.27,46.04 74.18,58.09 70.03,73.52 L65.4,90.76 C63.3590261,98.3444876 59.3544376,105.2568 53.79,110.8 L41.13,123.42 C29.8062605,134.695458 25.3810523,151.167914 29.53,166.6 L34.16,183.84 C36.1999857,191.418452 36.1999857,199.401548 34.16,206.98 L29.53,224.22 C25.38,239.65 29.81,256.11 41.13,267.4 L53.79,280.02 C56.39,282.61 58.57,285.55 60.44,288.66 L1.5,433.21 C-3.86,446.36 5.87,460.65 19.9,460.65 C20.17,460.65 20.43,460.64 20.7,460.63 L86.28,458.12 L131.4,505.77 C135.41,510 140.63,512 145.81,512 C153.49,512 161.04,507.61 164.3,499.6 L216.53,371.54 C219.02,371.12 221.49,370.51 224.01,370.51 C226.53,370.51 229,371.12 231.49,371.54 L283.72,499.6 C286.99,507.61 294.54,512 302.21,512 C307.38,512 312.61,510 316.62,505.77 L361.74,458.12 L427.32,460.63 C427.59,460.64 427.85,460.65 428.12,460.65 C442.14,460.64 451.87,446.36 446.5,433.21 Z M141.74,470.16 L99.54,425.59 L38.2,427.94 L77.39,331.85 C83.34,339.98 91.68,346.24 101.74,348.93 L119.03,353.55 C126.63,355.58 133.57,359.57 139.13,365.12 L144.92,370.9 C153.57,379.53 165.05,384 176.64,384 C176.72,384 176.8,383.97 176.89,383.97 L141.74,470.16 Z M224,338.51 C209.62,338.51 195.57,342.51 183.37,350.08 C181.351776,351.331659 179.02484,351.996498 176.65,352 C173.24,352 170.03,350.68 167.63,348.28 L161.84,342.5 C152.278301,332.977251 140.385846,326.129348 127.35,322.64 L110.06,318.02 C105.68,316.85 102.22,313.41 101.05,309.04 L96.42,291.8 C92.9145804,278.788774 86.0481576,266.928589 76.51,257.41 L63.85,244.79 C60.639733,241.581644 59.3821807,236.905836 60.55,232.52 L65.18,215.28 C68.6699824,202.273376 68.6699824,188.576624 65.18,175.57 L60.55,158.33 C59.37,153.96 60.64,149.26 63.85,146.06 L76.51,133.44 C86.0516168,123.924072 92.9186104,112.062901 96.42,99.05 L101.05,81.81 C102.22,77.44 105.68,73.99 110.06,72.82 L127.35,68.2 C140.387049,64.7189568 152.280731,57.873796 161.84,48.35 L174.5,35.73 C176.91,33.33 180.11,32.01 183.51,32.01 C184.62,32.01 185.73,32.15 186.81,32.44 L204.1,37.06 C210.595047,38.7915158 217.288112,39.6689091 224.01,39.67 C230.73,39.67 237.43,38.79 243.92,37.05 L261.21,32.43 C262.29,32.14 263.4,32 264.51,32 C267.91,32 271.12,33.32 273.52,35.72 L286.18,48.34 C295.73967,57.8632706 307.633203,64.7083454 320.67,68.19 L337.96,72.81 C342.34,73.98 345.8,77.42 346.97,81.79 L351.6,99.03 C355.103263,112.039212 361.970116,123.89669 371.51,133.41 L384.17,146.03 C387.38,149.23 388.64,153.93 387.47,158.3 L382.84,175.55 C379.350014,188.553233 379.350014,202.246767 382.84,215.25 L387.47,232.49 C388.644227,236.875842 387.385813,241.554853 384.17,244.76 L371.51,257.38 C361.97068,266.893744 355.103921,278.751061 351.6,291.76 L346.96,309.01 C345.79,313.38 342.33,316.82 337.95,317.99 L320.66,322.61 C307.621522,326.092979 295.727512,332.941777 286.17,342.47 L280.38,348.25 C277.97,350.65 274.77,351.97 271.35,351.97 C268.98,351.97 266.66,351.31 264.64,350.05 C252.427748,342.504176 238.355436,338.508249 224,338.51 Z M348.46,425.59 L306.26,470.16 L271.11,383.97 C271.19,383.97 271.27,384 271.35,384 C282.94,384 294.42,379.53 303.07,370.9 L308.86,365.12 C314.43,359.57 321.36,355.58 328.96,353.55 L346.25,348.93 C356.31,346.24 364.65,339.98 370.6,331.85 L409.78,427.93 L348.46,425.59 Z" id="Shape"></path>
            </g>
        </g>
    </g>
</svg>