<?xml version="1.0" encoding="UTF-8"?>
<svg width="560px" height="560px" viewBox="0 0 560 560" version="1.1" xmlns="http://www.w3.org/2000/svg" xmlns:xlink="http://www.w3.org/1999/xlink">
    <!-- Generator: sketchtool 51.2 (57519) - http://www.bohemiancoding.com/sketch -->
    <title>uA147-bell-slash</title>
    <desc>Created with sketchtool.</desc>
    <defs></defs>
    <g id="Page-1" stroke="none" stroke-width="1" fill="none" fill-rule="evenodd">
        <g id="uA147-bell-slash" fill="#000000" fill-rule="nonzero">
            <g id="bell-slash" transform="translate(0.000000, 31.000000)">
                <path d="M108.935556,404.444444 C95.1076389,404.444444 88.1970833,387.628889 97.9358333,377.889167 C129.63125,346.194722 152.446389,310.954583 155.26,221.524722 L124.642778,194.406528 C124.512642,197.009741 124.446511,199.615759 124.444444,202.222222 C124.444444,307.336944 97.5693056,334.25875 75.9373611,355.890694 C46.6258333,385.202222 67.3993056,435.555556 108.935556,435.555556 L217.777778,435.555556 C217.777778,469.865278 245.690278,497.777778 280,497.777778 C314.309722,497.777778 342.222222,469.865278 342.222222,435.555556 L396.90875,435.555556 L361.783333,404.444444 L108.935556,404.444444 Z M280,466.666667 C262.845139,466.666667 248.888889,452.710417 248.888889,435.555556 L311.111111,435.555556 C311.111111,452.710417 297.154861,466.666667 280,466.666667 Z M556.03625,471.455833 L490.526944,413.685417 C501.190278,396.508194 500.918056,372.753889 484.053889,355.889722 C462.421944,334.25875 435.555556,307.336944 435.555556,202.222222 C435.555556,125.033611 379.330972,60.9884722 305.605417,48.7763889 C309.198477,43.5868647 311.119523,37.4230976 311.111111,31.1111111 C311.111111,13.9290278 297.182083,-3.55271368e-15 280,-3.55271368e-15 C262.817917,-3.55271368e-15 248.888889,13.9290278 248.888889,31.1111111 C248.888889,37.6736111 250.925694,43.7577778 254.394583,48.7763889 C211.690694,55.8502778 174.876528,80.3259722 151.443056,114.660972 L24.7595833,2.94388889 C19.8965278,-1.34361111 12.4629167,-0.895416667 8.15597222,3.94625 L2.9575,9.79027778 C-1.34944444,14.6319444 -0.898333333,22.0325 3.96375,26.3209722 L535.240417,494.832917 C540.103472,499.121389 547.537083,498.672222 551.844028,493.830556 L557.043472,487.986528 C561.349444,483.145833 560.899306,475.744306 556.03625,471.455833 Z M280,77.7777778 C348.775,77.7777778 404.444444,133.436528 404.444444,202.222222 C404.444444,305.685139 427.978056,343.811806 462.055417,377.889167 C466.189306,382.023056 467.320972,387.405278 466.210694,392.242083 L174.987361,135.424722 C197.064583,100.763056 235.813472,77.7777778 280,77.7777778 Z" id="Shape"></path>
            </g>
        </g>
    </g>
</svg>