<?xml version="1.0" encoding="UTF-8"?>
<svg width="560px" height="560px" viewBox="0 0 560 560" version="1.1" xmlns="http://www.w3.org/2000/svg" xmlns:xlink="http://www.w3.org/1999/xlink">
    <!-- Generator: sketchtool 51.2 (57519) - http://www.bohemiancoding.com/sketch -->
    <title>uA151-book-heart</title>
    <desc>Created with sketchtool.</desc>
    <defs></defs>
    <g id="Page-1" stroke="none" stroke-width="1" fill="none" fill-rule="evenodd">
        <g id="uA151-book-heart" fill="#000000" fill-rule="nonzero">
            <g id="book-heart" transform="translate(56.000000, 24.000000)">
                <path d="M230.1,307.9 C235.6,313.4 244.4,313.4 249.9,307.9 L334.6,222.3 C359.2,197.4 357.8,156.2 330.3,133.2 C316.4,121.6 282.6,104.7 240.1,147.7 C197.5,104.7 163.7,121.6 149.9,133.2 C122.4,156.2 121,197.4 145.6,222.3 L230.1,307.9 Z M170.3,157.8 C184,146.3 201.5,154.4 208.7,161.5 L240.1,193.2 L271.5,161.5 C278.6,154.3 296.1,146.3 309.9,157.8 C324.3,169.8 322.2,189.4 312,199.8 L240,272.4 L168.2,199.8 C157.9,189.4 155.9,169.8 170.3,157.8 Z M448,392 L448,24 C448,10.7 437.3,0 424,0 L80,0 C35.8,0 0,35.8 0,80 L0,432 C0,476.2 35.8,512 80,512 L436,512 C442.6,512 448,506.6 448,500 L448,492 C448,485.4 442.6,480 436,480 L432.7,480 C428.7,459.8 429.5,430.3 433.1,414.2 C441.8,410.6 448,402 448,392 Z M404.3,480 L80,480 C16,480 16,416 80,416 L404.3,416 C401.4,434.8 401.2,459.6 404.3,480 Z M416,384 L80,384 C62,384 45.4,390 32,400 L32,80 C32,53.5 53.5,32 80,32 L416,32 L416,384 Z" id="Shape"></path>
            </g>
        </g>
    </g>
</svg>