<?xml version="1.0" encoding="UTF-8"?>
<svg width="560px" height="560px" viewBox="0 0 560 560" version="1.1" xmlns="http://www.w3.org/2000/svg" xmlns:xlink="http://www.w3.org/1999/xlink">
    <!-- Generator: sketchtool 51.2 (57519) - http://www.bohemiancoding.com/sketch -->
    <title>uA156-box-full</title>
    <desc>Created with sketchtool.</desc>
    <defs></defs>
    <g id="Page-1" stroke="none" stroke-width="1" fill="none" fill-rule="evenodd">
        <g id="uA156-box-full" fill="#000000" fill-rule="nonzero">
            <g id="box-full" transform="translate(0.000000, 55.000000)">
                <path d="M558.514821,210.371295 L513.522621,120.561622 C511.076443,115.669267 506.096724,112.698908 500.767551,112.698908 C499.893916,112.698908 504.524181,112.087363 451.581903,118.814353 L474.471139,56.0873635 C479.712949,41.5850234 472.287051,25.5101404 457.784711,20.2683307 L409.123245,2.53354134 C394.708268,-2.70826833 378.633385,4.71762871 373.304212,19.2199688 L335.912637,122.046802 C333.466459,54.7769111 278.427457,0.873634945 210.546022,0.873634945 C144.76131,0.873634945 91.4695788,51.5444618 85.8783151,115.843994 C60.1060842,112.524181 61.1544462,112.698908 60.1060842,112.698908 C54.7769111,112.698908 49.7971919,115.75663 47.351014,120.561622 L2.35881435,210.371295 C-1.6599064,218.408736 2.62090484,228.018721 11.1825273,230.464899 L56.7862715,243.482059 L56.7862715,372.168487 C56.7862715,385.01092 65.5226209,396.193448 77.9282371,399.25117 L266.808112,446.514821 C278.689548,449.485179 288.648986,447.825273 293.890796,446.514821 L482.945398,399.25117 C495.351014,396.106084 504.087363,384.923557 504.087363,372.168487 L504.087363,243.482059 L549.603744,230.464899 C558.25273,228.018721 562.446178,218.408736 558.514821,210.371295 Z M399.600624,28.8299532 L448.174727,46.4773791 L420.393136,122.74571 L362.733229,130.084243 L399.600624,28.8299532 Z M34.7706708,208.187207 L67.9687988,141.790952 L234.308892,163.020281 L181.803432,250.209048 L34.7706708,208.187207 Z M266.458658,417.597504 L84.7425897,372.168487 L84.7425897,251.519501 C192.461778,282.271451 185.210608,280.436817 188.093604,280.436817 C192.985959,280.436817 197.703588,277.903276 200.324493,273.535101 L266.458658,163.806552 L266.458658,417.597504 Z M280.436817,140.655226 C196.829953,129.99688 145.372855,123.444618 113.485179,119.338534 C117.24181,68.8424337 159.088924,28.8299532 210.546022,28.8299532 C264.536661,28.8299532 308.393136,72.6864275 308.393136,126.677067 C308.393136,130.25897 307.868955,133.75351 307.432137,137.24805 L280.436817,140.655226 Z M476.131045,372.168487 L294.414977,417.597504 L294.414977,163.806552 L360.549142,273.447738 C363.170047,277.815913 367.887676,280.349454 372.780031,280.349454 C375.663027,280.349454 368.237129,282.184087 476.131045,251.432137 L476.131045,372.168487 Z M379.070203,250.121685 L326.564743,162.932917 L492.904836,141.703588 L526.102964,208.099844 L379.070203,250.121685 Z" id="Shape"></path>
            </g>
        </g>
    </g>
</svg>