<?xml version="1.0" encoding="UTF-8"?>
<svg width="560px" height="560px" viewBox="0 0 560 560" version="1.1" xmlns="http://www.w3.org/2000/svg" xmlns:xlink="http://www.w3.org/1999/xlink">
    <!-- Generator: sketchtool 51.2 (57519) - http://www.bohemiancoding.com/sketch -->
    <title>uA150-bomb</title>
    <desc>Created with sketchtool.</desc>
    <defs></defs>
    <g id="Page-1" stroke="none" stroke-width="1" fill="none" fill-rule="evenodd">
        <g id="uA150-bomb" fill="#000000" fill-rule="nonzero">
            <g id="bomb" transform="translate(24.000000, 24.000000)">
                <path d="M420.7,68.7 L364.7,124.7 L326.6,86.6 C314.1,74.1 293.8,74.1 281.3,86.6 L264.2,103.7 C246.3,98.7 227.4,96 207.9,96 C96,96 3.3,185.9 0.1,297.8 C-3.3,415.5 91.1,512 208,512 C323.1,512 416,417.8 416,304 C416,284.5 413.3,265.6 408.3,247.7 L425.4,230.6 C437.9,218.1 437.9,197.8 425.4,185.3 L387.3,147.2 L443.3,91.2 L420.7,68.7 Z M372.4,238.3 C378.2,258.8 384,276.1 384,304 C384,400.2 305.5,480 208,480 C183.8,480 160.3,475.2 138.3,465.7 C73.1,437.5 29.9,372.3 32.1,298.7 C34.8,204.1 113.2,128 208,128 C235.9,128 253.1,133.8 273.7,139.6 L304,109.3 L402.7,208 C402.7,208 400.9,209.9 372.4,238.3 Z M512,72 C512,78.6 506.6,84 500,84 L476,84 C469.4,84 464,78.6 464,72 C464,65.4 469.4,60 476,60 L500,60 C506.6,60 512,65.4 512,72 Z M452,12 L452,36 C452,42.6 446.6,48 440,48 C433.4,48 428,42.6 428,36 L428,12 C428,5.4 433.4,0 440,0 C446.6,0 452,5.4 452,12 Z M457,55 C452.3,50.3 452.3,42.7 457,38 L474,21 C478.7,16.3 486.3,16.3 491,21 C495.7,25.7 495.7,33.3 491,38 L474,55 C469.3,59.7 461.7,59.7 457,55 Z M389.1,38.1 C384.4,33.4 384.4,25.8 389.1,21.1 C393.8,16.4 401.4,16.4 406.1,21.1 L423.1,38.1 C427.8,42.8 427.8,50.4 423.1,55.1 C418.4,59.8 410.8,59.8 406.1,55.1 L389.1,38.1 Z M490.9,105.9 C495.6,110.6 495.6,118.2 490.9,122.9 C486.2,127.6 478.6,127.6 473.9,122.9 L456.9,105.9 C452.2,101.2 452.2,93.6 456.9,88.9 C461.6,84.2 469.2,84.2 473.9,88.9 L490.9,105.9 Z M192,192 C192,200.8 184.8,208 176,208 C140.7,208 112,236.7 112,272 C112,280.8 104.8,288 96,288 C87.2,288 80,280.8 80,272 C80,219.1 123.1,176 176,176 C184.8,176 192,183.2 192,192 Z" id="Shape"></path>
            </g>
        </g>
    </g>
</svg>