<?xml version="1.0" encoding="UTF-8"?>
<svg width="560px" height="560px" viewBox="0 0 560 560" version="1.1" xmlns="http://www.w3.org/2000/svg" xmlns:xlink="http://www.w3.org/1999/xlink">
    <!-- Generator: sketchtool 51.2 (57519) - http://www.bohemiancoding.com/sketch -->
    <title>uA163-calendar</title>
    <desc>Created with sketchtool.</desc>
    <defs></defs>
    <g id="Page-1" stroke="none" stroke-width="1" fill="none" fill-rule="evenodd">
        <g id="uA163-calendar" fill="#000000" fill-rule="nonzero">
            <g id="calendar" transform="translate(56.000000, 24.000000)">
                <path d="M400,64 L352,64 L352,12 C352,5.373 346.627,0 340,0 L332,0 C325.373,0 320,5.373 320,12 L320,64 L128,64 L128,12 C128,5.373 122.627,0 116,0 L108,0 C101.373,0 96,5.373 96,12 L96,64 L48,64 C21.49,64 0,85.49 0,112 L0,464 C0,490.51 21.49,512 48,512 L400,512 C426.51,512 448,490.51 448,464 L448,112 C448,85.49 426.51,64 400,64 Z M48,96 L400,96 C408.822,96 416,103.178 416,112 L416,160 L32,160 L32,112 C32,103.178 39.178,96 48,96 Z M400,480 L48,480 C39.178,480 32,472.822 32,464 L32,192 L416,192 L416,464 C416,472.822 408.822,480 400,480 Z" id="Shape"></path>
            </g>
        </g>
    </g>
</svg>