<?xml version="1.0" encoding="UTF-8"?>
<svg width="560px" height="560px" viewBox="0 0 560 560" version="1.1" xmlns="http://www.w3.org/2000/svg" xmlns:xlink="http://www.w3.org/1999/xlink">
    <!-- Generator: sketchtool 51.2 (57519) - http://www.bohemiancoding.com/sketch -->
    <title>uA161-building</title>
    <desc>Created with sketchtool.</desc>
    <defs></defs>
    <g id="Page-1" stroke="none" stroke-width="1" fill="none" fill-rule="evenodd">
        <g id="uA161-building" fill="#000000" fill-rule="nonzero">
            <g id="building" transform="translate(56.000000, 24.000000)">
                <path d="M192,107 L192,147 C192,153.627 186.627,159 180,159 L140,159 C133.373,159 128,153.627 128,147 L128,107 C128,100.373 133.373,95 140,95 L180,95 C186.627,95 192,100.373 192,107 Z M308,95 L268,95 C261.373,95 256,100.373 256,107 L256,147 C256,153.627 261.373,159 268,159 L308,159 C314.627,159 320,153.627 320,147 L320,107 C320,100.373 314.627,95 308,95 Z M180,191 L140,191 C133.373,191 128,196.373 128,203 L128,243 C128,249.627 133.373,255 140,255 L180,255 C186.627,255 192,249.627 192,243 L192,203 C192,196.373 186.627,191 180,191 Z M308,191 L268,191 C261.373,191 256,196.373 256,203 L256,243 C256,249.627 261.373,255 268,255 L308,255 C314.627,255 320,249.627 320,243 L320,203 C320,196.373 314.627,191 308,191 Z M180,287 L140,287 C133.373,287 128,292.373 128,299 L128,339 C128,345.627 133.373,351 140,351 L180,351 C186.627,351 192,345.627 192,339 L192,299 C192,292.373 186.627,287 180,287 Z M308,287 L268,287 C261.373,287 256,292.373 256,299 L256,339 C256,345.627 261.373,351 268,351 L308,351 C314.627,351 320,345.627 320,339 L320,299 C320,292.373 314.627,287 308,287 Z M448,492 L448,512 L0,512 L0,492 C0,485.373 5.373,480 12,480 L32,480 L32,24 C32,10.745 42.745,0 56,0 L392,0 C405.255,0 416,10.745 416,24 L416,480 L436,480 C442.627,480 448,485.373 448,492 Z M384,480 L384,32 L64,32 L64,480 L192,480 L192,395 C192,388.373 197.373,383 204,383 L244,383 C250.627,383 256,388.373 256,395 L256,480 L384,480 Z" id="Shape"></path>
            </g>
        </g>
    </g>
</svg>