<?xml version="1.0" encoding="UTF-8"?>
<svg width="560px" height="560px" viewBox="0 0 560 560" version="1.1" xmlns="http://www.w3.org/2000/svg" xmlns:xlink="http://www.w3.org/1999/xlink">
    <!-- Generator: sketchtool 51.2 (57519) - http://www.bohemiancoding.com/sketch -->
    <title>uA164-calendar-times</title>
    <desc>Created with sketchtool.</desc>
    <defs></defs>
    <g id="Page-1" stroke="none" stroke-width="1" fill="none" fill-rule="evenodd">
        <g id="uA164-calendar-times" fill="#000000" fill-rule="nonzero">
            <g id="calendar-times" transform="translate(56.000000, 24.000000)">
                <path d="M400,64 L352,64 L352,12 C352,5.4 346.6,0 340,0 L332,0 C325.4,0 320,5.4 320,12 L320,64 L128,64 L128,12 C128,5.4 122.6,0 116,0 L108,0 C101.4,0 96,5.4 96,12 L96,64 L48,64 C21.5,64 0,85.5 0,112 L0,464 C0,490.5 21.5,512 48,512 L400,512 C426.5,512 448,490.5 448,464 L448,112 C448,85.5 426.5,64 400,64 Z M48,96 L400,96 C408.8,96 416,103.2 416,112 L416,160 L32,160 L32,112 C32,103.2 39.2,96 48,96 Z M400,480 L48,480 C39.2,480 32,472.8 32,464 L32,192 L416,192 L416,464 C416,472.8 408.8,480 400,480 Z M294.7,384.1 C299.4,388.8 299.4,396.4 294.7,401.1 L289,406.8 C284.3,411.5 276.7,411.5 272,406.8 L224,358.6 L175.9,406.7 C171.2,411.4 163.6,411.4 158.9,406.7 L153.2,401 C148.5,396.3 148.5,388.7 153.2,384 L201.3,335.9 L153.2,287.8 C148.5,283.1 148.5,275.5 153.2,270.8 L158.9,265.1 C163.6,260.4 171.2,260.4 175.9,265.1 L224,313.2 L272.1,265.1 C276.8,260.4 284.4,260.4 289.1,265.1 L294.8,270.8 C299.5,275.5 299.5,283.1 294.8,287.8 L246.6,336 L294.7,384.1 Z" id="Shape"></path>
            </g>
        </g>
    </g>
</svg>