<?xml version="1.0" encoding="UTF-8"?>
<svg width="560px" height="560px" viewBox="0 0 560 560" version="1.1" xmlns="http://www.w3.org/2000/svg" xmlns:xlink="http://www.w3.org/1999/xlink">
    <!-- Generator: sketchtool 51.2 (57519) - http://www.bohemiancoding.com/sketch -->
    <title>uA162-bullhorn</title>
    <desc>Created with sketchtool.</desc>
    <defs></defs>
    <g id="Page-1" stroke="none" stroke-width="1" fill="none" fill-rule="evenodd">
        <g id="uA162-bullhorn" fill="#000000" fill-rule="nonzero">
            <g id="bullhorn" transform="translate(0.000000, 32.000000)">
                <path d="M527.97227,186.343154 L527.97227,31.0571924 C527.97227,13.8786828 514.093588,0 496.915078,0 C433.830156,54.3500867 328.041594,124.228769 201.87175,124.228769 L46.5857886,124.228769 C20.8665511,124.228769 0,145.095321 0,170.814558 L0,263.986135 C0,289.705373 20.8665511,310.571924 46.5857886,310.571924 L62.8908146,310.571924 C57.7469671,367.445407 77.4488735,414.419411 90.9393414,457.705373 C92.3951473,462.558059 95.1126516,466.925477 98.7036395,470.516464 C115.493934,487.306759 138.592721,496.915078 162.079723,496.915078 C192.942808,496.915078 221.185442,480.415945 235.355286,450.620451 C242.149047,436.353553 237.199307,419.272097 223.805893,410.925477 C196.727903,394.038128 192.7487,389.088388 197.795494,380.353553 C204.492201,368.610052 202.842288,353.857886 193.719237,343.861352 C188.57539,338.232236 192.457539,317.268631 204.395147,310.571924 C329.4974,311.445407 434.315425,380.838821 497.012132,434.800693 C514.190641,434.800693 528.069324,420.92201 528.069324,403.743501 L528.069324,248.457539 C545.247834,248.457539 559.126516,234.578856 559.126516,217.400347 C559.126516,200.221837 545.15078,186.343154 527.97227,186.343154 Z M207.403813,437.227036 C190.516464,472.845754 145.774697,473.52513 120.637782,448.485269 C107.244367,405.29636 88.7071057,361.913345 94.1421144,310.571924 L165.670711,310.571924 C157.615251,329.206239 158.294627,351.431542 170.814558,364.92201 C151.500867,398.599653 178.578856,419.272097 207.403813,437.227036 Z M31.0571924,263.986135 L31.0571924,170.814558 C31.0571924,162.27383 38.0450607,155.285962 46.5857886,155.285962 L217.400347,155.285962 L217.400347,279.514731 L46.5857886,279.514731 C38.0450607,279.514731 31.0571924,272.526863 31.0571924,263.986135 Z M496.915078,394.426343 C461.393414,366.183709 424.415945,342.599653 386.564991,324.353553 C340.658579,302.12825 294.363951,288.055459 248.457539,282.426343 L248.457539,152.37435 C294.363951,146.64818 340.658579,132.672444 386.564991,110.44714 C424.318891,92.1039861 461.393414,68.6169844 496.915078,40.3743501 L496.915078,394.426343 Z" id="Shape"></path>
            </g>
        </g>
    </g>
</svg>