<?xml version="1.0" encoding="UTF-8"?>
<svg width="560px" height="560px" viewBox="0 0 560 560" version="1.1" xmlns="http://www.w3.org/2000/svg" xmlns:xlink="http://www.w3.org/1999/xlink">
    <!-- Generator: sketchtool 51.2 (57519) - http://www.bohemiancoding.com/sketch -->
    <title>uA176-caret-circle-up</title>
    <desc>Created with sketchtool.</desc>
    <defs></defs>
    <g id="Page-1" stroke="none" stroke-width="1" fill="none" fill-rule="evenodd">
        <g id="uA176-caret-circle-up" fill="#000000" fill-rule="nonzero">
            <g id="caret-circle-up" transform="translate(32.000000, 32.000000)">
                <path d="M248,496 C385,496 496,385 496,248 C496,111 385,0 248,0 C111,0 0,111 0,248 C0,385 111,496 248,496 Z M32,248 C32,129.3 128.1,32 248,32 C366.7,32 464,128.1 464,248 C464,366.7 367.9,464 248,464 C129.3,464 32,367.9 32,248 Z M152,280 L248,184 L344,280 L152,280 Z M344,312 C372.4,312 386.8,277.5 366.6,257.4 L270.6,161.4 C258.1,148.9 237.8,148.9 225.3,161.4 L129.3,257.4 C109.2,277.5 123.4,312 151.9,312 L344,312 Z" id="Shape"></path>
            </g>
        </g>
    </g>
</svg>