<?xml version="1.0" encoding="UTF-8"?>
<svg width="560px" height="560px" viewBox="0 0 560 560" version="1.1" xmlns="http://www.w3.org/2000/svg" xmlns:xlink="http://www.w3.org/1999/xlink">
    <!-- Generator: sketchtool 51.2 (57519) - http://www.bohemiancoding.com/sketch -->
    <title>uA170-camera</title>
    <desc>Created with sketchtool.</desc>
    <defs></defs>
    <g id="Page-1" stroke="none" stroke-width="1" fill="none" fill-rule="evenodd">
        <g id="uA170-camera" fill="#000000" fill-rule="nonzero">
            <g id="camera" transform="translate(24.000000, 56.000000)">
                <path d="M324.3,32 C327.6,32 330.6,34.1 331.8,37.2 L353.9,96 L464,96 C472.8,96 480,103.2 480,112 L480,400 C480,408.8 472.8,416 464,416 L48,416 C39.2,416 32,408.8 32,400 L32,112 C32,103.2 39.2,96 48,96 L158.2,96 L178.3,42.4 C180.6,36.2 186.6,32 193.3,32 L324.3,32 Z M324.3,0 L193.3,0 C173.3,0 155.4,12.4 148.4,31.1 L136,64 L48,64 C21.5,64 0,85.5 0,112 L0,400 C0,426.5 21.5,448 48,448 L464,448 C490.5,448 512,426.5 512,400 L512,112 C512,85.5 490.5,64 464,64 L376,64 L361.7,26 C355.9,10.3 341,0 324.3,0 Z M256,376 C189.8,376 136,322.2 136,256 C136,189.8 189.8,136 256,136 C322.2,136 376,189.8 376,256 C376,322.2 322.2,376 256,376 Z M256,168 C207.5,168 168,207.5 168,256 C168,304.5 207.5,344 256,344 C304.5,344 344,304.5 344,256 C344,207.5 304.5,168 256,168 Z" id="Shape"></path>
            </g>
        </g>
    </g>
</svg>