<?xml version="1.0" encoding="UTF-8"?>
<svg width="560px" height="560px" viewBox="0 0 560 560" version="1.1" xmlns="http://www.w3.org/2000/svg" xmlns:xlink="http://www.w3.org/1999/xlink">
    <!-- Generator: sketchtool 51.2 (57519) - http://www.bohemiancoding.com/sketch -->
    <title>uA186-chart-line</title>
    <desc>Created with sketchtool.</desc>
    <defs></defs>
    <g id="Page-1" stroke="none" stroke-width="1" fill="none" fill-rule="evenodd">
        <g id="uA186-chart-line" fill="#000000" fill-rule="nonzero">
            <g id="chart-line" transform="translate(24.000000, 88.000000)">
                <path d="M500,352 C506.6,352 512,357.4 512,364 L512,372 C512,378.6 506.6,384 500,384 L12,384 C5.4,384 0,378.6 0,372 L0,12 C0,5.4 5.4,0 12,0 L20,0 C26.6,0 32,5.4 32,12 L32,352 L500,352 Z M480,57 L480,151 C480,180.3 444.4,195 423.7,174.3 L388,138.6 L292.2,234.4 C289.9,236.7 286.1,236.7 283.7,234.4 L224.3,175 L111.8,294.6 C109.5,297 105.7,297.1 103.3,294.9 L88.7,281.2 C86.3,278.9 86.2,275.1 88.4,272.7 L219.4,133.6 C221.7,131.1 225.6,131.1 228,133.5 L288,193.5 L365.4,116.1 L329.7,80.4 C308.9,59.6 323.7,24.1 353,24.1 L447,24.1 C465.2,24 480,38.8 480,57 Z M451.2,57 C451.2,54.7 449.4,52.9 447.1,52.9 L353.1,52.9 C349.4,52.9 347.6,57.4 350.2,59.9 L444.2,153.9 C446.8,156.5 451.2,154.7 451.2,151 L451.2,57 Z" id="Shape"></path>
            </g>
        </g>
    </g>
</svg>