<?xml version="1.0" encoding="UTF-8"?>
<svg width="560px" height="560px" viewBox="0 0 560 560" version="1.1" xmlns="http://www.w3.org/2000/svg" xmlns:xlink="http://www.w3.org/1999/xlink">
    <!-- Generator: sketchtool 51.2 (57519) - http://www.bohemiancoding.com/sketch -->
    <title>uA184-chart-bar</title>
    <desc>Created with sketchtool.</desc>
    <defs></defs>
    <g id="Page-1" stroke="none" stroke-width="1" fill="none" fill-rule="evenodd">
        <g id="uA184-chart-bar" fill="#000000" fill-rule="nonzero">
            <g id="chart-bar" transform="translate(24.000000, 88.000000)">
                <path d="M500,352 C506.6,352 512,357.4 512,364 L512,372 C512,378.6 506.6,384 500,384 L12,384 C5.4,384 0,378.6 0,372 L0,12 C0,5.4 5.4,0 12,0 L20,0 C26.6,0 32,5.4 32,12 L32,352 L500,352 Z M160,282 L160,198 C160,194.7 157.3,192 154,192 L134,192 C130.7,192 128,194.7 128,198 L128,282 C128,285.3 130.7,288 134,288 L154,288 C157.3,288 160,285.3 160,282 Z M448,282 L448,38 C448,34.7 445.3,32 442,32 L422,32 C418.7,32 416,34.7 416,38 L416,282 C416,285.3 418.7,288 422,288 L442,288 C445.3,288 448,285.3 448,282 Z M352,282 L352,134 C352,130.7 349.3,128 346,128 L326,128 C322.7,128 320,130.7 320,134 L320,282 C320,285.3 322.7,288 326,288 L346,288 C349.3,288 352,285.3 352,282 Z M256,282 L256,70 C256,66.7 253.3,64 250,64 L230,64 C226.7,64 224,66.7 224,70 L224,282 C224,285.3 226.7,288 230,288 L250,288 C253.3,288 256,285.3 256,282 Z" id="Shape"></path>
            </g>
        </g>
    </g>
</svg>