<?xml version="1.0" encoding="UTF-8"?>
<svg width="560px" height="560px" viewBox="0 0 560 560" version="1.1" xmlns="http://www.w3.org/2000/svg" xmlns:xlink="http://www.w3.org/1999/xlink">
    <!-- Generator: sketchtool 51.2 (57519) - http://www.bohemiancoding.com/sketch -->
    <title>uA180-caret-square-up</title>
    <desc>Created with sketchtool.</desc>
    <defs></defs>
    <g id="Page-1" stroke="none" stroke-width="1" fill="none" fill-rule="evenodd">
        <g id="uA180-caret-square-up" fill="#000000" fill-rule="nonzero">
            <g id="caret-square-up" transform="translate(56.000000, 56.000000)">
                <path d="M48,448 L400,448 C426.5,448 448,426.5 448,400 L448,48 C448,21.5 426.5,0 400,0 L48,0 C21.5,0 0,21.5 0,48 L0,400 C0,426.5 21.5,448 48,448 Z M32,48 C32,39.2 39.2,32 48,32 L400,32 C408.8,32 416,39.2 416,48 L416,400 C416,408.8 408.8,416 400,416 L48,416 C39.2,416 32,408.8 32,400 L32,48 Z M128,256 L224,160 L320,256 L128,256 Z M320,288 C348.4,288 362.8,253.5 342.6,233.4 L246.6,137.4 C234.1,124.9 213.8,124.9 201.3,137.4 L105.3,233.4 C85.3,253.5 99.5,288 128,288 L320,288 Z" id="Shape"></path>
            </g>
        </g>
    </g>
</svg>