<?xml version="1.0" encoding="UTF-8"?>
<svg width="560px" height="560px" viewBox="0 0 560 560" version="1.1" xmlns="http://www.w3.org/2000/svg" xmlns:xlink="http://www.w3.org/1999/xlink">
    <!-- Generator: sketchtool 51.2 (57519) - http://www.bohemiancoding.com/sketch -->
    <title>uA192-clipboard-check</title>
    <desc>Created with sketchtool.</desc>
    <defs></defs>
    <g id="Page-1" stroke="none" stroke-width="1" fill="none" fill-rule="evenodd">
        <g id="uA192-clipboard-check" fill="#000000" fill-rule="nonzero">
            <g id="clipboard-check" transform="translate(88.000000, 24.000000)">
                <path d="M336,64 L247.4,64 C247.8,61.4 248,58.7 248,56 C248,25.1 222.9,0 192,0 C161.1,0 136,25.1 136,56 C136,58.7 136.2,61.4 136.6,64 L48,64 C21.5,64 0,85.5 0,112 L0,464 C0,490.5 21.5,512 48,512 L336,512 C362.5,512 384,490.5 384,464 L384,112 C384,85.5 362.5,64 336,64 Z M192,32 C205.3,32 216,42.7 216,56 C216,69.3 205.3,80 192,80 C178.7,80 168,69.3 168,56 C168,42.7 178.7,32 192,32 Z M352,464 C352,472.8 344.8,480 336,480 L48,480 C39.2,480 32,472.8 32,464 L32,112 C32,103.2 39.2,96 48,96 L96,96 L96,116 C96,122.6 101.4,128 108,128 L276,128 C282.6,128 288,122.6 288,116 L288,96 L336,96 C344.8,96 352,103.2 352,112 L352,464 Z M293.1,227.6 C288.4,222.9 280.8,222.9 276.1,227.5 L158.4,344.3 L108,293.7 C103.3,289 95.7,289 91,293.7 L82.5,302.2 C77.8,306.9 77.8,314.5 82.5,319.2 L149.9,386.8 C154.6,391.5 162.2,391.5 166.9,386.8 L301.7,253.1 C306.4,248.4 306.4,240.8 301.8,236.1 L293.1,227.6 Z" id="Shape"></path>
            </g>
        </g>
    </g>
</svg>