<?xml version="1.0" encoding="UTF-8"?>
<svg width="560px" height="560px" viewBox="0 0 560 560" version="1.1" xmlns="http://www.w3.org/2000/svg" xmlns:xlink="http://www.w3.org/1999/xlink">
    <!-- Generator: sketchtool 51.2 (57519) - http://www.bohemiancoding.com/sketch -->
    <title>uA195-cloud-download</title>
    <desc>Created with sketchtool.</desc>
    <defs></defs>
    <g id="Page-1" stroke="none" stroke-width="1" fill="none" fill-rule="evenodd">
        <g id="uA195-cloud-download" fill="#000000" fill-rule="nonzero">
            <g id="cloud-download" transform="translate(0.000000, 84.000000)">
                <path d="M500.2375,180.95 C502.6875,172.2875 504,163.275 504,154 C504,99.8375 460.1625,56 406,56 C391.3875,56 377.2125,59.15 364,65.45 C336.35,26.075 290.2375,0 238,0 C155.4,0 87.7625,65.1875 84.175,147.175 C34.3,164.675 0,212.0125 0,266 C0,335.65 56.35,392 126,392 L448,392 C509.8625,392 560,341.95 560,280 C560,238.875 537.425,200.55 500.2375,180.95 Z M448,364 L126,364 C71.8375,364 28,320.1625 28,266 C28,216.3 64.925,175.2625 112.875,168.875 C112.2625,163.975 112,158.9875 112,154 C112,84.4375 168.4375,28 238,28 C290.7625,28 335.9125,60.375 354.725,106.4 C367.5,92.6625 385.7,84 406,84 C444.675,84 476,115.325 476,154 C476,170.1875 470.4875,185.15 461.2125,197.05 C501.375,203.35 532,238.0875 532,280 C532,326.375 494.375,364 448,364 Z M354.55,194.6875 C350.4375,190.575 343.7875,190.575 339.675,194.6875 L280,254.3625 L280,122.5 C280,116.725 275.275,112 269.5,112 L262.5,112 C256.725,112 252,116.725 252,122.5 L252,254.3625 L192.325,194.6875 C188.2125,190.575 181.5625,190.575 177.45,194.6875 L172.4625,199.675 C168.35,203.7875 168.35,210.4375 172.4625,214.55 L258.475,300.5625 C262.5875,304.675 269.2375,304.675 273.35,300.5625 L359.3625,214.55 C363.475,210.4375 363.475,203.7875 359.3625,199.675 L354.55,194.6875 Z" id="Shape"></path>
            </g>
        </g>
    </g>
</svg>