<?xml version="1.0" encoding="UTF-8"?>
<svg width="560px" height="560px" viewBox="0 0 560 560" version="1.1" xmlns="http://www.w3.org/2000/svg" xmlns:xlink="http://www.w3.org/1999/xlink">
    <!-- Generator: sketchtool 51.2 (57519) - http://www.bohemiancoding.com/sketch -->
    <title>uA191-clipboard-list</title>
    <desc>Created with sketchtool.</desc>
    <defs></defs>
    <g id="Page-1" stroke="none" stroke-width="1" fill="none" fill-rule="evenodd">
        <g id="uA191-clipboard-list" fill="#000000" fill-rule="nonzero">
            <g id="clipboard-list" transform="translate(88.000000, 24.000000)">
                <path d="M280,240 L168,240 C163.6,240 160,243.6 160,248 L160,264 C160,268.4 163.6,272 168,272 L280,272 C284.4,272 288,268.4 288,264 L288,248 C288,243.6 284.4,240 280,240 Z M280,336 L168,336 C163.6,336 160,339.6 160,344 L160,360 C160,364.4 163.6,368 168,368 L280,368 C284.4,368 288,364.4 288,360 L288,344 C288,339.6 284.4,336 280,336 Z M112,232 C98.7,232 88,242.7 88,256 C88,269.3 98.7,280 112,280 C125.3,280 136,269.3 136,256 C136,242.7 125.3,232 112,232 Z M112,328 C98.7,328 88,338.7 88,352 C88,365.3 98.7,376 112,376 C125.3,376 136,365.3 136,352 C136,338.7 125.3,328 112,328 Z M336,64 L247.4,64 C247.8,61.4 248,58.7 248,56 C248,25.1 222.9,0 192,0 C161.1,0 136,25.1 136,56 C136,58.7 136.2,61.4 136.6,64 L48,64 C21.5,64 0,85.5 0,112 L0,464 C0,490.5 21.5,512 48,512 L336,512 C362.5,512 384,490.5 384,464 L384,112 C384,85.5 362.5,64 336,64 Z M192,32 C205.3,32 216,42.7 216,56 C216,69.3 205.3,80 192,80 C178.7,80 168,69.3 168,56 C168,42.7 178.7,32 192,32 Z M352,464 C352,472.8 344.8,480 336,480 L48,480 C39.2,480 32,472.8 32,464 L32,112 C32,103.2 39.2,96 48,96 L96,96 L96,116 C96,122.6 101.4,128 108,128 L276,128 C282.6,128 288,122.6 288,116 L288,96 L336,96 C344.8,96 352,103.2 352,112 L352,464 Z" id="Shape"></path>
            </g>
        </g>
    </g>
</svg>