<?xml version="1.0" encoding="UTF-8"?>
<svg width="560px" height="560px" viewBox="0 0 560 560" version="1.1" xmlns="http://www.w3.org/2000/svg" xmlns:xlink="http://www.w3.org/1999/xlink">
    <!-- Generator: sketchtool 51.2 (57519) - http://www.bohemiancoding.com/sketch -->
    <title>uA196-cloud-upload</title>
    <desc>Created with sketchtool.</desc>
    <defs></defs>
    <g id="Page-1" stroke="none" stroke-width="1" fill="none" fill-rule="evenodd">
        <g id="uA196-cloud-upload" fill="#000000" fill-rule="nonzero">
            <g id="cloud-upload" transform="translate(0.000000, 84.000000)">
                <path d="M273.4375,119.4375 C269.325,115.325 262.675,115.325 258.5625,119.4375 L172.55,205.45 C168.4375,209.5625 168.4375,216.2125 172.55,220.325 L177.5375,225.3125 C181.65,229.425 188.3,229.425 192.4125,225.3125 L252.0875,165.6375 L252.0875,297.5 C252.0875,303.275 256.8125,308 262.5875,308 L269.5875,308 C275.3625,308 280.0875,303.275 280.0875,297.5 L280.0875,165.6375 L339.7625,225.3125 C343.875,229.425 350.525,229.425 354.6375,225.3125 L359.625,220.325 C363.7375,216.2125 363.7375,209.5625 359.625,205.45 L273.4375,119.4375 Z M500.2375,180.95 C502.6875,172.2875 504,163.275 504,154 C504,99.8375 460.1625,56 406,56 C391.3875,56 377.2125,59.15 364,65.45 C336.35,26.075 290.2375,0 238,0 C155.4,0 87.7625,65.1875 84.175,147.175 C34.3,164.675 0,212.0125 0,266 C0,335.65 56.35,392 126,392 L448,392 C509.8625,392 560,341.95 560,280 C560,238.875 537.425,200.55 500.2375,180.95 Z M448,364 L126,364 C71.8375,364 28,320.1625 28,266 C28,216.3 64.925,175.2625 112.875,168.875 C112.2625,163.975 112,158.9875 112,154 C112,84.4375 168.4375,28 238,28 C290.7625,28 335.9125,60.375 354.725,106.4 C367.5,92.6625 385.7,84 406,84 C444.675,84 476,115.325 476,154 C476,170.1875 470.4875,185.15 461.2125,197.05 C501.375,203.35 532,238.0875 532,280 C532,326.375 494.375,364 448,364 Z" id="Shape"></path>
            </g>
        </g>
    </g>
</svg>