<?xml version="1.0" encoding="UTF-8"?>
<svg width="560px" height="560px" viewBox="0 0 560 560" version="1.1" xmlns="http://www.w3.org/2000/svg" xmlns:xlink="http://www.w3.org/1999/xlink">
    <!-- Generator: sketchtool 51.2 (57519) - http://www.bohemiancoding.com/sketch -->
    <title>uA193-clock</title>
    <desc>Created with sketchtool.</desc>
    <defs></defs>
    <g id="Page-1" stroke="none" stroke-width="1" fill="none" fill-rule="evenodd">
        <g id="uA193-clock" fill="#000000" fill-rule="nonzero">
            <g id="clock" transform="translate(32.000000, 32.000000)">
                <path d="M248,0 C111,0 0,111 0,248 C0,385 111,496 248,496 C385,496 496,385 496,248 C496,111 385,0 248,0 Z M464,248 C464,366.7 367.9,464 248,464 C129.3,464 32,367.9 32,248 C32,129.3 128.1,32 248,32 C366.7,32 464,128.1 464,248 Z M315.1,336.3 L233.9,277.3 C230.8,275 229,271.4 229,267.6 L229,108 C229,101.4 234.4,96 241,96 L255,96 C261.6,96 267,101.4 267,108 L267,254.3 L337.5,305.6 C342.9,309.5 344,317 340.1,322.4 L331.9,333.7 C328,339 320.5,340.2 315.1,336.3 Z" id="Shape"></path>
            </g>
        </g>
    </g>
</svg>