<?xml version="1.0" encoding="UTF-8"?>
<svg width="560px" height="560px" viewBox="0 0 560 560" version="1.1" xmlns="http://www.w3.org/2000/svg" xmlns:xlink="http://www.w3.org/1999/xlink">
    <!-- Generator: sketchtool 51.2 (57519) - http://www.bohemiancoding.com/sketch -->
    <title>uA203-compress</title>
    <desc>Created with sketchtool.</desc>
    <defs></defs>
    <g id="Page-1" stroke="none" stroke-width="1" fill="none" fill-rule="evenodd">
        <g id="uA203-compress" fill="#000000" fill-rule="nonzero">
            <g id="compress" transform="translate(56.000000, 56.000000)">
                <path d="M9.171,444.485 L3.515,438.829 C-1.171,434.143 -1.171,426.545 3.515,421.858 L169.373,256 L108,256 C101.373,256 96,250.627 96,244 L96,236 C96,229.373 101.373,224 108,224 L208,224 C216.837,224 224,231.163 224,240 L224,340 C224,346.627 218.627,352 212,352 L204,352 C197.373,352 192,346.627 192,340 L192,278.627 L26.142,444.485 C21.455,449.172 13.857,449.172 9.171,444.485 Z M240,224 L340,224 C346.627,224 352,218.627 352,212 L352,204 C352,197.373 346.627,192 340,192 L278.627,192 L444.485,26.142 C449.171,21.456 449.171,13.858 444.485,9.171 L438.829,3.515 C434.143,-1.171 426.545,-1.171 421.858,3.515 L256,169.373 L256,108 C256,101.373 250.627,96 244,96 L236,96 C229.373,96 224,101.373 224,108 L224,208 C224,216.837 231.163,224 240,224 Z" id="Shape"></path>
            </g>
        </g>
    </g>
</svg>