<?xml version="1.0" encoding="UTF-8"?>
<svg width="560px" height="560px" viewBox="0 0 560 560" version="1.1" xmlns="http://www.w3.org/2000/svg" xmlns:xlink="http://www.w3.org/1999/xlink">
    <!-- Generator: sketchtool 51.2 (57519) - http://www.bohemiancoding.com/sketch -->
    <title>uA207-credit-card</title>
    <desc>Created with sketchtool.</desc>
    <defs></defs>
    <g id="Page-1" stroke="none" stroke-width="1" fill="none" fill-rule="evenodd">
        <g id="uA207-credit-card" fill="#000000" fill-rule="nonzero">
            <g id="credit-card" transform="translate(0.000000, 62.000000)">
                <path d="M513.333333,0 L46.6666667,0 C20.9027778,0 0,20.9027778 0,46.6666667 L0,388.888889 C0,414.652778 20.9027778,435.555556 46.6666667,435.555556 L513.333333,435.555556 C539.097222,435.555556 560,414.652778 560,388.888889 L560,46.6666667 C560,20.9027778 539.097222,0 513.333333,0 Z M46.6666667,31.1111111 L513.333333,31.1111111 C521.888889,31.1111111 528.888889,38.1111111 528.888889,46.6666667 L528.888889,93.3333333 L31.1111111,93.3333333 L31.1111111,46.6666667 C31.1111111,38.1111111 38.1111111,31.1111111 46.6666667,31.1111111 Z M513.333333,404.444444 L46.6666667,404.444444 C38.1111111,404.444444 31.1111111,397.444444 31.1111111,388.888889 L31.1111111,186.666667 L528.888889,186.666667 L528.888889,388.888889 C528.888889,397.444444 521.888889,404.444444 513.333333,404.444444 Z M186.666667,322.777778 L186.666667,330.555556 C186.666667,336.972222 181.416667,342.222222 175,342.222222 L105,342.222222 C98.5833333,342.222222 93.3333333,336.972222 93.3333333,330.555556 L93.3333333,322.777778 C93.3333333,316.361111 98.5833333,311.111111 105,311.111111 L175,311.111111 C181.416667,311.111111 186.666667,316.361111 186.666667,322.777778 Z M373.333333,322.777778 L373.333333,330.555556 C373.333333,336.972222 368.083333,342.222222 361.666667,342.222222 L229.444444,342.222222 C223.027778,342.222222 217.777778,336.972222 217.777778,330.555556 L217.777778,322.777778 C217.777778,316.361111 223.027778,311.111111 229.444444,311.111111 L361.666667,311.111111 C368.083333,311.111111 373.333333,316.361111 373.333333,322.777778 Z" id="Shape"></path>
            </g>
        </g>
    </g>
</svg>