<?xml version="1.0" encoding="UTF-8"?>
<svg width="560px" height="560px" viewBox="0 0 560 560" version="1.1" xmlns="http://www.w3.org/2000/svg" xmlns:xlink="http://www.w3.org/1999/xlink">
    <!-- Generator: sketchtool 51.2 (57519) - http://www.bohemiancoding.com/sketch -->
    <title>uA200-merge</title>
    <desc>Created with sketchtool.</desc>
    <defs></defs>
    <g id="Page-1" stroke="none" stroke-width="1" fill="none" fill-rule="evenodd">
        <g id="uA200-merge" fill="#000000" fill-rule="nonzero">
            <g id="merge" transform="translate(88.000000, 24.000000)">
                <path d="M304,192 C262.3,192 228,224 224.3,264.8 C199.1,263.5 162.7,256.9 135.5,233.1 C115.2,215.3 102.7,190.1 98,158 C133.5,149.8 160,118 160,80.1 C160,35.9 124.2,0.1 80,0.1 C35.8,0.1 0,35.8 0,80 C0,118.7 27.5,151 64,158.4 L64,353.6 C27.5,361 0,393.3 0,432 C0,476.2 35.8,512 80,512 C124.2,512 160,476.2 160,432 C160,393.3 132.5,361 96,353.6 L96,237.4 C101.5,244.6 107.7,251.3 114.6,257.3 C151,289 197.9,296.1 228,297 C238.5,328.9 268.5,352 304,352 C348.2,352 384,316.2 384,272 C384,227.8 348.2,192 304,192 Z M32,80 C32,53.5 53.5,32 80,32 C106.5,32 128,53.5 128,80 C128,106.5 106.5,128 80,128 C53.5,128 32,106.5 32,80 Z M128,432 C128,458.5 106.5,480 80,480 C53.5,480 32,458.5 32,432 C32,405.5 53.5,384 80,384 C106.5,384 128,405.5 128,432 Z M304,320 C277.5,320 256,298.5 256,272 C256,245.5 277.5,224 304,224 C330.5,224 352,245.5 352,272 C352,298.5 330.5,320 304,320 Z" id="Shape"></path>
            </g>
        </g>
    </g>
</svg>