<?xml version="1.0" encoding="UTF-8"?>
<svg width="560px" height="560px" viewBox="0 0 560 560" version="1.1" xmlns="http://www.w3.org/2000/svg" xmlns:xlink="http://www.w3.org/1999/xlink">
    <!-- Generator: sketchtool 51.2 (57519) - http://www.bohemiancoding.com/sketch -->
    <title>uA202-compass</title>
    <desc>Created with sketchtool.</desc>
    <defs></defs>
    <g id="Page-1" stroke="none" stroke-width="1" fill="none" fill-rule="evenodd">
        <g id="uA202-compass" fill="#000000" fill-rule="nonzero">
            <g id="compass" transform="translate(32.000000, 32.000000)">
                <path d="M248,0 C111.033,0 0,111.033 0,248 C0,384.967 111.033,496 248,496 C384.967,496 496,384.967 496,248 C496,111.033 384.967,0 248,0 Z M464,248 C464,366.663 367.945,464 248,464 C129.337,464 32,367.945 32,248 C32,129.337 128.055,32 248,32 C366.663,32 464,128.055 464,248 Z M316,130.221 L282.641,268 L180,365.779 L213.359,228 L316,130.221 Z M293.928,107.051 L191.287,204.83 C186.838207,209.067969 183.703688,214.497222 182.258,220.469 L148.899,358.249 C141.326,389.527 179.268,410.673 202.072,388.949 L304.713,291.17 C309.161793,286.932031 312.296312,281.502778 313.742,275.531 L347.101,137.751 C352.008,117.487 336.534,98.22 316.009,98.22 C317.009,98.22 304.273,97.196 293.928,107.051 Z M272,248 C272,261.255 261.255,272 248,272 C234.745,272 224,261.255 224,248 C224,234.745 234.745,224 248,224 C261.255,224 272,234.745 272,248 Z" id="Shape"></path>
            </g>
        </g>
    </g>
</svg>