<?xml version="1.0" encoding="UTF-8"?>
<svg width="560px" height="560px" viewBox="0 0 560 560" version="1.1" xmlns="http://www.w3.org/2000/svg" xmlns:xlink="http://www.w3.org/1999/xlink">
    <!-- Generator: sketchtool 51.2 (57519) - http://www.bohemiancoding.com/sketch -->
    <title>uA206-credit-card-front</title>
    <desc>Created with sketchtool.</desc>
    <defs></defs>
    <g id="Page-1" stroke="none" stroke-width="1" fill="none" fill-rule="evenodd">
        <g id="uA206-credit-card-front" fill="#000000" fill-rule="nonzero">
            <g id="credit-card-front" transform="translate(0.000000, 62.000000)">
                <path d="M513.333333,0 L46.6666667,0 C20.9027778,0 0,20.9027778 0,46.6666667 L0,388.888889 C0,414.652778 20.9027778,435.555556 46.6666667,435.555556 L513.333333,435.555556 C539.097222,435.555556 560,414.652778 560,388.888889 L560,46.6666667 C560,20.9027778 539.097222,0 513.333333,0 Z M528.888889,388.888889 C528.888889,397.444444 521.888889,404.444444 513.333333,404.444444 L46.6666667,404.444444 C38.1111111,404.444444 31.1111111,397.444444 31.1111111,388.888889 L31.1111111,46.6666667 C31.1111111,38.1111111 38.1111111,31.1111111 46.6666667,31.1111111 L513.333333,31.1111111 C521.888889,31.1111111 528.888889,38.1111111 528.888889,46.6666667 L528.888889,388.888889 Z M186.666667,322.777778 L186.666667,330.555556 C186.666667,336.972222 181.416667,342.222222 175,342.222222 L105,342.222222 C98.5833333,342.222222 93.3333333,336.972222 93.3333333,330.555556 L93.3333333,322.777778 C93.3333333,316.361111 98.5833333,311.111111 105,311.111111 L175,311.111111 C181.416667,311.111111 186.666667,316.361111 186.666667,322.777778 Z M373.333333,322.777778 L373.333333,330.555556 C373.333333,336.972222 368.083333,342.222222 361.666667,342.222222 L229.444444,342.222222 C223.027778,342.222222 217.777778,336.972222 217.777778,330.555556 L217.777778,322.777778 C217.777778,316.361111 223.027778,311.111111 229.444444,311.111111 L361.666667,311.111111 C368.083333,311.111111 373.333333,316.361111 373.333333,322.777778 Z M474.444444,62.2222222 L396.666667,62.2222222 C383.736111,62.2222222 373.333333,72.625 373.333333,85.5555556 L373.333333,132.222222 C373.333333,145.152778 383.736111,155.555556 396.666667,155.555556 L474.444444,155.555556 C487.375,155.555556 497.777778,145.152778 497.777778,132.222222 L497.777778,85.5555556 C497.777778,72.625 487.375,62.2222222 474.444444,62.2222222 Z M466.666667,124.444444 L404.444444,124.444444 L404.444444,93.3333333 L466.666667,93.3333333 L466.666667,124.444444 Z M252.777778,280 L198.333333,280 C191.916667,280 186.666667,274.75 186.666667,268.333333 L186.666667,229.444444 C186.666667,223.027778 191.916667,217.777778 198.333333,217.777778 L252.777778,217.777778 C259.194444,217.777778 264.444444,223.027778 264.444444,229.444444 L264.444444,268.333333 C264.444444,274.75 259.194444,280 252.777778,280 Z M280,268.333333 L280,229.444444 C280,223.027778 285.25,217.777778 291.666667,217.777778 L346.111111,217.777778 C352.527778,217.777778 357.777778,223.027778 357.777778,229.444444 L357.777778,268.333333 C357.777778,274.75 352.527778,280 346.111111,280 L291.666667,280 C285.25,280 280,274.75 280,268.333333 Z M93.3333333,268.333333 L93.3333333,229.444444 C93.3333333,223.027778 98.5833333,217.777778 105,217.777778 L159.444444,217.777778 C165.861111,217.777778 171.111111,223.027778 171.111111,229.444444 L171.111111,268.333333 C171.111111,274.75 165.861111,280 159.444444,280 L105,280 C98.5833333,280 93.3333333,274.75 93.3333333,268.333333 Z M466.666667,229.444444 L466.666667,268.333333 C466.666667,274.75 461.416667,280 455,280 L385,280 C378.583333,280 373.333333,274.75 373.333333,268.333333 L373.333333,229.444444 C373.333333,223.027778 378.583333,217.777778 385,217.777778 L455,217.777778 C461.416667,217.777778 466.666667,223.027778 466.666667,229.444444 Z" id="Shape"></path>
            </g>
        </g>
    </g>
</svg>