<?xml version="1.0" encoding="UTF-8"?>
<svg width="560px" height="560px" viewBox="0 0 560 560" version="1.1" xmlns="http://www.w3.org/2000/svg" xmlns:xlink="http://www.w3.org/1999/xlink">
    <!-- Generator: sketchtool 51.2 (57519) - http://www.bohemiancoding.com/sketch -->
    <title>uA213-external-link</title>
    <desc>Created with sketchtool.</desc>
    <defs></defs>
    <g id="Page-1" stroke="none" stroke-width="1" fill="none" fill-rule="evenodd">
        <g id="uA213-external-link" fill="#000000" fill-rule="nonzero">
            <g id="external-link" transform="translate(56.000000, 56.000000)">
                <path d="M400,0 L48,0 C21.49,0 0,21.49 0,48 L0,400 C0,426.51 21.49,448 48,448 L400,448 C426.51,448 448,426.51 448,400 L448,48 C448,21.49 426.51,0 400,0 Z M416,400 C416,408.822 408.822,416 400,416 L48,416 C39.178,416 32,408.822 32,400 L32,48 C32,39.178 39.178,32 48,32 L400,32 C408.822,32 416,39.178 416,48 L416,400 Z M99.515,342.828 C94.829,338.142 94.829,330.544 99.515,325.857 L294.665,130.707 L293.958,130 L204,130.342 C197.373,130.342 192,124.969 192,118.342 L192,108.343 C192,101.715 197.372,96.343 204,96.343 L340,96 C346.627,96 352,101.372 352,108 L351.657,244 C351.657,250.627 346.284,256 339.657,256 L329.658,256 C323.031,256 317.658,250.627 317.658,244 L318,154.042 L317.293,153.335 L122.143,348.485 C117.457,353.171 109.859,353.171 105.172,348.485 L99.515,342.828 Z" id="Shape"></path>
            </g>
        </g>
    </g>
</svg>