<?xml version="1.0" encoding="UTF-8"?>
<svg width="560px" height="560px" viewBox="0 0 560 560" version="1.1" xmlns="http://www.w3.org/2000/svg" xmlns:xlink="http://www.w3.org/1999/xlink">
    <!-- Generator: sketchtool 51.2 (57519) - http://www.bohemiancoding.com/sketch -->
    <title>uA210-dolly</title>
    <desc>Created with sketchtool.</desc>
    <defs></defs>
    <g id="Page-1" stroke="none" stroke-width="1" fill="none" fill-rule="evenodd">
        <g id="uA210-dolly" fill="#000000" fill-rule="nonzero">
            <g id="dolly" transform="translate(0.000000, 47.000000)">
                <path d="M558.641248,269.615251 L553.691508,254.863085 C552.332756,250.786828 547.965338,248.554593 543.889081,249.913345 L510.5026,261.171577 L438.197574,44.5476603 C435.577123,36.6863085 430.045061,30.2807626 422.668977,26.592721 C415.195841,22.9046794 406.84922,22.322357 398.987868,24.9428076 L171.105719,100.935875 L153.636049,51.729636 C142.571924,20.6724437 113.261698,0 80.3604853,0 L7.76429809,0 C3.49393414,0 0,3.49393414 0,7.76429809 L0,23.2928943 C0,27.5632582 3.49393414,31.0571924 7.76429809,31.0571924 L80.3604853,31.0571924 C100.062392,31.0571924 117.629116,43.4800693 124.228769,62.017331 L218.079723,325.906412 C195.466205,342.599653 181.975737,371.036395 187.604853,402.481802 C193.039861,432.859619 217.109185,457.802426 247.292894,464.110919 C297.469671,474.495667 341.629116,436.54766 341.629116,388.214905 C341.629116,375.500867 338.329289,363.757366 332.894281,353.17851 L553.691508,279.417678 C557.767764,278.058925 560,273.691508 558.641248,269.615251 Z M181.490468,130.149047 L284.755633,95.694974 L309.019064,168.388215 C310.377816,172.464471 314.745234,174.696707 318.82149,173.337955 L333.573657,168.388215 C337.649913,167.029463 339.882149,162.662045 338.523397,158.585789 L314.259965,85.8925477 L408.790295,54.3500867 L481.095321,271.071057 L311.833622,327.459272 C298.537262,317.074523 282.135182,310.571924 263.986135,310.571924 C257.87175,310.571924 252.048527,311.445407 246.419411,312.804159 L181.490468,130.149047 Z M263.986135,434.800693 C238.266898,434.800693 217.400347,413.934142 217.400347,388.214905 C217.400347,362.495667 238.266898,341.629116 263.986135,341.629116 C289.705373,341.629116 310.571924,362.495667 310.571924,388.214905 C310.571924,413.934142 289.705373,434.800693 263.986135,434.800693 Z" id="Shape"></path>
            </g>
        </g>
    </g>
</svg>