<?xml version="1.0" encoding="UTF-8"?>
<svg width="560px" height="560px" viewBox="0 0 560 560" version="1.1" xmlns="http://www.w3.org/2000/svg" xmlns:xlink="http://www.w3.org/1999/xlink">
    <!-- Generator: sketchtool 51.2 (57519) - http://www.bohemiancoding.com/sketch -->
    <title>uA211-download</title>
    <desc>Created with sketchtool.</desc>
    <defs></defs>
    <g id="Page-1" stroke="none" stroke-width="1" fill="none" fill-rule="evenodd">
        <g id="uA211-download" fill="#000000" fill-rule="nonzero">
            <g id="download" transform="translate(24.000000, 24.000000)">
                <path d="M452,432 C452,443 443,452 432,452 C421,452 412,443 412,432 C412,421 421,412 432,412 C443,412 452,421 452,432 Z M368,412 C357,412 348,421 348,432 C348,443 357,452 368,452 C379,452 388,443 388,432 C388,421 379,412 368,412 Z M512,364 L512,468 C512,492.3 492.3,512 468,512 L44,512 C19.7,512 0,492.3 0,468 L0,364 C0,339.7 19.7,320 44,320 L143.4,320 L87,263.6 C61.8,238.4 79.7,195.3 115.3,195.3 L168,195.3 L168,40 C168,17.9 185.9,0 208,0 L304,0 C326.1,0 344,17.9 344,40 L344,195.3 L396.7,195.3 C432.3,195.3 450.1,238.4 425,263.6 L368.6,320 L468,320 C492.3,320 512,339.7 512,364 Z M250.3,381.7 C253.4,384.8 258.5,384.8 261.6,381.7 L402.3,241 C407.3,236 403.8,227.3 396.6,227.3 L312,227.3 L312,40 C312,35.6 308.4,32 304,32 L208,32 C203.6,32 200,35.6 200,40 L200,227.3 L115.3,227.3 C108.2,227.3 104.6,235.9 109.6,241 L250.3,381.7 Z M480,364 C480,357.4 474.6,352 468,352 L336.6,352 L284.3,404.3 C268.7,419.9 243.3,419.9 227.7,404.3 L175.4,352 L44,352 C37.4,352 32,357.4 32,364 L32,468 C32,474.6 37.4,480 44,480 L468,480 C474.6,480 480,474.6 480,468 L480,364 Z" id="Shape"></path>
            </g>
        </g>
    </g>
</svg>