<?xml version="1.0" encoding="UTF-8"?>
<svg width="560px" height="560px" viewBox="0 0 560 560" version="1.1" xmlns="http://www.w3.org/2000/svg" xmlns:xlink="http://www.w3.org/1999/xlink">
    <!-- Generator: sketchtool 51.2 (57519) - http://www.bohemiancoding.com/sketch -->
    <title>uA215-eye-slash</title>
    <desc>Created with sketchtool.</desc>
    <defs></defs>
    <g id="Page-1" stroke="none" stroke-width="1" fill="none" fill-rule="evenodd">
        <g id="uA215-eye-slash" fill="#000000" fill-rule="nonzero">
            <g id="eye-slash" transform="translate(0.000000, 30.000000)">
                <path d="M312.565556,395.812083 L333.680278,424.270972 C315.943039,427.258119 297.987013,428.756352 280,428.75 C163.469444,428.75 61.2529167,366.533611 6.46138889,273.553194 C-2.15440973,258.933073 -2.15440973,240.788177 6.46138889,226.168056 C31.5777778,183.545833 66.6545833,147.408333 108.489306,120.752917 L127.083056,145.813889 C88.3594444,170.063056 56.1069444,203.20125 33.2645833,241.962778 C30.3945128,246.836543 30.3945128,252.883735 33.2645833,257.7575 C83.7695833,343.46375 177.075694,397.638889 280,397.638889 C290.984167,397.638889 301.851667,397.016667 312.565556,395.812083 Z M138.028333,160.567361 C129.341528,179.443056 124.444444,200.4625 124.444444,222.638889 C124.444444,306.076944 193.695833,374.305556 280,374.305556 C285.411389,374.305556 290.755694,374.03625 296.02125,373.513194 L273.401528,343.025278 C207.740556,339.702222 155.555556,287.074861 155.555556,222.638889 C155.549901,211.701344 157.076209,200.81691 160.09,190.302778 L138.028333,160.567361 Z M553.538611,273.554167 C520.765972,329.167222 471.034861,373.730972 411.455139,400.597361 L466.804722,475.197917 C470.693611,480.439167 469.596944,487.840694 464.355694,491.729583 L458.029444,496.423472 C452.788194,500.312361 445.386667,499.215694 441.49875,493.974444 L93.19625,24.5243056 C89.3073611,19.2830556 90.4040278,11.8815278 95.6452778,7.99263889 L101.971528,3.29875 C107.212778,-0.590138889 114.614306,0.506527778 118.502222,5.74777778 L178.96375,87.2394444 C210.720417,76.6918056 244.704444,70.9722222 280,70.9722222 C396.530556,70.9722222 498.746111,133.188611 553.538611,226.168056 C562.153542,240.788762 562.153542,258.933461 553.538611,273.554167 Z M404.444444,222.638889 C404.444444,156.058194 348.728333,102.083333 280,102.083333 C252.720417,102.083333 227.498056,110.594167 206.990972,125.016111 L240.735833,170.498611 C260.509861,154.375278 287.639722,152.264583 309.299861,163.848611 L309.280417,163.848611 C295.130694,163.848611 283.659444,175.319861 283.659444,189.469583 C283.659444,203.619306 295.130694,215.090556 309.280417,215.090556 C323.430139,215.090556 334.901389,203.619306 334.901389,189.469583 L334.901389,189.450139 C349.701528,217.124444 341.599028,252.210972 314.796806,270.319583 L352.240972,320.788611 C383.83625,298.924306 404.444444,263.120278 404.444444,222.638889 Z M526.735417,241.96375 C498.470972,194.001111 455.431667,154.040833 402.621528,129.295833 C456.4875,196.407361 443.164167,294.975139 370.796806,345.798056 L392.417083,374.938472 C448.382083,351.308611 495.711806,310.402361 526.734444,257.759444 C529.605197,252.885612 529.605569,246.837936 526.735417,241.96375 Z" id="Shape"></path>
            </g>
        </g>
    </g>
</svg>