<?xml version="1.0" encoding="UTF-8"?>
<svg width="560px" height="560px" viewBox="0 0 560 560" version="1.1" xmlns="http://www.w3.org/2000/svg" xmlns:xlink="http://www.w3.org/1999/xlink">
    <!-- Generator: sketchtool 51.2 (57519) - http://www.bohemiancoding.com/sketch -->
    <title>uA216-frown</title>
    <desc>Created with sketchtool.</desc>
    <defs></defs>
    <g id="Page-1" stroke="none" stroke-width="1" fill="none" fill-rule="evenodd">
        <g id="uA216-frown" fill="#000000" fill-rule="nonzero">
            <g id="frown" transform="translate(32.000000, 32.000000)">
                <path d="M248,0 C111,0 0,111 0,248 C0,385 111,496 248,496 C385,496 496,385 496,248 C496,111 385,0 248,0 Z M248,464 C128.9,464 32,367.1 32,248 C32,128.9 128.9,32 248,32 C367.1,32 464,128.9 464,248 C464,367.1 367.1,464 248,464 Z M248,312 C203.6,312 161.8,331.6 133.2,365.8 C127.5,372.6 128.4,382.7 135.2,388.3 C142,394 152.1,393.1 157.7,386.3 C180.1,359.5 213,344.1 247.9,344.1 C282.8,344.1 315.7,359.5 338.1,386.3 C343.4,392.7 353.5,394.3 360.6,388.3 C367.4,382.6 368.3,372.5 362.6,365.8 C334.2,331.6 292.4,312 248,312 Z M168,232 C185.7,232 200,217.7 200,200 C200,182.3 185.7,168 168,168 C150.3,168 136,182.3 136,200 C136,217.7 150.3,232 168,232 Z M328,232 C345.7,232 360,217.7 360,200 C360,182.3 345.7,168 328,168 C310.3,168 296,182.3 296,200 C296,217.7 310.3,232 328,232 Z" id="Shape"></path>
            </g>
        </g>
    </g>
</svg>