<?xml version="1.0" encoding="UTF-8"?>
<svg width="560px" height="560px" viewBox="0 0 560 560" version="1.1" xmlns="http://www.w3.org/2000/svg" xmlns:xlink="http://www.w3.org/1999/xlink">
    <!-- Generator: sketchtool 51.2 (57519) - http://www.bohemiancoding.com/sketch -->
    <title>uA217-gift</title>
    <desc>Created with sketchtool.</desc>
    <defs></defs>
    <g id="Page-1" stroke="none" stroke-width="1" fill="none" fill-rule="evenodd">
        <g id="uA217-gift" fill="#000000" fill-rule="nonzero">
            <g id="gift" transform="translate(24.000000, 56.000000)">
                <path d="M464,128 L424.7,128 C434.2,114.6 440,98.1 440,80 C440,35.9 406.6,0 365.5,0 C323.2,0 298.7,25.4 256,95.8 C213.3,25.4 188.8,0 146.5,0 C105.4,0 72,35.9 72,80 C72,98.1 77.8,114.6 87.3,128 L48,128 C21.5,128 0,149.5 0,176 L0,272 C0,280.8 7.2,288 16,288 L32,288 L32,400 C32,426.5 53.5,448 80,448 L432,448 C458.5,448 480,426.5 480,400 L480,288 L496,288 C504.8,288 512,280.8 512,272 L512,176 C512,149.5 490.5,128 464,128 Z M276.2,124.4 C325.7,41.1 342.2,32 365.5,32 C388.9,32 408,53.5 408,80 C408,106.5 388.9,128 365.5,128 L274,128 L276.2,124.4 Z M146.5,32 C169.9,32 186.3,41.1 235.8,124.4 L237.9,128 L146.4,128 C123,128 103.9,106.5 103.9,80 C104,53.5 123.1,32 146.5,32 Z M192,416 L80,416 C71.2,416 64,408.8 64,400 L64,288 L192,288 L192,416 Z M192,256 L32,256 L32,176 C32,167.2 39.2,160 48,160 L192,160 L192,256 Z M288,416 L224,416 L224,160 L288,160 L288,416 Z M448,400 C448,408.8 440.8,416 432,416 L320,416 L320,288 L448,288 L448,400 Z M480,256 L320,256 L320,160 L464,160 C472.8,160 480,167.2 480,176 L480,256 Z" id="Shape"></path>
            </g>
        </g>
    </g>
</svg>