<?xml version="1.0" encoding="UTF-8"?>
<svg width="560px" height="560px" viewBox="0 0 560 560" version="1.1" xmlns="http://www.w3.org/2000/svg" xmlns:xlink="http://www.w3.org/1999/xlink">
    <!-- Generator: sketchtool 51.2 (57519) - http://www.bohemiancoding.com/sketch -->
    <title>uA220-grin-beam-sweat</title>
    <desc>Created with sketchtool.</desc>
    <defs></defs>
    <g id="Page-1" stroke="none" stroke-width="1" fill="none" fill-rule="evenodd">
        <g id="uA220-grin-beam-sweat" fill="#000000" fill-rule="nonzero">
            <g id="grin-beam-sweat" transform="translate(28.000000, 28.000000)">
                <path d="M277.7,247.7 C281.1,248.8 285.1,247.2 287,244 L296.5,227 C304.2,213.3 315.7,205.4 328,205.4 C340.3,205.4 351.8,213.3 359.5,227 L369,244 C371.1,247.7 375.2,248.7 378.3,247.7 C381.9,246.6 384.3,243.2 384,239.4 C380.7,197.3 351.8,168 328,168 C304.2,168 275.3,197.3 272,239.4 C271.7,243.1 274.1,246.6 277.7,247.7 Z M117.7,247.7 C121.1,248.8 125.1,247.2 127,244 L136.5,227 C144.2,213.3 155.7,205.4 168,205.4 C180.3,205.4 191.8,213.3 199.5,227 L209,244 C211.1,247.7 215.2,248.7 218.3,247.7 C221.9,246.6 224.3,243.2 224,239.4 C220.7,197.3 191.8,168 168,168 C144.2,168 115.3,197.3 112,239.4 C111.7,243.1 114.1,246.6 117.7,247.7 Z M371.1,320.8 C340.9,330.5 296,336 248,336 C200,336 155.1,330.5 124.9,320.8 C119.6,319.1 113.8,320.3 109.6,323.9 C105.4,327.6 103.4,333.1 104.3,338.7 C113.5,393.7 187.5,432 248.1,432 C308.7,432 382.6,393.7 391.9,338.7 C392.8,333.2 390.8,327.6 386.6,323.9 C382.3,320.2 376.4,319 371.1,320.8 Z M248,400 C213,400 171,383.7 149.5,359.7 C207,370.5 289.1,370.5 346.6,359.7 C325,383.7 283,400 248,400 Z M504,117.3 C504,90.1 476,44.4 452.6,10.9 C448.8,5.4 440.4,0 432,0 C423.6,0 415.2,5.4 411.4,10.8 C403,22.8 394.1,36.3 386.1,50 C346.6,23.5 299.1,8 248,8 C111,8 0,119 0,256 C0,393 111,504 248,504 C385,504 496,393 496,256 C496,226.4 490.5,198.1 481,171.7 C495.1,158.1 504,138.8 504,117.3 Z M248,472 C128.9,472 32,375.1 32,256 C32,136.9 128.9,40 248,40 C293.7,40 336,54.4 371,78.7 C364.4,93.2 360,106.7 360,117.3 C360,158.5 392.3,192 432,192 C439.4,192 446.3,190.5 453,188.4 C460,209.7 464,232.4 464,256 C464,375.1 367.1,472 248,472 Z M432,160 C409.9,160 392,140.8 392,117.3 C392,104.4 407.5,73.5 432,37.4 C456.5,73.6 472,104.4 472,117.3 C472,140.8 454.1,160 432,160 Z" id="Shape"></path>
            </g>
        </g>
    </g>
</svg>