<?xml version="1.0" encoding="UTF-8"?>
<svg width="560px" height="560px" viewBox="0 0 560 560" version="1.1" xmlns="http://www.w3.org/2000/svg" xmlns:xlink="http://www.w3.org/1999/xlink">
    <!-- Generator: sketchtool 51.2 (57519) - http://www.bohemiancoding.com/sketch -->
    <title>uA223-grin</title>
    <desc>Created with sketchtool.</desc>
    <defs></defs>
    <g id="Page-1" stroke="none" stroke-width="1" fill="none" fill-rule="evenodd">
        <g id="uA223-grin" fill="#000000" fill-rule="nonzero">
            <g id="grin" transform="translate(32.000000, 32.000000)">
                <path d="M248,0 C111,0 0,111 0,248 C0,385 111,496 248,496 C385,496 496,385 496,248 C496,111 385,0 248,0 Z M248,464 C128.9,464 32,367.1 32,248 C32,128.9 128.9,32 248,32 C367.1,32 464,128.9 464,248 C464,367.1 367.1,464 248,464 Z M371.1,312.8 C340.9,322.5 296,328 248,328 C200,328 155.1,322.5 124.9,312.8 C119.6,311.1 113.8,312.3 109.6,315.9 C105.4,319.6 103.4,325.1 104.3,330.7 C113.5,385.7 187.5,424 248.1,424 C308.7,424 382.6,385.7 391.9,330.7 C392.8,325.2 390.8,319.6 386.6,315.9 C382.3,312.2 376.4,311 371.1,312.8 Z M248,392 C213,392 171,375.7 149.5,351.7 C207,362.5 289.1,362.5 346.6,351.7 C325,375.7 283,392 248,392 Z M168,232 C185.7,232 200,217.7 200,200 C200,182.3 185.7,168 168,168 C150.3,168 136,182.3 136,200 C136,217.7 150.3,232 168,232 Z M328,232 C345.7,232 360,217.7 360,200 C360,182.3 345.7,168 328,168 C310.3,168 296,182.3 296,200 C296,217.7 310.3,232 328,232 Z" id="Shape"></path>
            </g>
        </g>
    </g>
</svg>