<?xml version="1.0" encoding="UTF-8"?>
<svg width="560px" height="560px" viewBox="0 0 560 560" version="1.1" xmlns="http://www.w3.org/2000/svg" xmlns:xlink="http://www.w3.org/1999/xlink">
    <!-- Generator: sketchtool 51.2 (57519) - http://www.bohemiancoding.com/sketch -->
    <title>uA228-id-card</title>
    <desc>Created with sketchtool.</desc>
    <defs></defs>
    <g id="Page-1" stroke="none" stroke-width="1" fill="none" fill-rule="evenodd">
        <g id="uA228-id-card" fill="#000000" fill-rule="nonzero">
            <g id="id-card" transform="translate(0.000000, 62.000000)">
                <path d="M350,280 L458.888889,280 C463.166667,280 466.666667,276.5 466.666667,272.222222 L466.666667,256.666667 C466.666667,252.388889 463.166667,248.888889 458.888889,248.888889 L350,248.888889 C345.722222,248.888889 342.222222,252.388889 342.222222,256.666667 L342.222222,272.222222 C342.222222,276.5 345.722222,280 350,280 Z M350,217.777778 L458.888889,217.777778 C463.166667,217.777778 466.666667,214.277778 466.666667,210 L466.666667,194.444444 C466.666667,190.166667 463.166667,186.666667 458.888889,186.666667 L350,186.666667 C345.722222,186.666667 342.222222,190.166667 342.222222,194.444444 L342.222222,210 C342.222222,214.277778 345.722222,217.777778 350,217.777778 Z M350,342.222222 L458.888889,342.222222 C463.166667,342.222222 466.666667,338.722222 466.666667,334.444444 L466.666667,318.888889 C466.666667,314.611111 463.166667,311.111111 458.888889,311.111111 L350,311.111111 C345.722222,311.111111 342.222222,314.611111 342.222222,318.888889 L342.222222,334.444444 C342.222222,338.722222 345.722222,342.222222 350,342.222222 Z M186.666667,311.111111 C229.638889,311.111111 264.444444,276.305556 264.444444,233.333333 C264.444444,190.361111 229.638889,155.555556 186.666667,155.555556 C143.694444,155.555556 108.888889,190.361111 108.888889,233.333333 C108.888889,276.305556 143.694444,311.111111 186.666667,311.111111 Z M186.666667,186.666667 C212.430556,186.666667 233.333333,207.569444 233.333333,233.333333 C233.333333,259.097222 212.430556,280 186.666667,280 C160.902778,280 140,259.097222 140,233.333333 C140,207.569444 160.902778,186.666667 186.666667,186.666667 Z M497.777778,0 L62.2222222,0 C27.9027778,0 0,27.9027778 0,62.2222222 L0,373.333333 C0,407.652778 27.9027778,435.555556 62.2222222,435.555556 L497.777778,435.555556 C532.097222,435.555556 560,407.652778 560,373.333333 L560,62.2222222 C560,27.9027778 532.097222,0 497.777778,0 Z M264.444444,404.444444 L108.888889,404.444444 L108.888889,389.763889 C108.888889,382.958333 110.930556,376.347222 114.722222,370.708333 C120.166667,362.638889 130.083333,357.875 141.263889,357.875 C153.319444,357.875 161.486111,364.680556 186.763889,364.680556 C211.944444,364.680556 220.111111,357.875 232.263889,357.875 C243.444444,357.875 253.361111,362.736111 258.805556,370.708333 C262.597222,376.347222 264.638889,382.958333 264.638889,389.763889 L264.638889,404.444444 L264.444444,404.444444 Z M528.888889,373.333333 C528.888889,390.444444 514.888889,404.444444 497.777778,404.444444 L295.555556,404.444444 L295.555556,389.763889 C295.555556,376.25 291.472222,363.708333 284.472222,353.305556 C272.708333,335.902778 252.680556,326.666667 232.166667,326.666667 C213.208333,326.666667 208.444444,333.472222 186.666667,333.472222 C164.888889,333.472222 160.125,326.666667 141.166667,326.666667 C120.555556,326.666667 100.527778,335.805556 88.8611111,353.305556 C81.8611111,363.708333 77.7777778,376.25 77.7777778,389.763889 L77.7777778,404.444444 L62.2222222,404.444444 C45.1111111,404.444444 31.1111111,390.444444 31.1111111,373.333333 L31.1111111,124.444444 L528.888889,124.444444 L528.888889,373.333333 Z M528.888889,93.3333333 L31.1111111,93.3333333 L31.1111111,62.2222222 C31.1111111,45.1111111 45.1111111,31.1111111 62.2222222,31.1111111 L497.777778,31.1111111 C514.888889,31.1111111 528.888889,45.1111111 528.888889,62.2222222 L528.888889,93.3333333 Z" id="Shape"></path>
            </g>
        </g>
    </g>
</svg>