<?xml version="1.0" encoding="UTF-8"?>
<svg width="560px" height="560px" viewBox="0 0 560 560" version="1.1" xmlns="http://www.w3.org/2000/svg" xmlns:xlink="http://www.w3.org/1999/xlink">
    <!-- Generator: sketchtool 51.2 (57519) - http://www.bohemiancoding.com/sketch -->
    <title>uA233-location-arrow</title>
    <desc>Created with sketchtool.</desc>
    <defs></defs>
    <g id="Page-1" stroke="none" stroke-width="1" fill="none" fill-rule="evenodd">
        <g id="uA233-location-arrow" fill="#000000" fill-rule="nonzero">
            <g id="location-arrow" transform="translate(24.000000, 24.000000)">
                <path d="M507.38,68.225 L315.582,484.108 C294.161,530.519 224,515.72 224,463.993 L224,288 L47.933,288 C-3.39,288 -18.702,217.889 27.818,196.418 L443.683,4.529 C483.628,-13.908 526.285,27.264 507.38,68.225 Z M457.224,33.528 L41.278,225.457 C25.787,232.606 30.835,255.983 47.986,255.983 L256,255.983 L256,463.983 C256,481.906 279.596,485.705 286.527,470.688 L478.452,54.769 C484.752,41.116 470.657,27.328 457.224,33.528 Z" id="Shape"></path>
            </g>
        </g>
    </g>
</svg>