<?xml version="1.0" encoding="UTF-8"?>
<svg width="560px" height="560px" viewBox="0 0 560 560" version="1.1" xmlns="http://www.w3.org/2000/svg" xmlns:xlink="http://www.w3.org/1999/xlink">
    <!-- Generator: sketchtool 51.2 (57519) - http://www.bohemiancoding.com/sketch -->
    <title>uA238-map-marker</title>
    <desc>Created with sketchtool.</desc>
    <defs></defs>
    <g id="Page-1" stroke="none" stroke-width="1" fill="none" fill-rule="evenodd">
        <g id="uA238-map-marker" fill="#000000" fill-rule="nonzero">
            <g id="map-marker" transform="translate(88.000000, 24.000000)">
                <path d="M192,96 C139.065,96 96,139.065 96,192 C96,244.935 139.065,288 192,288 C244.935,288 288,244.935 288,192 C288,139.065 244.935,96 192,96 Z M192,256 C156.71,256 128,227.29 128,192 C128,156.71 156.71,128 192,128 C227.29,128 256,156.71 256,192 C256,227.29 227.29,256 192,256 Z M192,0 C85.961,0 0,85.961 0,192 C0,269.413 26.97,291.031 172.268,501.67 C181.802,515.442 202.197,515.444 211.733,501.67 C357.03,291.031 384,269.413 384,192 C384,85.961 298.039,0 192,0 Z M192,473.931 C52.705,272.488 32,256.494 32,192 C32,149.262 48.643,109.083 78.863,78.863 C109.083,48.643 149.262,32 192,32 C234.738,32 274.917,48.643 305.137,78.863 C335.357,109.083 352,149.262 352,192 C352,256.49 331.308,272.47 192,473.931 Z" id="Shape"></path>
            </g>
        </g>
    </g>
</svg>