<?xml version="1.0" encoding="UTF-8"?>
<svg width="560px" height="560px" viewBox="0 0 560 560" version="1.1" xmlns="http://www.w3.org/2000/svg" xmlns:xlink="http://www.w3.org/1999/xlink">
    <!-- Generator: sketchtool 51.2 (57519) - http://www.bohemiancoding.com/sketch -->
    <title>uA236-magic</title>
    <desc>Created with sketchtool.</desc>
    <defs></defs>
    <g id="Page-1" stroke="none" stroke-width="1" fill="none" fill-rule="evenodd">
        <g id="uA236-magic" fill="#000000" fill-rule="nonzero">
            <g id="magic" transform="translate(24.000000, 24.000000)">
                <path d="M225,96 L241,64 L273,48 L241,32 L225,0 L209,32 L177,48 L209,64 L225,96 Z M81,160 L107.66,106.67 L161,80 L107.66,53.33 L81,0 L54.34,53.33 L1,80 L54.34,106.67 L81,160 Z M81,64 C89.84,64 97,71.16 97,80 C97,88.84 89.84,96 81,96 C72.16,96 65,88.84 65,80 C65,71.16 72.16,64 81,64 Z M433,288 L406.34,341.33 L353,368 L406.34,394.67 L433,448 L459.66,394.67 L513,368 L459.66,341.33 L433,288 Z M433,384 C424.16,384 417,376.84 417,368 C417,359.16 424.16,352 433,352 C441.84,352 449,359.16 449,368 C449,376.84 441.84,384 433,384 Z M503.63,77.96 L435.04,9.37 C428.79,3.12 420.6,0 412.41,0 C404.22,0 396.03,3.12 389.78,9.37 L10.37,388.79 C-2.13,401.29 -2.13,421.55 10.37,434.04 L78.96,502.63 C85.21,508.88 93.4,512 101.59,512 C109.78,512 117.97,508.88 124.22,502.63 L503.63,123.22 C516.12,110.72 516.12,90.46 503.63,77.96 Z M101.59,480 L33,411.41 L291.38,153.01 L359.98,221.61 L101.59,480 Z M382.61,198.98 L314.01,130.38 L412.38,32 L412.41,32 L481,100.59 L382.61,198.98 Z" id="Shape"></path>
            </g>
        </g>
    </g>
</svg>