<?xml version="1.0" encoding="UTF-8"?>
<svg width="560px" height="560px" viewBox="0 0 560 560" version="1.1" xmlns="http://www.w3.org/2000/svg" xmlns:xlink="http://www.w3.org/1999/xlink">
    <!-- Generator: sketchtool 51.2 (57519) - http://www.bohemiancoding.com/sketch -->
    <title>uA237-map-marked</title>
    <desc>Created with sketchtool.</desc>
    <defs></defs>
    <g id="Page-1" stroke="none" stroke-width="1" fill="none" fill-rule="evenodd">
        <g id="uA237-map-marked" fill="#000000" fill-rule="nonzero">
            <g id="map-marked" transform="translate(0.000000, 31.000000)">
                <path d="M303.333333,124.444444 C303.333333,111.552778 292.881944,101.111111 280,101.111111 C267.118056,101.111111 256.666667,111.552778 256.666667,124.444444 C256.666667,137.326389 267.118056,147.777778 280,147.777778 C292.881944,147.777778 303.333333,137.336111 303.333333,124.444444 Z M544.463889,155.555556 C542.558333,155.555556 540.594444,155.915278 538.669444,156.683333 L373.343056,217.777778 L373.333333,217.777778 L363.348611,214.258333 C386.001389,180.366667 404.454167,145.036111 404.454167,119.631944 C404.444444,53.5597222 348.726389,0 280,0 C211.273611,0 155.555556,53.5597222 155.555556,119.631944 C155.555556,131.104167 159.463889,144.666667 165.656944,159.143056 L19.5611111,209.961111 C7.74861111,214.676389 0,226.119444 0,238.845833 L0,482.2125 C0,491.1375 7.32083333,497.777778 15.5458333,497.777778 C17.4513889,497.777778 19.4055556,497.418056 21.3402778,496.65 L186.666667,435.555556 L353.888889,494.579167 C366.517985,498.793567 380.166079,498.844683 392.826389,494.725 L540.438889,443.381944 C552.252496,438.659738 559.999863,427.219665 560,414.497222 L560,171.130556 C560,162.195833 552.679167,155.555556 544.463889,155.555556 Z M171.111111,408.138889 L31.0236111,459.909722 L29.7791667,239.341667 L171.111111,190.176389 L171.111111,408.138889 Z M280,31.1111111 C331.469444,31.1111111 373.333333,70.8166667 373.333333,119.631944 C373.333333,145.881944 336.301389,206.052778 280,272.047222 C223.708333,206.052778 186.666667,145.881944 186.666667,119.631944 C186.666667,70.8166667 228.530556,31.1111111 280,31.1111111 Z M357.777778,462.9625 L202.222222,408.051389 L202.222222,222.463889 C225.963889,256.754167 252.913889,288.575 268.051389,305.744444 C271.201389,309.322222 275.605556,311.111111 280,311.111111 C284.394444,311.111111 288.798611,309.322222 291.948611,305.744444 C304.354167,291.676389 324.7125,267.720833 344.720833,240.663889 L357.768056,245.272222 L357.768056,462.9625 L357.777778,462.9625 Z M388.888889,463.156944 L388.888889,245.204167 L528.976389,193.423611 L530.220833,413.991667 L388.888889,463.156944 Z" id="Shape"></path>
            </g>
        </g>
    </g>
</svg>