<?xml version="1.0" encoding="UTF-8"?>
<svg width="560px" height="560px" viewBox="0 0 560 560" version="1.1" xmlns="http://www.w3.org/2000/svg" xmlns:xlink="http://www.w3.org/1999/xlink">
    <!-- Generator: sketchtool 51.2 (57519) - http://www.bohemiancoding.com/sketch -->
    <title>uA231-inbox</title>
    <desc>Created with sketchtool.</desc>
    <defs></defs>
    <g id="Page-1" stroke="none" stroke-width="1" fill="none" fill-rule="evenodd">
        <g id="uA231-inbox" fill="#000000" fill-rule="nonzero">
            <g id="inbox" transform="translate(0.000000, 93.000000)">
                <path d="M551.074028,158.83875 L449.533194,19.2188889 C440.751381,7.14400671 426.722135,5.25624322e-06 411.791528,1.42108547e-14 L148.208472,1.42108547e-14 C133.278094,-0.000158889196 119.249072,7.14391218 110.467778,19.2188889 L8.92597222,158.83875 C3.12473172,166.814804 -0.000123856264,176.42388 0,186.286528 L0,326.666667 C0,352.440278 20.8930556,373.333333 46.6666667,373.333333 L513.333333,373.333333 C539.106944,373.333333 560,352.440278 560,326.666667 L560,186.286528 C560.000124,176.42388 556.875268,166.814804 551.074028,158.83875 Z M135.627917,37.5170833 C138.560277,33.4981314 143.233469,31.1185593 148.208472,31.1111111 L411.7925,31.1111111 C416.752778,31.1111111 421.455417,33.5056944 424.373056,37.5170833 L510.218333,155.555556 L377.439028,155.555556 L346.327917,217.777778 L213.672083,217.777778 L182.560972,155.555556 L49.7816667,155.555556 L135.627917,37.5170833 Z M528.888889,202.222222 L528.888889,326.666667 C528.888889,335.244583 521.910278,342.222222 513.333333,342.222222 L46.6666667,342.222222 C38.0897222,342.222222 31.1111111,335.244583 31.1111111,326.666667 L31.1111111,202.222222 C31.1111111,193.630694 38.0751389,186.666667 46.6666667,186.666667 L163.333333,186.666667 L194.444444,248.888889 L365.555556,248.888889 L396.666667,186.666667 L513.333333,186.666667 C521.924861,186.666667 528.888889,193.630694 528.888889,202.222222 Z" id="Shape"></path>
            </g>
        </g>
    </g>
</svg>