<?xml version="1.0" encoding="UTF-8"?>
<svg width="560px" height="560px" viewBox="0 0 560 560" version="1.1" xmlns="http://www.w3.org/2000/svg" xmlns:xlink="http://www.w3.org/1999/xlink">
    <!-- Generator: sketchtool 51.2 (57519) - http://www.bohemiancoding.com/sketch -->
    <title>uA235-lock-open</title>
    <desc>Created with sketchtool.</desc>
    <defs></defs>
    <g id="Page-1" stroke="none" stroke-width="1" fill="none" fill-rule="evenodd">
        <g id="uA235-lock-open" fill="#000000" fill-rule="nonzero">
            <g id="lock-open" transform="translate(56.000000, 24.000000)">
                <path d="M64,225 L352,225 L352,161 C352,90.4 294.6,33 224,33 C153.4,33 96,90.4 96,161 L64,161 C64,72.6 136,0.7 224.5,1 C312.9,1.3 384,74.1 384,162.5 L384,225 L400,225 C426.5,225 448,246.5 448,273 L448,465 C448,491.5 426.5,513 400,513 L48,513 C21.5,513 0,491.5 0,465 L0,273 C0,246.5 21.5,225 48,225 L64,225 Z M400,481 C408.8,481 416,473.8 416,465 L416,273 C416,264.2 408.8,257 400,257 L48,257 C39.2,257 32,264.2 32,273 L32,465 C32,473.8 39.2,481 48,481 L400,481 Z" id="Shape"></path>
            </g>
        </g>
    </g>
</svg>