<?xml version="1.0" encoding="UTF-8"?>
<svg width="560px" height="560px" viewBox="0 0 560 560" version="1.1" xmlns="http://www.w3.org/2000/svg" xmlns:xlink="http://www.w3.org/1999/xlink">
    <!-- Generator: sketchtool 51.2 (57519) - http://www.bohemiancoding.com/sketch -->
    <title>uA247-paste</title>
    <desc>Created with sketchtool.</desc>
    <defs></defs>
    <g id="Page-1" stroke="none" stroke-width="1" fill="none" fill-rule="evenodd">
        <g id="uA247-paste" fill="#000000" fill-rule="nonzero">
            <g id="paste" transform="translate(56.000000, 24.000000)">
                <path d="M433.941,193.941 L382.059,142.059 C373.057305,133.057239 360.848366,128.000067 348.118,128 L320,128 L320,80 C320,53.49 298.51,32 272,32 L205.248,32 C198.643,13.377 180.858,0 160,0 C139.142,0 121.357,13.377 114.752,32 L48,32 C21.49,32 0,53.49 0,80 L0,368 C0,394.51 21.49,416 48,416 L128,416 L128,464 C128,490.51 149.49,512 176,512 L400,512 C426.51,512 448,490.51 448,464 L448,227.882 C447.999933,215.151634 442.942761,202.942695 433.941,193.941 Z M411.314,216.568 C413.363963,218.616388 414.814634,221.186444 415.509,224 L352,224 L352,160.491 C354.81335,161.185153 357.383138,162.635867 359.431,164.686 L411.314,216.568 Z M160,30 C169.941,30 178,38.059 178,48 C178,57.941 169.941,66 160,66 C150.059,66 142,57.941 142,48 C142,38.059 150.059,30 160,30 Z M48,384 C39.178,384 32,376.822 32,368 L32,80 C32,71.178 39.178,64 48,64 L114.752,64 C121.357,82.623 139.141,96 160,96 C180.859,96 198.643,82.623 205.248,64 L272,64 C280.822,64 288,71.178 288,80 L288,128 L176,128 C149.49,128 128,149.49 128,176 L128,384 L48,384 Z M400,480 L176,480 C167.178,480 160,472.822 160,464 L160,176 C160,167.178 167.178,160 176,160 L320,160 L320,232 C320,245.2 330.8,256 344,256 L416,256 L416,464 C416,472.822 408.822,480 400,480 Z" id="Shape"></path>
            </g>
        </g>
    </g>
</svg>