<?xml version="1.0" encoding="UTF-8"?>
<svg width="560px" height="560px" viewBox="0 0 560 560" version="1.1" xmlns="http://www.w3.org/2000/svg" xmlns:xlink="http://www.w3.org/1999/xlink">
    <!-- Generator: sketchtool 51.2 (57519) - http://www.bohemiancoding.com/sketch -->
    <title>uA243-moon</title>
    <desc>Created with sketchtool.</desc>
    <defs></defs>
    <g id="Page-1" stroke="none" stroke-width="1" fill="none" fill-rule="evenodd">
        <g id="uA243-moon" fill="#000000" fill-rule="nonzero">
            <g id="moon" transform="translate(48.000000, 24.000000)">
                <path d="M424.964,365.617 C324.188,384.809 231.14,307.765 231.14,205.419 C231.14,146.526 262.701,92.587 313.714,63.557 C339.544,48.857 333.047,9.698 303.699,4.277 C288.27728,1.43409795 272.628567,0.00251122358 256.947,0 C115.613,0 0.947,114.546 0.947,256 C0.947,397.334 115.494,512 256.947,512 C335.878,512 408.026,476.076 455.797,417.217 C474.643,393.997 454.091,360.068 424.964,365.617 Z M256.947,480 C133.235,480 32.947,379.712 32.947,256 C32.947,132.288 133.235,32 256.947,32 C270.931,32 284.612,33.294 297.887,35.745 C238.915,69.305 199.14,132.714 199.14,205.419 C199.14,328.025 310.753,419.942 430.95,397.051 C389.881,447.653 327.196,480 256.947,480 Z" id="Shape"></path>
            </g>
        </g>
    </g>
</svg>