<?xml version="1.0" encoding="UTF-8"?>
<svg width="560px" height="560px" viewBox="0 0 560 560" version="1.1" xmlns="http://www.w3.org/2000/svg" xmlns:xlink="http://www.w3.org/1999/xlink">
    <!-- Generator: sketchtool 51.2 (57519) - http://www.bohemiancoding.com/sketch -->
    <title>uA241-map</title>
    <desc>Created with sketchtool.</desc>
    <defs></defs>
    <g id="Page-1" stroke="none" stroke-width="1" fill="none" fill-rule="evenodd">
        <g id="uA241-map" fill="#000000" fill-rule="nonzero">
            <g id="map" transform="translate(0.000000, 62.000000)">
                <path d="M544.463889,0 C542.558333,0 540.594444,0.359722222 538.669444,1.12777778 L373.343056,62.2222222 L373.333333,62.2222222 L206.111111,3.18888889 C199.76484,1.0794386 193.121003,0.0027694737 186.433333,1.38161088e-14 C179.929167,1.38161088e-14 173.434722,1.02083333 167.173611,3.05277778 L19.5611111,54.3958333 C7.74927007,59.1202328 0.00282894386,70.5589389 0,83.2805556 L0,419.980556 C0,428.915278 7.32083333,435.555556 15.5458333,435.555556 C17.4513889,435.555556 19.4055556,435.195833 21.3402778,434.427778 L186.666667,373.333333 L353.888889,432.356944 C366.517985,436.571344 380.166079,436.622461 392.826389,432.502778 L540.438889,381.159722 C552.252496,376.437515 559.999863,364.997442 560,352.275 L560,15.575 C560,6.64027778 552.679167,0 544.463889,0 Z M29.7791667,83.7861111 L171.111111,34.6208333 L171.111111,345.916667 L31.0236111,397.6875 L29.7791667,83.7861111 Z M202.222222,345.829167 L202.222222,34.8055556 L357.777778,89.7166667 L357.777778,400.740278 L202.222222,345.829167 Z M388.888889,400.934722 L388.888889,89.6388889 L528.976389,37.8583333 L530.220833,351.759722 L388.888889,400.934722 Z" id="Shape"></path>
            </g>
        </g>
    </g>
</svg>