<?xml version="1.0" encoding="UTF-8"?>
<svg width="560px" height="560px" viewBox="0 0 560 560" version="1.1" xmlns="http://www.w3.org/2000/svg" xmlns:xlink="http://www.w3.org/1999/xlink">
    <!-- Generator: sketchtool 51.2 (57519) - http://www.bohemiancoding.com/sketch -->
    <title>uA248-passport</title>
    <desc>Created with sketchtool.</desc>
    <defs></defs>
    <g id="Page-1" stroke="none" stroke-width="1" fill="none" fill-rule="evenodd">
        <g id="uA248-passport" fill="#000000" fill-rule="nonzero">
            <g id="passport" transform="translate(56.000000, 24.000000)">
                <path d="M416,0 L64,0 C28.65,0 0,28.65 0,64 L0,448 C0,483.35 28.65,512 64,512 L416,512 C433.67,512 448,497.67 448,480 L448,32 C448,14.33 433.67,0 416,0 Z M416,480 L64,480 C46.36,480 32,465.64 32,448 L32,64 C32,46.36 46.36,32 64,32 L416,32 L416,480 Z M112,416 L336,416 C344.8,416 352,408.8 352,400 C352,391.2 344.8,384 336,384 L112,384 C103.2,384 96,391.2 96,400 C96,408.8 103.2,416 112,416 Z M224,320 C294.69,320 352,262.69 352,192 C352,121.31 294.69,64 224,64 C153.31,64 96,121.31 96,192 C96,262.69 153.31,320 224,320 Z M318.38,176 L279.29,176 C277.8,148.97 272.75,124.65 265.08,105.59 C292.79,118.83 313.1,144.78 318.38,176 Z M279.29,208 L318.38,208 C313.09,239.22 292.79,265.17 265.08,278.41 C272.76,259.35 277.8,235.03 279.29,208 Z M224,97.31 C231.69,104.76 244.77,131.73 247.43,176 L200.56,176 C203.23,131.74 216.31,104.76 224,97.31 Z M247.43,208 C244.77,252.26 231.69,279.24 224,286.69 C216.31,279.24 203.23,252.27 200.57,208 L247.43,208 Z M182.92,105.59 C175.24,124.65 170.2,148.97 168.71,176 L129.62,176 C134.9,144.78 155.21,118.83 182.92,105.59 Z M168.71,208 C170.2,235.03 175.25,259.35 182.92,278.41 C155.21,265.17 134.9,239.22 129.62,208 L168.71,208 Z" id="Shape"></path>
            </g>
        </g>
    </g>
</svg>