<?xml version="1.0" encoding="UTF-8"?>
<svg width="560px" height="560px" viewBox="0 0 560 560" version="1.1" xmlns="http://www.w3.org/2000/svg" xmlns:xlink="http://www.w3.org/1999/xlink">
    <!-- Generator: sketchtool 51.2 (57519) - http://www.bohemiancoding.com/sketch -->
    <title>uA240-map-signs</title>
    <desc>Created with sketchtool.</desc>
    <defs></defs>
    <g id="Page-1" stroke="none" stroke-width="1" fill="none" fill-rule="evenodd">
        <g id="uA240-map-signs" fill="#000000" fill-rule="nonzero">
            <g id="map-signs" transform="translate(39.000000, 24.000000)">
                <path d="M257,160 L257,224 L441,224 C454.233,224 465,234.767 465,248 L465,328 C465,341.233 454.233,352 441,352 L257,352 L257,500 C257,506.627 251.627,512 245,512 L237,512 C230.373,512 225,506.627 225,500 L225,352 L68.313,352 C61.9445514,352.01768 55.8337641,349.486583 51.343,344.971 L5.686,299.314 C-0.563,293.066 -0.563,282.935 5.686,276.687 L51.343,231.03 C55.8337641,226.514417 61.9445514,223.98332 68.313,224.001 L225,224.001 L225,160.001 L41,160.001 C27.767,160.001 17,149.234 17,136.001 L17,56 C17,42.767 27.767,32 41,32 L225,32 L225,12 C225,5.373 230.373,0 237,0 L245,0 C251.627,0 257,5.373 257,12 L257,32 L413.687,32 C420.055449,31.9823198 426.166236,34.5134173 430.657,39.029 L476.314,84.686 C482.563,90.934 482.563,101.065 476.314,107.313 L430.657,152.97 C426.166236,157.485583 420.055449,160.01668 413.687,159.999 L257,159.999 L257,160 Z M442.373,96 L410.373,64 L49,64 L49,128 L410.373,128 L442.373,96 Z M433,256 L71.627,256 L39.627,288 L71.627,320 L433,320 L433,256 Z" id="Shape"></path>
            </g>
        </g>
    </g>
</svg>