<?xml version="1.0" encoding="UTF-8"?>
<svg width="560px" height="560px" viewBox="0 0 560 560" version="1.1" xmlns="http://www.w3.org/2000/svg" xmlns:xlink="http://www.w3.org/1999/xlink">
    <!-- Generator: sketchtool 51.2 (57519) - http://www.bohemiancoding.com/sketch -->
    <title>uA244-newspaper</title>
    <desc>Created with sketchtool.</desc>
    <defs></defs>
    <g id="Page-1" stroke="none" stroke-width="1" fill="none" fill-rule="evenodd">
        <g id="uA244-newspaper" fill="#000000" fill-rule="nonzero">
            <g id="newspaper" transform="translate(0.000000, 93.000000)">
                <path d="M536.666667,0 L85.5555556,0 C72.6891667,0 62.2222222,10.4679167 62.2222222,23.3333333 L62.2222222,31.1111111 L23.3333333,31.1111111 C10.4465278,31.1111111 0,41.5576389 0,54.4444444 L0,326.666667 C0,352.440278 20.8930556,373.333333 46.6666667,373.333333 L536.666667,373.333333 C549.532083,373.333333 560,362.865417 560,350 L560,23.3333333 C560,10.4679167 549.532083,0 536.666667,0 Z M31.1111111,326.666667 L31.1111111,62.2222222 L62.2222222,62.2222222 L62.2222222,326.666667 C62.2222222,335.243611 55.2436111,342.222222 46.6666667,342.222222 C38.0897222,342.222222 31.1111111,335.243611 31.1111111,326.666667 Z M528.888889,342.222222 L90.6675,342.222222 C92.4347205,337.226488 93.3362771,331.965763 93.3333333,326.666667 L93.3333333,31.1111111 L528.888889,31.1111111 L528.888889,342.222222 Z M136.111111,248.888889 L299.444444,248.888889 C305.887361,248.888889 311.111111,243.665139 311.111111,237.222222 L311.111111,73.8888889 C311.111111,67.4459722 305.887361,62.2222222 299.444444,62.2222222 L136.111111,62.2222222 C129.668194,62.2222222 124.444444,67.4459722 124.444444,73.8888889 L124.444444,237.222222 C124.444444,243.665139 129.668194,248.888889 136.111111,248.888889 Z M155.555556,93.3333333 L280,93.3333333 L280,217.777778 L155.555556,217.777778 L155.555556,93.3333333 Z M124.444444,299.444444 L124.444444,291.666667 C124.444444,285.22375 129.668194,280 136.111111,280 L299.444444,280 C305.887361,280 311.111111,285.22375 311.111111,291.666667 L311.111111,299.444444 C311.111111,305.887361 305.887361,311.111111 299.444444,311.111111 L136.111111,311.111111 C129.668194,311.111111 124.444444,305.887361 124.444444,299.444444 Z M342.222222,299.444444 L342.222222,291.666667 C342.222222,285.22375 347.445972,280 353.888889,280 L486.111111,280 C492.554028,280 497.777778,285.22375 497.777778,291.666667 L497.777778,299.444444 C497.777778,305.887361 492.554028,311.111111 486.111111,311.111111 L353.888889,311.111111 C347.445972,311.111111 342.222222,305.887361 342.222222,299.444444 Z M342.222222,237.222222 L342.222222,229.444444 C342.222222,223.001528 347.445972,217.777778 353.888889,217.777778 L486.111111,217.777778 C492.554028,217.777778 497.777778,223.001528 497.777778,229.444444 L497.777778,237.222222 C497.777778,243.665139 492.554028,248.888889 486.111111,248.888889 L353.888889,248.888889 C347.445972,248.888889 342.222222,243.665139 342.222222,237.222222 Z M342.222222,112.777778 L342.222222,105 C342.222222,98.5570833 347.445972,93.3333333 353.888889,93.3333333 L486.111111,93.3333333 C492.554028,93.3333333 497.777778,98.5570833 497.777778,105 L497.777778,112.777778 C497.777778,119.220694 492.554028,124.444444 486.111111,124.444444 L353.888889,124.444444 C347.445972,124.444444 342.222222,119.220694 342.222222,112.777778 Z M342.222222,175 L342.222222,167.222222 C342.222222,160.779306 347.445972,155.555556 353.888889,155.555556 L486.111111,155.555556 C492.554028,155.555556 497.777778,160.779306 497.777778,167.222222 L497.777778,175 C497.777778,181.442917 492.554028,186.666667 486.111111,186.666667 L353.888889,186.666667 C347.445972,186.666667 342.222222,181.442917 342.222222,175 Z" id="Shape"></path>
            </g>
        </g>
    </g>
</svg>