<?xml version="1.0" encoding="UTF-8"?>
<svg width="560px" height="560px" viewBox="0 0 560 560" version="1.1" xmlns="http://www.w3.org/2000/svg" xmlns:xlink="http://www.w3.org/1999/xlink">
    <!-- Generator: sketchtool 51.2 (57519) - http://www.bohemiancoding.com/sketch -->
    <title>uA259-share-all</title>
    <desc>Created with sketchtool.</desc>
    <defs></defs>
    <g id="Page-1" stroke="none" stroke-width="1" fill="none" fill-rule="evenodd">
        <g id="uA259-share-all" fill="#000000" fill-rule="nonzero">
            <g id="share-all" transform="translate(0.000000, 62.000000)">
                <path d="M457.558889,165.638472 L302.001389,10.1111111 C282.518056,-9.37222222 248.888889,4.31666667 248.888889,32.1125 L248.888889,102.783333 C136.597222,106.516667 0,130.170833 0,278.823611 C0,341.998611 32.6083333,393.798611 82.7458333,430.461111 C106.263889,447.669444 139.173611,425.677778 131.055556,396.909722 C104.125,301.447222 130.686111,278.240278 248.888889,274.001389 L248.888889,343.175 C248.888889,370.990278 282.5375,384.630556 302.001389,365.176389 L457.558889,209.640278 C469.702917,197.488472 469.702917,177.79125 457.558889,165.638472 Z M280,343.195417 L280,242.181528 C138.375417,243.470694 61.2704167,264.185833 101.111111,405.417639 C70.4763889,383.007917 31.1111111,342.11625 31.1111111,278.824583 C31.1111111,151.050278 153.450694,134.600278 280,133.292639 L280,32.0843056 L435.555556,187.639861 L280,343.195417 Z M550.888333,209.638333 L395.332778,365.1725 C382.2525,378.252778 362.771111,376.361806 351.397083,365.275556 L528.888889,187.639861 L351.398056,10.0080556 C362.768194,-1.07625 382.239861,-2.98277778 395.331806,10.1101389 L550.887361,165.640417 C563.037222,177.790278 563.037222,197.488472 550.888333,209.638333 Z" id="Shape"></path>
            </g>
        </g>
    </g>
</svg>