<?xml version="1.0" encoding="UTF-8"?>
<svg width="560px" height="560px" viewBox="0 0 560 560" version="1.1" xmlns="http://www.w3.org/2000/svg" xmlns:xlink="http://www.w3.org/1999/xlink">
    <!-- Generator: sketchtool 51.2 (57519) - http://www.bohemiancoding.com/sketch -->
    <title>uA255-repeat</title>
    <desc>Created with sketchtool.</desc>
    <defs></defs>
    <g id="Page-1" stroke="none" stroke-width="1" fill="none" fill-rule="evenodd">
        <g id="uA255-repeat" fill="#000000" fill-rule="nonzero">
            <g id="repeat" transform="translate(24.000000, 25.000000)">
                <path d="M512,255 C512,343.225 440.225,415 352,415 L110.628,415 L178.829,483.201 C183.515,487.887 183.515,495.485 178.829,500.172 L173.173,505.828 C168.487,510.514 160.889,510.514 156.202,505.828 L57.859,407.485 C53.173,402.799 53.173,395.201 57.859,390.514 L156.202,292.171 C160.888,287.485 168.486,287.485 173.173,292.171 L178.829,297.827 C183.515,302.513 183.515,310.111 178.829,314.798 L110.628,383 L352,383 C422.579,383 480,325.579 480,255 C480,226.445 470.597,200.048 454.729,178.732 C451.162,173.94 451.611,167.27 455.835,163.046 L461.54,157.341 C466.7,152.181 475.218,152.794 479.623,158.612 C499.935,185.438 512,218.835 512,255 Z M57.271,331.268 C41.403,309.952 32,283.555 32,255 C32,184.421 89.421,127 160,127 L401.372,127 L333.171,195.201 C328.485,199.887 328.485,207.485 333.171,212.172 L338.827,217.828 C343.513,222.514 351.111,222.514 355.798,217.828 L454.141,119.485 C458.827,114.799 458.827,107.201 454.141,102.514 L355.799,4.172 C351.113,-0.514 343.515,-0.514 338.828,4.172 L333.172,9.828 C328.486,14.514 328.486,22.112 333.172,26.799 L401.372,95 L160,95 C71.775,95 0,166.775 0,255 C0,291.165 12.065,324.562 32.376,351.387 C36.781,357.205 45.299,357.819 50.459,352.658 L56.164,346.953 C60.389,342.729 60.838,336.06 57.271,331.268 Z" id="Shape"></path>
            </g>
        </g>
    </g>
</svg>