<?xml version="1.0" encoding="UTF-8"?>
<svg width="560px" height="560px" viewBox="0 0 560 560" version="1.1" xmlns="http://www.w3.org/2000/svg" xmlns:xlink="http://www.w3.org/1999/xlink">
    <!-- Generator: sketchtool 51.2 (57519) - http://www.bohemiancoding.com/sketch -->
    <title>uA269-dashboard</title>
    <desc>Created with sketchtool.</desc>
    <defs></defs>
    <g id="Page-1" stroke="none" stroke-width="1" fill="none" fill-rule="evenodd">
        <g id="uA269-dashboard" fill="#000000" fill-rule="nonzero">
            <g id="dashboard" transform="translate(0.000000, 62.000000)">
                <path d="M303.333333,62.2222222 C303.333333,75.1090278 292.886806,85.5555556 280,85.5555556 C267.113194,85.5555556 256.666667,75.1090278 256.666667,62.2222222 C256.666667,49.3354167 267.113194,38.8888889 280,38.8888889 C292.886806,38.8888889 303.333333,49.3354167 303.333333,62.2222222 Z M521.111111,280 C521.111111,267.113194 510.664583,256.666667 497.777778,256.666667 C484.890972,256.666667 474.444444,267.113194 474.444444,280 C474.444444,292.886806 484.890972,303.333333 497.777778,303.333333 C510.664583,303.333333 521.111111,292.886806 521.111111,280 Z M85.5555556,280 C85.5555556,267.113194 75.1090278,256.666667 62.2222222,256.666667 C49.3354167,256.666667 38.8888889,267.113194 38.8888889,280 C38.8888889,292.886806 49.3354167,303.333333 62.2222222,303.333333 C75.1090278,303.333333 85.5555556,292.886806 85.5555556,280 Z M126.007778,102.674444 C113.120972,102.674444 102.674444,113.120972 102.674444,126.007778 C102.674444,138.894583 113.120972,149.341111 126.007778,149.341111 C138.894583,149.341111 149.341111,138.894583 149.341111,126.007778 C149.341111,113.120972 138.894583,102.674444 126.007778,102.674444 Z M433.992222,102.674444 C421.105417,102.674444 410.658889,113.120972 410.658889,126.007778 C410.658889,138.894583 421.105417,149.341111 433.992222,149.341111 C446.879028,149.341111 457.325556,138.894583 457.325556,126.007778 C457.325556,113.120972 446.879028,102.674444 433.992222,102.674444 Z M364.636806,121.936111 L315.042778,259.696111 C331.449028,270.9 342.222222,289.745556 342.222222,311.111111 C342.222222,345.475278 314.364167,373.333333 280,373.333333 C245.635833,373.333333 217.777778,345.475278 217.777778,311.111111 C217.777778,274.67125 249.029861,245.7875 285.767222,249.165 L335.363194,111.397222 C338.272083,103.316111 347.180556,99.1229167 355.269444,102.029861 C363.351528,104.939722 367.545694,113.852083 364.636806,121.936111 Z M311.111111,311.111111 C311.111111,293.95625 297.154861,280 280,280 C262.845139,280 248.888889,293.95625 248.888889,311.111111 C248.888889,328.265972 262.845139,342.222222 280,342.222222 C297.154861,342.222222 311.111111,328.265972 311.111111,311.111111 Z M560,280 C560,327.207222 548.310972,371.680556 527.6775,410.694861 C519.590391,425.987963 503.709303,435.555077 486.409583,435.555556 L73.5904167,435.555556 C56.290469,435.555003 40.4091272,425.987962 32.3215278,410.694861 C11.6890278,371.680556 0,327.207222 0,280 C0,125.360278 125.360278,0 280,0 C434.639722,0 560,125.360278 560,280 Z M528.888889,280 C528.888889,142.403333 417.397361,31.1111111 280,31.1111111 C142.404306,31.1111111 31.1111111,142.602639 31.1111111,280 C31.1111111,321.975694 41.4944444,361.490694 59.82375,396.150417 C62.5155438,401.257846 67.8170698,404.451866 73.5904167,404.444444 L486.408611,404.444444 C492.181958,404.451866 497.483484,401.257846 500.175278,396.150417 C519.67125,359.287639 528.888889,319.47125 528.888889,280 Z" id="Shape"></path>
            </g>
        </g>
    </g>
</svg>