<?xml version="1.0" encoding="UTF-8"?>
<svg width="560px" height="560px" viewBox="0 0 560 560" version="1.1" xmlns="http://www.w3.org/2000/svg" xmlns:xlink="http://www.w3.org/1999/xlink">
    <!-- Generator: sketchtool 51.2 (57519) - http://www.bohemiancoding.com/sketch -->
    <title>uA265-sliders-h-square</title>
    <desc>Created with sketchtool.</desc>
    <defs></defs>
    <g id="Page-1" stroke="none" stroke-width="1" fill="none" fill-rule="evenodd">
        <g id="uA265-sliders-h-square" fill="#000000" fill-rule="nonzero">
            <g id="sliders-h-square" transform="translate(56.000000, 56.000000)">
                <path d="M400,0 L48,0 C21.5,0 0,21.5 0,48 L0,400 C0,426.5 21.5,448 48,448 L400,448 C426.5,448 448,426.5 448,400 L448,48 C448,21.5 426.5,0 400,0 Z M416,400 C416,408.8 408.8,416 400,416 L48,416 C39.2,416 32,408.8 32,400 L32,48 C32,39.2 39.2,32 48,32 L400,32 C408.8,32 416,39.2 416,48 L416,400 Z M324,128 L224,128 L224,88 C224,74.8 213.2,64 200,64 L152,64 C138.8,64 128,74.8 128,88 L128,128 L92,128 C85.4,128 80,133.4 80,140 L80,148 C80,154.6 85.4,160 92,160 L128,160 L128,200 C128,213.2 138.8,224 152,224 L200,224 C213.2,224 224,213.2 224,200 L224,160 L324,160 C330.6,160 336,154.6 336,148 L336,140 C336,133.4 330.6,128 324,128 Z M192,192 L160,192 L160,96 L192,96 L192,192 Z M340,288 L320,288 L320,248 C320,234.8 309.2,224 296,224 L248,224 C234.8,224 224,234.8 224,248 L224,288 L108,288 C101.4,288 96,293.4 96,300 L96,308 C96,314.6 101.4,320 108,320 L224,320 L224,360 C224,373.2 234.8,384 248,384 L296,384 C309.2,384 320,373.2 320,360 L320,320 L340,320 C346.6,320 352,314.6 352,308 L352,300 C352,293.4 346.6,288 340,288 Z M288,352 L256,352 L256,256 L288,256 L288,352 Z" id="Shape"></path>
            </g>
        </g>
    </g>
</svg>