<?xml version="1.0" encoding="UTF-8"?>
<svg width="560px" height="560px" viewBox="0 0 560 560" version="1.1" xmlns="http://www.w3.org/2000/svg" xmlns:xlink="http://www.w3.org/1999/xlink">
    <!-- Generator: sketchtool 51.2 (57519) - http://www.bohemiancoding.com/sketch -->
    <title>uA266-sliders-h</title>
    <desc>Created with sketchtool.</desc>
    <defs></defs>
    <g id="Page-1" stroke="none" stroke-width="1" fill="none" fill-rule="evenodd">
        <g id="uA266-sliders-h" fill="#000000" fill-rule="nonzero">
            <g id="sliders-h" transform="translate(24.000000, 56.000000)">
                <path d="M504,352 L192,352 L192,312 C192,298.7 181.3,288 168,288 L120,288 C106.7,288 96,298.7 96,312 L96,352 L8,352 C3.6,352 0,355.6 0,360 L0,376 C0,380.4 3.6,384 8,384 L96,384 L96,424 C96,437.3 106.7,448 120,448 L168,448 C181.3,448 192,437.3 192,424 L192,384 L504,384 C508.4,384 512,380.4 512,376 L512,360 C512,355.6 508.4,352 504,352 Z M160,416 L128,416 L128,320 L160,320 L160,416 Z M504,64 L256,64 L256,24 C256,10.7 245.3,0 232,0 L184,0 C170.7,0 160,10.7 160,24 L160,64 L8,64 C3.6,64 0,67.6 0,72 L0,88 C0,92.4 3.6,96 8,96 L160,96 L160,136 C160,149.3 170.7,160 184,160 L232,160 C245.3,160 256,149.3 256,136 L256,96 L504,96 C508.4,96 512,92.4 512,88 L512,72 C512,67.6 508.4,64 504,64 Z M224,128 L192,128 L192,32 L224,32 L224,128 Z M504,208 L416,208 L416,168 C416,154.7 405.3,144 392,144 L344,144 C330.7,144 320,154.7 320,168 L320,208 L8,208 C3.6,208 0,211.6 0,216 L0,232 C0,236.4 3.6,240 8,240 L320,240 L320,280 C320,293.3 330.7,304 344,304 L392,304 C405.3,304 416,293.3 416,280 L416,240 L504,240 C508.4,240 512,236.4 512,232 L512,216 C512,211.6 508.4,208 504,208 Z M384,272 L352,272 L352,176 L384,176 L384,272 Z" id="Shape"></path>
            </g>
        </g>
    </g>
</svg>