<?xml version="1.0" encoding="UTF-8"?>
<svg width="560px" height="560px" viewBox="0 0 560 560" version="1.1" xmlns="http://www.w3.org/2000/svg" xmlns:xlink="http://www.w3.org/1999/xlink">
    <!-- Generator: sketchtool 51.2 (57519) - http://www.bohemiancoding.com/sketch -->
    <title>uA260-share</title>
    <desc>Created with sketchtool.</desc>
    <defs></defs>
    <g id="Page-1" stroke="none" stroke-width="1" fill="none" fill-rule="evenodd">
        <g id="uA260-share" fill="#000000" fill-rule="nonzero">
            <g id="share" transform="translate(0.000000, 31.000000)">
                <path d="M549.215139,190.895833 L378.106944,12.0225 C354.098889,-13.0763889 311.111111,3.64194444 311.111111,38.9044444 L311.111111,124.609722 C150.255,126.539583 0,155.655694 0,321.990278 C0,414.331944 54.2888889,468.048194 86.6541667,491.712083 C110.214028,508.941806 143.063472,486.85875 134.954167,458.160694 C98.1331944,327.529028 160.975694,313.028333 311.111111,311.266667 L311.111111,396.666667 C311.111111,431.899028 354.073611,448.674722 378.106944,423.548611 L549.216111,244.659722 C563.595278,229.619444 563.595278,205.936111 549.215139,190.895833 Z M526.730556,223.154167 L355.619444,402.043056 C350.823472,407.059722 342.222222,403.725 342.222222,396.666667 L342.222222,280 C175.587222,280 55.1123611,289.437361 105.019444,466.375 C70,440.766667 31.1111111,394.323611 31.1111111,321.990278 C31.1111111,166.425 189.4725,155.555556 342.222222,155.555556 L342.222222,38.8888889 C342.222222,31.8286111 350.827361,28.4958333 355.619444,33.5125 L526.730556,212.401389 C529.618131,215.404071 529.618131,220.151484 526.730556,223.154167 Z" id="Shape"></path>
            </g>
        </g>
    </g>
</svg>