<?xml version="1.0" encoding="UTF-8"?>
<svg width="560px" height="560px" viewBox="0 0 560 560" version="1.1" xmlns="http://www.w3.org/2000/svg" xmlns:xlink="http://www.w3.org/1999/xlink">
    <!-- Generator: sketchtool 51.2 (57519) - http://www.bohemiancoding.com/sketch -->
    <title>uA263-sign-out</title>
    <desc>Created with sketchtool.</desc>
    <defs></defs>
    <g id="Page-1" stroke="none" stroke-width="1" fill="none" fill-rule="evenodd">
        <g id="uA263-sign-out" fill="#000000" fill-rule="nonzero">
            <g id="sign-out" transform="translate(24.000000, 88.000000)">
                <path d="M48,0 L180,0 C186.6,0 192,5.4 192,12 L192,20 C192,26.6 186.6,32 180,32 L48,32 C39.2,32 32,39.2 32,48 L32,336 C32,344.8 39.2,352 48,352 L180,352 C186.6,352 192,357.4 192,364 L192,372 C192,378.6 186.6,384 180,384 L48,384 C21.5,384 0,362.5 0,336 L0,48 C0,21.5 21.5,0 48,0 Z M327,19.5 L319.9,26.6 C315.2,31.3 315.2,38.9 319.9,43.6 L451.9,175 L172,175 C165.4,175 160,180.4 160,187 L160,197 C160,203.6 165.4,209 172,209 L451.9,209 L320,340.4 C315.3,345.1 315.3,352.7 320,357.4 L327.1,364.5 C331.8,369.2 339.4,369.2 344.1,364.5 L508.6,200.5 C513.3,195.8 513.3,188.2 508.6,183.5 L344,19.5 C339.3,14.8 331.7,14.8 327,19.5 Z" id="Shape"></path>
            </g>
        </g>
    </g>
</svg>