<?xml version="1.0" encoding="UTF-8"?>
<svg width="560px" height="560px" viewBox="0 0 560 560" version="1.1" xmlns="http://www.w3.org/2000/svg" xmlns:xlink="http://www.w3.org/1999/xlink">
    <!-- Generator: sketchtool 51.2 (57519) - http://www.bohemiancoding.com/sketch -->
    <title>uA264-flow-alt</title>
    <desc>Created with sketchtool.</desc>
    <defs></defs>
    <g id="Page-1" stroke="none" stroke-width="1" fill="none" fill-rule="evenodd">
        <g id="uA264-flow-alt" fill="#000000" fill-rule="nonzero">
            <g id="flow-alt" transform="translate(0.000000, 56.000000)">
                <path d="M532,308 L504,308 L504,222.60875 C504,207.935 492.0825,196 477.39125,196 L294,196 L294,140 L336,140 C351.46125,140 364,127.46125 364,112 L364,28 C364,12.53875 351.46125,0 336,0 L224,0 C208.53875,0 196,12.53875 196,28 L196,112 C196,127.46125 208.53875,140 224,140 L266,140 L266,196 L82.60875,196 C67.9175,196 56,207.935 56,222.60875 L56,308 L28,308 C12.53875,308 0,320.53875 0,336 L0,420 C0,435.46125 12.53875,448 28,448 L112,448 C127.46125,448 140,435.46125 140,420 L140,336 C140,320.53875 127.46125,308 112,308 L84,308 L84,224 L266,224 L266,308 L238,308 C222.53875,308 210,320.53875 210,336 L210,420 C210,435.46125 222.53875,448 238,448 L322,448 C337.46125,448 350,435.46125 350,420 L350,336 C350,320.53875 337.46125,308 322,308 L294,308 L294,224 L476,224 L476,308 L448,308 C432.53875,308 420,320.53875 420,336 L420,420 C420,435.46125 432.53875,448 448,448 L532,448 C547.46125,448 560,435.46125 560,420 L560,336 C560,320.53875 547.46125,308 532,308 Z M112,336 L112,420 L28,420 L28,336 L112,336 Z M322,336 L322,420 L238,420 L238,336 L322,336 Z M224,112 L224,28 L336,28 L336,112 L224,112 Z M532,420 L448,420 L448,336 L532,336 L532,420 Z" id="Shape"></path>
            </g>
        </g>
    </g>
</svg>