<?xml version="1.0" encoding="UTF-8"?>
<svg width="560px" height="560px" viewBox="0 0 560 560" version="1.1" xmlns="http://www.w3.org/2000/svg" xmlns:xlink="http://www.w3.org/1999/xlink">
    <!-- Generator: sketchtool 51.2 (57519) - http://www.bohemiancoding.com/sketch -->
    <title>uA274-sun</title>
    <desc>Created with sketchtool.</desc>
    <defs></defs>
    <g id="Page-1" stroke="none" stroke-width="1" fill="none" fill-rule="evenodd">
        <g id="uA274-sun" fill="#000000" fill-rule="nonzero">
            <g id="sun" transform="translate(34.000000, 24.000000)">
                <path d="M479.332,299.468 L437.173,263.786 C432.361,259.714 432.351,252.294 437.172,248.214 L479.333,212.532 C502.009,193.34 489.958,156.217 460.319,154.016 L405.238,149.93 C398.951,149.463 394.583,143.466 396.085,137.332 L409.221,83.683 C416.274,54.875 384.769,31.846 359.445,47.519 L312.48,76.59 C307.123,79.908 300.061,77.622 297.671,71.778 L276.763,20.627 C265.518,-6.876 226.483,-6.876 215.238,20.626 L194.329,71.779 C191.946,77.608 184.893,79.916 179.52,76.59 L132.556,47.52 C107.293,31.887 75.712,54.817 82.78,83.684 L95.916,137.333 C97.415,143.456 93.06,149.463 86.763,149.931 L31.681,154.017 C2.054,156.217 -10.017,193.334 12.669,212.533 L54.828,248.215 C59.64,252.286 59.65,259.707 54.829,263.787 L12.668,299.469 C-10.008,318.661 2.043,355.784 31.682,357.985 L86.763,362.071 C93.05,362.538 97.418,368.535 95.916,374.669 L82.78,428.318 C75.727,457.126 107.232,480.155 132.556,464.482 L179.521,435.411 C184.879,432.095 191.94,434.378 194.33,440.223 L215.238,491.374 C226.483,518.877 265.518,518.877 276.763,491.375 L297.672,440.222 C300.056,434.39 307.109,432.087 312.481,435.411 L359.445,464.481 C384.709,480.114 416.289,457.183 409.221,428.317 L396.085,374.668 C394.586,368.545 398.941,362.538 405.238,362.07 L460.32,357.984 C489.947,355.783 502.018,318.667 479.332,299.468 Z M458.248,330.06 L403.166,334.146 C379.597,335.895 363.277,358.407 368.888,381.326 L382.024,434.975 C383.145,439.553 378.184,443.148 374.181,440.672 L327.218,411.603 C307.122,399.164 280.687,407.781 271.755,429.623 L250.847,480.747 C249.066,485.101 242.937,485.108 241.154,480.746 L220.246,429.624 C211.332,407.825 184.916,399.141 164.784,411.603 L117.82,440.673 C113.82,443.149 108.856,439.552 109.977,434.976 L123.113,381.327 C128.733,358.371 112.364,335.893 88.835,334.147 L33.753,330.061 C29.062,329.714 27.16,323.887 30.757,320.842 L72.917,285.16 C90.959,269.89 90.928,242.086 72.917,226.842 L30.758,191.16 C27.166,188.121 29.053,182.289 33.753,181.941 L88.835,177.855 C112.404,176.106 128.724,153.594 123.113,130.675 L109.977,77.026 C108.858,72.457 113.813,68.849 117.82,71.329 L164.783,100.398 C184.879,112.837 211.314,104.22 220.246,82.378 L241.154,31.254 C242.935,26.901 249.063,26.893 250.847,31.254 L271.755,82.377 C280.7,104.252 307.153,112.816 327.217,100.398 L374.181,71.328 C378.179,68.85 383.145,72.449 382.024,77.025 L368.888,130.674 C363.268,153.63 379.637,176.108 403.166,177.854 L458.248,181.94 C462.939,182.287 464.841,188.114 461.244,191.159 L419.084,226.841 C401.042,242.111 401.073,269.915 419.084,285.159 L461.243,320.841 C464.835,323.88 462.948,329.712 458.248,330.06 Z M246,128 C175.421,128 118,185.421 118,256 C118,326.579 175.421,384 246,384 C316.579,384 374,326.579 374,256 C374,185.421 316.579,128 246,128 Z M246,352 C193.065,352 150,308.935 150,256 C150,203.065 193.065,160 246,160 C298.935,160 342,203.065 342,256 C342,308.935 298.935,352 246,352 Z" id="Shape"></path>
            </g>
        </g>
    </g>
</svg>