<?xml version="1.0" encoding="UTF-8"?>
<svg width="560px" height="560px" viewBox="0 0 560 560" version="1.1" xmlns="http://www.w3.org/2000/svg" xmlns:xlink="http://www.w3.org/1999/xlink">
    <!-- Generator: sketchtool 51.2 (57519) - http://www.bohemiancoding.com/sketch -->
    <title>uA277-tag</title>
    <desc>Created with sketchtool.</desc>
    <defs></defs>
    <g id="Page-1" stroke="none" stroke-width="1" fill="none" fill-rule="evenodd">
        <g id="uA277-tag" fill="#000000" fill-rule="nonzero">
            <g id="tag" transform="translate(24.000000, 48.000000)">
                <path d="M497.941,225.941 L286.059,14.059 C277.057305,5.05723856 264.848366,6.65676412e-05 252.118,-5.32907052e-15 L48,-5.32907052e-15 C21.49,0 0,21.49 0,48 L0,252.118 C6.65676412e-05,264.848366 5.05723856,277.057305 14.059,286.059 L225.941,497.941 C244.686,516.686 275.078,516.687 293.823,497.941 L497.941,293.823 C516.686,275.078 516.686,244.686 497.941,225.941 Z M475.314,271.196 L271.196,475.314 C264.953,481.557 254.821,481.567 248.569,475.314 L36.686,263.431 C33.6756044,260.436889 31.9882209,256.362827 32,252.117 L32,48 C32,39.178 39.178,32 48,32 L252.118,32 C256.392,32 260.41,33.664 263.432,36.686 L475.314,248.568 C481.552,254.807 481.552,264.958 475.314,271.196 Z M144,124 C155.028,124 164,132.972 164,144 C164,155.028 155.028,164 144,164 C132.972,164 124,155.028 124,144 C124,132.972 132.972,124 144,124 Z M144,96 C117.49,96 96,117.49 96,144 C96,170.51 117.49,192 144,192 C170.51,192 192,170.51 192,144 C192,117.49 170.51,96 144,96 Z" id="Shape"></path>
            </g>
        </g>
    </g>
</svg>