<?xml version="1.0" encoding="UTF-8"?>
<svg width="560px" height="560px" viewBox="0 0 560 560" version="1.1" xmlns="http://www.w3.org/2000/svg" xmlns:xlink="http://www.w3.org/1999/xlink">
    <!-- Generator: sketchtool 51.2 (57519) - http://www.bohemiancoding.com/sketch -->
    <title>uA279-tasks</title>
    <desc>Created with sketchtool.</desc>
    <defs></defs>
    <g id="Page-1" stroke="none" stroke-width="1" fill="none" fill-rule="evenodd">
        <g id="uA279-tasks" fill="#000000" fill-rule="nonzero">
            <g id="tasks" transform="translate(24.000000, 71.000000)">
                <path d="M507,83 L199,83 C195.7,83 193,80.3 193,77 L193,53 C193,49.7 195.7,47 199,47 L507,47 C510.3,47 513,49.7 513,53 L513,77 C513,80.3 510.3,83 507,83 Z M513,237 L513,213 C513,209.7 510.3,207 507,207 L199,207 C195.7,207 193,209.7 193,213 L193,237 C193,240.3 195.7,243 199,243 L507,243 C510.3,243 513,240.3 513,237 Z M513,397 L513,373 C513,369.7 510.3,367 507,367 L199,367 C195.7,367 193,369.7 193,373 L193,397 C193,400.3 195.7,403 199,403 L507,403 C510.3,403 513,400.3 513,397 Z M69.4,345 C49.5,345 33.4,361.1 33.4,381 C33.4,400.9 49.5,417 69.4,417 C89.3,417 105,400.9 105,381 C105,361.1 89.3,345 69.4,345 Z M171.9,11.9 L164.5,4.5 C159.8,-0.2 152.2,-0.2 147.5,4.5 L68.7,83.7 L30.3,45.3 C25.6,40.6 18,40.6 13.3,45.3 L4.4,54.2 C-0.3,58.9 -0.3,66.5 4.4,71.2 L58.7,125.5 C63.4,130.2 71,130.2 75.7,125.5 L75.9,125.3 L171.8,29 C176.6,24.2 176.6,16.6 171.9,11.9 Z M172.3,171.9 L164.9,164.5 C160.2,159.8 152.6,159.8 147.9,164.5 L69.1,243.7 L30.7,205.3 C26,200.6 18.4,200.6 13.7,205.3 L5,214.2 C0.3,218.9 0.3,226.5 5,231.2 L59.3,285.5 C64,290.2 71.6,290.2 76.3,285.5 L76.1,285.3 L172.4,189 C177,184.2 177,176.6 172.3,171.9 Z" id="Shape"></path>
            </g>
        </g>
    </g>
</svg>