<?xml version="1.0" encoding="UTF-8"?>
<svg width="560px" height="560px" viewBox="0 0 560 560" version="1.1" xmlns="http://www.w3.org/2000/svg" xmlns:xlink="http://www.w3.org/1999/xlink">
    <!-- Generator: sketchtool 51.2 (57519) - http://www.bohemiancoding.com/sketch -->
    <title>uA278-tags</title>
    <desc>Created with sketchtool.</desc>
    <defs></defs>
    <g id="Page-1" stroke="none" stroke-width="1" fill="none" fill-rule="evenodd">
        <g id="uA278-tags" fill="#000000" fill-rule="nonzero">
            <g id="tags" transform="translate(0.000000, 56.000000)">
                <path d="M547.698375,257.095125 L369.095125,435.698375 C352.692375,452.101125 326.099375,452.10025 309.698375,435.698375 L308.14525,434.14525 L327.943875,414.346625 L329.497,415.89975 C334.968375,421.371125 343.833,421.362375 349.295625,415.89975 L527.898875,237.2965 C533.357125,231.837375 533.357125,222.956125 527.898875,217.497875 L342.502125,32.10025 C339.882278,29.4661538 336.317473,27.9896933 332.602375,28 L315.497,28 L287.497,0 L332.602375,0 C343.741445,5.8246686e-05 354.424267,4.42508374 362.30075,12.301625 L547.6975,197.698375 C564.10025,214.10025 564.10025,240.69325 547.698375,257.095125 Z M220.60325,28 L42,28 C34.28075,28 28,34.28075 28,42 L28,220.60325 C28,224.343 29.456,227.85875 32.10025,230.503 L217.497,415.89975 C222.968375,421.371125 231.833,421.362375 237.295625,415.89975 L415.898875,237.2965 C421.357125,231.837375 421.357125,222.956125 415.898875,217.497875 L230.502125,32.10025 C227.882491,29.4663698 224.318045,27.9899272 220.60325,28 Z M220.60325,0 C231.74232,5.8246686e-05 242.425142,4.42508374 250.301625,12.301625 L435.698375,197.698375 C452.10025,214.10025 452.10025,240.69325 435.698375,257.095125 L257.095125,435.698375 C240.692375,452.101125 214.099375,452.10025 197.698375,435.698375 L12.301625,250.301625 C4.42508374,242.425142 5.8246686e-05,231.74232 -5.32907052e-15,220.60325 L-5.32907052e-15,42 C-6.66133815e-16,18.80375 18.80375,0 42,0 L220.60325,0 Z M126,108.5 C116.3505,108.5 108.5,116.3505 108.5,126 C108.5,135.6495 116.3505,143.5 126,143.5 C135.6495,143.5 143.5,135.6495 143.5,126 C143.5,116.3505 135.6495,108.5 126,108.5 Z M126,84 C149.19625,84 168,102.80375 168,126 C168,149.19625 149.19625,168 126,168 C102.80375,168 84,149.19625 84,126 C84,102.80375 102.80375,84 126,84 Z" id="Shape"></path>
            </g>
        </g>
    </g>
</svg>