<?xml version="1.0" encoding="UTF-8"?>
<svg width="560px" height="560px" viewBox="0 0 560 560" version="1.1" xmlns="http://www.w3.org/2000/svg" xmlns:xlink="http://www.w3.org/1999/xlink">
    <!-- Generator: sketchtool 51.2 (57519) - http://www.bohemiancoding.com/sketch -->
    <title>uA286-thumbs-up</title>
    <desc>Created with sketchtool.</desc>
    <defs></defs>
    <g id="Page-1" stroke="none" stroke-width="1" fill="none" fill-rule="evenodd">
        <g id="uA286-thumbs-up" fill="#000000" fill-rule="nonzero">
            <g id="thumbs-up" transform="translate(24.000000, 24.000000)">
                <path d="M496.656,285.683 C506.583,272.809 512,256 512,235.468 C511.999,197.794 479.927,162.897 439.273,162.897 L369.123,162.897 C377.843,145.529 389.818,123.986 389.818,93.08 C389.819,34.672 366.518,0 306.91,0 C276.915,0 265.784,37.918 260.081,67.228 C256.674,84.739 253.455,101.28 243.556,111.179 C219.986,134.75 184,192 162.382,203.625 C160.193,204.547 157.396,205.273 154.35,205.848 C148.577,197.484 138.931,192 128,192 L32,192 C14.327,192 0,206.327 0,224 L0,480 C0,497.673 14.327,512 32,512 L128,512 C145.673,512 160,497.673 160,480 L160,471.26 C192.495,471.26 260.687,512.007 337.455,511.986 C342.96,511.989 375.105,512.016 378.468,511.986 C437.75,512 470.723,476.099 468.803,422.193 C483.93,404.466 491.342,378.856 487.028,355.088 C499.484,335.562 502.154,308.018 496.656,285.683 Z M32,480 L32,224 L128,224 L128,480 L32,480 Z M456.017,276.352 C472,288 472,336 450.41,347.017 C463.932,369.777 451.762,400.233 435.395,409.013 C443.688,461.553 416.434,479.619 378.183,479.987 C374.871,480.017 340.936,479.987 337.456,479.987 C264.527,479.987 202.714,439.26 160.001,439.26 L160.001,235.625 C197.709,235.625 232.306,167.686 266.184,133.807 C296.729,103.262 286.547,52.353 306.911,31.99 C357.82,31.99 357.82,67.507 357.82,93.081 C357.82,135.27 327.275,154.171 327.275,194.898 L439.274,194.898 C462.004,194.898 479.901,215.262 480.001,235.625 C480.1,255.988 472,272 456.017,276.352 Z M104,432 C104,445.255 93.255,456 80,456 C66.745,456 56,445.255 56,432 C56,418.745 66.745,408 80,408 C93.255,408 104,418.745 104,432 Z" id="Shape"></path>
            </g>
        </g>
    </g>
</svg>