<?xml version="1.0" encoding="UTF-8"?>
<svg width="560px" height="560px" viewBox="0 0 560 560" version="1.1" xmlns="http://www.w3.org/2000/svg" xmlns:xlink="http://www.w3.org/1999/xlink">
    <!-- Generator: sketchtool 51.2 (57519) - http://www.bohemiancoding.com/sketch -->
    <title>uA287-thumbtack</title>
    <desc>Created with sketchtool.</desc>
    <defs></defs>
    <g id="Page-1" stroke="none" stroke-width="1" fill="none" fill-rule="evenodd">
        <g id="uA287-thumbtack" fill="#000000" fill-rule="nonzero">
            <g id="thumbtack" transform="translate(88.000000, 24.000000)">
                <path d="M300.79,203.91 L290.67,128 L328,128 C341.25,128 352,117.25 352,104 L352,24 C352,10.75 341.25,0 328,0 L56,0 C42.75,0 32,10.75 32,24 L32,104 C32,117.25 42.75,128 56,128 L93.33,128 L83.21,203.91 C34.938,231.494 0,278.443 0,335.24 C0,344.08 7.16,351.24 16,351.24 L176,351.24 L176,472.019 C176,472.673 176.08,473.325 176.239,473.959 L184.239,505.959 C186.248,513.996 197.743,514.031 199.761,505.959 L207.761,473.959 C207.919834,473.324565 208.000102,472.673015 208,472.019 L208,351.24 L368,351.24 C376.84,351.24 384,344.08 384,335.24 C384,278.443 349.062,231.494 300.79,203.91 Z M33.26,319.24 C40.053,276.351 72.895,242.845 112.72,224.76 L128,96 L64,96 L64,32 L320,32 L320,96 L256,96 L271.28,224.76 C311.291,242.93 343.974,276.521 350.74,319.24 L33.26,319.24 Z" id="Shape"></path>
            </g>
        </g>
    </g>
</svg>