<?xml version="1.0" encoding="UTF-8"?>
<svg width="560px" height="560px" viewBox="0 0 560 560" version="1.1" xmlns="http://www.w3.org/2000/svg" xmlns:xlink="http://www.w3.org/1999/xlink">
    <!-- Generator: sketchtool 51.2 (57519) - http://www.bohemiancoding.com/sketch -->
    <title>uA281-th</title>
    <desc>Created with sketchtool.</desc>
    <defs></defs>
    <g id="Page-1" stroke="none" stroke-width="1" fill="none" fill-rule="evenodd">
        <g id="uA281-th" fill="#000000" fill-rule="nonzero">
            <g id="th" transform="translate(24.000000, 56.000000)">
                <path d="M0,48 L0,400 C0,426.51 21.49,448 48,448 L464,448 C490.51,448 512,426.51 512,400 L512,48 C512,21.49 490.51,0 464,0 L48,0 C21.49,0 0,21.49 0,48 Z M320,32 L320,138.667 L192,138.667 L192,32 L320,32 Z M480,277.333 L352,277.333 L352,170.667 L480,170.667 L480,277.333 Z M320,277.333 L192,277.333 L192,170.667 L320,170.667 L320,277.333 Z M32,170.667 L160,170.667 L160,277.334 L32,277.334 L32,170.667 Z M160,32 L160,138.667 L32,138.667 L32,48 C32,39.163 39.163,32 48,32 L160,32 Z M32,400 L32,309.333 L160,309.333 L160,416 L48,416 C39.163,416 32,408.837 32,400 Z M192,416 L192,309.333 L320,309.333 L320,416 L192,416 Z M352,416 L352,309.333 L480,309.333 L480,400 C480,408.837 472.837,416 464,416 L352,416 Z M480,138.667 L352,138.667 L352,32 L464,32 C472.837,32 480,39.163 480,48 L480,138.667 Z" id="Shape"></path>
            </g>
        </g>
    </g>
</svg>