<?xml version="1.0" encoding="UTF-8"?>
<svg width="560px" height="560px" viewBox="0 0 560 560" version="1.1" xmlns="http://www.w3.org/2000/svg" xmlns:xlink="http://www.w3.org/1999/xlink">
    <!-- Generator: sketchtool 51.2 (57519) - http://www.bohemiancoding.com/sketch -->
    <title>uA285-thumbs-down</title>
    <desc>Created with sketchtool.</desc>
    <defs></defs>
    <g id="Page-1" stroke="none" stroke-width="1" fill="none" fill-rule="evenodd">
        <g id="uA285-thumbs-down" fill="#000000" fill-rule="nonzero">
            <g id="thumbs-down" transform="translate(24.000000, 24.000000)">
                <path d="M496.656,226.317 C502.154,203.981 499.484,176.437 487.029,156.912 C491.343,133.144 483.93,107.535 468.804,89.807 C470.724,35.902 437.75,3.38813179e-21 378.468,0.014 C375.105,-0.016 342.96,0.011 337.455,0.014 C260.593,-0.007 195.917,40 160,40 L149.155,40 C143.515,35.025 136.113,32 128,32 L32,32 C14.327,32 0,46.327 0,64 L0,320 C0,337.673 14.327,352 32,352 L128,352 C145.673,352 160,337.673 160,320 L160,307.519 C160.85,307.785 161.653,308.068 162.382,308.375 C184,320 219.986,377.25 243.556,400.82 C253.456,410.72 256.674,427.26 260.081,444.771 C265.784,474.082 276.915,512 306.91,512 C366.518,512 389.819,477.328 389.819,418.92 C389.819,388.014 377.844,366.471 369.124,349.103 L439.274,349.103 C479.928,349.103 512,314.207 512.001,276.532 C512,256 506.583,239.191 496.656,226.317 Z M128,320 L32,320 L32,64 L128,64 L128,320 Z M439.273,317.102 L327.274,317.102 C327.274,357.829 357.819,376.73 357.819,418.919 C357.819,444.493 357.819,480.01 306.91,480.01 C286.547,459.646 296.728,408.738 266.183,378.193 C237.576,349.586 194.911,276.375 164.365,276.375 L160,276.375 L160,72.74 L164.365,72.74 C199.066,72.74 266.183,32.013 337.455,32.013 C340.935,32.013 374.87,31.983 378.182,32.013 C416.433,32.381 443.687,50.447 435.394,102.987 C451.761,111.767 463.932,142.222 450.409,164.983 C472,176 472,224 456.017,235.648 C472,240 480.1,256.012 480,276.375 C479.9,296.739 462.003,317.102 439.273,317.102 Z M104,272 C104,285.255 93.255,296 80,296 C66.745,296 56,285.255 56,272 C56,258.745 66.745,248 80,248 C93.255,248 104,258.745 104,272 Z" id="Shape"></path>
            </g>
        </g>
    </g>
</svg>