<?xml version="1.0" encoding="UTF-8"?>
<svg width="560px" height="560px" viewBox="0 0 560 560" version="1.1" xmlns="http://www.w3.org/2000/svg" xmlns:xlink="http://www.w3.org/1999/xlink">
    <!-- Generator: sketchtool 51.2 (57519) - http://www.bohemiancoding.com/sketch -->
    <title>uA282-thermometer-empty</title>
    <desc>Created with sketchtool.</desc>
    <defs></defs>
    <g id="Page-1" stroke="none" stroke-width="1" fill="none" fill-rule="evenodd">
        <g id="uA282-thermometer-empty" fill="#000000" fill-rule="nonzero">
            <g id="thermometer-empty" transform="translate(152.000000, 24.000000)">
                <path d="M176,384 C176,410.51 154.51,432 128,432 C101.49,432 80,410.51 80,384 C80,357.49 101.49,336 128,336 C154.51,336 176,357.49 176,384 Z M224,299.347 C243.912,321.911 256,351.542 256,384 C256,454.696 198.698,512 128,512 C127.701,512 127.39,511.999 127.091,511.997 C56.789,511.509 -0.357,453.636 0.002,383.333 C0.166,351.135 12.225,321.756 32,299.347 L32,96 C32,42.981 74.981,0 128,0 C181.019,0 224,42.981 224,96 L224,299.347 Z M224,384 C224,344.106 201.186,321.856 192,311.447 L192,96 C192,60.71 163.29,32 128,32 C92.71,32 64,60.71 64,96 L64,311.447 C54.533,322.175 32.203,344.029 32.001,383.496 C31.732,436.202 74.62,479.631 127.313,479.997 L128,480 C180.935,480 224,436.935 224,384 Z" id="Shape"></path>
            </g>
        </g>
    </g>
</svg>