<?xml version="1.0" encoding="UTF-8"?>
<svg width="560px" height="560px" viewBox="0 0 560 560" version="1.1" xmlns="http://www.w3.org/2000/svg" xmlns:xlink="http://www.w3.org/1999/xlink">
    <!-- Generator: sketchtool 51.2 (57519) - http://www.bohemiancoding.com/sketch -->
    <title>uA291-trash-alt</title>
    <desc>Created with sketchtool.</desc>
    <defs></defs>
    <g id="Page-1" stroke="none" stroke-width="1" fill="none" fill-rule="evenodd">
        <g id="uA291-trash-alt" fill="#000000" fill-rule="nonzero">
            <g id="trash-alt" transform="translate(56.000000, 24.000000)">
                <path d="M336,64 L302.4,19.2 C293.3,7.1 279.1,0 264,0 L184,0 C168.9,0 154.7,7.1 145.6,19.2 L112,64 L24,64 C10.7,64 0,74.7 0,88 L0,90 C0,93.3 2.7,96 6,96 L32,96 L32,464 C32,490.5 53.5,512 80,512 L368,512 C394.5,512 416,490.5 416,464 L416,96 L442,96 C445.3,96 448,93.3 448,90 L448,88 C448,74.7 437.3,64 424,64 L336,64 Z M184,32 L264,32 C269,32 273.8,34.4 276.8,38.4 L296,64 L152,64 L171.2,38.4 C174.2,34.4 179,32 184,32 Z M384,464 C384,472.8 376.8,480 368,480 L80,480 C71.2,480 64,472.8 64,464 L64,96 L384,96 L384,464 Z M208,420 L208,156 C208,149.4 213.4,144 220,144 L228,144 C234.6,144 240,149.4 240,156 L240,420 C240,426.6 234.6,432 228,432 L220,432 C213.4,432 208,426.6 208,420 Z M128,420 L128,156 C128,149.4 133.4,144 140,144 L148,144 C154.6,144 160,149.4 160,156 L160,420 C160,426.6 154.6,432 148,432 L140,432 C133.4,432 128,426.6 128,420 Z M288,420 L288,156 C288,149.4 293.4,144 300,144 L308,144 C314.6,144 320,149.4 320,156 L320,420 C320,426.6 314.6,432 308,432 L300,432 C293.4,432 288,426.6 288,420 Z" id="Shape"></path>
            </g>
        </g>
    </g>
</svg>