<?xml version="1.0" encoding="UTF-8"?>
<svg width="560px" height="560px" viewBox="0 0 560 560" version="1.1" xmlns="http://www.w3.org/2000/svg" xmlns:xlink="http://www.w3.org/1999/xlink">
    <!-- Generator: sketchtool 51.2 (57519) - http://www.bohemiancoding.com/sketch -->
    <title>uA299-delay</title>
    <desc>Created with sketchtool.</desc>
    <defs></defs>
    <g id="Page-1" stroke="none" stroke-width="1" fill="none" fill-rule="evenodd">
        <g id="uA299-delay" fill="#000000" fill-rule="nonzero">
            <g id="delay" transform="translate(32.000000, 32.000000)">
                <path d="M484.000306,16 C490.627306,16 496.000306,21.373 496.000306,28 L496.000306,172 C496.000306,178.627 490.627306,184 484.000306,184 L340.000306,184 C333.373306,184 328.000306,178.627 328.000306,172 L328.000306,162 C328.000306,155.373 333.373306,150 340.000306,150 L438.289306,150 C402.737306,81.077 330.862306,34 248.000306,34 C129.331306,34 34.0003059,130.256 34.0003059,248 C34.0003059,366.669 130.256306,462 248.000306,462 C303.065306,462 353.218306,441.238 391.109306,407.136 C395.842306,402.876 403.088306,403.087 407.591306,407.59 L414.660306,414.659 C419.532306,419.531 419.291306,427.474 414.178306,432.092 C370.202306,471.813 311.926306,496 248.000306,496 C111.166306,496 0.214305945,385.181 0.000305944828,248.396 C-0.212694055,112.009 110.820306,0.428 247.207306,0.001 C338.761306,-0.285 418.804306,49.047 462.000306,122.625 L462.000306,28 C462.000306,21.373 467.373306,16 474.000306,16 L484.000306,16 Z M333.647,331.235 L338.353,324.765 C342.251,319.405 341.066,311.9 335.706,308.002 L264,255.853 L264,108 C264,101.373 258.627,96 252,96 L244,96 C237.373,96 232,101.373 232,108 L232,272.147 L316.884,333.881 C322.244,337.78 329.749,336.595 333.647,331.235 Z" id="Shape"></path>
            </g>
        </g>
    </g>
</svg>