<?xml version="1.0" encoding="UTF-8"?>
<svg width="560px" height="560px" viewBox="0 0 560 560" version="1.1" xmlns="http://www.w3.org/2000/svg" xmlns:xlink="http://www.w3.org/1999/xlink">
    <!-- Generator: sketchtool 51.2 (57519) - http://www.bohemiancoding.com/sketch -->
    <title>uA300-clock-one</title>
    <desc>Created with sketchtool.</desc>
    <defs></defs>
    <g id="Page-1" stroke="none" stroke-width="1" fill="none" fill-rule="evenodd">
        <g id="uA300-clock-one" fill="#000000" fill-rule="nonzero">
            <g id="clock-one" transform="translate(32.000000, 32.000000)">
                <path d="M248,0 C111,0 0,111 0,248 C0,385 111,496 248,496 C385,496 496,385 496,248 C496,111 385,0 248,0 Z M464,248 C464,366.7 367.9,464 248,464 C129.3,464 32,367.9 32,248 C32,129.3 128.1,32 248,32 C366.7,32 464,128.1 464,248 Z M228,253.95 L228,108 C228,101.4 233.4,96 240,96 L254,96 C260.6,96 266,101.4 266,108 L266,260.95 C266,264.263708 263.313708,266.95 260,266.95 L241,266.95 C233.820298,266.95 228,261.129702 228,253.95 Z M233.616359,246.603516 L299.184106,159.592177 C303.156085,154.321183 310.718518,153.258352 315.989512,157.230332 L327.170409,165.655742 C332.441404,169.627721 333.504234,177.190154 329.532255,182.461148 C297.575127,224.983275 276.87176,252.515592 267.422154,265.058101 C266.941232,265.696431 266.466845,266.942981 263.999402,266.942981 C262.35444,266.942981 261.124866,266.942981 260.310678,266.942981 L233.616359,246.603516 Z" id="Shape"></path>
            </g>
        </g>
    </g>
</svg>