<?xml version="1.0" encoding="UTF-8"?>
<svg width="560px" height="560px" viewBox="0 0 560 560" version="1.1" xmlns="http://www.w3.org/2000/svg" xmlns:xlink="http://www.w3.org/1999/xlink">
    <!-- Generator: sketchtool 51.2 (57519) - http://www.bohemiancoding.com/sketch -->
    <title>uA302-compose</title>
    <desc>Created with sketchtool.</desc>
    <defs></defs>
    <g id="Page-1" stroke="none" stroke-width="1" fill="none" fill-rule="evenodd">
        <g id="uA302-compose" fill="#000000" fill-rule="nonzero">
            <g id="compose" transform="translate(0.000000, 31.000000)">
                <path d="M406.194444,306.736111 L425.638889,287.291667 C429.333333,283.597222 435.555556,286.222222 435.555556,291.375 L435.555556,451.111111 C435.555556,476.875 414.652778,497.777778 388.888889,497.777778 L46.6666667,497.777778 C20.9027778,497.777778 0,476.875 0,451.111111 L0,108.888889 C0,83.125 20.9027778,62.2222222 46.6666667,62.2222222 L330.847222,62.2222222 C336,62.2222222 338.625,68.5416667 334.930556,72.1388889 L315.486111,91.5833333 C314.416667,92.6527778 312.861111,93.3333333 311.402778,93.3333333 L46.6666667,93.3333333 C38.1111111,93.3333333 31.1111111,100.333333 31.1111111,108.888889 L31.1111111,451.111111 C31.1111111,459.666667 38.1111111,466.666667 46.6666667,466.666667 L388.888889,466.666667 C397.444444,466.666667 404.444444,459.666667 404.444444,451.111111 L404.444444,310.819444 C404.444444,309.263889 405.027778,307.805556 406.194444,306.736111 Z M548.041667,120.847222 L244.222222,424.666667 L147.097222,435.458333 C134.069444,436.916667 123.083333,425.930556 124.541667,412.902778 L135.333333,315.777778 L439.152778,11.9583333 C455.097222,-3.98611111 480.958333,-3.98611111 496.902778,11.9583333 L548.041667,63.0972222 C563.986111,79.0416667 563.986111,104.902778 548.041667,120.847222 Z M457.041667,167.902778 L392.194444,103.055556 L165.083333,330.069444 L157.013889,403.083333 L230.027778,395.013889 L457.041667,167.902778 Z M526.069444,85.0694444 L474.930556,33.9305556 C471.236111,30.2361111 465.013889,30.0416667 461.222222,33.9305556 L414.166667,80.9861111 L479.013889,145.833333 L526.069444,98.7777778 C529.861111,95.0833333 529.861111,88.8611111 526.069444,85.0694444 Z" id="Shape"></path>
            </g>
        </g>
    </g>
</svg>