<?xml version="1.0" encoding="UTF-8"?>
<svg width="560px" height="560px" viewBox="0 0 560 560" version="1.1" xmlns="http://www.w3.org/2000/svg" xmlns:xlink="http://www.w3.org/1999/xlink">
    <!-- Generator: sketchtool 51.2 (57519) - http://www.bohemiancoding.com/sketch -->
    <title>uA306-hold</title>
    <desc>Created with sketchtool.</desc>
    <defs></defs>
    <g id="Page-1" stroke="none" stroke-width="1" fill="none" fill-rule="evenodd">
        <g id="uA306-hold" fill="#000000" fill-rule="nonzero">
            <g id="hold" transform="translate(0.000000, 62.000000)">
                <path d="M497.777778,0 C532.097222,0 560,27.9027778 560,62.2222222 L560,373.333333 C560,407.652778 532.097222,435.555556 497.777778,435.555556 L62.2222222,435.555556 C27.9027778,435.555556 0,407.652778 0,373.333333 L0,62.2222222 C0,27.9027778 27.9027778,0 62.2222222,0 L497.777778,0 Z M31.1111111,373.333333 C31.1111111,390.444444 45.1111111,404.444444 62.2222222,404.444444 L497.777778,404.444444 C514.888889,404.444444 528.888889,390.444444 528.888889,373.333333 L528.888889,77.7777778 C528.888889,52.1111111 514.888889,31.1111111 497.777778,31.1111111 L62.2222222,31.1111111 C45.1111111,31.1111111 31.1111111,52.1111111 31.1111111,77.7777778 L31.1111111,373.333333 Z M122.466,165.1 L153.552,165.1 L153.552,275 L122.466,275 L122.466,232.139 L80.076,232.139 L80.076,275 L48.99,275 L48.99,165.1 L80.076,165.1 L80.076,206.391 L122.466,206.391 L122.466,165.1 Z M230.953,277.198 C195.785,277.198 169.88,253.02 169.88,220.05 C169.88,187.08 195.785,162.902 230.953,162.902 C266.121,162.902 292.026,187.08 292.026,220.05 C292.026,253.02 266.121,277.198 230.953,277.198 Z M230.953,251.45 C247.595,251.45 260.626,239.047 260.626,220.05 C260.626,201.053 247.595,188.65 230.953,188.65 C214.311,188.65 201.28,201.053 201.28,220.05 C201.28,239.047 214.311,251.45 230.953,251.45 Z M308.354,275 L308.354,165.1 L339.44,165.1 L339.44,250.351 L391.878,250.351 L391.878,275 L308.354,275 Z M404.124,275 L404.124,165.1 L456.091,165.1 C492.515,165.1 517.478,186.295 517.478,220.05 C517.478,253.805 492.515,275 456.091,275 L404.124,275 Z M435.21,250.194 L454.835,250.194 C473.518,250.194 486.078,239.047 486.078,220.05 C486.078,201.053 473.518,189.906 454.835,189.906 L435.21,189.906 L435.21,250.194 Z" id="Combined-Shape"></path>
            </g>
        </g>
    </g>
</svg>