<?xml version="1.0" encoding="UTF-8"?>
<svg width="560px" height="560px" viewBox="0 0 560 560" version="1.1" xmlns="http://www.w3.org/2000/svg" xmlns:xlink="http://www.w3.org/1999/xlink">
    <!-- Generator: sketchtool 51.2 (57519) - http://www.bohemiancoding.com/sketch -->
    <title>uA310-dixa-h</title>
    <desc>Created with sketchtool.</desc>
    <defs></defs>
    <g id="Page-1" stroke="none" stroke-width="1" fill="none" fill-rule="evenodd">
        <g id="uA310-dixa-h" fill="#000000">
            <g id="dixa-h" transform="translate(23.000000, 161.000000)">
                <path d="M310.09161,66.6212798 C312.373554,66.6212798 314.199109,68.3374659 314.107831,70.50528 L314.107831,164.805194 C314.107831,167.514962 312.92122,168.77952 309.817777,169.231148 C300.690002,170.857008 291.288394,171.579613 280.974008,171.579613 C257.789459,171.579613 245.101852,159.114682 245.101852,136.533285 L245.101852,128.04268 C245.101852,105.280631 257.515626,93.2673282 280.974008,93.2673282 C285.172784,93.2673282 292.018616,93.6286306 298.042947,94.4415609 L298.042947,70.50528 C298.042947,68.3374659 299.95978,66.6212798 302.241724,66.6212798 L310.09161,66.6212798 Z M297.453704,108.079739 C292.790108,107.445276 285.794714,107.354638 280.682696,107.173363 C267.409385,107.173363 261.759259,113.69927 261.759259,129.017023 L261.759259,137.536957 C261.759259,153.217261 267.230016,159.65253 280.682696,159.65253 C285.525661,159.65253 292.43137,159.289979 297.453704,158.927429 L297.453704,108.079739 Z M345.288293,95.2462798 C347.829253,95.2462798 349.805556,97.0508503 349.805556,99.2163349 L349.805556,167.609558 C349.805556,169.775043 347.735143,171.579613 345.288293,171.579613 L337.665411,171.579613 C335.124451,171.579613 333.148148,169.775043 333.148148,167.609558 L333.148148,99.2163349 C333.148148,97.0508503 335.21856,95.2462798 337.665411,95.2462798 L345.288293,95.2462798 Z M345.412393,66.6212798 C347.792023,66.6212798 349.714031,68.4766038 349.805556,70.7029927 L349.805556,79.2374835 C349.805556,81.4638724 347.792023,83.3191964 345.412393,83.3191964 L337.541311,83.3191964 C335.070157,83.3191964 333.148148,81.4638724 333.148148,79.2374835 L333.148148,70.7029927 C333.148148,68.4766038 335.161681,66.6212798 337.541311,66.6212798 L345.412393,66.6212798 Z M412.231752,131.925933 L439.334054,166.442659 C439.962253,167.163635 440.231481,167.974733 440.231481,168.875953 C440.231481,170.137661 439.334054,171.579613 437.000743,171.579613 L426.590588,171.579613 C425.154704,171.579613 424.347019,171.219125 423.449592,170.047539 L402.808766,143.281305 L382.16794,169.777173 C381.001284,171.219125 380.373085,171.579613 378.578231,171.579613 L369.514216,171.579613 C367.450133,171.579613 366.462963,170.227783 366.462963,168.966075 C366.462963,168.515465 366.552706,167.434001 367.539876,166.352537 L394.103722,132.737031 L368.975759,100.6536 C368.437303,99.8425017 367.988589,99.0314037 367.988589,98.1301837 C367.988589,96.4178658 369.424473,95.2462798 371.488555,95.2462798 L381.360255,95.2462798 C383.065367,95.2462798 384.142279,95.9672558 385.398678,97.6795737 L403.436965,121.471782 L421.834223,97.5894517 C423.35985,95.6968898 424.167534,95.2462798 426.052131,95.2462798 L434.846918,95.2462798 C436.731515,95.2462798 438.077656,96.5079878 438.077656,98.1301837 C438.077656,99.0314037 437.5392,99.8425017 437.090486,100.563478 L412.231752,131.925933 Z M483.055375,92.8608631 C503.802985,92.8608631 514.267789,101.940304 513.994794,119.917596 L513.994794,164.770033 C513.994794,167.493865 512.811816,168.764987 509.717874,169.218959 C500.618045,170.853258 491.336219,171.579613 481.326407,171.579613 L477.95947,171.579613 C459.213822,171.579613 449.75,163.6805 449.75,148.063862 L449.75,147.065123 C449.75,130.631336 461.215785,123.549372 487.969282,123.549372 L498.070093,123.549372 L498.070093,120.00839 C498.070093,109.385445 494.248164,105.753669 482.964376,105.753669 C473.227559,105.753669 466.038694,106.298435 459.668814,106.843202 L458.758831,106.843202 C455.027901,106.843202 454.754906,104.210164 454.754906,103.393014 L454.754906,98.5809107 C454.754906,97.0374058 455.573891,95.1307232 459.122824,94.6767512 C465.21971,93.7688072 472.317576,92.8608631 483.055375,92.8608631 Z M466.407407,148.04533 L466.407407,148.319516 C466.407407,156.54509 469.718779,159.65253 478.69434,159.65253 L481.22144,159.65253 L481.395722,159.65253 C486.014215,159.65253 492.462676,159.286949 497.342593,158.921368 L497.342593,135.798363 L487.669901,135.798363 C469.544497,135.798363 466.407407,139.72836 466.407407,148.04533 Z M201.860886,45.9176423 C210.200961,60.3952296 214.166667,76.1662036 214.166667,91.7702891 C214.166667,123.516676 197.690848,154.395242 168.250383,171.41788 L102.242859,209.551929 L88.769468,217.312249 L69.0910609,228.702397 C67.6357178,229.545185 65.8217514,228.497958 65.8217514,226.816556 L65.8217514,181.635636 C65.8217514,178.965418 65.1170151,176.336922 63.7784331,174.01717 L1.11944907,65.4519546 C-1.18658168,61.4633167 0.185360667,56.3565251 4.17608659,54.0534622 L76.4678573,12.3313087 C120.378352,-13.0357607 176.507058,1.9842146 201.860886,45.9176423 Z M137.642308,118.389023 C147.483596,112.71481 152.946346,102.409438 152.946346,91.8120112 C152.946346,86.6384642 151.653634,81.3397507 148.859709,76.541703 C140.394533,61.8972271 121.716935,56.8905687 107.075933,65.3601659 L84.1740866,78.5443664 C82.1766387,79.6958978 81.4927525,82.2492936 82.6436829,84.2477848 L109.077551,130.083743 C110.232651,132.078062 112.780544,132.762305 114.777992,131.610773 L137.642308,118.389023 Z" id="Combined-Shape"></path>
            </g>
        </g>
    </g>
</svg>