<?xml version="1.0" encoding="UTF-8"?>
<svg width="560px" height="560px" viewBox="0 0 560 560" version="1.1" xmlns="http://www.w3.org/2000/svg" xmlns:xlink="http://www.w3.org/1999/xlink">
    <!-- Generator: sketchtool 51.2 (57519) - http://www.bohemiancoding.com/sketch -->
    <title>uA311-dixa-v</title>
    <desc>Created with sketchtool.</desc>
    <defs></defs>
    <g id="Page-1" stroke="none" stroke-width="1" fill="none" fill-rule="evenodd">
        <g id="uA311-dixa-v" fill="#000000">
            <g id="dixa-v" transform="translate(113.000000, 29.000000)">
                <path d="M86.2394633,380.827586 C88.8890562,380.827586 91.0087306,382.808891 90.9027469,385.311591 L90.9027469,494.179061 C90.9027469,497.307437 89.5249585,498.767345 85.9215121,499.288741 C75.3231404,501.165767 64.4068175,502 52.4306574,502 C25.5107931,502 10.7790564,487.609472 10.7790564,461.539676 L10.7790564,451.737432 C10.7790564,425.459078 25.192842,411.589946 52.4306574,411.589946 C57.3059084,411.589946 65.2546872,412.007063 72.2496126,412.945575 L72.2496126,385.311591 C72.2496126,382.808891 74.4752706,380.827586 77.1248636,380.827586 L86.2394633,380.827586 Z M71.5654348,428.690595 C66.1504765,427.958119 58.028039,427.853479 52.0924116,427.644201 C36.6806071,427.644201 30.1201768,435.178237 30.1201768,452.862294 L30.1201768,462.698396 C30.1201768,480.801011 36.4723394,488.230408 52.0924116,488.230408 C57.7156375,488.230408 65.7339412,487.81185 71.5654348,487.393292 L71.5654348,428.690595 Z M127.106764,413.874608 C130.057104,413.874608 132.351813,415.957951 132.351813,418.457962 L132.351813,497.416646 C132.351813,499.916657 129.947832,502 127.106764,502 L118.255742,502 C115.305402,502 113.010693,499.916657 113.010693,497.416646 L113.010693,418.457962 C113.010693,415.957951 115.414674,413.874608 118.255742,413.874608 L127.106764,413.874608 Z M127.250858,380.827586 C130.013876,380.827586 132.245543,382.969523 132.351813,385.539847 L132.351813,395.392755 C132.351813,397.963079 130.013876,400.105016 127.250858,400.105016 L118.111648,400.105016 C115.242361,400.105016 113.010693,397.963079 113.010693,395.392755 L113.010693,385.539847 C113.010693,382.969523 115.34863,380.827586 118.111648,380.827586 L127.250858,380.827586 Z M204.835637,456.220576 L236.304453,496.069484 C237.033863,496.901837 237.346467,497.838234 237.346467,498.878676 C237.346467,500.335294 236.304453,502 233.595217,502 L221.507857,502 C219.840635,502 218.902823,501.583823 217.860809,500.23125 L193.894492,469.330138 L169.928175,499.919117 C168.573557,501.583823 167.844147,502 165.76012,502 L155.23578,502 C152.839149,502 151.692934,500.439338 151.692934,498.98272 C151.692934,498.462499 151.797135,497.213969 152.94335,495.96544 L183.786958,457.156973 L154.610572,420.117257 C153.985364,419.18086 153.464357,418.244462 153.464357,417.204021 C153.464357,415.227182 155.131579,413.874608 157.528211,413.874608 L168.990362,413.874608 C170.970189,413.874608 172.220605,414.706961 173.679424,416.6838 L194.623902,444.151455 L215.985184,416.579756 C217.756608,414.394829 218.69442,413.874608 220.882649,413.874608 L231.094384,413.874608 C233.282613,413.874608 234.845634,415.331226 234.845634,417.204021 C234.845634,418.244462 234.220425,419.18086 233.699419,420.013213 L204.835637,456.220576 Z M287.069815,411.12069 C311.160121,411.12069 323.310933,421.602732 322.993955,442.357177 L322.993955,494.138468 C322.993955,497.283081 321.620385,498.750567 318.027971,499.274669 C307.462047,501.161437 296.684806,502 285.06229,502 L281.152898,502 C259.387096,502 248.398536,492.880623 248.398536,474.851509 L248.398536,473.698485 C248.398536,454.725987 261.711599,446.549994 292.775414,446.549994 L304.503589,446.549994 L304.503589,442.461997 C304.503589,430.198007 300.065901,426.00519 286.964156,426.00519 C275.658618,426.00519 267.311538,426.634113 259.915392,427.263035 L258.8588,427.263035 C254.526771,427.263035 254.209793,424.223243 254.209793,423.279859 L254.209793,417.724377 C254.209793,415.942429 255.160727,413.7412 259.281437,413.217098 C266.360605,412.168894 274.602026,411.12069 287.069815,411.12069 Z M267.739656,474.830114 L267.739656,475.146657 C267.739656,484.642927 271.584531,488.230408 282.006165,488.230408 L284.940411,488.230408 L285.142773,488.230408 C290.505361,488.230408 297.992749,487.808351 303.65888,487.386295 L303.65888,460.691223 L292.427798,460.691223 C271.382169,460.691223 267.739656,465.22833 267.739656,474.830114 Z M294.281072,66.642464 C306.439575,87.6544769 312.220944,110.543644 312.220944,133.190597 C312.220944,179.265642 288.20182,224.081177 245.282304,248.786944 L149.05383,304.132707 L129.411768,315.39563 L100.72378,331.926695 C98.6021212,333.149873 95.9576468,331.629984 95.9576468,329.189684 L95.9576468,263.61646 C95.9576468,259.741045 94.9302532,255.926184 92.9788135,252.559418 L1.63197874,94.993543 C-1.7298474,89.2046426 0.270226376,81.7929125 6.08807017,78.4503675 L111.477976,17.8970164 C175.492496,-18.9194211 257.319222,2.87978528 294.281072,66.642464 Z M200.660597,171.823635 C215.007631,163.588379 222.971451,148.631701 222.971451,133.25115 C222.971451,125.742535 221.086883,118.052259 217.013784,111.088624 C204.672903,89.8343975 177.443935,82.5679954 156.099683,94.8603256 L122.712433,113.995185 C119.800472,115.666457 118.803474,119.372322 120.481348,122.272828 L159.017724,188.796739 C160.701676,191.691189 164.416099,192.684264 167.328061,191.012992 L200.660597,171.823635 Z" id="Combined-Shape"></path>
            </g>
        </g>
    </g>
</svg>