<?xml version="1.0" encoding="UTF-8"?>
<svg width="560px" height="560px" viewBox="0 0 560 560" version="1.1" xmlns="http://www.w3.org/2000/svg" xmlns:xlink="http://www.w3.org/1999/xlink">
    <!-- Generator: sketchtool 51.2 (57519) - http://www.bohemiancoding.com/sketch -->
    <title>uA327-google</title>
    <desc>Created with sketchtool.</desc>
    <defs></defs>
    <g id="Page-1" stroke="none" stroke-width="1" fill="none" fill-rule="evenodd">
        <g id="uA327-google" fill="#000000" fill-rule="nonzero">
            <g id="google" transform="translate(36.000000, 32.000000)">
                <path d="M488,253.8 C488,395.3 391.1,496 248,496 C110.8,496 0,385.2 0,248 C0,110.8 110.8,0 248,0 C314.8,0 371,24.5 414.3,64.9 L346.8,129.8 C258.5,44.6 94.3,108.6 94.3,248 C94.3,334.5 163.4,404.6 248,404.6 C346.2,404.6 383,334.2 388.8,297.7 L248,297.7 L248,212.4 L484.1,212.4 C486.4,225.1 488,237.3 488,253.8 Z" id="Shape"></path>
            </g>
        </g>
    </g>
</svg>