<?xml version="1.0" encoding="UTF-8"?>
<svg width="560px" height="560px" viewBox="0 0 560 560" version="1.1" xmlns="http://www.w3.org/2000/svg" xmlns:xlink="http://www.w3.org/1999/xlink">
    <!-- Generator: sketchtool 51.2 (57519) - http://www.bohemiancoding.com/sketch -->
    <title>uA324-shopify</title>
    <desc>Created with sketchtool.</desc>
    <defs></defs>
    <g id="Page-1" stroke="none" stroke-width="1" fill="none" fill-rule="evenodd">
        <g id="uA324-shopify" fill="#000000">
            <path d="M431.302543,139.765344 C431.617915,142.08475 481.375,480.185031 481.375,480.185031 L339.615329,511 L78,461.745031 C78,461.745031 111.572773,200.804625 112.848595,191.599031 C114.5258,179.454562 114.927183,179.051187 127.77142,175.003031 C129.850008,174.340344 146.177672,169.254938 169.17115,162.095031 C178.030234,124.33625 206.299024,50 265.459927,50 C273.186538,50 282.131632,54.1778125 289.356516,63.772375 C290.07327,63.7291562 290.80436,63.7003438 291.506779,63.7003438 C316.894217,63.7003438 331.329649,85.439375 339.514984,109.094437 C347.872339,106.501312 352.91829,104.931031 353.219326,104.844594 C355.254909,104.239531 360.50155,103.418375 363.196547,106.12675 C365.877208,108.820719 390.375871,133.253719 390.375871,133.253719 C390.375871,133.253719 425.625848,135.875656 427.288719,136.019719 C428.965924,136.163781 430.987171,137.445937 431.302543,139.765344 Z M287.421279,122.72275 C287.421279,104.988656 285.041655,91.83575 281.414878,82.673375 C266.979446,88.896875 250.479761,105.392031 241.678018,139.534844 C257.360603,134.651125 273.000182,129.781812 287.406944,125.301469 C287.406944,124.465906 287.421279,123.630344 287.421279,122.72275 Z M263.825727,65.9477187 C221.33653,65.9477187 197.468611,122.016844 187.419716,156.418969 C198.758769,152.889437 211.015268,149.071781 223.558469,145.167687 C232.145186,100.076125 252.458003,77.487125 271.423323,68.5264375 C268.957688,66.8265 266.391707,65.9477187 263.825727,65.9477187 Z M274.017973,266.986938 L291.506779,214.735469 C291.506779,214.735469 279.680332,207.849281 255.769408,207.849281 C193.698483,207.849281 162.949723,249.512156 162.949723,292.558031 C162.949723,343.714625 213.738934,345.112031 213.738934,376.243938 C213.738934,383.764 208.434952,394.064469 195.433029,394.064469 C175.507259,394.064469 151.897371,373.694031 151.897371,373.694031 L139.870233,413.61375 C139.870233,413.61375 162.835042,441.705938 207.746868,441.705938 C245.175779,441.705938 272.928507,413.38325 272.928507,369.415375 C272.928507,313.519125 211.029603,304.371156 211.029603,280.5 C211.029603,276.134906 212.420106,258.775375 239.943473,258.775375 C258.708101,258.775375 274.017973,266.986938 274.017973,266.986938 Z M302.917508,120.475375 C311.016832,117.954281 318.485412,115.634875 325.050881,113.589187 C319.445863,96.3737187 310.73013,81.405625 297.642196,79.7633125 C300.896261,89.1417812 302.931843,100.983719 302.931843,115.678094 C302.931843,117.363625 302.917508,118.905094 302.917508,120.475375 Z" id="shopify"></path>
        </g>
    </g>
</svg>