<?xml version="1.0" encoding="UTF-8"?>
<svg width="560px" height="560px" viewBox="0 0 560 560" version="1.1" xmlns="http://www.w3.org/2000/svg" xmlns:xlink="http://www.w3.org/1999/xlink">
    <!-- Generator: sketchtool 51.2 (57519) - http://www.bohemiancoding.com/sketch -->
    <title>uA339-agillic</title>
    <desc>Created with sketchtool.</desc>
    <defs></defs>
    <g id="Page-1" stroke="none" stroke-width="1" fill="none" fill-rule="evenodd">
        <g id="uA339-agillic" fill="#000000">
            <path d="M205.751483,345.358142 C174.926957,345.358142 149.938741,320.369926 149.938741,289.5454 C149.938741,258.720874 174.926957,233.732659 205.751483,233.732659 C217.145902,233.732659 227.742823,237.147157 236.57486,243.008767 C237.840418,237.68911 242.623307,233.732659 248.330275,233.732659 L249.481053,233.732659 C256.154404,233.732659 261.564224,239.142479 261.564224,245.81583 L261.564224,324.144062 C261.597354,324.310273 261.628129,324.478331 261.657466,324.649433 C261.862215,325.843613 261.897261,326.756708 261.897261,328.292893 C261.897261,330.068102 261.816347,332.868623 261.655783,336.802525 C261.100196,350.414624 255.520623,363.385256 245.691354,373.214525 C224.34453,394.561349 188.583711,394.561349 167.236886,373.214525 C162.293411,368.27105 162.293411,360.256093 167.236886,355.312618 C172.180362,350.369143 180.195318,350.369143 185.138793,355.312618 C196.598668,366.772492 216.329573,366.772492 227.789447,355.312618 C232.965728,350.136337 235.932341,343.38657 236.336881,336.239101 C227.552743,342.004596 217.043744,345.358142 205.751483,345.358142 Z M125.197011,233.732659 L126.347789,233.732659 C133.02114,233.732659 138.43096,239.142479 138.43096,245.81583 L138.43096,333.274971 C138.43096,339.948322 133.02114,345.358142 126.347789,345.358142 L125.197011,345.358142 C119.247512,345.358142 114.302302,341.058269 113.299497,335.396638 C104.270711,341.676623 93.2990081,345.358142 81.4674401,345.358142 C50.6429142,345.358142 25.6546988,320.369926 25.6546988,289.5454 C25.6546988,258.720874 50.6429142,233.732659 81.4674401,233.732659 C93.2990081,233.732659 104.270711,237.414178 113.299497,243.694163 C114.302302,238.032532 119.247512,233.732659 125.197011,233.732659 Z M82.0428292,318.890244 C97.9317601,318.890244 110.812283,306.00972 110.812283,290.120789 C110.812283,274.231859 97.9317601,261.351335 82.0428292,261.351335 C66.1538983,261.351335 53.2733749,274.231859 53.2733749,290.120789 C53.2733749,306.00972 66.1538983,318.890244 82.0428292,318.890244 Z M206.326872,318.890244 C222.215803,318.890244 235.096326,306.00972 235.096326,290.120789 C235.096326,274.231859 222.215803,261.351335 206.326872,261.351335 C190.437941,261.351335 177.557417,274.231859 177.557417,290.120789 C177.557417,306.00972 190.437941,318.890244 206.326872,318.890244 Z M288.607511,233.732659 L289.758289,233.732659 C296.43164,233.732659 301.84146,239.142479 301.84146,245.81583 L301.84146,333.274971 C301.84146,339.948322 296.43164,345.358142 289.758289,345.358142 L288.607511,345.358142 C281.93416,345.358142 276.52434,339.948322 276.52434,333.274971 L276.52434,245.81583 C276.52434,239.142479 281.93416,233.732659 288.607511,233.732659 Z M289.1829,219.923321 C281.556213,219.923321 275.373562,213.74067 275.373562,206.113983 C275.373562,198.487296 281.556213,192.304645 289.1829,192.304645 C296.809587,192.304645 302.992238,198.487296 302.992238,206.113983 C302.992238,213.74067 296.809587,219.923321 289.1829,219.923321 Z M409.439219,233.732659 L410.589997,233.732659 C417.263348,233.732659 422.673168,239.142479 422.673168,245.81583 L422.673168,333.274971 C422.673168,339.948322 417.263348,345.358142 410.589997,345.358142 L409.439219,345.358142 C402.765868,345.358142 397.356048,339.948322 397.356048,333.274971 L397.356048,245.81583 C397.356048,239.142479 402.765868,233.732659 409.439219,233.732659 Z M410.014608,219.923321 C402.387921,219.923321 396.20527,213.74067 396.20527,206.113983 C396.20527,198.487296 402.387921,192.304645 410.014608,192.304645 C417.641295,192.304645 423.823946,198.487296 423.823946,206.113983 C423.823946,213.74067 417.641295,219.923321 410.014608,219.923321 Z M328.884747,171.590638 L330.035525,171.590638 C336.708876,171.590638 342.118696,177.000458 342.118696,183.673808 L342.118696,333.274971 C342.118696,339.948322 336.708876,345.358142 330.035525,345.358142 L328.884747,345.358142 C322.211396,345.358142 316.801576,339.948322 316.801576,333.274971 L316.801576,183.673808 C316.801576,177.000458 322.211396,171.590638 328.884747,171.590638 Z M530.947092,250.893555 C535.890568,255.837031 535.890568,263.851987 530.947092,268.795463 C526.003617,273.738938 517.98866,273.738938 513.045185,268.795463 C501.585311,257.335588 483.005184,257.335588 471.54531,268.795463 C460.085436,280.255337 460.085436,298.835464 471.54531,310.295338 C483.005184,321.755212 501.585311,321.755212 513.045185,310.295338 C517.98866,305.351863 526.003617,305.351863 530.947092,310.295338 C535.890568,315.238813 535.890568,323.25377 530.947092,328.197245 C509.600268,349.54407 474.990227,349.54407 453.643403,328.197245 C432.296578,306.850421 432.296578,272.24038 453.643403,250.893555 C474.990227,229.546731 509.600268,229.546731 530.947092,250.893555 Z M369.161983,171.590638 L370.312761,171.590638 C376.986112,171.590638 382.395932,177.000458 382.395932,183.673808 L382.395932,333.274971 C382.395932,339.948322 376.986112,345.358142 370.312761,345.358142 L369.161983,345.358142 C362.488632,345.358142 357.078812,339.948322 357.078812,333.274971 L357.078812,183.673808 C357.078812,177.000458 362.488632,171.590638 369.161983,171.590638 Z" id="agillic"></path>
        </g>
    </g>
</svg>