<?xml version="1.0" encoding="UTF-8"?>
<svg width="560px" height="560px" viewBox="0 0 560 560" version="1.1" xmlns="http://www.w3.org/2000/svg" xmlns:xlink="http://www.w3.org/1999/xlink">
    <!-- Generator: sketchtool 51.2 (57519) - http://www.bohemiancoding.com/sketch -->
    <title>uA344-opera</title>
    <desc>Created with sketchtool.</desc>
    <defs></defs>
    <g id="Page-1" stroke="none" stroke-width="1" fill="none" fill-rule="evenodd">
        <g id="uA344-opera" fill="#000000" fill-rule="nonzero">
            <g id="opera" transform="translate(32.000000, 32.000000)">
                <path d="M313.9,32.7 C143.7,32.7 61.3,256.5 166.4,387.8 C202.9,433.2 255,463.4 313.9,463.4 C350.2,463.4 384.2,452.3 413.3,433 C369.5,472.2 311.4,496 248,496 C244.1,496 240,496 236.1,495.7 C104.6,489.6 0,381.1 0,248 C0,111 111,0 248,0 L248.8,0 C311.9,0.3 369.5,24.1 413.2,63.1 C384.2,43.7 350.1,32.7 313.9,32.7 Z M415.7,430.4 C374.8,455.1 325,454 283.7,424.6 C339.9,404.1 381.4,333 381.4,248 C381.4,163.3 340.2,92.2 284,71.4 C325.8,42.2 375.2,41.1 416.9,66.4 C522.8,165.1 522.4,332.1 415.7,430.4 Z" id="Shape"></path>
            </g>
        </g>
    </g>
</svg>