<?xml version="1.0" encoding="UTF-8"?>
<svg width="560px" height="560px" viewBox="0 0 560 560" version="1.1" xmlns="http://www.w3.org/2000/svg" xmlns:xlink="http://www.w3.org/1999/xlink">
    <!-- Generator: sketchtool 51.2 (57519) - http://www.bohemiancoding.com/sketch -->
    <title>uA346-cc-apple-pay</title>
    <desc>Created with sketchtool.</desc>
    <defs></defs>
    <g id="Page-1" stroke="none" stroke-width="1" fill="none" fill-rule="evenodd">
        <g id="uA346-cc-apple-pay" fill="#000000" fill-rule="nonzero">
            <g id="cc-apple-pay" transform="translate(0.000000, 62.000000)">
                <path d="M293.805556,182.194444 C293.805556,198.916667 283.597222,208.541667 265.611111,208.541667 L241.986111,208.541667 L241.986111,155.847222 L265.708333,155.847222 C283.597222,155.847222 293.805556,165.375 293.805556,182.194444 Z M339.986111,243.055556 C339.986111,251.125 346.986111,256.375 357.972222,256.375 C371.972222,256.375 382.472222,247.527778 382.472222,235.083333 L382.472222,227.597222 L359.625,229.055556 C346.694444,229.930556 339.986111,234.694444 339.986111,243.055556 Z M560,46.6666667 L560,388.888889 C560,414.652778 539.097222,435.555556 513.333333,435.555556 L46.6666667,435.555556 C20.9027778,435.555556 0,414.652778 0,388.888889 L0,46.6666667 C0,20.9027778 20.9027778,0 46.6666667,0 L513.333333,0 C539.097222,0 560,20.9027778 560,46.6666667 Z M124.25,161.583333 C132.416667,162.263889 140.583333,157.5 145.736111,151.472222 C150.791667,145.25 154.097222,136.888889 153.222222,128.430556 C146.027778,128.722222 137.083333,133.194444 131.930556,139.416667 C127.263889,144.763889 123.277778,153.416667 124.25,161.583333 Z M183.166667,234.013889 C182.972222,233.819444 164.111111,226.625 163.916667,204.847222 C163.722222,186.666667 178.791667,177.916667 179.472222,177.430556 C170.916667,164.791667 157.694444,163.430556 153.125,163.138889 C141.263889,162.458333 131.152778,169.847222 125.513889,169.847222 C119.777778,169.847222 111.222222,163.430556 101.888889,163.625 C89.7361111,163.819444 78.3611111,170.722222 72.2361111,181.708333 C59.5,203.680556 68.9305556,236.152778 81.2777778,254.041667 C87.3055556,262.888889 94.5972222,272.611111 104.125,272.222222 C113.166667,271.833333 116.763889,266.388889 127.652778,266.388889 C138.638889,266.388889 141.75,272.222222 151.277778,272.125 C161.194444,271.930556 167.319444,263.277778 173.444444,254.430556 C180.152778,244.319444 182.972222,234.597222 183.166667,234.013889 Z M314.805556,182.097222 C314.805556,156.236111 296.819444,138.541667 271.152778,138.541667 L221.375,138.541667 L221.375,271.152778 L241.986111,271.152778 L241.986111,225.847222 L270.472222,225.847222 C296.527778,225.847222 314.805556,207.958333 314.805556,182.097222 Z M402.305556,205.138889 C402.305556,185.986111 386.944444,173.638889 363.416667,173.638889 C341.541667,173.638889 325.402778,186.180556 324.819444,203.291667 L343.388889,203.291667 C344.944444,195.125 352.527778,189.777778 362.833333,189.777778 C375.472222,189.777778 382.472222,195.611111 382.472222,206.5 L382.472222,213.791667 L356.805556,215.347222 C332.888889,216.805556 319.958333,226.625 319.958333,243.638889 C319.958333,260.847222 333.277778,272.222222 352.430556,272.222222 C365.361111,272.222222 377.319444,265.708333 382.763889,255.305556 L383.152778,255.305556 L383.152778,271.25 L402.208333,271.25 L402.208333,205.138889 L402.305556,205.138889 Z M501.666667,174.902778 L480.763889,174.902778 L456.555556,253.263889 L456.166667,253.263889 L431.958333,174.902778 L410.277778,174.902778 L445.180556,271.444444 L443.333333,277.277778 C440.222222,287.194444 435.069444,291.083333 425.930556,291.083333 C424.277778,291.083333 421.166667,290.888889 419.902778,290.791667 L419.902778,306.736111 C421.069444,307.125 426.222222,307.222222 427.777778,307.222222 C447.902778,307.222222 457.333333,299.541667 465.597222,276.305556 L501.666667,174.902778 Z" id="Shape"></path>
            </g>
        </g>
    </g>
</svg>