<?xml version="1.0" encoding="UTF-8"?>
<svg width="560px" height="560px" viewBox="0 0 560 560" version="1.1" xmlns="http://www.w3.org/2000/svg" xmlns:xlink="http://www.w3.org/1999/xlink">
    <!-- Generator: sketchtool 51.2 (57519) - http://www.bohemiancoding.com/sketch -->
    <title>uA341-chrome</title>
    <desc>Created with sketchtool.</desc>
    <defs></defs>
    <g id="Page-1" stroke="none" stroke-width="1" fill="none" fill-rule="evenodd">
        <g id="uA341-chrome" fill="#000000" fill-rule="nonzero">
            <g id="chrome" transform="translate(32.000000, 32.000000)">
                <path d="M131.5,210.5 L55.1,93.1 C102.7,33.9 174.1,1.3 247.1,1 C289.4,0.7 332.6,11.5 371.9,34.2 C415.3,59.4 448.3,95.6 469.3,137.2 L264,126.4 C205.9,123 150.6,155.7 131.5,210.5 Z M164.4,249 C164.4,295.2 201.8,332.6 248,332.6 C294.2,332.6 331.6,295.2 331.6,249 C331.6,202.8 294.2,165.4 248,165.4 C201.8,165.4 164.4,202.7 164.4,249 Z M479.3,159.8 L339.6,167 C377.5,211.3 378.1,275.2 346.2,324.2 L234.1,496.6 C280.6,499.1 328.5,488.9 371.9,463.7 C479.3,401.7 522.8,271.7 479.3,159.8 Z M133.7,296.6 L40.4,113.1 C14.9,152.1 0,198.9 0,249 C0,373 90.8,475.7 209.5,493.9 L273.2,369.1 C215.6,379.9 160,348.3 133.7,296.6 Z" id="Shape"></path>
            </g>
        </g>
    </g>
</svg>