<?xml version="1.0" encoding="UTF-8"?>
<svg width="560px" height="560px" viewBox="0 0 560 560" version="1.1" xmlns="http://www.w3.org/2000/svg" xmlns:xlink="http://www.w3.org/1999/xlink">
    <!-- Generator: sketchtool 51.2 (57519) - http://www.bohemiancoding.com/sketch -->
    <title>uA340-firefox</title>
    <desc>Created with sketchtool.</desc>
    <defs></defs>
    <g id="Page-1" stroke="none" stroke-width="1" fill="none" fill-rule="evenodd">
        <g id="uA340-firefox" fill="#000000" fill-rule="nonzero">
            <g id="firefox" transform="translate(40.000000, 32.000000)">
                <path d="M478.1,226.3 C477.4,221.8 476.7,219.2 476.7,219.2 C476.7,219.2 474.9,221.2 472,225.1 C471.1,214.4 469.2,203.9 466.2,193.5 C462.5,180.6 457.7,168.1 451.7,156.1 C447.9,148.1 443.5,140.5 438.4,133.3 C436.6,130.6 434.7,127.9 432.8,125.4 C424,111 413.8,102.1 402.1,85.4 C394.5,72.6 389.2,58.5 386.7,43.8 C383.5,52.7 381,61.8 379.3,71.1 C367.2,58.9 356.8,50.3 350.4,44.4 C319.4,15.2 323,0.1 323,0.1 C323,0.1 264.7,65.2 289.9,133 C298.6,156 313.7,176.1 333.3,190.9 C357.7,211.1 384.1,226.9 398,267.5 C386.8,246.2 369.9,228.3 349.2,216 C355.4,230.7 358.6,246.6 358.5,262.5 C358.5,323.5 308.9,373 247.9,372.9 C239.6,372.9 231.4,372 223.4,370.1 C213.9,368.3 204.7,365.2 196,360.8 C183.1,353 172,342.7 163.2,330.5 L163,330.2 L165,330.9 C169.6,332.5 174.2,333.7 179,334.6 C197.7,338.6 217.3,336.3 234.6,328 C252.1,318.3 262.6,311.1 271.2,314 L271.4,314 C279.8,316.7 286.4,308.5 280.4,300 C270,286.6 253,280 236.2,283 C218.7,285.5 202.7,298 179.8,285.9 C178.3,285.1 176.9,284.3 175.5,283.4 C173.9,282.5 180.4,284.7 178.9,283.7 C173.9,281.2 169.1,278.3 164.5,275.1 C164.2,274.8 168,276.2 167.6,275.9 C161.7,271.9 156.6,266.7 152.6,260.7 C148.5,253.3 148.1,244.3 151.6,236.6 C153.7,232.8 157,229.7 160.9,227.9 C163.9,229.4 165.7,230.5 165.7,230.5 C165.7,230.5 164.4,228 163.6,226.7 C163.9,226.6 164.1,226.7 164.4,226.5 C167,227.6 172.7,230.5 175.8,232.3 C177.9,233.4 179.6,235 181,237 C181,237 182,236.5 181.3,234.3 C180.2,231.6 178.4,229.3 175.9,227.7 L176.1,227.7 C178.4,228.9 180.6,230.3 182.7,231.8 C184.6,227.4 185.5,222.6 185.3,217.8 C185.5,215.2 185.1,212.5 184.2,210 C183.4,208.4 184.7,207.8 186.1,209.5 C185.9,208.2 185.4,207 184.9,205.8 L184.9,205.7 C184.9,205.7 185.7,204.6 186.1,204.2 C187.1,203.2 188.2,202.3 189.5,201.5 C196.7,197 204.3,193.1 212.2,189.9 C218.6,187.1 223.9,185 225,184.3 C226.6,183.3 228.1,182.1 229.5,180.8 C234.8,176.3 238.5,170 239.7,163.1 C239.8,162.2 239.9,161.3 240,160.3 L240,158.8 C239.1,155.3 233.1,152.7 201.6,149.7 C190.5,147.9 181.6,139.6 179.1,128.6 L179.1,128.7 C178.7,129.8 178.2,131 177.8,132.2 C178.2,131 178.6,129.9 179.1,128.7 L179.1,128.5 C185.1,112.8 195.9,99.4 209.9,90.2 C210.7,89.5 206.7,90.4 207.5,89.7 C210.2,88.4 212.9,87.2 215.7,86.2 C217.1,85.6 209.7,82.8 203.1,83.5 C199.1,83.7 195.1,84.7 191.4,86.3 C193,85 197.6,83.2 196.5,83.2 C188.1,84.8 180,87.9 172.6,92.2 C172.6,91.4 172.7,90.7 173.1,90 C167.2,92.5 162.1,96.5 158.1,101.5 C158.2,100.6 158.3,99.7 158.3,98.8 C155.6,100.8 153.1,103.1 151,105.7 L150.9,105.8 C133.5,99.1 114.6,97.5 96.3,101.1 L96.1,101 L96.3,101 C92.5,97.9 89.2,94.3 86.6,90.1 L86.4,90.2 L86,90 C84.8,88.2 83.6,86.2 82.3,84 C81.4,82.4 80.5,80.6 79.6,78.8 C79.6,78.7 79.5,78.6 79.4,78.6 C79,78.6 78.8,80.3 78.5,79.9 L78.5,79.8 C75.3,71.5 73.8,62.6 74.1,53.6 L73.9,53.7 C68.8,57.2 64.9,62.3 62.8,68.2 C61.9,70.3 61.2,71.5 60.6,72.7 L60.6,72.2 C60.7,71.1 61.2,68.9 61.1,69.1 C61,69.3 60.9,69.4 60.8,69.5 C59.3,71.2 57.9,73.2 56.9,75.3 C56,77.2 55.2,79.2 54.6,81.2 C54.5,81.5 54.6,80.9 54.6,80.2 C54.6,79.5 54.7,78.2 54.6,78.5 L54.3,79.2 C47.6,94.1 43.4,110 41.9,126.3 C41.5,129.1 41.3,131.9 41.4,134.6 L41.4,134.8 C36.6,140 32.4,145.8 28.7,151.9 C16.6,172.3 7.6,194.4 1.9,217.5 C5.9,208.7 10.7,200.3 16.2,192.4 C5.5,219.5 0,248.4 0,277.6 C1.8,269 4.2,260.6 7,252.3 C5.3,286.8 11.9,321.2 26.4,352.6 C45.8,396.1 78,432.6 118.7,457.3 C135.3,468.5 153.4,477.2 172.5,483.1 C175,484 177.6,484.9 180.2,485.8 C179.4,485.5 178.6,485.1 177.8,484.8 C200.4,491.6 224,495.1 247.6,495.1 C331.3,495.1 358.9,463.2 361.4,460.1 C365.5,456.4 368.9,451.9 371.3,446.8 C372.9,446.1 374.5,445.4 376.2,444.7 L377.2,444.2 L379.1,443.3 C391.7,437.4 403.6,429.9 414.4,421.2 C430.7,409.5 442.3,392.5 447.3,373.1 C450.3,366 450.4,358.1 447.7,350.9 C448.6,349.5 449.4,348.1 450.4,346.6 C468.4,317.7 478.6,284.7 480,250.7 L480,247.9 C480,240.6 479.4,233.4 478.1,226.3 Z" id="Shape"></path>
            </g>
        </g>
    </g>
</svg>