<?xml version="1.0" encoding="UTF-8"?>
<svg width="560px" height="560px" viewBox="0 0 560 560" version="1.1" xmlns="http://www.w3.org/2000/svg" xmlns:xlink="http://www.w3.org/1999/xlink">
    <!-- Generator: sketchtool 51.2 (57519) - http://www.bohemiancoding.com/sketch -->
    <title>uA347-apple-pay</title>
    <desc>Created with sketchtool.</desc>
    <defs></defs>
    <g id="Page-1" stroke="none" stroke-width="1" fill="none" fill-rule="evenodd">
        <g id="uA347-apple-pay" fill="#000000" fill-rule="nonzero">
            <g id="apple-pay" transform="translate(0.000000, 165.000000)">
                <path d="M103.00156,30.1404056 C96.449298,37.9157566 85.9656786,44.0312012 75.4820593,43.1575663 C74.1716069,32.673947 79.326053,21.4914197 85.3541342,14.6770671 C91.9063963,6.72698908 103.351014,1.04836193 112.698908,0.611544462 C113.74727,11.4446178 109.466459,22.1903276 103.00156,30.1404056 Z M112.524181,45.1669267 C97.3229329,44.2932917 84.3057722,53.8159126 77.1419657,53.8159126 C69.8034321,53.8159126 58.7956318,45.6037441 46.7394696,45.8658346 C31.1014041,46.1279251 16.599064,54.9516381 8.64898596,69.0171607 C-7.77535101,97.2355694 4.36817473,138.907956 20.2683307,161.884555 C28.0436817,173.24181 37.3042122,185.734789 49.5351014,185.297972 C61.1544462,184.861154 65.6973479,177.784711 79.675507,177.784711 C93.7410296,177.784711 97.8471139,185.297972 110.078003,185.123245 C122.74571,184.861154 130.695788,173.765991 138.471139,162.408736 C147.294852,149.478939 150.964119,136.985959 151.138846,136.287051 C150.876755,136.024961 126.677067,126.764431 126.414977,98.8081123 C126.152886,75.3946958 145.547582,64.299532 146.421217,63.600624 C135.50078,47.351014 118.464899,45.6037441 112.524181,45.1669267 Z M200.237129,13.5413417 L200.237129,183.812793 L226.708268,183.812793 L226.708268,125.628705 L263.313573,125.628705 C296.773791,125.628705 320.187207,102.652106 320.187207,69.4539782 C320.187207,36.2558502 297.123245,13.5413417 264.187207,13.5413417 L200.237129,13.5413417 Z M226.708268,35.8190328 L257.198128,35.8190328 C280.174727,35.8190328 293.279251,48.049922 293.279251,69.5413417 C293.279251,91.0327613 280.174727,103.438378 257.110764,103.438378 L226.708268,103.438378 L226.708268,35.8190328 Z M368.411856,185.123245 C385.01092,185.123245 400.386895,176.736349 407.375975,163.369735 L407.900156,163.369735 L407.900156,183.812793 L432.361934,183.812793 L432.361934,99.0702028 C432.361934,74.5210608 412.705148,58.6209048 382.477379,58.6209048 C354.433697,58.6209048 333.641186,74.6957878 332.854914,96.7113885 L356.705148,96.7113885 C358.714509,86.2277691 368.411856,79.326053 381.691108,79.326053 C397.853354,79.326053 406.939158,86.8393136 406.939158,100.730109 L406.939158,110.165367 L373.915757,112.174727 C343.25117,114.00936 326.652106,126.589704 326.652106,148.430577 C326.73947,170.446178 343.862715,185.123245 368.411856,185.123245 Z M375.575663,164.942278 C361.51014,164.942278 352.5117,158.127925 352.5117,147.819033 C352.5117,137.073323 361.160686,130.870515 377.672387,129.909516 L407.026521,128.074883 L407.026521,137.684867 C407.026521,153.585023 393.485179,164.942278 375.575663,164.942278 Z M465.123245,230.115445 C490.895476,230.115445 503.039002,220.24337 513.609984,190.452418 L560,60.2808112 L533.092044,60.2808112 L501.99064,160.836193 L501.466459,160.836193 L470.365055,60.2808112 L442.75819,60.2808112 L487.4883,184.24961 L485.042122,191.762871 C481.023401,204.517941 474.471139,209.49766 462.764431,209.49766 C460.667707,209.49766 456.648986,209.235569 454.98908,209.060842 L454.98908,229.5039 C456.561622,229.853354 463.113885,230.115445 465.123245,230.115445 Z" id="Shape"></path>
            </g>
        </g>
    </g>
</svg>