<?xml version="1.0" encoding="UTF-8"?>
<svg width="560px" height="560px" viewBox="0 0 560 560" version="1.1" xmlns="http://www.w3.org/2000/svg" xmlns:xlink="http://www.w3.org/1999/xlink">
    <!-- Generator: sketchtool 51.2 (57519) - http://www.bohemiancoding.com/sketch -->
    <title>uA350-linux</title>
    <desc>Created with sketchtool.</desc>
    <defs></defs>
    <g id="Page-1" stroke="none" stroke-width="1" fill="none" fill-rule="evenodd">
        <g id="uA350-linux" fill="#000000">
            <g id="linux" transform="translate(96.000000, 50.000000)">
                <path d="M52.5301568,356.136944 L50.2049817,355.714184 C39.741694,355.714184 19.3224294,368.819717 7.67541615,386.364219 C3.59579083,392.494226 -2.63990591,404.120101 1.37630555,413.843561 C13.5094917,443.013939 54.3691588,460.347062 86.8370578,460.347062 C99.9425899,460.347062 110.511567,457.599128 116.641574,452.547156 C112.625363,423.799538 78.4030137,363.746607 52.5301568,356.136944" id="Fill-1766"></path>
                <path d="M366.724721,364.380746 C363.152406,340.706236 314.598523,337.958302 291.57929,343.686688 C279.572932,362.710848 277.564826,431.176684 288.112666,457.197507 C302.909234,459.290164 326.478054,446.396012 343.895729,426.124713 C361.017473,406.255035 369.557206,383.193526 366.724721,364.380746" id="Fill-1767"></path>
                <path d="M219.393174,164.415691 C215.968825,170.757078 210.303853,174.35053 202.060051,175.618807 C195.063388,176.675705 188.637449,174.583048 183.500926,169.4888 C175.806711,161.667757 171.240912,147.716707 170.395394,129.326686 C182.549718,125.099095 205.188468,119.835744 218.061483,118.12357 C223.663041,133.342897 225.73456,152.599574 219.393174,164.415691 L219.393174,164.415691 Z M282.1729,324.430011 C290.818324,321.703215 302.824682,320.012178 315.063558,320.012178 C325.653674,320.012178 335.271443,321.047938 343.832315,322.950354 C358.015883,240.935089 288.514287,165.895348 264.945467,140.529802 C258.794322,133.977036 256.469147,131.461619 255.243146,128.713685 C251.459452,120.237365 246.048135,76.2704187 243.892064,57.8803979 C243.807512,25.7718441 218.568794,0.385160135 187.538276,0.385160135 C157.522379,0.385160135 133.826732,24.5035668 131.226763,57.4787767 C130.888556,61.9177473 133.192593,86.6280167 135.031595,106.286315 C136.701494,124.274715 138.434806,142.876115 139.21691,155.326371 C139.407152,158.497064 138.244564,161.477516 136.025079,163.570173 C102.775076,195.911244 51.6423626,266.955911 51.8326042,334.998988 C54.284607,334.998988 56.652058,335.210368 58.8081294,336.055886 C91.889029,345.779346 128.457691,406.868036 136.468976,444.091974 C159.530485,452.124397 208.591679,455.908091 262.218671,437.306691 C257.145562,398.412854 261.732498,344.933827 277.437998,327.389325 C278.706276,325.930806 280.333898,324.85277 282.1729,324.430011 L282.1729,324.430011 Z" id="Fill-1768"></path>
            </g>
        </g>
    </g>
</svg>