<?xml version="1.0" encoding="UTF-8"?>
<svg width="560px" height="560px" viewBox="0 0 560 560" version="1.1" xmlns="http://www.w3.org/2000/svg" xmlns:xlink="http://www.w3.org/1999/xlink">
    <!-- Generator: sketchtool 51.2 (57519) - http://www.bohemiancoding.com/sketch -->
    <title>uA353-whatsapp-square</title>
    <desc>Created with sketchtool.</desc>
    <defs></defs>
    <g id="Page-1" stroke="none" stroke-width="1" fill="none" fill-rule="evenodd">
        <g id="uA353-whatsapp-square" fill="#000000" fill-rule="nonzero">
            <g id="whatsapp-square" transform="translate(56.000000, 56.000000)">
                <path d="M224,90.8 C151.3,90.8 92.2,149.9 92.1,222.6 C92.1,247.5 99.1,271.8 112.3,292.7 L115.4,297.7 L102.1,346.3 L152,333.2 L156.8,336.1 C177,348.1 200.2,354.5 223.9,354.5 L224,354.5 C296.6,354.5 357.3,295.4 357.3,222.7 C357.3,187.5 342.1,154.4 317.2,129.5 C292.2,104.5 259.2,90.8 224,90.8 Z M301.5,279.2 C298.2,288.5 282.4,296.9 274.8,298 C262.2,299.9 252.4,298.9 227.3,288.1 C187.6,270.9 161.6,230.9 159.6,228.3 C157.6,225.7 143.4,206.8 143.4,187.3 C143.4,167.8 153.6,158.2 157.3,154.2 C160.9,150.2 165.2,149.2 167.9,149.2 C170.5,149.2 173.2,149.2 175.5,149.3 C177.9,149.4 181.2,148.4 184.4,156.1 C187.7,164 195.6,183.5 196.6,185.5 C197.6,187.5 198.3,189.8 196.9,192.4 C189.3,207.6 181.2,207 185.3,214 C200.6,240.3 215.9,249.4 239.2,261.1 C243.2,263.1 245.5,262.8 247.8,260.1 C250.1,257.5 257.7,248.5 260.3,244.6 C262.9,240.6 265.6,241.3 269.2,242.6 C272.8,243.9 292.3,253.5 296.3,255.5 C300.3,257.5 302.9,258.5 303.9,260.1 C304.8,262 304.8,270 301.5,279.2 Z M400,0 L48,0 C21.5,0 0,21.5 0,48 L0,400 C0,426.5 21.5,448 48,448 L400,448 C426.5,448 448,426.5 448,400 L448,48 C448,21.5 426.5,0 400,0 Z M223.9,381.2 C197.3,381.2 171.2,374.5 148.1,361.9 L64,384 L86.5,301.8 C72.6,277.8 65.3,250.5 65.3,222.5 C65.4,135.1 136.5,64 223.9,64 C266.3,64 306.1,80.5 336.1,110.5 C366,140.5 384,180.3 384,222.7 C384,310.1 311.3,381.2 223.9,381.2 Z" id="Shape"></path>
            </g>
        </g>
    </g>
</svg>