<?xml version="1.0" encoding="UTF-8"?>
<svg width="560px" height="560px" viewBox="0 0 560 560" version="1.1" xmlns="http://www.w3.org/2000/svg" xmlns:xlink="http://www.w3.org/1999/xlink">
    <!-- Generator: sketchtool 51.2 (57519) - http://www.bohemiancoding.com/sketch -->
    <title>uA354-viber</title>
    <desc>Created with sketchtool.</desc>
    <defs></defs>
    <g id="Page-1" stroke="none" stroke-width="1" fill="none" fill-rule="evenodd">
        <g id="uA354-viber" fill="#000000" fill-rule="nonzero">
            <g id="viber" transform="translate(37.000000, 24.000000)">
                <path d="M431,49.9 C418.3,38.2 366.9,0.9 252.3,0.4 C252.3,0.4 117.2,-7.7 51.4,52.7 C14.8,89.3 1.9,143 0.5,209.5 C-0.9,276 -2.6,400.6 117.5,434.4 L117.6,434.4 L117.5,486 C117.5,486 116.7,506.9 130.5,511.1 C147.1,516.3 156.9,500.4 172.8,483.3 C181.5,473.9 193.5,460.1 202.6,449.6 C284.8,456.5 347.9,440.7 355.1,438.4 C371.7,433 465.6,421 480.8,296.4 C496.6,167.8 473.2,86.6 431,49.9 Z M444.9,287 C432,391 355.9,397.6 341.9,402.1 C335.9,404 280.4,417.8 210.7,413.3 C210.7,413.3 158.7,476 142.5,492.3 C137.2,497.6 131.4,497.1 131.5,486.6 C131.5,479.7 131.9,400.9 131.9,400.9 C131.8,400.9 131.8,400.9 131.9,400.9 C30.1,372.7 36.1,266.6 37.2,211.1 C38.3,155.6 48.8,110.1 79.8,79.5 C135.5,29 250.2,36.5 250.2,36.5 C347.1,36.9 393.5,66.1 404.3,75.9 C440,106.5 458.2,179.7 444.9,287 Z M305.9,206.2 C306.3,214.8 293.4,215.4 293,206.8 C291.9,184.8 281.6,174.1 260.4,172.9 C251.8,172.4 252.6,159.5 261.1,160 C289,161.5 304.5,177.5 305.9,206.2 Z M326.2,217.5 C327.2,175.1 300.7,141.9 250.4,138.2 C241.9,137.6 242.8,124.7 251.3,125.3 C309.3,129.5 340.2,169.4 339.1,217.8 C339,226.4 326,226 326.2,217.5 Z M373.2,230.9 C373.3,239.5 360.3,239.6 360.3,231 C359.7,149.5 305.4,105.1 239.5,104.6 C231,104.5 231,91.7 239.5,91.7 C313.2,92.2 372.5,143.1 373.2,230.9 Z M361.9,329 L361.9,329.2 C351.1,348.2 330.9,369.2 310.1,362.5 L309.9,362.2 C288.8,356.3 239.1,330.7 207.7,305.7 C191.5,292.9 176.7,277.8 165.3,263.3 C155,250.4 144.6,235.1 134.5,216.7 C113.2,178.2 108.5,161 108.5,161 C101.8,140.2 122.7,120 141.8,109.2 L142,109.2 C151.2,104.4 160,106 165.9,113.1 C165.9,113.1 178.3,127.9 183.6,135.2 C188.6,142 195.3,152.9 198.8,159 C204.9,169.9 201.1,181 195.1,185.6 L183.1,195.2 C177,200.1 177.8,209.2 177.8,209.2 C177.8,209.2 195.6,276.5 262.1,293.5 C262.1,293.5 271.2,294.3 276.1,288.2 L285.7,276.2 C290.3,270.2 301.4,266.4 312.3,272.5 C327,280.8 345.7,293.7 358.1,305.4 C365.1,311.1 366.7,319.8 361.9,329 Z" id="Shape"></path>
            </g>
        </g>
    </g>
</svg>