<?xml version="1.0" encoding="UTF-8"?>
<svg width="560px" height="560px" viewBox="0 0 560 560" version="1.1" xmlns="http://www.w3.org/2000/svg" xmlns:xlink="http://www.w3.org/1999/xlink">
    <!-- Generator: sketchtool 51.2 (57519) - http://www.bohemiancoding.com/sketch -->
    <title>uA367-mail-incoming</title>
    <desc>Created with sketchtool.</desc>
    <defs></defs>
    <g id="Page-1" stroke="none" stroke-width="1" fill="none" fill-rule="evenodd">
        <g id="uA367-mail-incoming" fill="#000000" fill-rule="nonzero">
            <g id="mail-dixa" transform="translate(24.000000, 88.000000)">
                <path d="M464,0 L48,0 C21.5,0 0,21.5 0,48 L0,336 C0,362.5 21.5,384 48,384 L464,384 C490.5,384 512,362.5 512,336 L512,48 C512,21.5 490.5,0 464,0 Z M48,32 L464,32 C472.8,32 480,39.2 480,48 L480,89.4 C458.1,107.9 426.8,133.4 329.4,210.7 C312.5,224.1 279.2,256.4 256,256 C232.8,256.4 199.4,224.1 182.6,210.7 C85.2,133.4 53.9,107.9 32,89.4 L32,48 C32,39.2 39.2,32 48,32 Z M464,352 L48,352 C39.2,352 32,344.8 32,336 L32,131 C54.8,149.7 90.8,178.6 162.7,235.7 C183.2,252.1 219.4,288.2 256,288 C292.4,288.3 328.3,252.5 349.3,235.7 C421.2,178.6 457.2,149.7 480,131 L480,336 C480,344.8 472.8,352 464,352 Z M344.5,127.5 C349.2,132.2 349.2,139.7 344.4,144.5 L263.4,225.6 C258.7,230.3 251.1,230.3 246.4,225.6 L165.4,144.5 C160.7,139.8 160.7,132.2 165.4,127.5 L172.5,120.4 C177.2,115.7 184.8,115.7 189.5,120.4 L238,168.9 L238,62 C238,55.4 243.4,50 250,50 L260,50 C266.6,50 272,55.4 272,62 L272,168.9 L320.4,120.4 C325.1,115.7 332.7,115.7 337.4,120.4 L344.5,127.5 Z" id="Combined-Shape"></path>
            </g>
        </g>
    </g>
</svg>