<?xml version="1.0" encoding="UTF-8"?>
<svg width="560px" height="560px" viewBox="0 0 560 560" version="1.1" xmlns="http://www.w3.org/2000/svg" xmlns:xlink="http://www.w3.org/1999/xlink">
    <!-- Generator: sketchtool 51.2 (57519) - http://www.bohemiancoding.com/sketch -->
    <title>uA369-jabra-headset</title>
    <desc>Created with sketchtool.</desc>
    <defs></defs>
    <g id="Page-1" stroke="none" stroke-width="1" fill="none" fill-rule="evenodd">
        <g id="uA369-jabra-headset" fill="#000000">
            <g id="headset" transform="translate(82.000000, 23.000000)">
                <path d="M42,421 L355,421 C364.388841,421 372,428.611159 372,438 L372,496 C372,505.388841 364.388841,513 355,513 L42,513 C32.6111593,513 25,505.388841 25,496 L25,438 C25,428.611159 32.6111593,421 42,421 Z M105.354939,440.043648 C105.025645,440.416703 104.981739,442.413644 104.937833,462.624442 C104.871974,484.612737 104.871974,484.832181 104.410962,485.446624 C103.291361,487.004677 100.547242,487.684954 94.6638497,487.860509 C87.9462453,488.058009 83.8849485,487.399677 82.1945709,485.863568 C81.4481704,485.161347 81.4042645,485.07357 81.2944997,483.230239 C81.1847349,481.672187 81.0749702,481.233298 80.7237229,480.99191 C80.3944285,480.750522 79.2089689,480.684688 74.8622837,480.684688 C68.0129616,480.684688 68.5398325,480.355522 68.5398325,484.634681 C68.5398325,486.763289 68.6276444,487.948287 68.8471739,488.453008 C70.1643513,491.613003 75.0379074,493.346611 84.8728315,494.092721 C89.3731874,494.443831 101.535125,494.224387 105.201268,493.763554 C111.874967,492.885778 115.628922,491.393559 117.011958,489.045507 L117.604688,488.036064 L117.670547,464.35805 C117.714453,443.335309 117.6925,440.614203 117.385159,440.175314 L117.055864,439.648649 L111.370049,439.648649 C106.189151,439.648649 105.684233,439.692537 105.354939,440.043648 Z M189.325375,440.269362 C189.018034,440.70825 188.974128,443.319635 188.974128,463.925432 C188.974128,483.675398 189.018034,487.27428 189.303422,488.195945 C190.159587,491.114551 194.198931,492.979826 201.750748,493.923435 C206.251104,494.49399 221.59622,494.49399 225.635564,493.923435 C232.880039,492.892048 236.436418,491.421773 237.709689,488.920111 C238.126795,488.108168 238.148748,487.581502 238.148748,475.007357 C238.148748,462.433212 238.126795,461.906547 237.709689,461.094604 C236.392512,458.505164 232.089733,456.815444 224.581822,455.981557 C221.705985,455.674335 208.161011,455.586558 204.297291,455.871835 L201.926372,456.04739 L201.926372,448.564348 C201.926372,441.147138 201.860513,440.401029 201.179971,439.96214 C201.048253,439.874363 198.391946,439.786585 195.296579,439.786585 C189.720528,439.786585 189.654669,439.786585 189.325375,440.269362 Z M220.871391,462.466129 C223.000828,462.926962 224.515582,463.71696 224.954641,464.550848 C225.240029,465.099458 225.283935,466.635566 225.283935,474.974441 C225.283935,486.07831 225.349794,485.683311 223.571605,486.583032 C221.815368,487.460808 219.59812,487.833863 215.075811,487.965529 C208.424065,488.163029 204.187145,487.482752 202.562626,485.968588 L201.794273,485.244423 L201.794273,475.040274 C201.794273,465.20918 201.816226,464.814181 202.233332,464.287515 C203.001685,463.300017 205.460416,462.466129 208.819219,462.049185 C210.751079,461.829741 219.290778,462.115019 220.871391,462.466129 Z M144.277529,455.838918 C135.29877,456.69475 130.534979,458.603914 129.612955,461.741964 C129.459284,462.202796 129.349519,463.475572 129.349519,464.594736 C129.349519,467.623065 129.020225,467.469454 135.671971,467.469454 C141.928563,467.469454 141.950516,467.469454 142.12614,465.823623 C142.411528,463.300017 145.001977,462.268629 151.543958,462.049185 C158.239609,461.829741 162.454576,462.553907 164.079095,464.177793 L164.913307,465.01168 L164.913307,468.456952 L164.913307,471.924168 L163.332695,471.770557 C162.454576,471.704724 159.007962,471.573058 155.693066,471.507224 C141.643175,471.178058 132.796133,472.692222 129.832484,475.896106 C128.53726,477.278603 128.427495,477.95888 128.515307,483.466926 C128.581166,488.163029 128.581166,488.206918 129.173896,489.21636 C130.534979,491.542467 134.398699,493.078576 141.116304,493.956352 C143.618941,494.285518 145.726424,494.351351 152.948947,494.351351 C162.081376,494.351351 164.496201,494.197741 168.755075,493.341909 C173.057854,492.464132 175.736115,491.169412 176.921574,489.369971 L177.536257,488.448306 L177.536257,475.040274 L177.536257,461.632242 L176.921574,460.710577 C175.428773,458.428358 171.301618,456.89225 164.474248,456.058362 C161.8838,455.729196 147.10946,455.575586 144.277529,455.838918 Z M157.844456,478.002769 C160.742246,478.331935 162.959494,478.990267 163.991283,479.868043 L164.803543,480.592209 L164.803543,482.94026 L164.803543,485.288312 L163.991283,486.012477 C162.300906,487.57053 158.261562,488.228862 151.522005,488.031362 C146.95579,487.899696 144.892212,487.57053 143.201834,486.736642 C141.68708,485.968588 141.335833,485.310256 141.248021,483.203593 C141.138257,480.328876 141.950516,479.363322 145.111742,478.551379 C147.899767,477.827213 153.827065,477.585825 157.844456,478.002769 Z M264.98809,456.628917 C256.29472,457.331138 251.399211,459.042802 249.928362,461.895575 C249.533209,462.707518 249.511256,463.321961 249.511256,478.178324 C249.511256,492.859132 249.533209,493.64913 249.90641,493.978296 C250.257657,494.307463 251.004057,494.351351 255.943472,494.351351 C261.49757,494.351351 261.563429,494.351351 261.892723,493.868574 C262.200065,493.429686 262.243971,491.718023 262.243971,479.692488 C262.243971,468.040008 262.287876,465.933345 262.573265,465.384735 C263.297712,463.980293 266.502844,463.036684 271.354447,462.839184 C275.525509,462.663629 275.415744,462.751406 275.415744,459.591412 C275.415744,456.233918 275.635273,456.387529 270.893435,456.409473 C268.85181,456.431417 266.195503,456.519195 264.98809,456.628917 Z M295.533393,455.571857 C288.310871,456.076579 282.866538,457.590743 280.890772,459.653517 C279.771171,460.794626 279.507735,461.716291 279.507735,464.283786 C279.507735,466.214894 279.573594,466.609894 279.902889,466.917115 C280.254136,467.246281 281.000536,467.29017 285.830187,467.29017 C291.076943,467.29017 291.384284,467.268226 291.801391,466.851282 C292.042873,466.609894 292.24045,466.127117 292.24045,465.754062 C292.24045,464.130176 293.316145,463.186566 296.10417,462.418512 C297.66283,461.979624 298.387277,461.935735 303.326692,461.935735 C309.25399,461.935735 311.054133,462.155179 313.073805,463.164622 C314.808088,464.042398 314.961759,464.415453 315.027618,468.321557 L315.093476,471.744885 L313.490911,471.591274 C312.612792,471.525441 309.122273,471.393774 305.741517,471.327941 C294.611369,471.064608 286.708305,471.964329 282.471384,473.96127 C280.539524,474.86099 279.661406,475.6071 279.068676,476.814042 C278.629617,477.735708 278.607664,478.064874 278.673523,483.024309 L278.739382,488.290967 L279.354065,489.212632 C281.110301,491.845961 286.137528,493.425958 294.830898,494.08429 C299.682502,494.435401 311.537098,494.237901 315.400818,493.73318 C321.87694,492.899292 325.74066,491.341239 327.101743,489.037077 L327.694473,488.027634 L327.694473,474.86099 L327.694473,461.694347 L327.101743,460.706848 C325.696754,458.314908 322.184281,456.910466 315.181288,455.966857 C312.876228,455.63769 298.606807,455.374358 295.533393,455.571857 Z M310.241873,478.152651 C312.503028,478.613484 314.193405,479.49126 314.698323,480.456814 C315.2691,481.554034 315.159335,484.560418 314.500747,485.438194 C313.381146,486.996247 310.637026,487.676524 304.753634,487.852079 C297.8165,488.049578 293.843015,487.369302 292.196544,485.723471 L291.362331,484.889584 L291.362331,482.804865 C291.362331,480.895702 291.406237,480.654314 291.911155,480.061815 C292.855132,478.94265 294.786993,478.240429 298.167748,477.823485 C300.494761,477.538208 308.244154,477.757652 310.241873,478.152651 Z M148.5,173.25 L148.5,271.971563 C148.5,285.638203 137.416641,296.721563 123.75,296.721563 L99,296.721563 C71.6589844,296.721563 49.5,274.562578 49.5,247.221563 L49.5,198 C49.5,170.658984 71.6589844,148.5 99,148.5 L123.75,148.5 C137.416641,148.5 148.5,159.583359 148.5,173.25 Z M123.75,271.971563 L123.75,173.25 L99,173.25 C85.3565625,173.25 74.25,184.356562 74.25,198 L74.25,247.221562 C74.25,260.865 85.3565625,271.971563 99,271.971563 L123.75,271.971563 Z M297,296.721563 L272.25,296.721563 C258.583359,296.721563 247.5,285.638203 247.5,271.971563 L247.5,173.25 C247.5,159.583359 258.583359,148.5 272.25,148.5 L297,148.5 C324.341016,148.5 346.5,170.658984 346.5,198 L346.5,247.221563 C346.5,274.562578 324.341016,296.721563 297,296.721563 Z M272.25,173.25 L272.25,271.971563 L297,271.971563 C310.643437,271.971563 321.75,260.865 321.75,247.221562 L321.75,198 C321.75,184.356562 310.643437,173.25 297,173.25 L272.25,173.25 Z M198,0 C307.178437,0 396,88.8292969 396,198 L396,334.125 C396,368.241328 368.249062,396 334.125,396 L185.625,396 C165.121172,396 148.5,379.378828 148.5,358.875 C148.5,338.371172 165.121172,321.75 185.625,321.75 L235.125,321.75 C255.628828,321.75 272.25,338.371172 272.25,358.875 C272.25,363.237187 271.360547,367.359609 269.976094,371.25 L334.125,371.25 C354.597891,371.25 371.25,354.597891 371.25,334.125 L371.25,198 C371.25,102.465 293.519531,24.75 198,24.75 C101.807578,24.75 27.4028906,104.561016 24.8196094,198 L24.75,216.5625 C24.75,219.981094 21.9810937,222.75 18.5625,222.75 L6.1875,222.75 C2.76890625,222.75 0,219.981094 0,216.5625 L0.07734375,198 C3.031875,91.1264062 88.1486719,0 198,0 Z M235.125,371.25 C241.946719,371.25 247.5,365.696719 247.5,358.875 C247.5,352.053281 241.946719,346.5 235.125,346.5 L185.625,346.5 C178.803281,346.5 173.25,352.053281 173.25,358.875 C173.25,365.696719 178.803281,371.25 185.625,371.25 L235.125,371.25 Z" id="Combined-Shape"></path>
            </g>
        </g>
    </g>
</svg>