<?xml version="1.0" encoding="UTF-8"?>
<svg width="560px" height="560px" viewBox="0 0 560 560" version="1.1" xmlns="http://www.w3.org/2000/svg" xmlns:xlink="http://www.w3.org/1999/xlink">
    <!-- Generator: sketchtool 51.2 (57519) - http://www.bohemiancoding.com/sketch -->
    <title>uA365-mail-dixa</title>
    <desc>Created with sketchtool.</desc>
    <defs></defs>
    <g id="Page-1" stroke="none" stroke-width="1" fill="none" fill-rule="evenodd">
        <g id="uA365-mail-dixa" fill="#000000" fill-rule="nonzero">
            <g id="mail-dixa" transform="translate(24.000000, 88.000000)">
                <path d="M464,0 L48,0 C21.5,0 0,21.5 0,48 L0,336 C0,362.5 21.5,384 48,384 L464,384 C490.5,384 512,362.5 512,336 L512,48 C512,21.5 490.5,0 464,0 Z M48,32 L464,32 C472.8,32 480,39.2 480,48 L480,89.4 C458.1,107.9 426.8,133.4 329.4,210.7 C312.5,224.1 279.2,256.4 256,256 C232.8,256.4 199.4,224.1 182.6,210.7 C85.2,133.4 53.9,107.9 32,89.4 L32,48 C32,39.2 39.2,32 48,32 Z M464,352 L48,352 C39.2,352 32,344.8 32,336 L32,131 C54.8,149.7 90.8,178.6 162.7,235.7 C183.2,252.1 219.4,288.2 256,288 C292.4,288.3 328.3,252.5 349.3,235.7 C421.2,178.6 457.2,149.7 480,131 L480,336 C480,344.8 472.8,352 464,352 Z M317.070672,88.4755171 C322.444666,97.7689902 325,107.892716 325,117.909312 C325,138.287997 314.383675,158.109609 295.413477,169.036805 L252.881002,193.515867 L244.199315,198.497383 L231.519376,205.808962 C230.581614,206.349966 229.412771,205.677729 229.412771,204.5984 L229.412771,175.595801 C229.412771,173.881731 228.958668,172.194443 228.096142,170.705345 L187.721326,101.01501 C186.235417,98.4546182 187.119439,95.1764594 189.690895,93.698074 L236.272674,66.9157309 C264.566752,50.6320663 300.733731,60.2737098 317.070672,88.4755171 Z M275.690919,134.996447 C282.032232,131.354048 285.552198,124.73881 285.552198,117.936095 C285.552198,114.615084 284.719229,111.213726 282.918941,108.133757 C277.464337,98.7331545 265.429278,95.5192733 255.995231,100.956089 L241.238244,109.419309 C239.951173,110.158502 239.510505,111.797581 240.252116,113.080456 L257.28499,142.503538 C258.029288,143.783734 259.671043,144.222964 260.958115,143.483772 L275.690919,134.996447 Z" id="Combined-Shape"></path>
            </g>
        </g>
    </g>
</svg>