<?xml version="1.0" encoding="UTF-8"?>
<svg width="560px" height="560px" viewBox="0 0 560 560" version="1.1" xmlns="http://www.w3.org/2000/svg" xmlns:xlink="http://www.w3.org/1999/xlink">
    <!-- Generator: sketchtool 51.2 (57519) - http://www.bohemiancoding.com/sketch -->
    <title>uA366-chat-dixa</title>
    <desc>Created with sketchtool.</desc>
    <defs></defs>
    <g id="Page-1" stroke="none" stroke-width="1" fill="none" fill-rule="evenodd">
        <g id="uA366-chat-dixa" fill="#000000" fill-rule="nonzero">
            <g id="chat-dixa" transform="translate(24.000000, 56.000000)">
                <path d="M257,0 C398.4,0 513,93.1 513,208 C513,322.9 398.4,416 257,416 C224.2,416 193,410.8 164,401.7 C134.9,422.3 86.4,448 24.9,448 C15.3,448 6.7,442.3 2.9,433.5 C-0.9,424.7 0.9,414.5 7.5,407.5 C8,407.1 39,373.7 53.9,334.3 C20.9,299.2 1,255.6 1,208 C1,93.1 115.6,0 257,0 Z M257,32 C133.5,32 33,111 33,208 C33,245.6 48.3,281.7 77.2,312.3 L90.9,326.9 L83.8,345.6 C72.8,374.8 55,400.1 43,415.2 C87.1,410.9 122.6,391.9 145.6,375.6 L158.6,366.4 L173.8,371.2 C200.7,379.7 228.7,384 257,384 C380.5,384 481,305 481,208 C481,111 380.5,32 257,32 Z M348.99109,140.71456 C357.129965,154.812822 361,170.170583 361,185.365827 C361,216.280431 344.921653,246.349951 316.191425,262.926582 L251.7763,300.061485 L238.627948,307.618478 L219.424273,318.710194 C218.004039,319.5309 216.233834,318.511112 216.233834,316.873764 L216.233834,272.876623 C216.233834,270.276368 215.546099,267.716741 214.239809,265.457769 L153.092443,159.737056 C150.842044,155.852924 152.180889,150.879935 156.075341,148.637214 L226.623107,108.008218 C269.474283,83.3057876 324.248911,97.9322264 348.99109,140.71456 Z M286.321754,211.287127 C295.925626,205.761584 301.256589,195.726221 301.256589,185.406456 C301.256589,180.368461 299.995064,175.208578 297.268541,170.536244 C289.007583,156.275466 270.780573,151.399986 256.492778,159.647672 L234.143428,172.486435 C232.194167,173.607796 231.526779,176.09429 232.649944,178.040419 L258.446108,222.675435 C259.573342,224.617501 262.059768,225.283817 264.009029,224.162456 L286.321754,211.287127 Z" id="Combined-Shape"></path>
            </g>
        </g>
    </g>
</svg>