<?xml version="1.0" encoding="UTF-8"?>
<svg width="560px" height="560px" viewBox="0 0 560 560" version="1.1" xmlns="http://www.w3.org/2000/svg" xmlns:xlink="http://www.w3.org/1999/xlink">
    <!-- Generator: sketchtool 51.2 (57519) - http://www.bohemiancoding.com/sketch -->
    <title>uA362-url-trigger</title>
    <desc>Created with sketchtool.</desc>
    <defs></defs>
    <g id="Page-1" stroke="none" stroke-width="1" fill="none" fill-rule="evenodd">
        <g id="uA362-url-trigger" fill="#000000" fill-rule="nonzero">
            <g id="url-trigger" transform="translate(24.000000, 24.000000)">
                <path d="M509.3,498 L498,509.3 C493.3,514 485.7,514 481,509.3 L352,380.3 C349.7,378 348.5,375 348.5,371.8 L348.5,363.3 C311.6,396.7 262.7,417 209,417 C94.8,417 2.5,325.9 1,211.7 C-0.5,94.7 94.7,-0.5 211.7,1 C325.9,2.5 417,94.8 417,209 C417,262.7 396.7,311.6 363.3,348.5 L371.8,348.5 C375,348.5 378,349.8 380.3,352 L509.3,481 C514,485.7 514,493.3 509.3,498 Z M384.982514,208.982514 C384.982514,111.682514 306.282514,32.982514 208.982514,32.982514 C111.682514,32.982514 32.982514,111.682514 32.982514,208.982514 C32.982514,306.282514 111.682514,384.982514 208.982514,384.982514 C306.282514,384.982514 384.982514,306.282514 384.982514,208.982514 Z M144.844,183.1 L162.092,183.1 L144.844,237 L125.363,237 L116.662,208.202 L107.499,237 L88.018,237 L70.77,183.1 L89.481,183.1 L98.875,213.746 L108.808,183.1 L125.517,183.1 L134.911,214.131 L144.844,183.1 Z M237.706,183.1 L254.954,183.1 L237.706,237 L218.225,237 L209.524,208.202 L200.361,237 L180.88,237 L163.632,183.1 L182.343,183.1 L191.737,213.746 L201.67,183.1 L218.379,183.1 L227.773,214.131 L237.706,183.1 Z M330.568,183.1 L347.816,183.1 L330.568,237 L311.087,237 L302.386,208.202 L293.223,237 L273.742,237 L256.494,183.1 L275.205,183.1 L284.599,213.746 L294.532,183.1 L311.241,183.1 L320.635,214.131 L330.568,183.1 Z" id="Combined-Shape"></path>
            </g>
        </g>
    </g>
</svg>