<?xml version="1.0" encoding="UTF-8"?>
<svg width="560px" height="560px" viewBox="0 0 560 560" version="1.1" xmlns="http://www.w3.org/2000/svg" xmlns:xlink="http://www.w3.org/1999/xlink">
    <!-- Generator: sketchtool 51.2 (57519) - http://www.bohemiancoding.com/sketch -->
    <title>uA361-widget-position</title>
    <desc>Created with sketchtool.</desc>
    <defs></defs>
    <g id="Page-1" stroke="none" stroke-width="1" fill="none" fill-rule="evenodd">
        <g id="uA361-widget-position" fill="#000000" fill-rule="nonzero">
            <g id="chat-widget-position" transform="translate(0.000000, 84.000000)">
                <path d="M553,364 L532,364 L532,28 C532,12.53875 519.46125,0 504,0 L56,0 C40.53875,0 28,12.53875 28,28 L28,364 L7,364 C3.1325,364 0,367.1325 0,371 L0,385 C0,388.8675 3.1325,392 7,392 L553,392 C556.8675,392 560,388.8675 560,385 L560,371 C560,367.1325 556.8675,364 553,364 Z M252,364 L252,308 L420,308 L420,364 L252,364 Z M176,364 L56.2687665,364 L56.2687665,292.317555 L112.268766,292.317555 C127.730016,292.317555 140.268766,279.778805 140.268766,264.317555 L140.268766,96.3175548 C140.268766,80.8563048 127.730016,68.3175548 112.268766,68.3175548 L56.2687665,68.3175548 L56.2687665,28 L176,28 L504,28 L504,364 L448,364 L448,308 C448,292.53875 435.46125,280 420,280 L252,280 C236.53875,280 224,292.53875 224,308 L224,364 L176,364 Z M56.5005306,94.9097498 L112.500531,94.9097498 L112.500531,262.90975 L56.5005306,262.90975 L56.5005306,94.9097498 Z" id="Shape"></path>
            </g>
        </g>
    </g>
</svg>