<?xml version="1.0" encoding="UTF-8"?>
<svg width="560px" height="560px" viewBox="0 0 560 560" version="1.1" xmlns="http://www.w3.org/2000/svg" xmlns:xlink="http://www.w3.org/1999/xlink">
    <!-- Generator: sketchtool 51.2 (57519) - http://www.bohemiancoding.com/sketch -->
    <title>uA372-simultaneous</title>
    <desc>Created with sketchtool.</desc>
    <defs></defs>
    <g id="Page-1" stroke="none" stroke-width="1" fill="none" fill-rule="evenodd">
        <g id="uA372-simultaneous" fill="#000000" fill-rule="nonzero">
            <g id="simultaneous" transform="translate(36.000000, 56.000000)">
                <path d="M351.536,443.535 L358.607,436.465 C363.293,431.779 363.293,424.181 358.607,419.494 L180.113,241 C336.618275,241 420.494184,241 431.740726,241 C448.610539,241 463.449726,255.081525 463.449726,273.794075 C463.449726,275.629784 465.78947,278.794075 468.283964,278.794075 C474.142151,278.794075 482.168813,278.794075 492.36395,278.794075 C496.04082,278.794075 498.026744,276.794075 498.026744,273.794075 C498.026744,242.789453 474.913821,207 431.279557,207 C402.190047,207 318.467862,207 180.113,207 L358.607,28.506 C363.293,23.82 363.293,16.222 358.607,11.535 L351.536,4.465 C346.85,-0.221 339.252,-0.221 334.566,4.465 L123.515,215.515 C118.829,220.201 118.829,227.799 123.515,232.486 L334.566,443.536 C339.252,448.222 346.85,448.222 351.536,443.535 Z" id="Shape"></path>
                <path d="M231.536,443.535 L238.607,436.465 C243.293,431.779 243.293,424.181 238.607,419.494 L60.113,241 L43.4967522,224.000438 L60.113,207 L238.607,28.506 C243.293,23.82 243.293,16.222 238.607,11.535 L231.536,4.465 C226.85,-0.221 219.252,-0.221 214.566,4.465 L3.515,215.515 C-1.171,220.201 -1.171,227.799 3.515,232.486 L214.566,443.536 C219.252,448.222 226.85,448.222 231.536,443.535 Z" id="Shape"></path>
            </g>
        </g>
    </g>
</svg>