<?xml version="1.0" encoding="UTF-8"?>
<svg width="560px" height="560px" viewBox="0 0 560 560" version="1.1" xmlns="http://www.w3.org/2000/svg" xmlns:xlink="http://www.w3.org/1999/xlink">
    <!-- Generator: sketchtool 51.2 (57519) - http://www.bohemiancoding.com/sketch -->
    <title>uA370-busylight</title>
    <desc>Created with sketchtool.</desc>
    <defs></defs>
    <g id="Page-1" stroke="none" stroke-width="1" fill="none" fill-rule="evenodd">
        <g id="uA370-busylight" fill="#000000" fill-rule="nonzero">
            <g id="busylight" transform="translate(30.000000, 51.000000)">
                <path d="M165.964075,457.699109 C173.08088,460.9651 181.026266,462.782895 190.17432,463.475189 C199.209598,464.158948 206.276289,463.897983 224.39311,462.635052 C236.577314,461.785687 242.677613,461.474393 249.89935,461.474393 C257.193353,461.474393 263.360562,461.804004 275.661041,462.702331 C293.40423,463.998149 300.299132,464.281055 309.15134,463.670323 C318.764077,463.007122 327.034918,461.098632 334.419489,457.565116 C332.091671,465.151734 325.909869,469.212971 316.638566,470.711472 C315.450378,470.903516 314.248762,471 313.045218,471 L187.140623,471 C177.424975,471 169.143347,465.87516 165.964075,457.699109 Z M159.601298,412.461257 C189.059916,422.222437 204.599454,421.898539 221.680446,420.707816 C235.317107,419.757199 241.877792,419.452721 249.89935,419.452721 C258.042,419.452721 264.703159,419.776496 278.502284,420.784272 C295.235349,422.006319 333.215427,413.581689 348.234811,407.695398 C363.254195,401.809107 376.829907,390.279259 376.829907,380.066338 C376.829907,369.853417 372.122808,306.677009 368.166751,270.224607 C362.738453,220.206503 356.078943,177.687896 348.234811,142.753533 C347.324469,138.699263 344.395209,135.417917 340.505138,134.071754 C317.587955,126.141236 287.292487,122 249.786615,122 C212.574645,122 182.457894,126.076528 159.601298,133.88838 C155.644733,135.240641 152.676713,138.591276 151.799334,142.720183 C142.867329,184.753794 136.084895,227.116148 131.451329,269.811341 C127.85791,302.922276 123.023709,370.931534 123.023709,383.845328 C123.023709,396.759123 130.14268,402.700077 159.601298,412.461257 Z M163.804485,445.600468 C119.235236,429.685539 95.2679512,412.694545 91.9026298,394.627486 C91.1482947,390.577764 90.8652551,386.45403 91.0591848,382.33895 C93.1100318,338.821109 95.9696797,300.161046 99.6381287,266.35876 C104.388295,222.58918 111.341662,179.159194 120.49823,136.0688 C123.714765,120.931932 134.635049,108.603888 149.252199,103.608086 C175.796015,94.5360288 209.307487,90 249.786615,90 C290.596293,90 324.324055,94.6104133 350.969903,103.831239 C365.341411,108.804516 376.119747,120.878372 379.457402,135.742839 C387.589475,171.959567 394.430325,215.635963 399.979951,266.772027 C404.144197,305.142753 407.144476,343.687464 408.980788,382.40616 C409.834264,400.401729 385.453846,421.533159 335.839536,445.800451 C324.948617,450.545351 315.891774,453.166958 308.669006,453.66527 C300.270808,454.244679 293.564277,453.969502 276.171473,452.699273 C263.706352,451.788922 257.41584,451.452721 249.89935,451.452721 C242.465178,451.452721 236.247235,451.770018 223.905778,452.630346 C206.14742,453.868288 199.274034,454.122115 190.703133,453.473498 C183.578037,452.934294 174.611821,450.309951 163.804485,445.600468 Z M239.582937,399.427913 L233.582937,322.295079 C233.582937,311.28134 238.471347,302.352941 249.435756,302.352941 C260.400166,302.352941 266.288576,311.28134 266.288576,322.295079 L259.288576,399.541084 C260.885938,399.645602 272.595366,399.761396 274.441241,399.88921 C292.245413,401.122024 299.134641,399.37473 307.717508,398.729563 C318.766883,397.89899 320.493972,405.427934 308.284889,406.345682 C299.203773,407.028303 292.107158,408.767989 273.918371,407.508543 C261.699642,406.662482 255.583414,406.352468 248.34536,406.352468 C241.035153,406.352468 234.851992,406.680716 222.516865,407.575533 C204.703218,408.867774 197.779125,407.149973 188.882045,406.540261 C176.913597,405.720071 178.567657,398.178256 189.399551,398.920559 C197.809512,399.496888 204.531507,401.222926 221.969208,399.957957 C224.794568,399.753 239.582937,399.427913 239.582937,399.427913 Z M63.5213304,173.055249 C70.5594939,173.055249 76.2255965,178.562541 76.2255965,185.027624 C76.2255965,191.756099 70.5594939,197 63.5213304,197 L12.7042661,197 C5.69151121,197 0,191.756099 0,185.027624 C0,178.562541 5.69151121,173.055249 12.7042661,173.055249 L63.5213304,173.055249 Z M489.295734,173.055249 C496.333897,173.055249 502,178.562541 502,185.027624 C502,191.756099 496.333897,197 489.295734,197 L438.47867,197 C431.465915,197 425.774403,191.756099 425.774403,185.027624 C425.774403,178.562541 431.465915,173.055249 438.47867,173.055249 L489.295734,173.055249 Z M167.298309,60.4104159 L143.886445,16.100421 C141.006786,10.5616716 143.32456,3.91517241 149.130703,1.27872771 C154.913433,-1.62357695 161.936992,0.591922791 164.816651,6.13067215 L188.228515,50.440667 C191.131586,55.9794164 188.7904,62.6480706 183.00767,65.3066703 C181.322015,66.1707152 179.542714,66.3922652 177.786824,66.3922652 C173.479041,66.3922652 169.335141,64.1767654 167.298309,60.4104159 Z M314.425301,66.3922652 C312.669411,66.3922652 310.866698,66.1707152 309.204455,65.3066703 C303.398313,62.6480706 301.080539,55.9794164 303.960198,50.440667 L327.372062,6.13067215 C330.298545,0.591922791 337.298692,-1.62357695 343.081422,1.27872771 C348.864153,3.91517241 351.205339,10.5616716 348.302268,16.100421 L324.890404,60.4104159 C322.83016,64.1767654 318.709672,66.3922652 314.425301,66.3922652 Z M97.5190656,82.4766497 C103.794922,85.2659309 106.335755,92.2977322 103.185122,98.1575666 C100.94919,102.142254 96.4773242,104.486188 91.8276004,104.486188 C89.9219758,104.486188 87.9655347,104.251794 86.1615435,103.33766 L35.3448896,79.8748832 C29.0436246,77.085602 26.5282002,70.0303613 29.6534244,64.1939662 C32.8294653,58.3106924 40.4519634,55.9667586 46.7024118,59.0373119 L97.5190656,82.4766497 Z M466.890112,64.1939662 C470.040744,70.0303613 467.499911,77.085602 461.224055,79.8748832 L410.407401,103.33766 C408.578001,104.251794 406.646969,104.486188 404.741344,104.486188 C400.066212,104.486188 395.568938,102.142254 393.358414,98.1575666 C390.233189,92.2977322 392.748614,85.2659309 399.049879,82.4766497 L449.866533,59.0373119 C456.116981,55.9667586 463.764887,58.3106924 466.890112,64.1939662 Z" id="Combined-Shape"></path>
            </g>
        </g>
    </g>
</svg>