<?xml version="1.0" encoding="UTF-8"?>
<svg width="560px" height="560px" viewBox="0 0 560 560" version="1.1" xmlns="http://www.w3.org/2000/svg" xmlns:xlink="http://www.w3.org/1999/xlink">
    <!-- Generator: sketchtool 51.2 (57519) - http://www.bohemiancoding.com/sketch -->
    <title>umbrella</title>
    <desc>Created with sketchtool.</desc>
    <defs></defs>
    <g id="Page-1" stroke="none" stroke-width="1" fill="none" fill-rule="evenodd">
        <g id="uA293-umbrella" fill="#000000" fill-rule="nonzero">
            <g id="umbrella" transform="translate(0.000000, 31.000000)">
                <path d="M559.2475,246.72375 C530.760417,127.199722 418.560139,52.9695833 295.555556,47.0526389 L295.555556,15.5555556 C295.555556,6.96402778 288.591528,0 280,0 C271.409444,0 264.444444,6.96402778 264.444444,15.5555556 L264.444444,47.0516667 C141.9775,52.9170833 30.0494444,126.333472 0.774861111,246.612917 C-5.02055556,269.808194 22.9113889,289.477222 43.6304167,270.986528 C91.7515278,226.181667 130.989444,244.09875 165.510139,297.870417 C176.564306,315.182778 199.339583,314.264028 209.813333,297.884028 C224.610556,275.020278 240.102917,254.129167 264.443472,247.84375 L264.443472,420 C264.443472,445.731806 243.508611,466.666667 217.776806,466.666667 C192.045,466.666667 171.110139,445.731806 171.110139,420 C171.110139,411.408472 164.145139,404.444444 155.554583,404.444444 C146.964028,404.444444 139.999028,411.408472 139.999028,420 C139.999028,462.886667 174.890139,497.777778 217.776806,497.777778 C260.663472,497.777778 295.554583,462.886667 295.554583,420 L295.554583,248.066389 C324.810694,256.107639 338.945833,280.405417 350.176944,297.872361 C360.707083,314.357361 383.476528,315.098194 394.479167,297.886944 C429.685278,243.493056 468.978611,226.87 516.36375,270.9875 C536.953472,289.365417 564.957361,270.025972 559.2475,246.72375 Z M372.607083,274.625556 C349.006389,235.984583 316.322222,214.805694 280,214.805694 C236.779861,214.805694 210.340278,241.070278 187.899444,274.587639 C147.46375,208.694306 83.3476389,199.239444 36.0898611,236.374444 C70.0991667,134.853056 173.789583,77.7777778 280,77.7777778 C386.293056,77.7777778 490.940139,135.454861 524.187222,236.951944 C467.554306,194.231528 413.293611,215.595139 372.607083,274.625556 Z" id="Shape"></path>
            </g>
        </g>
    </g>
</svg>