<?xml version="1.0" encoding="UTF-8"?>
<svg width="560px" height="560px" viewBox="0 0 560 560" version="1.1" xmlns="http://www.w3.org/2000/svg" xmlns:xlink="http://www.w3.org/1999/xlink">
    <!-- Generator: sketchtool 51.2 (57519) - http://www.bohemiancoding.com/sketch -->
    <title>undo</title>
    <desc>Created with sketchtool.</desc>
    <defs></defs>
    <g id="Page-1" stroke="none" stroke-width="1" fill="none" fill-rule="evenodd">
        <g id="uA254-undo" fill="#000000" fill-rule="nonzero">
            <g id="undo" transform="translate(32.000000, 32.000000)">
                <path d="M12,-1.42108818e-14 L22,-1.42108818e-14 C28.627,-1.42108818e-14 34,5.373 34,12 L34,122.625 C77.196,49.047 157.239,-0.285 248.793,0.001 C385.18,0.428 496.213,112.009 496,248.396 C495.786,385.181 384.834,496 248,496 C184.074,496 125.798,471.813 81.822,432.092 C76.709,427.474 76.468,419.531 81.34,414.659 L88.409,407.59 C92.912,403.087 100.158,402.876 104.891,407.136 C142.782,441.238 192.935,462 248,462 C365.744,462 462,366.669 462,248 C462,130.256 366.669,34 248,34 C165.138,34 93.263,81.077 57.711,150 L172,150 C178.627,150 184,155.373 184,162 L184,172 C184,178.627 178.627,184 172,184 L12,184 C5.373,184 0,178.627 0,172 L0,12 C0,5.373 5.373,-1.42108818e-14 12,-1.42108818e-14 Z" id="Shape"></path>
            </g>
        </g>
    </g>
</svg>