<?xml version="1.0" encoding="UTF-8"?>
<svg width="560px" height="560px" viewBox="0 0 560 560" version="1.1" xmlns="http://www.w3.org/2000/svg" xmlns:xlink="http://www.w3.org/1999/xlink">
    <!-- Generator: sketchtool 51.2 (57519) - http://www.bohemiancoding.com/sketch -->
    <title>unlink</title>
    <desc>Created with sketchtool.</desc>
    <defs></defs>
    <g id="Page-1" stroke="none" stroke-width="1" fill="none" fill-rule="evenodd">
        <g id="uA054-unlink" fill="#000000" fill-rule="nonzero">
            <g id="unlink" transform="translate(23.000000, 24.000000)">
                <path d="M208.889,138.235 C204.203,133.549 204.203,125.951 208.889,121.264 L291.048,39.105 C341.858,-11.708 424.094,-11.698 474.896,39.105 C525.708,89.915 525.698,172.153 474.895,222.952 L392.736,305.111 C388.05,309.797 380.452,309.797 375.765,305.111 L367.28,296.626 C362.594,291.94 362.594,284.342 367.28,279.655 L449.439,197.496 C486.178,160.755 486.174,101.296 449.439,64.56 C412.698,27.819 353.24,27.824 316.502,64.559 L234.343,146.718 C229.657,151.404 222.059,151.404 217.372,146.718 L208.889,138.235 Z M197.498,449.529 C160.848,486.179 101.212,486.18 64.561,449.528 C27.825,412.792 27.822,353.334 64.561,316.592 L146.751,234.402 C151.437,229.716 151.437,222.118 146.751,217.431 L138.266,208.946 C133.58,204.26 125.982,204.26 121.295,208.946 L39.105,291.135 C-11.697,341.935 -11.708,424.173 39.105,474.983 C89.791,525.671 172.267,525.67 222.952,474.983 L305.142,392.793 C309.828,388.107 309.828,380.509 305.142,375.822 L296.658,367.338 C291.972,362.652 284.374,362.652 279.687,367.338 L197.498,449.529 Z M12.999,4.515 L4.514,13 C-0.172,17.686 -0.172,25.284 4.514,29.971 L484.03,509.485 C488.716,514.171 496.314,514.171 501.001,509.485 L509.486,501 C514.172,496.314 514.172,488.716 509.486,484.029 L29.97,4.515 C25.284,-0.172 17.686,-0.172 12.999,4.515 Z" id="Shape"></path>
            </g>
        </g>
    </g>
</svg>