<?xml version="1.0" encoding="UTF-8"?>
<svg width="560px" height="560px" viewBox="0 0 560 560" version="1.1" xmlns="http://www.w3.org/2000/svg" xmlns:xlink="http://www.w3.org/1999/xlink">
    <!-- Generator: sketchtool 51.2 (57519) - http://www.bohemiancoding.com/sketch -->
    <title>upload</title>
    <desc>Created with sketchtool.</desc>
    <defs></defs>
    <g id="Page-1" stroke="none" stroke-width="1" fill="none" fill-rule="evenodd">
        <g id="uA212-upload" fill="#000000" fill-rule="nonzero">
            <g id="upload" transform="translate(24.000000, 24.000000)">
                <path d="M452,432 C452,443 443,452 432,452 C421,452 412,443 412,432 C412,421 421,412 432,412 C443,412 452,421 452,432 Z M368,412 C357,412 348,421 348,432 C348,443 357,452 368,452 C379,452 388,443 388,432 C388,421 379,412 368,412 Z M512,364 L512,468 C512,492.3 492.3,512 468,512 L44,512 C19.7,512 0,492.3 0,468 L0,364 C0,339.7 19.7,320 44,320 L168,320 L168,220.7 L115.3,220.7 C79.7,220.7 61.9,177.6 87,152.4 L227.7,11.7 C243.3,-3.9 268.6,-3.9 284.3,11.7 L425,152.4 C450.2,177.6 432.3,220.7 396.7,220.7 L344,220.7 L344,320 L468,320 C492.3,320 512,339.7 512,364 Z M200,188.7 L200,376 C200,380.4 203.6,384 208,384 L304,384 C308.4,384 312,380.4 312,376 L312,188.7 L396.7,188.7 C403.8,188.7 407.4,180.1 402.4,175 L261.7,34.3 C258.6,31.2 253.5,31.2 250.4,34.3 L109.7,175 C104.7,180 108.2,188.7 115.4,188.7 L200,188.7 Z M480,364 C480,357.4 474.6,352 468,352 L344,352 L344,376 C344,398.1 326.1,416 304,416 L208,416 C185.9,416 168,398.1 168,376 L168,352 L44,352 C37.4,352 32,357.4 32,364 L32,468 C32,474.6 37.4,480 44,480 L468,480 C474.6,480 480,474.6 480,468 L480,364 Z" id="Shape"></path>
            </g>
        </g>
    </g>
</svg>