<?xml version="1.0" encoding="UTF-8"?>
<svg width="560px" height="560px" viewBox="0 0 560 560" version="1.1" xmlns="http://www.w3.org/2000/svg" xmlns:xlink="http://www.w3.org/1999/xlink">
    <!-- Generator: sketchtool 51.2 (57519) - http://www.bohemiancoding.com/sketch -->
    <title>user-check</title>
    <desc>Created with sketchtool.</desc>
    <defs></defs>
    <g id="Page-1" stroke="none" stroke-width="1" fill="none" fill-rule="evenodd">
        <g id="uA101-user-check" fill="#000000" fill-rule="nonzero">
            <g id="user-check" transform="translate(0.000000, 56.000000)">
                <path d="M557.117005,126.327613 L544.798752,113.921997 C542.090484,111.213729 537.634945,111.126365 534.926677,113.921997 L434.283931,211.50702 L387.719189,164.854914 C385.01092,162.146646 380.555382,162.146646 377.847114,164.854914 L365.441498,177.173167 C362.733229,179.881435 362.733229,184.336973 365.441498,187.045242 L426.770671,248.549142 C430.876755,252.655226 437.516381,252.655226 441.622465,248.549142 L557.029641,136.199688 C559.825273,133.49142 559.825273,129.035881 557.117005,126.327613 Z M273.971919,251.606864 C248.898596,251.606864 236.842434,265.585023 195.694228,265.585023 C154.546022,265.585023 142.577223,251.606864 117.416537,251.606864 C52.5928237,251.606864 0,304.199688 0,369.023401 L0,405.366615 C0,428.517941 18.7831513,447.301092 41.9344774,447.301092 L349.453978,447.301092 C372.605304,447.301092 391.388456,428.517941 391.388456,405.366615 L391.388456,369.023401 C391.388456,304.199688 338.795632,251.606864 273.971919,251.606864 Z M363.432137,405.366615 C363.432137,413.054602 357.141966,419.344774 349.453978,419.344774 L41.9344774,419.344774 C34.2464899,419.344774 27.9563183,413.054602 27.9563183,405.366615 L27.9563183,369.023401 C27.9563183,319.663027 68.0561622,279.563183 117.416537,279.563183 C134.539782,279.563183 151.575663,293.541342 195.694228,293.541342 C239.725429,293.541342 256.848674,279.563183 273.971919,279.563183 C323.332293,279.563183 363.432137,319.663027 363.432137,369.023401 L363.432137,405.366615 Z M195.694228,223.650546 C257.460218,223.650546 307.519501,173.591264 307.519501,111.825273 C307.519501,50.0592824 257.460218,0 195.694228,0 C133.928237,0 83.8689548,50.0592824 83.8689548,111.825273 C83.8689548,173.591264 133.928237,223.650546 195.694228,223.650546 Z M195.694228,27.9563183 C241.909516,27.9563183 279.563183,65.6099844 279.563183,111.825273 C279.563183,158.040562 241.909516,195.694228 195.694228,195.694228 C149.478939,195.694228 111.825273,158.040562 111.825273,111.825273 C111.825273,65.6099844 149.478939,27.9563183 195.694228,27.9563183 Z" id="Shape"></path>
            </g>
        </g>
    </g>
</svg>