<?xml version="1.0" encoding="UTF-8"?>
<svg width="560px" height="560px" viewBox="0 0 560 560" version="1.1" xmlns="http://www.w3.org/2000/svg" xmlns:xlink="http://www.w3.org/1999/xlink">
    <!-- Generator: sketchtool 51.2 (57519) - http://www.bohemiancoding.com/sketch -->
    <title>user-edit</title>
    <desc>Created with sketchtool.</desc>
    <defs></defs>
    <g id="Page-1" stroke="none" stroke-width="1" fill="none" fill-rule="evenodd">
        <g id="uA098-user-edit" fill="#000000" fill-rule="nonzero">
            <g id="user-edit" transform="translate(0.000000, 56.000000)">
                <path d="M196,224 C257.8625,224 308,173.8625 308,112 C308,50.1375 257.8625,0 196,0 C134.1375,0 84,50.1375 84,112 C84,173.8625 134.1375,224 196,224 Z M196,28 C242.2875,28 280,65.7125 280,112 C280,158.2875 242.2875,196 196,196 C149.7125,196 112,158.2875 112,112 C112,65.7125 149.7125,28 196,28 Z M551.775,206.5875 L521.4125,176.225 C515.9,170.7125 508.725,168 501.4625,168 C494.2875,168 487.025,170.7125 481.5125,176.225 L286.825,371 L280.175,430.675 C279.125,440.0375 286.475,448 295.6625,448 C296.275,448 296.8,448 297.4125,447.9125 L357.0875,441.2625 L551.775,246.575 C562.7125,235.4625 562.7125,217.6125 551.775,206.5875 Z M344.1375,414.4875 L309.6625,418.425 L313.5125,383.8625 L450.8,246.575 L481.425,277.2 L344.1375,414.4875 Z M501.2,257.425 L470.575,226.8 L501.375,196 L501.4625,196 L501.6375,196.0875 L532,226.7125 L501.2,257.425 Z M117.6,280 C134.75,280 151.8125,294 196,294 C240.1,294 257.25,280 274.4,280 C292.5125,280 309.3125,285.5125 323.4,294.7875 L343.35,274.8375 C323.925,260.6625 300.2125,252.0875 274.4,252.0875 C249.2875,252.0875 237.2125,266.0875 196,266.0875 C154.7875,266.0875 142.8,252.0875 117.6,252.0875 C52.675,252 0,304.675 0,369.6 L0,406 C0,429.1875 18.8125,448 42,448 L255.0625,448 C252.6125,441.525 251.475,434.525 252.2625,427.525 L253.1375,420 L42,420 C34.3,420 28,413.7 28,406 L28,369.6 C28,320.1625 68.1625,280 117.6,280 Z" id="Shape"></path>
            </g>
        </g>
    </g>
</svg>