<?xml version="1.0" encoding="UTF-8"?>
<svg width="560px" height="560px" viewBox="0 0 560 560" version="1.1" xmlns="http://www.w3.org/2000/svg" xmlns:xlink="http://www.w3.org/1999/xlink">
    <!-- Generator: sketchtool 51.2 (57519) - http://www.bohemiancoding.com/sketch -->
    <title>user-circle</title>
    <desc>Created with sketchtool.</desc>
    <defs></defs>
    <g id="Page-1" stroke="none" stroke-width="1" fill="none" fill-rule="evenodd">
        <g id="uA102-user-circle" fill="#000000" fill-rule="nonzero">
            <g id="user-circle" transform="translate(32.000000, 32.000000)">
                <path d="M248,0 C111,0 0,111 0,248 C0,385 111,496 248,496 C385,496 496,385 496,248 C496,111 385,0 248,0 Z M376,421.6 C340.1,448.1 295.9,464 248,464 C200.1,464 155.9,448.1 120,421.6 L120,408 C120,372.7 148.7,344 184,344 C195.1,344 211.5,355.4 248,355.4 C284.6,355.4 300.8,344 312,344 C347.3,344 376,372.7 376,408 L376,421.6 Z M406.6,394.1 C399.8,347.7 360.3,312 312,312 C291.5,312 281.6,323.4 248,323.4 C214.4,323.4 204.6,312 184,312 C135.7,312 96.2,347.7 89.4,394.1 C53.9,355.6 32,304.4 32,248 C32,128.9 128.9,32 248,32 C367.1,32 464,128.9 464,248 C464,304.4 442.1,355.6 406.6,394.1 Z M248,112 C199.4,112 160,151.4 160,200 C160,248.6 199.4,288 248,288 C296.6,288 336,248.6 336,200 C336,151.4 296.6,112 248,112 Z M248,256 C217.1,256 192,230.9 192,200 C192,169.1 217.1,144 248,144 C278.9,144 304,169.1 304,200 C304,230.9 278.9,256 248,256 Z" id="Shape"></path>
            </g>
        </g>
    </g>
</svg>