<?xml version="1.0" encoding="UTF-8"?>
<svg width="560px" height="560px" viewBox="0 0 560 560" version="1.1" xmlns="http://www.w3.org/2000/svg" xmlns:xlink="http://www.w3.org/1999/xlink">
    <!-- Generator: sketchtool 51.2 (57519) - http://www.bohemiancoding.com/sketch -->
    <title>user-slash</title>
    <desc>Created with sketchtool.</desc>
    <defs></defs>
    <g id="Page-1" stroke="none" stroke-width="1" fill="none" fill-rule="evenodd">
        <g id="uA091-user-slash" fill="#000000" fill-rule="nonzero">
            <g id="user-slash" transform="translate(0.000000, 56.000000)">
                <path d="M557.375,424.55 L20.125,1.575 C17.15,-0.875 12.6875,-0.35 10.325,2.625 L1.575,13.5625 C-0.875,16.625 -0.35,21 2.625,23.45 L539.875,446.5125 C542.85,448.9625 547.3125,448.4375 549.675,445.4625 L558.425,434.525 C560.875,431.375 560.35,427 557.375,424.55 Z M280,28 C326.2875,28 364,65.7125 364,112 C364,143.4125 346.5,170.5375 320.8625,184.8875 L344.3125,203.35 C373.1,183.1375 392,149.8 392,112 C392,50.1375 341.8625,0 280,0 C232.75,0 192.5,29.4 176.05,70.875 L199.5,89.3375 C209.475,54.075 241.5875,28 280,28 Z M434,420 L126,420 C118.3,420 112,413.7 112,406 L112,369.6 C112,320.1625 152.1625,280 201.6,280 C206.9375,280 212.975,281.225 220.5875,283.85 C239.225,290.325 258.5625,293.5625 278.1625,293.825 L233.0125,258.3 C217.7,253.3125 209.5625,252 201.6,252 C136.675,252 84,304.675 84,369.6 L84,406 C84,429.1875 102.8125,448 126,448 L434,448 C444.4125,448 453.775,444.0625 461.0375,437.85 L437.4125,419.3 C436.3625,419.5625 435.225,420 434,420 Z" id="Shape"></path>
            </g>
        </g>
    </g>
</svg>