<?xml version="1.0" encoding="UTF-8"?>
<svg width="560px" height="560px" viewBox="0 0 560 560" version="1.1" xmlns="http://www.w3.org/2000/svg" xmlns:xlink="http://www.w3.org/1999/xlink">
    <!-- Generator: sketchtool 51.2 (57519) - http://www.bohemiancoding.com/sketch -->
    <title>user-shield</title>
    <desc>Created with sketchtool.</desc>
    <defs></defs>
    <g id="Page-1" stroke="none" stroke-width="1" fill="none" fill-rule="evenodd">
        <g id="uA094-user-shield" fill="#000000" fill-rule="nonzero">
            <g id="user-shield" transform="translate(0.000000, 56.000000)">
                <path d="M544.5125,237.2125 L443.7125,197.8375 C440.65,196.6125 437.325,196 434,196 C430.675,196 427.4375,196.6125 424.2875,197.8375 L323.4875,237.2125 C314.125,240.8875 308,249.4625 308,259 C308,356.65 368.1125,424.2 424.2875,446.1625 C427.35,447.3875 430.675,448 434,448 C437.325,448 440.5625,447.3875 443.7125,446.1625 C488.6,428.6625 560,367.9375 560,259 C560,249.4625 553.875,240.8875 544.5125,237.2125 Z M420,413 C377.825,389.55 337.225,336.35 336,262.4125 L420,229.6 L420,413 Z M434.525,420.0875 C434.4375,420.0875 434.35,420 434.35,420 L434.7875,420 C434.6125,420 434.525,420.0875 434.525,420.0875 Z M448,413.4375 L448,229.6 L532,262.4125 C530.6875,345.3625 482.0375,393.8375 448,413.4375 Z M42,420 C34.3,420 28,413.7 28,406 L28,369.6 C28,320.1625 68.1625,280 117.6,280 C134.75,280 151.8125,294 196,294 C240.1,294 257.25,280 274.4,280 C276.675,280 278.775,280.525 280.9625,280.7 C280.35,273.6125 280,266.4375 280,259 C280,256.8125 280.7,254.8 280.9625,252.7 C278.775,252.6125 276.675,252 274.4,252 C249.2875,252 237.2125,266 196,266 C154.7875,266 142.8,252 117.6,252 C52.675,252 0,304.675 0,369.6 L0,406 C0,429.1875 18.8125,448 42,448 L350,448 C355.95,448 361.6375,446.6875 366.8,444.5 C357.7875,437.325 349.125,429.1 340.8125,420 L42,420 Z M196,224 C257.8625,224 308,173.8625 308,112 C308,50.1375 257.8625,0 196,0 C134.1375,0 84,50.1375 84,112 C84,173.8625 134.1375,224 196,224 Z M196,28 C242.2875,28 280,65.7125 280,112 C280,158.2875 242.2875,196 196,196 C149.7125,196 112,158.2875 112,112 C112,65.7125 149.7125,28 196,28 Z" id="Shape"></path>
            </g>
        </g>
    </g>
</svg>