<?xml version="1.0" encoding="UTF-8"?>
<svg width="560px" height="560px" viewBox="0 0 560 560" version="1.1" xmlns="http://www.w3.org/2000/svg" xmlns:xlink="http://www.w3.org/1999/xlink">
    <!-- Generator: sketchtool 51.2 (57519) - http://www.bohemiancoding.com/sketch -->
    <title>user-cog</title>
    <desc>Created with sketchtool.</desc>
    <defs></defs>
    <g id="Page-1" stroke="none" stroke-width="1" fill="none" fill-rule="evenodd">
        <g id="uA099-user-cog" fill="#000000" fill-rule="nonzero">
            <g id="user-cog" transform="translate(0.000000, 56.000000)">
                <path d="M548.904836,313.023401 L534.48986,304.723869 C535.188768,297.297972 535.188768,289.784711 534.48986,282.358814 L548.9922,274.059282 C557.291732,269.25429 561.048362,259.469579 558.165367,250.471139 C551.875195,230.028081 540.780031,210.808112 526.102964,194.99532 C519.638066,187.918877 509.24181,186.346334 501.029641,191.151326 L486.614665,199.450858 C480.49922,195.082683 474.034321,191.326053 467.219969,188.268331 L467.219969,171.669267 C467.219969,162.059282 460.667707,153.934477 451.319813,151.837754 C430.439938,147.120125 408.24961,147.120125 387.369735,151.837754 C378.021841,153.934477 371.469579,162.146646 371.469579,171.669267 L371.469579,188.268331 C364.655226,191.326053 358.190328,195.082683 352.074883,199.450858 L337.659906,191.151326 C329.360374,186.346334 319.051482,187.918877 312.586583,194.99532 C297.99688,210.808112 286.901716,230.028081 280.524181,250.383775 C277.641186,259.469579 281.572543,269.429017 289.784711,274.146646 L304.199688,282.446178 C303.50078,289.872075 303.50078,297.385335 304.199688,304.811232 L289.697348,313.110764 C281.572543,317.828393 277.641186,327.875195 280.524181,336.786271 C286.814353,357.229329 297.909516,376.449298 312.586583,392.26209 C319.051482,399.25117 329.360374,400.823713 337.659906,396.106084 L352.074883,387.806552 C358.190328,392.174727 364.655226,395.931357 371.469579,398.98908 L371.469579,415.588144 C371.469579,425.198128 378.021841,433.322933 387.369735,435.419657 C397.853354,437.778471 408.599064,438.914197 419.344774,438.914197 C430.090484,438.914197 440.923557,437.778471 451.319813,435.419657 C460.667707,433.322933 467.219969,425.110764 467.219969,415.588144 L467.219969,398.98908 C474.034321,395.931357 480.49922,392.174727 486.614665,387.806552 L501.029641,396.106084 C509.24181,400.823713 519.638066,399.25117 526.102964,392.26209 C540.692668,376.449298 551.787832,357.229329 558.165367,336.873635 C561.048362,327.787832 557.117005,317.74103 548.904836,313.023401 Z M503.825273,319.313573 L529.51014,334.165367 C524.967239,346.658346 518.152886,358.452418 509.591264,368.673947 L483.906396,353.822153 C465.210608,369.809672 462.50234,371.382215 439.263651,379.594384 L439.263651,409.297972 C426.071763,411.569423 412.530421,411.569423 399.425897,409.297972 L399.425897,379.594384 C375.925117,371.294852 373.042122,369.372855 354.783151,353.822153 L329.098284,368.673947 C320.536661,358.365055 313.722309,346.658346 309.179407,334.165367 L334.864275,319.313573 C330.583463,295.900156 330.321373,292.580343 334.864275,267.769111 L309.179407,252.917317 C313.722309,240.424337 320.536661,228.717629 329.098284,218.408736 L354.783151,233.26053 C373.478939,217.273011 376.187207,215.700468 399.425897,207.4883 L399.425897,177.784711 C412.617785,175.600624 426.24649,175.600624 439.263651,177.784711 L439.263651,207.4883 C462.677067,215.787832 465.647426,217.622465 483.906396,233.26053 L509.591264,218.408736 C518.152886,228.717629 524.967239,240.424337 529.51014,252.917317 L503.825273,267.769111 C508.106084,291.182527 508.368175,294.50234 503.825273,319.313573 Z M419.344774,237.191888 C388.24337,237.191888 362.99532,262.527301 362.99532,293.541342 C362.99532,324.555382 388.24337,349.890796 419.344774,349.890796 C450.446178,349.890796 475.694228,324.555382 475.694228,293.541342 C475.694228,262.527301 450.446178,237.191888 419.344774,237.191888 Z M419.344774,321.934477 C403.706708,321.934477 390.951638,309.179407 390.951638,293.541342 C390.951638,277.903276 403.706708,265.148206 419.344774,265.148206 C434.982839,265.148206 447.73791,277.903276 447.73791,293.541342 C447.73791,309.179407 434.982839,321.934477 419.344774,321.934477 Z M195.694228,223.650546 C257.460218,223.650546 307.519501,173.591264 307.519501,111.825273 C307.519501,50.0592824 257.460218,0 195.694228,0 C133.928237,0 83.8689548,50.0592824 83.8689548,111.825273 C83.8689548,173.591264 133.928237,223.650546 195.694228,223.650546 Z M195.694228,27.9563183 C241.909516,27.9563183 279.563183,65.6099844 279.563183,111.825273 C279.563183,158.040562 241.909516,195.694228 195.694228,195.694228 C149.478939,195.694228 111.825273,158.040562 111.825273,111.825273 C111.825273,65.6099844 149.478939,27.9563183 195.694228,27.9563183 Z M41.9344774,419.344774 C34.2464899,419.344774 27.9563183,413.054602 27.9563183,405.366615 L27.9563183,369.023401 C27.9563183,319.663027 68.0561622,279.563183 117.416537,279.563183 C134.539782,279.563183 151.575663,293.541342 195.694228,293.541342 C212.468019,293.541342 228.892356,290.658346 245.054602,285.940718 C245.49142,275.806552 246.627145,265.847114 248.723869,256.237129 C240.948518,258.595944 222.427457,265.585023 195.694228,265.585023 C154.546022,265.585023 142.577223,251.606864 117.416537,251.606864 C52.5928237,251.606864 0,304.199688 0,369.023401 L0,405.366615 C0,428.517941 18.7831513,447.301092 41.9344774,447.301092 L336.349454,447.301092 C322.371295,439.787832 309.616225,430.265211 298.346334,419.344774 L41.9344774,419.344774 Z" id="Shape"></path>
            </g>
        </g>
    </g>
</svg>