<?xml version="1.0" encoding="UTF-8"?>
<svg width="560px" height="560px" viewBox="0 0 560 560" version="1.1" xmlns="http://www.w3.org/2000/svg" xmlns:xlink="http://www.w3.org/1999/xlink">
    <!-- Generator: sketchtool 51.2 (57519) - http://www.bohemiancoding.com/sketch -->
    <title>users</title>
    <desc>Created with sketchtool.</desc>
    <defs></defs>
    <g id="Page-1" stroke="none" stroke-width="1" fill="none" fill-rule="evenodd">
        <g id="uA104-users" fill="#000000" fill-rule="nonzero">
            <g id="users" transform="translate(0.000000, 84.000000)">
                <path d="M476,168 C514.675,168 546,136.675 546,98 C546,59.325 514.675,28 476,28 C437.325,28 406,59.325 406,98 C406,136.675 437.325,168 476,168 Z M476,56 C499.1875,56 518,74.8125 518,98 C518,121.1875 499.1875,140 476,140 C452.8125,140 434,121.1875 434,98 C434,74.8125 452.8125,56 476,56 Z M280,196 C334.1625,196 378,152.1625 378,98 C378,43.8375 334.1625,0 280,0 C225.8375,0 182,43.8375 182,98 C182,152.1625 225.8375,196 280,196 Z M280,28 C318.5875,28 350,59.4125 350,98 C350,136.5875 318.5875,168 280,168 C241.4125,168 210,136.5875 210,98 C210,59.4125 241.4125,28 280,28 Z M493.5,196 L458.5,196 C445.2,196 432.8625,200.2 422.5375,207.2875 C430.7625,212.8875 438.2,219.45 444.7625,226.8875 C449.05,225.05 453.6875,224 458.5,224 L493.5,224 C514.675,224 532,242.8125 532,266 C532,273.7 538.3,280 546,280 C553.7,280 560,273.7 560,266 C560,227.4125 530.1625,196 493.5,196 Z M84,168 C122.675,168 154,136.675 154,98 C154,59.325 122.675,28 84,28 C45.325,28 14,59.325 14,98 C14,136.675 45.325,168 84,168 Z M84,56 C107.1875,56 126,74.8125 126,98 C126,121.1875 107.1875,140 84,140 C60.8125,140 42,121.1875 42,98 C42,74.8125 60.8125,56 84,56 Z M350.0875,213.5 C320.8625,213.5 313.6,224 280,224 C246.4,224 239.1375,213.5 209.9125,213.5 C178.15,213.5 147.2625,227.675 129.15,254.5375 C118.3,270.6375 112,289.975 112,310.8 L112,350 C112,373.1875 130.8125,392 154,392 L406,392 C429.1875,392 448,373.1875 448,350 L448,310.8 C448,289.975 441.7,270.6375 430.85,254.5375 C412.7375,227.675 381.85,213.5 350.0875,213.5 Z M420,350 C420,357.7 413.7,364 406,364 L154,364 C146.3,364 140,357.7 140,350 L140,310.8 C140,296.275 144.2875,282.1875 152.3375,270.2 C164.4125,252.2625 185.9375,241.5 209.825,241.5 C233.8,241.5 242.375,252 280,252 C317.625,252 326.2,241.5 350.0875,241.5 C373.975,241.5 395.5,252.2625 407.575,270.2 C415.625,282.1875 419.9125,296.275 419.9125,310.8 L419.9125,350 L420,350 Z M137.4625,207.2875 C127.05,200.2 114.7125,196 101.5,196 L66.5,196 C29.8375,196 0,227.4125 0,266 C0,273.7 6.3,280 14,280 C21.7,280 28,273.7 28,266 C28,242.8125 45.325,224 66.5,224 L101.5,224 C106.3125,224 110.95,225.05 115.2375,226.8875 C121.8,219.45 129.325,212.8875 137.4625,207.2875 Z" id="Shape"></path>
            </g>
        </g>
    </g>
</svg>