<?xml version="1.0" encoding="UTF-8"?>
<svg width="560px" height="560px" viewBox="0 0 560 560" version="1.1" xmlns="http://www.w3.org/2000/svg" xmlns:xlink="http://www.w3.org/1999/xlink">
    <!-- Generator: sketchtool 51.2 (57519) - http://www.bohemiancoding.com/sketch -->
    <title>user-clock</title>
    <desc>Created with sketchtool.</desc>
    <defs></defs>
    <g id="Page-1" stroke="none" stroke-width="1" fill="none" fill-rule="evenodd">
        <g id="uA100-user-clock" fill="#000000" fill-rule="nonzero">
            <g id="user-clock" transform="translate(0.000000, 56.000000)">
                <path d="M196,224 C257.8625,224 308,173.8625 308,112 C308,50.1375 257.8625,0 196,0 C134.1375,0 84,50.1375 84,112 C84,173.8625 134.1375,224 196,224 Z M196,28 C242.2875,28 280,65.7125 280,112 C280,158.2875 242.2875,196 196,196 C149.7125,196 112,158.2875 112,112 C112,65.7125 149.7125,28 196,28 Z M434,196 C364.35,196 308,252.35 308,322 C308,391.65 364.35,448 434,448 C503.65,448 560,391.65 560,322 C560,252.35 503.65,196 434,196 Z M434,420 C379.925,420 336,376.075 336,322 C336,267.925 379.925,224 434,224 C488.075,224 532,267.925 532,322 C532,376.075 488.075,420 434,420 Z M315.175,420 L42,420 C34.3,420 28,413.7 28,406 L28,369.6 C28,320.1625 68.1625,280 117.6,280 C134.75,280 151.8125,294 196,294 C240.1,294 257.25,280 274.4,280 C278.25,280 281.925,280.7 285.6875,281.1375 C288.225,271.775 291.725,262.7625 295.925,254.1875 C288.925,252.875 281.8375,252 274.4875,252 C249.375,252 237.3,266 196.0875,266 C154.875,266 142.8875,252 117.6875,252 C52.675,252 0,304.675 0,369.6 L0,406 C0,429.1875 18.8125,448 42,448 L345.5375,448 C334.25,440.0375 323.925,430.675 315.175,420 Z M481.5125,308 L448,308 L448,260.4875 C448,255.85 444.15,252 439.5125,252 L428.4875,252 C423.85,252 420,255.85 420,260.4875 L420,327.5125 C420,332.15 423.85,336 428.4875,336 L481.5125,336 C486.15,336 490,332.15 490,327.5125 L490,316.4875 C490,311.85 486.15,308 481.5125,308 Z" id="Shape"></path>
            </g>
        </g>
    </g>
</svg>