<?xml version="1.0" encoding="UTF-8"?>
<svg width="560px" height="560px" viewBox="0 0 560 560" version="1.1" xmlns="http://www.w3.org/2000/svg" xmlns:xlink="http://www.w3.org/1999/xlink">
    <!-- Generator: sketchtool 51.2 (57519) - http://www.bohemiancoding.com/sketch -->
    <title>user-lock</title>
    <desc>Created with sketchtool.</desc>
    <defs></defs>
    <g id="Page-1" stroke="none" stroke-width="1" fill="none" fill-rule="evenodd">
        <g id="uA097-user-lock" fill="#000000" fill-rule="nonzero">
            <g id="user-lock" transform="translate(0.000000, 56.000000)">
                <path d="M518,252 L504,252 L504,210 C504,171.4125 472.5875,140 434,140 C395.4125,140 364,171.4125 364,210 L364,252 L350,252 C326.8125,252 308,270.8125 308,294 L308,406 C308,429.1875 326.8125,448 350,448 L518,448 C541.1875,448 560,429.1875 560,406 L560,294 C560,270.8125 541.1875,252 518,252 Z M392,210 C392,186.8125 410.8125,168 434,168 C457.1875,168 476,186.8125 476,210 L476,252 L392,252 L392,210 Z M532,406 C532,413.7 525.7,420 518,420 L350,420 C342.3,420 336,413.7 336,406 L336,294 C336,286.3 342.3,280 350,280 L518,280 C525.7,280 532,286.3 532,294 L532,406 Z M196,224 C257.8625,224 308,173.8625 308,112 C308,50.1375 257.8625,0 196,0 C134.1375,0 84,50.1375 84,112 C84,173.8625 134.1375,224 196,224 Z M196,28 C242.2875,28 280,65.7125 280,112 C280,158.2875 242.2875,196 196,196 C149.7125,196 112,158.2875 112,112 C112,65.7125 149.7125,28 196,28 Z M42,420 C34.3,420 28,413.7 28,406 L28,369.6 C28,320.1625 68.1625,280 117.6,280 C134.75,280 151.8125,294 196,294 C240.1,294 257.25,280 274.4,280 C276.7625,280 279.0375,280.525 281.3125,280.7 C283.2375,270.8125 287.175,261.8 292.775,253.8375 C286.7375,252.875 280.7,252 274.3125,252 C249.2,252 237.125,266 195.9125,266 C154.7,266 142.7125,252 117.5125,252 C52.675,252 0,304.675 0,369.6 L0,406 C0,429.1875 18.8125,448 42,448 L294.35,448 C288.1375,439.8625 283.5,430.4125 281.4,420 L42,420 Z" id="Shape"></path>
            </g>
        </g>
    </g>
</svg>