<?xml version="1.0" encoding="UTF-8"?>
<svg width="560px" height="560px" viewBox="0 0 560 560" version="1.1" xmlns="http://www.w3.org/2000/svg" xmlns:xlink="http://www.w3.org/1999/xlink">
    <!-- Generator: sketchtool 51.2 (57519) - http://www.bohemiancoding.com/sketch -->
    <title>user-times</title>
    <desc>Created with sketchtool.</desc>
    <defs></defs>
    <g id="Page-1" stroke="none" stroke-width="1" fill="none" fill-rule="evenodd">
        <g id="uA092-user-times" fill="#000000" fill-rule="nonzero">
            <g id="user-times" transform="translate(0.000000, 56.000000)">
                <path d="M509.775,210 L557.9,161.875 C560.6125,159.1625 560.6125,154.7 557.9,151.9875 L548.0125,142.1 C545.3,139.3875 540.8375,139.3875 538.125,142.1 L490,190.225 L441.875,142.1 C439.1625,139.3875 434.7,139.3875 431.9875,142.1 L422.1,151.9875 C419.3875,154.7 419.3875,159.1625 422.1,161.875 L470.225,210 L422.1,258.125 C419.3875,260.8375 419.3875,265.3 422.1,268.0125 L431.9875,277.9 C434.7,280.6125 439.1625,280.6125 441.875,277.9 L490,229.775 L538.125,277.9 C540.8375,280.6125 545.3,280.6125 548.0125,277.9 L557.9,268.0125 C560.6125,265.3 560.6125,260.8375 557.9,258.125 L509.775,210 Z M196,224 C257.8625,224 308,173.8625 308,112 C308,50.1375 257.8625,0 196,0 C134.1375,0 84,50.1375 84,112 C84,173.8625 134.1375,224 196,224 Z M196,28 C242.2875,28 280,65.7125 280,112 C280,158.2875 242.2875,196 196,196 C149.7125,196 112,158.2875 112,112 C112,65.7125 149.7125,28 196,28 Z M274.4,252 C249.2875,252 237.2125,266 196,266 C154.7875,266 142.8,252 117.6,252 C52.675,252 0,304.675 0,369.6 L0,406 C0,429.1875 18.8125,448 42,448 L350,448 C373.1875,448 392,429.1875 392,406 L392,369.6 C392,304.675 339.325,252 274.4,252 Z M364,406 C364,413.7 357.7,420 350,420 L42,420 C34.3,420 28,413.7 28,406 L28,369.6 C28,320.1625 68.1625,280 117.6,280 C134.75,280 151.8125,294 196,294 C240.1,294 257.25,280 274.4,280 C323.8375,280 364,320.1625 364,369.6 L364,406 Z" id="Shape"></path>
            </g>
        </g>
    </g>
</svg>