<?xml version="1.0" encoding="UTF-8"?>
<svg width="560px" height="560px" viewBox="0 0 560 560" version="1.1" xmlns="http://www.w3.org/2000/svg" xmlns:xlink="http://www.w3.org/1999/xlink">
    <!-- Generator: sketchtool 51.2 (57519) - http://www.bohemiancoding.com/sketch -->
    <title>video-slash</title>
    <desc>Created with sketchtool.</desc>
    <defs></defs>
    <g id="Page-1" stroke="none" stroke-width="1" fill="none" fill-rule="evenodd">
        <g id="uA296-video-slash" fill="#000000" fill-rule="nonzero">
            <g id="video-slash" transform="translate(0.000000, 56.000000)">
                <path d="M557.375,424.55 L124.8625,84 L110.6875,72.8875 L20.125,1.575 C17.15,-0.875 12.6875,-0.35 10.325,2.625 L1.575,13.5625 C-0.875,16.625 -0.35,21 2.625,23.45 L384.0375,323.75 L392,330.05 L539.875,446.5125 C542.85,448.9625 547.3125,448.4375 549.675,445.4625 L558.425,434.525 C560.875,431.375 560.35,427 557.375,424.55 Z M346.675,364 L73.325,364 C63.9625,364 56,357.7 56,350.175 L56,118.9125 L28.0875,96.95 C28.0875,97.3 28,97.5625 28,97.9125 L28,350.2625 C28,373.3625 48.3,392.0875 73.325,392.0875 L346.675,392.0875 C361.2,392.0875 373.975,385.7 382.2875,375.9 L360.15,358.4875 C356.9125,361.725 352.1875,364 346.675,364 Z M346.675,84 C356.0375,84 364,90.3 364,97.825 L364,218.8375 L392,240.8875 L392,183.3125 L504,112 L504,329.0875 L528.85,348.6875 C530.6875,345.0125 532,340.9875 532,336.4375 L532,111.5625 C532,95.375 518.4375,84 503.9125,84 C498.4875,84 492.975,85.575 487.9875,88.9875 L392,150.15 L392,97.825 C392,74.725 371.7,56 346.675,56 L157.15,56 L192.675,84 L346.675,84 Z" id="Shape"></path>
            </g>
        </g>
    </g>
</svg>