<?xml version="1.0" encoding="UTF-8"?>
<svg width="560px" height="560px" viewBox="0 0 560 560" version="1.1" xmlns="http://www.w3.org/2000/svg" xmlns:xlink="http://www.w3.org/1999/xlink">
    <!-- Generator: sketchtool 51.2 (57519) - http://www.bohemiancoding.com/sketch -->
    <title>video-plus</title>
    <desc>Created with sketchtool.</desc>
    <defs></defs>
    <g id="Page-1" stroke="none" stroke-width="1" fill="none" fill-rule="evenodd">
        <g id="uA295-video-plus" fill="#000000" fill-rule="nonzero">
            <g id="video-plus" transform="translate(0.000000, 93.000000)">
                <path d="M528.791667,31.1111111 C522.763889,31.1111111 516.638889,32.8611111 511.097222,36.6527778 L404.444444,104.611111 L404.444444,46.4722222 C404.444444,20.8055556 381.888889,0 354.083333,0 L50.3611111,0 C22.5555556,0 0,20.8055556 0,46.4722222 L0,326.861111 C0,352.527778 22.5555556,373.333333 50.3611111,373.333333 L354.083333,373.333333 C381.888889,373.333333 404.444444,352.527778 404.444444,326.861111 L404.444444,268.722222 L511,336.680556 C516.541667,340.569444 522.763889,342.222222 528.694444,342.222222 C544.833333,342.222222 559.902778,329.583333 559.902778,311.597222 L559.902778,61.7361111 C560,43.75 544.930556,31.1111111 528.791667,31.1111111 Z M373.333333,124.444444 L373.333333,326.861111 C373.333333,335.222222 364.486111,342.222222 354.083333,342.222222 L50.3611111,342.222222 C39.9583333,342.222222 31.1111111,335.222222 31.1111111,326.861111 L31.1111111,46.4722222 C31.1111111,38.1111111 39.9583333,31.1111111 50.3611111,31.1111111 L354.083333,31.1111111 C364.486111,31.1111111 373.333333,38.1111111 373.333333,46.4722222 L373.333333,124.444444 Z M528.888889,311.597222 L527.722222,310.333333 L404.444444,231.777778 L404.444444,141.458333 L528.888889,62.2222222 L528.888889,311.597222 Z M287.777778,171.111111 L217.777778,171.111111 L217.777778,101.111111 C217.777778,96.8333333 214.277778,93.3333333 210,93.3333333 L194.444444,93.3333333 C190.166667,93.3333333 186.666667,96.8333333 186.666667,101.111111 L186.666667,171.111111 L116.666667,171.111111 C112.388889,171.111111 108.888889,174.611111 108.888889,178.888889 L108.888889,194.444444 C108.888889,198.722222 112.388889,202.222222 116.666667,202.222222 L186.666667,202.222222 L186.666667,272.222222 C186.666667,276.5 190.166667,280 194.444444,280 L210,280 C214.277778,280 217.777778,276.5 217.777778,272.222222 L217.777778,202.222222 L287.777778,202.222222 C292.055556,202.222222 295.555556,198.722222 295.555556,194.444444 L295.555556,178.888889 C295.555556,174.611111 292.055556,171.111111 287.777778,171.111111 Z" id="Shape"></path>
            </g>
        </g>
    </g>
</svg>