<?xml version="1.0" encoding="UTF-8"?>
<svg width="560px" height="560px" viewBox="0 0 560 560" version="1.1" xmlns="http://www.w3.org/2000/svg" xmlns:xlink="http://www.w3.org/1999/xlink">
    <!-- Generator: sketchtool 51.2 (57519) - http://www.bohemiancoding.com/sketch -->
    <title>volume-up</title>
    <desc>Created with sketchtool.</desc>
    <defs></defs>
    <g id="Page-1" stroke="none" stroke-width="1" fill="none" fill-rule="evenodd">
        <g id="uA079-volume-up" fill="#000000" fill-rule="nonzero">
            <g id="volume-up" transform="translate(0.000000, 45.000000)">
                <path d="M560,235.277778 C560,333.069722 508.249583,419.587778 429.602639,467.677778 C422.279861,472.155833 412.700556,469.856528 408.216667,462.521111 C403.735694,455.191528 406.04375,445.616111 413.373333,441.135139 C482.755972,398.709306 528.888889,322.259583 528.888889,235.277778 C528.888889,148.295 482.755,71.84625 413.373333,29.4204167 C406.04375,24.9394444 403.735694,15.3640278 408.216667,8.03444444 C412.696667,0.704861111 422.271111,-1.60416667 429.602639,2.87777778 C508.248611,50.9677778 560,137.484861 560,235.277778 Z M466.666667,235.277778 C466.666667,171.014861 432.662222,114.166111 380.981806,82.5620833 C373.653194,78.0791667 364.076806,80.3891667 359.595833,87.7168056 C355.113889,95.0463889 357.421944,104.621806 364.750556,109.10375 C407.265833,135.102917 435.555556,181.935833 435.555556,235.277778 C435.555556,288.625556 407.260972,335.455556 364.750556,361.451806 C357.421944,365.93375 355.113889,375.509167 359.595833,382.83875 C364.07875,390.170278 373.656111,392.474444 380.981806,387.993472 C432.662222,356.389444 466.666667,299.540694 466.666667,235.277778 Z M332.363889,162.247361 C325.035278,157.760556 315.458889,160.070556 310.976944,167.397222 C306.493056,174.724861 308.798194,184.30125 316.126806,188.784167 C332.466944,198.7825 342.222222,216.163889 342.222222,235.277778 C342.222222,254.391667 332.466944,271.773056 316.126806,281.771389 C308.798194,286.254306 306.493056,295.830694 310.976944,303.158333 C315.459861,310.486944 325.038194,312.792083 332.363889,308.308194 C358.017917,292.611667 373.333333,265.310694 373.333333,235.277778 C373.333333,205.244861 358.017917,177.943889 332.363889,162.247361 Z M248.888889,71.9609722 L248.888889,398.592639 C248.888889,419.433194 223.6675,429.702778 209.055972,415.092222 L122.557361,328.611111 L23.3333333,328.611111 C10.4465278,328.611111 0,318.164583 0,305.277778 L0,165.277778 C0,152.390972 10.4465278,141.944444 23.3333333,141.944444 L122.557361,141.944444 L209.056944,55.4613889 C223.647083,40.8702778 248.888889,51.09125 248.888889,71.9609722 Z M217.777778,90.7355556 L142.275972,166.222778 C137.900206,170.597651 131.96597,173.055416 125.778333,173.055556 L31.1111111,173.055556 L31.1111111,297.5 L125.778333,297.5 C131.96597,297.500139 137.900206,299.957904 142.275972,304.332778 L217.777778,379.818056 L217.777778,90.7355556 Z" id="Shape"></path>
            </g>
        </g>
    </g>
</svg>