<?xml version="1.0" encoding="UTF-8"?>
<svg width="560px" height="560px" viewBox="0 0 560 560" version="1.1" xmlns="http://www.w3.org/2000/svg" xmlns:xlink="http://www.w3.org/1999/xlink">
    <!-- Generator: sketchtool 51.2 (57519) - http://www.bohemiancoding.com/sketch -->
    <title>volume-mute</title>
    <desc>Created with sketchtool.</desc>
    <defs></defs>
    <g id="Page-1" stroke="none" stroke-width="1" fill="none" fill-rule="evenodd">
        <g id="uA081-volume-mute" fill="#000000" fill-rule="nonzero">
            <g id="volume-mute" transform="translate(0.000000, 56.000000)">
                <path d="M538.60975,446.593875 L3.96725,25.074875 C-0.57225,21.466375 -1.327375,14.861 2.281125,10.3215 L6.636875,4.841375 C10.245375,0.301875 16.85075,-0.45325 21.39025,3.15525 L556.033625,424.67425 C560.573125,428.28275 561.32825,434.888125 557.71975,439.427625 L553.364,444.90775 C549.754625,449.448125 543.14925,450.202375 538.60975,446.593875 Z M356.2755,111.318375 C394.53925,134.717625 420,176.86725 420,224.875 C420,242.326875 416.621625,258.9965 410.501,274.280125 L433.25275,292.217625 C442.7255,271.677 448,248.8535 448,224.875 C448,167.038375 417.396,115.873625 370.883625,87.430875 C364.287875,83.39625 355.669125,85.47525 351.63625,92.070125 C347.6025,98.66675 349.67975,107.28375 356.2755,111.318375 Z M205.851625,112.931875 L224,94.787 L224,127.239875 L252,149.31525 L252,77.889 C252,59.10625 229.282375,49.907375 216.15125,63.039375 L183.710625,95.473875 L205.851625,112.931875 Z M400.036,39.603375 C462.4795,77.786625 504,146.5905 504,224.875 C504,262.01175 494.650625,297.01175 478.162125,327.6245 L500.44575,345.19275 C520.5725,309.553125 532,268.459625 532,224.875 C532,136.861375 485.42375,58.996 414.642375,15.715 C408.044,11.68125 399.427,13.759375 395.395,20.356 C391.362125,26.952625 393.439375,35.569625 400.036,39.603375 Z M312.514125,183.03075 C324.258375,190.217125 332.2165,201.642875 334.94825,214.713625 L363.071625,236.887 C363.688813,232.912761 363.998897,228.896878 363.999125,224.875 C363.999125,197.845375 350.21525,173.2745 327.126625,159.147625 C320.530875,155.1095 311.912125,157.1885 307.878375,163.7825 C303.84375,170.377375 305.918375,178.99525 312.514125,183.03075 Z M424.792375,392.5145 C416.961592,398.962085 408.689266,404.853847 400.036,410.146625 C393.439375,414.1795 391.362125,422.797375 395.395,429.394 C399.4305,435.995 408.051875,438.06525 414.642375,434.035 C426.141284,426.999823 437.041513,419.029949 447.232625,410.206125 L424.792375,392.5145 Z M224,234.20775 L224,354.96125 L156.048375,287.023625 C152.11024,283.086157 146.769392,280.874154 141.2005,280.874125 L56,280.874125 L56,168.875 L141.134,168.875 L105.6195,140.875 L49,140.875 C37.401875,140.875 28,150.276875 28,161.875 L28,287.875 C28,299.473125 37.401875,308.875 49,308.875 L138.301625,308.875 L216.15125,386.708 C229.301625,399.8575 252,390.614875 252,371.858375 L252,256.283125 L224,234.20775 Z M356.232625,338.461375 C349.671875,342.507375 347.61125,351.099 351.63625,357.68075 C355.670875,364.279125 364.2905,366.352875 370.883625,362.32 C373.782104,360.547454 376.623775,358.683646 379.404375,356.731375 L356.232625,338.461375 Z" id="Shape"></path>
            </g>
        </g>
    </g>
</svg>