<?xml version="1.0" encoding="UTF-8"?>
<svg width="560px" height="560px" viewBox="0 0 560 560" version="1.1" xmlns="http://www.w3.org/2000/svg" xmlns:xlink="http://www.w3.org/1999/xlink">
    <!-- Generator: sketchtool 51.2 (57519) - http://www.bohemiancoding.com/sketch -->
    <title>whatsapp</title>
    <desc>Created with sketchtool.</desc>
    <defs></defs>
    <g id="Page-1" stroke="none" stroke-width="1" fill="none" fill-rule="evenodd">
        <g id="uA352-whatsapp" fill="#000000" fill-rule="nonzero">
            <g id="whatsapp" transform="translate(56.000000, 56.000000)">
                <path d="M380.9,65.1 C339,23.1 283.2,0 223.9,0 C101.5,0 1.9,99.6 1.9,222 C1.9,261.1 12.1,299.3 31.5,333 L0,448 L117.7,417.1 C150.1,434.8 186.6,444.1 223.8,444.1 L223.9,444.1 C346.2,444.1 448,344.5 448,222.1 C448,162.8 422.8,107.1 380.9,65.1 Z M223.9,406.7 C190.7,406.7 158.2,397.8 129.9,381 L123.2,377 L53.4,395.3 L72,327.2 L67.6,320.2 C49.1,290.8 39.4,256.9 39.4,222 C39.4,120.3 122.2,37.5 224,37.5 C273.3,37.5 319.6,56.7 354.4,91.6 C389.2,126.5 410.6,172.8 410.5,222.1 C410.5,323.9 325.6,406.7 223.9,406.7 Z M325.1,268.5 C319.6,265.7 292.3,252.3 287.2,250.5 C282.1,248.6 278.4,247.7 274.7,253.3 C271,258.9 260.4,271.3 257.1,275.1 C253.9,278.8 250.6,279.3 245.1,276.5 C212.5,260.2 191.1,247.4 169.6,210.5 C163.9,200.7 175.3,201.4 185.9,180.2 C187.7,176.5 186.8,173.3 185.4,170.5 C184,167.7 172.9,140.4 168.3,129.3 C163.8,118.5 159.2,120 155.8,119.8 C152.6,119.6 148.9,119.6 145.2,119.6 C141.5,119.6 135.5,121 130.4,126.5 C125.3,132.1 111,145.5 111,172.8 C111,200.1 130.9,226.5 133.6,230.2 C136.4,233.9 172.7,289.9 228.4,314 C263.6,329.2 277.4,330.5 295,327.9 C305.7,326.3 327.8,314.5 332.4,301.5 C337,288.5 337,277.4 335.6,275.1 C334.3,272.6 330.6,271.2 325.1,268.5 Z" id="Shape"></path>
            </g>
        </g>
    </g>
</svg>