<?xml version="1.0" encoding="UTF-8"?>
<svg width="560px" height="560px" viewBox="0 0 560 560" version="1.1" xmlns="http://www.w3.org/2000/svg" xmlns:xlink="http://www.w3.org/1999/xlink">
    <!-- Generator: sketchtool 51.2 (57519) - http://www.bohemiancoding.com/sketch -->
    <title>yelp</title>
    <desc>Created with sketchtool.</desc>
    <defs></defs>
    <g id="Page-1" stroke="none" stroke-width="1" fill="none" fill-rule="evenodd">
        <g id="uA325-yelp" fill="#000000" fill-rule="nonzero">
            <g id="yelp" transform="translate(88.000000, 28.000000)">
                <path d="M136.9,320 C135.9,320.3 27.7,355.7 21.1,355.7 C5.9,354.8 2.6,339.5 1.2,324.5 C-0.3,310.3 -0.2,294.7 1.5,277.7 C3.4,258.9 7,232.6 25.7,233.7 C30.5,233.7 92.8,259.6 138.4,278.1 C155.5,284.9 157,313.9 136.9,320 Z M194.8,206.1 C196.6,244.3 169.3,254.6 147.6,220.4 L41.3,52.4 C39.8,45.8 41.6,40 46.6,35 C62.2,18.5 146,-4.8 168.1,0.9 C175.6,2.8 180.2,7 181.9,13.5 C183.2,21.8 193.4,180.9 194.8,206.1 Z M193.4,370.9 C193.4,375.5 193.6,487.3 191.7,492.4 C189.4,498.4 184.7,502.1 177.4,503.6 C167.3,505.3 150.3,501.7 126.4,492.9 C104.4,484.8 69.7,471.4 77.1,450.4 C79.9,443.5 128.5,387.6 154.4,356.8 C166.4,341.6 194.2,351.3 193.4,370.9 Z M373.6,253.1 C368,256.8 262.8,281.3 255.5,283.7 L255.8,283.1 C237.7,287.8 220.4,264.6 232.5,248.5 C236.2,244.8 298.4,156.1 305.3,151.5 C310.5,147.9 316.6,147.7 323.6,150.9 C342,159.7 378.7,214 381,235.5 C380.9,238.4 382.2,247.2 373.6,253.1 Z M383.7,383.8 C381,404.4 339.2,457.2 319.9,464.8 C313,467.4 307,466.8 302.2,462.8 C297.2,459.3 240.4,365.7 237.3,360.5 C226.4,344.3 244.1,320.7 262.9,327.3 C262.9,327.3 373.4,363 377.6,366.7 C382.8,370.8 384.8,376.5 383.7,383.8 Z" id="Shape"></path>
            </g>
        </g>
    </g>
</svg>