<?xml version="1.0" encoding="utf-8"?>

<!DOCTYPE svg PUBLIC "-//W3C//DTD SVG 1.1//EN" "http://www.w3.org/Graphics/SVG/1.1/DTD/svg11.dtd">
<svg version="1.1" id="Layer_1" xmlns="http://www.w3.org/2000/svg" xmlns:xlink="http://www.w3.org/1999/xlink" x="0px" y="0px"
	 viewBox="27 106 906 1708" enable-background="new 27 106 906 1708" xml:space="preserve">
<path fill="#ff6464" d="M799.6522,220.9083c13.39-6.3,27.96-9.27,42.49-11.49c1.95-0.4,3.89-0.02,5.6201,0.94c-2.83,5.77-7.55,10.26-11.6,15.16
	c-26.44,30.03-48.66,63.65-66.73,99.31c-4.63,8.84-8.68,17.99-13.04,26.96c-18.31,16.26-37.74,31.67-53.11,50.89
	c12.25-8.73,24.09-18.02,36.25-26.87c3.12-2.24,6.13-4.68,9.55-6.45c-8.97,20.93-17.12,42.23-24.06,63.94
	c-5.78,17.67-10.18,35.74-15.58,53.53c-13.06,43.17-29.88,85.12-48.65,126.11c-7.69,17.24-16.54,33.95-23.77,51.4
	c-8.9,21.15-16.65,42.9-27.99,62.93c-13.29,23.77-33.58,42.86-55.9,58.09c17.36-6.72,33.0099-17.68,45.54-31.42
	c6.74-7.17,12.12-15.43,17.35-23.71c-1.62,12.7401-5.79,25.01-9.06,37.4c-8.57,30.12-18.1,59.96-28.32,89.56
	c-5.68,15.96-11.44,31.92-18.41,47.38c3.66-3.51,7.25-7.1,10.99-10.52c-18.29,47.05-26.7,97.2-44.36,144.4501
	c-6.99,18.88-15.21,37.2899-24.62,55.08c-7.65,15.01-17.89,28.52-28.7,41.36c-5.74,6.51-11.57,12.96-18.06,18.74
	c-9.37,8.85-20.38,15.7001-30.48,23.66c-22.83,13.5499-45.17,28.34-64.78,46.2999c11.22-8.0699,22.51-16.35,35.1-22.1799
	c-13.84,11.5699-26.25,24.87-36.58,39.6899c-2.76,4.15-6.45,8.04-7.25,13.16c-0.68,0.75-1.37,1.5-2.07,2.26
	c2.54-1.99,5.75-2.36,8.86-2.72c7.91-1.42,16.34,0.24,23.15,4.51c7,4.4399,10.43,13.12,9.65,21.22c0.17,2.72-1.58,5.7,0.02,8.23
	c5.6,9.85,7.96,21.67,5.72,32.85c-1.68,7.9601-6.04,15.1-11.5,21.03c-1.77,1.65-2.46,5.53-5.56,4.41l-0.02,0.6799
	c-3.68,2.12-7.36,4.24-11.22,6.02c-0.08,0.54-0.24,1.63-0.33,2.17c0.73-0.03,2.17-0.09,2.89-0.12c-2.99,0.38-1.12,3.11-1.33,4.84
	c0.31,5.28-3,10.25-7.4,12.95c-3.07,2.04-6.71,2.8201-10.24,3.6801c-1.5,22.4399,1.94,45.6899,12.68,65.67
	c8.28,15.63,20.97,28.7,35.85,38.1599c17.58,11.28,37.72,17.9301,58.07,22.0701c8.14,1.6699,16.22,4.1799,23.32,8.59
	c7.36,4.7,14.45,10.62,17.98,18.84c6.48,14.63,7.39,31.14,5.76,46.88c-2.11,21.37-8.19,42.2101-16.64,61.9
	c-7.02,15.89-15.71,31.15-26.81,44.5601c6.96,3.75,7,16.25-0.84,18.8099c-53.73,7.55-108.09,9.15-162.28,8.92
	c-47.28-0.24-94.8-1.2001-141.55-8.88c-7.76-2.24-8.04-14.15-1.86-18.4401c-11.66-13.25-20.35-28.8199-27.38-44.9399
	c-7.56-17.84-13.09-36.64-15.33-55.92c-1.36-12.51-1.29-25.33,1.8-37.59c1.92-7.83,5.6-15.1,9.85-21.9
	c6.17-8.5699,15.52-14.49,25.42-17.87c6.64-2.36,13.69-3.15,20.5-4.86c19.59-4.72,38.84-12.11,55.2-24.0699
	c13.56-9.8301,24.8-22.92,32.05-38.04c8.85-18.29,11.89-38.9401,10.89-59.1c-22.9,1.73-44.71-16.04-48.67-38.4401
	c-0.47-2.9299-0.68-5.9199-1.93-8.64c-4.5-11.3199-4.4-24.8199,1.88-35.46c3.68-6.52,9.76-11.2,16.01-15.1
	c2.83-1.65,3.34-5.3101,5.71-7.4401c9.59-9.74,25.41-12.47,37.71-6.47c-7.86-9.71-17.9-17.71-29.28-22.91
	c15.42,5.4301,28.08,16.9501,37.88,29.79c-9.11-19.9301-23.8-38.3099-44-47.72c6.78,1.75,12.53,6.12,18.14,10.14
	c9.87,7.5,17.81,17.2,24.55,27.5399c-1.71-5.89-2.87-11.8999-4.18-17.88c5.3,9.12,10.48,18.3301,16.58,26.9501
	c-5.09-10.89-10.25-21.76-14.49-33.02c-2.6-7.47-6.17-14.77-6.85-22.75c-3.81-28.85-5.28-57.98-5.01-87.0699
	c-0.9-43.01,5.27-85.7301,10.87-128.2601c6.18,13.08,10.98,26.77,16.59,40.1001c1.66,3.72,2.85,7.72,5.25,11.08
	c-4.6-23.63-10.51-46.9901-15.5-70.54c-0.64-3.47-1.79-6.9-1.73-10.45c2.03-16.73,5.1-33.31,7.9-49.92
	c4.3-24.65,8.54-49.3,12.64-73.98c3.34-20.69,6.99-41.36,9.24-62.21c1.16,13.16,2.56,26.39,6.15,39.16
	c6.55,24.92,18.81,48.32,35.55,67.91c-3.82-7.48-7.48-15.07-10.66-22.84c-0.69-1.11,0.01-2.09,0.82-2.84
	c4.37,8.65,8.27,17.56,13.25,25.89c-7.73-15.5699-15.83-31.0699-21.58-47.54c-1.32-0.09-2.06-0.77-2.22-2.03
	c-6.97-23.71-11.4-48.96-6.63-73.52c1.45-6.41,7.92-9.16,12.2-13.36c3.89-3.75,4.58-9.53,3.92-14.64
	c-1.84-15.54,1.69-31.11,6.87-45.69c10.88-30.11,28.64-57.03,41.64-86.19c8.65-15.9,19.11-30.73,29.21-45.73
	c23.28-33.56,47.04-66.81,71.74-99.35c6.29-7.92,12.22-16.2,19.28-23.46c-2.27,6.23-4.87,12.62-4.25,19.41
	c0.19,6.59,4.2,12.07,6.4301,18.04c0.39-18.9,7.39-36.87,16.18-53.36c8.08-14.93,17.9-29.01,29.74-41.22
	c5.26-5.21,10.9-10.12,17.38-13.76c-2.98,6.32-4.5,13.33-4.35,20.33c3.31-15.44,13.96-27.78,24.29-39.15
	c25.59-26.67,55.68-48.52,86.2-69.17C724.5722,260.0683,761.0022,238.1883,799.6522,220.9083 M543.6822,583.1183
	c-26.52,50.61-50.94,102.33-72.92,155.08c-27.92,66.67-51.78,134.98-73.17,204c-0.85-0.02-2.55-0.06-3.41-0.08
	c-1.15-4.25-4.62-7.22-6.87-10.87c-8.7-11.79-16.08-24.47-23.71-36.94c8.25,15.58,18.18,30.23,28.61,44.43
	c0.67,1.05,1.28,2.15,1.82,3.3c-0.91-0.0099-2.73-0.04-3.64-0.05c1.49,2.47,1.67,5.22,0.97,8c0.94,0.01,2.81,0.02,3.75,0.02
	c-1.15,4.96-2.81,9.77-4.22,14.66c-28.55,96.2101-52.5,193.72-74.38,291.6401c2.56-0.04,5.65,0.5701,7.91-0.1799
	c13.91-59.75,28.13-119.4401,43.6-178.8101c13.2-50.76,26.78-101.4401,42.17-151.5901c22.04-71.8,46.66-142.92,76.2-212.0099
	c18.07-40.51,37.04-80.61,56.72-120.36c1.67-3.72,4.31-7.13,4.7-11.3C546.3722,582.1783,544.2122,581.1783,543.6822,583.1183
	 M348.0622,1262.0884c6.26-1.7001,12.88-2.66,19.27-1.04c8.59,1.53,16.4,7.96,18.46,16.61c0.41,2.35,1.35,4.52,2.92,6.36
	c2.48-8.2699-0.66-18.26-7.87-23.1799c-5.77-3.63-12.84-5.1-19.59-4.34C356.5222,1257.2084,351.4222,1258.4183,348.0622,1262.0884
	 M241.2622,1278.4884c7.23-3.1801,14.99-5.55,22.98-5.3101c7.74-0.23,15.12,2.47,22.11,5.51c-2.72-3.1-5.56-6.26-9.29-8.15
	C265.3522,1264.5684,249.1422,1267.7583,241.2622,1278.4884 M341.4922,1272.7883c-3.57,2.2101-4.49,6.6-5.13,10.4401
	c4.53-4.92,10.25-8.9,16.81-10.53c6.4-1.6901,13.05-0.12,19.22,1.74c-5.79-4.29-12.92-6.8-20.17-6.59
	C348.0722,1267.6284,344.7422,1270.6184,341.4922,1272.7883 M334.1022,1294.0884c3.47,0.27,6.86,1.14,10.09,2.4299
	c10.06-3.38,21.29-1.1699,30.03,4.41l0.52-0.0599c3.72,4.37,8.83,7.61,11.47,12.8899c0.91,1.2201,1.06,3.1901,2.58,3.88
	c4.11-8.2599,4.47-18.72-1.21-26.36c-2.96,4.5601-7.77,7.25-12.16,10.2201c-1.13-3.51,2.83-2.75,4.11-4.78
	c2.63-3.4401,3.34-7.88,3.33-12.1c-7.75-6.6001-18.42-10.5601-28.58-8.27C345.2422,1278.8784,338.8022,1286.3584,334.1022,1294.0884
	 M238.8622,1283.9984c-1.23,4.0599-0.79,8.36-0.06,12.47c9.08-6.55,20.05-10.79,31.3-11.01c4.48,1.14,8.7-0.91,13.08-1.51
	C269.5222,1277.0984,252.2422,1275.9183,238.8622,1283.9984 M222.3522,1298.6184c-5.62,9.13-6.16,20.74-3.1,30.85
	c1.61-12.55,8.39-24.03,18.18-31.9401c-1.01-4-1.7-8.13-1.07-12.24C231.1222,1289.0383,225.7122,1292.9784,222.3522,1298.6184
	 M281.9722,1287.5784c4.63,1.89,9.11,4.14,13.32,6.87c-1.07-3.22-3.68-5.62-6.73-6.92
	C286.3822,1287.0583,284.1522,1287.3184,281.9722,1287.5784 M384.8022,1292.2384c1.5,0.09,2.44-2.27,1.81-3.4601
	C385.1022,1288.4984,384.4022,1291.0483,384.8022,1292.2384 M240.5622,1301.2284c2.42,3.77,5.4,7.37,9.56,9.3099
	c2.06-8.4099,8.8-14.1799,14.81-19.8199C256.3622,1292.9183,247.5422,1295.4584,240.5622,1301.2284 M268.1022,1292.4884
	c-6.96,4.4299-13.23,10.5599-16,18.5c0.83,0.2699,2.49,0.8099,3.32,1.08c3.49-5.73,9.03-10.39,15.8-11.49
	c10.43-1.88,20.5,3.54,28.01,10.36c1.42-4.11-2.66-6.09-5.35-8.11c-6.64-4.6801-13.64-9.3-21.61-11.3201
	C270.7622,1290.7683,269.3322,1291.7184,268.1022,1292.4884 M333.6522,1296.2284c-0.42,1.9399-0.82,3.89-1.24,5.85
	c2.89-1.76,5.92-3.28,9-4.66C338.8822,1296.6884,336.2922,1296.1783,333.6522,1296.2284 M349.1122,1299.5083
	c5.44,4.16,9.35,10.9701,7.97,17.9701c-0.61,5.65-4.65,10.15-9.08,13.34c12.77,8.62,31.46,2.78,38.89-10.16
	c-1.3-4.95-4.72-8.95-8.17-12.5699C371.1222,1300.4183,359.5922,1297.5784,349.1122,1299.5083 M333.8622,1306.3083
	c-1.11,0.9301-2.72,1.72-2.96,3.3101c-2.39,11.61-4.63,23.25-7.02,34.86c7.78,0.13,15.56-0.1901,23.34-0.24
	c6.95-0.3,14.32,1.4199,19.21,6.6799c7.82-3.24,14.99-8.4199,19.85-15.4c1.69-3.8199,1.49-8.1599,1.26-12.22
	c-4.96,5.87-11.56,10.66-19.29,11.9301c-7.22,1.64-14.88-0.0701-20.97-4.1801c-4.34,1.9-9.02,1.1901-13.05-1.12
	c3.89,1.64,8.3,3.04,12.28,0.73c-2.24-2.5299-4.3-5.3099-5.01-8.6699l-0.79,0.2699c-0.05-1.5-0.09-2.99-0.02-4.46
	c1.79,1.35,0.78,3.8101,1.52,5.66c1.03,2.65,2.79,5.13,5.11,6.8099c6.39-3.48,10.41-11.4199,8.5-18.6c-1-4.9-4.59-8.83-8.75-11.36
	C342.2722,1300.9984,337.8422,1303.5784,333.8622,1306.3083 M223.1222,1338.6284c5.15,10.61,15.59,18.5699,27.25,20.61
	c0.71-8.52,8.87-13.9701,16.79-14.8201c-6.78-3.25-12.87-8.63-15.73-15.71c-2.36-5.39-2.46-11.4401-1.61-17.17
	c-4.44-1.99-7.92-5.52-10.48-9.59C228.4922,1310.5684,220.9022,1324.5083,223.1222,1338.6284 M265.0522,1308.2783
	c-1.38,0.9601-3.39,1.8-3.44,3.78c-4.5,2.01-5.91,7.9401-6.24,12.47c-0.48,5.14,3.09,9.12,6.78,12.13
	c-4.88-2.51-8.25-7.52-8.68-12.99c-0.59-3.78,0.76-7.4199,1.58-11.03c-0.8-0.1499-2.4-0.4399-3.19-0.58
	c-0.85,4.42-1.09,9.0601,0.16,13.45c1.82,7.1801,7.12,13.02,13.31,16.8401c4.15,2.76,9.33,1.9199,14.04,2.08
	c3.92,0.1901,6.95-2.61,9.77-4.9399c1.87-1.91,4.48-3.5601,4.8-6.4401c1-4.8099,2.3-9.5599,3.12-14.41
	c-2.17-4.49-6.47-7.7799-10.86-10C279.6622,1305.6984,271.4622,1304.2883,265.0522,1308.2783 M393.7222,1309.4384
	c-1.02,4.14-2.65,8.09-4.72,11.8101c0.59,3.1399,0.46,6.35,0.64,9.5499C392.7722,1324.1383,394.4222,1316.8083,393.7222,1309.4384
	 M288.4822,1341.4484l-0.54-0.54c-1.6,1.29-3.28,2.4701-4.96,3.67c2.8-0.11,5.61-0.12,8.42-0.14c0.3-1.86,1.42-3.8099,0.63-5.63
	C290.4422,1338.5283,289.5822,1340.5684,288.4822,1341.4484 M224.0722,1343.3883c4.51,19.91,24.6,36.15,45.27,33.79
	c-2.87-1.83-6.49-1.71-9.43-3.39c-5.51-2.5499-9.76-8.1-9.48-14.35C239.7522,1358.1984,230.6822,1351.5483,224.0722,1343.3883z"/>
</svg>
