<?xml version="1.0" encoding="utf-8"?>
<svg width="15.00049877166748" height="15.000017166137695" viewBox="-6.00049 -5.99902 15.0005 15" xmlns="http://www.w3.org/2000/svg">
  <path style="fill:#FF0C38;" d="M 8.166 -5.999 L 4.832 -5.999 L 4.825 -5.999 L 1.5 -5.999 C 1.039 -5.999 0.666 -5.694 0.666 -5.317 C 0.666 -4.941 1.039 -4.635 1.5 -4.635 L 3.816 -4.635 L 0.816 7.637 L -1.834 7.637 C -2.294 7.637 -2.667 7.943 -2.667 8.319 C -2.667 8.696 -2.294 9.001 -1.834 9.001 L 1.497 9.001 C 1.498 9.001 1.499 9.001 1.5 9.001 C 1.502 9.001 1.503 9.001 1.504 9.001 L 4.833 9.001 C 5.293 9.001 5.666 8.696 5.666 8.319 C 5.666 7.943 5.293 7.637 4.833 7.637 L 2.516 7.637 L 5.516 -4.635 L 8.166 -4.635 C 8.626 -4.635 8.999 -4.941 8.999 -5.317 C 9 -5.694 8.626 -5.999 8.166 -5.999 Z" transform="matrix(1.0000000000000002, 0, 0, 1.0000000000000002, 0, 0)"/>
  <g transform="matrix(0.03580699861049653, 0, 0, 0.02929700165987015, -6.000491142272949, -5.999019145965575)"/>
  <g transform="matrix(0.03580699861049653, 0, 0, 0.02929700165987015, -6.000491142272949, -5.999019145965575)"/>
  <g transform="matrix(0.03580699861049653, 0, 0, 0.02929700165987015, -6.000491142272949, -5.999019145965575)"/>
  <g transform="matrix(0.03580699861049653, 0, 0, 0.02929700165987015, -6.000491142272949, -5.999019145965575)"/>
  <g transform="matrix(0.03580699861049653, 0, 0, 0.02929700165987015, -6.000491142272949, -5.999019145965575)"/>
  <g transform="matrix(0.03580699861049653, 0, 0, 0.02929700165987015, -6.000491142272949, -5.999019145965575)"/>
  <g transform="matrix(0.03580699861049653, 0, 0, 0.02929700165987015, -6.000491142272949, -5.999019145965575)"/>
  <g transform="matrix(0.03580699861049653, 0, 0, 0.02929700165987015, -6.000491142272949, -5.999019145965575)"/>
  <g transform="matrix(0.03580699861049653, 0, 0, 0.02929700165987015, -6.000491142272949, -5.999019145965575)"/>
  <g transform="matrix(0.03580699861049653, 0, 0, 0.02929700165987015, -6.000491142272949, -5.999019145965575)"/>
  <g transform="matrix(0.03580699861049653, 0, 0, 0.02929700165987015, -6.000491142272949, -5.999019145965575)"/>
  <g transform="matrix(0.03580699861049653, 0, 0, 0.02929700165987015, -6.000491142272949, -5.999019145965575)"/>
  <g transform="matrix(0.03580699861049653, 0, 0, 0.02929700165987015, -6.000491142272949, -5.999019145965575)"/>
  <g transform="matrix(0.03580699861049653, 0, 0, 0.02929700165987015, -6.000491142272949, -5.999019145965575)"/>
  <g transform="matrix(0.03580699861049653, 0, 0, 0.02929700165987015, -6.000491142272949, -5.999019145965575)"/>
</svg>