<?xml version="1.0" encoding="iso-8859-1"?>
<!-- Generator: Adobe Illustrator 19.0.0, SVG Export Plug-In . SVG Version: 6.00 Build 0)  -->
<svg version="1.1" id="Layer_1" xmlns="http://www.w3.org/2000/svg" xmlns:xlink="http://www.w3.org/1999/xlink" x="0px" y="0px"
	 viewBox="0 0 512 512" style="enable-background:new 0 0 512 512;" xml:space="preserve">
<path style="fill:#FF0C38;" d="M395.635,0h-93.118h-0.191h-92.871c-12.853,0-23.272,10.421-23.272,23.272
	c0,12.854,10.42,23.272,23.272,23.272h64.702l-83.781,418.904h-74.011c-12.853,0-23.272,10.421-23.272,23.272
	c0,12.854,10.42,23.272,23.272,23.272h93.022c0.033,0,0.062,0.006,0.092,0.006c0.036,0,0.07-0.006,0.102-0.006h92.963
	c12.853,0,23.272-10.418,23.272-23.272c0-12.851-10.42-23.272-23.272-23.272h-64.702l83.781-418.904h74.011
	c12.853,0,23.272-10.418,23.272-23.272C418.908,10.421,408.488,0,395.635,0z"/>
<g>
</g>
<g>
</g>
<g>
</g>
<g>
</g>
<g>
</g>
<g>
</g>
<g>
</g>
<g>
</g>
<g>
</g>
<g>
</g>
<g>
</g>
<g>
</g>
<g>
</g>
<g>
</g>
<g>
</g>
</svg>
