<?xml version="1.0" encoding="iso-8859-1"?>
<!-- Generator: Adobe Illustrator 19.0.0, SVG Export Plug-In . SVG Version: 6.00 Build 0)  -->
<svg version="1.1" id="Layer_1" xmlns="http://www.w3.org/2000/svg" xmlns:xlink="http://www.w3.org/1999/xlink" x="0px" y="0px"
	 viewBox="0 0 512 512" style="enable-background:new 0 0 512 512;" xml:space="preserve">
<path style="fill:#FF3F62;" d="M488.727,232.73H306.485c-0.02,0-0.039-0.002-0.059-0.002H205.574
	c-20.72,0-40.203-8.068-54.854-22.722c-14.651-14.651-22.722-34.13-22.722-54.852s8.069-40.206,22.722-54.857
	c14.651-14.651,34.13-22.72,54.849-22.72c0.003,0,0.003,0,0.006,0l201.699-0.003c12.853,0,23.273-10.42,23.273-23.273
	s-10.42-23.273-23.273-23.273l-201.699,0.005c-0.003,0-0.003,0-0.006,0c-33.151,0-64.321,12.91-87.763,36.354
	c-23.442,23.442-36.354,54.615-36.354,87.769c0,28.557,9.601,55.63,27.241,77.574H23.273C10.42,232.73,0,243.15,0,256.002
	c0,12.853,10.42,23.273,23.273,23.273h283.212c42.749,0.033,77.517,34.819,77.517,77.576c0,20.72-8.069,40.201-22.722,54.852
	c-14.652,14.654-34.135,22.722-54.855,22.722l-201.699,0.002c-12.853,0-23.273,10.42-23.273,23.273
	c0,12.853,10.42,23.273,23.273,23.273l201.699-0.002c0.002,0,0,0,0.003,0c33.151,0,64.321-12.91,87.765-36.354
	c23.443-23.443,36.355-54.613,36.355-87.766c0-29.334-10.251-56.309-27.331-77.576h85.512c12.853,0,23.273-10.42,23.273-23.273
	C512,243.15,501.58,232.73,488.727,232.73z"/>
<path style="fill:#FF0C38;" d="M306.426,232.728H205.574c-20.72,0-40.203-8.068-54.854-22.722
	c-14.651-14.651-22.722-34.13-22.722-54.852s8.069-40.206,22.722-54.858c14.651-14.651,34.13-22.719,54.851-22.719
	c0.003,0,0.003,0,0.006,0l201.699-0.003c12.853,0,23.273-10.42,23.273-23.273s-10.42-23.273-23.273-23.273l-201.7,0.005
	c-0.003,0-0.003,0-0.006,0c-33.151,0-64.321,12.91-87.763,36.354c-23.442,23.442-36.354,54.615-36.354,87.769
	c0,28.557,9.601,55.63,27.241,77.574h197.79C306.465,232.73,306.446,232.728,306.426,232.728z"/>
<path style="fill:#830018;" d="M488.727,232.73H306.485h-197.79H23.273C10.42,232.73,0,243.15,0,256.002
	c0,12.853,10.42,23.273,23.273,23.273h283.212h96.731h85.512c12.853,0,23.273-10.42,23.273-23.273S501.58,232.73,488.727,232.73z"/>
<g>
</g>
<g>
</g>
<g>
</g>
<g>
</g>
<g>
</g>
<g>
</g>
<g>
</g>
<g>
</g>
<g>
</g>
<g>
</g>
<g>
</g>
<g>
</g>
<g>
</g>
<g>
</g>
<g>
</g>
</svg>
