<?xml version="1.0" encoding="utf-8"?>
<svg width="17.000003814697266" height="14.999509811401367" viewBox="-6.00101 -6.00051 17 14.9995" xmlns="http://www.w3.org/2000/svg">
  <path style="fill:#FF3F62;" d="M 10.226 1.258 L 4.175 1.258 C 4.175 1.258 4.174 1.258 4.173 1.258 L 0.825 1.258 C 0.137 1.258 -0.51 1.006 -0.997 0.549 C -1.483 0.092 -1.751 -0.515 -1.751 -1.162 C -1.751 -1.808 -1.483 -2.416 -0.997 -2.873 C -0.51 -3.329 0.137 -3.581 0.824 -3.581 C 0.825 -3.581 0.825 -3.581 0.825 -3.581 L 7.522 -3.581 C 7.948 -3.581 8.294 -3.906 8.294 -4.307 C 8.294 -4.708 7.948 -5.033 7.522 -5.033 L 0.825 -5.033 C 0.825 -5.033 0.825 -5.033 0.824 -5.033 C -0.276 -5.033 -1.311 -4.63 -2.089 -3.899 C -2.868 -3.168 -3.297 -2.196 -3.297 -1.162 C -3.297 -0.271 -2.978 0.573 -2.392 1.258 L -5.228 1.258 C -5.655 1.258 -6.001 1.583 -6.001 1.983 C -6.001 2.384 -5.655 2.709 -5.228 2.709 L 4.175 2.709 C 5.595 2.71 6.749 3.795 6.749 5.129 C 6.749 5.775 6.481 6.382 5.995 6.839 C 5.508 7.296 4.861 7.548 4.173 7.548 L -2.524 7.548 C -2.951 7.548 -3.297 7.873 -3.297 8.274 C -3.297 8.675 -2.951 8.999 -2.524 8.999 L 4.173 8.999 C 4.173 8.999 4.173 8.999 4.173 8.999 C 5.274 8.999 6.309 8.597 7.087 7.866 C 7.866 7.135 8.294 6.162 8.294 5.129 C 8.294 4.214 7.954 3.372 7.387 2.709 L 10.226 2.709 C 10.653 2.709 10.999 2.384 10.999 1.983 C 10.999 1.583 10.653 1.258 10.226 1.258 Z" transform="matrix(1.0000000000000002, 0, 0, 1.0000000000000002, 0, 0)"/>
  <path style="fill:#FF0C38;" d="M 4.173 1.258 L 0.825 1.258 C 0.137 1.258 -0.51 1.006 -0.997 0.549 C -1.483 0.092 -1.751 -0.515 -1.751 -1.162 C -1.751 -1.808 -1.483 -2.416 -0.997 -2.873 C -0.51 -3.33 0.137 -3.581 0.825 -3.581 C 0.825 -3.581 0.825 -3.581 0.825 -3.581 L 7.522 -3.581 C 7.949 -3.581 8.295 -3.906 8.295 -4.307 C 8.295 -4.708 7.949 -5.033 7.522 -5.033 L 0.825 -5.033 C 0.825 -5.033 0.825 -5.033 0.825 -5.033 C -0.276 -5.033 -1.311 -4.63 -2.089 -3.899 C -2.868 -3.168 -3.297 -2.196 -3.297 -1.162 C -3.297 -0.271 -2.978 0.573 -2.392 1.258 L 4.175 1.258 C 4.175 1.258 4.174 1.258 4.173 1.258 Z" transform="matrix(1.0000000000000002, 0, 0, 1.0000000000000002, 0, 0)"/>
  <path style="fill:#830018;" d="M 10.226 1.258 L 4.175 1.258 L -2.392 1.258 L -5.228 1.258 C -5.655 1.258 -6.001 1.583 -6.001 1.983 C -6.001 2.384 -5.655 2.709 -5.228 2.709 L 4.175 2.709 L 7.387 2.709 L 10.226 2.709 C 10.653 2.709 10.999 2.384 10.999 1.983 C 10.999 1.583 10.653 1.258 10.226 1.258 Z" transform="matrix(1.0000000000000002, 0, 0, 1.0000000000000002, 0, 0)"/>
  <g transform="matrix(0.03320299834012986, 0, 0, 0.031187001615762718, -6.001007080078097, -6.000510215759277)"/>
  <g transform="matrix(0.03320299834012986, 0, 0, 0.031187001615762718, -6.001007080078097, -6.000510215759277)"/>
  <g transform="matrix(0.03320299834012986, 0, 0, 0.031187001615762718, -6.001007080078097, -6.000510215759277)"/>
  <g transform="matrix(0.03320299834012986, 0, 0, 0.031187001615762718, -6.001007080078097, -6.000510215759277)"/>
  <g transform="matrix(0.03320299834012986, 0, 0, 0.031187001615762718, -6.001007080078097, -6.000510215759277)"/>
  <g transform="matrix(0.03320299834012986, 0, 0, 0.031187001615762718, -6.001007080078097, -6.000510215759277)"/>
  <g transform="matrix(0.03320299834012986, 0, 0, 0.031187001615762718, -6.001007080078097, -6.000510215759277)"/>
  <g transform="matrix(0.03320299834012986, 0, 0, 0.031187001615762718, -6.001007080078097, -6.000510215759277)"/>
  <g transform="matrix(0.03320299834012986, 0, 0, 0.031187001615762718, -6.001007080078097, -6.000510215759277)"/>
  <g transform="matrix(0.03320299834012986, 0, 0, 0.031187001615762718, -6.001007080078097, -6.000510215759277)"/>
  <g transform="matrix(0.03320299834012986, 0, 0, 0.031187001615762718, -6.001007080078097, -6.000510215759277)"/>
  <g transform="matrix(0.03320299834012986, 0, 0, 0.031187001615762718, -6.001007080078097, -6.000510215759277)"/>
  <g transform="matrix(0.03320299834012986, 0, 0, 0.031187001615762718, -6.001007080078097, -6.000510215759277)"/>
  <g transform="matrix(0.03320299834012986, 0, 0, 0.031187001615762718, -6.001007080078097, -6.000510215759277)"/>
  <g transform="matrix(0.03320299834012986, 0, 0, 0.031187001615762718, -6.001007080078097, -6.000510215759277)"/>
</svg>