<?xml version="1.0" encoding="utf-8"?>
<svg width="15.000011444091797" height="15" viewBox="-7.49001 -7.491 15 15" xmlns="http://www.w3.org/2000/svg">
  <path style="fill:#EE8700;" d="M 7.185 6.808 L 6.19 6.808 L 6.19 6.802 C 6.19 6.698 6.429 6.528 6.622 6.392 C 7.006 6.122 7.483 5.785 7.483 5.201 C 7.483 4.647 7.054 4.229 6.484 4.229 C 5.939 4.229 5.527 4.604 5.527 5.101 C 5.527 5.389 5.715 5.492 5.876 5.492 C 6.106 5.492 6.244 5.32 6.244 5.155 C 6.244 5.052 6.27 4.934 6.476 4.934 C 6.755 4.934 6.763 5.181 6.763 5.209 C 6.763 5.431 6.475 5.638 6.196 5.839 C 5.852 6.087 5.462 6.368 5.462 6.802 L 5.462 7.176 C 5.462 7.375 5.644 7.509 5.814 7.509 L 7.185 7.509 C 7.364 7.509 7.51 7.351 7.51 7.157 C 7.51 6.964 7.364 6.808 7.185 6.808 Z" transform="matrix(1.0000000000000002, 0, 0, 1.0000000000000002, 0, 0)"/>
  <path style="fill:#FF0C38;" d="M 3.99 -7.247 C 3.691 -7.491 3.251 -7.446 3.007 -7.147 L -1.578 -1.52 L -6.162 -7.147 C -6.406 -7.446 -6.846 -7.491 -7.146 -7.247 C -7.445 -7.003 -7.49 -6.563 -7.246 -6.264 L -2.48 -0.414 L -7.246 5.436 C -7.49 5.736 -7.445 6.176 -7.146 6.42 C -7.016 6.525 -6.86 6.577 -6.705 6.577 C -6.502 6.577 -6.3 6.489 -6.162 6.319 L -1.578 0.693 L 3.007 6.319 C 3.145 6.489 3.346 6.577 3.549 6.577 C 3.704 6.577 3.861 6.525 3.99 6.42 C 4.29 6.176 4.334 5.735 4.091 5.436 L -0.676 -0.414 L 4.091 -6.264 C 4.334 -6.563 4.29 -7.003 3.99 -7.247 Z" transform="matrix(1.0000000000000002, 0, 0, 1.0000000000000002, 0, 0)"/>
  <g transform="matrix(0.02912700176239014, 0, 0, 0.02912700176239014, -7.403287887573214, -7.404273986816406)"/>
  <g transform="matrix(0.02912700176239014, 0, 0, 0.02912700176239014, -7.403287887573214, -7.404273986816406)"/>
  <g transform="matrix(0.02912700176239014, 0, 0, 0.02912700176239014, -7.403287887573214, -7.404273986816406)"/>
  <g transform="matrix(0.02912700176239014, 0, 0, 0.02912700176239014, -7.403287887573214, -7.404273986816406)"/>
  <g transform="matrix(0.02912700176239014, 0, 0, 0.02912700176239014, -7.403287887573214, -7.404273986816406)"/>
  <g transform="matrix(0.02912700176239014, 0, 0, 0.02912700176239014, -7.403287887573214, -7.404273986816406)"/>
  <g transform="matrix(0.02912700176239014, 0, 0, 0.02912700176239014, -7.403287887573214, -7.404273986816406)"/>
  <g transform="matrix(0.02912700176239014, 0, 0, 0.02912700176239014, -7.403287887573214, -7.404273986816406)"/>
  <g transform="matrix(0.02912700176239014, 0, 0, 0.02912700176239014, -7.403287887573214, -7.404273986816406)"/>
  <g transform="matrix(0.02912700176239014, 0, 0, 0.02912700176239014, -7.403287887573214, -7.404273986816406)"/>
  <g transform="matrix(0.02912700176239014, 0, 0, 0.02912700176239014, -7.403287887573214, -7.404273986816406)"/>
  <g transform="matrix(0.02912700176239014, 0, 0, 0.02912700176239014, -7.403287887573214, -7.404273986816406)"/>
  <g transform="matrix(0.02912700176239014, 0, 0, 0.02912700176239014, -7.403287887573214, -7.404273986816406)"/>
  <g transform="matrix(0.02912700176239014, 0, 0, 0.02912700176239014, -7.403287887573214, -7.404273986816406)"/>
  <g transform="matrix(0.02912700176239014, 0, 0, 0.02912700176239014, -7.403287887573214, -7.404273986816406)"/>
</svg>