<?xml version="1.0" encoding="iso-8859-1"?>
<!-- Generator: Adobe Illustrator 19.0.0, SVG Export Plug-In . SVG Version: 6.00 Build 0)  -->
<svg version="1.1" id="Layer_1" xmlns="http://www.w3.org/2000/svg" xmlns:xlink="http://www.w3.org/1999/xlink" x="0px" y="0px"
	 viewBox="0 0 512.002 512.002" style="enable-background:new 0 0 512.002 512.002;" xml:space="preserve">
<path style="fill:#EE8700;" d="M500.834,88.554H466.67V88.36c0-3.594,8.235-9.406,14.854-14.077
	c13.166-9.291,29.552-20.853,29.552-40.906c0-19.027-14.746-33.374-34.301-33.374c-18.723,0-32.843,12.87-32.843,29.938
	c0,9.904,6.445,13.419,11.966,13.419c7.901,0,12.622-5.883,12.622-11.57c0-3.536,0.907-7.594,7.99-7.594
	c9.566,0,9.843,8.477,9.843,9.443c0,7.619-9.89,14.741-19.451,21.629c-11.822,8.515-25.221,18.166-25.221,33.091v12.819
	c0,6.84,6.256,11.437,12.101,11.437h47.05c6.158,0,11.168-5.427,11.168-12.098C512.002,93.92,506.992,88.554,500.834,88.554z"/>
<path style="fill:#FF0C38;" d="M391.162,37.39c-10.272-8.373-25.394-6.829-33.766,3.445L200.002,234.002L42.608,40.837
	c-8.373-10.275-23.493-11.818-33.766-3.445C-1.435,45.765-2.978,60.883,5.395,71.158l163.646,200.84L5.397,472.837
	c-8.371,10.277-6.83,25.394,3.446,33.766c4.453,3.629,9.816,5.395,15.146,5.395c6.966,0,13.877-3.019,18.621-8.84l157.392-193.166
	l157.394,193.165c4.744,5.822,11.653,8.84,18.621,8.84c5.33,0,10.693-1.765,15.146-5.395c10.277-8.371,11.819-23.49,3.446-33.766
	L230.962,271.997l163.646-200.84C402.981,60.882,401.438,45.765,391.162,37.39z"/>
<g>
</g>
<g>
</g>
<g>
</g>
<g>
</g>
<g>
</g>
<g>
</g>
<g>
</g>
<g>
</g>
<g>
</g>
<g>
</g>
<g>
</g>
<g>
</g>
<g>
</g>
<g>
</g>
<g>
</g>
</svg>
