<?xml version="1.0" encoding="utf-8"?>
<svg width="14.999988555908203" height="15" viewBox="-2.97799 -4.71250e-7 15 15" xmlns="http://www.w3.org/2000/svg">
  <path style="fill:#EE8700;" d="M 11.697 2.594 L 10.702 2.594 L 10.702 2.589 C 10.702 2.483 10.941 2.313 11.134 2.176 C 11.518 1.904 11.995 1.565 11.995 0.978 C 11.995 0.42 11.566 0 10.996 0 C 10.451 0 10.039 0.377 10.039 0.877 C 10.039 1.167 10.227 1.27 10.388 1.27 C 10.618 1.27 10.755 1.098 10.755 0.931 C 10.755 0.828 10.782 0.709 10.988 0.709 C 11.267 0.709 11.275 0.957 11.275 0.986 C 11.275 1.209 10.987 1.417 10.708 1.619 C 10.364 1.869 9.974 2.151 9.974 2.589 L 9.974 2.964 C 9.974 3.165 10.156 3.299 10.326 3.299 L 11.697 3.299 C 11.876 3.299 12.022 3.14 12.022 2.945 C 12.022 2.752 11.876 2.594 11.697 2.594 Z" transform="matrix(1, 0, 0, 1, 2.842170943040401e-14, 0)"/>
  <path style="fill:#FF0C38;" d="M 8.502 1.095 C 8.203 0.85 7.763 0.895 7.519 1.196 L 2.934 6.856 L -1.65 1.196 C -1.894 0.895 -2.334 0.85 -2.634 1.095 C -2.933 1.341 -2.978 1.784 -2.734 2.085 L 2.032 7.969 L -2.734 13.853 C -2.978 14.154 -2.933 14.597 -2.634 14.842 C -2.504 14.948 -2.348 15 -2.193 15 C -1.99 15 -1.788 14.912 -1.65 14.741 L 2.934 9.082 L 7.519 14.741 C 7.657 14.912 7.858 15 8.061 15 C 8.216 15 8.373 14.948 8.502 14.842 C 8.802 14.597 8.847 14.154 8.603 13.853 L 3.836 7.969 L 8.603 2.085 C 8.847 1.784 8.802 1.341 8.502 1.095 Z" transform="matrix(1, 0, 0, 1, 2.842170943040401e-14, 0)"/>
  <g transform="matrix(0.029127001762390137, 0, 0, 0.029297001659870148, -2.8912589550018026, 0)"/>
  <g transform="matrix(0.029127001762390137, 0, 0, 0.029297001659870148, -2.8912589550018026, 0)"/>
  <g transform="matrix(0.029127001762390137, 0, 0, 0.029297001659870148, -2.8912589550018026, 0)"/>
  <g transform="matrix(0.029127001762390137, 0, 0, 0.029297001659870148, -2.8912589550018026, 0)"/>
  <g transform="matrix(0.029127001762390137, 0, 0, 0.029297001659870148, -2.8912589550018026, 0)"/>
  <g transform="matrix(0.029127001762390137, 0, 0, 0.029297001659870148, -2.8912589550018026, 0)"/>
  <g transform="matrix(0.029127001762390137, 0, 0, 0.029297001659870148, -2.8912589550018026, 0)"/>
  <g transform="matrix(0.029127001762390137, 0, 0, 0.029297001659870148, -2.8912589550018026, 0)"/>
  <g transform="matrix(0.029127001762390137, 0, 0, 0.029297001659870148, -2.8912589550018026, 0)"/>
  <g transform="matrix(0.029127001762390137, 0, 0, 0.029297001659870148, -2.8912589550018026, 0)"/>
  <g transform="matrix(0.029127001762390137, 0, 0, 0.029297001659870148, -2.8912589550018026, 0)"/>
  <g transform="matrix(0.029127001762390137, 0, 0, 0.029297001659870148, -2.8912589550018026, 0)"/>
  <g transform="matrix(0.029127001762390137, 0, 0, 0.029297001659870148, -2.8912589550018026, 0)"/>
  <g transform="matrix(0.029127001762390137, 0, 0, 0.029297001659870148, -2.8912589550018026, 0)"/>
  <g transform="matrix(0.029127001762390137, 0, 0, 0.029297001659870148, -2.8912589550018026, 0)"/>
</svg>